<svg xmlns="http://www.w3.org/2000/svg" viewBox="0 0 486.65 419.22"><defs><style>.cls-1{fill:#fff;}</style></defs><g id="OBJECTS"><path class="cls-1" d="M237.74,395.71c-69.45-40.91-139.3-95.47-181.61-165-28.22-46.38-34.19-97-9.8-146.38C62.4,51.82,91.85,27.13,127.8,20.56,169.67,12.91,213.52,32,242.64,61.37c2.3,2.32,12.21-1.53,9.86-3.9C205.17,9.71,129-1.18,73.88,39.34,24.84,75.39,8.93,142.2,28.41,197.91c18.84,53.86,62.48,97.91,104.93,134.15a669.42,669.42,0,0,0,94.54,67.55c2.94,1.73,12.12-2.57,9.86-3.9Z"/><path class="cls-1" d="M345.16,19.15c56.68,1.12,96.27,41,114,92.34,1.11,3.2,11.57.11,10.56-2.83-18.8-54.45-61-93.58-120.26-94.75-3.48-.06-11.4,5.11-4.3,5.24Z"/><path class="cls-1" d="M247.57,379.82a7.26,7.26,0,0,1-3.69-1c-9.53-5.6-232.94-138.51-192.42-261.93C67.85,67,103,38.39,147.83,38.39c42.68,0,83.56,25.81,99.74,58.55,16.18-32.74,57.06-58.55,99.74-58.55,44.85,0,80,28.61,96.37,78.5C484.2,240.31,260.79,373.22,251.26,378.82A7.28,7.28,0,0,1,247.57,379.82Z"/></g></svg>