<svg xmlns="http://www.w3.org/2000/svg" viewBox="0 0 577.53 510.1" preserveAspectRatio="none"><defs><style>.cls-1{fill:#fff;}</style></defs><g id="OBJECTS"><path class="cls-1" d="M502.33,206.33,525,232.11c10.65,12.08,26.33,24.88,27.05,42,.9,21.22-27.47,26.5-42.59,32L475,318.71c-2.06.75-4.91,2.23-4.34,4.93,4,18.73,15.2,45.73,7.49,64.28-10.39,24.94-59.06,1.48-74.11-3.1-2.51-.76-8.41.33-8.41,3.91,0,18,2.8,41.79-23.3,44-5.85.49-8.21,8.13-1,7.53,30.89-2.58,35-26.5,35-52.35l-8.4,3.91c20.72,6.31,57.8,25.87,78.31,10.28,26.28-20,10.69-54.46,5-81.25l-4.34,4.92L521,309.65c12.6-4.59,29.84-8.25,36.77-21.1,10.56-19.6.9-33.79-11.87-48.3L512,201.74c-3.1-3.51-13.13.67-9.68,4.59Z"/><path class="cls-1" d="M329.61,18.72c22.53,6.06,27.76,37,35,56.28,1.25,3.32,6.49,2.79,8.75.9L410.46,45l19.68-16.4c19.67-16.4,43.61-2.8,42.47,21.25-.26,5.4,10.46,3.77,10.67-.86C485,13.66,447.07,4.07,423.19,24L366.45,71.27l8.75.9c-8.41-22.29-13.27-53.37-39.46-60.42-4.4-1.18-12.5,5.25-6.13,7Z"/><path class="cls-1" d="M33.8,458.56a528.51,528.51,0,0,0,51.33-54.15c1.56-1.91,1-4.12-1.33-5C51.13,387.64,70,352,77.28,329.26c.55-1.71.07-3.58-2-4l-29-6.47c-21.7-4.84-31.12-26-17.53-44.56l37.59-51.43c.75-1,1.53-2.62.44-3.78C55.55,207,38.61,194.2,33,178.35,20.41,142.39,71.93,147,91.43,147c2.63,0,6.26-2.19,5.77-5.18L86.71,77.53c-2.53-15.46,10.68-43,36.36-24.82l12.8,9.07L163,81c3.7,2.63,13-2.54,8.17-6C145.69,57,112.29,22.61,82.86,53.62,71.29,65.82,76.74,84,79.1,98.43l7.54,46.24,5.78-5.18c-13.25,0-29.36-2.66-42.3.67-19.32,5-36.88,26-25.61,46.41,7.68,13.94,21.51,25.22,32.34,36.72-1.48-1.56,1.88-5.08-1.49-.47l-7.49,10.24-18.5,25.32C21.14,269.63,7.55,283.67,11.64,299,17.76,321.92,36,324.8,56.23,329.3l11.13,2.48q3.54,1.35-.26-3.25l-1.55,4.82L57,360c-6.6,20.48-.65,38.65,20.71,46.37l-1.33-5A527.52,527.52,0,0,1,25,455.6c-4.81,4.41,5.48,6,8.8,3Z"/><path class="cls-1" d="M49,485.94a7.28,7.28,0,0,1-4.89-12.68C68.47,451.13,103.17,415.4,130,370.83L90,381.75A7.4,7.4,0,0,1,88,382a7.29,7.29,0,0,1-6.93-9.52l19.29-59.9L44.1,300a7.27,7.27,0,0,1-4.29-11.4l50.5-69.11L50.65,177.39A7.29,7.29,0,0,1,56,165.11h61.67L102.84,74.47A7.28,7.28,0,0,1,110,66a7.19,7.19,0,0,1,4.21,1.34l58.39,41.36,53.91-79a7.3,7.3,0,0,1,6-3.18,5.72,5.72,0,0,1,.58,0,7.29,7.29,0,0,1,6,4.15l32,67.78,50.94-59.27a7.26,7.26,0,0,1,5.52-2.54,7.66,7.66,0,0,1,1.26.11,7.31,7.31,0,0,1,5.56,4.6L360.33,110,444.4,40a7.28,7.28,0,0,1,11.88,6.57l-11.56,85.8,67.71,2.26a7.29,7.29,0,0,1,5.9,11.2l-38.42,60.37,53.88,61.16a7.29,7.29,0,0,1-3,11.66l-80.23,29.2,13.86,65.3a7.29,7.29,0,0,1-9.24,8.48l-76.12-23.15v48.51a7.29,7.29,0,0,1-11.27,6.1L298.19,368l-44.9,57.39a7.31,7.31,0,0,1-5.6,2.8h-.14a7.31,7.31,0,0,1-5.56-2.57L208.36,386c-30,29.84-90.26,82.48-157.57,99.77A7.47,7.47,0,0,1,49,485.94Z"/></g></svg>