<svg xmlns="http://www.w3.org/2000/svg" viewBox="0 0 425.08 428.01" preserveAspectRatio="none"><defs><style>.cls-1{fill:#fff;}</style></defs><g id="OBJECTS"><path class="cls-1" d="M387.16,148.12C400.1,206.88,400.83,270,367.7,322.43,332.4,378.3,265.9,395,203.62,390.21c-4.48-.35-11.08,6.11-3.93,6.66,63.15,4.88,127.14-10.69,168.77-61.22,43.61-52.93,43.27-126.76,29.26-190.36-.92-4.16-11.5-1.45-10.56,2.83Z"/><path class="cls-1" d="M63.85,387.21a364.69,364.69,0,0,0,26.57-34.46,2,2,0,0,0-.09-2.47C33.47,298.77,17.54,218.49,41,146.84,66.27,69.55,136.18,22.38,216.39,21.35c4.37-.06,11.06-6.75,3.93-6.66C137.59,15.76,67.64,59,35,135.71,17.41,177,15.12,223.21,26.4,266.4c5.53,21.15,15.62,40.93,27.9,58.9a170,170,0,0,0,22.17,25.59c6.5,6.32-17.4,29.63-21.23,34-4.24,4.86,6,5.3,8.61,2.28Z"/><path class="cls-1" d="M81.38,412.64a7.29,7.29,0,0,1-5.46-12.11c10.84-12.26,26.29-31.53,38.4-53.62-31.44-20.16-55.4-56.83-64.1-98.08-9.94-47.13.1-96.51,28.27-139,29-43.77,81.28-69.91,139.86-69.91S352.24,69.13,371.14,151.59c16.19,70.67,7.87,129.21-24.08,169.3-27,33.93-69.16,51.86-121.85,51.86a255.53,255.53,0,0,1-31-2c-27.83,27-65.75,41.08-112.71,41.86Z"/></g></svg>