<svg xmlns="http://www.w3.org/2000/svg" viewBox="0 0 539.42 471.99" preserveAspectRatio="none"><defs><style>.cls-1{fill:#fff;}</style></defs><g id="OBJECTS"><path class="cls-1" d="M125,345.27C63.76,343.65,4,270.56,32.38,210.62a3.06,3.06,0,0,0-.26-3.09c-18.31-24.62-22.83-53.31-5.94-80.13C41.7,102.75,70.93,87.16,99.6,86.2c1.89-.06,4.91-1.3,5.49-3.35,9.08-32.08,36.6-50,69.74-48.9,6.19.2,7.93-7.9.83-8.13-37.08-1.2-70.48,19.44-80.72,55.61l5.49-3.35C66.72,79.2,37.14,97.12,17.27,124,8.11,136.37,2.75,153.64,4.57,169a86.53,86.53,0,0,0,7.35,26.27c3,6.66,10.54,12.86,7.48,20.29-13.13,32,1.39,67.13,20,93.46,19.77,28,51,43.44,84.85,44.34,6.19.17,7.94-7.94.83-8.13Z"/><path class="cls-1" d="M514.69,256.65c-11.61,26.34-31.34,43.74-60,48.83-1.88.33-4.2,2.12-4.34,4.17-3,43.71-42.2,72.75-84.05,76.15-2.77.23-6.3,2.23-5.69,5.48,2.8,15,7.34,28.76,15.56,41.62,2.72,4.26,12.72.07,9.63-4.76-7.89-12.34-12-25.43-14.64-39.69l-5.69,5.48c46.55-3.79,92.26-35.74,95.61-85l-4.34,4.18c31.92-5.67,55.11-25.68,68.07-55.06,2.51-5.69-8.15-6-10.15-1.42Z"/><path class="cls-1" d="M372.3,66.94c28.13-3.8,56.62-2,80.83,14,22,14.59,32,40.23,35.8,65.29.79,5.15,11.36,2.46,10.56-2.83-4.19-27.51-15.55-52-38.28-68.77-24.85-18.37-58.69-19.81-88.08-15.84-6,.81-8,9.1-.83,8.13Z"/><path class="cls-1" d="M357.17,454.55a7.51,7.51,0,0,1-1.48-.15C328.92,448.86,282,432.6,268.52,386a171.44,171.44,0,0,1-33,3.15c-51.43,0-82-23.33-86.13-65.69a74.59,74.59,0,0,1-24.75,4.06c-18.37,0-44.66-6.54-65.63-37.71-36.57-54.36-3.58-81.3-3.24-81.57-.93-.74-22.37-18.34-24.11-42.17-.9-12.34,3.72-24.12,13.73-35,20.5-22.33,41.64-27,55.77-27a55.24,55.24,0,0,1,18.76,3c-1.54-14,2.26-40.17,26.67-49.87,9.18-3.65,17.46-5.5,24.6-5.5,10.6,0,15.45,4,16.69,5.26.15.15.29.3.43.47,0,0-.2-.31-.19-.35.21-1.76,5.82-43.05,68.37-43.05a166,166,0,0,1,17.24,1c79.07,8.29,82.29,71.3,82.39,74a149.09,149.09,0,0,1,41-6c47.35,0,73.77,26.08,76.41,75.43.94.37,20.6,8.49,29.68,29.79,7.22,16.94,6,37.47-3.66,61-10.38,25.36-30.69,39.33-57.17,39.33a57.9,57.9,0,0,1-11.7-1.07c.68,1.66,14.9,39.42-22.67,64.88-15.57,10.55-31.24,15.9-46.57,15.9-11.87,0-19.25-3.41-19.56-3.55-.08,1.89-.71,47.23,21.26,78.51a7.28,7.28,0,0,1-6,11.47Z"/></g></svg>