<?xml version="1.0" ?><svg width="100px" height="100px" viewBox="0 0 100 100" style="enable-background:new 0 0 100 100;" version="1.1" xml:space="preserve" xmlns="http://www.w3.org/2000/svg" xmlns:xlink="http://www.w3.org/1999/xlink"><style type="text/css">
	.st0{fill:#FFFFFF;}
	.st1{fill:#F5BB41;}
	.st2{fill:#2167D1;}
	.st3{fill:#3D84F3;}
	.st4{fill:#4CA853;}
	.st5{fill:#398039;}
	.st6{fill:#D74F3F;}
	.st7{fill:#D43C89;}
	.st8{fill:#B2005F;}
	.st9{fill:none;stroke:#000000;stroke-width:3;stroke-linecap:round;stroke-linejoin:round;stroke-miterlimit:10;}
	
		.st10{fill-rule:evenodd;clip-rule:evenodd;fill:none;stroke:#000000;stroke-width:3;stroke-linecap:round;stroke-linejoin:round;stroke-miterlimit:10;}
	
		.st11{fill-rule:evenodd;clip-rule:evenodd;fill:none;stroke:#040404;stroke-width:3;stroke-linecap:round;stroke-linejoin:round;stroke-miterlimit:10;}
	.st12{fill-rule:evenodd;clip-rule:evenodd;}
	.st13{fill-rule:evenodd;clip-rule:evenodd;fill:#040404;}
	.st14{fill:url(#SVGID_1_);}
	.st15{fill:url(#SVGID_2_);}
	.st16{fill:url(#SVGID_3_);}
	.st17{fill:url(#SVGID_4_);}
	.st18{fill:url(#SVGID_5_);}
	.st19{fill:url(#SVGID_6_);}
	.st20{fill:url(#SVGID_7_);}
	.st21{fill:url(#SVGID_8_);}
	.st22{fill:url(#SVGID_9_);}
	.st23{fill:url(#SVGID_10_);}
	.st24{fill:url(#SVGID_11_);}
	.st25{fill:url(#SVGID_12_);}
	.st26{fill:url(#SVGID_13_);}
	.st27{fill:url(#SVGID_14_);}
	.st28{fill:url(#SVGID_15_);}
	.st29{fill:url(#SVGID_16_);}
	.st30{fill:url(#SVGID_17_);}
	.st31{fill:url(#SVGID_18_);}
	.st32{fill:url(#SVGID_19_);}
	.st33{fill:url(#SVGID_20_);}
	.st34{fill:url(#SVGID_21_);}
	.st35{fill:url(#SVGID_22_);}
	.st36{fill:url(#SVGID_23_);}
	.st37{fill:url(#SVGID_24_);}
	.st38{fill:url(#SVGID_25_);}
	.st39{fill:url(#SVGID_26_);}
	.st40{fill:url(#SVGID_27_);}
	.st41{fill:url(#SVGID_28_);}
	.st42{fill:url(#SVGID_29_);}
	.st43{fill:url(#SVGID_30_);}
	.st44{fill:url(#SVGID_31_);}
	.st45{fill:url(#SVGID_32_);}
	.st46{fill:url(#SVGID_33_);}
	.st47{fill:url(#SVGID_34_);}
	.st48{fill:url(#SVGID_35_);}
	.st49{fill:url(#SVGID_36_);}
	.st50{fill:url(#SVGID_37_);}
	.st51{fill:url(#SVGID_38_);}
	.st52{fill:url(#SVGID_39_);}
	.st53{fill:url(#SVGID_40_);}
	.st54{fill:url(#SVGID_41_);}
	.st55{fill:url(#SVGID_42_);}
	.st56{fill:url(#SVGID_43_);}
	.st57{fill:url(#SVGID_44_);}
	.st58{fill:url(#SVGID_45_);}
	.st59{fill:#040404;}
	.st60{fill:url(#SVGID_46_);}
	.st61{fill:url(#SVGID_47_);}
	.st62{fill:url(#SVGID_48_);}
	.st63{fill:url(#SVGID_49_);}
	.st64{fill:url(#SVGID_50_);}
	.st65{fill:url(#SVGID_51_);}
	.st66{fill:url(#SVGID_52_);}
	.st67{fill:url(#SVGID_53_);}
	.st68{fill:url(#SVGID_54_);}
	.st69{fill:url(#SVGID_55_);}
	.st70{fill:url(#SVGID_56_);}
	.st71{fill:url(#SVGID_57_);}
	.st72{fill:url(#SVGID_58_);}
	.st73{fill:url(#SVGID_59_);}
	.st74{fill:url(#SVGID_60_);}
	.st75{fill:url(#SVGID_61_);}
	.st76{fill:url(#SVGID_62_);}
	.st77{fill:none;stroke:#000000;stroke-width:3;stroke-miterlimit:10;}
	.st78{fill:none;stroke:#FFFFFF;stroke-miterlimit:10;}
	.st79{fill:#4BC9FF;}
	.st80{fill:#5500DD;}
	.st81{fill:#FF3A00;}
	.st82{fill:#E6162D;}
	.st83{fill:#F1F1F1;}
	.st84{fill:#FF9933;}
	.st85{fill:#B92B27;}
	.st86{fill:#00ACED;}
	.st87{fill:#BD2125;}
	.st88{fill:#1877F2;}
	.st89{fill:#6665D2;}
	.st90{fill:#CE3056;}
	.st91{fill:#5BB381;}
	.st92{fill:#61C3EC;}
	.st93{fill:#E4B34B;}
	.st94{fill:#181EF2;}
	.st95{fill:#FF0000;}
	.st96{fill:#FE466C;}
	.st97{fill:#FA4778;}
	.st98{fill:#FF7700;}
	.st99{fill-rule:evenodd;clip-rule:evenodd;fill:#1F6BF6;}
	.st100{fill:#520094;}
	.st101{fill:#4477E8;}
	.st102{fill:#3D1D1C;}
	.st103{fill:#FFE812;}
	.st104{fill:#344356;}
	.st105{fill:#00CC76;}
	.st106{fill-rule:evenodd;clip-rule:evenodd;fill:#345E90;}
	.st107{fill:#1F65D8;}
	.st108{fill:#EB3587;}
	.st109{fill-rule:evenodd;clip-rule:evenodd;fill:#603A88;}
	.st110{fill:#E3CE99;}
	.st111{fill:#783AF9;}
	.st112{fill:#FF515E;}
	.st113{fill:#FF4906;}
	.st114{fill:#503227;}
	.st115{fill:#4C7BD9;}
	.st116{fill:#69C9D0;}
	.st117{fill:#1B92D1;}
	.st118{fill:#EB4F4A;}
	.st119{fill:#513728;}
	.st120{fill:#FF6600;}
	.st121{fill-rule:evenodd;clip-rule:evenodd;fill:#B61438;}
	.st122{fill:#FFFC00;}
	.st123{fill:#141414;}
	.st124{fill:#94D137;}
	.st125{fill-rule:evenodd;clip-rule:evenodd;fill:#F1F1F1;}
	.st126{fill-rule:evenodd;clip-rule:evenodd;fill:#66E066;}
	.st127{fill:#2D8CFF;}
	.st128{fill:#F1A300;}
	.st129{fill:#4BA2F2;}
	.st130{fill:#1A5099;}
	.st131{fill:#EE6060;}
	.st132{fill-rule:evenodd;clip-rule:evenodd;fill:#F48120;}
	.st133{fill:#222222;}
	.st134{fill:url(#SVGID_63_);}
	.st135{fill:#0077B5;}
	.st136{fill:#FFCC00;}
	.st137{fill:#EB3352;}
	.st138{fill:#F9D265;}
	.st139{fill:#F5B955;}
	.st140{fill:#DD2A7B;}
	.st141{fill:#66E066;}
	.st142{fill:#EB4E00;}
	.st143{fill:#FFC794;}
	.st144{fill:#B5332A;}
	.st145{fill:#4E85EB;}
	.st146{fill:#58A45C;}
	.st147{fill:#F2BC42;}
	.st148{fill:#D85040;}
	.st149{fill:#464EB8;}
	.st150{fill:#7B83EB;}
</style><g id="Layer_1"/><g id="Layer_2"><g><path class="st142" d="M76.163,2.5h-24.18h-3.966h-24.18C12.053,2.5,2.5,12.087,2.5,23.914v52.171c0,0.243,0.028,0.479,0.036,0.72    C2.918,88.296,12.295,97.5,23.837,97.5h9.646h7.841h10.659h24.18c11.542,0,20.919-9.204,21.301-20.694    c0.008-0.241,0.036-0.477,0.036-0.72V42.259V23.914C97.5,12.087,87.947,2.5,76.163,2.5z"/><path class="st143" d="M41.324,97.5h10.659h24.18c11.542,0,20.919-9.204,21.3-20.694c-2.766-0.693-8.759-1.608-20.788-1.373    c-9.317,0.182-17.731,5.854-23.864,11.546c-1.593,1.479-4.03,1.479-5.624,0c-6.132-5.692-14.547-11.364-23.864-11.546    c-12.029-0.235-18.022,0.68-20.788,1.373c0.382,11.49,9.759,20.694,21.3,20.694h9.646H41.324z"/><path d="M58.574,75.492c-1.035-1.039-2.412-1.611-3.876-1.611c-1.464,0-2.841,0.572-3.875,1.611L50,76.317l-0.822-0.825    c-1.035-1.039-2.412-1.611-3.876-1.611c-1.464,0-2.841,0.572-3.875,1.611c-2.133,2.141-2.133,5.624,0.016,7.78l4.643,4.523    c1.098,1.07,2.506,1.604,3.915,1.604s2.817-0.535,3.915-1.604l4.659-4.539C60.707,81.116,60.707,77.633,58.574,75.492z"/><path class="st0" d="M31.373,66.464h-0.306c-2.857,0-5.172-2.316-5.172-5.172l0-13.859c0-2.857,2.316-5.172,5.172-5.172h0.306    c2.857,0,5.172,2.316,5.172,5.172v13.859C36.546,64.148,34.23,66.464,31.373,66.464z"/><path class="st0" d="M68.627,66.464h0.306c2.857,0,5.172-2.316,5.172-5.172V47.432c0-2.857-2.316-5.172-5.172-5.172h-0.306    c-2.857,0-5.172,2.316-5.172,5.172v13.859C63.454,64.148,65.77,66.464,68.627,66.464z"/><path d="M29.5,45.304c-1.801,0-3.266,1.47-3.266,3.277v4.053c0,1.807,1.465,3.277,3.266,3.277c1.8,0,3.265-1.47,3.265-3.277    v-4.053C32.765,46.774,31.3,45.304,29.5,45.304z"/><path d="M67.059,45.304c-1.8,0-3.265,1.47-3.265,3.277v4.053c0,1.807,1.465,3.277,3.265,3.277c1.8,0,3.265-1.47,3.265-3.277    v-4.053C70.324,46.774,68.859,45.304,67.059,45.304z"/></g></g></svg>