<?xml version="1.0" encoding="utf-8"?>
<!-- Generator: Adobe Illustrator 19.0.0, SVG Export Plug-In . SVG Version: 6.00 Build 0)  -->
<svg version="1.1" id="icons" xmlns="http://www.w3.org/2000/svg" xmlns:xlink="http://www.w3.org/1999/xlink" x="0px" y="0px"
	 viewBox="0 0 96 96" style="enable-background:new 0 0 96 96;" xml:space="preserve">
<style type="text/css">
	.st0{fill:#352C2C;}
	.st1{fill:#A39A99;}
	.st2{fill:#7F7575;}
	.st3{fill:#C8BEBE;}
	.st4{fill:#EDE3E2;}
</style>
<g id="XMLID_805_">
	<g id="XMLID_1284_">
		<path id="XMLID_1285_" class="st0" d="M54,86c-2.2,0-4-1.8-4-4V8c0-2.2,1.8-4,4-4h4c2.2,0,4,1.8,4,4v74c0,2.2-1.8,4-4,4H54z"/>
		<path id="XMLID_1283_" class="st1" d="M58,84h-4c-1.1,0-2-0.9-2-2V8c0-1.1,0.9-2,2-2h4c1.1,0,2,0.9,2,2v74C60,83.1,59.1,84,58,84z
			"/>
	</g>
	<g id="XMLID_1286_">
		<path id="XMLID_1298_" class="st0" d="M36,86c-2.2,0-4-1.8-4-4V8c0-2.2,1.8-4,4-4h4c2.2,0,4,1.8,4,4v74c0,2.2-1.8,4-4,4H36z"/>
		<path id="XMLID_1287_" class="st1" d="M40,84h-4c-1.1,0-2-0.9-2-2V8c0-1.1,0.9-2,2-2h4c1.1,0,2,0.9,2,2v74C42,83.1,41.1,84,40,84z
			"/>
	</g>
	<g id="XMLID_627_">
		<g id="XMLID_644_">
			<rect id="XMLID_643_" x="53" y="80" class="st0" width="2" height="10"/>
			<rect id="XMLID_645_" x="67" y="80" class="st0" width="2" height="10"/>
			<rect id="XMLID_642_" x="52" y="90" class="st0" width="18" height="2"/>
		</g>
		<g id="XMLID_507_">
			<path id="XMLID_514_" class="st0" d="M78,26H66c-4.4,0-8,3.6-8,8v10h6V34c0-1.1,0.9-2,2-2h12V26z"/>
			<path id="XMLID_516_" class="st2" d="M76,28H66c-3.3,0-6,2.7-6,6v8h2v-8c0-2.2,1.8-4,4-4h10V28z"/>
			<rect id="XMLID_634_" x="57" y="33" class="st0" width="8" height="2"/>
			<rect id="XMLID_632_" x="72" y="25" class="st0" width="2" height="8"/>
			<rect id="XMLID_633_" x="65" y="25" class="st0" width="2" height="8"/>
		</g>
		<g id="XMLID_531_">
			<rect id="XMLID_618_" x="56" y="84" class="st0" width="10" height="8"/>
			<rect id="XMLID_530_" x="58" y="86" class="st3" width="6" height="4"/>
			<rect id="XMLID_646_" x="59" y="89" class="st0" width="4" height="1"/>
		</g>
		<g id="XMLID_504_">
			<path id="XMLID_622_" class="st0" d="M53,64V46c0-2.2,1.8-4,4-4h8c2.2,0,4,1.8,4,4v18H53z"/>
			<path id="XMLID_621_" class="st3" d="M67,62H55V46c0-1.1,0.9-2,2-2h8c1.1,0,2,0.9,2,2V62z"/>
			<rect id="XMLID_635_" x="55" y="56" class="st0" width="12" height="2"/>
			<rect id="XMLID_638_" x="55" y="48" class="st0" width="12" height="2"/>
			<circle id="XMLID_636_" class="st0" cx="61" cy="53" r="1"/>
			<circle id="XMLID_639_" class="st0" cx="61" cy="60" r="1"/>
		</g>
		<g id="XMLID_505_">
			<polygon id="XMLID_529_" class="st0" points="57,86 50,79 50,74 72,74 72,79 65,86 			"/>
			<path id="XMLID_509_" class="st0" d="M50,79V66c0-2.2,1.8-4,4-4h14c2.2,0,4,1.8,4,4v13H50z"/>
			<path id="XMLID_619_" class="st4" d="M70,78H52V66c0-1.1,0.9-2,2-2h14c1.1,0,2,0.9,2,2V78z"/>
			<polygon id="XMLID_506_" class="st4" points="70,76 52,76 52,78 58,84 64,84 70,78 			"/>
			<rect id="XMLID_508_" x="52" y="77" class="st0" width="18" height="2"/>
			<rect id="XMLID_637_" x="52" y="66" class="st0" width="18" height="2"/>
			<circle id="XMLID_640_" class="st0" cx="61" cy="71" r="1"/>
			<rect id="XMLID_641_" x="52" y="74" class="st0" width="18" height="1"/>
		</g>
	</g>
	<g id="XMLID_626_">
		<g id="XMLID_623_">
			<rect id="XMLID_625_" x="80" y="16" class="st0" width="6" height="8"/>
			<rect id="XMLID_620_" x="82" y="18" class="st3" width="2" height="4"/>
			<rect id="XMLID_624_" x="82" y="15" class="st0" width="2" height="1"/>
		</g>
		<g id="XMLID_501_">
			<path id="XMLID_503_" class="st0" d="M76,92V26c0-3.3,2.7-6,6-6h2c3.3,0,6,2.7,6,6v66H76z"/>
			<path id="XMLID_500_" class="st4" d="M88,90H78V26c0-2.2,1.8-4,4-4h2c2.2,0,4,1.8,4,4V90z"/>
			<g id="XMLID_630_">
				<rect id="XMLID_628_" x="74" y="58" class="st0" width="18" height="2"/>
				<rect id="XMLID_629_" x="79" y="57" class="st0" width="2" height="4"/>
				<rect id="XMLID_631_" x="85" y="57" class="st0" width="2" height="4"/>
			</g>
			<rect id="XMLID_614_" x="74" y="90" class="st0" width="18" height="2"/>
			<path id="XMLID_655_" class="st0" d="M80,92L80,92c-0.6,0-1-0.4-1-1v-2c0-0.6,0.4-1,1-1l0,0c0.6,0,1,0.4,1,1v2
				C81,91.6,80.6,92,80,92z"/>
			<path id="XMLID_1114_" class="st0" d="M86,92L86,92c-0.6,0-1-0.4-1-1v-2c0-0.6,0.4-1,1-1l0,0c0.6,0,1,0.4,1,1v2
				C87,91.6,86.6,92,86,92z"/>
			<rect id="XMLID_613_" x="78" y="74" class="st0" width="10" height="2"/>
			<rect id="XMLID_660_" x="70" y="42" class="st0" width="22" height="2"/>
			<rect id="XMLID_651_" x="70" y="37" class="st0" width="22" height="2"/>
			<rect id="XMLID_510_" x="72" y="39" class="st0" width="2" height="3"/>
			<rect id="XMLID_657_" x="82" y="39" class="st0" width="2" height="3"/>
			<rect id="XMLID_656_" x="74" y="40" class="st0" width="14" height="1"/>
		</g>
	</g>
	<g id="XMLID_1680_">
		<g id="XMLID_1695_">
			<rect id="XMLID_1696_" x="28" y="90" class="st0" width="16" height="2"/>
		</g>
		<g id="XMLID_1691_">
			<rect id="XMLID_1694_" x="31" y="84" class="st0" width="10" height="8"/>
			<rect id="XMLID_1693_" x="33" y="86" class="st1" width="6" height="4"/>
			<rect id="XMLID_1692_" x="34" y="89" class="st0" width="4" height="1"/>
		</g>
		<g id="XMLID_1688_">
			<path id="XMLID_1690_" class="st0" d="M28,82V46c0-2.2,1.8-4,4-4h8c2.2,0,4,1.8,4,4v36c0,2.2-1.8,4-4,4h-8C29.8,86,28,84.2,28,82
				z"/>
			<path id="XMLID_1689_" class="st4" d="M40,84h-8c-1.1,0-2-0.9-2-2V46c0-1.1,0.9-2,2-2h8c1.1,0,2,0.9,2,2v36
				C42,83.1,41.1,84,40,84z"/>
		</g>
		<g id="XMLID_1685_">
			<circle id="XMLID_1687_" class="st0" cx="39" cy="61" r="1"/>
			<circle id="XMLID_1686_" class="st0" cx="39" cy="69" r="1"/>
		</g>
		<g id="XMLID_1682_">
			<rect id="XMLID_1684_" x="32" y="74" class="st0" width="6" height="2"/>
			<rect id="XMLID_1683_" x="32" y="78" class="st0" width="8" height="2"/>
		</g>
		<rect id="XMLID_1681_" x="27" y="48" class="st0" width="18" height="2"/>
	</g>
	<g id="XMLID_615_">
		<g id="XMLID_653_">
			<rect id="XMLID_654_" x="8" y="90" class="st0" width="16" height="2"/>
		</g>
		<g id="XMLID_648_">
			<rect id="XMLID_652_" x="11" y="84" class="st0" width="10" height="8"/>
			<rect id="XMLID_650_" x="13" y="86" class="st1" width="6" height="4"/>
			<rect id="XMLID_649_" x="14" y="89" class="st0" width="4" height="1"/>
		</g>
		<g id="XMLID_616_">
			<path id="XMLID_647_" class="st0" d="M8,82V46c0-2.2,1.8-4,4-4h8c2.2,0,4,1.8,4,4v36c0,2.2-1.8,4-4,4h-8C9.8,86,8,84.2,8,82z"/>
			<path id="XMLID_617_" class="st4" d="M20,84h-8c-1.1,0-2-0.9-2-2V46c0-1.1,0.9-2,2-2h8c1.1,0,2,0.9,2,2v36C22,83.1,21.1,84,20,84
				z"/>
		</g>
		<g id="XMLID_1679_">
			<circle id="XMLID_611_" class="st0" cx="19" cy="61" r="1"/>
			<circle id="XMLID_1677_" class="st0" cx="19" cy="69" r="1"/>
		</g>
		<g id="XMLID_1639_">
			<rect id="XMLID_1641_" x="12" y="74" class="st0" width="6" height="2"/>
			<rect id="XMLID_1640_" x="12" y="78" class="st0" width="8" height="2"/>
		</g>
		<rect id="XMLID_612_" x="7" y="48" class="st0" width="18" height="2"/>
	</g>
	<g id="XMLID_1115_">
		<path id="XMLID_1282_" class="st0" d="M52,26H41c-4.4,0-8,3.6-8,8v10h6V34c0-1.1,0.9-2,2-2h11V26z"/>
		<path id="XMLID_1281_" class="st2" d="M50,28h-9c-3.3,0-6,2.7-6,6v8h2v-8c0-2.2,1.8-4,4-4h9V28z"/>
		<rect id="XMLID_1280_" x="32" y="33" class="st0" width="8" height="2"/>
		<rect id="XMLID_1278_" x="40" y="25" class="st0" width="2" height="8"/>
	</g>
	<g id="XMLID_1299_">
		<path id="XMLID_1635_" class="st0" d="M34,26H21c-4.4,0-8,3.6-8,8v10h6V34c0-1.1,0.9-2,2-2h13V26z"/>
		<path id="XMLID_1634_" class="st2" d="M32,28H21c-3.3,0-6,2.7-6,6v8h2v-8c0-2.2,1.8-4,4-4h11V28z"/>
		<rect id="XMLID_1303_" x="12" y="33" class="st0" width="8" height="2"/>
		<rect id="XMLID_1300_" x="20" y="25" class="st0" width="2" height="8"/>
	</g>
	<g id="XMLID_528_">
		<rect id="XMLID_511_" x="4" y="56" class="st0" width="68" height="2"/>
		<rect id="XMLID_526_" x="46" y="58" class="st0" width="2" height="34"/>
		<rect id="XMLID_609_" x="25" y="58" class="st0" width="2" height="34"/>
		<rect id="XMLID_610_" x="4" y="58" class="st0" width="2" height="34"/>
	</g>
	<g id="XMLID_804_">
		<rect id="XMLID_658_" x="8" y="16" class="st0" width="60" height="2"/>
		<rect id="XMLID_781_" x="8" y="10" class="st0" width="60" height="2"/>
		<rect id="XMLID_659_" x="8" y="18" class="st0" width="2" height="38"/>
		<rect id="XMLID_777_" x="46" y="18" class="st0" width="2" height="38"/>
		<rect id="XMLID_780_" x="64" y="12" class="st0" width="2" height="4"/>
		<rect id="XMLID_1678_" x="10" y="12" class="st0" width="2" height="4"/>
		<rect id="XMLID_1638_" x="26" y="12" class="st0" width="2" height="4"/>
		<rect id="XMLID_1301_" x="46" y="12" class="st0" width="2" height="4"/>
		<rect id="XMLID_1279_" x="12" y="13" class="st0" width="52" height="1"/>
	</g>
</g>
</svg>
