<?xml version="1.0" encoding="utf-8"?>
<!-- Generator: Adobe Illustrator 19.0.0, SVG Export Plug-In . SVG Version: 6.00 Build 0)  -->
<svg version="1.1" id="icons" xmlns="http://www.w3.org/2000/svg" xmlns:xlink="http://www.w3.org/1999/xlink" x="0px" y="0px"
	 viewBox="0 0 96 96" style="enable-background:new 0 0 96 96;" xml:space="preserve">
<style type="text/css">
	.st0{fill:#352C2C;}
	.st1{fill:#A39A99;}
	.st2{fill:#4A9FCE;}
	.st3{fill:#5A5150;}
	.st4{fill:#C8BEBE;}
	.st5{fill:#333333;}
	.st6{fill:#EDE3E2;}
</style>
<g id="XMLID_1843_">
	<g id="XMLID_1872_">
		<g id="XMLID_1866_">
			<path id="XMLID_1867_" class="st0" d="M66,16c-2.2,0-4-1.8-4-4v-2c0-2.2,1.8-4,4-4h10c2.2,0,4,1.8,4,4v2c0,2.2-1.8,4-4,4H66z"/>
			<path id="XMLID_1865_" class="st1" d="M76,14H66c-1.1,0-2-0.9-2-2v-2c0-1.1,0.9-2,2-2h10c1.1,0,2,0.9,2,2v2
				C78,13.1,77.1,14,76,14z"/>
			<rect id="XMLID_1868_" x="64" y="9" class="st0" width="14" height="1"/>
			<rect id="XMLID_1870_" x="64" y="12" class="st0" width="14" height="1"/>
			<circle id="XMLID_1869_" class="st0" cx="75" cy="11" r="1"/>
			<rect id="XMLID_1871_" x="68" y="4" class="st0" width="6" height="2"/>
		</g>
		<g id="XMLID_1848_">
			<rect id="XMLID_1849_" x="40" y="6" class="st0" width="16" height="12"/>
			<rect id="XMLID_1847_" x="42" y="8" class="st2" width="12" height="8"/>
			<g id="XMLID_1851_">
				<path id="XMLID_1850_" class="st0" d="M51.5,11h-7c-0.3,0-0.5-0.2-0.5-0.5v0c0-0.3,0.2-0.5,0.5-0.5h7c0.3,0,0.5,0.2,0.5,0.5v0
					C52,10.8,51.8,11,51.5,11z"/>
				<path id="XMLID_1852_" class="st0" d="M51.5,13h-7c-0.3,0-0.5-0.2-0.5-0.5v0c0-0.3,0.2-0.5,0.5-0.5h7c0.3,0,0.5,0.2,0.5,0.5v0
					C52,12.8,51.8,13,51.5,13z"/>
				<path id="XMLID_1853_" class="st0" d="M51.5,15h-7c-0.3,0-0.5-0.2-0.5-0.5v0c0-0.3,0.2-0.5,0.5-0.5h7c0.3,0,0.5,0.2,0.5,0.5v0
					C52,14.8,51.8,15,51.5,15z"/>
			</g>
			<rect id="XMLID_1854_" x="38" y="8" class="st0" width="2" height="6"/>
			<rect id="XMLID_1862_" x="56" y="8" class="st0" width="2" height="6"/>
			<rect id="XMLID_1856_" x="36" y="10" class="st0" width="2" height="2"/>
			<rect id="XMLID_1855_" x="34" y="10" class="st0" width="2" height="6"/>
			<circle id="XMLID_1857_" class="st0" cx="48" cy="8" r="1"/>
			<circle id="XMLID_1858_" class="st0" cx="42" cy="11" r="1"/>
			<circle id="XMLID_1859_" class="st0" cx="54" cy="11" r="1"/>
			<rect id="XMLID_1860_" x="45" y="4" class="st0" width="6" height="2"/>
			<g id="XMLID_1863_">
				<rect id="XMLID_1864_" x="58" y="4" class="st0" width="6" height="14"/>
				<rect id="XMLID_1861_" x="60" y="6" class="st3" width="2" height="10"/>
			</g>
		</g>
	</g>
	<g id="XMLID_1821_">
		<path id="XMLID_1822_" class="st0" d="M23,26c-2.2,0-4-1.8-4-4v-2c0-2.2,1.8-4,4-4h50c2.2,0,4,1.8,4,4v2c0,2.2-1.8,4-4,4H23z"/>
		<path id="XMLID_1820_" class="st4" d="M73,24H23c-1.1,0-2-0.9-2-2v-2c0-1.1,0.9-2,2-2h50c1.1,0,2,0.9,2,2v2C75,23.1,74.1,24,73,24
			z"/>
		<circle id="XMLID_1839_" class="st0" cx="48" cy="18" r="2"/>
		<rect id="XMLID_1844_" x="69" y="21" class="st5" width="2" height="1"/>
		<rect id="XMLID_1846_" x="25" y="21" class="st5" width="2" height="1"/>
	</g>
	<g id="XMLID_1836_">
		<g id="XMLID_1791_">
			<rect id="XMLID_1792_" x="23" y="70" class="st0" width="50" height="8"/>
			<rect id="XMLID_1777_" x="25" y="72" class="st1" width="46" height="4"/>
			<circle id="XMLID_1835_" class="st0" cx="27" cy="74" r="1"/>
			<circle id="XMLID_1837_" class="st0" cx="69" cy="74" r="1"/>
		</g>
		<g id="XMLID_1794_">
			<rect id="XMLID_1795_" x="23" y="76" class="st0" width="8" height="16"/>
			<rect id="XMLID_1793_" x="25" y="78" class="st1" width="4" height="12"/>
		</g>
		<g id="XMLID_1797_">
			<rect id="XMLID_1816_" x="65" y="76" class="st0" width="8" height="16"/>
			<rect id="XMLID_1798_" x="67" y="78" class="st1" width="4" height="12"/>
		</g>
	</g>
	<g id="XMLID_1817_">
		<rect id="XMLID_1818_" x="21" y="22" class="st0" width="54" height="50"/>
		<rect id="XMLID_1796_" x="23" y="24" class="st6" width="50" height="46"/>
		<g id="XMLID_1832_">
			<rect id="XMLID_1834_" x="27" y="36" class="st0" width="12" height="2"/>
			<rect id="XMLID_1833_" x="27" y="40" class="st0" width="14" height="2"/>
		</g>
		<g id="XMLID_1831_">
			<g id="XMLID_1830_">
				<rect id="XMLID_1828_" x="47" y="56" class="st0" width="2" height="6"/>
				<rect id="XMLID_1829_" x="41" y="56" class="st0" width="6" height="2"/>
			</g>
			<g id="XMLID_1826_">
				<path id="XMLID_1827_" class="st0" d="M48,68c-2.2,0-4-1.8-4-4s1.8-4,4-4c2.2,0,4,1.8,4,4S50.2,68,48,68z"/>
				<circle id="XMLID_1825_" class="st1" cx="48" cy="64" r="2"/>
				<circle id="XMLID_1845_" class="st0" cx="48" cy="64" r="1"/>
			</g>
		</g>
		<path id="XMLID_1838_" class="st0" d="M29,72L29,72c-1.1,0-2-0.9-2-2v-2c0-1.1,0.9-2,2-2h0c1.1,0,2,0.9,2,2v2
			C31,71.1,30.1,72,29,72z"/>
		<path id="XMLID_1840_" class="st0" d="M67,72L67,72c-1.1,0-2-0.9-2-2v-2c0-1.1,0.9-2,2-2l0,0c1.1,0,2,0.9,2,2v2
			C69,71.1,68.1,72,67,72z"/>
	</g>
	<g id="XMLID_1823_">
		<rect id="XMLID_1824_" x="17" y="22" class="st0" width="62" height="6"/>
		<rect id="XMLID_1819_" x="19" y="24" class="st1" width="58" height="2"/>
	</g>
	<rect id="XMLID_1842_" x="19" y="28" class="st5" width="2" height="5"/>
</g>
</svg>
