<?xml version="1.0" encoding="utf-8"?>
<!-- Generator: Adobe Illustrator 19.0.0, SVG Export Plug-In . SVG Version: 6.00 Build 0)  -->
<svg version="1.1" id="icons" xmlns="http://www.w3.org/2000/svg" xmlns:xlink="http://www.w3.org/1999/xlink" x="0px" y="0px"
	 viewBox="0 0 96 96" style="enable-background:new 0 0 96 96;" xml:space="preserve">
<style type="text/css">
	.st0{fill:#352C2C;}
	.st1{fill:#A39A99;}
	.st2{fill:#C8BEBE;}
	.st3{fill:#5A5150;}
	.st4{fill:#EDE3E2;}
	.st5{fill:#4A9FCE;}
</style>
<g id="XMLID_2181_">
	<g id="XMLID_2165_">
		<path id="XMLID_2162_" class="st0" d="M62,70v4c0,1.1-0.9,2-2,2h-7c-1.1,0-2-0.9-2-2V8c0-2.2-1.8-4-4-4h-4c-2.2,0-4,1.8-4,4v10h2
			V8c0-1.1,0.9-2,2-2h4c1.1,0,2,0.9,2,2v66c0,2.2,1.8,4,4,4h7c2.2,0,4-1.8,4-4v-4H62z"/>
		<path id="XMLID_2163_" class="st0" d="M41,10H23c-2.2,0-4,1.8-4,4v4h2v-4c0-1.1,0.9-2,2-2h18V10z"/>
		<g id="XMLID_2159_">
			<rect id="XMLID_2164_" x="27" y="9" class="st0" width="6" height="4"/>
			<rect id="XMLID_2161_" x="29" y="8" class="st0" width="2" height="1"/>
			<rect id="XMLID_2160_" x="28" y="7" class="st0" width="4" height="1"/>
		</g>
	</g>
	<g id="XMLID_2133_">
		<polygon id="XMLID_2141_" class="st0" points="59,72 52,65 52,60 74,60 74,65 67,72 		"/>
		<path id="XMLID_2140_" class="st0" d="M52,65V18c0-2.2,1.8-4,4-4h14c2.2,0,4,1.8,4,4v47H52z"/>
		<path id="XMLID_2139_" class="st1" d="M72,64H54V18c0-1.1,0.9-2,2-2h14c1.1,0,2,0.9,2,2V64z"/>
		<polygon id="XMLID_2138_" class="st1" points="72,62 54,62 54,64 60,70 66,70 72,64 		"/>
		<rect id="XMLID_2137_" x="54" y="63" class="st0" width="18" height="2"/>
		<rect id="XMLID_2136_" x="54" y="18" class="st0" width="18" height="2"/>
		<rect id="XMLID_2134_" x="54" y="60" class="st0" width="18" height="1"/>
		<g id="XMLID_2166_">
			<circle id="XMLID_2168_" class="st0" cx="63" cy="57" r="3"/>
			<circle id="XMLID_2167_" class="st2" cx="63" cy="57" r="1"/>
			<circle id="XMLID_2169_" class="st0" cx="63" cy="56" r="1"/>
		</g>
		<g id="XMLID_378_">
			<rect id="XMLID_379_" x="59" y="6" class="st0" width="8" height="10"/>
			<rect id="XMLID_377_" x="61" y="8" class="st3" width="4" height="6"/>
			<rect id="XMLID_2174_" x="61" y="4" class="st0" width="4" height="2"/>
			<rect id="XMLID_2175_" x="62" y="13" class="st0" width="2" height="1"/>
			<rect id="XMLID_2176_" x="58" y="6" class="st0" width="10" height="2"/>
			<rect id="XMLID_2178_" x="58" y="9" class="st0" width="10" height="2"/>
		</g>
	</g>
	<g id="XMLID_2121_">
		<path id="XMLID_2132_" class="st0" d="M39,74c0,1.1-0.9,2-2,2H23c-1.1,0-2-0.9-2-2v-4h-2v4c0,2.2,1.8,4,4,4h14c2.2,0,4-1.8,4-4v-4
			h-2V74z"/>
		<g id="XMLID_2105_">
			<g id="XMLID_2125_">
				<rect id="XMLID_2126_" x="16" y="66" class="st0" width="8" height="6"/>
				<rect id="XMLID_2095_" x="18" y="68" class="st1" width="4" height="2"/>
				<rect id="XMLID_2131_" x="19" y="69" class="st0" width="2" height="1"/>
			</g>
			<g id="XMLID_2102_">
				<path id="XMLID_2104_" class="st0" d="M12,64V22c0-2.2,1.8-4,4-4h8c2.2,0,4,1.8,4,4v42c0,2.2-1.8,4-4,4h-8
					C13.8,68,12,66.2,12,64z"/>
				<path id="XMLID_2103_" class="st4" d="M24,66h-8c-1.1,0-2-0.9-2-2V22c0-1.1,0.9-2,2-2h8c1.1,0,2,0.9,2,2v42
					C26,65.1,25.1,66,24,66z"/>
				<rect id="XMLID_2122_" x="14" y="62" class="st0" width="12" height="2"/>
			</g>
			<g id="XMLID_2096_">
				<rect id="XMLID_2098_" x="16" y="52" class="st0" width="6" height="2"/>
				<rect id="XMLID_2097_" x="16" y="56" class="st0" width="8" height="2"/>
			</g>
		</g>
		<g id="XMLID_2123_">
			<g id="XMLID_2147_">
				<rect id="XMLID_2150_" x="36" y="66" class="st0" width="8" height="6"/>
				<rect id="XMLID_2149_" x="38" y="68" class="st1" width="4" height="2"/>
				<rect id="XMLID_2148_" x="39" y="69" class="st0" width="2" height="1"/>
			</g>
			<g id="XMLID_2130_">
				<path id="XMLID_2146_" class="st0" d="M32,64V22c0-2.2,1.8-4,4-4h8c2.2,0,4,1.8,4,4v42c0,2.2-1.8,4-4,4h-8
					C33.8,68,32,66.2,32,64z"/>
				<path id="XMLID_2145_" class="st4" d="M44,66h-8c-1.1,0-2-0.9-2-2V22c0-1.1,0.9-2,2-2h8c1.1,0,2,0.9,2,2v42
					C46,65.1,45.1,66,44,66z"/>
				<rect id="XMLID_2144_" x="34" y="62" class="st0" width="12" height="2"/>
			</g>
			<g id="XMLID_2127_">
				<rect id="XMLID_2129_" x="36" y="52" class="st0" width="6" height="2"/>
				<rect id="XMLID_2128_" x="36" y="56" class="st0" width="8" height="2"/>
			</g>
		</g>
		<g id="XMLID_2099_">
			<rect id="XMLID_2120_" x="27" y="75" class="st0" width="6" height="4"/>
			<rect id="XMLID_2101_" x="29" y="74" class="st0" width="2" height="1"/>
			<rect id="XMLID_2100_" x="28" y="73" class="st0" width="4" height="1"/>
		</g>
	</g>
	<rect id="XMLID_2108_" x="4" y="44" class="st0" width="88" height="6"/>
	<rect id="XMLID_2106_" x="6" y="46" class="st1" width="84" height="2"/>
	<g id="XMLID_2110_">
		<rect id="XMLID_2107_" x="6" y="50" class="st0" width="2" height="42"/>
		<rect id="XMLID_2109_" x="4" y="90" class="st0" width="6" height="2"/>
	</g>
	<g id="XMLID_2112_">
		<rect id="XMLID_2114_" x="88" y="50" class="st0" width="2" height="42"/>
		<rect id="XMLID_2113_" x="86" y="90" class="st0" width="6" height="2"/>
	</g>
	<g id="XMLID_2118_">
		<rect id="XMLID_2111_" x="6" y="26" class="st0" width="2" height="18"/>
		<rect id="XMLID_2124_" x="29" y="26" class="st0" width="2" height="18"/>
		<rect id="XMLID_2152_" x="49" y="26" class="st0" width="2" height="18"/>
		<rect id="XMLID_2154_" x="68" y="26" class="st0" width="2" height="18"/>
		<rect id="XMLID_2116_" x="88" y="26" class="st0" width="2" height="18"/>
		<rect id="XMLID_2115_" x="8" y="26" class="st0" width="80" height="2"/>
		<rect id="XMLID_2117_" x="8" y="32" class="st0" width="80" height="2"/>
		<rect id="XMLID_2119_" x="8" y="38" class="st0" width="80" height="2"/>
	</g>
	<g id="XMLID_2142_">
		<rect id="XMLID_2143_" x="76" y="60" class="st0" width="14" height="22"/>
		<rect id="XMLID_2135_" x="78" y="62" class="st5" width="10" height="18"/>
		<circle id="XMLID_2151_" class="st0" cx="80" cy="77" r="1"/>
		<circle id="XMLID_2153_" class="st0" cx="86" cy="77" r="1"/>
		<circle id="XMLID_2156_" class="st0" cx="80" cy="73" r="1"/>
		<circle id="XMLID_2157_" class="st0" cx="83" cy="69" r="1"/>
		<circle id="XMLID_2155_" class="st0" cx="86" cy="73" r="1"/>
		<rect id="XMLID_2158_" x="79" y="64" class="st0" width="8" height="2"/>
	</g>
	<polygon id="XMLID_2177_" class="st0" points="88,54 84,50 82,50 88,56 	"/>
	<polygon id="XMLID_2182_" class="st0" points="88,86 84,82 82,82 88,88 	"/>
	<polygon id="XMLID_2180_" class="st0" points="8,54 12,50 14,50 8,56 	"/>
	<rect id="XMLID_2179_" x="8" y="86" class="st0" width="80" height="2"/>
</g>
</svg>
