<svg xmlns="http://www.w3.org/2000/svg" xmlns:xlink="http://www.w3.org/1999/xlink" viewBox="0 0 74 92"><defs><style>.cls-1{fill:none;}.cls-2{fill:#352c2c;}.cls-3{fill:#e2af47;}.cls-4{opacity:0.2;}.cls-5{fill:#5a5150;}.cls-6{clip-path:url(#clip-path);}.cls-7{fill:#a39a99;}.cls-8{fill:#c8bebe;}.cls-9{fill:#ede3e2;}</style><clipPath id="clip-path"><rect id="_Rectangle_" data-name="&lt;Rectangle&gt;" class="cls-1" x="28" y="62" width="18" height="16"/></clipPath></defs><title>gauge</title><g id="Layer_2" data-name="Layer 2"><g id="hmicons_-_generic" data-name="hmicons - generic"><g id="_Group_" data-name="&lt;Group&gt;"><g id="_Group_2" data-name="&lt;Group&gt;"><rect id="_Rectangle_2" data-name="&lt;Rectangle&gt;" class="cls-2" x="33" y="75" width="8" height="14" transform="translate(119 45) rotate(90)"/><rect id="_Rectangle_3" data-name="&lt;Rectangle&gt;" class="cls-3" x="32" y="80" width="10" height="4"/><rect id="_Rectangle_4" data-name="&lt;Rectangle&gt;" class="cls-4" x="32" y="80" width="10" height="2"/></g><g id="_Group_3" data-name="&lt;Group&gt;"><rect id="_Rectangle_5" data-name="&lt;Rectangle&gt;" class="cls-2" x="27" y="59" width="20" height="22" transform="translate(107 33) rotate(90)"/><rect id="_Rectangle_6" data-name="&lt;Rectangle&gt;" class="cls-5" x="28" y="62" width="18" height="16"/><g id="_Clip_Group_" data-name="&lt;Clip Group&gt;"><g class="cls-6"><path id="_Path_" data-name="&lt;Path&gt;" class="cls-4" d="M37,74A37,37,0,1,1,74,37,37,37,0,0,1,37,74Z"/></g></g><rect id="_Rectangle_7" data-name="&lt;Rectangle&gt;" class="cls-2" x="30" y="62" width="2" height="16"/><rect id="_Rectangle_8" data-name="&lt;Rectangle&gt;" class="cls-2" x="34" y="62" width="2" height="16"/><rect id="_Rectangle_9" data-name="&lt;Rectangle&gt;" class="cls-2" x="38" y="62" width="2" height="16"/><rect id="_Rectangle_10" data-name="&lt;Rectangle&gt;" class="cls-2" x="42" y="62" width="2" height="16"/></g><g id="_Group_4" data-name="&lt;Group&gt;"><rect id="_Rectangle_11" data-name="&lt;Rectangle&gt;" class="cls-2" x="33" y="79" width="8" height="18" transform="translate(125 51) rotate(90)"/><rect id="_Rectangle_12" data-name="&lt;Rectangle&gt;" class="cls-7" x="30" y="86" width="14" height="4"/><rect id="_Rectangle_13" data-name="&lt;Rectangle&gt;" class="cls-2" x="32" y="86" width="2" height="4"/><rect id="_Rectangle_14" data-name="&lt;Rectangle&gt;" class="cls-2" x="36" y="86" width="2" height="4"/><rect id="_Rectangle_15" data-name="&lt;Rectangle&gt;" class="cls-2" x="40" y="86" width="2" height="4"/></g><g id="_Group_5" data-name="&lt;Group&gt;"><path id="_Path_2" data-name="&lt;Path&gt;" class="cls-2" d="M37,70A33,33,0,1,1,70,37,33,33,0,0,1,37,70Z"/><circle id="_Path_3" data-name="&lt;Path&gt;" class="cls-8" cx="37" cy="37" r="31"/><circle id="_Path_4" data-name="&lt;Path&gt;" class="cls-2" cx="37" cy="37" r="25"/><circle id="_Path_5" data-name="&lt;Path&gt;" class="cls-9" cx="37" cy="37" r="23"/><g id="_Group_6" data-name="&lt;Group&gt;"><circle id="_Path_6" data-name="&lt;Path&gt;" class="cls-2" cx="37" cy="9" r="2"/><circle id="_Path_7" data-name="&lt;Path&gt;" class="cls-2" cx="9" cy="37" r="2"/><circle id="_Path_8" data-name="&lt;Path&gt;" class="cls-2" cx="65" cy="37" r="2"/><circle id="_Path_9" data-name="&lt;Path&gt;" class="cls-2" cx="17" cy="17" r="2"/><circle id="_Path_10" data-name="&lt;Path&gt;" class="cls-2" cx="57" cy="17" r="2"/><circle id="_Path_11" data-name="&lt;Path&gt;" class="cls-2" cx="37" cy="65" r="2"/><circle id="_Path_12" data-name="&lt;Path&gt;" class="cls-2" cx="17" cy="57" r="2"/><circle id="_Path_13" data-name="&lt;Path&gt;" class="cls-2" cx="57" cy="57" r="2"/></g><path id="_Compound_Path_" data-name="&lt;Compound Path&gt;" class="cls-4" d="M37,14A23,23,0,1,0,60,37,23,23,0,0,0,37,14Zm0,42A19,19,0,1,1,56,37,19,19,0,0,1,37,56Z"/><g id="_Group_7" data-name="&lt;Group&gt;"><rect id="_Rectangle_16" data-name="&lt;Rectangle&gt;" class="cls-2" x="36" y="16" width="2" height="6"/><rect id="_Rectangle_17" data-name="&lt;Rectangle&gt;" class="cls-2" x="16" y="36" width="6" height="2"/><rect id="_Rectangle_18" data-name="&lt;Rectangle&gt;" class="cls-2" x="52" y="36" width="6" height="2"/><circle id="_Path_14" data-name="&lt;Path&gt;" class="cls-3" cx="37" cy="37" r="7"/><circle id="_Path_15" data-name="&lt;Path&gt;" class="cls-2" cx="37" cy="37" r="3"/><polygon id="_Path_16" data-name="&lt;Path&gt;" class="cls-2" points="35 35 39 39 50 24 35 35"/><rect id="_Rectangle_19" data-name="&lt;Rectangle&gt;" class="cls-2" x="31" y="52" width="12" height="4"/><g id="_Group_8" data-name="&lt;Group&gt;"><rect id="_Path_17" data-name="&lt;Path&gt;" class="cls-2" x="23.29" y="21.88" width="1.41" height="4.24" transform="translate(-9.94 24) rotate(-45)"/><rect id="_Path_18" data-name="&lt;Path&gt;" class="cls-2" x="47.88" y="23.29" width="4.24" height="1.41" transform="translate(-2.33 42.38) rotate(-45)"/></g><path id="_Compound_Path_2" data-name="&lt;Compound Path&gt;" class="cls-2" d="M37,24A13,13,0,1,0,50,37,13,13,0,0,0,37,24Zm0,24A11,11,0,1,1,48,37,11,11,0,0,1,37,48Z"/></g></g></g></g></g></svg>