<svg xmlns="http://www.w3.org/2000/svg" xmlns:xlink="http://www.w3.org/1999/xlink" viewBox="0 0 90 88"><defs><style>.cls-1{fill:none;}.cls-2{fill:#352c2c;}.cls-3{fill:#ede3e2;}.cls-4{clip-path:url(#clip-path);}.cls-5{fill:#5a5150;}.cls-6{fill:#a39a99;}.cls-7{fill:#e2af47;}.cls-8{fill:#679b7c;}.cls-9{opacity:0.2;}.cls-10{fill:#4a9fce;}</style><clipPath id="clip-path"><path id="_Rectangle_" data-name="&lt;Rectangle&gt;" class="cls-1" d="M14,4H40a0,0,0,0,1,0,0V84a0,0,0,0,1,0,0H14A10,10,0,0,1,4,74V14A10,10,0,0,1,14,4Z"/></clipPath></defs><title>plc</title><g id="Layer_2" data-name="Layer 2"><g id="hmicons_-_generic" data-name="hmicons - generic"><g id="_Group_" data-name="&lt;Group&gt;"><g id="_Group_2" data-name="&lt;Group&gt;"><path id="_Rectangle_2" data-name="&lt;Rectangle&gt;" class="cls-2" d="M-20,24H64a0,0,0,0,1,0,0V52A12,12,0,0,1,52,64H-8A12,12,0,0,1-20,52V24A0,0,0,0,1-20,24Z" transform="translate(66 22) rotate(90)"/><path id="_Rectangle_3" data-name="&lt;Rectangle&gt;" class="cls-3" d="M14,4H40a0,0,0,0,1,0,0V84a0,0,0,0,1,0,0H14A10,10,0,0,1,4,74V14A10,10,0,0,1,14,4Z"/><g id="_Clip_Group_" data-name="&lt;Clip Group&gt;"><g class="cls-4"><path id="_Path_" data-name="&lt;Path&gt;" class="cls-2" d="M40,28c-18,0-18-6-36-6H0V0H44V28Z"/><path id="_Path_2" data-name="&lt;Path&gt;" class="cls-5" d="M40,26c-18,0-18-6-36-6H2V2H42V26Z"/></g></g><g id="_Group_3" data-name="&lt;Group&gt;"><rect id="_Rectangle_4" data-name="&lt;Rectangle&gt;" class="cls-2" x="12" y="76" width="24" height="2" rx="1" ry="1"/><rect id="_Rectangle_5" data-name="&lt;Rectangle&gt;" class="cls-2" x="12" y="70" width="24" height="2" rx="1" ry="1"/><rect id="_Rectangle_6" data-name="&lt;Rectangle&gt;" class="cls-2" x="12" y="64" width="24" height="2" rx="1" ry="1"/><rect id="_Rectangle_7" data-name="&lt;Rectangle&gt;" class="cls-2" x="12" y="58" width="24" height="2" rx="1" ry="1"/><rect id="_Rectangle_8" data-name="&lt;Rectangle&gt;" class="cls-2" x="12" y="52" width="24" height="2" rx="1" ry="1"/><rect id="_Rectangle_9" data-name="&lt;Rectangle&gt;" class="cls-2" x="12" y="46" width="24" height="2" rx="1" ry="1"/><rect id="_Rectangle_10" data-name="&lt;Rectangle&gt;" class="cls-2" x="12" y="40" width="24" height="2" rx="1" ry="1"/><rect id="_Rectangle_11" data-name="&lt;Rectangle&gt;" class="cls-2" x="16" y="34" width="20" height="2" rx="1" ry="1"/></g><rect id="_Rectangle_12" data-name="&lt;Rectangle&gt;" class="cls-2" x="16" y="86" width="6" height="2"/><circle id="_Path_3" data-name="&lt;Path&gt;" class="cls-2" cx="12" cy="16" r="2"/><g id="_Group_4" data-name="&lt;Group&gt;"><polygon id="_Path_4" data-name="&lt;Path&gt;" class="cls-2" points="23 18 16 18 16 16 24 16 23 18"/><polygon id="_Path_5" data-name="&lt;Path&gt;" class="cls-2" points="32 18 25 18 26 16 32 16 32 18"/></g><rect id="_Rectangle_13" data-name="&lt;Rectangle&gt;" class="cls-2" x="10" y="10" width="26" height="2" rx="1" ry="1"/></g><g id="_Group_5" data-name="&lt;Group&gt;"><rect id="_Rectangle_14" data-name="&lt;Rectangle&gt;" class="cls-2" x="84" y="6" width="6" height="22" rx="2" ry="2"/><rect id="_Rectangle_15" data-name="&lt;Rectangle&gt;" class="cls-2" x="84" y="28" width="6" height="56" rx="2" ry="2"/><rect id="_Rectangle_16" data-name="&lt;Rectangle&gt;" class="cls-6" x="86" y="8" width="2" height="18"/><rect id="_Rectangle_17" data-name="&lt;Rectangle&gt;" class="cls-6" x="86" y="30" width="2" height="52"/></g><g id="_Group_6" data-name="&lt;Group&gt;"><rect id="_Rectangle_18" data-name="&lt;Rectangle&gt;" class="cls-2" x="76" y="86" width="6" height="2"/><rect id="_Rectangle_19" data-name="&lt;Rectangle&gt;" class="cls-2" x="32" y="32" width="84" height="24" transform="translate(118 -30) rotate(90)"/><rect id="_Rectangle_20" data-name="&lt;Rectangle&gt;" class="cls-3" x="64" y="4" width="20" height="80"/><g id="_Group_7" data-name="&lt;Group&gt;"><rect id="_Rectangle_21" data-name="&lt;Rectangle&gt;" class="cls-2" x="68" y="76" width="12" height="2" rx="1" ry="1"/><rect id="_Rectangle_22" data-name="&lt;Rectangle&gt;" class="cls-2" x="68" y="70" width="12" height="2" rx="1" ry="1"/><rect id="_Rectangle_23" data-name="&lt;Rectangle&gt;" class="cls-2" x="68" y="64" width="12" height="2" rx="1" ry="1"/><rect id="_Rectangle_24" data-name="&lt;Rectangle&gt;" class="cls-2" x="68" y="58" width="12" height="2" rx="1" ry="1"/><rect id="_Rectangle_25" data-name="&lt;Rectangle&gt;" class="cls-2" x="68" y="52" width="12" height="2" rx="1" ry="1"/><rect id="_Rectangle_26" data-name="&lt;Rectangle&gt;" class="cls-2" x="68" y="46" width="12" height="2" rx="1" ry="1"/><rect id="_Rectangle_27" data-name="&lt;Rectangle&gt;" class="cls-2" x="68" y="40" width="12" height="2" rx="1" ry="1"/></g><g id="_Group_8" data-name="&lt;Group&gt;"><circle id="_Path_6" data-name="&lt;Path&gt;" class="cls-2" cx="74" cy="33" r="3"/><rect id="_Rectangle_28" data-name="&lt;Rectangle&gt;" class="cls-2" x="75" y="32" width="4" height="2" rx="1" ry="1"/></g><g id="_Group_9" data-name="&lt;Group&gt;"><rect id="_Rectangle_29" data-name="&lt;Rectangle&gt;" class="cls-7" x="64" y="4" width="20" height="4"/><rect id="_Rectangle_30" data-name="&lt;Rectangle&gt;" class="cls-2" x="64" y="26" width="20" height="2"/><rect id="_Rectangle_31" data-name="&lt;Rectangle&gt;" class="cls-5" x="64" y="8" width="20" height="18"/><g id="_Group_10" data-name="&lt;Group&gt;"><rect id="_Rectangle_32" data-name="&lt;Rectangle&gt;" class="cls-2" x="68" y="5" width="6" height="2"/><rect id="_Rectangle_33" data-name="&lt;Rectangle&gt;" class="cls-2" x="76" y="5" width="2" height="2"/></g><g id="_Group_11" data-name="&lt;Group&gt;"><rect id="_Rectangle_34" data-name="&lt;Rectangle&gt;" class="cls-2" x="66" y="12" width="16" height="12"/><rect id="_Rectangle_35" data-name="&lt;Rectangle&gt;" class="cls-8" x="68" y="14" width="12" height="8"/><g id="_Group_12" data-name="&lt;Group&gt;"><rect id="_Rectangle_36" data-name="&lt;Rectangle&gt;" class="cls-2" x="71" y="16" width="2" height="4"/><rect id="_Rectangle_37" data-name="&lt;Rectangle&gt;" class="cls-2" x="75" y="18" width="2" height="2"/></g><rect id="_Rectangle_38" data-name="&lt;Rectangle&gt;" class="cls-9" x="68" y="14" width="12" height="4"/></g><rect id="_Rectangle_39" data-name="&lt;Rectangle&gt;" class="cls-2" x="64" y="8" width="20" height="2"/></g></g><g id="_Group_13" data-name="&lt;Group&gt;"><rect id="_Rectangle_40" data-name="&lt;Rectangle&gt;" class="cls-2" x="10" y="32" width="84" height="24" transform="translate(96 -8) rotate(90)"/><rect id="_Rectangle_41" data-name="&lt;Rectangle&gt;" class="cls-3" x="42" y="4" width="20" height="80"/><g id="_Group_14" data-name="&lt;Group&gt;"><rect id="_Rectangle_42" data-name="&lt;Rectangle&gt;" class="cls-2" x="46" y="76" width="12" height="2" rx="1" ry="1"/><rect id="_Rectangle_43" data-name="&lt;Rectangle&gt;" class="cls-2" x="46" y="70" width="12" height="2" rx="1" ry="1"/><rect id="_Rectangle_44" data-name="&lt;Rectangle&gt;" class="cls-2" x="46" y="64" width="12" height="2" rx="1" ry="1"/><rect id="_Rectangle_45" data-name="&lt;Rectangle&gt;" class="cls-2" x="46" y="58" width="12" height="2" rx="1" ry="1"/><rect id="_Rectangle_46" data-name="&lt;Rectangle&gt;" class="cls-2" x="46" y="52" width="12" height="2" rx="1" ry="1"/><rect id="_Rectangle_47" data-name="&lt;Rectangle&gt;" class="cls-2" x="46" y="46" width="12" height="2" rx="1" ry="1"/><rect id="_Rectangle_48" data-name="&lt;Rectangle&gt;" class="cls-2" x="46" y="40" width="12" height="2" rx="1" ry="1"/><rect id="_Rectangle_49" data-name="&lt;Rectangle&gt;" class="cls-2" x="46" y="34" width="12" height="2" rx="1" ry="1"/></g><rect id="_Rectangle_50" data-name="&lt;Rectangle&gt;" class="cls-2" x="54" y="86" width="6" height="2"/><g id="_Group_15" data-name="&lt;Group&gt;"><rect id="_Rectangle_51" data-name="&lt;Rectangle&gt;" class="cls-10" x="42" y="4" width="20" height="4"/><rect id="_Rectangle_52" data-name="&lt;Rectangle&gt;" class="cls-2" x="42" y="26" width="20" height="2"/><rect id="_Rectangle_53" data-name="&lt;Rectangle&gt;" class="cls-5" x="42" y="8" width="20" height="18"/><g id="_Group_16" data-name="&lt;Group&gt;"><rect id="_Rectangle_54" data-name="&lt;Rectangle&gt;" class="cls-2" x="46" y="5" width="6" height="2"/><rect id="_Rectangle_55" data-name="&lt;Rectangle&gt;" class="cls-2" x="54" y="5" width="2" height="2"/></g><g id="_Group_17" data-name="&lt;Group&gt;"><rect id="_Rectangle_56" data-name="&lt;Rectangle&gt;" class="cls-2" x="44" y="12" width="16" height="12"/><rect id="_Rectangle_57" data-name="&lt;Rectangle&gt;" class="cls-8" x="46" y="14" width="12" height="8"/><g id="_Group_18" data-name="&lt;Group&gt;"><rect id="_Rectangle_58" data-name="&lt;Rectangle&gt;" class="cls-2" x="48" y="18" width="4" height="2"/><rect id="_Rectangle_59" data-name="&lt;Rectangle&gt;" class="cls-2" x="54" y="18" width="2" height="2"/></g></g><rect id="_Rectangle_60" data-name="&lt;Rectangle&gt;" class="cls-2" x="42" y="8" width="20" height="2"/><rect id="_Rectangle_61" data-name="&lt;Rectangle&gt;" class="cls-9" x="46" y="14" width="12" height="4"/></g></g><rect id="_Rectangle_62" data-name="&lt;Rectangle&gt;" class="cls-2" x="56" width="26" height="2"/><rect id="_Rectangle_63" data-name="&lt;Rectangle&gt;" class="cls-2" x="28" width="24" height="2"/></g></g></g></svg>