<?xml version="1.0" encoding="iso-8859-1"?>
<!-- Generator: Adobe Illustrator 16.0.0, SVG Export Plug-In . SVG Version: 6.00 Build 0)  -->
<!DOCTYPE svg PUBLIC "-//W3C//DTD SVG 1.1//EN" "http://www.w3.org/Graphics/SVG/1.1/DTD/svg11.dtd">
<svg version="1.1" id="&#x5716;&#x5C64;_1" xmlns="http://www.w3.org/2000/svg" xmlns:xlink="http://www.w3.org/1999/xlink" x="0px"
	 y="0px" width="512px" height="512px" viewBox="0 0 512 512" style="enable-background:new 0 0 512 512;" xml:space="preserve">
<path style="fill-rule:evenodd;clip-rule:evenodd;fill:#888888;" d="M187.521,106.818c9.536,0.174,18.441,1.279,26.552,5.591
	c18.382,9.773,27.831,25.736,30.549,45.94c0.423,3.152,1.295,3.941,4.399,3.94c20.055-0.011,39.086,3.623,56.408,14.698
	c42.504,27.177,53.8,86.201,24.012,126.898c-15.788,21.572-37.102,33.678-63.479,37.112c-1.771,0.23-3.588,0.153-5.382,0.153
	c-24.467-0.002-48.933,0.132-73.396-0.105c-8.993-0.086-17.879-1.567-26.086-5.633c-13.274-6.572-17.99-18.738-13.451-32.841
	c7.354-22.852,9.668-46.124,4.627-69.839c-0.952-4.482-2.65-8.665-4.771-12.72c-2.128-4.071-3.635-8.382-3.348-13.07
	c0.6-9.825,8.11-16.619,19.214-17.479c8.991-0.695,18.113-0.958,26.826,1.144c18.345,4.427,32.536-13.92,29.648-31.358
	c-1.083-6.539-3.81-12.365-8.041-17.454c-8.063-9.701-19.366-12.568-32.598-6.404c-11.382,5.302-16.828,3.449-23.973-5.937
	c-9.061-11.904-24.864-14.541-41.132-8.449c-14.424,5.4-22.337,16.471-26.612,30.612c-1.878,6.216-3.022,12.566-2.606,19.172
	c0.356,5.655-3.104,10.246-8.819,12.05c-7.084,2.239-14.331,3.921-21.051,7.283c-19.69,9.85-31.231,25.661-35.033,47.249
	c-3.741,21.243-1.351,41.259,11.957,59.033c6.71,8.962,15.032,16.128,24.764,21.647c1.678,0.952,3.381,1.873,5.127,2.689
	c6.6,3.095,9.312,8.181,8.331,15.425c-1.39,10.254-0.715,20.403,2.214,30.347c12.901,43.785,57.344,51.729,87.404,32.231
	c1.041-0.676,2.052-1.405,3.13-2.016c6.49-3.682,11.69-3.14,16.781,2.283c12.735,13.564,28.067,22.742,46.143,26.919
	c33.194,7.668,61.979-0.525,85.806-25.063c4.164-4.29,8.254-7.796,14.755-5.916c1.353,0.391,2.65,0.83,3.695,1.744
	c9.568,8.382,21.258,11.467,33.421,12.962c21.771,2.681,42.612-0.157,60.779-13.335c20.442-14.825,31.094-35.041,30.563-60.575
	c-0.112-5.429,2.016-9.228,6.15-12.327c7.094-5.318,13.76-11.092,19.091-18.263c7.729-10.394,11.074-22.389,12.714-34.975
	c3.148-24.182-2.824-45.995-17.502-65.381c-6.429-8.492-14.695-14.404-25.288-16.881c-7.889-1.844-10.584-5.164-11.766-13.405
	c-2.573-17.975-9.45-33.728-24.124-45.175c-14.815-11.559-31.823-15.271-50.282-13.244c-9.814,1.078-19.156,3.716-28.112,7.95
	c-6.059,2.864-11.458,1.257-15.411-4.678c-12.308-18.481-29.682-29.563-51.092-33.809c-26.963-5.348-52.468-1.603-75.07,15.284
	C191.779,102.618,189.724,104.817,187.521,106.818z M69.891,292.694c-6.886,0.117-12.873-1.613-17.901-5.986
	c-5.848-5.086-5.868-10.329,0.501-14.595c20.051-13.424,40.264-26.609,60.458-39.822c3.275-2.144,5.605-1.106,6.898,2.721
	c1.046,3.1,1.092,6.299,0.369,9.414c-4.917,21.163-17.829,35.947-36.949,45.563C79.06,292.105,74.364,292.88,69.891,292.694z"/>
<path style="fill-rule:evenodd;clip-rule:evenodd;fill:#888888;" d="M224.303,316.311c11.054,0,22.108,0.086,33.16-0.019
	c30.371-0.281,55.89-21.006,62.482-50.647c7.954-35.745-16.128-71.227-52.388-77.115c-8.332-1.354-16.8-0.949-25.18-1.692
	c-2.377-0.211-3.019,1.351-3.903,2.94c-7.674,13.801-19.032,22.739-34.657,25.812c-6.321,1.242-12.67,0.368-18.957-0.614
	c-3.701-0.58-8.644-2.259-10.818-0.305c-2.677,2.405,1.184,6.509,1.978,9.921c4.244,18.254,4.77,36.64,2.3,55.146
	c-1.371,10.271-3.528,20.392-6.865,30.215c-0.726,2.138-0.12,2.998,1.742,3.72c4.982,1.935,10.22,2.449,15.459,2.516
	c11.88,0.15,23.763,0.047,35.646,0.047C224.303,316.26,224.303,316.284,224.303,316.311z M224.406,232.816
	c0.018,5.502-4.441,10.237-9.732,10.333c-5.589,0.101-10.333-4.549-10.365-10.157c-0.033-5.684,4.591-10.348,10.18-10.271
	C219.941,222.798,224.386,227.322,224.406,232.816z"/>
<path style="display:none;fill-rule:evenodd;clip-rule:evenodd;fill:#888888;" d="M224.406,232.816
	c-0.02-5.494-4.464-10.019-9.917-10.094c-5.588-0.078-10.213,4.586-10.18,10.271c0.032,5.608,4.776,10.257,10.365,10.157
	C219.964,243.054,224.424,238.319,224.406,232.816z"/>
</svg>
