<?xml version="1.0" encoding="utf-8"?>
<!-- Generator: Adobe Illustrator 19.0.0, SVG Export Plug-In . SVG Version: 6.00 Build 0)  -->
<svg version="1.1" id="icons" xmlns="http://www.w3.org/2000/svg" xmlns:xlink="http://www.w3.org/1999/xlink" x="0px" y="0px"
	 viewBox="0 0 96 96" style="enable-background:new 0 0 96 96;" xml:space="preserve">
<style type="text/css">
	.st0{fill:#352C2C;}
	.st1{fill:#EDE3E2;}
	.st2{fill:#C8BEBE;}
	.st3{fill:#A39A99;}
	.st4{fill:#4A9FCE;}
	.st5{fill:#7F7575;}
</style>
<g id="XMLID_167_">
	<g id="XMLID_5_">
		<polygon id="XMLID_27_" class="st0" points="8,34 8,29 19,18 29,18 40,29 40,34 		"/>
		<path id="XMLID_23_" class="st0" d="M12,92c-2.2,0-4-1.8-4-4V30h32v58c0,2.2-1.8,4-4,4H12z"/>
		<path id="XMLID_24_" class="st1" d="M36,90H12c-1.1,0-2-0.9-2-2V32h28v56C38,89.1,37.1,90,36,90z"/>
		<g id="XMLID_119_">
			<rect id="XMLID_113_" x="10" y="67" class="st0" width="28" height="2"/>
			<rect id="XMLID_114_" x="32" y="66" class="st0" width="2" height="4"/>
			<rect id="XMLID_116_" x="14" y="66" class="st0" width="2" height="4"/>
		</g>
		<polygon id="XMLID_25_" class="st1" points="38,32 10,32 10,30 20,20 28,20 38,30 		"/>
		<g id="XMLID_38_">
			<g id="XMLID_49_">
				<g id="XMLID_37_">
					<g id="XMLID_35_">
						<rect id="XMLID_36_" x="4" y="40" class="st0" width="8" height="8"/>
						<rect id="XMLID_34_" x="6" y="42" class="st2" width="4" height="4"/>
					</g>
					<rect id="XMLID_44_" x="4" y="39" class="st0" width="2" height="10"/>
				</g>
				<rect id="XMLID_207_" x="7" y="42" class="st0" width="1" height="4"/>
			</g>
			<g id="XMLID_209_">
				<g id="XMLID_211_">
					<g id="XMLID_218_">
						<rect id="XMLID_220_" x="4" y="56" class="st0" width="8" height="8"/>
						<rect id="XMLID_219_" x="6" y="58" class="st2" width="4" height="4"/>
					</g>
					<rect id="XMLID_212_" x="4" y="55" class="st0" width="2" height="10"/>
				</g>
				<rect id="XMLID_210_" x="7" y="58" class="st0" width="1" height="4"/>
			</g>
			<g id="XMLID_221_">
				<g id="XMLID_223_">
					<g id="XMLID_226_">
						<rect id="XMLID_228_" x="4" y="72" class="st0" width="8" height="8"/>
						<rect id="XMLID_227_" x="6" y="74" class="st2" width="4" height="4"/>
					</g>
					<rect id="XMLID_225_" x="4" y="71" class="st0" width="2" height="10"/>
				</g>
				<rect id="XMLID_222_" x="7" y="74" class="st0" width="1" height="4"/>
			</g>
		</g>
		<g id="XMLID_123_">
			<circle id="XMLID_125_" class="st0" cx="20" cy="28" r="1"/>
			<circle id="XMLID_127_" class="st0" cx="28" cy="28" r="1"/>
			<rect id="XMLID_124_" x="19" y="22" class="st0" width="10" height="6"/>
			<rect id="XMLID_120_" x="21" y="24" class="st3" width="6" height="2"/>
			<rect id="XMLID_134_" x="22" y="25" class="st0" width="4" height="1"/>
		</g>
		<rect id="XMLID_117_" x="10" y="30" class="st0" width="28" height="2"/>
		<g id="XMLID_26_">
			<rect id="XMLID_162_" x="14" y="49" class="st0" width="8" height="2"/>
			<rect id="XMLID_161_" x="14" y="53" class="st0" width="10" height="2"/>
		</g>
		<g id="XMLID_191_">
			<rect id="XMLID_192_" x="24" y="82" class="st0" width="10" height="6"/>
			<rect id="XMLID_190_" x="26" y="84" class="st4" width="6" height="2"/>
			<rect id="XMLID_193_" x="26" y="88" class="st0" width="2" height="2"/>
			<rect id="XMLID_194_" x="30" y="88" class="st0" width="2" height="2"/>
			<path id="XMLID_206_" class="st0" d="M40,78h-6c-2.2,0-4,1.8-4,4h2c0-1.1,0.9-2,2-2h6c1.1,0,2,0.9,2,2c0,1.1-0.9,2-2,2v2
				c2.2,0,4-1.8,4-4S42.2,78,40,78z"/>
			<rect id="XMLID_195_" x="30" y="84" class="st0" width="1" height="2"/>
			<rect id="XMLID_196_" x="27" y="85" class="st0" width="2" height="1"/>
		</g>
	</g>
	<g id="XMLID_28_">
		<polygon id="XMLID_166_" class="st0" points="60,34 60,29 71,18 81,18 92,29 92,34 		"/>
		<path id="XMLID_165_" class="st0" d="M64,92c-2.2,0-4-1.8-4-4V30h32v58c0,2.2-1.8,4-4,4H64z"/>
		<path id="XMLID_164_" class="st1" d="M88,90H64c-1.1,0-2-0.9-2-2V32h28v56C90,89.1,89.1,90,88,90z"/>
		<g id="XMLID_157_">
			<rect id="XMLID_163_" x="62" y="67" class="st0" width="28" height="2"/>
			<rect id="XMLID_160_" x="84" y="66" class="st0" width="2" height="4"/>
			<rect id="XMLID_159_" x="66" y="66" class="st0" width="2" height="4"/>
		</g>
		<polygon id="XMLID_156_" class="st1" points="90,32 62,32 62,30 72,20 80,20 90,30 		"/>
		<rect id="XMLID_128_" x="62" y="30" class="st0" width="28" height="2"/>
		<g id="XMLID_29_">
			<rect id="XMLID_126_" x="66" y="49" class="st0" width="8" height="2"/>
			<rect id="XMLID_33_" x="66" y="53" class="st0" width="10" height="2"/>
		</g>
		<g id="XMLID_39_">
			<g id="XMLID_253_">
				<g id="XMLID_267_">
					<g id="XMLID_275_">
						<rect id="XMLID_294_" x="56" y="40" class="st0" width="8" height="8"/>
						<rect id="XMLID_286_" x="58" y="42" class="st2" width="4" height="4"/>
					</g>
					<rect id="XMLID_268_" x="56" y="39" class="st0" width="2" height="10"/>
				</g>
				<rect id="XMLID_259_" x="59" y="42" class="st0" width="1" height="4"/>
			</g>
			<g id="XMLID_48_">
				<g id="XMLID_111_">
					<g id="XMLID_208_">
						<rect id="XMLID_244_" x="56" y="56" class="st0" width="8" height="8"/>
						<rect id="XMLID_229_" x="58" y="58" class="st2" width="4" height="4"/>
					</g>
					<rect id="XMLID_112_" x="56" y="55" class="st0" width="2" height="10"/>
				</g>
				<rect id="XMLID_50_" x="59" y="58" class="st0" width="1" height="4"/>
			</g>
			<g id="XMLID_40_">
				<g id="XMLID_42_">
					<g id="XMLID_45_">
						<rect id="XMLID_47_" x="56" y="72" class="st0" width="8" height="8"/>
						<rect id="XMLID_46_" x="58" y="74" class="st2" width="4" height="4"/>
					</g>
					<rect id="XMLID_43_" x="56" y="71" class="st0" width="2" height="10"/>
				</g>
				<rect id="XMLID_41_" x="59" y="74" class="st0" width="1" height="4"/>
			</g>
		</g>
		<g id="XMLID_135_">
			<circle id="XMLID_140_" class="st0" cx="72" cy="28" r="1"/>
			<circle id="XMLID_139_" class="st0" cx="80" cy="28" r="1"/>
			<rect id="XMLID_138_" x="71" y="22" class="st0" width="10" height="6"/>
			<rect id="XMLID_137_" x="73" y="24" class="st3" width="6" height="2"/>
			<rect id="XMLID_136_" x="74" y="25" class="st0" width="4" height="1"/>
		</g>
		<g id="XMLID_142_">
			<rect id="XMLID_141_" x="76" y="82" class="st0" width="10" height="6"/>
			<rect id="XMLID_133_" x="78" y="84" class="st4" width="6" height="2"/>
			<rect id="XMLID_132_" x="78" y="88" class="st0" width="2" height="2"/>
			<rect id="XMLID_131_" x="82" y="88" class="st0" width="2" height="2"/>
			<rect id="XMLID_130_" x="82" y="84" class="st0" width="1" height="2"/>
			<rect id="XMLID_129_" x="79" y="85" class="st0" width="2" height="1"/>
			<rect id="XMLID_143_" x="86" y="84" class="st0" width="4" height="2"/>
		</g>
	</g>
	<g id="XMLID_177_">
		<g id="XMLID_176_">
			<path id="XMLID_178_" class="st0" d="M55,82c-1.1,0-2-0.9-2-2V16c0-4.4-3.6-8-8-8H29c-4.4,0-8,3.6-8,8v4h6v-4c0-1.1,0.9-2,2-2h16
				c1.1,0,2,0.9,2,2v64c0,4.4,3.6,8,8,8h7v-6H55z"/>
			<path id="XMLID_179_" class="st5" d="M55,84c-2.2,0-4-1.8-4-4V16c0-3.3-2.7-6-6-6H29c-3.3,0-6,2.7-6,6v2h2v-2c0-2.2,1.8-4,4-4h16
				c2.2,0,4,1.8,4,4v64c0,3.3,2.7,6,6,6h5v-2H55z"/>
		</g>
		<g id="XMLID_171_">
			<rect id="XMLID_168_" x="34" y="7" class="st0" width="2" height="8"/>
			<rect id="XMLID_172_" x="38" y="7" class="st0" width="2" height="8"/>
		</g>
		<rect id="XMLID_175_" x="20" y="15" class="st0" width="8" height="2"/>
		<rect id="XMLID_169_" x="46" y="15" class="st0" width="8" height="2"/>
		<rect id="XMLID_183_" x="46" y="79" class="st0" width="8" height="2"/>
		<g id="XMLID_182_">
			<rect id="XMLID_180_" x="46" y="45" class="st0" width="8" height="2"/>
			<rect id="XMLID_181_" x="46" y="49" class="st0" width="8" height="2"/>
		</g>
		<g id="XMLID_186_">
			<path id="XMLID_185_" class="st0" d="M50,35c-2.2,0-4-1.8-4-4s1.8-4,4-4s4,1.8,4,4S52.2,35,50,35z"/>
			<circle id="XMLID_53_" class="st3" cx="50" cy="31" r="2"/>
			<circle id="XMLID_184_" class="st0" cx="50" cy="29" r="1"/>
			<circle id="XMLID_187_" class="st0" cx="48" cy="31" r="1"/>
			<circle id="XMLID_188_" class="st0" cx="50" cy="33" r="1"/>
			<circle id="XMLID_189_" class="st0" cx="52" cy="31" r="1"/>
		</g>
		<polygon id="XMLID_147_" class="st0" points="30,4 30,8 32,8 32,6 42,6 42,8 44,8 44,4 		"/>
		<polygon id="XMLID_144_" class="st0" points="43,55 47,55 47,53 45,53 45,43 47,43 47,41 43,41 		"/>
	</g>
</g>
</svg>
