<?xml version="1.0" encoding="utf-8"?>
<!-- Generator: Adobe Illustrator 19.0.0, SVG Export Plug-In . SVG Version: 6.00 Build 0)  -->
<svg version="1.1" id="icons" xmlns="http://www.w3.org/2000/svg" xmlns:xlink="http://www.w3.org/1999/xlink" x="0px" y="0px"
	 viewBox="0 0 96 96" style="enable-background:new 0 0 96 96;" xml:space="preserve">
<style type="text/css">
	.st0{fill:#352C2C;}
	.st1{fill:#A39A99;}
	.st2{fill:#C8BEBE;}
	.st3{fill:#EDE3E2;}
	.st4{fill:#5A5150;}
	.st5{fill:#4A9FCE;}
</style>
<g id="XMLID_893_">
	<g id="XMLID_751_">
		<g id="XMLID_740_">
			<rect id="XMLID_741_" x="34" y="60" class="st0" width="12" height="14"/>
			<rect id="XMLID_739_" x="36" y="62" class="st1" width="8" height="10"/>
			<rect id="XMLID_748_" x="41" y="62" class="st0" width="1" height="10"/>
			<rect id="XMLID_750_" x="38" y="62" class="st0" width="1" height="10"/>
			<g id="XMLID_861_">
				<rect id="XMLID_847_" x="36" y="64" class="st0" width="1" height="2"/>
				<rect id="XMLID_874_" x="36" y="68" class="st0" width="1" height="2"/>
			</g>
			<g id="XMLID_883_">
				<rect id="XMLID_881_" x="43" y="64" class="st0" width="1" height="2"/>
				<rect id="XMLID_876_" x="43" y="68" class="st0" width="1" height="2"/>
			</g>
		</g>
		<g id="XMLID_743_">
			<rect id="XMLID_738_" x="44" y="60" class="st0" width="8" height="14"/>
			<rect id="XMLID_733_" x="46" y="62" class="st2" width="4" height="10"/>
			<circle id="XMLID_742_" class="st0" cx="48" cy="67" r="1"/>
			<rect id="XMLID_737_" x="44" y="58" class="st0" width="2" height="18"/>
		</g>
	</g>
	<g id="XMLID_706_">
		<rect id="XMLID_884_" x="54" y="9" class="st0" width="2" height="4"/>
		<g id="XMLID_725_">
			<rect id="XMLID_726_" x="86" y="24" class="st0" width="6" height="8"/>
			<rect id="XMLID_718_" x="88" y="26" class="st1" width="2" height="4"/>
		</g>
		<g id="XMLID_728_">
			<rect id="XMLID_730_" x="86" y="78" class="st0" width="6" height="8"/>
			<rect id="XMLID_729_" x="88" y="80" class="st1" width="2" height="4"/>
		</g>
		<g id="XMLID_701_">
			<rect id="XMLID_702_" x="62" y="4" class="st0" width="14" height="8"/>
			<rect id="XMLID_699_" x="64" y="6" class="st2" width="10" height="4"/>
			<rect id="XMLID_705_" x="60" y="4" class="st0" width="18" height="2"/>
		</g>
		<g id="XMLID_703_">
			<path id="XMLID_700_" class="st0" d="M69,24c-7.1,0-19-1.7-19-8s11.9-8,19-8s19,1.7,19,8S76.1,24,69,24z"/>
			<ellipse id="XMLID_686_" class="st3" cx="69" cy="16" rx="17" ry="6"/>
		</g>
		<g id="XMLID_704_">
			<rect id="XMLID_598_" x="50" y="16" class="st0" width="38" height="76"/>
			<rect id="XMLID_591_" x="52" y="18" class="st3" width="34" height="72"/>
		</g>
		<g id="XMLID_599_">
			<path id="XMLID_600_" class="st0" d="M69,44c-5.5,0-10-4.5-10-10s4.5-10,10-10s10,4.5,10,10S74.5,44,69,44z"/>
			<circle id="XMLID_592_" class="st2" cx="69" cy="34" r="8"/>
			<g id="XMLID_602_">
				<circle id="XMLID_601_" class="st0" cx="69" cy="28" r="1"/>
				<circle id="XMLID_608_" class="st0" cx="65" cy="30" r="1"/>
				<circle id="XMLID_685_" class="st0" cx="73" cy="30" r="1"/>
				<circle id="XMLID_605_" class="st0" cx="63" cy="34" r="1"/>
				<circle id="XMLID_606_" class="st0" cx="75" cy="34" r="1"/>
				<circle id="XMLID_603_" class="st0" cx="69" cy="40" r="1"/>
				<circle id="XMLID_607_" class="st0" cx="65" cy="38" r="1"/>
				<circle id="XMLID_604_" class="st0" cx="73" cy="38" r="1"/>
			</g>
		</g>
		<g id="XMLID_687_">
			<path id="XMLID_698_" class="st0" d="M69,78c-5.5,0-10-4.5-10-10s4.5-10,10-10s10,4.5,10,10S74.5,78,69,78z"/>
			<circle id="XMLID_697_" class="st2" cx="69" cy="68" r="8"/>
			<g id="XMLID_688_">
				<circle id="XMLID_696_" class="st0" cx="69" cy="62" r="1"/>
				<circle id="XMLID_695_" class="st0" cx="65" cy="64" r="1"/>
				<circle id="XMLID_694_" class="st0" cx="73" cy="64" r="1"/>
				<circle id="XMLID_693_" class="st0" cx="63" cy="68" r="1"/>
				<circle id="XMLID_692_" class="st0" cx="75" cy="68" r="1"/>
				<circle id="XMLID_691_" class="st0" cx="69" cy="74" r="1"/>
				<circle id="XMLID_690_" class="st0" cx="65" cy="72" r="1"/>
				<circle id="XMLID_689_" class="st0" cx="73" cy="72" r="1"/>
			</g>
		</g>
		<rect id="XMLID_707_" x="49" y="16" class="st0" width="40" height="2"/>
		<g id="XMLID_716_">
			<rect id="XMLID_708_" x="54" y="15" class="st0" width="2" height="4"/>
			<rect id="XMLID_717_" x="58" y="15" class="st0" width="2" height="4"/>
			<rect id="XMLID_719_" x="62" y="15" class="st0" width="2" height="4"/>
			<rect id="XMLID_720_" x="66" y="15" class="st0" width="2" height="4"/>
			<rect id="XMLID_721_" x="70" y="15" class="st0" width="2" height="4"/>
			<rect id="XMLID_722_" x="74" y="15" class="st0" width="2" height="4"/>
			<rect id="XMLID_723_" x="78" y="15" class="st0" width="2" height="4"/>
			<rect id="XMLID_724_" x="82" y="15" class="st0" width="2" height="4"/>
		</g>
		<g id="XMLID_731_">
			<path id="XMLID_727_" class="st0" d="M79,88L79,88c-0.6,0-1-0.4-1-1v-4c0-0.6,0.4-1,1-1l0,0c0.6,0,1,0.4,1,1v4
				C80,87.6,79.6,88,79,88z"/>
			<path id="XMLID_732_" class="st0" d="M83,88L83,88c-0.6,0-1-0.4-1-1v-4c0-0.6,0.4-1,1-1l0,0c0.6,0,1,0.4,1,1v4
				C84,87.6,83.6,88,83,88z"/>
		</g>
		<g id="XMLID_734_">
			<path id="XMLID_736_" class="st0" d="M55,88L55,88c-0.5,0-1-0.4-1-1v-4c0-0.6,0.5-1,1-1l0,0c0.5,0,1,0.4,1,1v4
				C56,87.6,55.5,88,55,88z"/>
			<path id="XMLID_735_" class="st0" d="M59,88L59,88c-0.5,0-1-0.4-1-1v-4c0-0.6,0.5-1,1-1l0,0c0.5,0,1,0.4,1,1v4
				C60,87.6,59.5,88,59,88z"/>
		</g>
		<g id="XMLID_888_">
			<circle id="XMLID_886_" class="st0" cx="63" cy="87" r="1"/>
			<circle id="XMLID_887_" class="st0" cx="63" cy="81" r="1"/>
		</g>
		<circle id="XMLID_885_" class="st0" cx="55" cy="53" r="1"/>
	</g>
	<g id="XMLID_844_">
		<g id="XMLID_842_">
			<path id="XMLID_843_" class="st0" d="M10,86c-3.3,0-6-2.7-6-6s2.7-6,6-6s6,2.7,6,6S13.3,86,10,86z"/>
			<circle id="XMLID_841_" class="st4" cx="10" cy="80" r="4"/>
		</g>
		<g id="XMLID_811_">
			<polygon id="XMLID_812_" class="st0" points="8,92 12,82 28,82 32,92 			"/>
			<polygon id="XMLID_810_" class="st1" points="27,84 13,84 11,90 29,90 			"/>
			<rect id="XMLID_813_" x="11" y="88" class="st0" width="18" height="1"/>
			<rect id="XMLID_846_" x="7" y="90" class="st0" width="26" height="2"/>
		</g>
		<g id="XMLID_753_">
			<path id="XMLID_754_" class="st0" d="M8,76c0-8.8,7.2-16,16-16h12v14h-4v2H8z"/>
			<path id="XMLID_752_" class="st0" d="M20,88c-6.6,0-12-5.4-12-12s5.4-12,12-12s12,5.4,12,12S26.6,88,20,88z"/>
			<circle id="XMLID_749_" class="st5" cx="20" cy="76" r="10"/>
			<path id="XMLID_755_" class="st5" d="M34,62H24c-7.7,0-14,6.3-14,14v0h20v-4h4V62z"/>
			<g id="XMLID_837_">
				<circle id="XMLID_815_" class="st0" cx="20" cy="76" r="6"/>
				<circle id="XMLID_818_" class="st4" cx="20" cy="76" r="4"/>
				<g id="XMLID_840_">
					<rect id="XMLID_838_" x="19" y="71" class="st0" width="2" height="10"/>
					<rect id="XMLID_839_" x="15" y="75" class="st0" width="10" height="2"/>
				</g>
			</g>
			<g id="XMLID_889_">
				<rect id="XMLID_892_" x="24" y="64" class="st0" width="6" height="2"/>
				<rect id="XMLID_890_" x="24" y="68" class="st0" width="8" height="2"/>
			</g>
		</g>
	</g>
	<rect id="XMLID_845_" x="34" y="58" class="st0" width="2" height="18"/>
</g>
</svg>
