<?xml version="1.0" encoding="utf-8"?>
<!-- Generator: Adobe Illustrator 19.0.0, SVG Export Plug-In . SVG Version: 6.00 Build 0)  -->
<svg version="1.1" id="icons" xmlns="http://www.w3.org/2000/svg" xmlns:xlink="http://www.w3.org/1999/xlink" x="0px" y="0px"
	 viewBox="0 0 96 96" style="enable-background:new 0 0 96 96;" xml:space="preserve">
<style type="text/css">
	.st0{fill:#352C2C;}
	.st1{fill:#A39A99;}
	.st2{fill:#EDE3E2;}
	.st3{fill:#C8BEBE;}
</style>
<g id="XMLID_497_">
	<g id="XMLID_282_">
		<g id="XMLID_498_">
			<polygon id="XMLID_499_" class="st0" points="76,71 36,50 33,50 33,42 38,42 78,63 81,63 81,71 			"/>
			<polygon id="XMLID_502_" class="st1" points="77,65 37,44 35,44 35,48 37,48 77,69 79,69 79,65 			"/>
		</g>
		<polygon id="XMLID_416_" class="st0" points="36,26 92,56 92,58 36,28 		"/>
		<polygon id="XMLID_417_" class="st0" points="36,34 92,64 92,66 36,36 		"/>
		<rect id="XMLID_306_" x="10" y="51" class="st0" width="22" height="1"/>
		<rect id="XMLID_308_" x="10" y="87" class="st0" width="22" height="1"/>
		<g id="XMLID_261_">
			<rect id="XMLID_262_" x="4" y="48" class="st0" width="6" height="44"/>
			<rect id="XMLID_260_" x="6" y="50" class="st2" width="2" height="40"/>
		</g>
		<g id="XMLID_264_">
			<rect id="XMLID_266_" x="32" y="48" class="st0" width="6" height="44"/>
			<rect id="XMLID_265_" x="34" y="50" class="st2" width="2" height="40"/>
		</g>
		<g id="XMLID_269_">
			<rect id="XMLID_270_" x="4" y="42" class="st0" width="34" height="8"/>
			<rect id="XMLID_263_" x="6" y="44" class="st2" width="30" height="4"/>
			<g id="XMLID_495_">
				<circle id="XMLID_494_" class="st0" cx="8" cy="46" r="1"/>
				<circle id="XMLID_496_" class="st0" cx="34" cy="46" r="1"/>
			</g>
		</g>
		<g id="XMLID_272_">
			<rect id="XMLID_273_" x="8" y="80" class="st0" width="26" height="6"/>
			<rect id="XMLID_271_" x="10" y="82" class="st3" width="22" height="2"/>
		</g>
		<g id="XMLID_279_">
			<rect id="XMLID_281_" x="8" y="58" class="st0" width="26" height="6"/>
			<rect id="XMLID_280_" x="10" y="60" class="st3" width="22" height="2"/>
		</g>
		<g id="XMLID_276_">
			<rect id="XMLID_277_" x="12" y="58" class="st0" width="18" height="24"/>
			<rect id="XMLID_274_" x="14" y="60" class="st1" width="14" height="20"/>
			<g id="XMLID_307_">
				<rect id="XMLID_310_" x="16" y="72" class="st0" width="8" height="2"/>
				<rect id="XMLID_309_" x="16" y="76" class="st0" width="10" height="2"/>
			</g>
		</g>
		<polygon id="XMLID_278_" class="st0" points="10,54 14,50 16,50 10,56 		"/>
		<polygon id="XMLID_283_" class="st0" points="32,54 28,50 26,50 32,56 		"/>
		<g id="XMLID_367_">
			<rect id="XMLID_364_" x="34" y="28" class="st0" width="2" height="14"/>
			<rect id="XMLID_366_" x="6" y="28" class="st0" width="2" height="14"/>
			<rect id="XMLID_365_" x="6" y="26" class="st0" width="30" height="2"/>
			<rect id="XMLID_368_" x="8" y="34" class="st0" width="26" height="2"/>
		</g>
	</g>
	<g id="XMLID_385_">
		<g id="XMLID_488_">
			<rect id="XMLID_489_" x="56" y="4" class="st0" width="6" height="14"/>
			<rect id="XMLID_487_" x="58" y="6" class="st1" width="2" height="10"/>
		</g>
		<g id="XMLID_389_">
			<rect id="XMLID_390_" x="48" y="26" class="st0" width="18" height="24"/>
			<rect id="XMLID_388_" x="50" y="28" class="st1" width="14" height="20"/>
			<rect id="XMLID_403_" x="47" y="44" class="st0" width="20" height="2"/>
			<rect id="XMLID_405_" x="47" y="40" class="st0" width="20" height="2"/>
			<rect id="XMLID_406_" x="47" y="26" class="st0" width="20" height="2"/>
			<g id="XMLID_408_">
				<rect id="XMLID_404_" x="60" y="39" class="st0" width="2" height="4"/>
				<rect id="XMLID_407_" x="52" y="39" class="st0" width="2" height="4"/>
			</g>
			<rect id="XMLID_409_" x="56" y="28" class="st0" width="2" height="20"/>
		</g>
		<g id="XMLID_414_">
			<g id="XMLID_483_">
				<rect id="XMLID_484_" x="42" y="18" class="st0" width="10" height="6"/>
				<rect id="XMLID_481_" x="44" y="20" class="st3" width="6" height="2"/>
				<rect id="XMLID_485_" x="42" y="17" class="st0" width="2" height="8"/>
			</g>
			<g id="XMLID_486_">
				<rect id="XMLID_415_" x="50" y="16" class="st0" width="14" height="12"/>
				<rect id="XMLID_410_" x="52" y="18" class="st2" width="10" height="8"/>
				<g id="XMLID_479_">
					<rect id="XMLID_418_" x="53" y="14" class="st0" width="2" height="2"/>
				</g>
				<path id="XMLID_480_" class="st0" d="M54,28L54,28c-0.5,0-1-0.4-1-1v-2c0-0.5,0.5-1,1-1l0,0c0.5,0,1,0.4,1,1v2
					C55,27.6,54.5,28,54,28z"/>
				<path id="XMLID_482_" class="st0" d="M60,28L60,28c-0.5,0-1-0.4-1-1v-2c0-0.5,0.5-1,1-1l0,0c0.5,0,1,0.4,1,1v2
					C61,27.6,60.5,28,60,28z"/>
			</g>
		</g>
		<g id="XMLID_490_">
			<rect id="XMLID_491_" x="54" y="4" class="st0" width="10" height="8"/>
			<rect id="XMLID_478_" x="56" y="6" class="st2" width="6" height="4"/>
			<rect id="XMLID_492_" x="60" y="6" class="st0" width="1" height="4"/>
			<circle id="XMLID_493_" class="st0" cx="58" cy="8" r="1"/>
		</g>
		<g id="XMLID_369_">
			<polygon id="XMLID_381_" class="st0" points="66,66 63,63 63,61 68,66 			"/>
			<polygon id="XMLID_383_" class="st0" points="48,66 51,63 51,61 46,66 			"/>
			<polygon id="XMLID_372_" class="st0" points="50,68 48,54 48,48 66,48 66,54 64,68 			"/>
			<polygon id="XMLID_376_" class="st3" points="50,50 50,54 52,66 62,66 64,54 64,50 			"/>
			<rect id="XMLID_373_" x="49" y="54" class="st0" width="16" height="2"/>
			<rect id="XMLID_380_" x="56" y="62" class="st0" width="2" height="4"/>
			<g id="XMLID_2170_">
				<circle id="XMLID_2173_" class="st0" cx="57" cy="55" r="3"/>
				<circle id="XMLID_2172_" class="st3" cx="57" cy="55" r="1"/>
				<circle id="XMLID_2171_" class="st0" cx="57" cy="54" r="1"/>
			</g>
		</g>
		<g id="XMLID_31_">
			<rect id="XMLID_32_" x="46" y="66" class="st0" width="22" height="24"/>
			<rect id="XMLID_115_" x="48" y="68" class="st2" width="18" height="20"/>
			<rect id="XMLID_363_" x="48" y="84" class="st0" width="18" height="2"/>
			<g id="XMLID_121_">
				<rect id="XMLID_170_" x="48" y="90" class="st0" width="4" height="2"/>
				<rect id="XMLID_258_" x="62" y="90" class="st0" width="4" height="2"/>
			</g>
			<rect id="XMLID_382_" x="62" y="68" class="st0" width="2" height="2"/>
			<rect id="XMLID_384_" x="50" y="68" class="st0" width="2" height="2"/>
		</g>
	</g>
	<g id="XMLID_387_">
		<rect id="XMLID_370_" x="42" y="48" class="st0" width="2" height="44"/>
		<rect id="XMLID_371_" x="70" y="48" class="st0" width="2" height="44"/>
		<rect id="XMLID_386_" x="44" y="48" class="st0" width="26" height="2"/>
	</g>
	<g id="XMLID_392_">
		<rect id="XMLID_393_" x="76" y="56" class="st0" width="16" height="34"/>
		<rect id="XMLID_391_" x="78" y="58" class="st2" width="12" height="30"/>
		<g id="XMLID_395_">
			<rect id="XMLID_394_" x="78" y="90" class="st0" width="4" height="2"/>
			<rect id="XMLID_396_" x="86" y="90" class="st0" width="4" height="2"/>
		</g>
		<rect id="XMLID_397_" x="78" y="60" class="st0" width="12" height="2"/>
		<g id="XMLID_401_">
			<circle id="XMLID_398_" class="st0" cx="80" cy="64" r="1"/>
			<circle id="XMLID_400_" class="st0" cx="88" cy="64" r="1"/>
		</g>
		<rect id="XMLID_399_" x="78" y="78" class="st0" width="12" height="2"/>
		<path id="XMLID_402_" class="st0" d="M87,85h-6c-0.6,0-1-0.4-1-1l0,0c0-0.6,0.4-1,1-1h6c0.6,0,1,0.4,1,1l0,0
			C88,84.6,87.6,85,87,85z"/>
	</g>
</g>
</svg>
