<?xml version="1.0" encoding="utf-8"?>
<!-- Generator: Adobe Illustrator 19.0.0, SVG Export Plug-In . SVG Version: 6.00 Build 0)  -->
<svg version="1.1" id="icons" xmlns="http://www.w3.org/2000/svg" xmlns:xlink="http://www.w3.org/1999/xlink" x="0px" y="0px"
	 viewBox="0 0 96 96" style="enable-background:new 0 0 96 96;" xml:space="preserve">
<style type="text/css">
	.st0{fill:#352C2C;}
	.st1{fill:#5A5150;}
	.st2{fill:#EDE3E2;}
	.st3{fill:#A39A99;}
	.st4{fill:#679B7C;}
</style>
<g id="XMLID_1923_">
	<g id="XMLID_1888_">
		<rect id="XMLID_1889_" x="10" y="4" class="st0" width="22" height="6"/>
		<rect id="XMLID_1884_" x="12" y="6" class="st1" width="18" height="2"/>
		<rect id="XMLID_1881_" x="19" y="6" class="st0" width="4" height="1"/>
	</g>
	<g id="XMLID_1885_">
		<rect id="XMLID_1915_" x="37" y="4" class="st0" width="22" height="6"/>
		<rect id="XMLID_1914_" x="39" y="6" class="st1" width="18" height="2"/>
		<rect id="XMLID_1887_" x="46" y="6" class="st0" width="4" height="1"/>
	</g>
	<g id="XMLID_1916_">
		<rect id="XMLID_1919_" x="64" y="4" class="st0" width="22" height="6"/>
		<rect id="XMLID_1918_" x="66" y="6" class="st1" width="18" height="2"/>
		<rect id="XMLID_1917_" x="73" y="6" class="st0" width="4" height="1"/>
	</g>
	<g id="XMLID_1876_">
		<rect id="XMLID_1875_" x="4" y="8" class="st0" width="88" height="78"/>
		<rect id="XMLID_1873_" x="6" y="10" class="st2" width="84" height="74"/>
		<rect id="XMLID_1874_" x="6" y="12" class="st0" width="84" height="2"/>
	</g>
	<polygon id="XMLID_1877_" class="st0" points="10,92 4,92 4,86 12,86 	"/>
	<polygon id="XMLID_1879_" class="st0" points="86,92 92,92 92,86 84,86 	"/>
	<polygon id="XMLID_1880_" class="st0" points="45,92 51,92 53,86 43,86 	"/>
	<g id="XMLID_1890_">
		<rect id="XMLID_1892_" x="37" y="18" class="st0" width="22" height="30"/>
		<rect id="XMLID_1891_" x="39" y="20" class="st3" width="18" height="26"/>
		<g id="XMLID_1942_">
			<rect id="XMLID_1970_" x="41" y="22" class="st0" width="2" height="2"/>
			<rect id="XMLID_1969_" x="45" y="22" class="st0" width="2" height="2"/>
			<rect id="XMLID_1968_" x="49" y="22" class="st0" width="2" height="2"/>
			<rect id="XMLID_1967_" x="53" y="22" class="st0" width="2" height="2"/>
			<rect id="XMLID_1966_" x="41" y="26" class="st0" width="2" height="2"/>
			<rect id="XMLID_1965_" x="45" y="26" class="st0" width="2" height="2"/>
			<rect id="XMLID_1964_" x="49" y="26" class="st0" width="2" height="2"/>
			<rect id="XMLID_1963_" x="53" y="26" class="st0" width="2" height="2"/>
			<rect id="XMLID_1962_" x="41" y="30" class="st0" width="2" height="2"/>
			<rect id="XMLID_1961_" x="45" y="30" class="st0" width="2" height="2"/>
			<rect id="XMLID_1960_" x="49" y="30" class="st0" width="2" height="2"/>
			<rect id="XMLID_1959_" x="53" y="30" class="st0" width="2" height="2"/>
			<rect id="XMLID_1958_" x="41" y="34" class="st0" width="2" height="2"/>
			<rect id="XMLID_1957_" x="45" y="34" class="st0" width="2" height="2"/>
			<rect id="XMLID_1956_" x="49" y="34" class="st0" width="2" height="2"/>
			<rect id="XMLID_1955_" x="53" y="34" class="st0" width="2" height="2"/>
			<rect id="XMLID_1954_" x="41" y="38" class="st0" width="2" height="2"/>
			<rect id="XMLID_1953_" x="45" y="38" class="st0" width="2" height="2"/>
			<rect id="XMLID_1952_" x="49" y="38" class="st0" width="2" height="2"/>
			<rect id="XMLID_1951_" x="53" y="38" class="st0" width="2" height="2"/>
			<rect id="XMLID_1950_" x="41" y="42" class="st0" width="2" height="2"/>
			<rect id="XMLID_1949_" x="45" y="42" class="st0" width="2" height="2"/>
			<rect id="XMLID_1948_" x="49" y="42" class="st0" width="2" height="2"/>
			<rect id="XMLID_1947_" x="53" y="42" class="st0" width="2" height="2"/>
		</g>
	</g>
	<g id="XMLID_1882_">
		<rect id="XMLID_1886_" x="10" y="18" class="st0" width="22" height="62"/>
		<rect id="XMLID_1878_" x="12" y="20" class="st3" width="18" height="58"/>
		<g id="XMLID_1883_">
			<rect id="XMLID_1912_" x="14" y="22" class="st0" width="2" height="2"/>
			<rect id="XMLID_1911_" x="18" y="22" class="st0" width="2" height="2"/>
			<rect id="XMLID_1910_" x="22" y="22" class="st0" width="2" height="2"/>
			<rect id="XMLID_1909_" x="26" y="22" class="st0" width="2" height="2"/>
			<rect id="XMLID_1907_" x="14" y="26" class="st0" width="2" height="2"/>
			<rect id="XMLID_1906_" x="18" y="26" class="st0" width="2" height="2"/>
			<rect id="XMLID_1905_" x="22" y="26" class="st0" width="2" height="2"/>
			<rect id="XMLID_1904_" x="26" y="26" class="st0" width="2" height="2"/>
			<rect id="XMLID_1902_" x="14" y="30" class="st0" width="2" height="2"/>
			<rect id="XMLID_1901_" x="18" y="30" class="st0" width="2" height="2"/>
			<rect id="XMLID_1900_" x="22" y="30" class="st0" width="2" height="2"/>
			<rect id="XMLID_1899_" x="26" y="30" class="st0" width="2" height="2"/>
			<rect id="XMLID_1897_" x="14" y="34" class="st0" width="2" height="2"/>
			<rect id="XMLID_1896_" x="18" y="34" class="st0" width="2" height="2"/>
			<rect id="XMLID_1895_" x="22" y="34" class="st0" width="2" height="2"/>
			<rect id="XMLID_1894_" x="26" y="34" class="st0" width="2" height="2"/>
			<rect id="XMLID_1908_" x="14" y="38" class="st0" width="2" height="2"/>
			<rect id="XMLID_1903_" x="18" y="38" class="st0" width="2" height="2"/>
			<rect id="XMLID_1898_" x="22" y="38" class="st0" width="2" height="2"/>
			<rect id="XMLID_1893_" x="26" y="38" class="st0" width="2" height="2"/>
			<rect id="XMLID_1937_" x="14" y="42" class="st0" width="2" height="2"/>
			<rect id="XMLID_1936_" x="18" y="42" class="st0" width="2" height="2"/>
			<rect id="XMLID_1935_" x="22" y="42" class="st0" width="2" height="2"/>
			<rect id="XMLID_1913_" x="26" y="42" class="st0" width="2" height="2"/>
		</g>
		<g id="XMLID_1975_">
			<path id="XMLID_1974_" class="st0" d="M17,74L17,74c-0.6,0-1-0.4-1-1v-4c0-0.6,0.4-1,1-1h0c0.5,0,1,0.4,1,1v4
				C18,73.6,17.6,74,17,74z"/>
			<path id="XMLID_1976_" class="st0" d="M21,74L21,74c-0.6,0-1-0.4-1-1v-4c0-0.6,0.4-1,1-1h0c0.5,0,1,0.4,1,1v4
				C22,73.6,21.6,74,21,74z"/>
			<path id="XMLID_1977_" class="st0" d="M25,74L25,74c-0.6,0-1-0.4-1-1v-4c0-0.6,0.4-1,1-1h0c0.5,0,1,0.4,1,1v4
				C26,73.6,25.6,74,25,74z"/>
		</g>
	</g>
	<g id="XMLID_1978_">
		<rect id="XMLID_2013_" x="64" y="18" class="st0" width="22" height="62"/>
		<rect id="XMLID_2012_" x="66" y="20" class="st3" width="18" height="58"/>
		<g id="XMLID_1983_">
			<rect id="XMLID_2011_" x="68" y="22" class="st0" width="2" height="2"/>
			<rect id="XMLID_2010_" x="72" y="22" class="st0" width="2" height="2"/>
			<rect id="XMLID_2009_" x="76" y="22" class="st0" width="2" height="2"/>
			<rect id="XMLID_2008_" x="80" y="22" class="st0" width="2" height="2"/>
			<rect id="XMLID_2007_" x="68" y="26" class="st0" width="2" height="2"/>
			<rect id="XMLID_2006_" x="72" y="26" class="st0" width="2" height="2"/>
			<rect id="XMLID_2005_" x="76" y="26" class="st0" width="2" height="2"/>
			<rect id="XMLID_2004_" x="80" y="26" class="st0" width="2" height="2"/>
			<rect id="XMLID_2003_" x="68" y="30" class="st0" width="2" height="2"/>
			<rect id="XMLID_2002_" x="72" y="30" class="st0" width="2" height="2"/>
			<rect id="XMLID_2001_" x="76" y="30" class="st0" width="2" height="2"/>
			<rect id="XMLID_2000_" x="80" y="30" class="st0" width="2" height="2"/>
			<rect id="XMLID_1999_" x="68" y="34" class="st0" width="2" height="2"/>
			<rect id="XMLID_1998_" x="72" y="34" class="st0" width="2" height="2"/>
			<rect id="XMLID_1997_" x="76" y="34" class="st0" width="2" height="2"/>
			<rect id="XMLID_1996_" x="80" y="34" class="st0" width="2" height="2"/>
			<rect id="XMLID_1995_" x="68" y="38" class="st0" width="2" height="2"/>
			<rect id="XMLID_1994_" x="72" y="38" class="st0" width="2" height="2"/>
			<rect id="XMLID_1993_" x="76" y="38" class="st0" width="2" height="2"/>
			<rect id="XMLID_1992_" x="80" y="38" class="st0" width="2" height="2"/>
			<rect id="XMLID_1991_" x="68" y="42" class="st0" width="2" height="2"/>
			<rect id="XMLID_1990_" x="72" y="42" class="st0" width="2" height="2"/>
			<rect id="XMLID_1989_" x="76" y="42" class="st0" width="2" height="2"/>
			<rect id="XMLID_1988_" x="80" y="42" class="st0" width="2" height="2"/>
		</g>
		<g id="XMLID_1979_">
			<path id="XMLID_1982_" class="st0" d="M71,74L71,74c-0.6,0-1-0.4-1-1v-4c0-0.6,0.4-1,1-1l0,0c0.6,0,1,0.4,1,1v4
				C72,73.6,71.6,74,71,74z"/>
			<path id="XMLID_1981_" class="st0" d="M75,74L75,74c-0.6,0-1-0.4-1-1v-4c0-0.6,0.4-1,1-1l0,0c0.6,0,1,0.4,1,1v4
				C76,73.6,75.6,74,75,74z"/>
			<path id="XMLID_1980_" class="st0" d="M79,74L79,74c-0.6,0-1-0.4-1-1v-4c0-0.6,0.4-1,1-1l0,0c0.6,0,1,0.4,1,1v4
				C80,73.6,79.6,74,79,74z"/>
		</g>
	</g>
	<g id="XMLID_1973_">
		<rect id="XMLID_1972_" x="37" y="52" class="st0" width="22" height="28"/>
		<rect id="XMLID_1971_" x="39" y="54" class="st3" width="18" height="24"/>
		<g id="XMLID_2021_">
			<rect id="XMLID_2022_" x="41" y="56" class="st0" width="14" height="8"/>
			<rect id="XMLID_2014_" x="43" y="58" class="st4" width="10" height="4"/>
		</g>
		<g id="XMLID_2024_">
			<circle id="XMLID_2023_" class="st0" cx="42" cy="67" r="1"/>
			<circle id="XMLID_2025_" class="st0" cx="46" cy="67" r="1"/>
			<circle id="XMLID_2026_" class="st0" cx="50" cy="67" r="1"/>
			<circle id="XMLID_2027_" class="st0" cx="54" cy="67" r="1"/>
		</g>
		<g id="XMLID_1920_">
			<rect id="XMLID_1922_" x="41" y="70" class="st0" width="8" height="2"/>
			<rect id="XMLID_1921_" x="41" y="74" class="st0" width="10" height="2"/>
		</g>
	</g>
</g>
</svg>
