<?xml version="1.0" encoding="utf-8"?>
<!-- Generator: Adobe Illustrator 19.0.0, SVG Export Plug-In . SVG Version: 6.00 Build 0)  -->
<svg version="1.1" id="icons" xmlns="http://www.w3.org/2000/svg" xmlns:xlink="http://www.w3.org/1999/xlink" x="0px" y="0px"
	 viewBox="0 0 96 96" style="enable-background:new 0 0 96 96;" xml:space="preserve">
<style type="text/css">
	.st0{fill:#352C2C;}
	.st1{fill:#A39A99;}
	.st2{fill:#4A9FCE;}
	.st3{fill:#EDE3E2;}
	.st4{fill:#C8BEBE;}
</style>
<g id="XMLID_1417_">
	<g id="XMLID_2004_">
		<path id="XMLID_1934_" class="st0" d="M38,92V8c0-1.1,0.9-2,2-2h16c1.1,0,2,0.9,2,2v84h2V8c0-2.2-1.8-4-4-4H40c-2.2,0-4,1.8-4,4
			v84H38z"/>
		<rect id="XMLID_2003_" x="38" y="24" class="st0" width="20" height="8"/>
	</g>
	<g id="XMLID_1421_">
		<rect id="XMLID_1422_" x="14" y="80" class="st0" width="68" height="12"/>
		<rect id="XMLID_1423_" x="16" y="82" class="st1" width="64" height="8"/>
		<g id="XMLID_1441_">
			<circle id="XMLID_1442_" class="st0" cx="36" cy="86" r="2"/>
			<circle id="XMLID_1443_" class="st0" cx="60" cy="86" r="2"/>
		</g>
		<rect id="XMLID_1919_" x="12" y="80" class="st0" width="72" height="2"/>
		<rect id="XMLID_1921_" x="12" y="90" class="st0" width="72" height="2"/>
	</g>
	<g id="XMLID_1444_">
		<path id="XMLID_4610_" class="st0" d="M22,46c-1.1,0-2,0.9-2,2v4h4v-4C24,46.9,23.1,46,22,46z M22,49c-0.6,0-1-0.4-1-1
			c0-0.6,0.4-1,1-1s1,0.4,1,1C23,48.6,22.6,49,22,49z"/>
		<rect id="XMLID_1895_" x="38" y="58" class="st0" width="6" height="10"/>
		<path id="XMLID_1445_" class="st0" d="M12,76c-4.4,0-8-3.6-8-8V58c0-4.4,3.6-8,8-8h20c4.4,0,8,3.6,8,8v10c0,4.4-3.6,8-8,8H12z"/>
		<path id="XMLID_1446_" class="st2" d="M32,74H12c-3.3,0-6-2.7-6-6V58c0-3.3,2.7-6,6-6h20c3.3,0,6,2.7,6,6v10
			C38,71.3,35.3,74,32,74z"/>
		<rect id="XMLID_1922_" x="34" y="52" class="st0" width="2" height="22"/>
		<rect id="XMLID_1923_" x="36" y="58" class="st0" width="1" height="2"/>
		<rect id="XMLID_1925_" x="36" y="66" class="st0" width="1" height="2"/>
		<rect id="XMLID_1447_" x="14" y="52" class="st0" width="2" height="22"/>
		<g id="XMLID_1448_">
			<rect id="XMLID_1449_" x="16" y="54" class="st0" width="18" height="1"/>
			<rect id="XMLID_1450_" x="16" y="57" class="st0" width="18" height="1"/>
			<rect id="XMLID_1451_" x="16" y="60" class="st0" width="18" height="1"/>
			<rect id="XMLID_1452_" x="16" y="63" class="st0" width="18" height="1"/>
			<rect id="XMLID_1453_" x="16" y="66" class="st0" width="18" height="1"/>
			<rect id="XMLID_1454_" x="16" y="69" class="st0" width="18" height="1"/>
		</g>
		<g id="XMLID_1455_">
			<circle id="XMLID_1456_" class="st0" cx="12" cy="57" r="1"/>
			<circle id="XMLID_1457_" class="st0" cx="12" cy="69" r="1"/>
		</g>
		<g id="XMLID_1887_">
			<rect id="XMLID_1888_" x="18" y="72" class="st0" width="4" height="8"/>
			<rect id="XMLID_1889_" x="28" y="72" class="st0" width="4" height="8"/>
		</g>
		<rect id="XMLID_1920_" x="16" y="78" class="st0" width="18" height="2"/>
	</g>
	<g id="XMLID_1890_">
		<path id="XMLID_1891_" class="st0" d="M42,82V58c0-2.2,1.8-4,4-4h6c2.2,0,4,1.8,4,4v24H42z"/>
		<path id="XMLID_1892_" class="st3" d="M54,80H44V58c0-1.1,0.9-2,2-2h6c1.1,0,2,0.9,2,2V80z"/>
		<g id="XMLID_1893_">
			<rect id="XMLID_1894_" x="46" y="79" class="st0" width="2" height="1"/>
			<rect id="XMLID_1896_" x="50" y="79" class="st0" width="2" height="1"/>
		</g>
	</g>
	<g id="XMLID_1897_">
		<g id="XMLID_1898_">
			<rect id="XMLID_1899_" x="64" y="70" class="st0" width="18" height="12"/>
			<rect id="XMLID_1900_" x="66" y="72" class="st4" width="14" height="8"/>
			<rect id="XMLID_1902_" x="72" y="72" class="st0" width="2" height="8"/>
			<rect id="XMLID_1904_" x="68" y="79" class="st0" width="2" height="1"/>
			<rect id="XMLID_1906_" x="76" y="79" class="st0" width="2" height="1"/>
		</g>
		<g id="XMLID_1901_">
			<rect id="XMLID_1903_" x="56" y="60" class="st0" width="4" height="6"/>
			<rect id="XMLID_1905_" x="58" y="56" class="st0" width="24" height="16"/>
			<rect id="XMLID_1907_" x="60" y="58" class="st3" width="20" height="12"/>
			<rect id="XMLID_1908_" x="56" y="58" class="st0" width="1" height="10"/>
			<g id="XMLID_4541_">
				<rect id="XMLID_4543_" x="64" y="62" class="st0" width="4" height="2"/>
				<rect id="XMLID_4542_" x="64" y="66" class="st0" width="6" height="2"/>
			</g>
		</g>
		<g id="XMLID_1924_">
			<rect id="XMLID_1926_" x="64" y="54" class="st0" width="14" height="6"/>
			<rect id="XMLID_1910_" x="66" y="56" class="st4" width="10" height="2"/>
			<rect id="XMLID_1927_" x="69" y="52" class="st0" width="4" height="2"/>
			<rect id="XMLID_1928_" x="64" y="53" class="st0" width="2" height="1"/>
			<rect id="XMLID_1930_" x="76" y="53" class="st0" width="2" height="1"/>
		</g>
		<g id="XMLID_1909_">
			<g id="XMLID_1911_">
				<rect id="XMLID_1912_" x="80" y="52" class="st0" width="8" height="24"/>
				<rect id="XMLID_1913_" x="82" y="54" class="st1" width="4" height="20"/>
			</g>
			<g id="XMLID_1929_">
				<rect id="XMLID_1915_" x="88" y="60" class="st0" width="4" height="8"/>
				<rect id="XMLID_1916_" x="90" y="58" class="st0" width="2" height="12"/>
			</g>
			<rect id="XMLID_1914_" x="88" y="54" class="st0" width="1" height="2"/>
			<rect id="XMLID_1917_" x="88" y="72" class="st0" width="1" height="2"/>
			<g id="XMLID_1918_">
				<path id="XMLID_1931_" class="st0" d="M84,70c-3.3,0-6-2.7-6-6s2.7-6,6-6s6,2.7,6,6S87.3,70,84,70z"/>
				<circle id="XMLID_1932_" class="st4" cx="84" cy="64" r="4"/>
				<circle id="XMLID_1933_" class="st0" cx="84" cy="64" r="2"/>
			</g>
		</g>
	</g>
</g>
</svg>
