<?xml version="1.0" encoding="utf-8"?>
<!-- Generator: Adobe Illustrator 19.0.0, SVG Export Plug-In . SVG Version: 6.00 Build 0)  -->
<svg version="1.1" id="icons" xmlns="http://www.w3.org/2000/svg" xmlns:xlink="http://www.w3.org/1999/xlink" x="0px" y="0px"
	 viewBox="0 0 96 96" style="enable-background:new 0 0 96 96;" xml:space="preserve">
<style type="text/css">
	.st0{fill:#352C2C;}
	.st1{fill:#A39A99;}
	.st2{fill:#EDE3E2;}
	.st3{fill:#C8BEBE;}
	.st4{fill:#4A9FCE;}
</style>
<g id="XMLID_1332_">
	<g id="XMLID_1297_">
		<polygon id="XMLID_1317_" class="st0" points="27,92 38,50 45,50 34,92 		"/>
		<polygon id="XMLID_1316_" class="st1" points="42,52 40,52 30,90 32,90 		"/>
		<rect id="XMLID_1302_" x="26" y="90" class="st0" width="10" height="2"/>
	</g>
	<g id="XMLID_1318_">
		<polygon id="XMLID_1321_" class="st0" points="69,92 58,50 51,50 62,92 		"/>
		<polygon id="XMLID_1320_" class="st1" points="54,52 56,52 66,90 64,90 		"/>
		<rect id="XMLID_1319_" x="60" y="90" class="st0" width="10" height="2"/>
	</g>
	<g id="XMLID_1293_">
		<rect id="XMLID_1294_" x="45" y="78" class="st0" width="6" height="14"/>
		<rect id="XMLID_1292_" x="47" y="80" class="st1" width="2" height="10"/>
		<rect id="XMLID_1295_" x="43" y="90" class="st0" width="10" height="2"/>
	</g>
	<g id="XMLID_1291_">
		<g id="XMLID_1296_">
			<path id="XMLID_1326_" class="st0" d="M38,6c-1.1,0-2,0.9-2,2v8h4V8C40,6.9,39.1,6,38,6z M38,9c-0.6,0-1-0.4-1-1c0-0.6,0.4-1,1-1
				s1,0.4,1,1C39,8.6,38.6,9,38,9z"/>
			<path id="XMLID_1322_" class="st0" d="M58,6c-1.1,0-2,0.9-2,2v8h4V8C60,6.9,59.1,6,58,6z M58,9c-0.6,0-1-0.4-1-1c0-0.6,0.4-1,1-1
				s1,0.4,1,1C59,8.6,58.6,9,58,9z"/>
		</g>
		<g id="XMLID_1120_">
			<rect id="XMLID_1121_" x="44" y="4" class="st0" width="8" height="8"/>
			<rect id="XMLID_1119_" x="46" y="6" class="st1" width="4" height="4"/>
			<rect id="XMLID_1122_" x="42" y="4" class="st0" width="12" height="2"/>
			<rect id="XMLID_1288_" x="47" y="6" class="st0" width="2" height="1"/>
		</g>
		<g id="XMLID_929_">
			<path id="XMLID_931_" class="st0" d="M44,70v-3.6l-10-24V20c0-5.5,4.5-10,10-10h8c5.5,0,10,4.5,10,10v22.4l-10,24V70H44z"/>
			<path id="XMLID_1105_" class="st2" d="M52,12h-8c-4.4,0-8,3.6-8,8v20v2l10,24v2h4v-2l10-24v-2V20C60,15.6,56.4,12,52,12z"/>
			<g id="XMLID_1154_">
				<rect id="XMLID_1215_" x="40" y="18" class="st0" width="8" height="2"/>
				<rect id="XMLID_1214_" x="40" y="22" class="st0" width="10" height="2"/>
			</g>
			<rect id="XMLID_1290_" x="35" y="41" class="st0" width="26" height="2"/>
			<g id="XMLID_1126_">
				<g id="XMLID_1124_">
					<rect id="XMLID_1125_" x="32" y="30" class="st0" width="32" height="5"/>
					<rect id="XMLID_1123_" x="34" y="32" class="st3" width="28" height="1"/>
				</g>
				<g id="XMLID_1144_">
					<rect id="XMLID_1146_" x="32" y="27" class="st0" width="32" height="5"/>
					<rect id="XMLID_1145_" x="34" y="29" class="st3" width="28" height="1"/>
				</g>
				<g id="XMLID_1148_">
					<rect id="XMLID_1147_" x="57" y="26" class="st0" width="2" height="1"/>
					<rect id="XMLID_1149_" x="53" y="26" class="st0" width="2" height="1"/>
					<rect id="XMLID_1150_" x="49" y="26" class="st0" width="2" height="1"/>
					<rect id="XMLID_1151_" x="45" y="26" class="st0" width="2" height="1"/>
					<rect id="XMLID_1152_" x="41" y="26" class="st0" width="2" height="1"/>
					<rect id="XMLID_1153_" x="37" y="26" class="st0" width="2" height="1"/>
				</g>
				<g id="XMLID_1155_">
					<rect id="XMLID_1213_" x="57" y="35" class="st0" width="2" height="1"/>
					<rect id="XMLID_1212_" x="53" y="35" class="st0" width="2" height="1"/>
					<rect id="XMLID_1211_" x="49" y="35" class="st0" width="2" height="1"/>
					<rect id="XMLID_1204_" x="45" y="35" class="st0" width="2" height="1"/>
					<rect id="XMLID_1158_" x="41" y="35" class="st0" width="2" height="1"/>
					<rect id="XMLID_1157_" x="37" y="35" class="st0" width="2" height="1"/>
				</g>
			</g>
			<g id="XMLID_1330_">
				<rect id="XMLID_1328_" x="28" y="38" class="st0" width="8" height="2"/>
				<rect id="XMLID_1329_" x="28" y="36" class="st0" width="2" height="6"/>
				<rect id="XMLID_1331_" x="31" y="37" class="st0" width="2" height="4"/>
			</g>
			<rect id="XMLID_1089_" x="44" y="65" class="st0" width="8" height="2"/>
		</g>
		<g id="XMLID_1117_">
			<rect id="XMLID_1118_" x="42" y="68" class="st0" width="12" height="8"/>
			<rect id="XMLID_1116_" x="44" y="70" class="st2" width="8" height="4"/>
		</g>
		<g id="XMLID_932_">
			<path id="XMLID_1260_" class="st0" d="M48,82c-3.3,0-6-2.7-6-6s2.7-6,6-6s6,2.7,6,6S51.3,82,48,82z"/>
			<circle id="XMLID_1259_" class="st4" cx="48" cy="76" r="4"/>
			<circle id="XMLID_1070_" class="st0" cx="48" cy="76" r="2"/>
		</g>
		<g id="XMLID_1263_">
			<circle id="XMLID_1160_" class="st0" cx="48" cy="72" r="1"/>
			<circle id="XMLID_1261_" class="st0" cx="48" cy="80" r="1"/>
			<circle id="XMLID_1262_" class="st0" cx="44" cy="76" r="1"/>
			<circle id="XMLID_1289_" class="st0" cx="52" cy="76" r="1"/>
		</g>
	</g>
</g>
</svg>
