<?xml version="1.0" encoding="utf-8"?>
<!-- Generator: Adobe Illustrator 19.0.0, SVG Export Plug-In . SVG Version: 6.00 Build 0)  -->
<svg version="1.1" id="icons" xmlns="http://www.w3.org/2000/svg" xmlns:xlink="http://www.w3.org/1999/xlink" x="0px" y="0px"
	 viewBox="0 0 96 96" style="enable-background:new 0 0 96 96;" xml:space="preserve">
<style type="text/css">
	.st0{fill:#352C2C;}
	.st1{fill:#A39A99;}
	.st2{fill:#EDE3E2;}
	.st3{fill:#C8BEBE;}
	.st4{fill:#5A5150;}
	.st5{fill:#4A9FCE;}
	.st6{fill:#679B7C;}
</style>
<g id="XMLID_927_">
	<g id="XMLID_1809_">
		<g id="XMLID_1805_">
			<rect id="XMLID_1598_" x="20" y="70" class="st0" width="2" height="14"/>
			<rect id="XMLID_1806_" x="6" y="70" class="st0" width="2" height="14"/>
		</g>
		<g id="XMLID_2244_">
			<rect id="XMLID_2247_" x="10" y="74" class="st0" width="8" height="6"/>
			<rect id="XMLID_2246_" x="12" y="76" class="st1" width="4" height="2"/>
			<rect id="XMLID_2245_" x="13" y="77" class="st0" width="2" height="1"/>
		</g>
		<g id="XMLID_2240_">
			<path id="XMLID_2243_" class="st0" d="M6,72V16c0-2.2,1.8-4,4-4h8c2.2,0,4,1.8,4,4v56c0,2.2-1.8,4-4,4h-8C7.8,76,6,74.2,6,72z"/>
			<path id="XMLID_2242_" class="st2" d="M18,74h-8c-1.1,0-2-0.9-2-2V16c0-1.1,0.9-2,2-2h8c1.1,0,2,0.9,2,2v56
				C20,73.1,19.1,74,18,74z"/>
			<rect id="XMLID_2241_" x="8" y="70" class="st0" width="12" height="2"/>
		</g>
		<g id="XMLID_2237_">
			<rect id="XMLID_2239_" x="10" y="32" class="st0" width="6" height="2"/>
			<rect id="XMLID_2238_" x="10" y="36" class="st0" width="8" height="2"/>
		</g>
		<g id="XMLID_1813_">
			<g id="XMLID_2234_">
				<rect id="XMLID_2236_" x="4" y="19" class="st0" width="20" height="5"/>
				<rect id="XMLID_2235_" x="6" y="21" class="st3" width="16" height="1"/>
			</g>
			<g id="XMLID_2231_">
				<rect id="XMLID_2233_" x="4" y="22" class="st0" width="20" height="5"/>
				<rect id="XMLID_2232_" x="6" y="24" class="st3" width="16" height="1"/>
			</g>
			<g id="XMLID_2227_">
				<rect id="XMLID_2230_" x="9" y="18" class="st0" width="2" height="1"/>
				<rect id="XMLID_2229_" x="13" y="18" class="st0" width="2" height="1"/>
				<rect id="XMLID_2228_" x="17" y="18" class="st0" width="2" height="1"/>
			</g>
			<g id="XMLID_1814_">
				<rect id="XMLID_2226_" x="9" y="27" class="st0" width="2" height="1"/>
				<rect id="XMLID_2187_" x="13" y="27" class="st0" width="2" height="1"/>
				<rect id="XMLID_1815_" x="17" y="27" class="st0" width="2" height="1"/>
			</g>
		</g>
		<g id="XMLID_1810_">
			<rect id="XMLID_1812_" x="10" y="62" class="st0" width="8" height="6"/>
			<rect id="XMLID_1811_" x="12" y="64" class="st1" width="4" height="2"/>
		</g>
		<rect id="XMLID_1597_" x="4" y="62" class="st0" width="2" height="6"/>
		<rect id="XMLID_2273_" x="4" y="50" class="st0" width="2" height="4"/>
	</g>
	<g id="XMLID_1599_">
		<g id="XMLID_2188_">
			<rect id="XMLID_2197_" x="56" y="70" class="st0" width="2" height="14"/>
			<rect id="XMLID_2189_" x="42" y="70" class="st0" width="2" height="14"/>
		</g>
		<g id="XMLID_2248_">
			<rect id="XMLID_2251_" x="46" y="74" class="st0" width="8" height="6"/>
			<rect id="XMLID_2250_" x="48" y="76" class="st1" width="4" height="2"/>
			<rect id="XMLID_2249_" x="49" y="77" class="st0" width="2" height="1"/>
		</g>
		<g id="XMLID_2198_">
			<path id="XMLID_2201_" class="st0" d="M58,16c0-2.2-1.8-4-4-4h-8c-2.2,0-4,1.8-4,4v56c0,2.2,1.8,4,4,4h8c2.2,0,4-1.8,4-4V16z"/>
			<path id="XMLID_2200_" class="st2" d="M46,74h8c1.1,0,2-0.9,2-2V16c0-1.1-0.9-2-2-2h-8c-1.1,0-2,0.9-2,2v56
				C44,73.1,44.9,74,46,74z"/>
			<rect id="XMLID_2199_" x="44" y="70" class="st0" width="12" height="2"/>
		</g>
		<g id="XMLID_2194_">
			<rect id="XMLID_2196_" x="48" y="32" class="st0" width="6" height="2"/>
			<rect id="XMLID_2195_" x="46" y="36" class="st0" width="8" height="2"/>
		</g>
		<g id="XMLID_1781_">
			<g id="XMLID_2191_">
				<rect id="XMLID_2193_" x="40" y="19" class="st0" width="20" height="5"/>
				<rect id="XMLID_2192_" x="42" y="21" class="st3" width="16" height="1"/>
			</g>
			<g id="XMLID_2185_">
				<rect id="XMLID_2190_" x="40" y="22" class="st0" width="20" height="5"/>
				<rect id="XMLID_2186_" x="42" y="24" class="st3" width="16" height="1"/>
			</g>
			<g id="XMLID_1803_">
				<rect id="XMLID_2184_" x="53" y="18" class="st0" width="2" height="1"/>
				<rect id="XMLID_1808_" x="49" y="18" class="st0" width="2" height="1"/>
				<rect id="XMLID_1804_" x="45" y="18" class="st0" width="2" height="1"/>
			</g>
			<g id="XMLID_1799_">
				<rect id="XMLID_1802_" x="53" y="27" class="st0" width="2" height="1"/>
				<rect id="XMLID_1801_" x="49" y="27" class="st0" width="2" height="1"/>
				<rect id="XMLID_1800_" x="45" y="27" class="st0" width="2" height="1"/>
			</g>
		</g>
		<g id="XMLID_1775_">
			<rect id="XMLID_1780_" x="46" y="62" class="st0" width="8" height="6"/>
			<rect id="XMLID_1779_" x="48" y="64" class="st1" width="4" height="2"/>
		</g>
		<rect id="XMLID_1600_" x="58" y="62" class="st0" width="2" height="6"/>
	</g>
	<g id="XMLID_2202_">
		<g id="XMLID_2407_">
			<path id="XMLID_2408_" class="st0" d="M32,77c-2.2,0-4-1.8-4-4s1.8-4,4-4s4,1.8,4,4S34.2,77,32,77z"/>
			<circle id="XMLID_2405_" class="st1" cx="32" cy="73" r="2"/>
		</g>
		<g id="XMLID_2209_">
			<rect id="XMLID_2211_" x="24" y="28" class="st0" width="16" height="6"/>
			<rect id="XMLID_2210_" x="26" y="30" class="st4" width="12" height="2"/>
		</g>
		<g id="XMLID_2208_">
			<rect id="XMLID_2203_" x="20" y="32" class="st0" width="24" height="26"/>
			<rect id="XMLID_1807_" x="22" y="34" class="st5" width="20" height="22"/>
		</g>
		<g id="XMLID_2206_">
			<rect id="XMLID_2204_" x="22" y="60" class="st0" width="20" height="2"/>
			<polygon id="XMLID_2205_" class="st0" points="22,60 24,58 26,58 24,60 			"/>
			<polygon id="XMLID_2207_" class="st0" points="42,60 40,58 38,58 40,60 			"/>
		</g>
		<circle id="XMLID_2213_" class="st0" cx="25" cy="49" r="1"/>
		<circle id="XMLID_2214_" class="st0" cx="29" cy="49" r="1"/>
		<circle id="XMLID_2215_" class="st0" cx="35" cy="49" r="1"/>
		<circle id="XMLID_2217_" class="st0" cx="39" cy="49" r="1"/>
		<g id="XMLID_2218_">
			<rect id="XMLID_2220_" x="24" y="36" class="st0" width="16" height="8"/>
			<rect id="XMLID_2219_" x="26" y="38" class="st6" width="12" height="4"/>
		</g>
		<rect id="XMLID_2222_" x="36" y="6" class="st0" width="2" height="22"/>
		<path id="XMLID_2223_" class="st0" d="M45,4H19c-3.3,0-6,2.7-6,6v2h2v-2c0-2.2,1.8-4,4-4h26c2.2,0,4,1.8,4,4v2h2v-2
			C51,6.7,48.3,4,45,4z"/>
		<g id="XMLID_2381_">
			<polygon id="XMLID_2255_" class="st0" points="38,10 42,6 44,6 38,12 			"/>
			
				<rect id="XMLID_2256_" x="40.3" y="5.9" transform="matrix(0.7071 -0.7071 0.7071 0.7071 6.3518 31.3345)" class="st0" width="1.4" height="4.2"/>
		</g>
		<g id="XMLID_2383_">
			<polygon id="XMLID_2385_" class="st0" points="28,10 24,6 22,6 28,12 			"/>
			
				<rect id="XMLID_2384_" x="24.3" y="5.9" transform="matrix(-0.7071 -0.7071 0.7071 -0.7071 37.0208 31.3345)" class="st0" width="1.4" height="4.2"/>
		</g>
		<rect id="XMLID_2216_" x="28" y="6" class="st0" width="2" height="8"/>
		<g id="XMLID_2224_">
			<rect id="XMLID_2225_" x="26" y="14" class="st0" width="6" height="16"/>
			<rect id="XMLID_2212_" x="28" y="16" class="st1" width="2" height="12"/>
			<rect id="XMLID_2380_" x="28" y="18" class="st0" width="2" height="2"/>
		</g>
		<rect id="XMLID_2402_" x="31" y="74" class="st0" width="2" height="10"/>
		<rect id="XMLID_2403_" x="22" y="72" class="st0" width="20" height="2"/>
		<rect id="XMLID_2404_" x="24" y="71" class="st0" width="2" height="4"/>
		<rect id="XMLID_2406_" x="38" y="71" class="st0" width="2" height="4"/>
		<rect id="XMLID_2409_" x="22" y="64" class="st0" width="8" height="2"/>
		<rect id="XMLID_2410_" x="30" y="60" class="st0" width="2" height="6"/>
		<rect id="XMLID_2221_" x="34" y="58" class="st0" width="2" height="8"/>
		<rect id="XMLID_2411_" x="34" y="66" class="st0" width="8" height="2"/>
	</g>
	<g id="XMLID_1579_">
		<rect id="XMLID_1580_" x="4" y="84" class="st0" width="88" height="6"/>
		<rect id="XMLID_1578_" x="6" y="86" class="st1" width="84" height="2"/>
		<g id="XMLID_1595_">
			<rect id="XMLID_1581_" x="8" y="90" class="st0" width="4" height="2"/>
			<rect id="XMLID_1596_" x="84" y="90" class="st0" width="4" height="2"/>
		</g>
		<rect id="XMLID_2297_" x="30" y="86" class="st0" width="4" height="1"/>
		<rect id="XMLID_2302_" x="59" y="86" class="st0" width="4" height="1"/>
	</g>
	<g id="XMLID_928_">
		<g id="XMLID_2399_">
			<rect id="XMLID_2388_" x="86" y="24" class="st0" width="2" height="16"/>
			<rect id="XMLID_2393_" x="85" y="18" class="st0" width="4" height="6"/>
		</g>
		<g id="XMLID_2307_">
			<rect id="XMLID_2382_" x="86" y="57" class="st0" width="5" height="8"/>
			<rect id="XMLID_2306_" x="88" y="59" class="st4" width="1" height="4"/>
			<rect id="XMLID_2386_" x="91" y="59" class="st0" width="1" height="4"/>
			<rect id="XMLID_2401_" x="88" y="65" class="st0" width="2" height="4"/>
		</g>
		<g id="XMLID_2303_">
			<rect id="XMLID_2304_" x="72" y="26" class="st0" width="8" height="6"/>
			<rect id="XMLID_2301_" x="74" y="28" class="st1" width="4" height="2"/>
		</g>
		<g id="XMLID_1165_">
			<polygon id="XMLID_1169_" class="st0" points="64,86 64,64 74,64 74,76 69,86 			"/>
			<polygon id="XMLID_1166_" class="st1" points="66,84 68,84 72,76 72,66 66,66 			"/>
		</g>
		<g id="XMLID_1170_">
			<polygon id="XMLID_2267_" class="st0" points="88,86 88,64 78,64 78,76 83,86 			"/>
			<polygon id="XMLID_1171_" class="st1" points="86,84 84,84 80,76 80,66 86,66 			"/>
		</g>
		<g id="XMLID_1159_">
			<path id="XMLID_1162_" class="st0" d="M74,76c-5.5,0-10-4.5-10-10V40c0-5.5,4.5-10,10-10h4c5.5,0,10,4.5,10,10v26
				c0,5.5-4.5,10-10,10H74z"/>
			<path id="XMLID_1163_" class="st2" d="M74,74h4c4.4,0,8-3.6,8-8V40c0-4.4-3.6-8-8-8h-4c-4.4,0-8,3.6-8,8v26
				C66,70.4,69.6,74,74,74z"/>
			<circle id="XMLID_2293_" class="st0" cx="76" cy="44" r="1"/>
			<rect id="XMLID_2294_" x="65" y="39" class="st0" width="22" height="2"/>
			<rect id="XMLID_2298_" x="65" y="65" class="st0" width="22" height="2"/>
			<rect id="XMLID_2295_" x="74" y="38" class="st0" width="4" height="1"/>
			<rect id="XMLID_2300_" x="74" y="67" class="st0" width="4" height="1"/>
			<g id="XMLID_2296_">
				<rect id="XMLID_2299_" x="72" y="49" class="st0" width="8" height="6"/>
			</g>
		</g>
		<g id="XMLID_1164_">
			<rect id="XMLID_1167_" x="58" y="41" class="st0" width="6" height="2"/>
			<rect id="XMLID_2271_" x="60" y="40" class="st0" width="2" height="4"/>
		</g>
		<rect id="XMLID_2272_" x="58" y="56" class="st0" width="6" height="2"/>
		<g id="XMLID_2390_">
			<rect id="XMLID_2292_" x="58" y="49" class="st0" width="2" height="4"/>
			<rect id="XMLID_2389_" x="60" y="48" class="st0" width="2" height="6"/>
		</g>
		<g id="XMLID_2392_">
			<rect id="XMLID_2387_" x="88" y="52" class="st0" width="2" height="2"/>
			<rect id="XMLID_2391_" x="90" y="51" class="st0" width="2" height="4"/>
		</g>
		<g id="XMLID_2394_">
			<rect id="XMLID_2396_" x="88" y="30" class="st0" width="2" height="2"/>
			<rect id="XMLID_2395_" x="90" y="29" class="st0" width="2" height="4"/>
		</g>
		<g id="XMLID_2398_">
			<rect id="XMLID_2305_" x="75" y="22" class="st0" width="2" height="4"/>
			<rect id="XMLID_2397_" x="74" y="20" class="st0" width="4" height="2"/>
		</g>
		<rect id="XMLID_2400_" x="88" y="41" class="st0" width="2" height="8"/>
	</g>
	<rect id="XMLID_2291_" x="75" y="74" class="st0" width="2" height="6"/>
	<rect id="XMLID_2412_" x="74" y="77" class="st0" width="4" height="2"/>
</g>
</svg>
