<?xml version="1.0" encoding="utf-8"?>
<!-- Generator: Adobe Illustrator 19.0.0, SVG Export Plug-In . SVG Version: 6.00 Build 0)  -->
<svg version="1.1" id="icons" xmlns="http://www.w3.org/2000/svg" xmlns:xlink="http://www.w3.org/1999/xlink" x="0px" y="0px"
	 viewBox="0 0 96 96" style="enable-background:new 0 0 96 96;" xml:space="preserve">
<style type="text/css">
	.st0{fill:#352C2C;}
	.st1{fill:#EDE3E2;}
	.st2{fill:#A39A99;}
	.st3{fill:#C8BEBE;}
	.st4{fill:#4A9FCE;}
</style>
<g id="XMLID_3381_">
	<g id="XMLID_3455_">
		<rect id="XMLID_3453_" x="33" y="8" class="st0" width="2" height="20"/>
		<rect id="XMLID_3454_" x="35" y="8" class="st0" width="7" height="2"/>
	</g>
	<g id="XMLID_3452_">
		<rect id="XMLID_3450_" x="61" y="12" class="st0" width="2" height="16"/>
		<rect id="XMLID_3451_" x="60" y="14" class="st0" width="4" height="2"/>
	</g>
	<g id="XMLID_3382_">
		<g id="XMLID_3438_">
			<rect id="XMLID_3436_" x="67" y="34" class="st0" width="5" height="2"/>
			<rect id="XMLID_3437_" x="69" y="30" class="st0" width="2" height="4"/>
		</g>
		<path id="XMLID_3388_" class="st0" d="M67,68c0,3.3-2.7,6-6,6H35c-3.3,0-6-2.7-6-6V30c0-6.6,5.4-12,12-12h14c6.6,0,12,5.4,12,12
			V68z"/>
		<path id="XMLID_3383_" class="st1" d="M65,68c0,2.2-1.8,4-4,4H35c-2.2,0-4-1.8-4-4V30c0-5.5,4.5-10,10-10h14c5.5,0,10,4.5,10,10
			V68z"/>
		<g id="XMLID_3402_">
			<circle id="XMLID_3401_" class="st0" cx="34" cy="58" r="1"/>
			<circle id="XMLID_3403_" class="st0" cx="38" cy="58" r="1"/>
			<circle id="XMLID_3404_" class="st0" cx="42" cy="58" r="1"/>
			<circle id="XMLID_3405_" class="st0" cx="46" cy="58" r="1"/>
			<circle id="XMLID_3406_" class="st0" cx="50" cy="58" r="1"/>
			<circle id="XMLID_3407_" class="st0" cx="54" cy="58" r="1"/>
			<circle id="XMLID_3408_" class="st0" cx="58" cy="58" r="1"/>
			<circle id="XMLID_3409_" class="st0" cx="62" cy="58" r="1"/>
		</g>
		<g id="XMLID_3420_">
			<circle id="XMLID_3428_" class="st0" cx="34" cy="32" r="1"/>
			<circle id="XMLID_3427_" class="st0" cx="38" cy="32" r="1"/>
			<circle id="XMLID_3426_" class="st0" cx="42" cy="32" r="1"/>
			<circle id="XMLID_3425_" class="st0" cx="46" cy="32" r="1"/>
			<circle id="XMLID_3424_" class="st0" cx="50" cy="32" r="1"/>
			<circle id="XMLID_3423_" class="st0" cx="54" cy="32" r="1"/>
			<circle id="XMLID_3422_" class="st0" cx="58" cy="32" r="1"/>
			<circle id="XMLID_3421_" class="st0" cx="62" cy="32" r="1"/>
		</g>
		<rect id="XMLID_3389_" x="28" y="60" class="st0" width="40" height="2"/>
		<rect id="XMLID_3414_" x="28" y="28" class="st0" width="40" height="2"/>
		<g id="XMLID_3410_">
			<rect id="XMLID_3412_" x="35" y="38" class="st0" width="12" height="2"/>
			<rect id="XMLID_3411_" x="35" y="42" class="st0" width="14" height="2"/>
		</g>
		<g id="XMLID_3419_">
			<g id="XMLID_3430_">
				<g id="XMLID_3432_">
					<rect id="XMLID_3435_" x="47" y="74" class="st0" width="2" height="4"/>
					<rect id="XMLID_3434_" x="46" y="76" class="st0" width="4" height="2"/>
					<rect id="XMLID_3433_" x="47" y="78" class="st0" width="2" height="1"/>
				</g>
				<rect id="XMLID_3431_" x="50" y="76" class="st0" width="2" height="4"/>
			</g>
			<path id="XMLID_3429_" class="st0" d="M43,74v2c0,1.1-0.9,2-2,2h-2v2h2c2.2,0,4-1.8,4-4v-2H43z"/>
		</g>
		<g id="XMLID_3442_">
			<rect id="XMLID_3439_" x="25" y="34" class="st0" width="4" height="2"/>
			<rect id="XMLID_3440_" x="24" y="26" class="st0" width="4" height="6"/>
			<rect id="XMLID_3441_" x="25" y="32" class="st0" width="2" height="2"/>
		</g>
	</g>
	<g id="XMLID_3384_">
		<g id="XMLID_3385_">
			<rect id="XMLID_3386_" x="33" y="64" class="st0" width="8" height="28"/>
			<rect id="XMLID_3387_" x="35" y="66" class="st2" width="4" height="24"/>
			<rect id="XMLID_3390_" x="31" y="90" class="st0" width="12" height="2"/>
			<rect id="XMLID_3391_" x="36" y="89" class="st0" width="2" height="1"/>
			<rect id="XMLID_3392_" x="36" y="66" class="st0" width="2" height="1"/>
		</g>
		<g id="XMLID_3393_">
			<rect id="XMLID_3397_" x="55" y="64" class="st0" width="8" height="28"/>
			<rect id="XMLID_3396_" x="57" y="66" class="st2" width="4" height="24"/>
			<rect id="XMLID_3395_" x="53" y="90" class="st0" width="12" height="2"/>
			<rect id="XMLID_3394_" x="58" y="89" class="st0" width="2" height="1"/>
			<rect id="XMLID_3398_" x="58" y="66" class="st0" width="2" height="1"/>
		</g>
		<g id="XMLID_3399_">
			<rect id="XMLID_3400_" x="39" y="82" class="st0" width="18" height="6"/>
			<rect id="XMLID_3413_" x="41" y="84" class="st2" width="14" height="2"/>
		</g>
	</g>
	<g id="XMLID_3415_">
		<rect id="XMLID_3416_" x="40" y="12" class="st0" width="16" height="8"/>
		<rect id="XMLID_3417_" x="42" y="14" class="st3" width="12" height="4"/>
		<rect id="XMLID_3418_" x="38" y="12" class="st0" width="20" height="2"/>
		<rect id="XMLID_3443_" x="46" y="14" class="st0" width="4" height="2"/>
	</g>
	<g id="XMLID_3444_">
		<path id="XMLID_3445_" class="st0" d="M42,14V8c0-2.2,1.8-4,4-4h4c2.2,0,4,1.8,4,4v6H42z"/>
		<path id="XMLID_3446_" class="st4" d="M52,12h-8V8c0-1.1,0.9-2,2-2h4c1.1,0,2,0.9,2,2V12z"/>
		<g id="XMLID_3447_">
			<circle id="XMLID_3448_" class="st0" cx="46" cy="10" r="1"/>
			<circle id="XMLID_3449_" class="st0" cx="50" cy="10" r="1"/>
		</g>
	</g>
</g>
</svg>
