<?xml version="1.0" encoding="utf-8"?>
<!-- Generator: Adobe Illustrator 19.0.0, SVG Export Plug-In . SVG Version: 6.00 Build 0)  -->
<svg version="1.1" id="icons" xmlns="http://www.w3.org/2000/svg" xmlns:xlink="http://www.w3.org/1999/xlink" x="0px" y="0px"
	 viewBox="0 0 96 96" style="enable-background:new 0 0 96 96;" xml:space="preserve">
<style type="text/css">
	.st0{fill:#352C2C;}
	.st1{fill:#A39A99;}
	.st2{fill:#EDE3E2;}
	.st3{fill:#C8BEBE;}
</style>
<g id="XMLID_5_">
	<g id="XMLID_101_">
		<g id="XMLID_62_">
			<rect id="XMLID_64_" x="48" y="14" class="st0" width="10" height="24"/>
			<rect id="XMLID_60_" x="50" y="16" class="st1" width="6" height="20"/>
		</g>
		<g id="XMLID_100_">
			<rect id="XMLID_65_" x="50" y="12" class="st0" width="6" height="2"/>
			<rect id="XMLID_99_" x="48" y="10" class="st0" width="10" height="2"/>
		</g>
	</g>
	<g id="XMLID_51_">
		<g id="XMLID_43_">
			<rect id="XMLID_44_" x="16" y="32" class="st0" width="12" height="6"/>
			<rect id="XMLID_42_" x="18" y="34" class="st1" width="8" height="2"/>
		</g>
		<g id="XMLID_49_">
			<rect id="XMLID_46_" x="19" y="26" class="st0" width="2" height="6"/>
			<rect id="XMLID_48_" x="18" y="20" class="st0" width="4" height="6"/>
		</g>
	</g>
	<g id="XMLID_28_">
		<polygon id="XMLID_29_" class="st0" points="12,64 12,60 14,40 14,36 62,36 62,40 64,60 64,64 		"/>
		<polygon id="XMLID_27_" class="st2" points="62,62 14,62 14,60 16,40 16,38 60,38 60,40 62,60 		"/>
		<rect id="XMLID_32_" x="14" y="40" class="st0" width="48" height="2"/>
		<g id="XMLID_35_">
			<circle id="XMLID_33_" class="st0" cx="48" cy="56" r="2"/>
			<circle id="XMLID_34_" class="st0" cx="54" cy="56" r="2"/>
		</g>
		<g id="XMLID_36_">
			<rect id="XMLID_38_" x="18" y="46" class="st0" width="12" height="2"/>
			<rect id="XMLID_37_" x="18" y="50" class="st0" width="14" height="2"/>
		</g>
	</g>
	<g id="XMLID_23_">
		<rect id="XMLID_24_" x="14" y="62" class="st0" width="48" height="28"/>
		<rect id="XMLID_25_" x="16" y="64" class="st1" width="44" height="24"/>
		<rect id="XMLID_26_" x="16" y="90" class="st0" width="4" height="2"/>
		<rect id="XMLID_31_" x="56" y="90" class="st0" width="4" height="2"/>
		<g id="XMLID_110_">
			<rect id="XMLID_40_" x="18" y="84" class="st0" width="4" height="2"/>
			<rect id="XMLID_111_" x="24" y="84" class="st0" width="4" height="2"/>
			<rect id="XMLID_112_" x="30" y="84" class="st0" width="4" height="2"/>
			<rect id="XMLID_113_" x="36" y="84" class="st0" width="4" height="2"/>
			<rect id="XMLID_114_" x="42" y="84" class="st0" width="4" height="2"/>
			<rect id="XMLID_115_" x="48" y="84" class="st0" width="4" height="2"/>
			<rect id="XMLID_116_" x="54" y="84" class="st0" width="4" height="2"/>
		</g>
		<g id="XMLID_119_">
			<rect id="XMLID_127_" x="18" y="80" class="st0" width="4" height="2"/>
			<rect id="XMLID_126_" x="24" y="80" class="st0" width="4" height="2"/>
			<rect id="XMLID_125_" x="30" y="80" class="st0" width="4" height="2"/>
			<rect id="XMLID_124_" x="36" y="80" class="st0" width="4" height="2"/>
			<rect id="XMLID_123_" x="42" y="80" class="st0" width="4" height="2"/>
			<rect id="XMLID_121_" x="48" y="80" class="st0" width="4" height="2"/>
			<rect id="XMLID_120_" x="54" y="80" class="st0" width="4" height="2"/>
		</g>
	</g>
	<g id="XMLID_39_">
		<path id="XMLID_63_" class="st0" d="M33,10c6.6,0,12,2.7,12,6h2c0-4.6-6-8-14-8s-14,3.4-14,8h2C21,12.7,26.4,10,33,10z"/>
		<path id="XMLID_47_" class="st0" d="M20,14c-2.2,0-4,1.8-4,4s1.8,4,4,4h2l6,2h4V14H20z"/>
		<rect id="XMLID_41_" x="26" y="14" class="st0" width="24" height="24"/>
		<rect id="XMLID_45_" x="28" y="16" class="st3" width="20" height="20"/>
		<path id="XMLID_50_" class="st3" d="M22,16h-2c-1.1,0-2,0.9-2,2c0,1.1,0.9,2,2,2h2l6,2h2v-6H22z"/>
		<circle id="XMLID_52_" class="st0" cx="20" cy="18" r="1"/>
		<g id="XMLID_53_">
			<rect id="XMLID_54_" x="36" y="12" class="st0" width="4" height="2"/>
			<rect id="XMLID_55_" x="33" y="4" class="st0" width="10" height="2"/>
			<rect id="XMLID_102_" x="35" y="6" class="st0" width="6" height="6"/>
		</g>
	</g>
	<g id="XMLID_103_">
		<polygon id="XMLID_104_" class="st0" points="77,70 71,64 60,64 60,36 73,36 79,42 84,42 84,70 		"/>
		<polygon id="XMLID_107_" class="st3" points="72,38 62,38 62,62 72,62 78,68 82,68 82,44 78,44 		"/>
		<polygon id="XMLID_109_" class="st0" points="78,48 72,42 62,42 62,44 71,44 77,50 82,50 82,48 		"/>
		<g id="XMLID_105_">
			<rect id="XMLID_108_" x="60" y="34" class="st0" width="8" height="16"/>
			<rect id="XMLID_106_" x="62" y="36" class="st1" width="4" height="12"/>
		</g>
	</g>
</g>
</svg>
