<?xml version="1.0" encoding="utf-8"?>
<!-- Generator: Adobe Illustrator 19.0.0, SVG Export Plug-In . SVG Version: 6.00 Build 0)  -->
<svg version="1.1" id="icons" xmlns="http://www.w3.org/2000/svg" xmlns:xlink="http://www.w3.org/1999/xlink" x="0px" y="0px"
	 viewBox="0 0 96 96" style="enable-background:new 0 0 96 96;" xml:space="preserve">
<style type="text/css">
	.st0{fill:#352C2C;}
	.st1{fill:#A39A99;}
	.st2{fill:#C8BEBE;}
	.st3{fill:#7F7575;}
	.st4{fill:#4A9FCE;}
</style>
<g id="XMLID_165_">
	<g id="XMLID_175_">
		<rect id="XMLID_176_" x="6" y="78" class="st0" width="84" height="14"/>
		<rect id="XMLID_180_" x="8" y="80" class="st1" width="80" height="10"/>
		<rect id="XMLID_181_" x="4" y="78" class="st0" width="88" height="2"/>
		<rect id="XMLID_186_" x="4" y="90" class="st0" width="88" height="2"/>
		<g id="XMLID_187_">
			<rect id="XMLID_183_" x="12" y="80" class="st0" width="4" height="2"/>
			<rect id="XMLID_188_" x="20" y="80" class="st0" width="4" height="2"/>
		</g>
		<g id="XMLID_190_">
			<rect id="XMLID_192_" x="72" y="80" class="st0" width="4" height="2"/>
			<rect id="XMLID_191_" x="80" y="80" class="st0" width="4" height="2"/>
		</g>
		<g id="XMLID_196_">
			<rect id="XMLID_244_" x="12" y="88" class="st0" width="4" height="2"/>
			<rect id="XMLID_229_" x="20" y="88" class="st0" width="4" height="2"/>
		</g>
		<g id="XMLID_193_">
			<rect id="XMLID_195_" x="72" y="88" class="st0" width="4" height="2"/>
			<rect id="XMLID_194_" x="80" y="88" class="st0" width="4" height="2"/>
		</g>
	</g>
	<g id="XMLID_263_">
		<g id="XMLID_253_">
			<rect id="XMLID_258_" x="18" y="62" class="st0" width="54" height="10"/>
			<rect id="XMLID_189_" x="20" y="64" class="st2" width="50" height="6"/>
		</g>
		<g id="XMLID_261_">
			<rect id="XMLID_259_" x="22" y="74" class="st0" width="2" height="2"/>
			<rect id="XMLID_260_" x="20" y="76" class="st0" width="6" height="2"/>
			<rect id="XMLID_262_" x="21" y="72" class="st0" width="4" height="2"/>
		</g>
		<g id="XMLID_265_">
			<rect id="XMLID_268_" x="67" y="74" class="st0" width="2" height="2"/>
			<rect id="XMLID_267_" x="65" y="76" class="st0" width="6" height="2"/>
			<rect id="XMLID_266_" x="66" y="72" class="st0" width="4" height="2"/>
		</g>
		<circle id="XMLID_264_" class="st0" cx="23" cy="67" r="2"/>
		<circle id="XMLID_270_" class="st0" cx="56" cy="67" r="2"/>
	</g>
	<g id="XMLID_182_">
		<g id="XMLID_354_">
			<g id="XMLID_349_">
				<polygon id="XMLID_350_" class="st0" points="70,32 70,26 68,14 68,10 80,10 80,14 78,26 78,32 				"/>
				<polygon id="XMLID_348_" class="st3" points="78,12 70,12 70,14 72,26 72,30 76,30 76,26 78,14 				"/>
			</g>
			<g id="XMLID_352_">
				<rect id="XMLID_353_" x="66" y="4" class="st0" width="16" height="8"/>
				<rect id="XMLID_351_" x="68" y="6" class="st2" width="12" height="4"/>
				<rect id="XMLID_355_" x="72" y="6" class="st0" width="4" height="1"/>
			</g>
		</g>
		<g id="XMLID_347_">
			<g id="XMLID_343_">
				<polygon id="XMLID_344_" class="st0" points="80,48 80,30 84,30 88,32 92,32 92,46 88,46 84,48 				"/>
				<polygon id="XMLID_338_" class="st1" points="90,44 88,44 84,46 82,46 82,32 84,32 88,34 90,34 				"/>
				<rect id="XMLID_345_" x="90" y="30" class="st0" width="2" height="18"/>
				<rect id="XMLID_346_" x="89" y="36" class="st0" width="1" height="6"/>
			</g>
			<g id="XMLID_329_">
				<polygon id="XMLID_330_" class="st0" points="75,52 69,48 64,48 64,30 69,30 75,26 80,26 80,52 				"/>
				<polygon id="XMLID_328_" class="st1" points="78,50 76,50 70,46 66,46 66,32 70,32 76,28 78,28 				"/>
				<g id="XMLID_358_">
					<rect id="XMLID_359_" x="77" y="30" class="st0" width="1" height="2"/>
					<rect id="XMLID_360_" x="77" y="34" class="st0" width="1" height="2"/>
					<rect id="XMLID_361_" x="77" y="38" class="st0" width="1" height="2"/>
					<rect id="XMLID_362_" x="77" y="42" class="st0" width="1" height="2"/>
					<rect id="XMLID_363_" x="77" y="46" class="st0" width="1" height="2"/>
				</g>
			</g>
			<g id="XMLID_332_">
				<rect id="XMLID_333_" x="78" y="26" class="st0" width="6" height="26"/>
				<rect id="XMLID_331_" x="80" y="28" class="st2" width="2" height="22"/>
			</g>
			<g id="XMLID_335_">
				<rect id="XMLID_336_" x="75" y="23" class="st0" width="8" height="5"/>
				<rect id="XMLID_334_" x="77" y="25" class="st1" width="4" height="1"/>
				<rect id="XMLID_337_" x="78" y="25" class="st0" width="2" height="1"/>
			</g>
			<g id="XMLID_339_">
				<rect id="XMLID_342_" x="75" y="50" class="st0" width="8" height="5"/>
				<rect id="XMLID_341_" x="77" y="52" class="st1" width="4" height="1"/>
				<rect id="XMLID_340_" x="78" y="52" class="st0" width="2" height="1"/>
			</g>
		</g>
		<g id="XMLID_297_">
			<path id="XMLID_310_" class="st0" d="M4,48V30c0-3.3,2.7-6,6-6h48v30H10C6.7,54,4,51.3,4,48z"/>
			<path id="XMLID_309_" class="st4" d="M56,52H10c-2.2,0-4-1.8-4-4V30c0-2.2,1.8-4,4-4h46V52z"/>
			<g id="XMLID_300_">
				<rect id="XMLID_308_" x="22" y="28" class="st0" width="34" height="2"/>
				<rect id="XMLID_307_" x="22" y="32" class="st0" width="34" height="2"/>
				<rect id="XMLID_299_" x="22" y="36" class="st0" width="34" height="2"/>
				<rect id="XMLID_306_" x="22" y="40" class="st0" width="34" height="2"/>
				<rect id="XMLID_302_" x="22" y="44" class="st0" width="34" height="2"/>
				<rect id="XMLID_301_" x="22" y="48" class="st0" width="34" height="2"/>
			</g>
			<rect id="XMLID_282_" x="20" y="26" class="st0" width="2" height="26"/>
			<circle id="XMLID_283_" class="st0" cx="18" cy="28" r="1"/>
			<circle id="XMLID_286_" class="st0" cx="18" cy="50" r="1"/>
			<rect id="XMLID_284_" x="12" y="26" class="st0" width="2" height="26"/>
		</g>
		<g id="XMLID_273_">
			<g id="XMLID_279_">
				<rect id="XMLID_281_" x="56" y="22" class="st0" width="6" height="34"/>
				<rect id="XMLID_280_" x="58" y="24" class="st4" width="2" height="30"/>
			</g>
			<g id="XMLID_274_">
				<rect id="XMLID_278_" x="60" y="22" class="st0" width="6" height="34"/>
				<rect id="XMLID_277_" x="62" y="24" class="st2" width="2" height="30"/>
				<rect id="XMLID_276_" x="66" y="24" class="st0" width="1" height="2"/>
				<rect id="XMLID_275_" x="66" y="52" class="st0" width="1" height="2"/>
			</g>
		</g>
		<g id="XMLID_324_">
			<polygon id="XMLID_327_" class="st0" points="20,26 20,18 29,18 32,21 32,26 			"/>
			<polygon id="XMLID_326_" class="st3" points="28,20 22,20 22,24 30,24 30,22 			"/>
			<rect id="XMLID_325_" x="24" y="23" class="st0" width="4" height="1"/>
		</g>
		<g id="XMLID_320_">
			<rect id="XMLID_323_" x="40" y="20" class="st0" width="10" height="6"/>
			<rect id="XMLID_322_" x="42" y="22" class="st3" width="6" height="2"/>
			<rect id="XMLID_321_" x="44" y="22" class="st0" width="2" height="1"/>
		</g>
		<g id="XMLID_294_">
			<g id="XMLID_317_">
				<polygon id="XMLID_319_" class="st0" points="37,15 37,12 40,9 50,9 53,12 53,15 				"/>
				<polygon id="XMLID_318_" class="st4" points="51,13 49,11 41,11 39,13 				"/>
			</g>
			<g id="XMLID_296_">
				<rect id="XMLID_316_" x="37" y="12" class="st0" width="16" height="10"/>
				<rect id="XMLID_315_" x="39" y="14" class="st4" width="12" height="6"/>
				<circle id="XMLID_313_" class="st0" cx="42" cy="17" r="2"/>
				<circle id="XMLID_298_" class="st0" cx="48" cy="17" r="2"/>
			</g>
			<rect id="XMLID_295_" x="36" y="12" class="st0" width="18" height="2"/>
		</g>
		<g id="XMLID_184_">
			<g id="XMLID_185_">
				<rect id="XMLID_269_" x="22" y="56" class="st0" width="32" height="8"/>
				<rect id="XMLID_271_" x="24" y="58" class="st4" width="28" height="4"/>
				<rect id="XMLID_272_" x="33" y="60" class="st0" width="10" height="2"/>
			</g>
			<g id="XMLID_311_">
				<rect id="XMLID_312_" x="24" y="52" class="st0" width="28" height="6"/>
				<rect id="XMLID_314_" x="26" y="54" class="st3" width="24" height="2"/>
				<rect id="XMLID_356_" x="28" y="55" class="st0" width="4" height="1"/>
				<rect id="XMLID_357_" x="44" y="55" class="st0" width="4" height="1"/>
			</g>
		</g>
	</g>
</g>
</svg>
