<?xml version="1.0" encoding="utf-8"?>
<!-- Generator: Adobe Illustrator 19.0.0, SVG Export Plug-In . SVG Version: 6.00 Build 0)  -->
<svg version="1.1" id="icons" xmlns="http://www.w3.org/2000/svg" xmlns:xlink="http://www.w3.org/1999/xlink" x="0px" y="0px"
	 viewBox="0 0 96 96" style="enable-background:new 0 0 96 96;" xml:space="preserve">
<style type="text/css">
	.st0{fill:#352C2C;}
	.st1{fill:#EDE3E2;}
	.st2{fill:#4A9FCE;}
	.st3{fill:#A39A99;}
	.st4{fill:#C8BEBE;}
</style>
<g id="XMLID_844_">
	<g id="XMLID_606_">
		<rect id="XMLID_607_" x="14" y="24" class="st0" width="68" height="68"/>
		<rect id="XMLID_625_" x="16" y="26" class="st1" width="64" height="64"/>
		<g id="XMLID_3826_">
			<rect id="XMLID_3829_" x="48" y="48" class="st0" width="14" height="2"/>
			<rect id="XMLID_3828_" x="48" y="52" class="st0" width="16" height="2"/>
		</g>
		<rect id="XMLID_805_" x="12" y="90" class="st0" width="72" height="2"/>
		<rect id="XMLID_846_" x="74" y="28" class="st0" width="4" height="2"/>
		<rect id="XMLID_861_" x="18" y="28" class="st0" width="4" height="2"/>
	</g>
	<g id="XMLID_626_">
		<rect id="XMLID_627_" x="24" y="26" class="st0" width="2" height="64"/>
		<rect id="XMLID_628_" x="30" y="26" class="st0" width="2" height="64"/>
		<g id="XMLID_629_">
			<rect id="XMLID_630_" x="26" y="84" class="st0" width="4" height="2"/>
			<rect id="XMLID_631_" x="26" y="78" class="st0" width="4" height="2"/>
			<rect id="XMLID_632_" x="26" y="72" class="st0" width="4" height="2"/>
			<rect id="XMLID_633_" x="26" y="66" class="st0" width="4" height="2"/>
			<rect id="XMLID_634_" x="26" y="60" class="st0" width="4" height="2"/>
			<rect id="XMLID_635_" x="26" y="54" class="st0" width="4" height="2"/>
			<rect id="XMLID_636_" x="26" y="48" class="st0" width="4" height="2"/>
			<rect id="XMLID_637_" x="26" y="42" class="st0" width="4" height="2"/>
			<rect id="XMLID_638_" x="26" y="36" class="st0" width="4" height="2"/>
			<rect id="XMLID_639_" x="26" y="30" class="st0" width="4" height="2"/>
		</g>
	</g>
	<g id="XMLID_753_">
		<rect id="XMLID_754_" x="42" y="72" class="st0" width="12" height="14"/>
		<rect id="XMLID_752_" x="44" y="74" class="st2" width="8" height="10"/>
		<rect id="XMLID_804_" x="46" y="82" class="st0" width="4" height="2"/>
		<rect id="XMLID_755_" x="47" y="86" class="st0" width="2" height="4"/>
	</g>
	<g id="XMLID_839_">
		<g id="XMLID_815_">
			<rect id="XMLID_818_" x="42" y="4" class="st0" width="12" height="8"/>
			<rect id="XMLID_751_" x="44" y="6" class="st3" width="8" height="4"/>
			<rect id="XMLID_837_" x="46" y="6" class="st0" width="4" height="1"/>
		</g>
		<g id="XMLID_838_">
			<polygon id="XMLID_777_" class="st0" points="12,26 12,20.6 44,8 52,8 84,20.6 84,26 			"/>
			<polygon id="XMLID_780_" class="st4" points="44,10 14,22 14,24 82,24 82,22 52,10 			"/>
			<g id="XMLID_842_">
				<rect id="XMLID_840_" x="47" y="10" class="st0" width="2" height="10"/>
				<polygon id="XMLID_841_" class="st0" points="33,20 31,20 43,10 45,10 				"/>
				<polygon id="XMLID_843_" class="st0" points="63,20 65,20 53,10 51,10 				"/>
			</g>
		</g>
		<g id="XMLID_750_">
			<rect id="XMLID_781_" x="12" y="20" class="st0" width="72" height="6"/>
			<rect id="XMLID_810_" x="14" y="22" class="st3" width="68" height="2"/>
		</g>
	</g>
	<g id="XMLID_876_">
		<rect id="XMLID_845_" x="68" y="82" class="st0" width="8" height="4"/>
		<rect id="XMLID_847_" x="70" y="86" class="st0" width="2" height="4"/>
		<rect id="XMLID_874_" x="76" y="84" class="st0" width="4" height="1"/>
	</g>
</g>
</svg>
