<?xml version="1.0" encoding="utf-8"?>
<!-- Generator: Adobe Illustrator 19.0.0, SVG Export Plug-In . SVG Version: 6.00 Build 0)  -->
<svg version="1.1" id="icons" xmlns="http://www.w3.org/2000/svg" xmlns:xlink="http://www.w3.org/1999/xlink" x="0px" y="0px"
	 viewBox="0 0 96 96" style="enable-background:new 0 0 96 96;" xml:space="preserve">
<style type="text/css">
	.st0{fill:#352C2C;}
	.st1{fill:#4A9FCE;}
	.st2{fill:#679B7C;}
	.st3{fill:#A39A99;}
	.st4{fill:#C8BEBE;}
	.st5{fill:#7F7575;}
</style>
<g id="XMLID_3478_">
	<g id="XMLID_3661_">
		<rect id="XMLID_3657_" x="84" y="52" class="st0" width="4" height="2"/>
		<rect id="XMLID_3659_" x="85" y="54" class="st0" width="2" height="4"/>
		<rect id="XMLID_3660_" x="76" y="58" class="st0" width="11" height="2"/>
	</g>
	<g id="XMLID_3484_">
		<rect id="XMLID_3485_" x="74" y="20" class="st0" width="18" height="32"/>
		<rect id="XMLID_3483_" x="76" y="22" class="st1" width="14" height="28"/>
		<g id="XMLID_3487_">
			<rect id="XMLID_3489_" x="78" y="24" class="st0" width="10" height="6"/>
			<rect id="XMLID_3488_" x="80" y="26" class="st2" width="6" height="2"/>
		</g>
		<g id="XMLID_3491_">
			<circle id="XMLID_3486_" class="st0" cx="81" cy="33" r="1"/>
			<circle id="XMLID_3490_" class="st0" cx="85" cy="33" r="1"/>
			<circle id="XMLID_3493_" class="st0" cx="81" cy="37" r="1"/>
			<circle id="XMLID_3492_" class="st0" cx="85" cy="37" r="1"/>
		</g>
		<rect id="XMLID_3598_" x="78" y="40" class="st0" width="4" height="2"/>
	</g>
	<g id="XMLID_3600_">
		<rect id="XMLID_3601_" x="44" y="6" class="st0" width="22" height="18"/>
		<rect id="XMLID_3599_" x="46" y="8" class="st3" width="18" height="14"/>
		<rect id="XMLID_1265_" x="44" y="4" class="st0" width="22" height="2"/>
		<rect id="XMLID_3602_" x="42" y="6" class="st0" width="26" height="2"/>
		<rect id="XMLID_3603_" x="50" y="8" class="st0" width="10" height="2"/>
	</g>
	<g id="XMLID_1650_">
		<rect id="XMLID_3623_" x="14" y="6" class="st0" width="22" height="18"/>
		<rect id="XMLID_1654_" x="16" y="8" class="st3" width="18" height="14"/>
		<rect id="XMLID_1653_" x="14" y="4" class="st0" width="22" height="2"/>
		<rect id="XMLID_1652_" x="12" y="6" class="st0" width="26" height="2"/>
		<rect id="XMLID_1651_" x="20" y="8" class="st0" width="10" height="2"/>
	</g>
	<rect id="XMLID_1179_" x="10" y="42" class="st0" width="60" height="2"/>
	<g id="XMLID_1143_">
		<g id="XMLID_3641_">
			<rect id="XMLID_3643_" x="24" y="26" class="st0" width="2" height="22"/>
			<rect id="XMLID_3642_" x="23" y="24" class="st0" width="4" height="2"/>
		</g>
		<g id="XMLID_3631_">
			<rect id="XMLID_3635_" x="14" y="38" class="st0" width="2" height="10"/>
			<rect id="XMLID_3634_" x="18" y="26" class="st0" width="2" height="10"/>
			<rect id="XMLID_3633_" x="17" y="24" class="st0" width="4" height="2"/>
			<rect id="XMLID_3632_" x="14" y="36" class="st0" width="6" height="2"/>
			<rect id="XMLID_3625_" x="17" y="27" class="st0" width="4" height="1"/>
			<rect id="XMLID_3645_" x="13" y="46" class="st0" width="4" height="1"/>
		</g>
		<g id="XMLID_3627_">
			<rect id="XMLID_3654_" x="34" y="38" class="st0" width="2" height="10"/>
			<rect id="XMLID_3653_" x="30" y="26" class="st0" width="2" height="10"/>
			<rect id="XMLID_3644_" x="29" y="24" class="st0" width="4" height="2"/>
			<rect id="XMLID_3630_" x="30" y="36" class="st0" width="6" height="2"/>
			<rect id="XMLID_3629_" x="29" y="27" class="st0" width="4" height="1"/>
			<rect id="XMLID_3628_" x="33" y="46" class="st0" width="4" height="1"/>
		</g>
	</g>
	<g id="XMLID_1656_">
		<g id="XMLID_3649_">
			<rect id="XMLID_3651_" x="54" y="26" class="st0" width="2" height="22"/>
			<rect id="XMLID_3650_" x="53" y="24" class="st0" width="4" height="2"/>
		</g>
		<g id="XMLID_3637_">
			<rect id="XMLID_3648_" x="44" y="38" class="st0" width="2" height="10"/>
			<rect id="XMLID_3647_" x="48" y="26" class="st0" width="2" height="10"/>
			<rect id="XMLID_3646_" x="47" y="24" class="st0" width="4" height="2"/>
			<rect id="XMLID_3640_" x="44" y="36" class="st0" width="6" height="2"/>
			<rect id="XMLID_3639_" x="47" y="27" class="st0" width="4" height="1"/>
			<rect id="XMLID_3638_" x="43" y="46" class="st0" width="4" height="1"/>
		</g>
		<g id="XMLID_3609_">
			<rect id="XMLID_3636_" x="64" y="38" class="st0" width="2" height="10"/>
			<rect id="XMLID_3626_" x="60" y="26" class="st0" width="2" height="10"/>
			<rect id="XMLID_3624_" x="59" y="24" class="st0" width="4" height="2"/>
			<rect id="XMLID_3620_" x="60" y="36" class="st0" width="6" height="2"/>
			<rect id="XMLID_3619_" x="59" y="27" class="st0" width="4" height="1"/>
			<rect id="XMLID_3618_" x="63" y="46" class="st0" width="4" height="1"/>
		</g>
	</g>
	<g id="XMLID_1273_">
		<rect id="XMLID_1276_" x="6" y="14" class="st0" width="68" height="6"/>
		<g id="XMLID_1110_">
			<g id="XMLID_1111_">
				<rect id="XMLID_1112_" x="4" y="82" class="st0" width="72" height="6"/>
				<rect id="XMLID_1114_" x="6" y="84" class="st4" width="68" height="2"/>
			</g>
			<g id="XMLID_1115_">
				<rect id="XMLID_1127_" x="6" y="88" class="st0" width="2" height="4"/>
				<rect id="XMLID_1128_" x="5" y="90" class="st0" width="4" height="2"/>
			</g>
			<g id="XMLID_1134_">
				<rect id="XMLID_1139_" x="39" y="88" class="st0" width="2" height="4"/>
				<rect id="XMLID_1138_" x="38" y="90" class="st0" width="4" height="2"/>
			</g>
			<g id="XMLID_1129_">
				<rect id="XMLID_1130_" x="72" y="88" class="st0" width="2" height="4"/>
				<rect id="XMLID_1131_" x="71" y="90" class="st0" width="4" height="2"/>
			</g>
		</g>
		<g id="XMLID_1132_">
			<rect id="XMLID_1133_" x="70" y="14" class="st0" width="6" height="70"/>
			<rect id="XMLID_1135_" x="72" y="16" class="st4" width="2" height="66"/>
		</g>
		<g id="XMLID_1136_">
			<rect id="XMLID_1137_" x="4" y="14" class="st0" width="6" height="70"/>
			<rect id="XMLID_1140_" x="6" y="16" class="st4" width="2" height="66"/>
		</g>
		<rect id="XMLID_1274_" x="8" y="16" class="st4" width="64" height="2"/>
	</g>
	<rect id="XMLID_3621_" x="24" y="80" class="st0" width="4" height="2"/>
	<rect id="XMLID_3658_" x="52" y="80" class="st0" width="4" height="2"/>
	<g id="XMLID_601_">
		<rect id="XMLID_1142_" x="8" y="54" class="st0" width="64" height="8"/>
		<rect id="XMLID_1141_" x="10" y="56" class="st3" width="60" height="4"/>
		<circle id="XMLID_3608_" class="st0" cx="60" cy="58" r="1"/>
		<circle id="XMLID_3622_" class="st0" cx="50" cy="58" r="1"/>
		<circle id="XMLID_3652_" class="st0" cx="40" cy="58" r="1"/>
		<circle id="XMLID_3655_" class="st0" cx="30" cy="58" r="1"/>
		<circle id="XMLID_3656_" class="st0" cx="20" cy="58" r="1"/>
	</g>
	<g id="XMLID_1156_">
		<g id="XMLID_1197_">
			<rect id="XMLID_1272_" x="32" y="68" class="st0" width="16" height="6"/>
			<rect id="XMLID_1267_" x="34" y="70" class="st3" width="12" height="2"/>
			<g id="XMLID_1224_">
				<rect id="XMLID_1225_" x="32" y="72" class="st0" width="6" height="12"/>
				<rect id="XMLID_1226_" x="34" y="74" class="st3" width="2" height="8"/>
			</g>
			<g id="XMLID_1264_">
				<rect id="XMLID_1266_" x="42" y="72" class="st0" width="6" height="12"/>
				<rect id="XMLID_1268_" x="44" y="74" class="st3" width="2" height="8"/>
			</g>
		</g>
	</g>
	<g id="XMLID_3459_">
		<rect id="XMLID_1655_" x="58" y="62" class="st0" width="4" height="2"/>
		<rect id="XMLID_3477_" x="58" y="78" class="st0" width="4" height="4"/>
		<rect id="XMLID_3458_" x="59" y="64" class="st0" width="2" height="14"/>
	</g>
	<g id="XMLID_3479_">
		<rect id="XMLID_3482_" x="18" y="62" class="st0" width="4" height="2"/>
		<rect id="XMLID_3481_" x="18" y="78" class="st0" width="4" height="4"/>
		<rect id="XMLID_3480_" x="19" y="64" class="st0" width="2" height="14"/>
	</g>
	<g id="XMLID_1657_">
		<g id="XMLID_1689_">
			<rect id="XMLID_1695_" x="52" y="50" class="st0" width="6" height="12"/>
			<rect id="XMLID_1694_" x="54" y="52" class="st5" width="2" height="8"/>
			<rect id="XMLID_1693_" x="53" y="62" class="st0" width="4" height="2"/>
			<rect id="XMLID_1692_" x="54" y="53" class="st0" width="2" height="2"/>
			<rect id="XMLID_1691_" x="53" y="48" class="st0" width="4" height="2"/>
			<rect id="XMLID_1690_" x="54" y="64" class="st0" width="2" height="2"/>
		</g>
		<g id="XMLID_1658_">
			<rect id="XMLID_1681_" x="42" y="50" class="st0" width="6" height="12"/>
			<rect id="XMLID_1680_" x="44" y="52" class="st5" width="2" height="8"/>
			<rect id="XMLID_1679_" x="43" y="62" class="st0" width="4" height="2"/>
			<rect id="XMLID_1678_" x="44" y="53" class="st0" width="2" height="2"/>
			<rect id="XMLID_1677_" x="43" y="48" class="st0" width="4" height="2"/>
			<rect id="XMLID_1659_" x="44" y="64" class="st0" width="2" height="2"/>
		</g>
		<g id="XMLID_1682_">
			<rect id="XMLID_1688_" x="32" y="50" class="st0" width="6" height="12"/>
			<rect id="XMLID_1687_" x="34" y="52" class="st5" width="2" height="8"/>
			<rect id="XMLID_1686_" x="33" y="62" class="st0" width="4" height="2"/>
			<rect id="XMLID_1685_" x="34" y="53" class="st0" width="2" height="2"/>
			<rect id="XMLID_1684_" x="33" y="48" class="st0" width="4" height="2"/>
			<rect id="XMLID_1683_" x="34" y="64" class="st0" width="2" height="2"/>
		</g>
		<g id="XMLID_1696_">
			<rect id="XMLID_3457_" x="22" y="50" class="st0" width="6" height="12"/>
			<rect id="XMLID_3453_" x="24" y="52" class="st5" width="2" height="8"/>
			<rect id="XMLID_2899_" x="23" y="62" class="st0" width="4" height="2"/>
			<rect id="XMLID_2173_" x="24" y="53" class="st0" width="2" height="2"/>
			<rect id="XMLID_2172_" x="23" y="48" class="st0" width="4" height="2"/>
			<rect id="XMLID_2170_" x="24" y="64" class="st0" width="2" height="2"/>
		</g>
		<g id="XMLID_3610_">
			<rect id="XMLID_3616_" x="12" y="50" class="st0" width="6" height="12"/>
			<rect id="XMLID_3615_" x="14" y="52" class="st5" width="2" height="8"/>
			<rect id="XMLID_3614_" x="13" y="62" class="st0" width="4" height="2"/>
			<rect id="XMLID_3613_" x="14" y="53" class="st0" width="2" height="2"/>
			<rect id="XMLID_3612_" x="13" y="48" class="st0" width="4" height="2"/>
			<rect id="XMLID_3611_" x="14" y="64" class="st0" width="2" height="2"/>
		</g>
		<g id="XMLID_2171_">
			<rect id="XMLID_3617_" x="62" y="50" class="st0" width="6" height="12"/>
			<rect id="XMLID_3607_" x="64" y="52" class="st5" width="2" height="8"/>
			<rect id="XMLID_3606_" x="63" y="62" class="st0" width="4" height="2"/>
			<rect id="XMLID_3605_" x="64" y="53" class="st0" width="2" height="2"/>
			<rect id="XMLID_3604_" x="63" y="48" class="st0" width="4" height="2"/>
			<rect id="XMLID_2897_" x="64" y="64" class="st0" width="2" height="2"/>
		</g>
	</g>
	<rect id="XMLID_3662_" x="78" y="57" class="st0" width="4" height="4"/>
</g>
</svg>
