<svg xmlns="http://www.w3.org/2000/svg" xmlns:xlink="http://www.w3.org/1999/xlink" viewBox="0 0 72 88"><defs><style>.cls-1{fill:none;}.cls-2{fill:#352c2c;}.cls-3{fill:#5a5150;}.cls-4{clip-path:url(#clip-path);}.cls-5{opacity:0.2;}.cls-6{fill:#a39a99;}.cls-7{fill:#c8bebe;}.cls-8{fill:#dd694a;}</style><clipPath id="clip-path"><path class="cls-1" d="M70,44A34,34,0,0,0,51,13.49V4a2,2,0,0,0-2-2H23a2,2,0,0,0-2,2v9.49a34,34,0,0,0,0,61V84a2,2,0,0,0,2,2H49a2,2,0,0,0,2-2V74.51A34,34,0,0,0,70,44Z"/></clipPath></defs><title>toggle down</title><g id="Layer_2" data-name="Layer 2"><g id="hmicons_-_generic" data-name="hmicons - generic"><g id="_Group_" data-name="&lt;Group&gt;"><g id="_Group_2" data-name="&lt;Group&gt;"><path class="cls-2" d="M72,44A36,36,0,0,0,53,12.28V4a4,4,0,0,0-4-4H23a4,4,0,0,0-4,4v8.28a36,36,0,0,0,0,63.45V84a4,4,0,0,0,4,4H49a4,4,0,0,0,4-4V75.72A36,36,0,0,0,72,44Z"/></g><g id="_Group_3" data-name="&lt;Group&gt;"><path class="cls-3" d="M70,44A34,34,0,0,0,51,13.49V4a2,2,0,0,0-2-2H23a2,2,0,0,0-2,2v9.49a34,34,0,0,0,0,61V84a2,2,0,0,0,2,2H49a2,2,0,0,0,2-2V74.51A34,34,0,0,0,70,44Z"/></g><g id="_Clip_Group_" data-name="&lt;Clip Group&gt;"><g class="cls-4"><polygon id="_Path_" data-name="&lt;Path&gt;" class="cls-5" points="18 76 0 44 18 12 54 12 72 44 54 76 18 76"/></g></g><polygon id="_Path_2" data-name="&lt;Path&gt;" class="cls-2" points="20 72 4 44 20 16 52 16 68 44 52 72 20 72"/><polygon id="_Path_3" data-name="&lt;Path&gt;" class="cls-6" points="21 70 6 44 21 18 51 18 66 44 51 70 21 70"/><g id="_Group_4" data-name="&lt;Group&gt;"><path id="_Path_4" data-name="&lt;Path&gt;" class="cls-5" d="M36,69A25,25,0,1,1,61,44,25,25,0,0,1,36,69Z"/><path id="_Path_5" data-name="&lt;Path&gt;" class="cls-2" d="M36,65A21,21,0,1,1,57,44,21,21,0,0,1,36,65Z"/><circle id="_Path_6" data-name="&lt;Path&gt;" class="cls-7" cx="36" cy="44" r="19"/><circle id="_Path_7" data-name="&lt;Path&gt;" class="cls-2" cx="36" cy="44" r="11"/><circle id="_Path_8" data-name="&lt;Path&gt;" class="cls-8" cx="36" cy="44" r="9"/><path id="_Compound_Path_" data-name="&lt;Compound Path&gt;" class="cls-5" d="M36,35a9,9,0,1,0,9,9A9,9,0,0,0,36,35Zm0,16a7,7,0,1,1,7-7A7,7,0,0,1,36,51Z"/><path id="_Compound_Path_2" data-name="&lt;Compound Path&gt;" class="cls-2" d="M36,27A17,17,0,1,0,53,44,17,17,0,0,0,36,27Zm0,32A15,15,0,1,1,51,44,15,15,0,0,1,36,59Z"/><g id="_Group_5" data-name="&lt;Group&gt;"><path id="_Path_9" data-name="&lt;Path&gt;" class="cls-2" d="M36,76c-3.86,0-8-3.14-8-7l1-22a7,7,0,0,1,14,0l1,22C44,72.86,39.86,76,36,76Z"/><path id="_Path_10" data-name="&lt;Path&gt;" class="cls-7" d="M42,69c0,2.76-3.24,5-6,5h0c-2.76,0-6-2.24-6-5l1-22a5,5,0,0,1,5-5h0a5,5,0,0,1,5,5Z"/></g></g><g id="_Group_6" data-name="&lt;Group&gt;"><rect id="_Rectangle_" data-name="&lt;Rectangle&gt;" class="cls-2" x="27" y="76" width="12" height="6"/><rect id="_Rectangle_2" data-name="&lt;Rectangle&gt;" class="cls-2" x="41" y="76" width="4" height="6"/></g><g id="_Group_7" data-name="&lt;Group&gt;"><rect id="_Rectangle_3" data-name="&lt;Rectangle&gt;" class="cls-2" x="33" y="4" width="12" height="6" transform="translate(78 14) rotate(180)"/><rect id="_Rectangle_4" data-name="&lt;Rectangle&gt;" class="cls-2" x="27" y="4" width="4" height="6" transform="translate(58 14) rotate(180)"/></g></g></g></g></svg>