<svg id="Layer_1" enable-background="new 0 0 511.683 511.683" height="512" viewBox="0 0 511.683 511.683" width="512" xmlns="http://www.w3.org/2000/svg"><g><g><path d="m154.24 395.108 181.036-127.13 17.24 24.551-146.075 102.579z" fill="#e3eaee"/><path d="m357.443 395.108-181.036-127.13-17.241 24.551 146.076 102.579z" fill="#ced9e1"/></g><g><path d="m154.24 133.554 181.036 127.131 17.24-24.551-146.075-102.58z" fill="#e3eaee"/><path d="m357.443 133.554-181.036 127.131-17.241-24.551 146.076-102.58z" fill="#ced9e1"/></g><path d="m441.841 394.975v45.37c0 14.22-11.52 25.74-25.74 25.74h-320.52c-14.22 0-25.74-11.52-25.74-25.74v-45.37z" fill="#72bbff"/><path d="m441.841 394.975v45.37c0 14.22-11.52 25.74-25.74 25.74h-34c14.22 0 25.74-11.52 25.74-25.74v-45.37z" fill="#009af6"/><g><path d="m69.841 103.554h372v30h-372z" fill="#72bbff"/><path d="m411.841 103.554h30v30h-30z" fill="#009af6"/></g><g fill="#fff"><circle cx="157.312" cy="466.087" r="38.348"/><circle cx="354.371" cy="466.087" r="38.348"/></g><g><g><circle cx="144.841" cy="265.647" fill="#6b717d" r="30"/></g><g><circle cx="368.443" cy="265.647" fill="#6b717d" r="30"/></g></g></g><g><path d="m441.841 71.935c9.916-.307 9.909-14.696 0-15h-12.5v-22h12.5c9.916-.307 9.909-14.696 0-15h-12.5v-12.5c-.307-9.916-14.696-9.909-15 0v12.5h-40v-12.5c-.307-9.916-14.696-9.909-15 0v12.5h-207v-12.5c-.307-9.916-14.696-9.909-15 0v12.5h-40v-12.5c-.307-9.916-14.696-9.909-15 0v12.5h-12.5c-9.916.307-9.909 14.696 0 15h12.5v22h-12.5c-9.916.307-9.909 14.696 0 15h12.5v24.12h-12.5c-4.143 0-7.5 3.358-7.5 7.5v30c0 4.142 3.357 7.5 7.5 7.5h82.028l64.821 45.52-61.826 43.417c-23.564-8.105-49.568 10.63-49.124 35.656-.557 26.055 27.776 44.97 51.586 34.754l59.364 41.688-64.635 45.389h-82.214c-4.143 0-7.5 3.358-7.5 7.5v45.37c0 18.328 14.911 33.239 33.239 33.239h16.496c9.329 50.813 81.158 50.777 90.468 0h106.591c9.329 50.814 81.159 50.777 90.469 0h16.496c18.328 0 33.239-14.911 33.239-33.239v-45.37c0-4.142-3.357-7.5-7.5-7.5h-82.214l-64.635-45.389 59.365-41.688c23.813 10.208 52.14-8.695 51.585-34.755.446-25.02-25.561-43.767-49.123-35.656l-61.826-43.417 64.82-45.519h82.029c4.143 0 7.5-3.358 7.5-7.5v-30c0-4.142-3.357-7.5-7.5-7.5h-12.5v-24.12zm-67.5-37h40v22h-40zm0 37h40v24.12h-40zm-222-37h207v22h-207zm-55 0h40v22h-40zm0 37h40v24.12h-40zm80.63 69.119h26.1l38.72 27.191-13.05 9.164zm52.201 0h51.339l-25.669 18.026zm-86.932 147.092c-12.406 0-22.5-10.093-22.5-22.5 1.131-29.808 43.873-29.8 45 0 0 12.407-10.094 22.5-22.5 22.5zm86.501 63.107 13.05 9.164-38.535 27.061h-26.1zm26.1 18.329 25.484 17.896h-50.968zm-98.53 127.353c-17.01 0-30.848-13.838-30.848-30.848 1.551-40.867 60.151-40.856 61.695 0 .001 17.009-13.837 30.848-30.847 30.848zm200.124-94.326c.469 0 .935-.044 1.394-.131h75.512v37.87c0 10.057-8.182 18.239-18.239 18.239h-16.501c-1.366-8.234-4.962-15.993-10.459-22.385-2.701-3.141-7.437-3.496-10.577-.795-3.141 2.701-3.496 7.437-.796 10.577 17.147 19.626 2.701 51.145-23.399 50.951-40.871-1.554-40.853-60.151.001-61.696 4.142 0 7.5-3.358 7.5-7.5s-3.357-7.5-7.5-7.5c-22.727 0-41.644 16.622-45.234 38.348h-106.592c-9.329-50.813-81.158-50.777-90.468 0h-16.496c-10.058 0-18.239-8.182-18.239-18.239v-37.87h278.698c.463.088.93.131 1.395.131zm-23.909-15.131h-26.099l-136.899-96.136c3.436-3.647 6.152-7.98 7.916-12.769l18.088 12.702c8.264 5.445 16.569-6.313 8.621-12.275l-20.888-14.669 71.577-50.264 71.577 50.264-71.577 50.264-24.525-17.223c-3.392-2.381-8.067-1.561-10.448 1.828-2.381 3.39-1.562 8.067 1.827 10.448zm-51.584-54.554-13.05-9.164 64.347-45.187c1.764 4.789 4.48 9.122 7.916 12.769zm86.5-89.778c12.406 0 22.5 10.093 22.5 22.5-1.131 29.808-43.873 29.8-45 0 0-12.406 10.094-22.5 22.5-22.5zm-25.744-4.742c-3.643 3.445-6.598 7.609-8.634 12.265l-65.172-45.766 13.05-9.164zm-165.08 12.265c-2.036-4.656-4.991-8.82-8.634-12.265l138.628-97.35h26.099zm256.723-139.615v15h-357v-15h108.021c9.916-.307 9.909-14.696 0-15h-33.021v-24.12h207v24.12h-138.9c-9.916.307-9.909 14.696 0 15z"/><path d="m157.306 458.588c-9.914.306-9.911 14.695 0 15 9.914-.306 9.912-14.695 0-15z"/><path d="m354.376 458.588c-9.914.306-9.911 14.695 0 15 9.913-.306 9.911-14.695 0-15z"/><path d="m368.436 273.148c9.914-.306 9.911-14.695 0-15-9.913.307-9.911 14.696 0 15z"/><path d="m143.236 258.148c-9.914.306-9.911 14.695 0 15 9.914-.306 9.911-14.695 0-15z"/></g></svg>