<svg id="Layer_1" enable-background="new 0 0 512 512" height="512" viewBox="0 0 512 512" width="512" xmlns="http://www.w3.org/2000/svg"><g><path d="m216 291.118h80v141.331h-80z" fill="#e3eaee"/><path d="m266 291.118h30v141.331h-30z" fill="#ced9e1"/><path d="m504.5 152.91v94.08h-497v-94.08c0-11.88 8.42-22.09 20.09-24.34l83.41-16.12 34.51-90.55c3.31-8.67 11.62-14.4 20.9-14.4h179.18c9.28 0 17.59 5.73 20.9 14.4l34.51 90.55 4.4.85 52.15 10.08 26.86 5.19c11.67 2.25 20.09 12.46 20.09 24.34z" fill="#ffa07a"/><path d="m405.4 113.3h-36.9l-34.51-90.54c-2.3-6.02-7.56-12.11-13.68-15.26h25.28c9.28 0 17.59 5.73 20.9 14.4l34.51 90.55z" fill="#ff7d43"/><path d="m504.5 152.91v94.08h-30v-100.1c0-10.77-6.93-20.18-16.95-23.51l26.86 5.19c11.67 2.25 20.09 12.46 20.09 24.34z" fill="#ff7d43"/><g fill="#fff"><ellipse cx="113.881" cy="246.988" rx="39.577" ry="39.581"/><ellipse cx="398.119" cy="246.988" rx="39.577" ry="39.581"/><g><path d="m339.5 37.655h-98.5v75.661h127.5z"/><path d="m143.5 113.316h67.5v-75.661h-38.5z"/></g></g><g><path d="m434.5 470.24v34.26h-357v-34.26c0-20.87 16.92-37.78 37.78-37.78h281.44c20.86 0 37.78 16.91 37.78 37.78z" fill="#72bbff"/><path d="m434.5 470.24v34.26h-30v-34.26c0-20.87-16.92-37.78-37.78-37.78h30c20.86 0 37.78 16.91 37.78 37.78z" fill="#009af6"/></g><path d="m188.674 246.988h134.652v44.13h-134.652z" fill="#6b717d"/><path d="m293.326 246.988h30v44.13h-30z" fill="#47505e" transform="matrix(-1 0 0 -1 616.652 538.106)"/></g><g><path d="m485.836 121.203-79.314-15.328-33.026-86.649c-4.384-11.5-15.596-19.226-27.901-19.226h-36.508c-9.916.307-9.909 14.696 0 15h36.508c6.124 0 11.703 3.845 13.884 9.568l34.513 90.55c.924 2.425 3.037 4.2 5.585 4.692l83.413 16.12c8.118 1.569 14.01 8.71 14.01 16.979v2.999h-20.435c-9.916.307-9.909 14.696 0 15h20.435v68.58h-52.402c-9.416-52.446-83.563-52.409-92.958 0h-191.28c-9.416-52.446-83.563-52.409-92.958 0h-52.402v-68.58h20.435c9.916-.307 9.909-14.696 0-15h-20.435v-2.999c0-8.27 5.892-15.411 14.01-16.979l83.413-16.12c2.548-.493 4.661-2.268 5.585-4.692l34.513-90.55c2.181-5.723 7.761-9.568 13.884-9.568h108.508c9.916-.307 9.909-14.696 0-15h-108.508c-12.305 0-23.518 7.726-27.901 19.226l-33.026 86.649-79.315 15.328c-15.16 2.93-26.163 16.264-26.163 31.707v94.079c0 4.142 3.358 7.5 7.5 7.5h59.902c9.416 52.446 83.563 52.409 92.958 0h20.813v36.63c0 4.142 3.358 7.5 7.5 7.5h19.827v126.331h-93.217c-24.969-.001-45.283 20.314-45.283 45.285v26.765h-22.5c-9.916.307-9.909 14.696 0 15h63.109c9.916-.307 9.909-14.696 0-15h-25.609v-26.765c0-16.7 13.585-30.287 30.283-30.287h281.435c16.698 0 30.283 13.586 30.283 30.287v26.765h-281.653c-9.916.307-9.909 14.696 0 15h319.152c9.916-.307 9.909-14.696 0-15h-22.5v-26.765c0-24.971-20.314-45.287-45.283-45.287h-93.217v-29.563c-.307-9.916-14.696-9.909-15 0v29.563h-65v-126.33h65v62.376c.307 9.916 14.696 9.909 15 0v-62.376h19.826c4.142 0 7.5-3.358 7.5-7.5v-36.63h20.813c9.416 52.446 83.563 52.409 92.958 0h59.903c4.142 0 7.5-3.358 7.5-7.5v-94.078c0-15.443-11.003-28.777-26.164-31.707zm-371.955 157.866c-17.688 0-32.077-14.392-32.077-32.081 1.613-42.501 62.547-42.49 64.154 0 0 17.69-14.39 32.081-32.077 32.081zm201.945 4.549h-119.652v-29.13h119.652zm82.293-4.549c-17.687 0-32.077-14.392-32.077-32.081 1.613-42.502 62.548-42.49 64.154 0 0 17.69-14.39 32.081-32.077 32.081z"/><path d="m374.68 117.565c1.399-2.035 1.708-4.628.824-6.934l-29-75.661c-1.112-2.901-3.897-4.816-7.003-4.816h-98.501c-4.142 0-7.5 3.358-7.5 7.5v75.661c0 4.142 3.358 7.5 7.5 7.5h127.5c2.469.001 4.781-1.215 6.18-3.25zm-126.18-11.749v-60.661h85.843l23.25 60.661z"/><path d="m172.5 30.155c-3.106 0-5.892 1.915-7.003 4.816l-29 75.661c-.884 2.306-.576 4.899.824 6.934 1.399 2.035 3.71 3.25 6.18 3.25h67.499c4.142 0 7.5-3.358 7.5-7.5v-75.661c0-4.142-3.358-7.5-7.5-7.5zm31 75.661h-49.093l23.25-60.661h25.843z"/><path d="m241 135.646c-9.916.307-9.909 14.696 0 15h27.652c9.916-.307 9.909-14.696 0-15z"/><path d="m398.113 239.489c-9.914.306-9.911 14.695 0 15 9.914-.306 9.912-14.695 0-15z"/><path d="m113.883 239.489c-9.914.306-9.911 14.695 0 15 9.914-.306 9.912-14.695 0-15z"/></g></svg>