<svg id="Layer_1" enable-background="new 0 0 512 512" height="512" viewBox="0 0 512 512" width="512" xmlns="http://www.w3.org/2000/svg"><g><g fill="#6b717d"><path d="m471 228.39v17.57h-430v-17.57c0-13.73 11.13-24.87 24.87-24.87h380.26c13.74 0 24.87 11.14 24.87 24.87z"/><path d="m471 365.98v77.57c0 13.73-11.13 24.87-24.87 24.87h-380.26c-13.74 0-24.87-11.14-24.87-24.87v-77.57z"/></g><g fill="#47505e"><path d="m471 228.39v17.57h-30v-17.57c0-13.73-11.13-24.87-24.87-24.87h30c13.74 0 24.87 11.14 24.87 24.87z"/><path d="m471 365.98v77.57c0 13.73-11.13 24.87-24.87 24.87h-30c13.74 0 24.87-11.14 24.87-24.87v-77.57z"/></g><g><path d="m7.5 245.961h497v120.017h-497z" fill="#72bbff"/><path d="m471 245.961h33.5v120.017h-33.5z" fill="#009af6"/><g><ellipse cx="68.5" cy="305.97" fill="#6b717d" rx="15" ry="15.002"/><ellipse cx="131.891" cy="305.97" fill="#ff6c6c" rx="15" ry="15.002"/><ellipse cx="195.283" cy="305.97" fill="#009af6" rx="15" ry="15.002"/></g></g><g fill="#ced9e1"><path d="m84.685 468.419h30v36.081h-30z"/><path d="m397.315 468.419h30v36.081h-30z"/></g><path d="m428.03 176.97-21.56 26.55h-117.87c5.9-7.24 9.44-16.48 9.44-26.55 0-23.22-18.82-42.05-42.04-42.05s-42.04 18.83-42.04 42.05c0 10.07 3.54 19.31 9.44 26.55h-117.87l-21.56-26.55 21.56-26.55-11.23-32.31 29.37-17.54.54-34.2 33.59-6.45 12.17-31.98 33.77 5.41 22.39-25.85 29.87 16.68 29.87-16.68 22.39 25.85 5.5-.88 28.28-4.52 12.16 31.97 33.59 6.45.54 34.2 29.37 17.54-11.23 32.31z" fill="#e3eaee"/><g fill="#ced9e1"><path d="m406.47 150.42 21.56 26.55-21.56 26.55h-30l21.56-26.55-21.56-26.55 11.23-32.31-29.37-17.54-.54-34.2-33.59-6.45-10.44-27.45 28.28-4.52 12.16 31.97 33.59 6.45.54 34.2 29.37 17.54z"/><path d="m314.16 176.97c0 9.57-2.31 18.59-6.4 26.55h-51.76c14.66 0 26.55-11.89 26.55-26.55s-11.89-26.55-26.55-26.55-26.55 11.89-26.55 26.55 11.89 26.55 26.55 26.55h-51.76c-4.09-7.96-6.4-16.98-6.4-26.55 0-32.12 26.04-58.16 58.16-58.16s58.16 26.04 58.16 58.16z"/></g></g><g><path d="m504.5 238.462h-26v-10.072c0-17.849-14.521-32.37-32.37-32.37h-23.906l11.63-14.322c2.237-2.755 2.237-6.701 0-9.456l-18.927-23.307 9.856-28.366c1.167-3.36-.186-7.077-3.239-8.901l-25.781-15.394-.479-30.024c-.057-3.551-2.597-6.576-6.084-7.246l-29.482-5.662-10.673-28.064c-1.264-3.323-4.686-5.304-8.196-4.74l-29.649 4.749-19.662-22.697c-2.327-2.687-6.223-3.371-9.326-1.638l-26.212 14.638-26.212-14.638c-3.104-1.733-6.998-1.049-9.326 1.638l-19.662 22.697-29.649-4.748c-3.509-.563-6.933 1.417-8.196 4.74l-10.673 28.064-29.482 5.662c-3.488.669-6.028 3.694-6.084 7.246l-.479 30.024-25.781 15.395c-3.054 1.824-4.407 5.541-3.239 8.901l9.855 28.366-18.927 23.307c-2.237 2.755-2.237 6.701 0 9.456l11.63 14.322h-23.905c-17.849 0-32.37 14.521-32.37 32.37v10.071h-26c-4.142 0-7.5 3.358-7.5 7.5v120.017c0 4.142 3.358 7.5 7.5 7.5h26v70.071c0 17.849 14.521 32.37 32.37 32.37h11.315v28.579c0 4.142 3.358 7.5 7.5 7.5h30c4.142 0 7.5-3.358 7.5-7.5v-28.582h194.023c9.916-.307 9.909-14.696 0-15h-250.338c-9.578 0-17.37-7.792-17.37-17.37v-70.071h415v70.071c0 9.578-7.792 17.37-17.37 17.37h-95.27c-9.916.307-9.909 14.696 0 15h38.956v28.582c0 4.142 3.358 7.5 7.5 7.5h30c4.142 0 7.5-3.358 7.5-7.5v-28.582h11.315c17.849 0 32.37-14.521 32.37-32.37v-70.071h26c4.142 0 7.5-3.358 7.5-7.5v-120.015c-.001-4.142-3.359-7.5-7.501-7.5zm-397.315 237.456v21.082h-15v-21.082zm312.63 21.082h-15v-21.082h15zm-326.186-320.029 17.721-21.822c1.637-2.016 2.115-4.736 1.262-7.189l-9.222-26.543 24.124-14.405c2.23-1.332 3.612-3.723 3.654-6.32l.449-28.106 27.603-5.301c2.554-.49 4.671-2.269 5.596-4.699l9.991-26.27 27.744 4.443c2.562.412 5.155-.533 6.855-2.495l18.398-21.239 24.54 13.705c2.272 1.269 5.041 1.269 7.313 0l24.54-13.705 18.399 21.24c1.699 1.962 4.292 2.906 6.855 2.495l27.744-4.443 9.991 26.27c.924 2.431 3.042 4.209 5.596 4.699l27.603 5.301.448 28.106c.042 2.597 1.424 4.988 3.654 6.32l24.124 14.405-9.222 26.542c-.853 2.453-.375 5.173 1.262 7.189l17.721 21.822-15.47 19.05h-84.064c8.599-27.588-2.824-58.897-27.34-74.299-3.483-2.242-8.124-1.237-10.366 2.246s-1.237 8.124 2.246 10.366c20.31 12.645 28.8 39.705 19.583 61.687h-18.754c15.297-22.039-1.181-53.36-28.207-53.099-27.022-.261-43.506 31.065-28.206 53.099h-18.754c-13.733-32.484 11.628-70.245 46.961-69.714 4.142 0 7.499-3.358 7.499-7.5s-3.358-7.5-7.5-7.5c-43.288-.682-75.959 43.553-62.837 84.715h-84.064zm143.325 0c0-10.504 8.544-19.05 19.046-19.05 25.233.958 25.226 37.146 0 38.1-10.502 0-19.046-8.546-19.046-19.05zm260.046 181.507h-482v-105.016h86.078c9.916-.307 9.909-14.696 0-15h-52.578v-10.072c0-9.578 7.792-17.37 17.37-17.37h138.217c.099.003.198.002.297 0h103.232c.099.002.198.003.297 0h138.217c9.578 0 17.37 7.792 17.37 17.37v10.071h-327.509c-9.916.307-9.909 14.696 0 15h361.009z"/><path d="m68.5 283.468c-12.407 0-22.5 10.094-22.5 22.502 1.131 29.811 43.874 29.803 45 0 0-12.408-10.093-22.502-22.5-22.502zm0 30.004c-9.912-.315-9.909-14.69 0-15.004 9.912.315 9.909 14.69 0 15.004z"/><path d="m109.391 305.97c0 12.408 10.093 22.502 22.5 22.502 29.808-1.131 29.8-43.877 0-45.004-12.407 0-22.5 10.094-22.5 22.502zm30 0c-.315 9.914-14.687 9.912-15 0 .315-9.914 14.687-9.912 15 0z"/><path d="m195.283 328.472c12.407 0 22.5-10.094 22.5-22.502-1.131-29.811-43.874-29.803-45 0 0 12.408 10.093 22.502 22.5 22.502zm0-30.004c9.912.315 9.909 14.69 0 15.004-9.912-.315-9.91-14.691 0-15.004z"/><path d="m129.402 441.198h253.195c9.916-.307 9.909-14.696 0-15h-253.195c-9.916.308-9.909 14.696 0 15z"/><path d="m129.402 408.198h253.195c9.916-.307 9.909-14.696 0-15h-253.195c-9.916.308-9.909 14.696 0 15z"/><g><path d="m411.503 298.471c-9.914.306-9.911 14.695 0 15 9.914-.306 9.911-14.695 0-15z"/><path d="m448.503 298.471c-9.914.306-9.911 14.695 0 15 9.914-.306 9.911-14.695 0-15z"/></g></g></svg>