<svg id="Layer_1" enable-background="new 0 0 512 512" height="512" viewBox="0 0 512 512" width="512" xmlns="http://www.w3.org/2000/svg"><g><path d="m7.5 357.501h303.152v70.457h-303.152z" fill="#e3eaee"/><path d="m279.709 169.327h30.943v188.174h-30.943z" fill="#edba75"/><path d="m279.71 67.126v290.37h-272.21v-290.37c0-11.7 9.48-21.18 21.18-21.18h229.85c11.7 0 21.18 9.48 21.18 21.18z" fill="#6b717d"/><path d="m279.71 67.126v290.37h-30v-290.37c0-11.7-9.48-21.18-21.18-21.18h30c11.7 0 21.18 9.48 21.18 21.18z" fill="#47505e"/><path d="m504.5 308.056v119.9h-193.85v-288.63h130.39c16.57 0 30 13.43 30 30h-23.25l55.04 130.5c1.1 2.6 1.67 5.4 1.67 8.23z" fill="#f3d6ae"/><path d="m504.5 308.056v119.9h-32.7v-119.76l-56.71-138.87h23.26c0-16.57-13.44-30-30-30h32.69c16.57 0 30 13.43 30 30h-23.25l55.04 130.5c1.1 2.6 1.67 5.4 1.67 8.23z" fill="#edba75"/><g fill="#fff"><path d="m461.773 283.642-46.684-114.315h-74.437v114.315z"/><g><circle cx="99.364" cy="427.958" r="38.348"/><circle cx="412.636" cy="427.958" r="38.348"/></g></g></g><g><path d="m340.436 306.28c-9.916.307-9.909 14.696 0 15h17.087c9.916-.307 9.909-14.696 0-15z"/><path d="m195.989 316.257v-229.652c-.307-9.916-14.696-9.909-15 0v229.652c.307 9.916 14.696 9.909 15 0z"/><path d="m151.104 316.257v-229.652c-.307-9.916-14.696-9.909-15 0v229.652c.308 9.916 14.697 9.909 15 0z"/><path d="m106.22 316.257v-229.652c-.307-9.916-14.696-9.909-15 0v229.652c.307 9.916 14.696 9.909 15 0z"/><path d="m46.335 86.898v229.652c.307 9.916 14.696 9.909 15 0v-229.652c-.307-9.917-14.696-9.909-15 0z"/><path d="m240.874 316.55v-229.652c-.307-9.916-14.696-9.909-15 0v229.652c.307 9.916 14.696 9.909 15 0z"/><path d="m468 287.825c1.394-2.074 1.662-4.705.718-7.018l-46.686-114.316c-1.152-2.821-3.896-4.665-6.943-4.665h-74.437c-4.143 0-7.5 3.358-7.5 7.5v114.316c0 4.142 3.357 7.5 7.5 7.5h121.122c2.498 0 4.832-1.244 6.226-3.317zm-119.848-110.998h14.636v99.316h-14.636zm29.636 99.315v-99.316h32.263l40.56 99.316z"/><path d="m509.745 296.91-50.654-120.083h11.953c4.143 0 7.5-3.358 7.5-7.5 0-20.677-16.822-37.5-37.5-37.5h-63.108v-15.88c-.307-9.916-14.696-9.909-15 0v15.88h-15v-28.663c-.307-9.916-14.696-9.909-15 0v28.663h-22.283c-4.143 0-7.5 3.358-7.5 7.5v22.5h-15.943v-94.7c0-15.814-12.866-28.681-28.681-28.681h-160.442c-9.916.307-9.909 14.696 0 15h160.441c7.544 0 13.681 6.137 13.681 13.681v282.874h-257.209v-282.874c0-7.543 6.137-13.681 13.681-13.681h34.406c9.916-.307 9.909-14.696 0-15h-34.406c-15.815.001-28.681 12.867-28.681 28.681v360.83c0 4.142 3.357 7.5 7.5 7.5h46.63c9.33 50.813 81.158 50.777 90.468 0h27.532c9.916-.307 9.909-14.696 0-15h-27.532c-9.33-50.813-81.158-50.777-90.468 0h-39.13v-55.457h288.152v55.457h-96.195c-9.916.307-9.909 14.696 0 15h160.445c9.329 50.812 81.159 50.777 90.469 0h46.629c4.143 0 7.5-3.358 7.5-7.5v-28.75c-.307-9.916-14.696-9.909-15 0v21.25h-39.129c-9.329-50.813-81.159-50.776-90.469 0h-49.249v-175.945c-.307-9.916-14.696-9.909-15 0v105.489h-15.943v-173.174h15.943v32.859c.307 9.916 14.696 9.909 15 0v-62.859h122.892c9.778 0 18.119 6.269 21.215 15h-14.472c-5.201-.15-9.07 5.682-6.91 10.415l55.048 130.5c.714 1.69 1.075 3.479 1.075 5.316v18.223h-16.867c-9.916.307-9.909 14.696 0 15h16.866v22.623c.307 9.916 14.696 9.909 15 0v-55.846c0-3.853-.759-7.604-2.255-11.148zm-410.381 100.2c17.01 0 30.848 13.838 30.848 30.848-1.551 40.867-60.151 40.856-61.695 0 0-17.01 13.837-30.848 30.847-30.848zm313.273 0c17.01 0 30.848 13.838 30.848 30.848-1.551 40.868-60.151 40.856-61.696 0-.001-17.01 13.838-30.848 30.848-30.848z"/><g><path d="m99.36 420.452c-9.914.306-9.911 14.695 0 15 9.914-.307 9.912-14.696 0-15z"/><path d="m412.641 420.461c-9.914.306-9.911 14.695 0 15 9.913-.306 9.911-14.695 0-15z"/></g></g></svg>