<svg id="Layer_1" enable-background="new 0 0 512 512" height="512" viewBox="0 0 512 512" width="512" xmlns="http://www.w3.org/2000/svg"><g><path d="m156.609 358.082h198.783v68.114h-198.783z" fill="#e3eaee"/><path d="m331 358.082h24.391v68.114h-24.391z" fill="#ced9e1"/><path d="m397.2 23.641v351.37c0 8.91-7.23 16.14-16.15 16.14h-250.1c-8.92 0-16.15-7.23-16.15-16.14v-351.37c0-8.91 7.23-16.14 16.15-16.14h250.1c8.92 0 16.15 7.23 16.15 16.14z" fill="#e3eaee"/><path d="m397.2 23.641v351.37c0 8.91-7.23 16.14-16.15 16.14h-30c8.92 0 16.15-7.23 16.15-16.14v-351.37c0-8.91-7.23-16.14-16.15-16.14h30c8.92 0 16.15 7.23 16.15 16.14z" fill="#ced9e1"/><path d="m397.2 325.011v50c0 8.91-7.23 16.14-16.15 16.14h-250.1c-8.92 0-16.15-7.23-16.15-16.14v-50z" fill="#6b717d"/><g><g><path d="m221.989 457.978c-7.396 0-13.391-5.995-13.391-13.391v-18.391h26.783v18.391c0 7.396-5.996 13.391-13.392 13.391z" fill="#6b717d"/></g><g><path d="m290.011 457.978c7.396 0 13.391-5.995 13.391-13.391v-18.391h-26.782v18.391c0 7.396 5.995 13.391 13.391 13.391z" fill="#6b717d"/></g></g><path d="m256 203.634s25.582 23.403 25.582 46.806c0 14.128-11.453 25.582-25.582 25.582s-25.582-11.453-25.582-25.582c0-23.403 25.582-46.806 25.582-46.806z" fill="#72bbff"/><path d="m397.2 325.011v50c0 8.91-7.23 16.14-16.15 16.14h-30c8.92 0 16.15-7.23 16.15-16.14v-50z" fill="#47505e"/><g><path d="m311.25 101.978c0 30.51-24.74 55.25-55.25 55.25-5.2 0-10.23-.72-15-2.06-23.22-6.54-40.25-27.88-40.25-53.19s17.03-46.65 40.25-53.19c4.77-1.34 9.8-2.06 15-2.06 30.51 0 55.25 24.74 55.25 55.25z" fill="#fff"/><path d="m311.25 101.978c0 30.51-24.74 55.25-55.25 55.25-5.2 0-10.23-.72-15-2.06 23.22-6.54 40.25-27.88 40.25-53.19s-17.03-46.65-40.25-53.19c4.77-1.34 9.8-2.06 15-2.06 30.51 0 55.25 24.74 55.25 55.25z" fill="#e3eaee"/></g></g><g><path d="m307.858 122.516c4.022.99 8.085-1.467 9.075-5.49 10.038-38.762-20.808-78.331-60.933-77.796-34.6-.001-62.75 28.15-62.75 62.752-.375 53.766 65.105 82.899 104.73 46.642 7.163-6.864-2.471-17.554-10.038-11.147-30.15 27.584-79.984 5.415-79.692-35.496 0-26.33 21.42-47.751 47.75-47.751 30.536-.407 54.013 29.713 46.368 59.211-.99 4.022 1.468 8.085 5.49 9.075z"/><path d="m250.697 96.678-15.984 15.984c-2.929 2.929-2.929 7.678 0 10.607s7.678 2.929 10.606 0l15.984-15.984c2.929-2.929 2.929-7.678 0-10.607-2.928-2.928-7.678-2.928-10.606 0z"/><path d="m250.938 198.107c-1.144 1.046-28.02 25.938-28.02 52.342 0 18.242 14.84 33.083 33.082 33.083 18.241 0 33.082-14.841 33.082-33.083 0-26.404-26.875-51.295-28.019-52.342-2.867-2.622-7.26-2.622-10.125 0zm23.144 52.342c-2.637 34.762-66.203 17.552-18.073-36.09 7.56 8.415 18.073 23.01 18.073 36.09z"/><path d="m420.217 252.444h-15.521v-228.802c0-13.036-10.606-23.642-23.642-23.642h-178.88c-9.916.307-9.909 14.696 0 15.001h178.88c4.765 0 8.642 3.877 8.642 8.641v293.881h-267.392v-293.881c0-4.765 3.876-8.641 8.642-8.641h36.489c9.916-.307 9.909-14.696 0-15.001h-36.489c-13.036 0-23.642 10.606-23.642 23.642v23.185h-15.521c-9.916.307-9.909 14.696 0 15.001h15.521v20.001h-15.521c-9.916.307-9.909 14.696 0 15.001h15.521v278.195c0 13.036 10.605 23.642 23.642 23.642h18.163v27.544c0 4.142 3.358 7.5 7.5 7.5h44.489v10.892c0 8.878 5.566 16.479 13.392 19.5v12.829c0 11.065-9.002 20.068-20.067 20.068h-18.803c-9.916.307-9.909 14.696 0 15.001h18.803c19.336 0 35.067-15.732 35.067-35.068v-12.829c7.825-3.02 13.391-10.622 13.391-19.5v-10.892h26.239v10.892c0 8.878 5.566 16.479 13.391 19.5v12.829c0 19.337 15.731 35.068 35.066 35.068h18.803c9.916-.307 9.909-14.696 0-15.001h-18.803c-11.064 0-20.066-9.002-20.066-20.068v-12.829c7.825-3.02 13.391-10.622 13.391-19.5v-10.892h44.489c4.142 0 7.5-3.358 7.5-7.5v-27.544h18.163c13.036 0 23.642-10.606 23.642-23.642v-107.58h15.521c9.916-.308 9.909-14.697 0-15.001zm-192.337 192.159c-.205 7.771-11.58 7.765-11.783 0v-10.892h11.783zm68.022 0c-.205 7.771-11.58 7.765-11.782 0v-10.892h11.782zm93.794-69.578c0 4.765-3.876 8.641-8.642 8.641h-151.663c-9.916.307-9.909 14.696 0 15.001h118.5v20.044h-183.783v-20.044h30.979c9.916-.307 9.909-14.696 0-15.001h-64.141c-4.765 0-8.642-3.877-8.642-8.641v-42.502h267.392z"/><path d="m153.284 365.6c9.914-.306 9.911-14.695 0-15-9.914.306-9.912 14.695 0 15z"/><path d="m358.714 365.6c9.914-.306 9.911-14.695 0-15-9.914.306-9.911 14.695 0 15z"/></g></svg>