<svg id="Layer_1" enable-background="new 0 0 512 512" height="512" viewBox="0 0 512 512" width="512" xmlns="http://www.w3.org/2000/svg"><g><path d="m245.043 147.959v158.74h-30v-154.7h-122.28v-30h126.32c14.34 0 25.96 11.63 25.96 25.96z" fill="#e3eaee"/><path d="m245.043 147.959v158.74h-30v-158.74c0-14.33-11.62-25.96-25.96-25.96h30c14.34 0 25.96 11.63 25.96 25.96z" fill="#ced9e1"/><path d="m185.044 306.699h94.665v44.853h-94.665z" fill="#6b717d"/><path d="m380.652 99.24c-8.284 0-15 6.716-15 15v19h30v-19c0-8.284-6.715-15-15-15z" fill="#f3d6ae"/><g><path d="m7.504 351.553h303.152v70.457h-303.152z" fill="#e3eaee"/><path d="m279.713 163.379h30.943v188.174h-30.943z" fill="#009af6"/><path d="m504.504 302.108v119.9h-193.85v-288.63h130.39c16.57 0 30 13.43 30 30h-23.25l55.04 130.5c1.1 2.6 1.67 5.4 1.67 8.23z" fill="#72bbff"/><path d="m504.504 302.108v119.9h-32.7v-119.76l-56.71-138.87h23.26c0-16.57-13.44-30-30-30h32.69c16.57 0 30 13.43 30 30h-23.25l55.04 130.5c1.1 2.6 1.67 5.4 1.67 8.23z" fill="#009af6"/><g fill="#fff"><path d="m461.777 277.694-46.685-114.316h-74.436v114.316z"/><g><circle cx="99.368" cy="422.009" r="38.348"/><circle cx="412.639" cy="422.009" r="38.348"/></g></g></g><path d="m96.563 136.999c0 16.57-13.43 30-30 30-4.08 0-7.96-.81-11.5-2.29-10.86-4.5-18.5-15.21-18.5-27.71 0-12.49 7.64-23.2 18.5-27.71 3.54-1.48 7.42-2.29 11.5-2.29 16.57 0 30 13.44 30 30z" fill="#6b717d"/><path d="m96.563 136.999c0 16.57-13.43 30-30 30-4.08 0-7.96-.81-11.5-2.29 10.86-4.5 18.5-15.21 18.5-27.71 0-12.49-7.64-23.2-18.5-27.71 3.54-1.48 7.42-2.29 11.5-2.29 16.57 0 30 13.44 30 30z" fill="#47505e"/></g><g><path d="m340.435 300.331c-9.916.307-9.909 14.696 0 15h17.087c9.916-.307 9.909-14.696 0-15z"/><path d="m467.999 281.876c1.393-2.074 1.662-4.705.718-7.018l-46.685-114.315c-1.152-2.821-3.896-4.665-6.943-4.665h-74.437c-4.142 0-7.5 3.358-7.5 7.5v114.315c0 4.142 3.358 7.5 7.5 7.5h121.121c2.498.001 4.833-1.244 6.226-3.317zm-105.211-11.682h-14.636v-99.315h14.636zm15 0v-99.315h32.262l40.559 99.315z"/><path d="m504.5 365.454c4.142 0 7.5-3.358 7.5-7.5v-55.846c0-3.85-.759-7.6-2.255-11.147l-50.655-120.083h11.953c4.142 0 7.5-3.358 7.5-7.5 0-20.677-16.822-37.5-37.5-37.5h-37.891v-11.638c-1.135-29.815-43.876-29.794-45 0v11.638h-47.5c-4.142 0-7.5 3.358-7.5 7.5v22.5h-23.443c-4.142 0-7.5 3.358-7.5 7.5v135.821h-19.666v-151.239c0-18.448-15.009-33.457-33.457-33.457h-54.522c-9.916.307-9.909 14.696 0 15h54.522c10.177 0 18.457 8.28 18.457 18.457v151.239h-15v-147.196c0-4.142-3.358-7.5-7.5-7.5h-111.732c1.001-4.819 1.001-10.181 0-15h26.385c9.916-.307 9.909-14.696 0-15h-33.149c-21.263-28.482-67.404-13.506-67.482 22.501 0 18.109 12.904 33.262 30 36.746v62.477c0 4.142 3.358 7.5 7.5 7.5 9.648 0 17.497 7.849 17.497 17.497 0 9.647-7.849 17.497-17.497 17.497-9.647 0-17.497-7.849-17.497-17.497 0-4.142-3.358-7.5-7.5-7.5s-7.5 3.358-7.5 7.5c0 17.918 14.578 32.497 32.497 32.497 38.602-.925 44.483-54.56 7.5-64.12v-55.851c9.133-1.861 17.07-7.053 22.482-14.246h110.997v139.696h-22.5c-4.142 0-7.5 3.358-7.5 7.5v37.353h-170.044c-4.142 0-7.5 3.358-7.5 7.5v70.457c0 4.142 3.358 7.5 7.5 7.5h46.63c9.329 50.813 81.159 50.778 90.469 0h27.532c9.916-.307 9.909-14.696 0-15h-27.532c-9.33-50.813-81.159-50.777-90.469 0h-39.13v-55.457h288.152v55.457h-96.195c-9.916.307-9.909 14.696 0 15h160.445c9.329 50.813 81.158 50.777 90.468 0h46.63c4.142 0 7.5-3.358 7.5-7.5v-28.75c-.307-9.916-14.696-9.909-15 0v21.25h-39.13c-9.33-50.813-81.158-50.777-90.468 0h-49.25v-175.947c-.307-9.916-14.696-9.909-15 0v105.489h-15.943v-173.174h15.943v32.859c.307 9.916 14.696 9.909 15 0v-62.859h122.892c9.778 0 18.12 6.27 21.215 15h-14.472c-5.201-.15-9.07 5.682-6.91 10.415l55.048 130.498c.714 1.692 1.076 3.481 1.076 5.317v18.223h-16.868c-9.916.307-9.909 14.696 0 15h16.867v22.623c0 4.142 3.358 7.5 7.5 7.5zm-437.935-205.951c-12.407 0-22.5-10.093-22.5-22.5 1.131-29.808 43.874-29.8 45 0 0 12.407-10.093 22.5-22.5 22.5zm32.799 231.658c17.009 0 30.848 13.838 30.848 30.848-1.551 40.868-60.151 40.857-61.696 0 0-17.01 13.838-30.848 30.848-30.848zm172.845-47.109h-79.666v-29.853h79.666zm140.427 47.109c17.009 0 30.848 13.838 30.848 30.848-1.551 40.868-60.151 40.857-61.695 0-.001-17.01 13.837-30.848 30.847-30.848zm-24.484-265.421h-15v-11.5c.316-9.914 14.687-9.907 15 0z"/><path d="m380.652 76.938c4.142 0 7.5-3.358 7.5-7.5v-17.609c-.307-9.916-14.696-9.909-15 0v17.609c0 4.142 3.358 7.5 7.5 7.5z"/><path d="m344.333 86.052c2.61 3.241 7.341 3.723 10.545 1.137 3.226-2.598 3.735-7.319 1.137-10.545l-11.044-13.714c-2.598-3.226-7.319-3.735-10.545-1.137s-3.735 7.319-1.137 10.545z"/><path d="m406.426 87.189c3.204 2.586 7.935 2.104 10.545-1.137l11.044-13.714c2.598-3.226 2.089-7.947-1.137-10.545-3.227-2.598-7.948-2.088-10.545 1.137l-11.044 13.714c-2.599 3.225-2.089 7.947 1.137 10.545z"/><path d="m99.36 429.503c9.914-.306 9.911-14.695 0-15-9.913.306-9.911 14.695 0 15z"/><path d="m412.64 429.503c9.914-.306 9.911-14.695 0-15-9.913.306-9.911 14.695 0 15z"/><path d="m66.56 129.503c-9.914.306-9.911 14.695 0 15 9.914-.306 9.911-14.695 0-15z"/></g></svg>