<svg id="Layer_1" enable-background="new 0 0 512 512" height="512" viewBox="0 0 512 512" width="512" xmlns="http://www.w3.org/2000/svg"><g><g fill="#6b717d"><path d="m106 468.419h30v36.081h-30z"/><path d="m376 468.419h30v36.081h-30z"/></g><path d="m436 76.69v391.73h-360v-444.05c0-9.31 7.56-16.87 16.88-16.87h65.35c6.99 0 13.26 4.32 15.76 10.85l15.85 41.47h229.28c9.32 0 16.88 7.55 16.88 16.87z" fill="#f3d6ae"/><path d="m436 76.69v391.73h-34.87v-391.73c0-9.32-7.56-16.87-16.88-16.87h34.87c9.32 0 16.88 7.55 16.88 16.87z" fill="#edba75"/><path d="m436 76.69v83.6h-360v-135.92c0-9.31 7.56-16.87 16.88-16.87h65.35c6.99 0 13.26 4.32 15.76 10.85l15.85 41.47h229.28c9.32 0 16.88 7.55 16.88 16.87z" fill="#6b717d"/><path d="m436 76.69v83.6h-34.87v-83.6c0-9.32-7.56-16.87-16.88-16.87h34.87c9.32 0 16.88 7.55 16.88 16.87z" fill="#47505e"/><path d="m110.913 95.033h145.087v30h-145.087z" fill="#72bbff"/><circle cx="386.218" cy="110.033" fill="#ff6c6c" r="15"/><g fill="#6b717d"><path d="m286.565 359.815c0 16.881-13.685 30.565-30.565 30.565s-30.565-13.685-30.565-30.565h-91.565c-12.703 0-23 10.297-23 23v51.13h290.261v-51.13c0-12.703-10.297-23-23-23z"/><path d="m286.565 250.815c0 16.881-13.685 30.565-30.565 30.565s-30.565-13.685-30.565-30.565h-91.565c-12.703 0-23 10.297-23 23v51.13h290.261v-51.13c0-12.703-10.297-23-23-23z"/></g></g><g><path d="m419.125 52.315h-42.864c-9.916.307-9.909 14.696 0 15h42.864c5.169 0 9.375 4.206 9.375 9.375v76.101h-221.804c-9.916.307-9.909 14.696 0 15h221.804v293.128h-88.544c-9.916.307-9.909 14.696 0 15h28.544v28.581c0 4.142 3.357 7.5 7.5 7.5h30c4.143 0 7.5-3.358 7.5-7.5v-28.582h22.5c4.143 0 7.5-3.358 7.5-7.5v-391.728c0-13.44-10.934-24.375-24.375-24.375zm-20.625 444.685h-15v-21.082h15z"/><path d="m305.478 460.918h-221.978v-293.127h88.935c9.916-.307 9.909-14.696 0-15h-88.935v-128.416c0-5.169 4.206-9.375 9.375-9.375h65.354c3.86 0 7.379 2.422 8.757 6.027l15.852 41.466c1.11 2.904 3.897 4.822 7.006 4.822h150.981c9.916-.307 9.909-14.696 0-15h-145.819l-7.001-18.315h247.995c9.916-.307 9.909-14.696 0-15h-253.73l-1.273-3.33c-3.584-9.373-12.734-15.67-22.768-15.67h-65.354c-13.441 0-24.375 10.935-24.375 24.375v444.043c0 4.142 3.358 7.5 7.5 7.5h22.5v28.582c0 4.142 3.358 7.5 7.5 7.5h30c4.142 0 7.5-3.358 7.5-7.5v-28.582h161.978c9.916-.307 9.909-14.696 0-15zm-176.978 36.082h-15v-21.082h15z"/><path d="m110.913 87.532c-4.142 0-7.5 3.358-7.5 7.5v30c0 4.142 3.358 7.5 7.5 7.5h145.087c4.143 0 7.5-3.358 7.5-7.5v-30c0-4.142-3.357-7.5-7.5-7.5zm137.587 30h-130.087v-15h130.087z"/><path d="m408.717 110.032c0-12.407-10.094-22.5-22.5-22.5-29.808 1.131-29.8 43.873 0 45 12.406 0 22.5-10.093 22.5-22.5zm-30 0c.315-9.912 14.687-9.909 15 0-.315 9.912-14.687 9.91-15 0z"/><path d="m378.13 352.315h-91.565c-4.143 0-7.5 3.358-7.5 7.5-1.161 30.561-44.976 30.546-46.13 0 0-4.142-3.357-7.5-7.5-7.5h-91.565c-16.818 0-30.5 13.682-30.5 30.5v51.13c0 4.142 3.358 7.5 7.5 7.5h290.26c4.143 0 7.5-3.358 7.5-7.5v-51.13c0-16.818-13.682-30.5-30.5-30.5zm15.5 74.13h-275.261v-43.63c0-8.547 6.953-15.5 15.5-15.5h84.808c8.735 40.505 65.926 40.478 74.646 0h84.808c8.547 0 15.5 6.953 15.5 15.5v43.63z"/><path d="m408.63 273.815c0-16.818-13.683-30.5-30.5-30.5h-91.565c-4.143 0-7.5 3.358-7.5 7.5-1.161 30.561-44.976 30.546-46.13 0 0-4.142-3.357-7.5-7.5-7.5h-91.565c-16.818 0-30.5 13.682-30.5 30.5v51.13c0 4.142 3.358 7.5 7.5 7.5h39c9.916-.307 9.909-14.696 0-15h-31.5v-43.63c0-8.547 6.953-15.5 15.5-15.5h84.808c8.735 40.505 65.926 40.478 74.646 0h84.808c8.547 0 15.5 6.953 15.5 15.5v43.63h-208.415c-9.916.307-9.909 14.696 0 15h215.913c4.143 0 7.5-3.358 7.5-7.5z"/><path d="m343.435 198.8h-174.87c-9.916.307-9.909 14.696 0 15h174.87c9.916-.307 9.909-14.696 0-15z"/><path d="m288.939 110.031c.306 9.914 14.695 9.911 15 0-.306-9.914-14.696-9.912-15 0z"/><path d="m323.759 110.031c.306 9.914 14.695 9.911 15 0-.306-9.914-14.695-9.912-15 0z"/></g></svg>