<svg id="Layer_1" enable-background="new 0 0 512.005 512.005" height="512" viewBox="0 0 512.005 512.005" width="512" xmlns="http://www.w3.org/2000/svg"><g><path d="m390.394 184.95h30.609v140h-30.609z" fill="#d6eaec"/><path d="m421.003 232.722h30.609v44.456h-30.609z" fill="#6b717d"/><path d="m174.502 456.461 20-98.337h97l20 98.337z" fill="#6b717d"/><path d="m311.502 456.461-20-98.337h-30l20 98.337z" fill="#47505e"/><g><path d="m371.502 504.505v-34.063c0-7.72-6.26-13.98-13.98-13.98h-229.04c-7.72 0-13.98 6.26-13.98 13.98v34.063z" fill="#d6eaec"/><path d="m371.502 504.505v-34.063c0-7.72-6.26-13.98-13.98-13.98h-30c7.72 0 13.98 6.26 13.98 13.98v34.063z" fill="#b5d9dd"/></g><path d="m390.392 151.555v206.79h-289.24c-22.51 0-40.76-18.25-40.76-40.76v-125.26c0-22.52 18.25-40.77 40.76-40.77z" fill="#72bbff"/><path d="m360.392 151.555h30v206.79h-30z" fill="#009af6"/><path d="m125.432 151.555v206.79h-24.28c-22.51 0-40.76-18.25-40.76-40.76v-125.26c0-22.52 18.25-40.77 40.76-40.77z" fill="#6b717d"/><path d="m316.925 218.756s25.582 23.403 25.582 46.806c0 14.128-11.453 25.582-25.582 25.582s-25.582-11.453-25.582-25.582c0-23.402 25.582-46.806 25.582-46.806z" fill="#d6eaec"/><g><path d="m298.252 62.755c0 30.51-24.74 55.25-55.25 55.25-5.2 0-10.23-.72-15-2.06-23.22-6.54-40.25-27.88-40.25-53.19s17.03-46.65 40.25-53.19c4.77-1.34 9.8-2.06 15-2.06 30.51 0 55.25 24.74 55.25 55.25z" fill="#fff"/><path d="m298.252 62.755c0 30.51-24.74 55.25-55.25 55.25-5.2 0-10.23-.72-15-2.06 23.22-6.54 40.25-27.88 40.25-53.19s-17.03-46.65-40.25-53.19c4.77-1.34 9.8-2.06 15-2.06 30.51 0 55.25 24.74 55.25 55.25z" fill="#d6eaec"/></g></g><g><path d="m237.699 57.452-15.983 15.984c-2.929 2.929-2.929 7.678 0 10.606 2.93 2.929 7.677 2.929 10.607 0l15.983-15.984c6.794-7.23-3.385-17.398-10.607-10.606z"/><path d="m238.39 177.733h-77.992c-9.916.307-9.909 14.696 0 15h77.992c9.916-.307 9.909-14.696 0-15z"/><path d="m238.39 212.592h-77.992c-9.916.307-9.909 14.696 0 15h77.992c9.916-.307 9.909-14.696 0-15z"/><path d="m238.39 247.451h-77.992c-9.916.307-9.909 14.696 0 15h77.992c9.916-.307 9.909-14.697 0-15z"/><path d="m238.39 282.309h-77.992c-9.916.307-9.909 14.696 0 15h77.992c9.916-.307 9.909-14.696 0-15z"/><path d="m238.39 317.168h-77.992c-9.916.307-9.909 14.696 0 15h77.992c9.916-.307 9.909-14.696 0-15z"/><path d="m451.611 225.222h-23.108v-40.271c0-4.142-3.357-7.5-7.5-7.5h-23.108v-25.892c0-4.142-3.357-7.5-7.5-7.5h-139.893v-19.002c12.784-1.532 24.816-6.959 34.48-15.662 3.077-2.772 3.325-7.514.554-10.592-2.774-3.08-7.517-3.326-10.593-.554-30.148 27.584-79.983 5.415-79.691-35.494 0-26.329 21.421-47.749 47.75-47.749 30.535-.407 54.013 29.711 46.368 59.208-.99 4.022 1.468 8.085 5.489 9.075 4.025.99 8.085-1.468 9.075-5.49 10.04-38.763-20.808-78.327-60.933-77.793-78.63 2.313-84.807 113.638-7.5 125.054v19h-134.346c-26.611 0-48.261 21.65-48.261 48.261v10.032c.307 9.916 14.696 9.909 15 0v-10.033c0-18.34 14.921-33.261 33.261-33.261h16.782v191.783h-16.782c-18.34 0-33.261-14.921-33.261-33.261v-80.489c-.307-9.916-14.696-9.909-15 0v80.489c0 26.611 21.649 48.261 48.261 48.261h84.125l-16.905 83.12h-39.896c-11.842 0-21.476 9.634-21.476 21.476v26.568h-22.5c-9.916.307-9.909 14.696 0 15h317c9.916-.307 9.909-14.696 0-15h-22.5v-26.568c0-11.842-9.634-21.476-21.476-21.476h-39.896l-16.905-83.12h89.668c4.143 0 7.5-3.358 7.5-7.5v-25.891h23.108c4.143 0 7.5-3.358 7.5-7.5v-40.272h23.108c4.143 0 7.5-3.358 7.5-7.5v-44.457c.001-4.142-3.357-7.5-7.499-7.5zm-149.288 223.739h-62.933c-9.916.307-9.909 14.696 0 15h118.137c3.57 0 6.476 2.905 6.476 6.476v26.568h-242v-26.568c0-3.571 2.905-6.476 6.476-6.476h75.492c9.916-.307 9.909-14.696 0-15h-20.289l16.905-83.12h84.832zm111.179-131.51h-15.608v-15.533c-.307-9.916-14.696-9.909-15 0v48.924h-249.957v-191.783h249.957v108.25c.307 9.916 14.696 9.909 15 0v-74.858h15.608zm30.609-47.772h-15.608v-29.457h15.608z"/><path d="m321.987 213.223c-2.865-2.622-7.26-2.622-10.125 0-1.145 1.047-28.019 25.937-28.019 52.34 0 18.241 14.84 33.082 33.081 33.082s33.082-14.84 33.082-33.082c0-26.403-26.876-51.294-28.019-52.34zm-5.063 70.421c-9.97 0-18.081-8.111-18.081-18.082 0-13.019 10.519-27.638 18.081-36.079 7.562 8.441 18.082 23.061 18.082 36.079 0 9.971-8.111 18.082-18.082 18.082z"/></g></svg>