<svg id="Layer_1" enable-background="new 0 0 512.005 512.005" height="512" viewBox="0 0 512.005 512.005" width="512" xmlns="http://www.w3.org/2000/svg"><g><circle cx="253.154" cy="175.192" fill="#6b717d" r="126.587"/><path d="m420.842 175.194c0 44.38-17.25 84.74-45.4 114.74v54.59h-244.57v-54.59c-28.01-29.83-45.22-69.92-45.4-114.02-.37-86.23 63.55-157.05 147.06-167.17 6.38-.78 12.88-1.2 19.48-1.24 93.14-.62 168.83 74.7 168.83 167.69z" fill="#ff6c6c"/><path d="m420.842 175.194c0 44.38-17.25 84.74-45.4 114.74v54.59h-41.1v-54.59c28.15-30 45.4-70.36 45.4-114.74 0-85.68-64.25-156.36-147.21-166.45 6.38-.78 12.88-1.2 19.48-1.24 93.14-.62 168.83 74.7 168.83 167.69z" fill="#ff4141"/><circle cx="253.154" cy="175.192" fill="#fff" r="126.587"/><path d="m7.502 424.504h497v60h-497z" fill="#d6eaec"/><path d="m475.611 424.504h28.891v60h-28.891z" fill="#b5d9dd"/><path d="m193.154 344.526h120v159.978h-120z" fill="#6b717d"/><path d="m281.344 344.526h31.811v159.978h-31.811z" fill="#47505e"/><circle cx="253.154" cy="175.192" fill="#6b717d" r="15"/></g><g><path d="m307.497 289.8c1.996 3.63 6.556 4.954 10.186 2.958 120.471-67.091 73.498-250.744-64.531-251.652-177.64 6.747-177.59 261.455.004 268.173 10.817 0 21.583-1.294 32-3.845 4.023-.985 6.486-5.045 5.501-9.069-.986-4.023-5.048-6.489-9.069-5.5-73.537 18.951-148.532-39.567-147.52-115.674 5.983-157.758 232.206-157.733 238.173.002 0 43.448-23.676 83.46-61.787 104.421-3.629 1.996-4.953 6.557-2.957 10.186z"/><path d="m504.502 477.004h-183.847v-45h183.848c9.916-.307 9.909-14.696 0-15h-183.848v-24.892h14.087c9.916-.307 9.909-14.696 0-15h-14.087v-25.087h54.784c4.143 0 7.5-3.358 7.5-7.5v-51.661c102.088-112.114 20.66-294.288-130.976-292.856-47.885.319-92.397 19.397-125.339 53.72-2.868 2.989-2.771 7.736.218 10.604 2.988 2.868 7.735 2.771 10.604-.218 58.833-63.963 168.156-65.273 228.598-2.571 61.122 58.278 62.828 162.843 3.926 223.257-1.305 1.39-2.031 3.226-2.031 5.133v47.092h-229.569v-47.092c0-1.907-.727-3.743-2.031-5.133-50.127-51.779-57.515-137.34-17.62-197.07 2.256-3.474 1.269-8.119-2.205-10.375-3.473-2.254-8.118-1.27-10.375 2.205-18.575 28.601-28.316 61.932-28.171 96.389.185 43.429 16.286 84.828 45.402 116.916v51.661c0 4.142 3.357 7.5 7.5 7.5h54.784v25.087h-14.088c-9.916.307-9.909 14.696 0 15h14.088v24.892h-178.152c-9.916.307-9.909 14.696 0 15h178.152v45h-178.152c-9.916.307-9.909 14.696 0 15h178.152v12.5c0 4.142 3.357 7.5 7.5 7.5h42.696c9.916-.307 9.909-14.696 0-15h-35.196v-104.892h105v104.892h-35.197c-9.916.307-9.909 14.696 0 15h42.697c4.143 0 7.5-3.358 7.5-7.5v-12.5h183.848c9.917-.308 9.909-14.697 0-15.001zm-303.847-99.891v-25.087h105v25.087z"/><path d="m304.23 124.117c-2.93-2.929-7.678-2.929-10.607 0l-30.773 30.773c-18.898-9.152-39.147 11.11-29.997 29.998l-15.18 15.179c-2.93 2.929-2.93 7.677-.001 10.606s7.678 2.929 10.606 0l15.18-15.179c18.898 9.153 39.149-11.108 29.998-29.997l30.773-30.773c2.93-2.929 2.93-7.678.001-10.607zm-51.075 58.575c-9.912-.315-9.909-14.687 0-15 9.911.315 9.909 14.687 0 15z"/><path d="m285.655 236.787c0-4.142-3.357-7.5-7.5-7.5h-50c-9.916.307-9.909 14.696 0 15h50c4.142 0 7.5-3.358 7.5-7.5z"/><path d="m238.155 259.287c-9.916.307-9.909 14.696 0 15h30c9.916-.307 9.909-14.696 0-15z"/><g><path d="m161.616 167.682c-9.914.306-9.911 14.706 0 15.011 9.913-.306 9.911-14.706 0-15.011z"/><path d="m173.876 121.912c-9.914.306-9.911 14.706 0 15.011 9.914-.306 9.912-14.706 0-15.011z"/><path d="m207.386 88.412c-9.914.306-9.911 14.706 0 15.011 9.914-.306 9.911-14.706 0-15.011z"/><path d="m253.156 76.142c-9.914.306-9.911 14.706 0 15.011 9.913-.306 9.911-14.706 0-15.011z"/><path d="m298.926 88.412c-9.914.306-9.911 14.706 0 15.011 9.914-.306 9.911-14.706 0-15.011z"/><path d="m339.936 129.418c-.306-9.921-14.695-9.919-15 0 .306 9.921 14.695 9.919 15 0z"/><path d="m344.696 167.682c-9.914.306-9.911 14.706 0 15.011 9.913-.306 9.911-14.706 0-15.011z"/><path d="m227.346 461.843c-9.914.306-9.911 14.706 0 15.011 9.914-.307 9.911-14.706 0-15.011z"/><path d="m278.346 461.843c-9.914.306-9.911 14.706 0 15.011 9.914-.307 9.911-14.706 0-15.011z"/></g></g></svg>