<svg id="Layer_1" enable-background="new 0 0 511.935 511.935" height="512" viewBox="0 0 511.935 511.935" width="512" xmlns="http://www.w3.org/2000/svg"><g><path d="m93.475 388.38h217.546v70h-217.546z" fill="#d6eaec"/><path d="m282.911 388.38h28.11v70h-28.11z" fill="#b5d9dd"/><path d="m460.077 303.127h-115.15v59.418h115.15c16.406 0 29.707-13.301 29.707-29.709 0-16.407-13.3-29.709-29.707-29.709z" fill="#d6eaec"/><path d="m344.93 286.907v114.97h-337.43v-114.97c0-11.96 9.69-21.65 21.65-21.65h121.99v-154.7c0-11.96 9.69-21.65 21.65-21.65h105.57c11.01 0 20.27 8.27 21.51 19.21l17.82 157.14h5.59c11.95 0 21.65 9.69 21.65 21.65z" fill="#ffa07a"/><path d="m344.93 286.907v114.97h-34.78v-114.97c0-11.96-9.7-21.65-21.65-21.65h-5.59l-17-141.87-1.82-15.27c-1.24-10.94-10.5-19.21-21.51-19.21h35.78c11.01 0 20.27 8.27 21.51 19.21l17.82 157.14h5.59c11.95 0 21.65 9.69 21.65 21.65z" fill="#ff7d43"/><path d="m136.12 326.207v75.67h-128.62v-102.02h102.27c14.55 0 26.35 11.8 26.35 26.35z" fill="#ff7d43"/><path d="m265.912 123.384h-79.775v141.869h96.774z" fill="#fff"/><path d="m37.497 444.88h329.501v60h-329.501z" fill="#47505e"/><path d="m227.659 54.88c-8.284 0-15 6.716-15 15v19.025h30v-19.025c0-8.284-6.716-15-15-15z" fill="#f3d6ae"/><g fill="#d6eaec"><ellipse cx="37.497" cy="474.88" rx="29.997" ry="30"/><ellipse cx="257.758" cy="474.88" rx="29.997" ry="30"/><ellipse cx="146.738" cy="474.88" rx="29.997" ry="30"/><ellipse cx="366.998" cy="474.88" rx="29.997" ry="30"/></g></g><g><path d="m259.257 130.77 7.237 60.351c.493 4.109 4.226 7.054 8.339 6.548 4.113-.492 7.047-4.222 6.555-8.332l-8.029-66.953c-.452-3.766-3.65-6.602-7.447-6.602h-79.776c-4.142 0-7.5 3.354-7.5 7.493v141.747c0 4.139 3.358 7.493 7.5 7.493h96.774c2.145 0 4.187-.917 5.61-2.52 1.423-1.602 2.092-3.737 1.837-5.865l-5.013-41.803c-.493-4.109-4.228-7.051-8.339-6.548-4.113.492-7.047 4.222-6.555 8.332l4.008 33.417h-80.822v-126.758z"/><path d="m79.31 363.76v-32.711c-.307-9.908-14.696-9.9-15 0v32.711c.306 9.907 14.696 9.9 15 0z"/><path d="m49.812 363.76v-32.711c-.307-9.908-14.696-9.9-15 0v32.711c.307 9.907 14.696 9.9 15 0z"/><path d="m108.807 363.76v-32.711c-.307-9.908-14.696-9.9-15 0v32.711c.307 9.907 14.696 9.9 15 0z"/><path d="m504.5 325.054h-7.976c-.911-4.43-2.613-8.575-4.952-12.281l6.511-6.506c2.929-2.926 2.929-7.671 0-10.597-2.929-2.925-7.678-2.926-10.606.001l-6.285 6.28c-4.035-2.789-8.646-4.802-13.615-5.823v-7.97c-.307-9.908-14.696-9.9-15 0v7.211h-16.541v-7.211c-.307-9.908-14.696-9.9-15 0v7.211h-16.541v-7.211c-.307-9.908-14.696-9.9-15 0v7.211h-37.069v-8.714c0-15.688-12.477-28.518-28.037-29.105l-17.066-150.37c-1.672-14.734-14.125-25.846-28.964-25.846h-28.2v-11.515c-1.135-29.79-43.876-29.767-45 0v11.515h-32.369c-16.074 0-29.15 13.067-29.15 29.127v31.299c.307 9.908 14.696 9.9 15 0v-31.299c0-7.797 6.348-14.14 14.15-14.14h105.569c7.204 0 13.248 5.394 14.06 12.547l17.819 156.999c.43 3.788 3.637 6.65 7.452 6.65h5.586c7.803 0 14.15 6.343 14.15 14.139v107.381h-60.812c-9.916.307-9.909 14.683 0 14.987h26.906v27.976h-202.545v-27.976h141.177c9.916-.307 9.909-14.683 0-14.987h-98.533v-68.111c0-18.648-15.183-33.818-33.846-33.818h-94.773v-5.452c0-7.796 6.348-14.139 14.15-14.139h121.989c4.142 0 7.5-3.355 7.5-7.493v-88.641c-.307-9.908-14.696-9.9-15 0v81.147h-63.829v-15.867c-.307-9.908-14.696-9.9-15 0v15.867h-14.998v-28.638c-.307-9.908-14.696-9.9-15 0v28.638h-5.662c-16.073 0-29.15 13.066-29.15 29.126v51.561c.307 9.908 14.696 9.9 15 0v-31.121h94.773c10.392 0 18.846 8.448 18.846 18.831v68.111h-113.619v-20.895c-.307-9.908-14.696-9.9-15 0v28.388c0 4.139 3.358 7.493 7.5 7.493h78.475v27.976h-48.478c-49.689 1.89-49.652 73.063 0 74.935h329.501c49.69-1.89 49.652-73.063 0-74.935h-48.477v-27.976h26.406c4.142 0 7.5-3.354 7.5-7.493v-31.806h37.069v7.212c.307 9.908 14.696 9.9 15 0v-7.212h16.541v7.212c.307 9.908 14.696 9.9 15 0v-7.212h16.541v7.212c.307 9.908 14.696 9.9 15 0v-7.97c4.921-1.01 9.491-2.995 13.498-5.743l6.402 6.396c2.929 2.927 7.677 2.927 10.606.001s2.929-7.671 0-10.597l-6.587-6.582c2.378-3.736 4.107-7.922 5.028-12.4h7.976c9.915-.308 9.908-14.684-.001-14.988zm-284.341-243.72v-11.515c.316-9.906 14.687-9.898 15 0v11.515zm-95.919 393.133c0-12.395 10.092-22.48 22.498-22.48 29.804 1.131 29.796 43.835 0 44.961-12.405 0-22.498-10.085-22.498-22.481zm-7.482 22.481h-49.281c9.922-12.483 9.921-32.479 0-44.961h49.281c-9.922 12.483-9.921 32.479 0 44.961zm59.959-44.961h51.061c-9.922 12.483-9.921 32.479 0 44.961h-51.061c9.922-12.483 9.921-32.48 0-44.961zm58.543 22.48c0-12.395 10.092-22.48 22.498-22.48 29.805 1.131 29.797 43.835 0 44.961-12.405 0-22.498-10.085-22.498-22.481zm52.478-22.48h49.281c-9.922 12.483-9.921 32.479 0 44.961h-49.281c9.922-12.483 9.921-32.48 0-44.961zm-272.738 22.48c0-12.395 10.092-22.48 22.497-22.48 29.805 1.131 29.797 43.835 0 44.961-12.405 0-22.497-10.085-22.497-22.481zm374.496 0c0 12.395-10.092 22.48-22.498 22.48-29.804-1.131-29.796-43.835 0-44.961 12.405.001 22.498 10.086 22.498 22.481zm-37.069-164.11h107.65c29.427 1.119 29.405 43.272 0 44.38h-107.65z"/><path d="m186.136 308.963h32.41c9.916-.307 9.909-14.683 0-14.987h-32.41c-9.916.307-9.909 14.683 0 14.987z"/><path d="m227.659 32.528c4.142 0 7.5-3.355 7.5-7.493v-17.607c-.307-9.908-14.696-9.9-15 0v17.607c0 4.139 3.358 7.493 7.5 7.493z"/><path d="m191.337 41.64c2.61 3.239 7.34 3.722 10.545 1.14 3.227-2.594 3.738-7.311 1.141-10.536l-11.044-13.713c-2.597-3.223-7.317-3.734-10.545-1.14-3.227 2.594-3.738 7.311-1.141 10.536z"/><path d="m253.434 42.78c3.205 2.582 7.936 2.099 10.545-1.14l11.044-13.713c2.597-3.225 2.086-7.941-1.141-10.536-3.228-2.595-7.949-2.083-10.545 1.14l-11.044 13.713c-2.597 3.225-2.086 7.942 1.141 10.536z"/><g><path d="m37.501 466.967c-9.914.306-9.911 14.695 0 15 9.914-.306 9.911-14.695 0-15z"/><path d="m146.741 466.967c-9.914.306-9.911 14.695 0 15 9.913-.306 9.911-14.695 0-15z"/><path d="m257.761 466.967c-9.914.306-9.911 14.695 0 15 9.913-.306 9.911-14.695 0-15z"/><path d="m367.001 466.967c-9.914.306-9.911 14.695 0 15 9.914-.306 9.911-14.695 0-15z"/><path d="m460.081 325.051c-9.914.306-9.911 14.695 0 15 9.914-.307 9.911-14.696 0-15z"/></g></g></svg>