<svg id="Layer_1" enable-background="new 0 0 512 512" height="512" viewBox="0 0 512 512" width="512" xmlns="http://www.w3.org/2000/svg"><g><g><path d="m7.503 361.304h303.152v70.457h-303.152z" fill="#d6eaec"/><path d="m504.503 311.859v119.9h-193.85v-288.63h130.39c16.57 0 30 13.43 30 30h-23.25l55.04 130.5c1.1 2.6 1.67 5.4 1.67 8.23z" fill="#72bbff"/><path d="m504.503 311.859v119.9h-32.7v-119.76l-56.71-138.87h23.26c0-16.57-13.44-30-30-30h32.69c16.57 0 30 13.43 30 30h-23.25l55.04 130.5c1.1 2.6 1.67 5.4 1.67 8.23z" fill="#009af6"/><g fill="#fff"><path d="m461.777 287.445-46.685-114.315h-74.436v114.315z"/><g><circle cx="99.367" cy="431.76" r="38.348"/><circle cx="412.639" cy="431.76" r="38.348"/></g></g></g><path d="m7.5 136.579h78.543v80h-78.543z" fill="#6b717d"/><path d="m310.65 87.093v178.97l-31.13 11.74-48.41 18.26h-129l-64.61-60v-118.97l64.61-60h129l48.41 18.26z" fill="#f3d6ae"/><path d="m310.65 87.093v178.97l-31.13 11.74v-202.45z" fill="#edba75"/><g fill="#b5d9dd"><path d="m49.607 247.305-42.104 42.104v71.895h30v-59.469l34.101-34.102z"/><path d="m152.09 296.064h30v65.239h-30z"/></g></g><g><path d="m340.435 310.082c-9.916.307-9.909 14.697 0 15h17.087c9.916-.307 9.909-14.697 0-15z"/><path d="m467.999 291.627c1.394-2.074 1.662-4.705.718-7.019l-46.685-114.315c-1.152-2.82-3.896-4.664-6.943-4.664h-74.437c-4.143 0-7.5 3.357-7.5 7.5v114.315c0 4.143 3.357 7.5 7.5 7.5h121.121c2.498 0 4.832-1.244 6.226-3.317zm-119.847-110.998h14.636v99.315h-14.636zm29.636 99.315v-99.315h32.263l40.559 99.315z"/><path d="m509.745 300.712-50.654-120.083h11.952c4.143 0 7.5-3.357 7.5-7.5 0-20.678-16.822-37.5-37.499-37.5h-122.892v-48.534c0-3.121-1.933-5.916-4.854-7.018l-74.69-28.169v-9.829c-.307-9.916-14.697-9.909-15 0v7.516h-49.869c-9.916.307-9.909 14.697 0 15h49.869v223.969h-114v-223.969h29.131c9.916-.307 9.909-14.697 0-15h-29.131v-7.516c-.307-9.916-14.697-9.909-15 0v11.745l-62.212 57.774c-1.528 1.42-2.396 3.411-2.396 5.496v11.984h-22.5c-4.143 0-7.5 3.357-7.5 7.5v80c0 4.143 3.357 7.5 7.5 7.5h22.5v11.984c0 2.085.868 4.076 2.396 5.496l6.4 5.944-36.6 36.601c-1.406 1.409-2.196 3.316-2.196 5.305v142.352c0 4.143 3.357 7.5 7.5 7.5h46.63c9.329 50.813 81.158 50.777 90.468 0h27.532c9.916-.307 9.909-14.697 0-15h-27.532c-9.329-50.814-81.159-50.778-90.469 0h-39.129v-55.457h288.152v55.457h-96.196c-9.916.307-9.909 14.697 0 15h160.446c9.329 50.813 81.158 50.777 90.468 0h46.63c4.143 0 7.5-3.357 7.5-7.5v-28.75c-.307-9.916-14.697-9.909-15 0v21.25h-39.13c-9.329-50.814-81.159-50.778-90.469 0h-49.249v-200.594c-.307-9.916-14.697-9.909-15 0v37.21l-64.544 24.343v-217.28l64.544 24.343v96.818c.307 9.916 14.697 9.909 15 0v-38.472h122.892c9.777 0 18.118 6.27 21.214 15h-14.471c-5.201-.151-9.07 5.683-6.91 10.415l55.047 130.497c.714 1.693 1.076 3.482 1.076 5.318v18.223h-16.868c-9.916.307-9.909 14.697 0 15h16.868v22.623c.307 9.916 14.697 9.909 15 0v-55.846c0-3.847-.759-7.597-2.255-11.146zm-410.381 100.199c17.01 0 30.848 13.839 30.848 30.849-1.55 40.867-60.151 40.856-61.695 0 0-17.01 13.837-30.849 30.847-30.849zm313.272 0c17.01 0 30.848 13.839 30.848 30.849-1.55 40.867-60.151 40.856-61.695 0-.001-17.01 13.837-30.849 30.847-30.849zm-268.049-97.348v50.239h-99.587v-48.862l26.793-26.795 22.815 21.188v11.745c.307 9.916 14.697 9.909 15 0v-7.516h34.979zm-99.587-183.198 49.608-46.07v204.568l-49.608-46.07zm-30 88.714v-65h15v65zm34.796 48.639 10.998 10.213-28.598 28.6c-1.406 1.406-2.196 3.314-2.196 5.303v51.969h-15v-61.288zm109.791 96.085v-50.239h15v50.239zm143.565-76.895v76.895h-113.565v-50.239h34.021v7.516c.307 9.916 14.697 9.909 15 0v-9.829z"/><g><path d="m99.359 424.255c-9.914.306-9.911 14.706 0 15.011 9.914-.306 9.912-14.706 0-15.011z"/><path d="m412.63 424.255c-9.914.306-9.911 14.706 0 15.011 9.913-.306 9.911-14.706 0-15.011z"/></g></g></svg>