<svg id="Layer_1" enable-background="new 0 0 511.869 511.869" height="512" viewBox="0 0 511.869 511.869" width="512" xmlns="http://www.w3.org/2000/svg"><g><path d="m385.674 25.974v367c0 10.05-8.14 18.19-18.19 18.19h-223.18c-10.05 0-18.19-8.14-18.19-18.19v-367c0-10.05 8.14-18.19 18.19-18.19h223.18c10.051 0 18.19 8.14 18.19 18.19z" fill="#f3d6ae"/><path d="m385.674 25.974v367c0 10.05-8.14 18.19-18.19 18.19h-34.78c10.04 0 18.19-8.14 18.19-18.19v-367c0-10.05-8.15-18.19-18.19-18.19h34.78c10.051 0 18.19 8.14 18.19 18.19z" fill="#edba75"/><path d="m350.895 42.634v82.36c0 25.72-20.85 46.57-46.57 46.57h-96.86c-25.72 0-46.57-20.85-46.57-46.57v-82.36z" fill="#fff"/><path d="m350.895 42.634v82.36c0 25.72-20.85 46.57-46.57 46.57h-26c25.72 0 46.57-20.85 46.57-46.57v-82.36z" fill="#d6eaec"/><path d="m255.893 141.169c-16.784 0-30.391 13.607-30.391 30.391h60.782c0-16.785-13.606-30.391-30.391-30.391z" fill="#6b717d"/><path d="m309.075 287.244c0 29.37-23.81 53.18-53.18 53.18-1.38 0-2.75-.05-4.11-.16-27.45-2.1-49.07-25.03-49.07-53.02s21.62-50.92 49.07-53.02c1.36-.11 2.73-.16 4.11-.16 29.37 0 53.18 23.81 53.18 53.18z" fill="#fff"/><path d="m309.075 287.244c0 29.37-23.81 53.18-53.18 53.18-1.38 0-2.75-.05-4.11-.16 19.18-9.92 32.29-29.94 32.29-53.02s-13.11-43.1-32.29-53.02c1.36-.11 2.73-.16 4.11-.16 29.37 0 53.18 23.81 53.18 53.18z" fill="#d6eaec"/><path d="m195.894 380.775h119.998v30.391h-119.998z" fill="#6b717d"/><g><path d="m70.885 219.144v76.01c0 6.19-2.51 11.78-6.56 15.83-4.05 4.06-9.65 6.56-15.83 6.56-4.08 0-7.9-1.09-11.2-3-6.7-3.87-11.2-11.1-11.2-19.39v-76.01z" fill="#ff6c6c"/><path d="m70.885 219.144v76.01c0 6.19-2.51 11.78-6.56 15.83-4.05 4.06-9.65 6.56-15.83 6.56-4.08 0-7.9-1.09-11.2-3 1.7-.98 3.26-2.18 4.64-3.56 4.05-4.05 6.56-9.64 6.56-15.83v-76.01z" fill="#ff4141"/></g><g><path d="m485.772 219.149v76.01c0 6.19-2.51 11.78-6.56 15.83-4.05 4.06-9.65 6.56-15.83 6.56-4.08 0-7.9-1.09-11.2-3-6.7-3.87-11.2-11.1-11.2-19.39v-76.01z" fill="#72bbff"/><path d="m485.772 219.149v76.01c0 6.19-2.51 11.78-6.56 15.83-4.05 4.06-9.65 6.56-15.83 6.56-4.08 0-7.9-1.09-11.2-3 1.7-.98 3.26-2.18 4.64-3.56 4.05-4.05 6.56-9.64 6.56-15.83v-76.01z" fill="#009af6"/></g></g><g><path d="m195.894 35.137h-35c-4.142 0-7.5 3.357-7.5 7.5v82.357c0 29.812 24.253 54.064 54.065 54.064h96.867c29.812 0 54.065-24.253 54.065-54.064v-82.357c0-4.143-3.358-7.5-7.5-7.5h-119.998c-9.916.307-9.909 14.696 0 15h112.499v74.857c0 21.54-17.524 39.064-39.065 39.064h-11.289c-3.745-20.244-25.116-34.454-45.655-29.427l-17.595-20.872c-2.669-3.166-7.401-3.571-10.568-.9-3.167 2.67-3.57 7.401-.9 10.568l14.96 17.746c-7.352 5.486-12.654 13.573-14.531 22.885h-11.289c-21.541 0-39.065-17.524-39.065-39.064v-74.857h27.5c9.915-.307 9.908-14.696-.001-15zm51.526 115.157c.104-.038.208-.079.311-.122 11.737-4.793 26.059 2.167 29.791 13.887h-43.257c2.18-6.271 7.016-11.311 13.155-13.765z"/><path d="m187.391 81.748c.869 4.05 4.854 6.635 8.906 5.76 38.869-8.338 80.323-8.338 119.192 0 3.946.88 8.055-1.683 8.906-5.76.869-4.05-1.71-8.037-5.76-8.906-40.934-8.781-84.552-8.781-125.485 0-4.049.869-6.629 4.856-5.759 8.906z"/><path d="m255.893 204.928c-4.142 0-7.5 3.357-7.5 7.5v14.595c-74.574 11.316-68.383 118.691 7.501 120.904 33.459 0 60.681-27.222 60.681-60.683 0-4.143-3.358-7.5-7.5-7.5s-7.5 3.357-7.5 7.5c0 25.189-20.493 45.683-45.682 45.683-56.048-1.525-62.106-80.309-7.5-90.75v57.277c.307 9.916 14.696 9.909 15 0v-57.266c11.691 1.962 22.347 8.448 29.438 18.171 2.44 3.346 7.132 4.081 10.479 1.641s4.081-7.133 1.64-10.479c-9.911-13.589-25.069-22.416-41.557-24.489v-14.604c0-4.143-3.358-7.5-7.5-7.5z"/><path d="m504.435 245.8h-11.163v-26.651c0-4.143-3.358-7.5-7.5-7.5h-14.895v-15.753c-.307-9.916-14.696-9.909-15 0v15.753h-14.895c-4.142 0-7.5 3.357-7.5 7.5v26.651h-11.162c-9.916.307-9.909 14.696 0 15h11.162v34.352c0 13.895 9.529 25.606 22.395 28.943v87.715c-3.442 109.113-158.79 114.788-170.674 6.855h82.283c14.164 0 25.688-11.523 25.688-25.688v-367.006c0-14.164-11.523-25.688-25.688-25.688h-223.186c-14.164 0-25.688 11.523-25.688 25.688v297.021c.307 9.916 14.696 9.909 15 0v-297.021c0-5.894 4.794-10.687 10.688-10.687h223.187c5.893 0 10.688 4.794 10.688 10.687v367.007c0 5.894-4.794 10.688-10.688 10.688h-44.094v-22.891c0-4.143-3.358-7.5-7.5-7.5h-119.999c-4.142 0-7.5 3.357-7.5 7.5v22.891h-44.094c-5.893 0-10.688-4.794-10.688-10.688v-35.116c-.307-9.916-14.696-9.909-15 0v35.116c0 14.164 11.523 25.688 25.688 25.688h82.365c-11.924 108.011-167.267 102.175-170.673-6.856v-87.715c12.866-3.336 22.395-15.048 22.395-28.943v-34.352h11.163c9.916-.307 9.909-14.696 0-15h-11.163v-26.651c0-4.143-3.358-7.5-7.5-7.5h-14.895v-15.753c-.307-9.916-14.696-9.909-15 0v15.753h-14.895c-4.142 0-7.5 3.357-7.5 7.5v26.651h-11.162c-9.916.307-9.909 14.696 0 15h11.162v34.352c0 13.895 9.529 25.606 22.395 28.943v87.715c4.145 128.969 188.088 134.66 200.715 6.855h28.456c12.675 127.899 196.612 122.016 200.715-6.855v-87.715c12.866-3.336 22.395-15.048 22.395-28.943v-34.352h11.163c9.915-.307 9.908-14.696-.001-15zm-470.838-19.151h29.79v19.151h-29.79zm0 68.503v-34.352h29.79v34.352c-.751 19.738-29.047 19.723-29.79 0zm169.797 108.513v-15.391h104.999v15.391zm274.878-108.513c-.751 19.739-29.046 19.724-29.79 0v-34.352h29.79zm0-49.352h-29.79v-19.151h29.79z"/><path d="m160.893 211.271c9.914-.306 9.911-14.695 0-15-9.914.306-9.912 14.695 0 15z"/><path d="m350.893 196.271c-9.914.306-9.911 14.695 0 15 9.913-.306 9.911-14.696 0-15z"/><path d="m160.893 384.271c9.914-.306 9.911-14.695 0-15-9.914.306-9.912 14.695 0 15z"/><path d="m350.893 369.271c-9.914.306-9.911 14.695 0 15 9.913-.306 9.911-14.696 0-15z"/></g></svg>