<svg id="Layer_1" enable-background="new 0 0 512 512" height="512" viewBox="0 0 512 512" width="512" xmlns="http://www.w3.org/2000/svg"><g><path d="m208 277.3h189.1v80.7h-189.1z" fill="#d6eaec"/><path d="m369.2 277.3h27.9v80.7h-27.9z" fill="#b5d9dd"/><path d="m286 277.3v93.9c0 18.4-14.9 33.3-33.3 33.3h-186.7v-106.8l190-17.5z" fill="#f3d6ae"/><path d="m286 277.3v93.9c0 18.4-14.9 33.3-33.3 33.3h-30c18.4 0 33.3-14.9 33.3-33.3v-91.1z" fill="#edba75"/><path d="m7.5 83.1h496.9v179.7h-496.9z" fill="#ff6c6c"/><path d="m476.6 83.1h27.8v179.7h-27.8z" fill="#ff4141"/><path d="m446 69.6v13.5h-380v-13.5c0-15.9 12.9-28.8 28.8-28.8h322.4c15.9 0 28.8 12.9 28.8 28.8z" fill="#6b717d"/><path d="m446 69.6v13.5h-37v-13.5c0-15.9-12.9-28.8-28.8-28.8h37c15.9 0 28.8 12.9 28.8 28.8z" fill="#47505e"/><path d="m222.1 7.5h67.8v33.3h-67.8z" fill="#d6eaec"/><path d="m258.8 7.5h31.1v33.3h-31.1z" fill="#b5d9dd"/><g fill="#ff4141"><ellipse cx="59.4" cy="140.1" rx="15" ry="15"/><ellipse cx="59.4" cy="205.6" rx="15" ry="15"/></g><path d="m66 262.9h380v34.8h-380z" fill="#6b717d"/><path d="m409 262.9h37v34.8h-37z" fill="#47505e"/><path d="m384.5 434.5h50v69.9h-30z" fill="#6b717d"/><path d="m110 117.6h110.5v110.5h-110.5z" fill="#fff"/><g><path d="m199.2 434.5c0 38.6-31.3 69.9-69.9 69.9-5.5 0-10.9-.6-16-1.8-30.9-7.2-53.9-35-53.9-68.1s23-60.8 53.9-68.1c5.1-1.2 10.5-1.8 16-1.8 38.6-.1 69.9 31.2 69.9 69.9z" fill="#6b717d"/><path d="m199.2 434.5c0 38.6-31.3 69.9-69.9 69.9-5.5 0-10.9-.6-16-1.8 30.9-7.2 53.9-35 53.9-68.1s-23-60.8-53.9-68.1c5.1-1.2 10.5-1.8 16-1.8 38.6-.1 69.9 31.2 69.9 69.9z" fill="#47505e"/><ellipse cx="129.3" cy="434.5" fill="#fff" rx="30" ry="30"/></g><g><path d="m392.4 172.8c0 30.5-24.7 55.2-55.2 55.2-5.2 0-10.2-.7-15-2.1-23.2-6.5-40.2-27.9-40.2-53.2s17-46.6 40.2-53.2c4.8-1.3 9.8-2.1 15-2.1 30.4.2 55.2 24.9 55.2 55.4z" fill="#fff"/><path d="m392.4 172.8c0 30.5-24.7 55.2-55.2 55.2-5.2 0-10.2-.7-15-2.1 23.2-6.5 40.2-27.9 40.2-53.2s-17-46.6-40.2-53.2c4.8-1.3 9.8-2.1 15-2.1 30.4.2 55.2 24.9 55.2 55.4z" fill="#d6eaec"/></g></g><g><path d="m129.3 471.9c20.7 0 37.5-16.8 37.5-37.5-1.9-49.6-73.1-49.6-75 0 0 20.7 16.8 37.5 37.5 37.5zm0-59.9c12.4 0 22.5 10.1 22.5 22.5-1.1 29.8-43.9 29.8-45 0 0-12.4 10.1-22.5 22.5-22.5z"/><path d="m504.5 45.6c-4.1 0-7.5 3.4-7.5 7.5v22.5h-43.5v-6c0-20-16.3-36.3-36.3-36.3h-119.8v-25.8c0-4.1-3.4-7.5-7.5-7.5h-67.8c-4.1 0-7.5 3.4-7.5 7.5v25.8h-57.8c-9.9.3-9.9 14.7 0 15h260.4c11.7 0 21.3 9.5 21.3 21.3v6h-365v-6c0-11.7 9.5-21.3 21.3-21.3h27.2c9.9-.3 9.9-14.7 0-15h-27.2c-20 0-36.3 16.3-36.3 36.3v6h-43.5v-22.5c-.3-9.9-14.7-9.9-15 0v381.3c0 4.1 3.4 7.5 7.5 7.5h44.7c1.4 14.5 6.8 28.2 15.8 39.8 2.5 3.3 7.2 3.9 10.5 1.3 3.3-2.5 3.9-7.2 1.3-10.5-31.7-40.2-1.8-101 49.4-100.6 34.4 0 62.4 28 62.4 62.4.6 45.9-50 77-90.6 55.7-9-4.2-15.5 8.6-6.8 13.4 47.7 25.2 107.8-8.4 112.2-61.4h172.5l18.4 64.5c.9 3.2 3.9 5.4 7.2 5.4h30c4.1 0 7.5-3.4 7.5-7.5v-62.4h62.5c4.1 0 7.5-3.4 7.5-7.5v-381.4c-.1-4.1-3.4-7.5-7.5-7.5zm-274.9-12.3v-18.3h52.8v18.3zm267.4 57.3v164.7h-263.1c-9.9.3-9.9 14.7 0 15h204.6v19.8h-365v-19.8h125.7c9.9-.3 9.9-14.7 0-15h-184.2v-164.7zm-203.5 214.5h96.1v45.4h-96.1zm-278.5-34.7h43.5v132.7c-3.3 7.4-5.5 15.5-6.3 23.9h-37.2zm114.3 86.6c-21.9 0-41.7 9.1-55.8 23.8v-75.7h205v66.1c0 14.2-11.6 25.8-25.7 25.8h-55.8c-13.2-23.8-38.6-40-67.7-40zm297.7 139.9h-16.8l-15.8-54.9h32.6zm-220.6-69.9c-.5-5.2-1.5-10.2-3-15h49.4c22.5 0 40.7-18.3 40.7-40.8v-5.7h103.6c4.1 0 7.5-3.4 7.5-7.5v-52.9h41.4c4.1 0 7.5-3.4 7.5-7.5v-27.3h43.5v156.7z"/><path d="m337.1 235.6c40.1.5 71-39 60.9-77.8-1-4-5.1-6.5-9.1-5.5s-6.5 5.1-5.5 9.1c7.6 29.5-15.8 59.6-46.4 59.2-26.3 0-47.7-21.4-47.7-47.8-.3-40.9 49.5-63.1 79.7-35.5 3.1 2.8 7.8 2.5 10.6-.6s2.5-7.8-.6-10.6c-39.6-36.3-105.1-7.1-104.7 46.6.1 34.8 28.2 62.9 62.8 62.9z"/><path d="m331.8 167.5-16 16c-6.8 7.2 3.4 17.4 10.6 10.6l16-16c6.8-7.2-3.3-17.3-10.6-10.6z"/><path d="m59.4 162.6c12.4 0 22.5-10.1 22.5-22.5-1.1-29.8-43.9-29.8-45 0 0 12.4 10.1 22.5 22.5 22.5zm0-30c9.9.3 9.9 14.7 0 15-9.9-.3-9.9-14.7 0-15z"/><path d="m59.4 183.1c-12.4 0-22.5 10.1-22.5 22.5 1.1 29.8 43.9 29.8 45 0 0-12.4-10.1-22.5-22.5-22.5zm0 30c-9.9-.3-9.9-14.7 0-15 9.9.3 9.9 14.7 0 15z"/><path d="m431.7 130.1h37.7c9.9-.3 9.9-14.7 0-15h-37.7c-9.9.3-9.9 14.7 0 15z"/><path d="m431.7 230.6h37.7c9.9-.3 9.9-14.7 0-15h-37.7c-9.9.3-9.9 14.7 0 15z"/><path d="m431.7 163.6h37.7c9.9-.3 9.9-14.7 0-15h-37.7c-9.9.3-9.9 14.7 0 15z"/><path d="m431.7 197.1h37.7c9.9-.3 9.9-14.7 0-15h-37.7c-9.9.3-9.9 14.7 0 15z"/><path d="m110 235.6h110.5c4.1 0 7.5-3.4 7.5-7.5v-110.5c0-4.1-3.4-7.5-7.5-7.5h-110.5c-4.1 0-7.5 3.4-7.5 7.5v110.5c0 4.1 3.4 7.5 7.5 7.5zm7.5-110.5h95.5v95.5h-95.5z"/><path d="m178.2 165.3h-11.6l7.4-13.5c2-3.6.7-8.2-3-10.2-3.6-2-8.2-.7-10.2 3l-13.4 24.5c-2.9 4.8 1 11.4 6.6 11.2h11.6l-7.4 13.5c-2 3.6-.7 8.2 3 10.2 3.6 2 8.2.7 10.2-3l13.4-24.6c2.8-4.7-1.1-11.2-6.6-11.1z"/><g><path d="m324 320.2c-9.9.3-9.9 14.7 0 15 9.9-.3 9.9-14.7 0-15z"/><path d="m359 320.2c-9.9.3-9.9 14.7 0 15 9.9-.3 9.9-14.7 0-15z"/><path d="m129.3 427c-9.9.3-9.9 14.7 0 15 9.9-.3 9.9-14.7 0-15z"/></g></g></svg>