<svg id="Layer_1" enable-background="new 0 0 512 512" height="512" viewBox="0 0 512 512" width="512" xmlns="http://www.w3.org/2000/svg"><g><path d="m391 95.728h60v60h-60z" fill="#6b717d"/><g fill="#6b717d"><path d="m91 412.792h30v91.73h-30z"/><path d="m361 412.792h30v91.73h-30z"/></g><path d="m420.999 26.459v441.98h-360v-441.98c0-10.47 8.49-18.96 18.97-18.96h322.06c10.479 0 18.97 8.49 18.97 18.96z" fill="#72bbff"/><path d="m420.999 26.459v441.98h-35v-441.97c0-10.48-8.49-18.97-18.97-18.97h35c10.479 0 18.97 8.49 18.97 18.96z" fill="#009af6"/><path d="m60.998 363.439h360v105h-360z" fill="#d6eaec"/><path d="m385.999 363.439h35v105h-35z" fill="#b5d9dd"/><path d="m151 77.707c-23.172 0-41.957 18.784-41.957 41.956v51.066c0 23.172 18.785 41.956 41.957 41.956 23.172 0 41.957-18.785 41.957-41.956v-51.066c-.001-23.171-18.785-41.956-41.957-41.956z" fill="#fff"/></g><g><path d="m96 440.608h127.5c9.916-.307 9.909-14.696 0-14.999h-127.5c-9.916.306-9.909 14.696 0 14.999z"/><path d="m96 405.61h127.5c9.916-.307 9.909-14.696 0-14.999h-127.5c-9.916.306-9.909 14.695 0 14.999z"/><path d="m258.5 440.608h127.5c9.916-.307 9.909-14.696 0-14.999h-127.5c-9.916.306-9.909 14.696 0 14.999z"/><path d="m258.5 405.61h127.5c9.916-.307 9.909-14.696 0-14.999h-127.5c-9.916.306-9.909 14.695 0 14.999z"/><path d="m101.543 170.725c-.291 42.79 52.171 65.568 83.187 36.168 3.028-2.826 3.193-7.571.368-10.6-2.826-3.028-7.572-3.196-10.601-.368-21.615 20.488-58.161 4.598-57.954-25.2v-51.064c1.738-45.657 67.192-45.623 68.913 0v51.064c.307 9.916 14.697 9.909 15 0v-51.064c-2.494-65.534-96.443-65.483-98.913 0z"/><path d="m360.14 128.696c-2.07-3.588-6.66-4.815-10.245-2.745l-10.829 6.252v-12.504c-.307-9.916-14.697-9.909-15 0v12.504l-10.83-6.252c-3.589-2.07-8.175-.843-10.245 2.745-2.071 3.587-.842 8.173 2.745 10.245l10.83 6.252-10.83 6.252c-3.587 2.071-4.816 6.658-2.745 10.245 2.082 3.62 6.722 4.796 10.245 2.745l10.83-6.252v12.505c.307 9.916 14.697 9.909 15 0v-12.505l10.829 6.252c3.524 2.051 8.163.875 10.245-2.745 2.071-3.587.842-8.173-2.745-10.245l-10.83-6.252 10.83-6.252c3.586-2.072 4.816-6.658 2.745-10.245z"/><path d="m198.804 310.288c.307 9.916 14.697 9.909 15 0v-74.736c-.307-9.916-14.697-9.909-15 0z"/><path d="m267.804 235.553v74.736c.307 9.916 14.697 9.909 15 0v-74.736c-.307-9.916-14.697-9.909-15 0z"/><path d="m451 88.227h-22.5v-19.916h13.098c9.916-.307 9.909-14.696 0-14.999h-13.098v-26.847c0-14.593-11.873-26.465-26.468-26.465h-322.065c-14.594 0-26.467 11.872-26.467 26.465v21.097c.307 9.916 14.697 9.909 15 0v-21.097c0-6.323 5.144-11.466 11.467-11.466h153.533v340.927h-165v-273.713c-.307-9.916-14.697-9.909-15 0v386.208c0 4.142 3.357 7.5 7.5 7.5h22.5v28.58c0 4.142 3.357 7.5 7.5 7.5h30c4.143 0 7.5-3.357 7.5-7.5v-28.58h40.587c9.916-.307 9.909-14.696 0-14.999h-100.587v-89.996h345v89.996h-209.848c-9.916.307-9.909 14.696 0 14.999h149.848v28.58c0 4.142 3.357 7.5 7.5 7.5h30c4.143 0 7.5-3.357 7.5-7.5v-28.58h22.5c4.143 0 7.5-3.357 7.5-7.5v-180.305c-.307-9.916-14.697-9.909-15 0v67.811h-165v-340.928h153.532c6.323 0 11.468 5.143 11.468 11.466v226.652c.307 9.916 14.697 9.909 15 0v-89.894h22.5c4.143 0 7.5-3.357 7.5-7.5v-59.996c0-4.143-3.357-7.5-7.5-7.5zm-337.5 387.694v21.08h-15v-21.08zm270 21.08h-15v-21.08h15zm60-348.777h-15v-44.998h15z"/><g><path d="m116.004 35.227c-9.914.306-9.911 14.706 0 15.011 9.914-.307 9.911-14.706 0-15.011z"/><path d="m151.004 35.227c-9.914.306-9.911 14.706 0 15.011 9.914-.307 9.911-14.706 0-15.011z"/><path d="m186.004 35.227c-9.914.306-9.911 14.706 0 15.011 9.914-.307 9.911-14.706 0-15.011z"/></g></g></svg>