<svg id="Layer_1" enable-background="new 0 0 512 512" height="512" viewBox="0 0 512 512" width="512" xmlns="http://www.w3.org/2000/svg"><g><g fill="#6b717d"><path d="m86.647 435.483h30v69.017h-30z"/><path d="m290.005 435.483h30v69.017h-30z"/></g><path d="m350.001 81.08v387.34h-293.35v-387.34c0-9.8 7.94-17.74 17.74-17.74h257.87c9.8 0 17.74 7.94 17.74 17.74z" fill="#72bbff"/><path d="m350.001 81.08v387.34h-35.67v-387.34c0-9.8-7.95-17.74-17.75-17.74h35.68c9.8 0 17.74 7.94 17.74 17.74z" fill="#009af6"/><path d="m91.326 98.408h223v64.641h-223z" fill="#fff"/><ellipse cx="284.329" cy="398.556" fill="#fff" rx="29.997" ry="29.976"/><path d="m438.141 153.12v137.42c0 12.37-10.03 22.4-22.4 22.4-4.08 0-7.9-1.09-11.19-3-6.69-3.87-11.2-11.11-11.2-19.4v-137.42c0-6.18 2.51-11.78 6.56-15.83 1.38-1.38 2.94-2.58 4.64-3.56 3.29-1.91 7.11-3 11.19-3 12.37 0 22.4 10.02 22.4 22.39z" fill="#ff6c6c"/><path d="m438.141 153.12v137.42c0 12.37-10.03 22.4-22.4 22.4-4.08 0-7.9-1.09-11.19-3 6.69-3.88 11.19-11.11 11.19-19.4v-137.42c0-8.29-4.5-15.52-11.19-19.39 3.29-1.91 7.11-3 11.19-3 12.37 0 22.4 10.02 22.4 22.39z" fill="#ff4141"/><path d="m438.141 267.54v23c0 12.37-10.03 22.4-22.4 22.4-4.08 0-7.9-1.09-11.19-3-6.69-3.87-11.2-11.11-11.2-19.4v-23z" fill="#d6eaec"/><path d="m438.141 267.54v23c0 12.37-10.03 22.4-22.4 22.4-4.08 0-7.9-1.09-11.19-3 6.69-3.88 11.19-11.11 11.19-19.4v-23z" fill="#b5d9dd"/><g><path d="m258.076 266.57c0 30.51-24.74 55.25-55.25 55.25-5.2 0-10.23-.72-15-2.06-23.22-6.54-40.25-27.88-40.25-53.19s17.03-46.65 40.25-53.19c4.77-1.34 9.8-2.06 15-2.06 30.51 0 55.25 24.74 55.25 55.25z" fill="#fff"/><path d="m258.076 266.57c0 30.51-24.74 55.25-55.25 55.25-5.2 0-10.23-.72-15-2.06 23.22-6.54 40.25-27.88 40.25-53.19s-17.03-46.65-40.25-53.19c4.77-1.34 9.8-2.06 15-2.06 30.51 0 55.25 24.74 55.25 55.25z" fill="#d6eaec"/></g></g><g><path d="m129.977 105.908c9.916-.307 9.909-14.696 0-15h-38.651c-4.142 0-7.5 3.357-7.5 7.5v64.641c0 4.143 3.358 7.5 7.5 7.5h223c4.142 0 7.5-3.357 7.5-7.5v-64.641c0-4.143-3.358-7.5-7.5-7.5h-149.539c-9.916.307-9.909 14.696 0 15h142.039v49.641h-208v-49.641z"/><path d="m265.576 266.545c0-5.087-.611-10.15-1.816-15.049-.989-4.021-5.051-6.476-9.075-5.491-4.022.99-6.48 5.053-5.491 9.075 7.641 29.506-15.828 59.65-46.368 59.24-26.329 0-47.75-21.431-47.75-47.775-.285-40.927 49.532-63.115 79.69-35.515 3.077 2.774 7.818 2.527 10.592-.551 2.772-3.077 2.526-7.819-.551-10.592-39.632-36.274-105.113-7.122-104.731 46.658 3.153 83.162 122.357 83.146 125.5 0z"/><path d="m197.521 261.243-15.983 15.991c-2.928 2.93-2.927 7.678.002 10.606 2.93 2.928 7.679 2.927 10.607-.003l15.983-15.991c2.928-2.93 2.927-7.678-.002-10.606-2.93-2.928-7.679-2.928-10.607.003z"/><path d="m157.576 368.58v59.952c.307 9.916 14.696 9.909 15 0v-59.952c-.307-9.916-14.696-9.909-15 0z"/><path d="m122.576 368.58v59.952c.307 9.916 14.696 9.909 15 0v-59.952c-.307-9.916-14.696-9.909-15 0z"/><path d="m192.576 368.58v59.952c.307 9.916 14.696 9.909 15 0v-59.952c-.307-9.916-14.696-9.909-15 0z"/><path d="m87.576 368.58v59.952c.307 9.916 14.696 9.909 15 0v-59.952c-.307-9.916-14.696-9.909-15 0z"/><path d="m455.353 168.732h-9.714v-15.609c0-13.895-9.529-25.606-22.395-28.942v-25.893l37.413-37.416c2.929-2.929 2.928-7.678 0-10.606-2.93-2.928-7.678-2.929-10.607.001l-39.61 39.612c-1.406 1.406-2.196 3.313-2.196 5.303v29c-12.866 3.336-22.395 15.047-22.395 28.942v137.422c0 13.895 9.529 25.606 22.395 28.943v36.065c0 19.577-15.925 35.504-35.5 35.504h-15.239v-309.974c0-13.921-11.326-25.247-25.247-25.247h-49.083v-17.708c0-21.025-17.104-38.129-38.128-38.129h-84.441c-21.024 0-38.128 17.104-38.128 38.129v17.708h-48.084c-13.921 0-25.247 11.326-25.247 25.247v301.677c.307 9.916 14.696 9.909 15 0v-301.677c0-5.65 4.597-10.247 10.247-10.247h257.864c5.65 0 10.247 4.597 10.247 10.247v309.973h-21.434c-9.926-43.659-73.093-37.685-74.24 7.501 1.152 45.193 64.321 51.148 74.24 7.499h21.434v54.859h-278.358v-43.111c-.307-9.916-14.696-9.909-15 0v50.611c0 4.143 3.358 7.5 7.5 7.5h22.5v28.584c0 4.143 3.358 7.5 7.5 7.5h30c4.142 0 7.5-3.357 7.5-7.5v-28.584h158.358v28.584c0 4.143 3.358 7.5 7.5 7.5h30c4.142 0 7.5-3.357 7.5-7.5v-28.584h22.5c4.142 0 7.5-3.357 7.5-7.5v-62.359h15.239c27.846 0 50.5-22.656 50.5-50.504v-36.065c12.866-3.336 22.395-15.048 22.395-28.943v-51.349c-.307-9.916-14.696-9.909-15 0v20.849h-29.79v-106.922c.751-19.737 29.046-19.723 29.79 0v51.029c.307 9.916 14.696 9.909 15 0v-20.42h9.714c9.916-.307 9.909-14.696 0-15zm-317.876-112.895v-17.708c0-12.753 10.375-23.129 23.128-23.129h84.441c12.753 0 23.128 10.376 23.128 23.129v17.708zm146.852 365.195c-12.405 0-22.498-10.082-22.498-22.476.481-25.339 35.017-30.947 43.707-7.5h-21.209c-9.916.307-9.909 14.696 0 15h21.209c-3.098 8.717-11.435 14.976-21.209 14.976zm-175.182 75.968h-15v-21.084h15zm203.358 0h-15v-21.084h15zm118.134-221.955v15.5c-.751 19.739-29.046 19.724-29.79 0v-15.5z"/><g><path d="m111.324 314.318c-9.914.306-9.911 14.695 0 15 9.914-.306 9.912-14.695 0-15z"/><path d="m111.324 203.769c-9.914.306-9.911 14.695 0 15 9.914-.307 9.912-14.696 0-15z"/><path d="m294.324 218.769c9.914-.306 9.911-14.695 0-15-9.913.306-9.911 14.695 0 15z"/><path d="m294.324 314.318c-9.914.306-9.911 14.695 0 15 9.914-.306 9.912-14.695 0-15z"/></g></g></svg>