<svg id="Layer_1" enable-background="new 0 0 512 512" height="512" viewBox="0 0 512 512" width="512" xmlns="http://www.w3.org/2000/svg"><g><path d="m410.712 243.045-12.099 23.935-25.498-8.344-20.35 17.466-22.755-19.474-.424-5.303-11.052-138.444 118.808-41.352 1.315 16.829.771 9.907 23.935 12.098-8.344 25.499 17.473 20.357-17.451 20.379 8.386 25.484-23.929 12.134-2.043 26.736z" fill="#d6eaec"/><path d="m410.712 243.045-12.099 23.935-25.498-8.344-20.35 17.466-22.755-19.474-.424-5.303 19.487-16.73 25.499 8.344 12.098-23.936 26.743-2.093 2.044-26.736 23.928-12.134-8.386-25.484 17.451-20.379-17.472-20.357 7.679-23.462.771 9.907 23.935 12.098-8.344 25.499 17.473 20.357-17.451 20.379 8.386 25.484-23.929 12.134-2.043 26.736z" fill="#b5d9dd"/><path d="m444.56 64.296c-50.814-50.743-133.144-50.686-183.889.126-36.893 36.942-46.934 90.541-30.139 136.551l122.147-44.673z" fill="#ff6c6c"/><path d="m125.281 434.43c-13.506 13.52-35.412 13.534-48.939.035-3.394-3.394-5.94-7.311-7.623-11.498-5.056-12.48-2.524-27.316 7.587-37.441l31.551-31.579 133.565-133.693 29.868 29.826 19.106 19.078-133.599 133.728z" fill="#6b717d"/><path d="m125.281 434.43c-13.506 13.52-35.412 13.534-48.939.035-3.394-3.394-5.94-7.311-7.623-11.498 12.502 5.049 27.344 2.51 37.47-7.63l165.103-165.257 19.106 19.078-133.601 133.728z" fill="#47505e"/><path d="m127.255 3.515h34.999v111.61h-34.999z" fill="#6b717d" transform="matrix(.707 -.708 .708 .707 .486 119.814)"/><path d="m125.281 434.43c-13.506 13.52-35.412 13.534-48.939.035-3.394-3.394-5.94-7.311-7.623-11.498-5.056-12.48-2.524-27.316 7.587-37.441l31.551-31.579 48.939 48.939z" fill="#d6eaec"/><path d="m125.281 434.43c-13.506 13.52-35.412 13.534-48.939.035-3.394-3.394-5.94-7.311-7.623-11.498 12.502 5.049 27.344 2.51 37.47-7.63l31.516-31.544 19.092 19.092z" fill="#b5d9dd"/><path d="m354.858 414.426c-5.572 5.572-13.265 9.023-21.765 9.023-5.36 0-10.394-1.372-14.779-3.79-9.539-5.226-16.002-15.351-16.002-26.99v-30.787l36.819.007h24.749v30.773c0 8.499-3.45 16.192-9.022 21.764z" fill="#f3d6ae"/><path d="m354.858 414.426c-5.572 5.572-13.265 9.023-21.765 9.023-5.36 0-10.394-1.372-14.779-3.79 4.497-1.527 8.514-4.073 11.795-7.354 5.572-5.572 9.023-13.265 9.023-21.765v-28.652h24.749v30.773c-.001 8.5-3.451 16.193-9.023 21.765z" fill="#edba75"/><path d="m291.897 294.798-19.637-19.608-58.004-57.919 86.38-86.493c7.304-7.319 19.156-7.319 26.467-.021l32.661 32.619.064.064 18.427 18.399c7.312 7.311 7.319 19.156.021 26.467z" fill="#f3d6ae"/><path d="m272.26 275.19 86.925-85.977c7.071-7.085 7.283-18.413.643-25.774l18.427 18.399c7.312 7.311 7.319 19.156.021 26.467l-86.38 86.493z" fill="#edba75"/></g><g><path d="m478.178 151.333-14.72-17.15 7.034-21.481c1.152-3.521-.438-7.356-3.745-9.027l-20.174-10.197-1.489-19.091 4.783-4.79c2.904-2.794 2.9-7.816-.007-10.606-18.548-18.521-41.817-31.297-67.294-36.944-24.789-5.496-50.565-4.061-74.542 4.15-3.918 1.342-6.008 5.606-4.666 9.525s5.605 6.008 9.525 4.666c42.229-14.46 87.875-5.202 120.913 24.074l-1.762 1.764c-.014.014-.027.027-.041.041l-79.321 79.427-20.27-20.242c-10.227-10.212-26.856-10.199-37.069.026l-61.323 61.404c-10.646-41.564 1.296-86.447 31.968-117.16 5.695-5.702 11.943-10.847 18.57-15.289 3.441-2.306 4.36-6.965 2.054-10.405-2.307-3.442-6.967-4.36-10.406-2.054-7.438 4.985-14.447 10.755-20.832 17.148-17.728 17.752-30.167 39.78-36.161 63.955l-24.359-24.327 19.432-19.458c2.927-2.931 2.924-7.68-.007-10.606-2.931-2.928-7.68-2.925-10.606.007l-7.065 7.075-73.659-73.575c-1.406-1.404-3.313-2.193-5.301-2.193h-.004c-1.989.001-3.897.793-5.302 2.2l-24.732 24.765c-2.927 2.931-2.924 7.679.006 10.606l15.957 15.938c2.931 2.927 7.68 2.924 10.606-.007 2.927-2.93 2.925-7.679-.006-10.606l-10.651-10.639 14.132-14.15 68.353 68.274-14.132 14.15-34.351-34.312c-2.931-2.926-7.68-2.925-10.606.007-2.927 2.93-2.925 7.679.006 10.606l34.352 34.313-7.066 7.076c-2.927 2.931-2.924 7.68.007 10.606 2.93 2.927 7.68 2.924 10.606-.007l19.432-19.458 31.743 31.7c-2.172 19.503-.166 39.232 5.927 57.928l-12.96 12.977c-2.904 2.794-2.9 7.816.007 10.606l9.779 9.765-147.74 147.89c-14.297 13.788-16.352 37.747-4.796 53.776l-25.219 25.278c-11.976 11.506-11.963 32.196.03 43.686 5.833 5.825 13.585 9.032 21.826 9.032h.02l23.626-.006c9.915-.309 9.906-14.696-.002-15h-.002l-23.629.006h-.01c-4.241 0-8.229-1.65-11.23-4.646-6.169-5.912-6.176-16.554-.012-22.476l25.222-25.281c16.575 11.457 39.264 9.645 53.759-4.868l53.416-53.468c6.791-7.233-3.392-17.396-10.612-10.602l-16.598 16.615-38.329-38.329 110.894-111.005 38.356 38.302-71.15 71.221c-6.791 7.233 3.392 17.396 10.612 10.602l71.153-71.223 8.271 8.26c2.93 2.927 7.68 2.924 10.606-.007l33.206-33.25 17.476 14.956c2.81 2.405 6.954 2.402 9.761-.007l17.152-14.72 21.482 7.033c3.522 1.15 7.355-.438 9.027-3.744l10.198-20.173 22.534-1.758c3.686-.288 6.612-3.219 6.895-6.904l1.727-22.535 20.16-10.224c3.305-1.676 4.89-5.514 3.732-9.033l-7.062-21.472 14.696-17.17c2.403-2.81 2.401-6.954-.009-9.761zm-331.991 251.553-26.216 26.242c-10.562 10.574-27.756 10.586-38.33.027-5.123-5.116-7.946-11.92-7.952-19.159-.005-7.239 2.81-14.047 7.924-19.168l26.245-26.271zm145.702-118.698-67.02-66.926 81.077-81.186c4.369-4.374 11.482-4.38 15.857-.012l51.153 51.081c2.12 2.116 3.288 4.932 3.29 7.926.002 2.995-1.162 5.811-3.278 7.93zm156.031-105.248 6.37 19.364-18.179 9.22c-2.336 1.185-3.885 3.503-4.085 6.115l-1.558 20.338-20.336 1.586c-2.612.204-4.928 1.756-6.11 4.094l-9.196 18.19-19.375-6.343c-2.493-.815-5.229-.271-7.218 1.437l-15.479 13.283-11.714-10.025 42.54-42.598c4.948-4.953 7.67-11.537 7.665-18.539-.004-7.002-2.736-13.582-7.69-18.529l-20.269-20.241 67.842-67.933.818 10.49c.204 2.612 1.755 4.929 4.094 6.11l18.192 9.195-6.343 19.373c-.816 2.492-.271 5.229 1.436 7.219l13.284 15.478-13.263 15.495c-1.705 1.993-2.246 4.73-1.426 7.221z"/><path d="m268.478 211.024c-2.93-2.929-7.679-2.929-10.606.003-2.928 2.93-2.927 7.678.003 10.606l29.512 29.497c2.929 2.928 7.679 2.927 10.606-.003 2.928-2.93 2.927-7.678-.003-10.606z"/><path d="m293.221 186.271c-2.93-2.929-7.679-2.929-10.606.003-2.928 2.93-2.927 7.678.003 10.606l29.512 29.497c2.929 2.928 7.679 2.927 10.606-.003 2.928-2.93 2.927-7.678-.003-10.606z"/><path d="m363.878 354.383h-7.633v-17.021c-.307-9.916-14.696-9.909-15 0v17.021h-16.432v-17.021c-.307-9.916-14.696-9.909-15 0v17.021h-7.5c-4.142 0-7.5 3.357-7.5 7.5v30.783c0 18.543 13.252 34.048 30.783 37.544v3.696c0 34.755-28.275 63.036-63.03 63.044l-141.341.036c-9.915.309-9.906 14.696.002 15h.002l141.341-.036c43.024-.01 78.026-35.021 78.026-78.044v-3.696c17.531-3.496 30.783-19.001 30.783-37.544v-30.783c-.001-4.143-3.359-7.5-7.501-7.5zm-7.5 38.283c-1.174 30.852-45.402 30.829-46.565 0v-23.283h46.565z"/><g><path d="m208.117 295.165c-9.894.306-9.892 14.696 0 15 9.895-.306 9.892-14.695 0-15z"/><path d="m229.327 273.945c-9.894.306-9.892 14.696 0 15 9.895-.306 9.892-14.695 0-15z"/><path d="m314.648 154.146c-9.894.306-9.892 14.696 0 15 9.894-.306 9.892-14.696 0-15z"/><path d="m347.918 187.375c-9.894.306-9.892 14.696 0 15 9.894-.306 9.892-14.696 0-15z"/></g></g></svg>