<svg id="Layer_1" enable-background="new 0 0 511.935 511.935" height="512" viewBox="0 0 511.935 511.935" width="512" xmlns="http://www.w3.org/2000/svg"><g><path d="m91.647 192.743h30.189v120.005h-30.189z" fill="#72bbff"/><path d="m32.788 237.745h58.859v30.001h-58.859z" fill="#b5d9dd"/><path d="m121.836 127.74h240.783v250.011h-240.783z" fill="#6b717d"/><path d="m444.26 139.325v226.84c0 17.45-14.15 31.59-31.59 31.59h-50.05v-290.02h50.05c17.44 0 31.59 14.15 31.59 31.59z" fill="#f3d6ae"/><path d="m444.26 139.325v226.84c0 17.45-14.15 31.59-31.59 31.59h-25c17.44 0 31.59-14.14 31.59-31.59v-226.84c0-17.44-14.15-31.59-31.59-31.59h25c17.44 0 31.59 14.15 31.59 31.59z" fill="#edba75"/><path d="m170.97 377.751h142.335v54.638h-142.335z" fill="#d6eaec"/><path d="m287.085 377.751h26.219v54.638h-26.219z" fill="#b5d9dd"/><path d="m309.57 34.265v40.9c0 9.93-8.04 17.97-17.97 17.97h-98.57c-9.92 0-17.96-8.04-17.96-17.97v-40.9z" fill="#72bbff"/><path d="m282.57 34.265h27v40.9c0 9.93-8.04 17.97-17.97 17.97h-27c9.93 0 17.97-8.04 17.97-17.97z" fill="#009af6"/><path d="m216.819 93.134h51v34.607h-51z" fill="#d6eaec"/><path d="m242.321 93.134h25.499v34.607h-25.499z" fill="#b5d9dd"/><g><path d="m445.728 470.175v34.26h-357v-34.26c0-20.87 16.92-37.78 37.78-37.78h281.44c20.86 0 37.78 16.91 37.78 37.78z" fill="#72bbff"/><path d="m445.728 470.175v34.26h-30v-34.26c0-20.87-16.92-37.78-37.78-37.78h30c20.86 0 37.78 16.91 37.78 37.78z" fill="#009af6"/></g></g><g><path d="m313.394 285.247h-142.334c-9.916.307-9.909 14.697 0 15h142.334c9.917-.307 9.909-14.696 0-15z"/><path d="m313.44 245.246h-142.335c-9.916.307-9.909 14.697 0 15h142.335c9.917-.307 9.909-14.696 0-15z"/><path d="m313.485 205.244h-142.334c-9.916.307-9.909 14.697 0 15h142.334c9.916-.307 9.909-14.696 0-15z"/><path d="m171.014 180.242h142.335c9.916-.307 9.909-14.697 0-15h-142.335c-9.916.307-9.909 14.697 0 15z"/><path d="m313.304 325.249h-142.335c-9.916.307-9.909 14.697 0 15h142.335c9.917-.307 9.91-14.697 0-15z"/><path d="m479.212 161.807c9.916-.307 9.909-14.697 0-15h-27.456v-7.48c0-21.553-17.534-39.087-39.087-39.087h-50.05c-4.143 0-7.5 3.357-7.5 7.5v12.501h-79.8v-19.606h16.284c14.042 0 25.466-11.424 25.466-25.466v-40.907c0-4.143-3.357-7.5-7.5-7.5h-34.251v-19.327c-.307-9.916-14.697-9.909-15 0v19.327h-36v-19.327c-.307-9.916-14.697-9.909-15 0v19.327h-34.251c-4.143 0-7.5 3.357-7.5 7.5v40.906c0 14.042 11.424 25.466 25.466 25.466h16.286v19.606h-87.483c-4.142 0-7.5 3.357-7.5 7.5v57.503h-22.689c-4.142 0-7.5 3.357-7.5 7.5v37.502h-51.359c-4.142 0-7.5 3.357-7.5 7.5v30.001c0 4.143 3.358 7.5 7.5 7.5h51.358v37.502c0 4.143 3.358 7.5 7.5 7.5h22.689v57.503c0 4.143 3.358 7.5 7.5 7.5h41.633v39.637h-36.958c-24.969 0-45.283 20.314-45.283 45.284v26.763h-22.5c-9.916.307-9.909 14.696 0 15h63.109c9.916-.307 9.909-14.696 0-15h-25.609v-26.763c0-16.699 13.585-30.284 30.283-30.284h281.435c16.697 0 30.282 13.585 30.282 30.284v26.763h-281.652c-9.916.307-9.909 14.697 0 15h319.152c9.916-.307 9.909-14.697 0-15h-22.5v-26.763c0-24.97-20.313-45.284-45.282-45.284h-87.141v-39.637h34.314v12.501c0 4.143 3.357 7.5 7.5 7.5h50.05c21.553 0 39.087-17.534 39.087-39.087v-169.661h14.935c9.916-.307 9.909-14.697 0-15h-14.935v-19.697zm-438.924 98.439v-15.001h43.858v15.001zm142.279-185.078v-33.406h119.502v33.406c0 5.771-4.695 10.466-10.466 10.466h-98.57c-5.771 0-10.466-4.696-10.466-10.466zm41.752 25.466h36v19.606h-36zm81.485 324.254h-127.335v-39.637h127.335zm130.952-58.723c0 13.281-10.806 24.087-24.087 24.087h-42.55v-182.674c-.307-9.916-14.697-9.909-15 0v162.673h-225.783v-82.545c-.307-9.916-14.696-9.909-15 0v17.542h-15.189v-105.005h15.189v52.501c.307 9.916 14.696 9.909 15 0v-117.504h225.783v37.502c.307 9.916 14.697 9.909 15 0v-57.503h42.55c13.281 0 24.087 10.806 24.087 24.087z"/><g><path d="m403.455 161.805c9.894-.306 9.892-14.695 0-15-9.894.306-9.892 14.695 0 15z"/><path d="m403.455 212.435c-9.894.306-9.892 14.696 0 15 9.894-.306 9.892-14.696 0-15z"/><path d="m403.455 278.055c-9.894.306-9.892 14.696 0 15 9.894-.306 9.892-14.696 0-15z"/><path d="m403.455 343.685c-9.894.306-9.892 14.696 0 15 9.894-.306 9.892-14.696 0-15z"/></g></g></svg>