<svg id="Layer_1" enable-background="new 0 0 512 512" height="512" viewBox="0 0 512 512" width="512" xmlns="http://www.w3.org/2000/svg"><g><path d="m302.922 233.497v108.848l-46.999 47.069-19.478-19.51-27.52-27.559v-108.848z" fill="#6b717d"/><path d="m302.922 233.497v108.848l-46.999 47.069-19.478-19.51 34.512-34.559v-101.848z" fill="#47505e"/><path d="m156.146 164.259h199.564v69.235h-199.564z" fill="#ff6c6c"/><path d="m324.604 164.259h31.106v69.235h-31.106z" fill="#ff4141"/><path d="m488.919 77.979v39.98l14.964 9.989v25.26h-495.909v-25.26l14.964-9.989v-39.98l-14.964-9.99v-25.259h495.909v25.259z" fill="#ff6c6c"/><path d="m488.919 77.979v39.98l14.964 9.989v25.26h-28.969v-20.37l-17.411-11.62v-46.499l17.411-11.63v-20.359h28.969v25.259z" fill="#ff4141"/><path d="m433.07 25.55v144.838c0 9.97-8.071 18.05-18.03 18.05h-318.233c-9.949 0-18.02-8.08-18.02-18.05v-144.838c0-9.97 8.071-18.05 18.02-18.05h318.233c9.959 0 18.03 8.08 18.03 18.05z" fill="#f3d6ae"/><path d="m433.07 25.55v144.838c0 9.97-8.071 18.05-18.03 18.05h-34.922c9.959 0 18.03-8.08 18.03-18.05v-144.838c0-9.97-8.071-18.05-18.03-18.05h34.922c9.959 0 18.03 8.08 18.03 18.05z" fill="#edba75"/><g fill="#edba75"><ellipse cx="296.529" cy="97.967" rx="14.967" ry="14.991"/><ellipse cx="359.782" cy="97.967" rx="14.967" ry="14.991"/></g><g><path d="m247.365 97.967c0 30.51-24.713 55.249-55.19 55.249-5.194 0-10.219-.72-14.984-2.06-23.195-6.54-40.206-27.879-40.206-53.189s17.011-46.649 40.206-53.189c4.765-1.34 9.789-2.06 14.984-2.06 30.477 0 55.19 24.74 55.19 55.249z" fill="#fff"/><path d="m247.365 97.967c0 30.51-24.713 55.249-55.19 55.249-5.194 0-10.219-.72-14.984-2.06 23.195-6.54 40.206-27.879 40.206-53.189s-17.011-46.649-40.206-53.189c4.765-1.34 9.789-2.06 14.984-2.06 30.477 0 55.19 24.74 55.19 55.249z" fill="#d6eaec"/></g><path d="m391.286 377.394v97.119h-270.715v-97.119h75.468l59.884 59.99 59.895-59.99z" fill="#d6eaec"/><path d="m360.259 377.394h31.026v97.119h-31.026z" fill="#b5d9dd"/><g><path d="m503.343 489.501c0 8.29-6.713 15-14.984 15h-466.49c-4.135 0-7.881-1.68-10.588-4.39-2.717-2.71-4.395-6.47-4.395-10.61 0-8.28 6.713-15 14.984-15h466.49c4.135 0 7.881 1.68 10.588 4.4 2.717 2.71 4.395 6.46 4.395 10.6z" fill="#6b717d"/><path d="m503.343 489.501c0 8.29-6.713 15-14.984 15h-20.068c3.117-3.66 5.084-9.02 5.084-15 0-5.52-1.678-10.52-4.395-14.14-.22-.3-.45-.58-.689-.86h20.068c4.135 0 7.881 1.68 10.588 4.4 2.718 2.71 4.396 6.46 4.396 10.6z" fill="#47505e"/></g></g><g><path d="m244.237 77.437c-4.022.989-6.481 5.053-5.492 9.074 7.633 29.479-15.805 59.606-46.309 59.195-26.297 0-47.69-21.415-47.69-47.738-.287-40.886 49.464-63.068 79.589-35.488 3.075 2.773 7.817 2.528 10.592-.549 2.773-3.076 2.528-7.818-.549-10.592-39.594-36.256-105.016-7.114-104.631 46.629 0 34.593 28.123 62.737 62.69 62.737 40.083.535 70.911-39.034 60.875-77.777-.99-4.021-5.05-6.48-9.075-5.491z"/><path d="m187.131 92.667-15.967 15.98c-2.928 2.93-2.926 7.679.005 10.606 2.929 2.928 7.678 2.925 10.606-.005l15.967-15.98c2.928-2.93 2.926-7.679-.005-10.606-2.928-2.927-7.677-2.927-10.606.005z"/><path d="m296.844 75.477c-12.397 0-22.483 10.09-22.483 22.491 1.131 29.797 43.841 29.789 44.967 0-.001-12.402-10.087-22.491-22.484-22.491zm0 29.982c-9.89-.315-9.887-14.669 0-14.982 9.889.314 9.887 14.669 0 14.982z"/><path d="m360.166 75.477c-12.397 0-22.484 10.09-22.484 22.491 1.131 29.796 43.842 29.789 44.968 0-.001-12.402-10.087-22.491-22.484-22.491zm0 29.982c-9.891-.315-9.889-14.669 0-14.982 9.89.314 9.887 14.669 0 14.982z"/><path d="m508.588 74.225c2.086-1.391 3.339-3.732 3.339-6.239v-25.256c0-4.143-3.357-7.5-7.5-7.5h-63.39v-9.682c0-14.087-11.462-25.548-25.55-25.548h-318.579c-14.088 0-25.549 11.461-25.549 25.549v9.682h-63.389c-4.143 0-7.5 3.357-7.5 7.5v25.255c0 2.507 1.253 4.849 3.338 6.239l11.646 7.768v31.951l-11.646 7.768c-2.085 1.391-3.338 3.732-3.338 6.239v25.256c0 4.143 3.357 7.5 7.5 7.5h63.39v9.682c0 14.088 11.461 25.549 25.549 25.549h51.899v37.561c0 4.143 3.357 7.5 7.5 7.5h45.34v101.349c0 1.988.79 3.896 2.195 5.302l47.051 47.073c2.794 2.907 7.817 2.907 10.609 0l47.05-47.073c1.405-1.406 2.195-3.313 2.195-5.302v-39.341c-.307-9.916-14.697-9.909-15 0v36.235l-39.55 39.569-39.551-39.569v-98.243h79.101v26.704c.307 9.916 14.697 9.909 15 0v-26.704h45.341c4.143 0 7.5-3.357 7.5-7.5v-37.561h51.898c14.088 0 25.55-11.461 25.55-25.549v-9.682h63.39c4.143 0 7.5-3.357 7.5-7.5v-25.257c0-2.507-1.253-4.849-3.339-6.239l-11.646-7.768v-31.951zm-493.118 71.481v-13.743l11.646-7.768c2.085-1.391 3.338-3.732 3.338-6.239v-39.977c0-2.507-1.253-4.849-3.338-6.239l-11.646-7.767v-13.743h55.89v95.476zm333.119 80.291h-184.781v-30.061h184.781zm148.338-162.024-11.646 7.768c-2.086 1.391-3.339 3.732-3.339 6.239v39.977c0 2.507 1.253 4.849 3.339 6.239l11.646 7.768v13.743h-55.89v-30.262c-.307-9.916-14.697-9.909-15 0v54.943c0 5.816-4.732 10.549-10.55 10.549h-318.579c-5.816 0-10.549-4.732-10.549-10.549v-144.839c0-5.817 4.733-10.549 10.549-10.549h318.579c5.817 0 10.55 4.732 10.55 10.549v54.942c.307 9.916 14.697 9.909 15 0v-30.261h55.89z"/><path d="m488.9 467.016h-89.698v-82.111h33.249c9.916-.307 9.909-14.697 0-15h-116.297c-1.99 0-3.898.791-5.305 2.198l-54.651 54.679-54.651-54.679c-1.406-1.407-3.314-2.198-5.305-2.198h-117.383c-9.916.307-9.909 14.697 0 15h34.335v82.111h-90.784c-29.794 1.134-29.771 43.861 0 44.984h74.419c9.916-.307 9.909-14.697 0-15h-74.419c-9.892-.316-9.885-14.671 0-14.984h466.49c9.892.316 9.885 14.671 0 14.984h-357.804c-9.916.307-9.909 14.697 0 15h357.804c29.794-1.134 29.772-43.861 0-44.984zm-360.706-82.112h64.94l57.759 57.788c2.792 2.907 7.817 2.907 10.609 0l57.759-57.788h64.94v82.111h-256.007z"/><g><path d="m113.899 146.702c-9.894.306-9.892 14.696 0 15 9.895-.306 9.892-14.695 0-15z"/><path d="m113.899 34.772c-9.894.306-9.892 14.696 0 15 9.895-.306 9.892-14.695 0-15z"/><path d="m398.59 49.772c9.894-.306 9.892-14.696 0-15-9.894.306-9.892 14.696 0 15z"/><path d="m398.561 146.702c-9.894.306-9.892 14.696 0 15 9.894-.306 9.891-14.696 0-15z"/></g></g></svg>