<svg width="100px" height="100px" viewBox="0 0 100 100" fill="none" xmlns="http://www.w3.org/2000/svg">
<path d="M0 24C0 10.7452 10.7452 0 24 0H76C89.2548 0 100 10.7452 100 24V76C100 89.2548 89.2548 100 76 100H24C10.7452 100 0 89.2548 0 76V24Z" fill="#6E49CB"/>
<path fill-rule="evenodd" clip-rule="evenodd" d="M65.5163 21.8379L87.1251 33.8663C88.4963 34.6386 88.199 36.4298 86.6295 36.857L73.0827 40.3571C66.9205 41.951 60.2462 40.9486 55.0918 37.6457L53.1754 36.4133C52.5476 36.0025 51.7216 36.4462 51.7051 37.1856L51.3079 52.9135C51.3357 52.8964 51.3634 52.8792 51.3912 52.8621C52.432 52.2048 53.4397 51.5311 54.3153 50.8245C54.7614 50.4794 55.1579 50.1014 55.4883 49.7399C55.8187 49.3784 56.083 49.0005 56.2482 48.6718C56.4134 48.3268 56.463 48.0474 56.463 47.7845C56.463 47.7188 56.4299 45.7469 56.4299 45.7469L53.4893 43.9886C53.258 43.8572 53.1258 43.6271 53.1258 43.3642V42.3783C53.1258 42.066 53.3571 41.7867 53.6875 41.7374L56.3143 41.3594C56.463 41.3266 56.6117 41.3594 56.7604 41.4252C57.0247 41.5566 57.4542 41.7703 57.702 41.9181C58.082 42.1646 58.462 42.444 58.8254 42.7726C59.5358 43.4299 60.1471 44.3173 60.461 45.221C60.6427 45.6812 60.7418 46.1248 60.8079 46.5685L60.8165 46.6241C60.8466 46.817 60.8754 47.0023 60.8905 47.2422C60.907 47.4887 60.907 47.7352 60.8905 47.9817C60.8409 48.984 60.5105 49.9371 60.0645 50.7094C59.6184 51.4982 59.0732 52.1226 58.5281 52.6649C57.9829 53.2072 57.4212 53.6673 56.843 54.0781C55.8018 54.8435 54.7469 55.4718 53.6908 56.0632C54.0751 56.3041 54.4598 56.5511 54.844 56.8058C55.9508 57.5453 57.0577 58.3505 58.0985 59.3857C58.6107 59.9115 59.1063 60.4867 59.5358 61.1768C59.9488 61.867 60.2958 62.6886 60.3949 63.5759C60.4444 64.0196 60.4444 64.4633 60.3949 64.907C60.3288 65.3342 60.2297 65.745 60.0975 66.1394C59.8167 66.9117 59.4202 67.6019 58.9741 68.1934C58.082 69.3766 57.0247 70.2803 55.9508 71.1019C54.656 72.0728 53.3251 72.9123 52.0017 73.714C52.9028 74.3346 53.8087 74.9796 54.6788 75.7194C55.1909 76.1467 55.703 76.6232 56.1656 77.1983C56.3969 77.4777 56.6117 77.8063 56.7934 78.1678C56.876 78.3486 56.9586 78.5458 57.0247 78.7594C57.0308 78.7807 57.0369 78.8014 57.0429 78.8217C57.0694 78.9114 57.0938 78.9943 57.1073 79.0881C57.1238 79.1373 57.1403 79.2031 57.1403 79.2524L57.1568 79.3838C57.2229 80.0904 57.2229 80.8627 56.9916 81.6186C56.7769 82.3745 56.3143 83.0647 55.7691 83.5741C55.2239 84.0835 54.6127 84.445 54.0179 84.7572C53.4067 85.053 52.7954 85.3159 52.2007 85.546C51.8042 85.6938 51.3416 85.4474 51.259 85.0201C51.226 84.7408 51.3912 84.4779 51.639 84.3628C51.7414 84.3119 51.8438 84.2615 51.9459 84.2113C52.4039 83.986 52.8558 83.7636 53.2745 83.5083C53.7867 83.1961 54.2658 82.8511 54.6127 82.4731C54.9596 82.0787 55.1909 81.6679 55.29 81.1914C55.3891 80.7313 55.3726 80.2055 55.2735 79.6632L55.257 79.5646L55.2405 79.4989C55.2239 79.466 55.2074 79.4167 55.1909 79.3674C55.1579 79.2852 55.1083 79.1866 55.0587 79.0881C54.9431 78.8909 54.7944 78.6937 54.6127 78.4965C54.2492 78.1021 53.8197 77.7242 53.3406 77.3627C52.5265 76.7484 51.6409 76.1816 50.7345 75.6219L50.3834 89.5226C50.3669 89.7691 50.1852 89.9827 49.9374 89.9991C49.673 90.0155 49.4583 89.8019 49.4583 89.5554L49.102 75.4639C48.1341 76.059 47.1862 76.6593 46.3194 77.3134C45.8403 77.6749 45.4107 78.0528 45.0473 78.4472C44.8656 78.6444 44.7169 78.8416 44.6012 79.0388C44.5517 79.1373 44.5021 79.236 44.4691 79.3181C44.4525 79.3674 44.436 79.4167 44.4195 79.4496L44.403 79.5153L44.3865 79.6139C44.2873 80.1562 44.2708 80.682 44.3699 81.1421C44.4691 81.6186 44.7004 82.0294 45.0473 82.4238C45.3942 82.8018 45.8733 83.1468 46.3855 83.4591C46.8042 83.7143 47.2561 83.9367 47.7141 84.162C47.8162 84.2122 47.9186 84.2626 48.021 84.3135C48.2688 84.4286 48.434 84.6915 48.401 84.9708C48.3349 85.4474 47.8723 85.6938 47.4758 85.546C46.8811 85.3159 46.2698 85.053 45.6585 84.7572C45.0638 84.445 44.4525 84.0835 43.9074 83.5741C43.3622 83.0647 42.8996 82.3745 42.6848 81.6186C42.4536 80.8627 42.4536 80.0904 42.5196 79.3838L42.5362 79.2524C42.5362 79.2031 42.5527 79.1373 42.5692 79.0881C42.5827 78.9943 42.6071 78.9115 42.6336 78.8217C42.6396 78.8014 42.6457 78.7807 42.6518 78.7594C42.7179 78.5458 42.8005 78.3486 42.8831 78.1678C43.0648 77.8063 43.2796 77.4777 43.5109 77.1983C43.9734 76.6232 44.4856 76.1467 44.9977 75.7194C45.8531 74.9921 46.743 74.3565 47.629 73.7456C46.3152 72.9492 44.9944 72.115 43.7091 71.1512C42.6353 70.3296 41.578 69.4258 40.6859 68.2427C40.2398 67.6512 39.8433 66.961 39.5625 66.1887C39.4303 65.7943 39.3312 65.3835 39.2651 64.9563C39.2155 64.5126 39.2155 64.0689 39.2651 63.6252C39.3642 62.7379 39.7111 61.9163 40.1242 61.2261C40.5537 60.536 41.0493 59.9608 41.5614 59.435C42.6022 58.3998 43.7091 57.5946 44.816 56.8551C45.2166 56.5895 45.6178 56.3323 46.0185 56.0816C44.9514 55.4848 43.8854 54.8514 42.8335 54.0781C42.2553 53.6673 41.6936 53.2072 41.1484 52.6649C40.6033 52.1226 40.0581 51.4982 39.612 50.7094C39.166 49.9371 38.8356 48.984 38.786 47.9817C38.7695 47.7352 38.7695 47.4887 38.786 47.2422C38.8011 47.0023 38.8299 46.817 38.86 46.6241L38.8686 46.5685C38.9347 46.1248 39.0338 45.6812 39.2155 45.221C39.5294 44.3173 40.1407 43.4299 40.8511 42.7726C41.2145 42.444 41.5945 42.1646 41.9745 41.9181C42.2223 41.7703 42.6518 41.5566 42.9161 41.4252C43.0648 41.3595 43.2135 41.3266 43.3622 41.3594L45.989 41.7374C46.3194 41.7867 46.5507 42.066 46.5507 42.3783V43.3642C46.5507 43.6271 46.4185 43.8572 46.1872 43.9886L43.23 45.6976C43.23 45.6976 43.197 47.6695 43.197 47.7352C43.197 47.9981 43.2465 48.2775 43.4118 48.6225C43.577 48.9512 43.8413 49.3291 44.1717 49.6906C44.5021 50.0521 44.8986 50.4301 45.3447 50.7752C46.2202 51.4818 47.228 52.1555 48.2688 52.8128C48.3567 52.8672 48.4449 52.9214 48.5334 52.9756L48.1366 37.2842C48.1201 36.5448 47.2941 36.1175 46.6663 36.5119L44.9151 37.6293C39.7607 40.9322 33.0864 41.9346 26.9242 40.3406L13.3774 36.8406C11.8079 36.4298 11.494 34.6386 12.8818 33.8663L34.4576 21.8379C35.8123 21.082 37.3652 20.6876 38.9677 20.6876C42.4866 20.6876 45.3281 23.1196 45.3281 26.1103C45.3281 26.1103 45.4273 26.9812 46.2698 27.7535C46.8976 28.3286 47.8888 27.8685 47.8723 27.0305L47.7732 22.906C47.7732 22.5116 47.6245 22.1336 47.3436 21.8543C46.7489 21.2299 46.3689 20.3918 46.3689 19.4552C46.3689 17.4833 48.0375 15.9058 50.02 16.0044C51.7877 16.103 53.2084 17.5326 53.291 19.2908C53.3406 20.2111 53.0102 21.0491 52.465 21.69C52.2172 21.9693 52.0685 22.3308 52.052 22.7088L51.9364 27.1619C51.9198 27.9507 52.845 28.4272 53.4728 27.9342C54.5301 27.1291 54.6457 26.1103 54.6457 26.1103C54.6457 23.1196 57.4873 20.6876 61.0061 20.6876C62.6086 20.6876 64.1781 21.0984 65.5163 21.8379ZM48.6786 58.7189C48.0106 59.076 47.3548 59.4376 46.7159 59.8129C45.6751 60.4209 44.6838 61.0782 43.8743 61.8013C43.4778 62.1628 43.1309 62.5407 42.8666 62.9187C42.6022 63.2966 42.437 63.6581 42.371 64.036C42.3379 64.2332 42.3214 64.414 42.3379 64.6112C42.3544 64.8084 42.3875 65.022 42.4536 65.2356C42.5692 65.6628 42.784 66.1065 43.0813 66.5502C43.6761 67.4211 44.5186 68.2592 45.4273 69.0315C46.3359 69.8038 47.3436 70.5432 48.3679 71.2498C48.5801 71.3973 48.7931 71.5433 49.0065 71.6886L48.6786 58.7189ZM50.8367 71.5749C50.9943 71.4672 51.1516 71.3589 51.3086 71.2498C52.3328 70.5432 53.3406 69.8038 54.2492 69.0315C55.1579 68.2592 56.0004 67.4211 56.5951 66.5502C56.8925 66.1065 57.1073 65.6628 57.2229 65.2356C57.289 65.022 57.3221 64.8084 57.3386 64.6112C57.3551 64.414 57.3386 64.2332 57.3055 64.036C57.2395 63.6581 57.0742 63.2966 56.8099 62.9187C56.5456 62.5407 56.1987 62.1628 55.8022 61.8013C54.9927 61.0782 54.0014 60.4209 52.9606 59.8129C52.3732 59.4679 51.7715 59.1344 51.1591 58.8053L50.8367 71.5749Z" fill="white"/>
</svg>
