<?xml version="1.0" encoding="utf-8"?>

<svg version="1.1" id="Layer_1" xmlns="http://www.w3.org/2000/svg" xmlns:xlink="http://www.w3.org/1999/xlink" x="0px" y="0px"
	 viewBox="0 0 400 400" style="enable-background:new 0 0 400 400;" xml:space="preserve">
<g>
	<path d="M199.95,77.68c32.59,0,63.22,12.69,86.27,35.73c23.04,23.04,35.73,53.68,35.73,86.27s-12.69,63.22-35.73,86.27
		c-23.04,23.04-53.68,35.73-86.27,35.73s-63.22-12.69-86.27-35.73c-23.04-23.04-35.73-53.68-35.73-86.27s12.69-63.22,35.73-86.27
		C136.72,90.37,167.36,77.68,199.95,77.68 M199.95,62.68c-75.66,0-137,61.34-137,137s61.34,137,137,137s137-61.34,137-137
		S275.61,62.68,199.95,62.68L199.95,62.68z"/>
	<g>
		<path d="M120.71,159.08h32.47l12.52,48.62l12.43-48.62h32.45v79.91h-20.22v-60.94l-15.58,60.94h-18.3l-15.55-60.94v60.94h-20.22
			V159.08z"/>
		<path d="M279.18,238.99h-20.71v-9.38c-3.09,3.85-6.21,6.6-9.35,8.23c-3.14,1.63-7,2.45-11.58,2.45c-6.1,0-10.89-1.83-14.36-5.48
			c-3.47-3.65-5.21-9.28-5.21-16.87V181.1h22.29v31.83c0,3.63,0.67,6.21,2.02,7.74c1.34,1.53,3.23,2.29,5.67,2.29
			c2.65,0,4.82-1.02,6.51-3.05c1.69-2.04,2.53-5.69,2.53-10.96V181.1h22.19V238.99z"/>
	</g>
</g>
</svg>
