<svg width="64px" height="64px" viewBox="0 0 64 64" fill="none" xmlns="http://www.w3.org/2000/svg"><path d="M32 16c-8.836 0-16 7.163-16 16 0 8.836 7.164 16 16 16 8.837 0 16-7.164 16-16 0-8.837-7.163-16-16-16zm8.482 7.712a1.18 1.18 0 0 0-.332-.17 9.3 9.3 0 0 0-.425-.139 1.887 1.887 0 0 1-.419-.183 1.006 1.006 0 0 1-.32-.301c-.083-.124-.126-.289-.126-.492 0-.197.04-.373.117-.52a1.13 1.13 0 0 1 .313-.375c.13-.1.282-.177.45-.227.172-.05.35-.076.53-.076.21 0 .415.03.61.089.187.057.36.153.511.283l-.536.587a.612.612 0 0 0-.267-.176 1.002 1.002 0 0 0-.333-.062.854.854 0 0 0-.19.021.728.728 0 0 0-.186.069.421.421 0 0 0-.145.125.324.324 0 0 0-.057.192c0 .122.044.213.136.278.086.061.196.114.327.156.128.043.269.086.416.128.146.042.284.102.411.178s.232.18.314.306c.083.127.124.3.124.514 0 .204-.038.384-.114.537-.076.152-.18.28-.31.38a1.34 1.34 0 0 1-.453.223c-.174.05-.358.074-.55.074-.24 0-.465-.037-.67-.11a1.678 1.678 0 0 1-.561-.342l.557-.613a.89.89 0 0 0 .313.25.962.962 0 0 0 .619.07.744.744 0 0 0 .19-.074.44.44 0 0 0 .14-.128.33.33 0 0 0 .054-.188.332.332 0 0 0-.138-.284zm-4.41-2.388h.785v2.99h1.532v.721h-2.317v-3.71zm-1.708 0h.785v3.711h-.785v-3.71zm-2.754 0h.657l1.614 3.711h-.887l-.323-.795h-1.487l-.313.796h-.865l1.604-3.712zm-4.864 0h1.431c.189 0 .37.018.54.056.167.035.316.097.442.182.126.085.227.2.301.342.074.143.112.325.112.54 0 .258-.068.481-.203.663a.902.902 0 0 1-.562.338l-.058.012.95 1.578h-.941l-.785-1.5h-.442v1.5h-.785v-3.71zm-4.124 1.047a1.761 1.761 0 0 1 1.05-1.006c.244-.09.515-.137.805-.137.296 0 .573.037.824.108.24.069.457.189.641.355l-.554.605a1.202 1.202 0 0 0-.373-.255 1.375 1.375 0 0 0-.538-.09c-.18 0-.343.029-.488.09a1.108 1.108 0 0 0-.376.257c-.104.11-.185.242-.24.392a1.41 1.41 0 0 0-.083.49c0 .178.027.344.083.493.055.148.136.279.24.388.104.11.23.196.376.257.144.06.309.091.488.091.181 0 .34-.02.473-.062.124-.038.227-.078.304-.12l.005-.002.01-.009.008-.015v-.63h-.673v-.72h1.426v1.928c-.24.123-.491.213-.747.267a3.822 3.822 0 0 1-.806.084c-.29 0-.56-.045-.805-.136a1.763 1.763 0 0 1-1.05-1.007c-.1-.24-.15-.51-.15-.807 0-.296.05-.568.15-.81zm5.122 12.735c-.24.105-.546.225-.665.288-.22.118-.562.375-.754.67a2.52 2.52 0 0 0-.317.714c-.026.124-.04.304-.037.516.006.494.091 1.152.26 1.603.194.512.3.683.522 1.202.095.22.183.428.226.53a.129.129 0 0 1-.011.124 1.16 1.16 0 0 1-.412.379c-.384.207-1.19.282-1.591.284h-.002c-.4-.003-1.207-.077-1.59-.284a1.157 1.157 0 0 1-.412-.38.13.13 0 0 1-.012-.123l.226-.53c.223-.52.328-.69.522-1.202.17-.451.255-1.109.26-1.603a2.473 2.473 0 0 0-.037-.516 2.513 2.513 0 0 0-.317-.713c-.191-.295-.533-.553-.753-.67-.166-.089-.693-.286-.9-.4a7.105 7.105 0 0 1-.838-.554 8.205 8.205 0 0 1-.959-.941c-.378-.47-.727-1.02-.895-1.613-.21-.736-.202-1.051-.23-1.289a.07.07 0 0 1 .067-.078c.202-.007.93-.024 3.477-.028.05 0 .095.03.113.078.716 1.896 2.583 3.465 5.048 4.319.1.034.11.174.011.217zm6.268 5.398c.313.832.484 1.107.846 1.95.154.357.298.697.368.861.029.067.02.14-.019.202a1.895 1.895 0 0 1-.669.616c-.622.336-1.933.458-2.583.46h-.003c-.65-.002-1.96-.124-2.583-.46a1.891 1.891 0 0 1-.669-.616.214.214 0 0 1-.018-.202c.07-.164.213-.504.366-.86.363-.844.534-1.12.847-1.951.276-.733.415-1.8.424-2.604a4.095 4.095 0 0 0-.06-.837c-.07-.318-.285-.801-.515-1.158-.31-.481-.866-.897-1.224-1.087-.27-.145-1.124-.465-1.46-.65a11.487 11.487 0 0 1-1.361-.898c-.417-.327-1.237-1.13-1.557-1.53-.615-.762-1.181-1.656-1.455-2.619-.34-1.195-.326-1.706-.372-2.092a.114.114 0 0 1 .108-.128c.415-.015 2.185-.053 9.531-.046 7.346-.007 9.116.031 9.53.046.067.003.117.061.109.128-.046.386-.033.897-.372 2.092-.274.963-.84 1.857-1.455 2.62-.32.398-1.14 1.202-1.557 1.529-.375.292-.933.662-1.362.898-.336.185-1.19.505-1.46.65-.357.19-.912.606-1.223 1.087-.23.357-.445.84-.514 1.157-.044.201-.064.496-.06.838.007.804.146 1.871.422 2.604zm9.834-7.004a8.16 8.16 0 0 1-.958.941c-.231.181-.575.408-.839.554-.207.114-.733.311-.898.4-.22.117-.563.374-.755.67-.141.219-.274.517-.316.713a2.502 2.502 0 0 0-.037.516c.005.494.09 1.152.26 1.603.194.512.299.683.521 1.201l.227.531a.129.129 0 0 1-.012.123 1.16 1.16 0 0 1-.412.38c-.384.207-1.19.281-1.59.284h-.002c-.4-.003-1.208-.077-1.59-.284a1.158 1.158 0 0 1-.413-.38.13.13 0 0 1-.012-.123c.043-.102.132-.311.227-.53.222-.52.328-.69.52-1.202.17-.451.256-1.109.261-1.603a2.581 2.581 0 0 0-.036-.516 2.53 2.53 0 0 0-.317-.714c-.192-.295-.534-.552-.754-.67-.12-.063-.427-.183-.665-.289-.099-.042-.09-.182.01-.217 2.466-.853 4.333-2.422 5.049-4.319a.12.12 0 0 1 .113-.077c2.546.004 3.275.02 3.477.027a.07.07 0 0 1 .066.079c-.026.237-.02.552-.229 1.288-.168.594-.517 1.144-.895 1.614zm-15.09-11.063a.404.404 0 0 1-.072.252.413.413 0 0 1-.176.131.771.771 0 0 1-.232.05 4.109 4.109 0 0 1-.236.008h-.51v-.896h.562c.075 0 .152.004.231.016.08.01.152.032.213.062a.411.411 0 0 1 .157.137.42.42 0 0 1 .062.24zm3.158-.1.492 1.246h-.979l.487-1.246z" fill="#FEB672"/></svg>