<?xml version="1.0" ?><svg width="100px" height="100px" viewBox="0 0 100 100" style="enable-background:new 0 0 100 100;" version="1.1" xml:space="preserve" xmlns="http://www.w3.org/2000/svg" xmlns:xlink="http://www.w3.org/1999/xlink"><style type="text/css">
	.st0{fill:#FFFFFF;}
	.st1{fill:#F5BB41;}
	.st2{fill:#2167D1;}
	.st3{fill:#3D84F3;}
	.st4{fill:#4CA853;}
	.st5{fill:#398039;}
	.st6{fill:#D74F3F;}
	.st7{fill:#D43C89;}
	.st8{fill:#B2005F;}
	.st9{fill:none;stroke:#000000;stroke-width:3;stroke-linecap:round;stroke-linejoin:round;stroke-miterlimit:10;}
	
		.st10{fill-rule:evenodd;clip-rule:evenodd;fill:none;stroke:#000000;stroke-width:3;stroke-linecap:round;stroke-linejoin:round;stroke-miterlimit:10;}
	
		.st11{fill-rule:evenodd;clip-rule:evenodd;fill:none;stroke:#040404;stroke-width:3;stroke-linecap:round;stroke-linejoin:round;stroke-miterlimit:10;}
	.st12{fill-rule:evenodd;clip-rule:evenodd;}
	.st13{fill-rule:evenodd;clip-rule:evenodd;fill:#040404;}
	.st14{fill:url(#SVGID_1_);}
	.st15{fill:url(#SVGID_2_);}
	.st16{fill:url(#SVGID_3_);}
	.st17{fill:url(#SVGID_4_);}
	.st18{fill:url(#SVGID_5_);}
	.st19{fill:url(#SVGID_6_);}
	.st20{fill:url(#SVGID_7_);}
	.st21{fill:url(#SVGID_8_);}
	.st22{fill:url(#SVGID_9_);}
	.st23{fill:url(#SVGID_10_);}
	.st24{fill:url(#SVGID_11_);}
	.st25{fill:url(#SVGID_12_);}
	.st26{fill:url(#SVGID_13_);}
	.st27{fill:url(#SVGID_14_);}
	.st28{fill:url(#SVGID_15_);}
	.st29{fill:url(#SVGID_16_);}
	.st30{fill:url(#SVGID_17_);}
	.st31{fill:url(#SVGID_18_);}
	.st32{fill:url(#SVGID_19_);}
	.st33{fill:url(#SVGID_20_);}
	.st34{fill:url(#SVGID_21_);}
	.st35{fill:url(#SVGID_22_);}
	.st36{fill:url(#SVGID_23_);}
	.st37{fill:url(#SVGID_24_);}
	.st38{fill:url(#SVGID_25_);}
	.st39{fill:url(#SVGID_26_);}
	.st40{fill:url(#SVGID_27_);}
	.st41{fill:url(#SVGID_28_);}
	.st42{fill:url(#SVGID_29_);}
	.st43{fill:url(#SVGID_30_);}
	.st44{fill:url(#SVGID_31_);}
	.st45{fill:url(#SVGID_32_);}
	.st46{fill:url(#SVGID_33_);}
	.st47{fill:url(#SVGID_34_);}
	.st48{fill:url(#SVGID_35_);}
	.st49{fill:url(#SVGID_36_);}
	.st50{fill:url(#SVGID_37_);}
	.st51{fill:url(#SVGID_38_);}
	.st52{fill:url(#SVGID_39_);}
	.st53{fill:url(#SVGID_40_);}
	.st54{fill:url(#SVGID_41_);}
	.st55{fill:url(#SVGID_42_);}
	.st56{fill:url(#SVGID_43_);}
	.st57{fill:url(#SVGID_44_);}
	.st58{fill:url(#SVGID_45_);}
	.st59{fill:#040404;}
	.st60{fill:url(#SVGID_46_);}
	.st61{fill:url(#SVGID_47_);}
	.st62{fill:url(#SVGID_48_);}
	.st63{fill:url(#SVGID_49_);}
	.st64{fill:url(#SVGID_50_);}
	.st65{fill:url(#SVGID_51_);}
	.st66{fill:url(#SVGID_52_);}
	.st67{fill:url(#SVGID_53_);}
	.st68{fill:url(#SVGID_54_);}
	.st69{fill:url(#SVGID_55_);}
	.st70{fill:url(#SVGID_56_);}
	.st71{fill:url(#SVGID_57_);}
	.st72{fill:url(#SVGID_58_);}
	.st73{fill:url(#SVGID_59_);}
	.st74{fill:url(#SVGID_60_);}
	.st75{fill:url(#SVGID_61_);}
	.st76{fill:url(#SVGID_62_);}
	.st77{fill:none;stroke:#000000;stroke-width:3;stroke-miterlimit:10;}
	.st78{fill:none;stroke:#FFFFFF;stroke-miterlimit:10;}
	.st79{fill:#4BC9FF;}
	.st80{fill:#5500DD;}
	.st81{fill:#FF3A00;}
	.st82{fill:#E6162D;}
	.st83{fill:#F1F1F1;}
	.st84{fill:#FF9933;}
	.st85{fill:#B92B27;}
	.st86{fill:#00ACED;}
	.st87{fill:#BD2125;}
	.st88{fill:#1877F2;}
	.st89{fill:#6665D2;}
	.st90{fill:#CE3056;}
	.st91{fill:#5BB381;}
	.st92{fill:#61C3EC;}
	.st93{fill:#E4B34B;}
	.st94{fill:#181EF2;}
	.st95{fill:#FF0000;}
	.st96{fill:#FE466C;}
	.st97{fill:#FA4778;}
	.st98{fill:#FF7700;}
	.st99{fill-rule:evenodd;clip-rule:evenodd;fill:#1F6BF6;}
	.st100{fill:#520094;}
	.st101{fill:#4477E8;}
	.st102{fill:#3D1D1C;}
	.st103{fill:#FFE812;}
	.st104{fill:#344356;}
	.st105{fill:#00CC76;}
	.st106{fill-rule:evenodd;clip-rule:evenodd;fill:#345E90;}
	.st107{fill:#1F65D8;}
	.st108{fill:#EB3587;}
	.st109{fill-rule:evenodd;clip-rule:evenodd;fill:#603A88;}
	.st110{fill:#E3CE99;}
	.st111{fill:#783AF9;}
	.st112{fill:#FF515E;}
	.st113{fill:#FF4906;}
	.st114{fill:#503227;}
	.st115{fill:#4C7BD9;}
	.st116{fill:#69C9D0;}
	.st117{fill:#1B92D1;}
	.st118{fill:#EB4F4A;}
	.st119{fill:#513728;}
	.st120{fill:#FF6600;}
	.st121{fill-rule:evenodd;clip-rule:evenodd;fill:#B61438;}
	.st122{fill:#FFFC00;}
	.st123{fill:#141414;}
	.st124{fill:#94D137;}
	.st125{fill-rule:evenodd;clip-rule:evenodd;fill:#F1F1F1;}
	.st126{fill-rule:evenodd;clip-rule:evenodd;fill:#66E066;}
	.st127{fill:#2D8CFF;}
	.st128{fill:#F1A300;}
	.st129{fill:#4BA2F2;}
	.st130{fill:#1A5099;}
	.st131{fill:#EE6060;}
	.st132{fill-rule:evenodd;clip-rule:evenodd;fill:#F48120;}
	.st133{fill:#222222;}
	.st134{fill:url(#SVGID_63_);}
	.st135{fill:#0077B5;}
	.st136{fill:#FFCC00;}
	.st137{fill:#EB3352;}
	.st138{fill:#F9D265;}
	.st139{fill:#F5B955;}
	.st140{fill:#DD2A7B;}
	.st141{fill:#66E066;}
	.st142{fill:#EB4E00;}
	.st143{fill:#FFC794;}
	.st144{fill:#B5332A;}
	.st145{fill:#4E85EB;}
	.st146{fill:#58A45C;}
	.st147{fill:#F2BC42;}
	.st148{fill:#D85040;}
	.st149{fill:#464EB8;}
	.st150{fill:#7B83EB;}
</style><g id="Layer_1"/><g id="Layer_2"><g><path class="st137" d="M86.532,69.539c-5.18,12.425-17.226,20.453-30.688,20.455c-9.357,0-18.357-4.881-26.711-14.463    c-5.838-7.241-10.796-15.183-14.738-23.606c-2.219-5.979-1.71-10.47,1.496-13.669c0.605-0.496,1.307-1.107,1.088-1.973    c-1.045-4.874,1.428-10.341,6.174-12.224c0.567-0.238,0.931-0.797,0.919-1.411c-0.295-8.617,10.082-13.688,16.894-8.609    c0.518,0.374,1.218,0.378,1.741,0.009c6.418-4.523,13.48,1.853,16.18,4.762c3.142,3.66,6.005,7.606,8.51,11.729    c0.266,0.438,0.737,0.71,1.25,0.721c0.515,0.034,0.995-0.24,1.279-0.666c2.058-3.082,5.638-4.863,9.38-4.625    c6.249,0.149,9.079,4.987,10.227,12.892C91.342,49.185,90.303,59.79,86.532,69.539z"/><path class="st138" d="M80.462,66.28c-3.948,9.717-13.964,16.565-24.752,16.568c-18.042-0.766-28.563-20.296-35.547-34.145    c-1.278-3.644-1.379-5.863,0-7.051c1.379-1.188,4.148-0.325,5.605,1.525c1.457,1.85,10.907,14.281,11.21,14.898    c0.302,0.627,1.015,0.941,1.682,0.74c0.588-0.517,0.653-1.41,0.146-2.007L23.46,34.948c-3.262-4.829,3.802-9.545,7.23-4.977    c0,0,13.026,17.79,13.026,17.79c0.331,0.682,1.086,0.802,1.738,0.56c0.617-0.426,0.426-1.3,0-1.917l-14.685-22.42    c-3.269-4.829,3.799-9.546,7.23-4.977c0,0,15.851,23.227,15.851,23.227c1.317,1.66,2.957,0.447,1.85-1.379    c-1.995-3.363-8.968-15.201-10.089-17.297c-3.311-6.641,2.789-7.676,8.508-1.569c4.831,5.93,9.136,12.269,12.869,18.945    c0.957,1.829,3.355,3.758,4.361,1.267c0.661-1.424,1.525-11.49,7.264-11.21c2.074,0,3.643,2.063,4.394,7.264    C84.758,47.653,83.877,57.351,80.462,66.28z"/><path class="st139" d="M69.05,50.992c-0.032-2.492-3.758-2.562-3.811-0.045c0.196,5.703,1.586,11.301,4.08,16.434    c1.202,2.147,4.465,0.479,3.363-1.749C70.548,61.037,69.219,56.081,69.05,50.992z"/><path class="st139" d="M58.468,49.479c-4.899,3.855-8.974,8.654-11.983,14.113c-0.655,0.939-0.321,2.278,0.704,2.793    c0.942,0.483,2.097,0.111,2.58-0.832c2.744-5.004,6.451-9.416,10.907-12.981C62.675,51.064,60.576,48.051,58.468,49.479z"/><path d="M60.687,6.309c5.131,2.219,9.466,5.944,12.432,10.683c1.169,2.327,4.501,0.6,3.554-1.704    C73.239,9.611,68.084,5.137,61.943,2.61C59.502,1.828,58.267,5.44,60.687,6.309z"/><path d="M31.788,93.893c-8.044-4.501-14.649-11.725-18.373-20.29c-0.605-2.507-4.369-1.6-3.744,0.919    c3.973,9.647,11.191,17.646,20.29,22.734C32.185,98.416,33.983,95.136,31.788,93.893z"/></g></g></svg>