<?xml version="1.0" ?><svg width="100px" height="100px" viewBox="0 0 100 100" style="enable-background:new 0 0 100 100;" version="1.1" xml:space="preserve" xmlns="http://www.w3.org/2000/svg" xmlns:xlink="http://www.w3.org/1999/xlink"><style type="text/css">
	.st0{fill:#FFFFFF;}
	.st1{fill:#F5BB41;}
	.st2{fill:#2167D1;}
	.st3{fill:#3D84F3;}
	.st4{fill:#4CA853;}
	.st5{fill:#398039;}
	.st6{fill:#D74F3F;}
	.st7{fill:#D43C89;}
	.st8{fill:#B2005F;}
	.st9{fill:none;stroke:#000000;stroke-width:3;stroke-linecap:round;stroke-linejoin:round;stroke-miterlimit:10;}
	
		.st10{fill-rule:evenodd;clip-rule:evenodd;fill:none;stroke:#000000;stroke-width:3;stroke-linecap:round;stroke-linejoin:round;stroke-miterlimit:10;}
	
		.st11{fill-rule:evenodd;clip-rule:evenodd;fill:none;stroke:#040404;stroke-width:3;stroke-linecap:round;stroke-linejoin:round;stroke-miterlimit:10;}
	.st12{fill-rule:evenodd;clip-rule:evenodd;}
	.st13{fill-rule:evenodd;clip-rule:evenodd;fill:#040404;}
	.st14{fill:url(#SVGID_1_);}
	.st15{fill:url(#SVGID_2_);}
	.st16{fill:url(#SVGID_3_);}
	.st17{fill:url(#SVGID_4_);}
	.st18{fill:url(#SVGID_5_);}
	.st19{fill:url(#SVGID_6_);}
	.st20{fill:url(#SVGID_7_);}
	.st21{fill:url(#SVGID_8_);}
	.st22{fill:url(#SVGID_9_);}
	.st23{fill:url(#SVGID_10_);}
	.st24{fill:url(#SVGID_11_);}
	.st25{fill:url(#SVGID_12_);}
	.st26{fill:url(#SVGID_13_);}
	.st27{fill:url(#SVGID_14_);}
	.st28{fill:url(#SVGID_15_);}
	.st29{fill:url(#SVGID_16_);}
	.st30{fill:url(#SVGID_17_);}
	.st31{fill:url(#SVGID_18_);}
	.st32{fill:url(#SVGID_19_);}
	.st33{fill:url(#SVGID_20_);}
	.st34{fill:url(#SVGID_21_);}
	.st35{fill:url(#SVGID_22_);}
	.st36{fill:url(#SVGID_23_);}
	.st37{fill:url(#SVGID_24_);}
	.st38{fill:url(#SVGID_25_);}
	.st39{fill:url(#SVGID_26_);}
	.st40{fill:url(#SVGID_27_);}
	.st41{fill:url(#SVGID_28_);}
	.st42{fill:url(#SVGID_29_);}
	.st43{fill:url(#SVGID_30_);}
	.st44{fill:url(#SVGID_31_);}
	.st45{fill:url(#SVGID_32_);}
	.st46{fill:url(#SVGID_33_);}
	.st47{fill:url(#SVGID_34_);}
	.st48{fill:url(#SVGID_35_);}
	.st49{fill:url(#SVGID_36_);}
	.st50{fill:url(#SVGID_37_);}
	.st51{fill:url(#SVGID_38_);}
	.st52{fill:url(#SVGID_39_);}
	.st53{fill:url(#SVGID_40_);}
	.st54{fill:url(#SVGID_41_);}
	.st55{fill:url(#SVGID_42_);}
	.st56{fill:url(#SVGID_43_);}
	.st57{fill:url(#SVGID_44_);}
	.st58{fill:url(#SVGID_45_);}
	.st59{fill:#040404;}
	.st60{fill:url(#SVGID_46_);}
	.st61{fill:url(#SVGID_47_);}
	.st62{fill:url(#SVGID_48_);}
	.st63{fill:url(#SVGID_49_);}
	.st64{fill:url(#SVGID_50_);}
	.st65{fill:url(#SVGID_51_);}
	.st66{fill:url(#SVGID_52_);}
	.st67{fill:url(#SVGID_53_);}
	.st68{fill:url(#SVGID_54_);}
	.st69{fill:url(#SVGID_55_);}
	.st70{fill:url(#SVGID_56_);}
	.st71{fill:url(#SVGID_57_);}
	.st72{fill:url(#SVGID_58_);}
	.st73{fill:url(#SVGID_59_);}
	.st74{fill:url(#SVGID_60_);}
	.st75{fill:url(#SVGID_61_);}
	.st76{fill:url(#SVGID_62_);}
	.st77{fill:none;stroke:#000000;stroke-width:3;stroke-miterlimit:10;}
	.st78{fill:none;stroke:#FFFFFF;stroke-miterlimit:10;}
	.st79{fill:#4BC9FF;}
	.st80{fill:#5500DD;}
	.st81{fill:#FF3A00;}
	.st82{fill:#E6162D;}
	.st83{fill:#F1F1F1;}
	.st84{fill:#FF9933;}
	.st85{fill:#B92B27;}
	.st86{fill:#00ACED;}
	.st87{fill:#BD2125;}
	.st88{fill:#1877F2;}
	.st89{fill:#6665D2;}
	.st90{fill:#CE3056;}
	.st91{fill:#5BB381;}
	.st92{fill:#61C3EC;}
	.st93{fill:#E4B34B;}
	.st94{fill:#181EF2;}
	.st95{fill:#FF0000;}
	.st96{fill:#FE466C;}
	.st97{fill:#FA4778;}
	.st98{fill:#FF7700;}
	.st99{fill-rule:evenodd;clip-rule:evenodd;fill:#1F6BF6;}
	.st100{fill:#520094;}
	.st101{fill:#4477E8;}
	.st102{fill:#3D1D1C;}
	.st103{fill:#FFE812;}
	.st104{fill:#344356;}
	.st105{fill:#00CC76;}
	.st106{fill-rule:evenodd;clip-rule:evenodd;fill:#345E90;}
	.st107{fill:#1F65D8;}
	.st108{fill:#EB3587;}
	.st109{fill-rule:evenodd;clip-rule:evenodd;fill:#603A88;}
	.st110{fill:#E3CE99;}
	.st111{fill:#783AF9;}
	.st112{fill:#FF515E;}
	.st113{fill:#FF4906;}
	.st114{fill:#503227;}
	.st115{fill:#4C7BD9;}
	.st116{fill:#69C9D0;}
	.st117{fill:#1B92D1;}
	.st118{fill:#EB4F4A;}
	.st119{fill:#513728;}
	.st120{fill:#FF6600;}
	.st121{fill-rule:evenodd;clip-rule:evenodd;fill:#B61438;}
	.st122{fill:#FFFC00;}
	.st123{fill:#141414;}
	.st124{fill:#94D137;}
	.st125{fill-rule:evenodd;clip-rule:evenodd;fill:#F1F1F1;}
	.st126{fill-rule:evenodd;clip-rule:evenodd;fill:#66E066;}
	.st127{fill:#2D8CFF;}
	.st128{fill:#F1A300;}
	.st129{fill:#4BA2F2;}
	.st130{fill:#1A5099;}
	.st131{fill:#EE6060;}
	.st132{fill-rule:evenodd;clip-rule:evenodd;fill:#F48120;}
	.st133{fill:#222222;}
	.st134{fill:url(#SVGID_63_);}
	.st135{fill:#0077B5;}
	.st136{fill:#FFCC00;}
	.st137{fill:#EB3352;}
	.st138{fill:#F9D265;}
	.st139{fill:#F5B955;}
	.st140{fill:#DD2A7B;}
	.st141{fill:#66E066;}
	.st142{fill:#EB4E00;}
	.st143{fill:#FFC794;}
	.st144{fill:#B5332A;}
	.st145{fill:#4E85EB;}
	.st146{fill:#58A45C;}
	.st147{fill:#F2BC42;}
	.st148{fill:#D85040;}
	.st149{fill:#464EB8;}
	.st150{fill:#7B83EB;}
</style><g id="Layer_1"/><g id="Layer_2"><g><g><g><path class="st113" d="M40.32,50.708c11.341-0.557,22.574-1.481,33.935-2.27c4.155-0.244,8.085-1.973,11.072-4.872      c7.131-7.698,6.081-20.093-2.27-26.461c-4.87-3.765-11.563-4.118-16.801-0.886c-1.795,1.244-3.514,2.593-5.148,4.041      C56.465,2.42,34.398-3.106,22.826,11.708C11.366,26.196,20.843,51.14,40.32,50.708z M72.178,24.108      c5.106-4.681,11.702,0.734,11.459,6.726c0.355,6.662-7.781,12.395-12.622,6.283C68.048,33.113,68.548,27.522,72.178,24.108z       M35.559,18.572c3.997-6.089,13.688-5.638,17.05,0.858c4.214,6.863,1.455,17.516-6.556,20.056      C34.044,42.571,29.023,26.734,35.559,18.572z"/><path class="st113" d="M83.61,52.811c-4.857-0.707-9.732-1.14-14.642-0.886c-7.833,0.803-15.694,1.467-23.527,2.159      c-1.793,0.008-3.439,0.996-4.29,2.574c-0.407,0.582-0.271,1.383,0.305,1.799c3.432,3.432,6.809,6.92,10.214,10.352      c1.198,1.108,1.846,2.688,1.771,4.318c-0.214,2.989,0.772,6.471-1.328,8.968c-1.661,2.076-3.156,4.263-4.844,6.532l4.789,2.021      c2.181,0.903,4.587,1.115,6.892,0.609c7.889-1.744,14.774-3.463,22.635-5.29c2.547-0.407,4.476-2.519,4.65-5.093      c-0.55-2.369,1.259-15.607-0.996-15.196c-4.816,0.913-8.657,1.72-13.473,2.661c-0.745,0.043-1.31,0.696-1.246,1.439      c0.509,1.783-1.276,7.673,1.218,7.556l2.242-0.554l2.602-0.498c0.057,0.792,0.057,1.588,0,2.38      c-0.055,0.36-0.415,0.941-0.72,0.941c-2.059,0.537-4.148,0.953-6.255,1.246c-1.35,0.341-2.702-0.825-2.547-2.214      c-0.138-3.571,0-7.169,0-10.767c0.097-1.537,1.247-2.802,2.768-3.045l2.353-0.443l13.618-2.546      c2.284-0.327,1.199-3.248,1.439-4.872C87.319,54.837,85.728,53.015,83.61,52.811z"/><path class="st113" d="M50.035,74.179c-0.034-0.978-0.606-1.894-1.107-2.713c-3.598-3.654-7.252-7.252-11.072-10.767      c-0.991-0.971-2.224-1.659-3.57-1.993c-5.813-1.19-11.625-2.27-17.493-3.128c-3.412-0.722-6.719,2.055-6.615,5.536      c0,4.512-0.221,17.272-0.221,21.645c-0.24,3.699,1.863,7.152,5.259,8.636c5.384,2.401,11.033,4.157,16.829,5.231      c2.495,0.641,5.125-0.343,6.588-2.463c2.768-3.847,5.757-7.473,8.608-11.238C50.644,78.304,50.035,80.324,50.035,74.179z       M32.708,85.528c0.044,2.208-2.177,3.891-4.29,3.266c0,0-10.629-2.934-10.629-2.934c-1.248-0.351-2.123-1.472-2.159-2.768      V65.239c-0.024-1.595,1.523-2.831,3.072-2.463l11.431,2.629c1.587,0.302,2.744,1.678,2.768,3.294L32.708,85.528z"/></g></g></g></g></svg>