<?xml version="1.0" ?><svg width="100px" height="100px" viewBox="0 0 100 100" style="enable-background:new 0 0 100 100;" version="1.1" xml:space="preserve" xmlns="http://www.w3.org/2000/svg" xmlns:xlink="http://www.w3.org/1999/xlink"><style type="text/css">
	.st0{fill:#FFFFFF;}
	.st1{fill:#F5BB41;}
	.st2{fill:#2167D1;}
	.st3{fill:#3D84F3;}
	.st4{fill:#4CA853;}
	.st5{fill:#398039;}
	.st6{fill:#D74F3F;}
	.st7{fill:#D43C89;}
	.st8{fill:#B2005F;}
	.st9{fill:none;stroke:#000000;stroke-width:3;stroke-linecap:round;stroke-linejoin:round;stroke-miterlimit:10;}
	
		.st10{fill-rule:evenodd;clip-rule:evenodd;fill:none;stroke:#000000;stroke-width:3;stroke-linecap:round;stroke-linejoin:round;stroke-miterlimit:10;}
	
		.st11{fill-rule:evenodd;clip-rule:evenodd;fill:none;stroke:#040404;stroke-width:3;stroke-linecap:round;stroke-linejoin:round;stroke-miterlimit:10;}
	.st12{fill-rule:evenodd;clip-rule:evenodd;}
	.st13{fill-rule:evenodd;clip-rule:evenodd;fill:#040404;}
	.st14{fill:url(#SVGID_1_);}
	.st15{fill:url(#SVGID_2_);}
	.st16{fill:url(#SVGID_3_);}
	.st17{fill:url(#SVGID_4_);}
	.st18{fill:url(#SVGID_5_);}
	.st19{fill:url(#SVGID_6_);}
	.st20{fill:url(#SVGID_7_);}
	.st21{fill:url(#SVGID_8_);}
	.st22{fill:url(#SVGID_9_);}
	.st23{fill:url(#SVGID_10_);}
	.st24{fill:url(#SVGID_11_);}
	.st25{fill:url(#SVGID_12_);}
	.st26{fill:url(#SVGID_13_);}
	.st27{fill:url(#SVGID_14_);}
	.st28{fill:url(#SVGID_15_);}
	.st29{fill:url(#SVGID_16_);}
	.st30{fill:url(#SVGID_17_);}
	.st31{fill:url(#SVGID_18_);}
	.st32{fill:url(#SVGID_19_);}
	.st33{fill:url(#SVGID_20_);}
	.st34{fill:url(#SVGID_21_);}
	.st35{fill:url(#SVGID_22_);}
	.st36{fill:url(#SVGID_23_);}
	.st37{fill:url(#SVGID_24_);}
	.st38{fill:url(#SVGID_25_);}
	.st39{fill:url(#SVGID_26_);}
	.st40{fill:url(#SVGID_27_);}
	.st41{fill:url(#SVGID_28_);}
	.st42{fill:url(#SVGID_29_);}
	.st43{fill:url(#SVGID_30_);}
	.st44{fill:url(#SVGID_31_);}
	.st45{fill:url(#SVGID_32_);}
	.st46{fill:url(#SVGID_33_);}
	.st47{fill:url(#SVGID_34_);}
	.st48{fill:url(#SVGID_35_);}
	.st49{fill:url(#SVGID_36_);}
	.st50{fill:url(#SVGID_37_);}
	.st51{fill:url(#SVGID_38_);}
	.st52{fill:url(#SVGID_39_);}
	.st53{fill:url(#SVGID_40_);}
	.st54{fill:url(#SVGID_41_);}
	.st55{fill:url(#SVGID_42_);}
	.st56{fill:url(#SVGID_43_);}
	.st57{fill:url(#SVGID_44_);}
	.st58{fill:url(#SVGID_45_);}
	.st59{fill:#040404;}
	.st60{fill:url(#SVGID_46_);}
	.st61{fill:url(#SVGID_47_);}
	.st62{fill:url(#SVGID_48_);}
	.st63{fill:url(#SVGID_49_);}
	.st64{fill:url(#SVGID_50_);}
	.st65{fill:url(#SVGID_51_);}
	.st66{fill:url(#SVGID_52_);}
	.st67{fill:url(#SVGID_53_);}
	.st68{fill:url(#SVGID_54_);}
	.st69{fill:url(#SVGID_55_);}
	.st70{fill:url(#SVGID_56_);}
	.st71{fill:url(#SVGID_57_);}
	.st72{fill:url(#SVGID_58_);}
	.st73{fill:url(#SVGID_59_);}
	.st74{fill:url(#SVGID_60_);}
	.st75{fill:url(#SVGID_61_);}
	.st76{fill:url(#SVGID_62_);}
	.st77{fill:none;stroke:#000000;stroke-width:3;stroke-miterlimit:10;}
	.st78{fill:none;stroke:#FFFFFF;stroke-miterlimit:10;}
	.st79{fill:#4BC9FF;}
	.st80{fill:#5500DD;}
	.st81{fill:#FF3A00;}
	.st82{fill:#E6162D;}
	.st83{fill:#F1F1F1;}
	.st84{fill:#FF9933;}
	.st85{fill:#B92B27;}
	.st86{fill:#00ACED;}
	.st87{fill:#BD2125;}
	.st88{fill:#1877F2;}
	.st89{fill:#6665D2;}
	.st90{fill:#CE3056;}
	.st91{fill:#5BB381;}
	.st92{fill:#61C3EC;}
	.st93{fill:#E4B34B;}
	.st94{fill:#181EF2;}
	.st95{fill:#FF0000;}
	.st96{fill:#FE466C;}
	.st97{fill:#FA4778;}
	.st98{fill:#FF7700;}
	.st99{fill-rule:evenodd;clip-rule:evenodd;fill:#1F6BF6;}
	.st100{fill:#520094;}
	.st101{fill:#4477E8;}
	.st102{fill:#3D1D1C;}
	.st103{fill:#FFE812;}
	.st104{fill:#344356;}
	.st105{fill:#00CC76;}
	.st106{fill-rule:evenodd;clip-rule:evenodd;fill:#345E90;}
	.st107{fill:#1F65D8;}
	.st108{fill:#EB3587;}
	.st109{fill-rule:evenodd;clip-rule:evenodd;fill:#603A88;}
	.st110{fill:#E3CE99;}
	.st111{fill:#783AF9;}
	.st112{fill:#FF515E;}
	.st113{fill:#FF4906;}
	.st114{fill:#503227;}
	.st115{fill:#4C7BD9;}
	.st116{fill:#69C9D0;}
	.st117{fill:#1B92D1;}
	.st118{fill:#EB4F4A;}
	.st119{fill:#513728;}
	.st120{fill:#FF6600;}
	.st121{fill-rule:evenodd;clip-rule:evenodd;fill:#B61438;}
	.st122{fill:#FFFC00;}
	.st123{fill:#141414;}
	.st124{fill:#94D137;}
	.st125{fill-rule:evenodd;clip-rule:evenodd;fill:#F1F1F1;}
	.st126{fill-rule:evenodd;clip-rule:evenodd;fill:#66E066;}
	.st127{fill:#2D8CFF;}
	.st128{fill:#F1A300;}
	.st129{fill:#4BA2F2;}
	.st130{fill:#1A5099;}
	.st131{fill:#EE6060;}
	.st132{fill-rule:evenodd;clip-rule:evenodd;fill:#F48120;}
	.st133{fill:#222222;}
	.st134{fill:url(#SVGID_63_);}
	.st135{fill:#0077B5;}
	.st136{fill:#FFCC00;}
	.st137{fill:#EB3352;}
	.st138{fill:#F9D265;}
	.st139{fill:#F5B955;}
	.st140{fill:#DD2A7B;}
	.st141{fill:#66E066;}
	.st142{fill:#EB4E00;}
	.st143{fill:#FFC794;}
	.st144{fill:#B5332A;}
	.st145{fill:#4E85EB;}
	.st146{fill:#58A45C;}
	.st147{fill:#F2BC42;}
	.st148{fill:#D85040;}
	.st149{fill:#464EB8;}
	.st150{fill:#7B83EB;}
</style><g id="Layer_1"/><g id="Layer_2"><g><g><path class="st105" d="M96.016,39.744C92.024,8.546,50.272-3.26,25.207,10.963C-12.474,32.265,3.399,77.179,42.212,82.329     c0,0,0.52,0.103,0.52,0.103c1.223,0.242,1.552,0.575,1.637,0.706c0.157,0.245,0.075,0.727,0.012,0.992     c-0.533,2.241-1.191,4.402-0.761,6.908c1.268,6.699,8.309,3.4,11.868,1.069c4.503-2.645,8.746-5.628,11.939-7.931     C82.525,73.653,98.457,60.571,96.016,39.744z"/><path class="st83" d="M32.534,53.849h-7.981c-1.206,0-2.184-0.978-2.184-2.184V34.914c0.072-2.874,4.293-2.885,4.367,0     c0,0,0,14.567,0,14.567h5.796C35.409,49.551,35.416,53.777,32.534,53.849z"/><path class="st83" d="M40.859,51.606c-0.071,2.875-4.294,2.884-4.368,0c0-3.39,0-13.523,0-16.751     c0.071-2.875,4.294-2.884,4.368,0C40.859,34.855,40.859,51.606,40.859,51.606z"/><path class="st83" d="M60.598,51.606c0.063,2.049-2.787,2.991-3.951,1.283c0,0-7.863-10.83-7.863-10.83v9.548     c-0.069,2.874-4.295,2.884-4.367,0c0,0,0-16.272,0-16.272c-0.04-2.069,2.766-2.987,3.951-1.283c0,0,7.864,10.83,7.864,10.83     V34.855c0.069-2.875,4.295-2.884,4.367,0C60.598,34.855,60.598,51.606,60.598,51.606z"/><path class="st83" d="M76.51,53.446H65.702c-1.206,0-2.184-0.978-2.184-2.184c0.003-4.175-0.002-12.577,0-16.751     c0-1.206,0.978-2.184,2.184-2.184h10.473c2.879,0.075,2.882,4.293,0,4.367h-8.289v4.008h6.726c2.878,0.072,2.881,4.295,0,4.367     h-6.726v4.008h8.624C79.385,49.147,79.393,53.374,76.51,53.446z"/></g></g></g></svg>