<svg width="128px" height="128px" viewBox="0 0 128 128" fill="none" xmlns="http://www.w3.org/2000/svg">
<path d="M115.2 0H12.8C5.73076 0 0 5.73076 0 12.8V115.2C0 122.269 5.73076 128 12.8 128H115.2C122.269 128 128 122.269 128 115.2V12.8C128 5.73076 122.269 0 115.2 0Z" fill="#F1C761"/>
<path d="M59.769 89.0683V39.5889L47.7361 41.2789L38.5343 59.1111L29.7896 43.402L19.6745 45.0007V83.9991L29.1958 85.6203V60.9379L38.5113 78.4959H38.7171L48.5353 60.8697V87.401L59.769 89.0683ZM19.4688 33.767V38.8814L63.993 31.5061V24.9766L19.4688 33.767ZM19.4688 94.2514L63.993 103.019V96.5117L19.4688 89.1135V94.2514Z" fill="black" fill-opacity="0.35"/>
<path d="M64 24.9766V31.5065L108.524 38.8818V33.7674L64 24.9766ZM108.318 83.9995V45.0011L98.2039 43.4028L89.4588 59.1115L80.2568 41.2797L68.2245 39.5894V89.0687L79.4581 87.4014V60.8705L89.2766 78.4964H89.4818L98.7977 60.9388V85.6207L108.319 83.9995H108.318ZM64 103.02L108.524 94.2518V89.1139L64.0004 96.5121V103.019" fill="white"/>
</svg>
