<?xml version="1.0" encoding="UTF-8"?>
<!DOCTYPE svg PUBLIC "-//W3C//DTD SVG 1.1//EN" "http://www.w3.org/Graphics/SVG/1.1/DTD/svg11.dtd">
<svg width="0px" height="0px" version="1.1" xmlns="http://www.w3.org/2000/svg" xmlns:xlink="http://www.w3.org/1999/xlink" x="0" y="0">
  <g id="ServerlessLogo">
    <path d="M88.778,0.701 C88.778,0.701 91.471,3.076 91.471,3.076 C91.471,3.076 91.111,26.889 91.111,26.889 C91.111,26.889 76.659,51.264 76.659,51.264 C76.659,51.264 93.346,49.451 93.346,49.451 C93.346,49.451 93.659,74.889 93.659,74.889 C93.659,74.889 10.784,149.451 10.784,149.451 C10.784,149.451 10.784,121.014 10.784,121.014 C10.784,121.014 30.596,87.701 30.596,87.701 C30.596,87.701 1.471,92.389 1.471,92.389 C1.471,92.389 1.409,75.201 1.409,75.201 C1.409,75.201 88.778,0.576 88.778,0.701 z M88.437,57.3 C88.45,57.326 15.733,123.143 15.733,123.143 C15.733,123.143 15.78,138.393 15.78,138.393 C15.78,138.393 88.593,72.831 88.593,72.831 C88.593,72.831 88.437,57.3 88.437,57.3 z M41.521,70.754 C41.521,70.754 8.881,75.738 8.88,75.738 C8.881,75.738 6.552,77.707 6.552,77.707 C6.552,77.707 6.537,86.738 6.521,86.738 C6.521,86.738 34.552,82.145 34.552,82.145 C34.552,82.145 41.521,70.754 41.521,70.754 z M86.472,12.896 C86.472,12.896 60.566,54.381 60.535,54.35 C60.535,54.35 69.769,53.209 69.769,53.209 C69.769,53.209 86.331,25.459 86.331,25.459 C86.331,25.459 86.472,12.896 86.472,12.896 z" fill="#FD5750"/>
  </g>
</svg>
