<svg width="128px" height="128px" viewBox="0 0 128 128"      version="1.1" xmlns="http://www.w3.org/2000/svg" xmlns:xlink="http://www.w3.org/1999/xlink">
    <title>Serverless SSR-128px</title>
    <defs>
        <linearGradient x1="80.2530952%" y1="111.133148%" x2="19.7469048%" y2="-11.1331481%" id="linearGradient-1">
            <stop stop-color="#0063FF" offset="0%"></stop>
            <stop stop-color="#00C8DE" offset="100%"></stop>
        </linearGradient>
    </defs>
    <g id="Serverless-SSR-128px" stroke="none" stroke-width="1" fill="none" fill-rule="evenodd">
        <g id="group">
            <path d="M64.5948704,2 C97.5989938,2 124.534349,27.4736328 127,59.7646484 L127,59.7646484 L124.154868,59.7646484 C121.689216,28.9882812 95.9871759,4.84082031 64.5948704,4.84082031 C31.5897689,4.84082031 4.84513247,31.5458984 4.84513247,64.5 C4.84513247,97.4541016 31.5897689,124.15918 64.5948704,124.15918 C95.9871759,124.15918 121.689216,100.011719 124.154868,69.234375 L124.154868,69.234375 L127,69.234375 C124.534349,101.526367 97.5989938,127 64.5948704,127 C29.977951,127 2,99.0644531 2,64.5 C2,29.9355469 29.977951,2 64.5948704,2 Z M64,33 L92.1212121,48.75 L92.1212121,60.1648125 L74.6666667,69.973125 L74.6666667,66.5957344 L89.2121212,58.4490469 L89.2121212,50.4933281 L81.9384242,46.4199844 L64.96875,55.5755937 L64.96875,74.9667969 L49.0792727,84.2711719 L64,92.6275313 L88.3122424,78.9880313 C88.2715152,78.7576875 88.2424242,78.5234062 88.2424242,78.28125 C88.2424242,76.1067656 89.9791515,74.34375 92.1212121,74.34375 C94.2632727,74.34375 96,76.1067656 96,78.28125 C96,80.4557344 94.2632727,82.21875 92.1212121,82.21875 C91.2901818,82.21875 90.5250909,81.9490312 89.8938182,81.4972031 L89.8938182,81.4972031 L64,96 L35.8787879,80.25 L35.8787879,68.7958125 L53.3333333,59.0485312 L53.3333333,62.421 L38.7878788,70.5676875 L38.7878788,78.5066719 L46.0683636,82.5839531 L62.0596591,73.23725 L62.0596591,53.7879687 L78.9255758,44.7317813 L64,36.3724688 L39.6858182,49.9922813 C39.7294545,50.2285313 39.7575758,50.4697031 39.7575758,50.71875 C39.7575758,52.8932344 38.0208485,54.65625 35.8787879,54.65625 C33.7367273,54.65625 32,52.8932344 32,50.71875 C32,48.5442656 33.7367273,46.78125 35.8787879,46.78125 C36.7098182,46.78125 37.4749091,47.0509688 38.1061818,47.5027969 L38.1061818,47.5027969 L64,33 Z" id="形状结合" fill="url(#linearGradient-1)" fill-rule="nonzero"></path>
            <rect id="Rectangle-Copy" fill="#444444" opacity="0" x="0" y="0" width="128" height="128"></rect>
        </g>
    </g>
</svg>