<?xml version="1.0" ?><svg width="100px" height="100px" viewBox="0 0 100 100" style="enable-background:new 0 0 100 100;" version="1.1" xml:space="preserve" xmlns="http://www.w3.org/2000/svg" xmlns:xlink="http://www.w3.org/1999/xlink"><style type="text/css">
	.st0{fill:#FFFFFF;}
	.st1{fill:#D43C89;}
	.st2{fill:#B2005F;}
	.st3{fill:none;stroke:#000000;stroke-width:3;stroke-linecap:round;stroke-linejoin:round;stroke-miterlimit:10;}
	
		.st4{fill-rule:evenodd;clip-rule:evenodd;fill:none;stroke:#000000;stroke-width:3;stroke-linecap:round;stroke-linejoin:round;stroke-miterlimit:10;}
	
		.st5{fill-rule:evenodd;clip-rule:evenodd;fill:none;stroke:#040404;stroke-width:3;stroke-linecap:round;stroke-linejoin:round;stroke-miterlimit:10;}
	.st6{fill-rule:evenodd;clip-rule:evenodd;}
	.st7{fill-rule:evenodd;clip-rule:evenodd;fill:#040404;}
	.st8{fill:url(#SVGID_1_);}
	.st9{fill:url(#SVGID_2_);}
	.st10{fill:url(#SVGID_3_);}
	.st11{fill:url(#SVGID_4_);}
	.st12{fill:url(#SVGID_5_);}
	.st13{fill:url(#SVGID_6_);}
	.st14{fill:url(#SVGID_7_);}
	.st15{fill:url(#SVGID_8_);}
	.st16{fill:url(#SVGID_9_);}
	.st17{fill:url(#SVGID_10_);}
	.st18{fill:url(#SVGID_11_);}
	.st19{fill:url(#SVGID_12_);}
	.st20{fill:url(#SVGID_13_);}
	.st21{fill:url(#SVGID_14_);}
	.st22{fill:url(#SVGID_15_);}
	.st23{fill:url(#SVGID_16_);}
	.st24{fill:url(#SVGID_17_);}
	.st25{fill:url(#SVGID_18_);}
	.st26{fill:url(#SVGID_19_);}
	.st27{fill:url(#SVGID_20_);}
	.st28{fill:url(#SVGID_21_);}
	.st29{fill:url(#SVGID_22_);}
	.st30{fill:url(#SVGID_23_);}
	.st31{fill:url(#SVGID_24_);}
	.st32{fill:url(#SVGID_25_);}
	.st33{fill:url(#SVGID_26_);}
	.st34{fill:url(#SVGID_27_);}
	.st35{fill:url(#SVGID_28_);}
	.st36{fill:url(#SVGID_29_);}
	.st37{fill:url(#SVGID_30_);}
	.st38{fill:url(#SVGID_31_);}
	.st39{fill:url(#SVGID_32_);}
	.st40{fill:url(#SVGID_33_);}
	.st41{fill:url(#SVGID_34_);}
	.st42{fill:url(#SVGID_35_);}
	.st43{fill:url(#SVGID_36_);}
	.st44{fill:url(#SVGID_37_);}
	.st45{fill:url(#SVGID_38_);}
	.st46{fill:url(#SVGID_39_);}
	.st47{fill:url(#SVGID_40_);}
	.st48{fill:url(#SVGID_41_);}
	.st49{fill:url(#SVGID_42_);}
	.st50{fill:url(#SVGID_43_);}
	.st51{fill:url(#SVGID_44_);}
	.st52{fill:url(#SVGID_45_);}
	.st53{fill:#040404;}
	.st54{fill:url(#SVGID_46_);}
	.st55{fill:url(#SVGID_47_);}
	.st56{fill:url(#SVGID_48_);}
	.st57{fill:url(#SVGID_49_);}
	.st58{fill:url(#SVGID_50_);}
	.st59{fill:url(#SVGID_51_);}
	.st60{fill:url(#SVGID_52_);}
	.st61{fill:url(#SVGID_53_);}
	.st62{fill:url(#SVGID_54_);}
	.st63{fill:url(#SVGID_55_);}
	.st64{fill:url(#SVGID_56_);}
	.st65{fill:url(#SVGID_57_);}
	.st66{fill:url(#SVGID_58_);}
	.st67{fill:url(#SVGID_59_);}
	.st68{fill:url(#SVGID_60_);}
	.st69{fill:url(#SVGID_61_);}
	.st70{fill:url(#SVGID_62_);}
	.st71{fill:none;stroke:#000000;stroke-width:3;stroke-miterlimit:10;}
	.st72{fill:none;stroke:#FFFFFF;stroke-miterlimit:10;}
	.st73{fill:#4BC9FF;}
	.st74{fill:#5500DD;}
	.st75{fill:#FF3A00;}
	.st76{fill:#E6162D;}
	.st77{fill:#F1F1F1;}
	.st78{fill:#FF9933;}
	.st79{fill:#B92B27;}
	.st80{fill:#00ACED;}
	.st81{fill:#BD2125;}
	.st82{fill:#1877F2;}
	.st83{fill:#6665D2;}
	.st84{fill:#CE3056;}
	.st85{fill:#5BB381;}
	.st86{fill:#61C3EC;}
	.st87{fill:#E4B34B;}
	.st88{fill:#181EF2;}
	.st89{fill:#FF0000;}
	.st90{fill:#FE466C;}
	.st91{fill:#FA4778;}
	.st92{fill:#FF7700;}
	.st93{fill-rule:evenodd;clip-rule:evenodd;fill:#1F6BF6;}
	.st94{fill:#520094;}
	.st95{fill:#4477E8;}
	.st96{fill:#3D1D1C;}
	.st97{fill:#FFE812;}
	.st98{fill:#344356;}
	.st99{fill:#00CC76;}
	.st100{fill-rule:evenodd;clip-rule:evenodd;fill:#345E90;}
	.st101{fill:#1F65D8;}
	.st102{fill:#EB3587;}
	.st103{fill-rule:evenodd;clip-rule:evenodd;fill:#603A88;}
	.st104{fill:#E3CE99;}
	.st105{fill:#783AF9;}
	.st106{fill:#FF515E;}
	.st107{fill:#FF4906;}
	.st108{fill:#503227;}
	.st109{fill:#4C7BD9;}
	.st110{fill:#69C9D0;}
	.st111{fill:#1B92D1;}
	.st112{fill:#EB4F4A;}
	.st113{fill:#513728;}
	.st114{fill:#FF6600;}
	.st115{fill-rule:evenodd;clip-rule:evenodd;fill:#B61438;}
	.st116{fill:#FFFC00;}
	.st117{fill:#141414;}
	.st118{fill:#94D137;}
	.st119{fill-rule:evenodd;clip-rule:evenodd;fill:#F1F1F1;}
	.st120{fill-rule:evenodd;clip-rule:evenodd;fill:#66E066;}
	.st121{fill:#2D8CFF;}
	.st122{fill:#F1A300;}
	.st123{fill:#4BA2F2;}
	.st124{fill:#1A5099;}
	.st125{fill:#EE6060;}
	.st126{fill-rule:evenodd;clip-rule:evenodd;fill:#F48120;}
	.st127{fill:#222222;}
	.st128{fill:url(#SVGID_63_);}
	.st129{fill:#0077B5;}
	.st130{fill:#FFCC00;}
	.st131{fill:#EB3352;}
	.st132{fill:#F9D265;}
	.st133{fill:#F5B955;}
	.st134{fill:#DD2A7B;}
	.st135{fill:#F5BB41;}
	.st136{fill:#2167D1;}
	.st137{fill:#3D84F3;}
	.st138{fill:#4CA853;}
	.st139{fill:#398039;}
	.st140{fill:#D74F3F;}
	.st141{fill:#66E066;}
	.st142{fill:#EB4E00;}
	.st143{fill:#FFC794;}
	.st144{fill:#B5332A;}
	.st145{fill:#4E85EB;}
	.st146{fill:#58A45C;}
	.st147{fill:#F2BC42;}
	.st148{fill:#D85040;}
	.st149{fill:#464EB8;}
	.st150{fill:#7B83EB;}
</style><g id="Layer_1"/><g id="Layer_2"><g><g><path class="st94" d="M94.357,4.571c0-0.249-0.039-0.498-0.075-0.936c-26.954,0-53.901,0.011-80.854-0.031     c-1.24-0.002-1.786,0.356-2.203,1.528c-1.567,4.412-3.255,8.78-4.912,13.159c-0.177,0.469-0.447,0.903-0.674,1.353     c0,21.457,0,42.913,0,64.37c7.439,0.113,14.843-0.127,22.279,0.215c0,4.148,0,8.156,0,12.164c4.023,0,8.045,0,12.068,0     c3.169-3.23,6.449-6.36,9.466-9.727c1.769-1.974,3.651-2.764,6.301-2.633c4.319,0.214,8.657,0.114,12.984,0.009     c0.863-0.021,1.924-0.437,2.533-1.037c7.413-7.31,14.769-14.679,22.101-22.07c0.486-0.49,0.948-1.281,0.95-1.933     C94.371,40.86,94.361,22.716,94.357,4.571z M86.51,54.516c0.002,1.062-0.289,1.829-1.049,2.576     c-4.079,4.012-8.085,8.1-12.193,12.082c-0.582,0.564-2.581,0.973-3.393,0.983c-6.442,0.079-11.91,0.009-18.352,0.088     c-0.812,0.01-1.806,0.427-2.394,0.991c-3.853,3.642-7.247,7.334-11.153,10.983c0-3.69-0.12-7.113-0.116-10.754     c0.02-1.08-0.352-1.271-1.427-1.261l-6.837,0.02c-1.323-0.006-8.545,0.004-9.784,0c0-19.6,0-38.814,0-58.474     c22.229-0.001,44.472,0.001,66.697,0C86.435,27.885,86.506,38.532,86.51,54.516z"/><path class="st94" d="M72.653,28.926c0.005-0.899-0.74-1.625-1.64-1.628c-2.167-0.007-4.794-0.026-4.794-0.026     s-1.588,0.411-1.58,1.626c0.041,5.837,0.063,17.09,0.088,21.322c0.005,0.911,0.752,1.638,1.663,1.63     c1.621-0.014,3.159-0.034,4.693,0.032c1.254,0.054,1.607-0.38,1.598-1.618C72.629,43.153,72.657,36.039,72.653,28.926z"/><path class="st94" d="M49.932,28.926c0.006-0.899-0.74-1.625-1.64-1.628c-2.167-0.007-4.794-0.026-4.794-0.026     s-1.588,0.411-1.58,1.626c0.041,5.837,0.063,17.09,0.088,21.322c0.005,0.911,0.752,1.638,1.663,1.63     c1.62-0.014,3.159-0.034,4.693,0.032c1.254,0.054,1.607-0.38,1.598-1.618C49.908,43.153,49.937,36.039,49.932,28.926z"/></g></g></g></svg>