<svg xmlns="http://www.w3.org/2000/svg" viewBox="0 0 618.57 422.15" preserveAspectRatio="none">
    <defs>
        <style>.cls-1{fill:#fff;stroke:#1f1d1e;stroke-linecap:round;stroke-linejoin:round;stroke-width:12px;}.cls-2{fill:#1f1d1e;}</style>
    </defs>
    <g id="OBJECTS">
        <path class="cls-1" d="M243.89,380.22a7.26,7.26,0,0,1-4.7-1.72c-11.73-9.93-35.9-26.57-66-26.57-20.7,0-40.58,8-59.11,23.84a7.25,7.25,0,0,1-4.73,1.75,7.49,7.49,0,0,1-2.28-.36,7.32,7.32,0,0,1-4.82-5.28c-5.92-25.45-23.43-70.61-74.13-87a7.3,7.3,0,0,1-2.94-12.06c13-13.2,35-40.35,35.65-73.8.4-20.73-7.55-40.78-23.64-59.58a7.29,7.29,0,0,1,5.53-12c.2,0,.41,0,.61,0,2.56.21,5.11.32,7.59.32,27.14,0,62.61-12.57,77.49-72.45a7.27,7.27,0,0,1,5.75-5.41,7.37,7.37,0,0,1,1.32-.12,7.28,7.28,0,0,1,6,3.12c10.86,15.6,29.51,34.2,56.68,34.2,21.11,0,44-11.5,67.88-34.19a7.25,7.25,0,0,1,5-2h.21a7.31,7.31,0,0,1,5.1,2.29C286.5,64,307.51,82.08,334.45,82.08c17.51,0,34.59-7.86,50.75-23.37a7.29,7.29,0,0,1,5-2h.34a7.3,7.3,0,0,1,5.18,2.52C405,69.89,430,94.74,463.23,94.74c17.94,0,35.81-7.25,53.11-21.54a7.29,7.29,0,0,1,11.82,6.89c-3.59,20.23-5.18,49.18,7.56,72.22,7.48,13.51,19.1,23.41,34.56,29.44a7.28,7.28,0,0,1,1.84,12.52c-24.65,19.3-61.8,62.61-33.68,135.9a7.28,7.28,0,0,1-9.6,9.34c-17.07-7.1-43.26-15.56-71.12-15.56-34.26,0-61.63,12.84-81.35,38.17a7.24,7.24,0,0,1-5.75,2.81,7.32,7.32,0,0,1-3.95-1.16c-9.75-6.3-35.28-20.94-61.61-20.94-23.34,0-41.8,11.36-54.88,33.77a7.25,7.25,0,0,1-5.05,3.51A7.42,7.42,0,0,1,243.89,380.22Z" />
        <path class="cls-2" d="M175.46,371.49a91.85,91.85,0,0,0-24.4,4.6c-15.23,4.89-29.25,23.82-46.38,19.71-19.78-4.74-24-41.56-33.66-57.14a90.82,90.82,0,0,0-18-20.4c-10.63-9.24-23.84-11.63-35.35-19-29.57-19,4.69-48.59,15.74-66.44,14.16-22.88,13.64-48-.1-70.72-8-13.26-16.89-20-13.15-36.87C24.42,105.92,44,110,58.28,107.51,73.82,104.77,86.41,98,96.4,85.66c6.08-7.53,9.77-16.76,13-25.78,2.93-8.28,3.78-15.4,9.34-22.64,11.77-15.31,28.06-4.3,35.76,5,1.76,2.14,11.76-1.46,9.92-3.69C150.9,22.21,129.84,22.84,113.26,34c-10.72,7.22-12.12,21.36-16.07,32.52C90.72,84.8,78,101.4,57.4,103.5s-38.33.57-47.7,23.44c-6.07,14.82,5.27,26.91,13,37.95,10.65,15.13,12.9,32.94,8.54,50.63C24.79,241.9-7.56,257.92-3.2,286.26c2,13.05,14.45,19.46,25.45,23.4,16,5.73,28.83,18.06,38.21,31.82,10.94,16,11.67,48.35,30.95,56.62,31.66,13.57,49.34-20.65,79.57-22,3-.13,11.5-4.9,4.48-4.58Z" />
        <path class="cls-1" d="M547.88,353.38c-15.52,12.43-49.22-5.28-66.37-8.21a130.14,130.14,0,0,0-38.61-.33c-10.93,1.4-21.42,5.48-31,10.73-15.68,8.58-29.83,36.23-52.09,24.72-2.84-1.46-11.51,2.88-9.92,3.7,10.56,5.46,23.11,7.2,34.24,1.76,7.49-3.66,12.17-7.92,17.49-14.37,10-12.17,24.07-19.41,39.42-22.26,28.33-5.28,54.34,6.35,80.58,14.38,11.82,3.62,25.45-2.35,34.42-9.54,4.31-3.45-6.22-2.13-8.15-.58Z" />
        <path class="cls-2" d="M386.85,37.12c13.85.33,19.92,9.76,28.71,18.07a78.71,78.71,0,0,0,33,18.63c20.65,5.83,42.13-4.91,57.94-17.18C522.8,44,537.37,58,543.07,70.29c3.9,8.39.67,18.43-.3,27.06-1.6,14.2-.28,28.57,4.89,41.91a41.79,41.79,0,0,0,21.14,22c21.52,9.61,31.38,32.36,12,50.54-2.46,2.3,7.67,1.22,9.61-.6,9.92-9.29,13.32-20.07,10.15-33.33-3.92-16.32-24.23-19.7-34.83-29.79C538.29,122,569.6,80,544.81,54.76,538,47.8,526,46.44,516.89,48c-23,3.87-32,26.4-59.71,21.56-26.1-4.56-37.5-36.39-63.55-37-2.4-.06-12.13,4.45-6.78,4.58Z" />
    </g>
</svg>