<svg xmlns="http://www.w3.org/2000/svg" viewBox="0 0 507.17 436.81" preserveAspectRatio="none"><defs><style>.cls-1{fill:#fff;stroke:#1f1d1e;stroke-linecap:round;stroke-linejoin:round;stroke-width:12px;}</style></defs><g id="DESIGNED_BY_FREEPIK" data-name="DESIGNED BY FREEPIK"><path class="cls-1" d="M431.34,208.32a73.85,73.85,0,1,0-78-125,73.84,73.84,0,0,0-135.3-29.86A73.84,73.84,0,0,0,85.5,98.26c0,1.13,0,2.23.08,3.34H85.5A73.86,73.86,0,0,0,57,243.59a73.86,73.86,0,0,0,63.23,112c2.51,0,5-.13,7.44-.37-1.72,16.26-9.76,34.74-31.52,51.58,0,0,89.08,7.86,119.66-42.39A100.83,100.83,0,0,0,273.13,382c36.81-.15,84.89-17.15,88.79-62.44a73.72,73.72,0,0,0,58.69,29c40.78,0,65.09-39,65.09-79.76C485.7,247.63,462.42,212.22,431.34,208.32Z"/></g></svg>