<svg xmlns="http://www.w3.org/2000/svg" viewBox="0 0 433.88 507.17"><defs><style>.cls-1{fill:#1f1d1e;}.cls-2{fill:#fff;stroke:#1f1d1e;stroke-linecap:round;stroke-linejoin:round;stroke-width:12px;}</style></defs><g id="OBJECTS"><path class="cls-1" d="M77.71,451.54a93.51,93.51,0,0,0,15.12-19.22c.69-1.19.67-2.84-.9-3.37-54.69-18.33-66.39-65-68.49-116.95q-2.57-63.39-4.7-126.79C16.19,112.78,38.43,29.48,122.05,20.54c6.41-.69,10.77-8.33,1.74-7.37-27.44,2.94-53.22,13.46-74,31.75C11.21,78.83,4.18,134.34,5.48,182.64c1.2,44.29,3.15,88.58,4.92,132.86,1,26,1.38,52.68,15.2,75.71,6.76,11.24,15,21.51,25.82,29.09a125.54,125.54,0,0,0,19.26,11.06c11.81,5.48,4.83,9.57-3.46,17.93-5.41,5.47,7.4,5.37,10.49,2.25Z"/><path class="cls-1" d="M404,131.74c-2.87,74.71-9.69,150.13-23.56,223.68-3.23,17.14-8.91,33-20.67,46.32-28.38,32.05-80.37,29-119.37,31-6.52.33-10.76,7.82-1.74,7.37C297.08,437.14,370.44,435,390.24,368c7-23.56,9.2-49.07,12.5-73.29q11.14-81.87,14.33-164.59c.21-5.49-12.88-2.82-13.06,1.6Z"/><path class="cls-2" d="M97,485.78a9,9,0,0,1-6.13-15.59c26.34-24.49,28.72-50,28.52-59.78-4.87-.33-8.89-.74-11.94-1.2C68.9,403.32,46.69,377.33,44.88,336,42.71,286.64,39,180.84,39,180,35.86,98,66.61,49.56,125.58,43.73c8.29-.82,24-2.5,42.73-4.5l1.48-.16c34-3.63,80.45-8.59,107.58-11,8-.73,14.71-1.07,21-1.07,28,0,48.42,7.1,62.54,21.72,16.35,16.94,24,44.3,22.67,81.32-3.76,106.41-20,206.2-24.21,225-3.33,14.67-10.24,45.19-66.1,50.72-18.14,1.79-43.31,3.38-70.86,4.47-25.58,61.13-89.23,73.63-124.9,75.64Z"/></g></svg>