<svg xmlns="http://www.w3.org/2000/svg" viewBox="0 0 644.95 401.63"><defs><style>.cls-1{fill:#1f1d1e;}.cls-2{fill:#fff;stroke:#1f1d1e;stroke-linecap:round;stroke-linejoin:round;stroke-width:12px;}</style></defs><g id="OBJECTS"><path class="cls-1" d="M105.07,381.87c-14.53,3-24.51-4.72-30.51-16.7-6.09-12.14,1.36-24.74,9.11-33.8,11-12.85,20.28-27.19,28.91-41.68.41-.7-.45-1.13-.92-1.3-34.1-12.61-68.77-31.12-85.95-64.77-18.28-35.81-3-78.45,21.16-107.06,2.38-2.82-7.88-1.5-9.62.56-21.66,25.67-33.52,56.27-28.36,90,4.14,27.13,25.09,48,46.76,62.68,12.8,8.69,27.15,15,41.48,20.7,10.32,4.08-27.95,45-31,51.43-12.63,26.79,9.9,49.86,37.1,44.27,4.32-.89,9.19-5.87,1.84-4.36Z"/><path class="cls-1" d="M366.6,16.73c91.49.39,284.88,26.56,256.84,161.38C610.21,241.72,535.8,272.65,480.68,289c-61.54,18.26-126.89,24.9-190.91,25.12-3.07,0-11.5,4.68-4.46,4.66,67.83-.23,136.27-8.21,201.42-27.53,54.84-16.28,116.18-43.92,141.73-98.62C656,133.57,614.79,77.23,564.21,50.16c-57.91-31-128.59-37.82-193.15-38.09-3.09,0-11.51,4.63-4.46,4.66Z"/><path class="cls-2" d="M96.41,363.25a7.29,7.29,0,0,1-5.48-12.1c22.37-25.43,38.58-54.07,48.24-73.61C76.39,260.81,39.48,232.92,35.23,199c-3-24.06,4.8-46.84,23.21-67.7,49.39-56,177-95.05,310.39-95.05,104.79,0,230.54,28.67,240.07,109.48,2.7,23-4.53,44.32-21.53,63.43-52.46,59-188.39,85.43-299.83,85.43-20.53,0-40.8-.83-60.25-2.47C202.88,329.58,136,352.6,98.34,363A7.13,7.13,0,0,1,96.41,363.25Z"/></g></svg>