<svg id="Layer_1" enable-background="new 0 0 512 512" height="512" viewBox="0 0 512 512" width="512" xmlns="http://www.w3.org/2000/svg"><g><path d="m251.334 266.424h122.333v111.29h-122.333z" fill="#40c1fa"/><path d="m373.667 266.424h-64.167-58.166v-96.29c0-8.284 6.716-15 15-15h92.333c8.284 0 15 6.716 15 15z" fill="#0691ce"/><path d="m251.331 266.42h35v111.29h-35z" fill="#07a9f0"/><path d="m301.331 155.13c-8.28 0-15 6.72-15 15v96.29h-35v-96.29c0-8.28 6.72-15 15-15z" fill="#057aad"/><path d="m355 224.075h124.833v111.29h-124.833z" fill="#fdc202"/><path d="m479.833 224.075h-124.833v-96.29c0-8.284 6.716-15 15-15h94.833c8.284 0 15 6.716 15 15z" fill="#fed22b"/><path d="m355 224.07h35v111.29h-35z" fill="#f0a70a"/><path d="m405 112.78c-8.28 0-15 6.72-15 15v96.29h-35v-96.29c0-8.28 6.72-15 15-15z" fill="#fdc202"/><path d="m156.383 58.032v100.545h-50.598v-100.545c0-5.523 4.477-10 10-10h30.598c5.523 0 10 4.477 10 10z" fill="#07a9f0"/><g fill="#0691ce"><path d="m142.121 48.031c-5.53 0-10 4.48-10 10v100.55h-26.34v-100.55c0-5.52 4.48-10 10-10z"/><path d="m180.341 233.845h-98.5l1.94-70.48.591-21.65c.222-8.122 6.87-14.59 14.994-14.59h63.442c8.123 0 14.77 6.466 14.994 14.586l.598 21.654z"/><path d="m156.383 58.032v18.521h-50.598v-18.521c0-5.523 4.477-10 10-10h30.598c5.523 0 10 4.477 10 10z"/></g><path d="m134.371 127.12c-8.13 0-14.78 6.47-15 14.6l-.59 21.64-1.94 70.48h-35l1.94-70.48.59-21.64c.22-8.13 6.87-14.6 15-14.6z" fill="#057aad"/><path d="m178.401 163.365h-94.62l.591-21.65c.222-8.122 6.87-14.59 14.994-14.59h63.442c8.123 0 14.77 6.466 14.994 14.586z" fill="#40c1fa"/><path d="m209.631 365.76h-157.093l4.2-125.548c.27-8.085 6.903-14.498 14.992-14.498h118.71c8.089 0 14.721 6.414 14.992 14.498z" fill="#07a9f0"/><path d="m157.303 275.549v90.212h-52.438v-90.212c0-2.761 2.239-5 5-5h42.438c2.762 0 5 2.238 5 5z" fill="#0691ce"/><path d="m106.731 225.71c-8.09 0-14.72 6.42-14.99 14.5l-4.2 125.55h-35l4.2-125.55c.27-8.08 6.9-14.5 14.99-14.5z" fill="#0691ce"/><path d="m142.121 48.031c-5.53 0-10 4.48-10 10v18.52h-26.34v-18.52c0-5.52 4.48-10 10-10z" fill="#057aad"/><path d="m142.121 48.031c-5.53 0-10 4.48-10 10v18.52h-26.34v-18.52c0-5.52 4.48-10 10-10z" fill="#057aad"/><path d="m134.371 127.12c-8.13 0-14.78 6.47-15 14.6l-.59 21.64h-35l.59-21.64c.22-8.13 6.87-14.6 15-14.6z" fill="#07a9f0"/><path d="m134.371 127.12c-8.13 0-14.78 6.47-15 14.6l-.59 21.64h-35l.59-21.64c.22-8.13 6.87-14.6 15-14.6z" fill="#07a9f0"/><path d="m136.201 270.55c-2.76 0-5 2.24-5 5v90.21h-26.34v-90.21c0-2.76 2.24-5 5-5z" fill="#057aad"/><path d="m463.19 463.968h-426.729c-5.523 0-10-4.477-10-10v-42.689h446.729v42.689c0 5.523-4.477 10-10 10z" fill="#655e67"/><path d="m71.461 463.969h-35c-5.52 0-10-4.48-10-10v-42.69h35v42.69c0 5.52 4.48 10 10 10z" fill="#544f56"/><path d="m502.79 318.43c0 .47-.07.95-.21 1.43l-7.77 25.97-21.62 72.26h-446.729l-17.89-98.77c-.56-3.07 1.8-5.89 4.92-5.89h44.45c8.73 0 16.26 6.13 18.02 14.68l5.29 25.64h216.749l9.49-27.86c2.54-7.45 9.54-12.46 17.41-12.46h172.89c2.84 0 5 2.33 5 5z" fill="#544f56"/><circle cx="431.834" cy="365.76" fill="#40c1fa" r="19.167"/><circle cx="361.334" cy="365.76" fill="#40c1fa" r="19.167"/><path d="m61.461 418.09h-35l-17.89-98.77c-.56-3.07 1.8-5.89 4.92-5.89h35c-3.12 0-5.48 2.82-4.92 5.89z" fill="#444145"/><g><path d="m431.833 392.427c14.704 0 26.667-11.962 26.667-26.666s-11.963-26.667-26.667-26.667-26.666 11.963-26.666 26.667 11.962 26.666 26.666 26.666zm0-38.334c6.434 0 11.667 5.234 11.667 11.667s-5.233 11.666-11.667 11.666c-6.433 0-11.666-5.233-11.666-11.666s5.234-11.667 11.666-11.667z"/><path d="m361.333 392.427c14.704 0 26.667-11.962 26.667-26.666s-11.963-26.667-26.667-26.667-26.666 11.963-26.666 26.667 11.962 26.666 26.666 26.666zm0-38.334c6.434 0 11.667 5.234 11.667 11.667s-5.233 11.666-11.667 11.666c-6.433 0-11.666-5.233-11.666-11.666s5.234-11.667 11.666-11.667z"/><path d="m289.668 185.074c-4.143 0-7.5 3.358-7.5 7.5v42.277c0 4.142 3.357 7.5 7.5 7.5s7.5-3.358 7.5-7.5v-42.277c0-4.142-3.358-7.5-7.5-7.5z"/><path d="m324.334 185.074c-4.143 0-7.5 3.358-7.5 7.5v42.277c0 4.142 3.357 7.5 7.5 7.5s7.5-3.358 7.5-7.5v-42.277c-.001-4.142-3.358-7.5-7.5-7.5z"/><path d="m390.583 147.291v42.277c0 4.142 3.357 7.5 7.5 7.5s7.5-3.358 7.5-7.5v-42.277c0-4.142-3.357-7.5-7.5-7.5-4.142 0-7.5 3.358-7.5 7.5z"/><path d="m436.75 197.068c4.143 0 7.5-3.358 7.5-7.5v-42.277c0-4.142-3.357-7.5-7.5-7.5s-7.5 3.358-7.5 7.5v42.277c0 4.142 3.358 7.5 7.5 7.5z"/><path d="m504.5 258.92h-17.17v-131.14c0-12.4-10.09-22.5-22.5-22.5h-19.52c-4.15 0-7.5 3.36-7.5 7.5 0 4.15 3.35 7.5 7.5 7.5h19.52c4.14 0 7.5 3.37 7.5 7.5v88.79h-109.83v-88.79c0-4.13 3.36-7.5 7.5-7.5h45.31c4.14 0 7.5-3.35 7.5-7.5 0-4.14-3.36-7.5-7.5-7.5h-45.31c-12.41 0-22.5 10.1-22.5 22.5v19.85h-81.17c-12.41 0-22.5 10.09-22.5 22.5v176.12h-27.35l-2.15-64.42c-.14-4.14-3.64-7.38-7.75-7.25-4.14.14-7.38 3.61-7.25 7.75l2.14 63.92h-36.67v-70.7c0-6.89-5.61-12.5-12.5-12.5h-42.44c-6.89 0-12.5 5.61-12.5 12.5v70.7h-10l-4.06-19.66c-2.19-10.61-10.82-18.63-21.27-20.32l2.21-65.81c.13-4.07 3.42-7.25 7.49-7.25h118.71c4.07 0 7.36 3.18 7.49 7.25l.4 11.89c.14 4.14 3.59 7.4 7.75 7.24 4.14-.14 7.38-3.61 7.24-7.74l-.39-11.89c-.41-12.2-10.29-21.75-22.49-21.75h-3.02l-1.52-55v-.05c-.65-23.55-.39-24.06-1.72-28.14-2.87-8.69-10.77-14.91-20.3-15.35v-61.64c0-9.65-7.86-17.5-17.5-17.5h-30.6c-9.65 0-17.5 7.85-17.5 17.5v61.64c-11.77.56-21.08 9.94-21.41 21.85l-2.11 76.69h-3.03c-12.2 0-22.08 9.55-22.49 21.75l-2.2 65.97h-39.539c-4.68 0-8.21 4.24-7.38 8.84l18.84 103.99v35.21c0 9.65 7.85 17.5 17.5 17.5h58.32c4.15 0 7.5-3.36 7.5-7.5s-3.35-7.5-7.5-7.5h-58.32c-1.38 0-2.5-1.12-2.5-2.5v-28.38h431.729v28.38c0 1.38-1.12 2.5-2.5 2.5h-338.409c-4.14 0-7.5 3.36-7.5 7.5s3.36 7.5 7.5 7.5h338.409c9.65 0 17.5-7.85 17.5-17.5v-34.78c.239-.798 30.98-103.56 30.98-103.56.16-.398.33-1.816.33-2.2v-47.01c0-4.14-3.36-7.5-7.5-7.5zm-391.219-200.889c0-1.38 1.13-2.5 2.5-2.5 32.73 0 30.82-.12 31.57.2.9.38 1.53 1.27 1.53 2.3v11.02h-35.6zm0 26.02h35.6v35.57h-35.6zm-21.41 57.869c.11-4.09 3.4-7.3 7.5-7.3h63.44c3.07 0 5.69 1.81 6.85 4.43.8 1.81.61 1.66 1.03 16.81h-79.2zm-.8 28.94h80.03l1.31 47.35h-82.64zm271.429 60.71h109.83v27.35h-62c-16.63 0-30.16 13.54-30.16 30.17v16.84h-17.67zm102.25 42.354v32.006h-37.333v-32.006zm-52.333-.004v32.01h-17.247v-16.84c0-8.36 6.8-15.17 15.16-15.17zm-153.586-103.79c0-4.14 3.36-7.5 7.5-7.5h81.17v96.29h-88.67zm0 103.79h88.67v32.01h-22.6c-11.08 0-20.93 7.05-24.51 17.54l-7.76 22.78h-33.8zm-146.47 4.13h37.44v68.2h-37.44zm355.239 132.54h-434.879l-16.24-89.66h41.46c5.15 0 9.63 3.66 10.67 8.69l5.29 25.65c.72 3.48 3.79 5.98 7.35 5.98h216.749c3.21 0 6.06-2.04 7.1-5.08l9.49-27.86c1.51-4.41 5.65-7.38 10.31-7.38h169.53zm29.4-104.66h-17.25v-32.01h17.25z"/></g></g></svg>