<svg id="Layer_1" enable-background="new 0 0 512 512" height="512" viewBox="0 0 512 512" width="512" xmlns="http://www.w3.org/2000/svg"><g><path d="m433.99 401.84v28.83c0 8.284-6.716 15-15 15l-173.324 18.663-170.166-18.663c-8.284 0-15-6.716-15-15v-28.83c0-8.284 6.716-15 15-15l170.166-15.173 173.324 15.173c8.284 0 15 6.716 15 15z" fill="#e5646e"/><path d="m399.033 138.705-72.061-91.715 44.82-35.216c8.685-6.824 21.259-5.315 28.083 3.37l47.348 60.262c6.824 8.685 5.315 21.259-3.37 28.083z" fill="#655e67"/><path d="m411.769 30.28-59.95 48.34-24.85-31.63 44.82-35.22c8.69-6.82 21.26-5.31 28.09 3.37z" fill="#544f56"/><path d="m374.116 30.562h38.319v77h-38.319z" fill="#444145" transform="matrix(.618 .786 -.786 .618 204.608 -282.847)"/><path d="m427.729 140.41-93.73-121.26c-5.68-7.35-14.45-11.65-23.74-11.65h-219.76c-16.57 0-30 13.43-30 30v334.34c0 8.28 6.72 15 15 15h343.49c8.29 0 15-6.72 15-15v-213.09c0-6.64-2.2-13.09-6.26-18.34zm-177.04-55.3c-6.38 6.38-15.2 10.33-24.94 10.33h-111.67c-7.21 0-13.06-5.85-13.06-13.06v-22.21c0-7.22 5.85-13.07 13.06-13.07h133.87c7.22 0 13.07 5.85 13.07 13.07 0 9.74-3.95 18.56-10.33 24.94z" fill="#ea7f87"/><path d="m433.99 460.67v28.83c0 8.284-6.716 15-15 15h-343.49c-8.284 0-15-6.716-15-15v-28.83c0-8.284 6.716-15 15-15h343.49c8.284 0 15 6.716 15 15z" fill="#ea7f87"/><path d="m297.737 323.892h-100.984c-14.741 0-26.691-11.95-26.691-26.691v-100.984c0-14.741 11.95-26.691 26.691-26.691h100.984c14.741 0 26.691 11.95 26.691 26.691v100.984c-.001 14.741-11.951 26.691-26.691 26.691z" fill="#e04955"/><path d="m278.166 256.497c0 17.077-13.844 30.921-30.921 30.921s-30.921-13.844-30.921-30.921 30.921-50.497 30.921-50.497 30.921 33.42 30.921 50.497z" fill="#544f56"/><path d="m95.499 371.84v-334.34c0-16.57 13.43-30 30-30h-35c-16.57 0-30 13.43-30 30v334.34c0 8.28 6.72 15 15 15h35c-8.28 0-15-6.72-15-15z" fill="#e5646e"/><path d="m110.499 504.5h-35c-8.28 0-15-6.72-15-15v-28.83c0-8.28 6.72-15 15-15h35c-8.28 0-15 6.72-15 15v28.83c0 8.28 6.72 15 15 15z" fill="#e5646e"/><path d="m110.499 445.67h-35c-8.28 0-15-6.72-15-15v-28.83c0-8.28 6.72-15 15-15h35c-8.28 0-15 6.72-15 15v28.83c0 8.28 6.72 15 15 15z" fill="#e04955"/><path d="m231.749 323.89h-35c-14.74 0-26.69-11.95-26.69-26.69v-100.98c0-14.74 11.95-26.69 26.69-26.69h35c-14.74 0-26.69 11.95-26.69 26.69v100.98c0 14.74 11.95 26.69 26.69 26.69z" fill="#da2f3c"/><g><path d="m453.118 70.779c-9.922-12.633-37.441-47.667-47.346-60.277-9.371-11.91-26.693-13.989-38.617-4.63l-21.119 16.592-6.106-7.899c-7.049-9.12-18.141-14.565-29.668-14.565h-57.962c-4.142 0-7.5 3.358-7.5 7.5s3.358 7.5 7.5 7.5h57.961c6.917 0 13.571 3.267 17.801 8.74l93.729 121.253c3.03 3.919 4.698 8.806 4.698 13.761v213.086c0 3.79-2.899 7.5-7.844 7.5-5.122 0-340.039 0-343.146 0-4.135 0-7.5-3.364-7.5-7.5v-73.283c0-4.142-3.358-7.5-7.5-7.5s-7.5 3.358-7.5 7.5v73.283c0 5.758 2.177 11.016 5.747 15-3.571 3.984-5.747 9.242-5.747 15v87.66c0 12.407 10.093 22.5 22.5 22.5h155.891c4.142 0 7.5-3.358 7.5-7.5s-3.358-7.5-7.5-7.5h-155.89c-4.135 0-7.5-3.365-7.5-7.5v-37.62c2.347.833 4.871 1.29 7.5 1.29h343.49c4.136 0 7.5 3.365 7.5 7.5v28.83c0 4.135-3.364 7.5-7.5 7.5h-157.599c-4.142 0-7.5 3.358-7.5 7.5s3.358 7.5 7.5 7.5h157.599c12.407 0 22.5-10.093 22.5-22.5v-28.83c0-5.758-2.177-11.016-5.747-15 3.571-3.984 5.747-9.242 5.747-15v-28.83c0-5.758-2.177-11.016-5.747-15 3.571-3.984 5.747-9.242 5.747-15v-213.087c0-8.257-2.781-16.402-7.831-22.935l-7.109-9.197 21.929-17.232c5.781-4.537 9.446-11.054 10.321-18.352.876-7.294-1.144-14.492-5.682-20.258zm-26.628 359.891c0 4.135-3.364 7.5-7.5 7.5-18.608 0-328.113 0-343.49 0-4.135 0-7.5-3.365-7.5-7.5 0-7.14 0-10.934 0-28.83 0-4.135 3.365-7.5 7.5-7.5h343.49c4.136 0 7.5 3.365 7.5 7.5zm-71.28-396.337 21.209-16.663c5.423-4.256 13.302-3.31 17.56 2.102l7.203 9.171-31.193 24.51zm23.954 30.987 31.282-24.58c8.169 10.394 4.792 6.096 14.409 18.339l-31.427 24.694zm64.744 23.932c-.398 3.316-2.063 6.277-4.692 8.341l-21.839 17.161-14.774-19.113 31.518-24.766c7.341 9.347 10.55 12.012 9.787 18.377z"/><path d="m60.5 276.057c4.142 0 7.5-3.358 7.5-7.5v-231.057c0-12.407 10.093-22.5 22.5-22.5h131.8c4.142 0 7.5-3.358 7.5-7.5s-3.358-7.5-7.5-7.5h-131.8c-20.678 0-37.5 16.822-37.5 37.5v231.057c0 4.142 3.358 7.5 7.5 7.5z"/><path d="m247.954 39.604h-133.876c-11.338 0-20.562 9.224-20.562 20.562v22.209c0 11.338 9.224 20.562 20.562 20.562h111.667c23.584 0 42.771-19.187 42.771-42.771 0-11.337-9.224-20.562-20.562-20.562zm-22.209 48.334h-111.667c-3.067 0-5.562-2.495-5.562-5.562v-22.209c0-3.067 2.495-5.562 5.562-5.562h133.876c3.067 0 5.562 2.495 5.562 5.562 0 15.313-12.458 27.771-27.771 27.771z"/><path d="m351.251 142.696c-2.928-2.928-7.677-2.927-10.606.002l-24.635 24.643c-5.29-3.36-11.556-5.315-18.273-5.315h-100.984c-6.718 0-12.984 1.955-18.274 5.315l-24.635-24.644c-2.928-2.93-7.677-2.931-10.606-.002-2.93 2.928-2.93 7.677-.002 10.606l24.638 24.647c-3.358 5.289-5.311 11.553-5.311 18.268v100.984c0 6.716 1.954 12.98 5.312 18.269l-24.639 24.648c-4.738 4.74-1.315 12.802 5.304 12.802 4.194 0 3.505-.398 29.941-26.843 5.29 3.36 11.556 5.315 18.273 5.315h100.984c6.717 0 12.982-1.955 18.272-5.314 26.537 26.546 25.794 26.842 29.94 26.842 6.62 0 10.042-8.063 5.304-12.802l-24.639-24.647c3.358-5.289 5.313-11.554 5.313-18.27v-100.983c0-6.716-1.954-12.98-5.312-18.269l24.638-24.646c2.927-2.929 2.927-7.678-.003-10.606zm-34.324 154.505c0 10.582-8.609 19.19-19.19 19.19h-100.984c-10.582 0-19.191-8.609-19.191-19.19v-100.984c0-10.582 8.609-19.191 19.191-19.191h100.984c10.582 0 19.19 8.609 19.19 19.191z"/><path d="m241.739 200.907c-5.496 5.94-32.916 36.541-32.916 55.59 0 21.186 17.235 38.421 38.421 38.421s38.421-17.236 38.421-38.421c0-19.05-27.419-49.65-32.917-55.591-2.969-3.21-8.045-3.203-11.009.001zm5.505 79.011c-12.915 0-23.421-10.507-23.421-23.421 0-8.313 12.339-26.068 23.423-39.167 11.084 13.09 23.419 30.838 23.419 39.167.001 12.915-10.506 23.421-23.421 23.421z"/></g></g></svg>