<svg id="Layer_1" enable-background="new 0 0 512 512" height="512" viewBox="0 0 512 512" width="512" xmlns="http://www.w3.org/2000/svg"><g><path d="m66.418 492.781-47.211-47.211c-15.644-15.644-15.644-41.009 0-56.654l40.921-40.921 103.865 103.865-40.921 40.921c-15.645 15.644-41.009 15.644-56.654 0z" fill="#8e8391"/><path d="m112.245 500.494c-14.93 7.26-33.43 4.68-45.83-7.71l-47.21-47.21c-15.64-15.65-15.64-41.01 0-56.66l40.92-40.92 17.5 17.5-23.42 23.42c-15.64 15.65-15.64 41.01 0 56.66l47.21 47.21c3.25 3.25 6.92 5.82 10.83 7.71z" fill="#766d78"/><path d="m448.824 63.164c-22.04-22.04-57.774-22.04-79.814 0l-205.497 205.497 79.814 79.814 205.497-205.497c22.04-22.04 22.04-57.774 0-79.814z" fill="#8e8391"/><circle cx="407.649" cy="104.338" fill="#d1ced3" r="20.158"/><path d="m465.327 101.442c-2.12-3.29-4.62-6.4-7.5-9.28-22.04-22.04-57.78-22.04-79.82 0l-195.491 195.501-19-19 205.491-205.501c22.04-22.04 57.78-22.04 79.82 0 10.6 10.6 16.11 24.39 16.5 38.28z" fill="#766d78"/><path d="m144.08 482.295-114.388-114.387c-5.936-5.936-5.936-15.56 0-21.495l112.997-112.997c12.895-12.895 33.801-12.895 46.696 0l89.186 89.186c12.895 12.895 12.895 33.801 0 46.696l-112.996 112.997c-5.936 5.936-15.56 5.936-21.495 0z" fill="#e04955"/><path d="m64.695 346.414c-5.94 5.94-5.94 15.56 0 21.49l107.631 107.641-6.75 6.75c-5.94 5.94-15.56 5.94-21.5 0l-114.381-114.391c-5.94-5.93-5.94-15.55 0-21.49l112.991-113.001c11.09-11.08 28.1-12.64 40.85-4.65-2.08 1.29-4.04 2.85-5.85 4.65z" fill="#da2f3c"/><circle cx="206.596" cy="439.472" fill="#8e8391" r="34.051"/><g><path d="m511.937 94.444c-.53-4.108-4.303-7.01-8.398-6.478l-31.642 4.086c-1.826-10.57-6.268-20.451-13.016-28.871l23.374-22.075c3.012-2.844 3.147-7.591.303-10.603-2.843-3.012-7.591-3.146-10.602-.303l-23.754 22.434c-8.28-6.475-17.931-10.753-28.241-12.539l4.083-31.624c.53-4.108-2.37-7.868-6.478-8.399-4.118-.529-7.869 2.37-8.399 6.478l-4.224 32.716c-15.585.95-30.106 7.457-41.241 18.592l-4.642 4.642.314-32.146c.04-4.142-3.285-7.532-7.427-7.573-4.015-.08-7.531 3.2-7.573 7.426l-.464 47.444-28.564 28.566.314-32.149c.04-4.142-3.285-7.532-7.427-7.573-4.015-.08-7.531 3.2-7.573 7.426l-.464 47.446-28.564 28.566.314-32.152c.04-4.142-3.285-7.532-7.427-7.573-4.015-.08-7.531 3.2-7.573 7.426l-.464 47.449-28.564 28.566.315-32.154c.04-4.142-3.285-7.532-7.427-7.573-4.015-.08-7.531 3.2-7.573 7.426l-.464 47.451-18.708 18.71c-7.58-7.265-17.494-11.266-28.025-11.266-19.338 0-28.115 11.327-39.659 22.872l-26.417-26.421c-2.929-2.929-7.678-2.931-10.606-.001-2.93 2.928-2.93 7.677-.001 10.606l26.418 26.424-44.157 44.161-42.896-42.894c-5.901-5.901-9.151-13.744-9.151-22.082 0-25.105 28.44-40.167 49.177-25.564 3.387 2.385 8.066 1.573 10.45-1.813 2.385-3.387 1.573-8.065-1.813-10.45-18.024-12.694-43.067-11.061-59.269 5.139-18.074 18.072-18.074 47.302-.001 65.377l42.897 42.897-11.038 11.037c-2.929 2.929-2.929 7.678 0 10.607 2.93 2.929 7.678 2.929 10.607 0l11.037-11.038 100.784 100.784c-10.01 14.499-9.768 33.988.744 48.236-13.695 13.695-14.19 15.129-18.317 15.129-4.319 0-5.829-2.806-10.793-7.606-.407-.407-103.774-103.783-103.774-103.783-4.891-5.095-7.52-6.41-7.52-10.698 0-3.913 2.225-5.411 6.626-9.812 2.929-2.929 2.929-7.678 0-10.607-2.93-2.929-7.678-2.929-10.607 0l-4.366 4.367c-8.855 8.856-8.885 23.175-.041 32.051l-10.45 10.45c-18.533 18.545-18.533 48.719.001 67.265l47.212 47.212c9.273 9.266 21.452 13.899 33.632 13.899 22.369 0 32.81-13.078 44.078-24.345 8.885 8.832 23.196 8.813 32.055-.046l13.206-13.205c6.827 4.403 14.668 6.611 22.511 6.611 32.945 0 52.661-36.533 34.921-64.043l42.363-42.363c15.59-15.589 15.87-40.747.599-56.669l39.986-39.984 1.687 21.853c.304 3.934 3.589 6.923 7.47 6.923 4.393 0 7.821-3.736 7.485-8.078l-2.676-34.664 29.748-29.746 1.687 21.851c.304 3.934 3.589 6.923 7.47 6.923 4.393 0 7.821-3.736 7.485-8.078l-2.676-34.662 29.748-29.746 1.687 21.848c.318 4.121 3.915 7.22 8.055 6.9 4.13-.319 7.22-3.925 6.9-8.055l-2.676-34.659 28.271-28.27c.161-.161.311-.331.471-.494l7.142 26.841c.894 3.357 3.927 5.574 7.243 5.574 4.933 0 8.517-4.677 7.253-9.43l-10.306-38.733c3.926-7.706 6.247-16.167 6.787-24.974l32.739-4.227c4.109-.528 7.01-4.288 6.479-8.396zm-440.219 393.037-47.209-47.209c-12.69-12.698-12.69-33.359-.001-46.055l10.446-10.446 93.26 93.267-10.441 10.441c-12.699 12.691-33.361 12.689-46.055.002zm153.652-29.234c-10.352 10.351-27.196 10.352-37.548 0-10.353-10.352-10.353-27.197 0-37.549 10.353-10.353 27.196-10.352 37.548 0s10.352 27.196 0 37.549zm47.902-94.257-42.029 42.029c-14.249-10.512-33.738-10.754-48.238-.742l-100.784-100.785 49.488-49.493c.031-.032.066-.059.097-.092.012-.013.022-.027.034-.04l16.148-16.149c9.976-9.969 26.116-9.973 36.095-.001l89.191 89.191c9.967 9.966 9.969 26.112-.002 36.082zm.615-56.683-69.205-69.205 108.248-108.253c.009-.009.018-.018.027-.027l43.661-43.664c.028-.027.055-.055.082-.082l17.609-17.61c19.082-19.082 50.131-19.082 69.213 0 19.083 19.083 19.083 50.132.001 69.214z"/><path d="m388.091 84.781c-10.783 10.784-10.783 28.331.001 39.115 5.392 5.391 12.475 8.087 19.557 8.087 7.083 0 14.166-2.696 19.558-8.087h.001c10.783-10.784 10.783-28.331-.001-39.115-10.785-10.784-28.332-10.782-39.116 0zm28.51 28.508c-4.937 4.935-12.968 4.936-17.902 0-4.936-4.936-4.936-12.966-.001-17.901 2.469-2.468 5.71-3.701 8.952-3.701 3.241 0 6.483 1.234 8.95 3.701 4.936 4.935 4.936 12.966.001 17.901z"/><path d="m199.358 432.234c-3.998 3.998-3.998 10.479 0 14.477s10.479 3.998 14.477 0 3.998-10.479 0-14.477-10.48-3.998-14.477 0z"/><path d="m183.47 284.642c-1.682-3.785-6.114-5.49-9.899-3.808l-25.494 11.331c-3.785 1.682-5.49 6.114-3.808 9.899 1.684 3.789 6.118 5.489 9.899 3.808l25.494-11.331c3.786-1.682 5.491-6.114 3.808-9.899z"/><path d="m210.853 312.024c-1.682-3.785-6.115-5.488-9.899-3.808l-25.494 11.331c-3.785 1.682-5.49 6.115-3.808 9.899 1.682 3.786 6.116 5.49 9.899 3.808l25.494-11.331c3.786-1.682 5.491-6.114 3.808-9.899z"/><path d="m228.335 335.599-25.493 11.331c-3.785 1.682-5.49 6.114-3.808 9.899 1.682 3.786 6.116 5.49 9.899 3.808l25.493-11.331c3.785-1.682 5.49-6.114 3.808-9.899-1.681-3.786-6.11-5.489-9.899-3.808z"/><path d="m346.302 155.85-35.356 35.356c-2.929 2.929-2.929 7.678 0 10.606 1.465 1.464 3.385 2.197 5.304 2.197s3.839-.732 5.304-2.197l35.356-35.356c2.929-2.929 2.929-7.678 0-10.607-2.93-2.928-7.678-2.928-10.608.001z"/><path d="m289.733 212.419-12.165 12.165c-2.929 2.929-2.929 7.678 0 10.606 1.465 1.464 3.385 2.197 5.304 2.197s3.839-.732 5.304-2.197l12.165-12.165c2.929-2.929 2.929-7.678 0-10.606-2.93-2.929-7.678-2.929-10.608 0z"/></g></g></svg>