<svg id="Layer_1" enable-background="new 0 0 512 512" height="512" viewBox="0 0 512 512" width="512" xmlns="http://www.w3.org/2000/svg"><g><path d="m116.546 242.954h-94.23l59.958-100.787c9.576-16.097 34.272-9.307 34.272 9.423z" fill="#b3adb6"/><path d="m115.469 145.173-58.169 97.785h-34.988l59.959-100.795c8.387-14.094 28.36-10.646 33.198 3.01z" fill="#a49ca7"/><circle cx="98.583" cy="161.229" fill="#8e8391" r="32.567"/><path d="m113.08 190.397c-4.368 2.179-9.287 3.399-14.495 3.399-17.984 0-32.569-14.585-32.569-32.568 0-17.984 14.585-32.569 32.569-32.569 5.208 0 10.126 1.22 14.495 3.399-10.716 5.338-18.074 16.394-18.074 29.17.001 12.775 7.358 23.831 18.074 29.169z" fill="#766d78"/><circle cx="422.224" cy="43.952" fill="#8e8391" r="36.321"/><path d="m439.725 75.787c-5.368 2.959-11.566 4.588-18.134 4.478-20.063-.35-36.037-16.894-35.687-36.947.478-27.424 30.04-44.295 53.811-31.199-11.026 6.068-18.583 17.714-18.823 31.199-.24 13.946 7.407 26.191 18.833 32.469z" fill="#766d78"/><path d="m30.323 252.618h251.919v128.288h-251.919z" fill="#544f56"/><path d="m30.319 252.615h34.988v128.295h-34.988z" fill="#444145"/><path d="m289.986 286.273h-267.406c-8.281 0-14.995-6.713-14.995-14.995v-13.329c0-8.281 6.713-14.995 14.995-14.995h267.406c8.281 0 14.995 6.713 14.995 14.995v13.329c-.001 8.281-6.714 14.995-14.995 14.995z" fill="#766d78"/><g><path d="m504.495 357.627v146.829h-492.318c-2.582 0-4.675-2.095-4.672-4.677l.162-140.139c.002-1.336.577-2.607 1.571-3.499 15.327-13.742 38.9-13.246 53.632 1.486 15.218 15.218 39.924 15.277 55.201 0 15.198-15.198 39.893-15.297 55.211 0 15.25 15.23 39.916 15.265 55.201 0 15.251-15.231 39.916-15.264 55.201 0 15.251 15.231 39.916 15.264 55.201 0 15.326-15.306 40.021-15.19 55.211 0 15.238 15.238 39.943 15.258 55.201 0 15.226-15.229 39.933-15.265 55.198 0z" fill="#93dcfc"/></g><path d="m492.831 286.273h-83.504c-2.76 0-4.998-2.238-4.998-4.998v-61.283c0-2.76 2.238-4.998 4.998-4.998h83.504c2.76 0 4.998 2.238 4.998 4.998v61.283c0 2.76-2.238 4.998-4.998 4.998z" fill="#c0694e"/><path d="m57.57 286.273h-34.988c-8.287 0-14.995-6.718-14.995-14.995v-13.325c0-8.287 6.708-14.995 14.995-14.995h34.988c-8.287 0-14.995 6.708-14.995 14.995v13.325c0 8.277 6.708 14.995 14.995 14.995z" fill="#655e67"/><path d="m444.314 286.273h-34.988c-2.759 0-4.998-2.239-4.998-4.998v-61.278c0-2.769 2.239-4.998 4.998-4.998h34.988c-2.759 0-4.998 2.229-4.998 4.998v61.278c0 2.759 2.239 4.998 4.998 4.998z" fill="#ae583e"/><g><path d="m504.5 435.588v64.197c0 2.58-2.092 4.672-4.672 4.672h-487.572c-2.58 0-4.672-2.092-4.672-4.672v-73.951c2.849 1.839 5.548 4.009 8.037 6.498 18.975 18.975 49.741 18.985 68.706 0 18.96-18.94 49.703-18.993 68.716 0 19.025 19.005 49.752 18.954 68.706 0 18.982-18.942 49.675-18.991 68.706 0 19.006 18.986 49.712 18.974 68.706 0 18.989-18.969 49.733-18.962 68.716 0 18.955 18.975 49.721 18.985 68.706 0 .025-.025.049-.049.074-.074 2.894-2.882 7.843-.754 7.843 3.33z" fill="#72d1fb"/></g><path d="m449.292 357.628c-15.255 15.255-39.956 15.235-55.201 0-15.185-15.195-39.886-15.305-55.211 0-15.285 15.265-39.946 15.235-55.201 0-15.285-15.265-39.946-15.235-55.201 0-15.285 15.265-39.946 15.225-55.201 0-15.315-15.295-40.006-15.195-55.211 0-15.275 15.275-39.976 15.215-55.201 0-14.725-14.735-38.306-15.225-53.631-1.489-.99.89-1.569 2.169-1.569 3.499l-.16 140.141c0 .2.01.39.04.59l.12-109.242c0-1.34.58-2.609 1.569-3.499 15.325-13.745 38.906-13.245 53.631 1.489 15.225 15.215 39.926 15.275 55.201 0 15.205-15.205 39.896-15.305 55.211 0 15.255 15.225 39.916 15.265 55.201 0 15.255-15.235 39.916-15.265 55.201 0 15.255 15.225 39.916 15.265 55.201 0 15.325-15.305 40.026-15.195 55.211 0 15.245 15.235 39.946 15.255 55.201 0 15.235-15.235 39.936-15.265 55.201 0v-31.489c-15.265-15.265-39.966-15.235-55.201 0z" fill="#72d1fb"/><path d="m496.655 432.262c-.02.02-.05.05-.07.07-18.983 18.983-49.752 18.973-68.706 0-18.983-18.963-49.733-18.973-68.716 0-18.993 18.973-49.703 18.983-68.706 0-19.033-18.993-49.723-18.943-68.706 0-18.953 18.953-49.682 19.003-68.706 0-19.013-18.993-49.762-18.943-68.716 0-18.963 18.983-49.733 18.973-68.706 0-2.489-2.489-5.188-4.658-8.037-6.498v35.987c2.849 1.839 5.548 4.009 8.037 6.498 18.973 18.973 49.742 18.983 68.706 0 18.953-18.943 49.702-18.993 68.716 0 19.023 19.003 49.753 18.953 68.706 0 18.983-18.943 49.673-18.993 68.706 0 19.003 18.983 49.712 18.973 68.706 0 18.983-18.973 49.733-18.963 68.716 0 18.953 18.973 49.723 18.983 68.706 0 .02-.03.05-.05.07-.08 2.899-2.879 7.847-.75 7.847 3.339v-35.987c.001-4.089-4.948-6.218-7.847-3.329z" fill="#40c1fa"/><g><path d="m422.066 53.061c.044 0 .089.001.133.001 4.08 0 7.423-3.271 7.494-7.367l.056-3.226c.072-4.14-3.226-7.554-7.366-7.627-.044 0-.089-.001-.133-.001-4.08 0-7.423 3.271-7.494 7.367l-.056 3.226c-.072 4.141 3.225 7.555 7.366 7.627z"/><path d="m98.584 169.476c10.04 0 10.028-16.494 0-16.494-10.041 0-10.028 16.494 0 16.494z"/><path d="m511.99 357.628c0-1.989-.79-3.899-2.189-5.298-18.144-18.144-47.663-18.144-65.807 0-12.296 12.296-32.299 12.296-44.594 0-18.134-18.134-47.663-18.134-65.817-.01-12.046 12.036-31.499 12.276-43.845.72v-59.27h.25c12.396 0 22.492-10.086 22.492-22.492v-13.325c0-12.406-10.096-22.492-22.492-22.492h-25.027l153.148-147.889h.004c10.981 1.089 22.682-2.117 32.049-9.896v77.617l-31.108 52.203h-8.143c-4.141 0-7.497 3.357-7.497 7.497v71.279c0 4.141 3.357 7.497 7.497 7.497h93.5c4.141 0 7.497-3.357 7.497-7.497v-19.668c0-4.141-3.357-7.497-7.497-7.497-4.141 0-7.497 3.357-7.497 7.497v12.171h-78.506v-56.284h73.592c.005 0 .01.001.015.001s.01-.001.015-.001h4.884v14.124c0 4.141 3.357 7.497 7.497 7.497 4.141 0 7.497-3.357 7.497-7.497v-21.622c0-4.141-3.357-7.497-7.497-7.497h-8.143l-31.11-52.206v-102.585c7.093-34.527-27.904-63.097-60.409-48.963l-.01.01-95.688 35.838c-3.869 1.45-5.838 5.768-4.388 9.647 1.477 3.934 5.858 5.829 9.657 4.388l66.846-25.041c-2.237 6.01-3.081 12.678-2.689 17.979l-76.666 74.035c-.075.069-.148.14-.219.212l-67.98 65.647c-.041.039-.082.078-.122.118l-50.624 48.887h-58.819v-43.315c8.917-7.357 14.605-18.483 14.605-30.919 0-14.625-7.877-27.45-19.613-34.438l167.191-62.638c3.879-1.459 5.848-5.778 4.398-9.657-1.46-3.879-5.778-5.838-9.657-4.388-.556.207-196.189 73.493-196.741 73.713-16.616 6.401-27.922 23.521-25.33 42.963l-41.167 69.208c-10.086 2.219-17.643 11.226-17.643 21.962v13.325c0 12.406 10.086 22.492 22.492 22.492h.24v46.644c-7.497 2.059-14.565 6.028-20.453 11.916-1.4 1.399-2.199 3.299-2.199 5.288-.099 89.911-.063 58.648-.17 146.828 0 3.99 3.175 7.507 7.587 7.507h496.915c4.161 0 7.497-3.394 7.497-7.497.001-87.272-.009-73.735-.009-146.828zm-185.665-239.859 39.737-38.373-2.845 36.822zm24.449 13.981-39.747 38.382 2.84-36.831zm-55.704 50.277-36.897 1.556 39.736-38.372zm-52.163 53.434 2.811-36.344 36.905-1.557-39.249 37.901zm136.269-131.138 3.138-40.62.521-.503c4.325 8.65 10.924 15.245 18.774 19.455.001.001.003.001.004.002zm57.333 103.173 21.151-35.494 21.151 35.494zm14.392-166.307c.323 2.906.128 6.45-.74 9.807-3.179 12.686-14.795 21.992-28.44 21.772-25.82-.478-37.802-31.901-19.523-49.553 17.296-16.669 46.438-5.993 48.703 17.974zm-221.143 169.834-1.89 24.438h-23.409-.006zm-131.173-74.867c13.825 0 25.071 11.246 25.071 25.071s-11.246 25.071-25.071 25.071-25.071-11.246-25.071-25.071c0-13.792 11.224-25.071 25.071-25.071zm-32.698 48.213c9.868 13.899 27.188 19.887 43.165 15.535v35.557h-73.556zm-50.802 86.909v-13.325c0-4.137 3.357-7.495 7.494-7.497h267.41c4.129 0 7.497 3.359 7.497 7.497v13.325c0 4.129-3.369 7.497-7.497 7.497h-267.407c-4.139.001-7.497-3.368-7.497-7.497zm259.658 22.492v48.843c-17.034-7.427-37.647-4.189-51.562 9.707-12.296 12.286-32.309 12.286-44.604 0-18.154-18.134-47.673-18.124-65.807.01-12.296 12.296-32.299 12.296-44.594 0-8.417-8.427-19.303-12.935-30.359-13.535v-45.025zm-259.658 203.189c0-87.347-.024-46.53.08-136.032 12.376-10.256 30.819-9.587 42.405 1.999 18.144 18.144 47.663 18.144 65.807 0 12.286-12.286 32.299-12.286 44.604.01 18.144 18.114 47.663 18.114 65.797 0 12.296-12.286 32.309-12.286 44.604 0 18.144 18.114 47.663 18.114 65.797 0 12.316-12.296 32.319-12.296 44.614-.01 8.787 8.787 20.473 13.635 32.888 13.635h.01c12.426 0 24.112-4.838 32.908-13.635 11.586-11.586 30.019-12.256 42.395-1.999v61.109c-1.999 1.53-3.919 3.199-5.718 4.998-7.757 7.757-18.074 12.036-29.05 12.036s-21.292-4.279-29.05-12.046c-10.596-10.586-24.681-16.414-39.666-16.414-14.965 0-29.05 5.828-39.646 16.414-5.328 5.318-11.976 9.077-19.223 10.856-4.019.99-6.478 5.048-5.498 9.067.99 4.029 5.058 6.488 9.077 5.498 9.907-2.439 18.983-7.557 26.241-14.805 7.767-7.757 18.084-12.036 29.05-12.036 10.976 0 21.303 4.279 29.06 12.026 10.586 10.596 24.671 16.434 39.656 16.434 12.776 0 24.901-4.249 34.768-12.066v54.961c-4.228 0-472.031 0-481.91 0z"/><path d="m309.731 436.21c-5.248-2.069-9.947-5.158-13.975-9.187-10.616-10.586-24.691-16.414-39.646-16.414-14.965 0-29.05 5.828-39.666 16.424-7.757 7.757-18.074 12.036-29.05 12.036-10.956 0-21.283-4.279-29.05-12.046-10.596-10.586-24.681-16.414-39.656-16.414s-29.06 5.828-39.666 16.424c-7.747 7.757-18.064 12.036-29.04 12.036-6.458 0-12.885-1.539-18.613-4.438-3.689-1.879-8.197-.41-10.076 3.289-1.879 3.689-.4 8.197 3.289 10.076 7.817 3.969 16.594 6.068 25.401 6.068 14.985 0 29.06-5.838 39.646-16.424 7.767-7.767 18.084-12.036 29.06-12.036s21.293 4.269 29.06 12.036c10.596 10.586 24.681 16.424 39.646 16.424 14.975 0 29.06-5.838 39.656-16.424 7.767-7.757 18.094-12.036 29.06-12.036 10.956 0 21.273 4.279 29.05 12.036 5.488 5.488 11.906 9.697 19.073 12.526 3.849 1.52 8.207-.38 9.717-4.228 1.518-3.85-.371-8.208-4.22-9.728z"/></g></g></svg>