<svg id="Layer_1" enable-background="new 0 0 512 512" height="512" viewBox="0 0 512 512" width="512" xmlns="http://www.w3.org/2000/svg"><g><path d="m301.617 7.5h-91.233c-5.144 0-9.314 4.17-9.314 9.314v28.723h109.862v-28.723c0-5.144-4.171-9.314-9.315-9.314z" fill="#fdc202"/><path d="m245.38 7.5c-5.14 0-9.31 4.17-9.31 9.31v28.73h-35v-28.73c0-5.14 4.17-9.31 9.31-9.31z" fill="#f0a70a"/><path d="m333.63 53.08v169.34h-155.26v-169.34c0-5.41 4.39-9.79 9.79-9.79h135.68c5.41 0 9.79 4.38 9.79 9.79z" fill="#fed22b"/><path d="m223.16 43.29c-5.4 0-9.79 4.38-9.79 9.79v169.34h-35v-169.34c0-5.41 4.39-9.79 9.79-9.79z" fill="#fdc202"/><g><path d="m278.965 143.654c0 12.683-10.281 22.964-22.964 22.964s-22.965-10.282-22.965-22.964c0-9.349 12.48-26.438 19.04-34.774 2.002-2.544 5.846-2.544 7.848 0 6.56 8.335 19.041 25.424 19.041 34.774z" fill="#655e67"/></g><path d="m339.32 267.857h-166.639c-6.669 0-12.075-5.406-12.075-12.075v-24.026c0-6.669 5.406-12.075 12.075-12.075h166.638c6.669 0 12.075 5.406 12.075 12.075v24.026c.001 6.668-5.405 12.075-12.074 12.075z" fill="#544f56"/><path d="m207.68 267.86h-35c-6.67 0-12.07-5.41-12.07-12.08v-24.02c0-6.67 5.4-12.08 12.07-12.08h35c-6.67 0-12.07 5.41-12.07 12.08v24.02c0 6.67 5.4 12.08 12.07 12.08z" fill="#444145"/><g><path d="m256 96.549c-2.196 0-4.281.962-5.706 2.633-4.134 4.847-24.758 29.771-24.758 44.472 0 16.798 13.667 30.464 30.465 30.464s30.464-13.666 30.464-30.464c0-14.702-20.625-39.625-24.759-44.472-1.425-1.671-3.51-2.633-5.706-2.633zm.001 62.569c-8.527 0-15.465-6.938-15.465-15.464 0-4.971 7.272-16.936 15.466-27.659 8.192 10.714 15.462 22.676 15.462 27.659.001 8.527-6.936 15.464-15.463 15.464z"/><path d="m341.13 212.273c0-12.93 0-113.071 0-127.596 0-.007.001-.013.001-.019s-.001-.013-.001-.019v-31.559c0-9.534-7.756-17.29-17.29-17.29h-5.41v-18.98c0-9.269-7.541-16.81-16.81-16.81h-48.891c-4.142 0-7.5 3.358-7.5 7.5s3.358 7.5 7.5 7.5h48.891c.998 0 1.81.812 1.81 1.81v18.98h-94.86v-18.98c0-.998.812-1.81 1.81-1.81h12.35c4.142 0 7.5-3.358 7.5-7.5s-3.358-7.5-7.5-7.5h-12.35c-9.269 0-16.81 7.541-16.81 16.81v18.98h-5.41c-9.534 0-17.29 7.756-17.29 17.29v159.193c-9.947.918-17.764 9.301-17.764 19.483v24.026c0 10.793 8.781 19.575 19.575 19.575h4.474l-9.38 228.836c-.17 4.139 3.048 7.631 7.187 7.801.105.004.208.006.313.006 4 0 7.323-3.159 7.488-7.193l.925-22.557 72.31-51.976 72.31 51.976.925 22.558c.166 4.034 3.488 7.193 7.488 7.193.104 0 .208-.002.313-.006 4.139-.169 7.356-3.662 7.187-7.801l-9.379-228.836h4.479c10.793 0 19.574-8.781 19.574-19.575v-24.026c-.001-10.183-7.818-18.566-17.765-19.484zm-152.125 140.247 2.894-70.606 50.717 34.323zm66.992-27.226 50.63 34.265h-101.26zm51.812 49.265-51.811 37.242-51.812-37.242zm-38.43-58.321 50.718-34.324 2.894 70.607zm-13.382-9.056-47.025-31.825h94.05zm-71.529 156.035 3.359-81.944 55.321 39.764zm84.38-42.18 55.322-39.765 3.359 81.944zm75.046-165.255c0 2.522-2.052 4.575-4.574 4.575h-166.639c-2.523 0-4.575-2.052-4.575-4.575v-24.026c0-2.522 2.052-4.575 4.575-4.575h91.385c4.142 0 7.5-3.358 7.5-7.5s-3.358-7.5-7.5-7.5h-78.196v-18.671h11.13c4.142 0 7.5-3.358 7.5-7.5s-3.358-7.5-7.5-7.5h-11.13v-35.677h11.13c4.142 0 7.5-3.358 7.5-7.5s-3.358-7.5-7.5-7.5h-11.13v-35.676h11.13c4.142 0 7.5-3.358 7.5-7.5s-3.358-7.5-7.5-7.5h-11.13v-24.077c0-1.263 1.027-2.29 2.29-2.29h135.68c1.263 0 2.29 1.027 2.29 2.29v24.077h-11.13c-4.142 0-7.5 3.358-7.5 7.5s3.358 7.5 7.5 7.5h11.13v35.676h-11.13c-4.142 0-7.5 3.358-7.5 7.5s3.358 7.5 7.5 7.5h11.13v35.677h-11.13c-4.142 0-7.5 3.358-7.5 7.5s3.358 7.5 7.5 7.5h11.13v18.671h-32.063c-4.142 0-7.5 3.358-7.5 7.5s3.358 7.5 7.5 7.5h45.252c2.523 0 4.575 2.052 4.575 4.575z"/></g></g></svg>