<svg id="Layer_1" enable-background="new 0 0 512 512" height="512" viewBox="0 0 512 512" width="512" xmlns="http://www.w3.org/2000/svg"><g><path d="m179.732 260.721 70.446 148.531c1.398 2.946 5.188 3.799 7.712 1.736l26.523-21.674c1.133-.926 1.805-2.3 1.842-3.763l.618-24.916c.038-1.527.769-2.954 1.986-3.877l21.646-16.405c1.22-.925 1.951-2.355 1.987-3.885l.576-24.855c.035-1.531.767-2.962 1.988-3.886l21.649-16.393c1.221-.925 1.953-2.356 1.988-3.886l.577-24.845c.035-1.526.763-2.953 1.977-3.878l21.61-16.46c1.212-.923 1.939-2.346 1.977-3.87l.616-24.809c.038-1.528.77-2.955 1.988-3.878l21.653-16.396c1.221-.925 1.953-2.356 1.988-3.886l.576-24.878c.035-1.527.764-2.955 1.98-3.88l21.614-16.433c1.214-.923 1.942-2.346 1.98-3.871l.622-24.818c.038-1.526.769-2.953 1.986-3.875l21.651-16.409c1.218-.923 1.949-2.349 1.986-3.877l.614-24.819c.038-1.528.77-2.955 1.988-3.878l18.991-14.381c2.428-1.838 2.673-5.399.519-7.553l-31.751-31.752c-1.961-1.961-5.139-1.961-7.1 0l-246.017 246.018c-1.501 1.501-1.895 3.783-.986 5.701z" fill="#c2bdc5"/><path d="m234.282 251.351 52.552 110.808-.582 23.395c-.03 1.456-.703 2.831-1.837 3.765l-26.527 21.668c-2.52 2.068-6.316 1.215-7.711-1.737l-70.445-148.53c-.914-1.918-.512-4.197.984-5.703l246.024-246.015c1.958-1.958 5.131-1.958 7.099 0l19.037 19.047-217.6 217.6c-1.506 1.505-1.897 3.784-.994 5.702z" fill="#b3adb6"/><path d="m266.382 411.579-46.568-149.042c-1.034-3.303-3.574-5.924-6.848-7.069l-34.961-12.169c-3.966-1.376-8.364-.371-11.326 2.59-22.702 22.702-117.214 117.214-116.531 116.531-6.938 6.938-6.938 18.194 0 25.132 6.928 6.928 18.184 6.938 25.122 0 .958-.958 2.514-.97 3.484 0l83.106 83.106c.964.954.964 2.52 0 3.474-3.474 3.464-5.201 8.022-5.201 12.561 0 15.951 19.311 23.624 30.333 12.571l76.68-76.69c2.881-2.872 3.925-7.109 2.71-10.995zm-55.926.813-16.507 16.517c-4.277 4.267-11.195 4.267-15.463 0l-57.984-57.984c-4.277-4.267-4.277-11.195 0-15.463l49.229-49.229c5.813-5.814 15.713-3.374 18.163 4.468l26.628 85.204c1.818 5.824.251 12.17-4.066 16.487z" fill="#c0694e"/><path d="m219.814 262.536c-1.034-3.303-3.574-5.924-6.848-7.069l-34.961-12.169c-3.966-1.376-8.364-.371-11.326 2.59-22.702 22.703-117.214 117.215-116.531 116.532-6.938 6.938-6.938 18.194 0 25.132 6.928 6.928 18.184 6.938 25.122 0 1.487-1.487-15.129 15.159 115.256-115.226 2.962-2.962 7.36-3.966 11.326-2.59l22.682 7.892z" fill="#ae583e"/><g><path d="m470.928 35.436-31.762-31.772c-4.909-4.884-12.828-4.891-17.735.013l-234.698 234.688c-6.491-2.259-8.455-3.198-12.314-3.198-4.934 0-9.569 1.919-13.053 5.403-.432.432-115.844 115.836-116.266 116.278-15.801 14.261-6.009 43.439 17.621 43.439 5.035 0 9.843-1.46 13.945-4.18l76.649 76.649c-10.951 16.507.725 39.244 21.127 39.244 12.734 0 18.053-7.574 28.955-18.478 2.941-2.941 2.94-7.709-.001-10.65s-7.709-2.941-10.649.001c-11.716 11.718-12.964 14.065-18.304 14.065-9.247 0-13.569-11.173-7.271-17.453 3.973-3.936 3.9-10.313.025-14.148l-83.107-83.105c-1.888-1.889-4.397-2.929-7.062-2.929-7.192 0-7.002 5.923-14.307 5.923-9.039 0-13.709-11.002-7.237-17.476 0 0 .001 0 .001-.001l116.53-116.53c.91-.908 2.318-1.222 3.525-.804l34.951 12.166c1.023.357 1.825 1.184 2.145 2.205l46.567 149.039c.366 1.175.094 2.49-.847 3.428l-44.313 44.319c-2.941 2.941-2.94 7.709.001 10.65s7.709 2.94 10.649-.001l44.303-44.308c4.797-4.778 6.801-11.481 4.226-19.722l15.991-13.057c2.835-2.333 4.505-5.767 4.581-9.392l.592-23.711 20.695-15.685c3.053-2.321 4.86-5.852 4.959-9.706l.544-23.638 20.669-15.656c3.091-2.331 4.907-5.884 4.983-9.721l.554-23.65 20.666-15.733c3.029-2.322 4.824-5.837 4.926-9.656l.581-23.599 20.671-15.658c3.091-2.33 4.907-5.883 4.983-9.721l.554-23.671 20.653-15.703c3.044-2.314 4.847-5.839 4.949-9.681l.592-23.603 20.695-15.694c3.05-2.318 4.858-5.844 4.959-9.685l.479-19.389c.102-4.158-3.185-7.611-7.343-7.714-.063-.002-.126-.002-.189-.002-4.072 0-7.424 3.25-7.525 7.345l-.448 18.179-20.665 15.67c-3.068 2.309-4.887 5.842-4.989 9.705l-.592 23.612-20.655 15.705c-3.071 2.335-4.875 5.879-4.949 9.693l-.554 23.67-20.693 15.674c-3.05 2.319-4.858 5.844-4.959 9.684l-.581 23.599-20.711 15.767c-3.03 2.349-4.81 5.882-4.883 9.662l-.554 23.63-20.668 15.655c-3.092 2.33-4.909 5.884-4.985 9.726l-.544 23.639-20.69 15.681c-3.051 2.318-4.859 5.844-4.961 9.684l-.593 23.775-10.379 8.497-41.377-132.427c-1.737-5.547-6.055-10.005-11.559-11.929l-12.92-4.497 227.773-227.762 27.934 27.943c-4.371 3.307-4.371 7.948-2.058 11.003 2.511 3.316 7.233 3.968 10.549 1.458l2.89-2.188c3.168-2.394 4.985-6.045 4.985-10.018 0-3.356-1.31-6.509-3.677-8.865z"/><path d="m283.823 190.663-18.323 18.324c-2.941 2.941-2.941 7.709.001 10.649 1.47 1.47 3.398 2.206 5.324 2.206 1.927 0 3.854-.735 5.325-2.206l18.323-18.324c2.941-2.941 2.941-7.709 0-10.649s-7.708-2.94-10.65 0z"/><path d="m361.921 112.566-56.798 56.798c-2.941 2.941-2.941 7.709 0 10.649 1.471 1.47 3.398 2.206 5.325 2.206s3.854-.735 5.325-2.206l56.798-56.798c2.941-2.941 2.941-7.709 0-10.649-2.941-2.941-7.708-2.941-10.65 0z"/><path d="m175.069 311.561c1.819-1.819 4.889-1.051 5.651 1.39l8.727 27.924c1.241 3.97 5.466 6.182 9.434 4.941 3.97-1.241 6.182-5.464 4.941-9.434l-8.727-27.923c-2.422-7.753-9.518-12.962-17.658-12.962-4.903 0-9.526 1.923-13.017 5.414l-49.223 49.223c-7.238 7.223-7.223 18.917-.006 26.118l57.984 57.984c3.486 3.486 8.122 5.406 13.052 5.406 4.928 0 9.564-1.918 13.061-5.408l16.505-16.515c4.525-4.524 7.017-10.537 7.017-16.93 0-2.416-.365-4.812-1.087-7.128l-8.916-28.53c-1.24-3.97-5.465-6.18-9.434-4.941-3.97 1.241-6.182 5.464-4.941 9.434l8.915 28.525c.267.858.403 1.746.403 2.64 0 2.37-.925 4.6-2.607 6.282l-16.5 16.509c-.873.871-1.888 1.001-2.416 1.001-.526 0-1.537-.129-2.403-.995l-57.99-57.991c-1.323-1.319-1.335-3.469.006-4.807z"/></g></g></svg>