<svg id="Layer_1" enable-background="new 0 0 512 512" height="512" viewBox="0 0 512 512" width="512" xmlns="http://www.w3.org/2000/svg"><g><path d="m247.057 44.593-238.149 412.486c-3.977 6.888.994 15.497 8.947 15.497h476.298c7.953 0 12.924-8.61 8.947-15.497l-238.148-412.486c-3.977-6.888-13.918-6.888-17.895 0z" fill="#fed22b"/><path d="m64.912 430.077 186.763-323.483c1.924-3.333 6.736-3.333 8.66 0l186.763 323.483c1.924 3.333-.481 7.5-4.33 7.5h-373.526c-3.849 0-6.255-4.167-4.33-7.5z" fill="#f0a70a"/><g><g><path d="m256.004 333.001c-8.284 0-15-6.716-15-15v-105.831c0-8.284 6.716-15 15-15s15 6.716 15 15v105.832c0 8.283-6.716 14.999-15 14.999z" fill="#444145"/></g><circle cx="256.004" cy="380.5" fill="#444145" r="18"/></g><path d="m104.237 437.578h-34.999c-3.85 0-6.25-4.17-4.33-7.5l186.767-323.484c1.92-3.33 6.74-3.33 8.66 0l13.17 22.81-173.598 300.675c-1.92 3.33.48 7.499 4.33 7.499z" fill="#e38803"/><g><path d="m509.596 453.329-238.149-412.486c-6.863-11.885-24.012-11.899-30.885 0l-238.149 412.486c-6.877 11.911 1.778 26.747 15.443 26.747h342.028c4.142 0 7.5-3.358 7.5-7.5s-3.358-7.5-7.5-7.5h-342.028c-2.155 0-3.557-2.331-2.453-4.247l238.148-412.484c1.095-1.897 3.811-1.897 4.906-.001l238.149 412.486c1.095 1.899-.281 4.247-2.453 4.247h-104.27c-4.142 0-7.5 3.358-7.5 7.5s3.358 7.5 7.5 7.5h104.27c9.841 0 17.847-8.006 17.847-17.847 0-3.099-.832-6.177-2.404-8.901z"/><path d="m140.801 445.077h301.966c9.56 0 15.654-10.388 10.825-18.75l-103.771-179.737c-2.071-3.587-6.658-4.817-10.245-2.745-3.587 2.071-4.816 6.658-2.745 10.245l101.606 175.987h-297.636c-4.142 0-7.5 3.358-7.5 7.5s3.358 7.5 7.5 7.5z"/><path d="m321.831 228.109c2.071 3.588 6.659 4.818 10.245 2.745 3.587-2.071 4.816-6.658 2.745-10.245l-67.991-117.763c-4.808-8.332-16.838-8.345-21.651-.002l-186.763 323.485c-4.815 8.345 1.249 18.748 10.826 18.748h41.56c4.142 0 7.5-3.358 7.5-7.5s-3.358-7.5-7.5-7.5h-37.23l182.433-315.983z"/><path d="m256.004 340.501c12.407 0 22.5-10.093 22.5-22.5v-105.832c0-12.407-10.093-22.5-22.5-22.5s-22.5 10.093-22.5 22.5v105.832c.001 12.407 10.094 22.5 22.5 22.5zm-7.499-128.332c0-4.136 3.364-7.5 7.5-7.5s7.5 3.364 7.5 7.5v105.832c0 4.136-3.364 7.5-7.5 7.5s-7.5-3.364-7.5-7.5z"/><path d="m256.004 406c14.06 0 25.5-11.439 25.5-25.5s-11.439-25.5-25.5-25.5-25.5 11.439-25.5 25.5 11.44 25.5 25.5 25.5zm0-36c5.789 0 10.5 4.71 10.5 10.5s-4.71 10.5-10.5 10.5c-5.789 0-10.5-4.71-10.5-10.5s4.711-10.5 10.5-10.5z"/></g></g></svg>