<svg id="Layer_1" enable-background="new 0 0 512 512" height="512" viewBox="0 0 512 512" width="512" xmlns="http://www.w3.org/2000/svg"><g><path d="m315.435 29.539c10.09 10.09 10.143 26.432.119 36.587l-163.978 166.122-36.707-36.707 163.74-165.882c10.117-10.249 26.643-10.302 36.826-.12z" fill="#8e8391"/><path d="m314.57 28.73c-.33.3-.65.61-.96.93l-181.26 183.36-17.48-17.48 163.74-165.88c9.84-9.97 25.73-10.29 35.96-.93z" fill="#766d78"/><path d="m277.605 65.188 36.707-36.707 123.416 123.416c10.136 10.136 10.136 26.571 0 36.707-10.136 10.136-26.571 10.136-36.707 0z" fill="#8e8391"/><path d="m436.88 189.41c-4.95 4.53-11.22 6.79-17.5 6.79-6.65 0-13.29-2.53-18.36-7.6l-123.42-123.41 16.91-16.91 141.51 140.32c.28.28.57.55.86.81z" fill="#766d78"/><path d="m497.488 293.412c-4.104-3.41 2.997 2.411-52.219-42.736v-59.916h-50.609v59.915c-56.924 46.003-53.341 42.978-54.623 44.435-2.507 2.853-3.923 6.545-3.923 10.394v59.272c0 4.667 2.077 9.104 5.664 12.093l35.588 29.631c2.947 2.444 6.513 3.64 10.059 3.64 4.51 0 8.989-1.93 12.104-5.664 5.559-6.681 4.647-16.604-2.024-22.163l-29.924-24.911v-44.525l21.345-17.768h61.406l21.355 17.768v44.525l-29.935 24.911c-6.671 5.559-7.583 15.481-2.024 22.163 3.115 3.734 7.594 5.664 12.104 5.664 3.545 0 7.122-1.196 10.059-3.64l35.588-29.631c3.598-2.989 5.674-7.426 5.674-12.093v-59.272c-.001-4.666-2.078-9.103-5.665-12.092z" fill="#8e8391"/><path d="m357.78 305.51v59.27c0 4.66 2.08 9.1 5.66 12.09l34.8 28.97c-3 2.84-6.9 4.3-10.82 4.3-3.54 0-7.11-1.19-10.05-3.64l-35.59-29.63c-3.59-2.99-5.67-7.43-5.67-12.09v-59.27c0-3.85 1.42-7.55 3.93-10.4 1.225-1.41-2.226 1.505 54.62-44.43v-59.92h21.67v59.92l-52.89 42.73c-.62.53-1.2 1.09-1.74 1.7-2.5 2.85-3.92 6.55-3.92 10.4z" fill="#766d78"/><path d="m107.934 192.912h51.912v278.646h-51.912z" fill="#8e8391"/><path d="m107.93 192.91h35v278.65h-35z" fill="#766d78"/><circle cx="133.889" cy="213.227" fill="#655e67" r="40.19"/><circle cx="297.644" cy="52.941" fill="#655e67" r="45.441"/><circle cx="419.633" cy="172.48" fill="#655e67" r="40.19"/><path d="m216.658 488.54h-165.537v-41.766c0-16.878 13.683-30.561 30.561-30.561h104.416c16.878 0 30.561 13.683 30.561 30.561v41.766z" fill="#655e67"/><g fill="#544f56"><path d="m151.39 249.42c-5.29 2.56-11.23 4-17.5 4-22.2 0-40.19-18-40.19-40.19 0-22.2 17.99-40.19 40.19-40.19 6.27 0 12.21 1.44 17.5 4-13.43 6.5-22.69 20.26-22.69 36.19 0 15.92 9.26 29.69 22.69 36.19z"/><path d="m315.14 94.89c-5.39 2.25-11.3 3.49-17.5 3.49-25.09 0-45.44-20.34-45.44-45.44s20.35-45.44 45.44-45.44c6.2 0 12.11 1.24 17.5 3.49-16.41 6.86-27.94 23.06-27.94 41.95s11.53 35.09 27.94 41.95z"/><path d="m437.14 208.67c-5.29 2.56-11.23 4-17.51 4-22.19 0-40.19-17.99-40.19-40.19s18-40.19 40.19-40.19c6.28 0 12.22 1.44 17.51 4-13.43 6.5-22.7 20.26-22.7 36.19s9.27 29.69 22.7 36.19z"/><path d="m116.68 416.21c-16.88 0-30.56 13.69-30.56 30.56v41.77h-35v-41.77c0-16.87 13.68-30.56 30.56-30.56z"/><path d="m248.93 504.5h-229.507c-5.84 0-10.575-4.734-10.575-10.575 0-18.727 15.181-33.908 33.908-33.908h182.266c18.727 0 33.908 15.181 33.908 33.908v.575c0 5.523-4.477 10-10 10z"/></g><path d="m54.42 504.5h-35c-5.84 0-10.57-4.73-10.57-10.57 0-9.37 3.79-17.84 9.93-23.98 6.14-6.13 14.62-9.93 23.98-9.93h35c-9.36 0-17.84 3.8-23.98 9.93-6.14 6.14-9.93 14.61-9.93 23.98 0 5.84 4.73 10.57 10.57 10.57z" fill="#444145"/><g><path d="m499.258 285.134-46.487-38.009v-40.397c30.123-29.156 10.457-80.472-31.502-81.896l-70.714-70.714c.009-.393.03-.783.03-1.178 0-29.191-23.749-52.94-52.94-52.94s-52.94 23.749-52.94 52.94c0 .127.009.252.01.379l-110.77 112.22c-.018 0-.037-.001-.055-.001-26.296 0-47.689 21.394-47.689 47.69 0 13.27 5.453 25.287 14.23 33.94v161.542h-18.75c-20.986 0-38.06 17.074-38.06 38.06v5.747h-.863c-22.833 0-41.408 18.576-41.408 41.408 0 9.966 8.108 18.075 18.075 18.075h239.507c4.142 0 7.5-3.358 7.5-7.5v-10.575c0-22.833-18.576-41.408-41.408-41.408h-.862v-5.747c0-20.986-17.074-38.06-38.06-38.06h-18.75v-92.5c0-4.142-3.358-7.5-7.5-7.5s-7.5 3.358-7.5 7.5v92.5h-36.92v-151.513c5.681 2.394 11.918 3.72 18.459 3.72 6.542 0 12.779-1.326 18.46-3.72v29.013c0 4.142 3.358 7.5 7.5 7.5s7.5-3.358 7.5-7.5v-39.042c8.777-8.654 14.229-20.67 14.229-33.94 0-.229-.014-.455-.017-.683l106.209-107.601c6.146 1.165 12.453 1.29 19.101.115l65.129 65.129c-.69 14.515 5.174 27.872 15.159 37.174v39.737l-14.183 11.46c-3.222 2.604-3.723 7.326-1.12 10.547 1.482 1.834 3.65 2.787 5.838 2.787 1.655 0 3.322-.545 4.709-1.667l16.969-13.712c1.762-1.424 2.786-3.568 2.786-5.833v-33.841c11.65 4.605 24.415 4.359 35.61-.262v34.103c0 2.25 1.011 4.382 2.752 5.806l49.201 40.228c2.845 2.359 5.927 4.234 5.927 8.796v59.27c0 2.449-1.083 4.755-2.969 6.326-38.289 31.877-36.764 31.534-40.851 31.534-7.671 0-11.197-9.636-5.283-14.564l29.94-24.91c1.712-1.425 2.703-3.538 2.703-5.766v-44.52c0-2.228-.991-4.341-2.704-5.766l-21.36-17.77c-1.347-1.121-3.044-1.734-4.796-1.734h-61.41c-1.753 0-3.452.614-4.799 1.737l-21.34 17.77c-1.711 1.425-2.701 3.536-2.701 5.763v44.52c0 2.227.99 4.339 2.701 5.764l29.921 24.911c1.887 1.57 2.969 3.883 2.969 6.346 0 6.916-8.138 10.787-13.502 6.315l-35.588-29.628c-1.888-1.572-2.97-3.878-2.97-6.328v-59.27c0-2.003.731-3.936 2.092-5.481.692-.797.617-.644 13.368-10.947 3.222-2.604 3.723-7.326 1.12-10.547-2.603-3.222-7.325-3.723-10.547-1.12-13.349 10.787-13.563 10.818-15.231 12.739-3.741 4.248-5.802 9.702-5.802 15.357v59.27c0 6.915 3.051 13.422 8.371 17.854l35.587 29.628c9.814 8.178 24.45 6.909 32.726-2.983 8.146-9.787 6.943-24.46-2.995-32.732l-27.219-22.662v-37.49l16.554-13.785h55.984l16.572 13.787v37.487l-27.242 22.666c-16.655 13.883-6.767 41.091 14.882 41.091 5.421 0 10.699-1.91 14.858-5.376l35.592-29.631c5.319-4.431 8.37-10.938 8.37-17.853v-59.27c0-11.702-7.615-17.247-11.393-20.379zm-290.097 161.636v5.747h-95.813c-4.142 0-7.5 3.358-7.5 7.5s3.358 7.5 7.5 7.5h111.675c14.562 0 26.408 11.847 26.408 26.408v3.075h-232.007c-1.695 0-3.075-1.379-3.075-3.075 0-14.562 11.847-26.408 26.408-26.408h40.591c4.142 0 7.5-3.358 7.5-7.5s-3.358-7.5-7.5-7.5h-24.727v-5.747c0-12.715 10.345-23.06 23.06-23.06h104.42c12.715 0 23.06 10.345 23.06 23.06zm-107.96-233.542c0-18.025 14.665-32.69 32.689-32.69 18.025 0 32.69 14.665 32.69 32.69s-14.665 32.689-32.69 32.689-32.689-14.665-32.689-32.689zm76.709-18.336c-4.92-11.769-14.43-21.152-26.278-25.919l96.375-97.636c4.454 11.98 13.127 21.923 24.205 28.018zm81.795-141.952c0-20.92 17.02-37.94 37.94-37.94s37.94 17.02 37.94 37.94-17.02 37.94-37.94 37.94-37.94-17.019-37.94-37.94zm62.923 46.66c11.132-5.984 19.88-15.837 24.452-27.746l55.93 55.93c-11.997 4.477-21.714 13.655-26.918 25.279zm64.316 72.879c0-18.025 14.665-32.689 32.69-32.689s32.689 14.665 32.689 32.689c0 18.025-14.665 32.69-32.689 32.69-18.026 0-32.69-14.664-32.69-32.69z"/><path d="m133.89 202.688c-5.812 0-10.539 4.728-10.539 10.539s4.728 10.539 10.539 10.539 10.539-4.728 10.539-10.539-4.727-10.539-10.539-10.539z"/><path d="m297.645 42.402c-5.812 0-10.539 4.728-10.539 10.539s4.728 10.539 10.539 10.539 10.539-4.728 10.539-10.539c0-5.812-4.728-10.539-10.539-10.539z"/><path d="m419.634 161.941c-5.812 0-10.539 4.728-10.539 10.539s4.728 10.539 10.539 10.539 10.539-4.728 10.539-10.539-4.728-10.539-10.539-10.539z"/></g></g></svg>