<svg id="Layer_1" enable-background="new 0 0 512 512" height="512" viewBox="0 0 512 512" width="512" xmlns="http://www.w3.org/2000/svg"><g><path d="m438.792 504.5h-270.305c-5.441 0-9.851-4.411-9.851-9.851v-395.459c0-5.441 4.411-9.851 9.851-9.851h270.305c5.441 0 9.851 4.411 9.851 9.851v395.458c.001 5.441-4.41 9.852-9.851 9.852z" fill="#c8bebc"/><path d="m391.643 463.581h-270.305c-5.441 0-9.851-4.411-9.851-9.851v-395.459c0-5.441 4.411-9.851 9.851-9.851h270.305c5.441 0 9.851 4.411 9.851 9.851v395.458c0 5.441-4.41 9.852-9.851 9.852z" fill="#d8cecc"/><path d="m343.513 422.661h-270.305c-5.441 0-9.851-4.411-9.851-9.851v-395.459c0-5.441 4.411-9.851 9.851-9.851h270.305c5.441 0 9.851 4.411 9.851 9.851v395.459c0 5.44-4.41 9.851-9.851 9.851z" fill="#fff5f4"/><path d="m236.722 131.361h-69.362c-2.761 0-5-2.239-5-5v-69.361c0-2.761 2.239-5 5-5h69.361c2.761 0 5 2.239 5 5v69.361c.001 2.762-2.238 5-4.999 5z" fill="#e04955"/><circle cx="141" cy="339" fill="#40c1fa" r="36"/><path d="m269.333 188.79-36.676 63.525c-1.924 3.333.481 7.5 4.33 7.5h73.353c3.849 0 6.255-4.167 4.33-7.5l-36.676-63.525c-1.925-3.333-6.736-3.333-8.661 0z" fill="#fed22b"/><path d="m108.21 422.66h-35c-5.44 0-9.85-4.41-9.85-9.85v-395.46c0-5.44 4.41-9.85 9.85-9.85h35c-5.44 0-9.85 4.41-9.85 9.85v395.46c0 5.44 4.41 9.85 9.85 9.85z" fill="#ebe0da"/><path d="m202.36 131.36h-35c-2.76 0-5-2.24-5-5v-69.36c0-2.76 2.24-5 5-5h35c-2.76 0-5 2.24-5 5v69.36c0 2.76 2.24 5 5 5z" fill="#da2f3c"/><path d="m158.5 370.47c-5.18 2.88-11.15 4.53-17.5 4.53-19.88 0-36-16.12-36-36s16.12-36 36-36c6.35 0 12.32 1.65 17.5 4.53-11.03 6.15-18.5 17.94-18.5 31.47s7.47 25.32 18.5 31.47z" fill="#07a9f0"/><path d="m271.99 259.82h-35c-3.85 0-6.26-4.17-4.33-7.5l36.67-63.53c1.93-3.33 6.74-3.33 8.66 0l13.17 22.81-23.5 40.72c-1.93 3.33.48 7.5 4.33 7.5z" fill="#fdc202"/><g><path d="m438.792 81.84h-29.8v-23.57c0-9.567-7.783-17.35-17.351-17.35h-30.775v-23.568c0-9.568-7.784-17.352-17.351-17.352h-217.03c-4.142 0-7.5 3.358-7.5 7.5s3.358 7.5 7.5 7.5h217.03c1.297 0 2.352 1.055 2.352 2.352v395.458c0 1.297-1.055 2.352-2.352 2.352-17.141 0-259.009 0-270.305 0-1.297 0-2.352-1.055-2.352-2.352v-395.458c0-1.297 1.055-2.352 2.352-2.352h23.275c4.142 0 7.5-3.358 7.5-7.5s-3.358-7.5-7.5-7.5h-23.275c-9.568 0-17.352 7.784-17.352 17.352v395.458c0 9.568 7.784 17.352 17.352 17.352h30.782v23.569c0 9.567 7.783 17.35 17.35 17.35h29.8v23.57c0 9.567 7.783 17.35 17.35 17.35h174.016c4.143 0 7.5-3.358 7.5-7.5s-3.357-7.5-7.5-7.5h-174.016c-1.295 0-2.35-1.054-2.35-2.35v-23.57h225.5c9.567 0 17.351-7.783 17.351-17.35v-29.218c0-4.142-3.357-7.5-7.5-7.5s-7.5 3.358-7.5 7.5v29.218c0 1.296-1.055 2.35-2.351 2.35h-270.3c-1.296 0-2.35-1.054-2.35-2.35v-23.569h224.523c9.567 0 17.352-7.784 17.352-17.352v-356.89h30.775c1.296 0 2.351 1.054 2.351 2.35v336.242c0 4.142 3.357 7.5 7.5 7.5s7.5-3.358 7.5-7.5v-297.672h29.8c1.296 0 2.35 1.054 2.35 2.35v395.46c0 1.296-1.054 2.35-2.35 2.35h-66.284c-4.143 0-7.5 3.358-7.5 7.5s3.357 7.5 7.5 7.5h66.284c9.566 0 17.35-7.783 17.35-17.35v-395.46c-.001-9.567-7.784-17.35-17.351-17.35z"/><path d="m236.724 44.5h-69.361c-6.893 0-12.5 5.607-12.5 12.5v69.361c0 6.893 5.607 12.5 12.5 12.5h69.361c6.893 0 12.5-5.607 12.5-12.5v-69.361c0-6.893-5.608-12.5-12.5-12.5zm-2.5 79.361h-64.361v-64.361h64.361z"/><path d="m97.502 339c0 23.986 19.514 43.5 43.5 43.5s43.5-19.514 43.5-43.5-19.514-43.5-43.5-43.5-43.5 19.514-43.5 43.5zm72 0c0 15.715-12.785 28.5-28.5 28.5s-28.5-12.785-28.5-28.5 12.785-28.5 28.5-28.5 28.5 12.785 28.5 28.5z"/><path d="m321.167 248.565-36.677-63.525c-4.81-8.334-16.837-8.34-21.65 0l-36.676 63.524c-4.819 8.345 1.248 18.751 10.825 18.751h73.353c9.594 0 15.638-10.424 10.825-18.75zm-79.848 3.75 32.346-56.025 32.347 56.025z"/><path d="m144.002 152.5h-8.5c-19.299 0-35 15.701-35 35v94.167c0 4.142 3.358 7.5 7.5 7.5s7.5-3.358 7.5-7.5v-94.167c0-11.028 8.972-20 20-20h8.5c4.142 0 7.5-3.358 7.5-7.5s-3.358-7.5-7.5-7.5z"/><path d="m266.165 292v21c0 11.028-8.972 20-20 20h-35.663c-4.142 0-7.5 3.358-7.5 7.5s3.358 7.5 7.5 7.5h35.663c19.299 0 35-15.701 35-35v-21c0-4.142-3.357-7.5-7.5-7.5s-7.5 3.358-7.5 7.5z"/></g></g></svg>