<svg id="Layer_1" enable-background="new 0 0 512 512" height="512" viewBox="0 0 512 512" width="512" xmlns="http://www.w3.org/2000/svg"><g><path d="m474.79 60.5v434.48c0 5.26-4.27 9.52-9.52 9.52h-293.05c-5.26 0-9.52-4.26-9.52-9.52v-181.94c8.25-8.48 13.33-20.05 13.33-32.81s-5.08-24.34-13.33-32.81v-186.92c0-5.25 4.26-9.51 9.52-9.51h293.05c5.25 0 9.52 4.26 9.52 9.51z" fill="#e5646e"/><path d="m207.22 504.5h-35c-5.26 0-9.52-4.26-9.52-9.52v-181.94c8.25-8.48 13.33-20.05 13.33-32.81s-5.08-24.34-13.33-32.81v-186.92c0-5.25 4.26-9.51 9.52-9.51h35c-5.26 0-9.52 4.26-9.52 9.51v434.48c0 5.26 4.26 9.52 9.52 9.52z" fill="#e04955"/><path d="m197.423 462.78v-370.073c0-5.523 4.477-10 10-10h222.643c5.523 0 10 4.477 10 10v370.073c0 5.523-4.477 10-10 10h-222.643c-5.523 0-10-4.477-10-10z" fill="#fff5f4"/><path d="m387.616 50.987h-25.384c0-24.017-19.47-43.487-43.487-43.487s-43.487 19.47-43.487 43.487h-25.384c-3.734 0-6.762 3.027-6.762 6.762v42.037c0 3.734 3.027 6.762 6.762 6.762h137.743c3.734 0 6.762-3.027 6.762-6.762v-42.037c-.001-3.735-3.029-6.762-6.763-6.762z" fill="#766d78"/><path d="m242.42 472.78h-35c-5.52 0-10-4.48-10-10v-370.07c0-5.53 4.48-10 10-10h35c-5.52 0-10 4.47-10 10v370.07c0 5.52 4.48 10 10 10z" fill="#ebe0da"/><path d="m336.25 11.17c-15.3 6.73-25.99 22.03-25.99 39.82h-25.39c-3.73 0-6.76 3.02-6.76 6.76v42.04c0 3.73 3.03 6.76 6.76 6.76h-35c-3.73 0-6.76-3.03-6.76-6.76v-42.04c0-3.74 3.03-6.76 6.76-6.76h25.39c0-24.02 19.47-43.49 43.48-43.49 6.23 0 12.15 1.31 17.51 3.67z" fill="#655e67"/><path d="m219.78 266.9c-.35-2.45-2.47-4.25-4.95-4.25h-3.03c-2.27 0-4.23-1.52-4.82-3.7-1.81-6.66-4.45-12.97-7.8-18.82-1.13-1.96-.82-4.43.78-6.03l2.15-2.15c1.75-1.75 1.97-4.52.5-6.5-1.55-2.08-3.19-4.1-4.91-6.04-4.19-4.73-8.86-9.02-13.94-12.81-1.98-1.48-4.76-1.25-6.5.5l-2.15 2.14c-1.6 1.6-4.07 1.91-6.03.79-2.07-1.18-4.2-2.28-6.38-3.27-3.98-1.84-8.14-3.36-12.44-4.53-2.18-.59-3.7-2.56-3.7-4.82v-3.04c0-2.47-1.81-4.59-4.25-4.95-4.35-.63-8.81-.96-13.33-.96-4.53 0-8.98.33-13.33.96-2.44.36-4.25 2.48-4.25 4.95v3.04c0 2.26-1.52 4.23-3.7 4.82-6.65 1.81-12.97 4.45-18.82 7.8-1.96 1.12-4.43.81-6.03-.79l-2.15-2.14c-1.75-1.75-4.52-1.98-6.5-.5-7.16 5.34-13.51 11.69-18.85 18.85-1.48 1.98-1.25 4.75.5 6.5l2.14 2.15c1.6 1.6 1.92 4.07.79 6.03-3.35 5.85-5.99 12.16-7.8 18.82-.59 2.18-2.56 3.7-4.82 3.7h-3.04c-2.47 0-4.59 1.8-4.95 4.25-.63 4.35-.96 8.8-.96 13.33 0 4.52.33 8.97.96 13.33.36 2.44 2.48 4.24 4.95 4.24h3.04c2.26 0 4.23 1.53 4.82 3.71 1.81 6.65 4.45 12.96 7.8 18.81 1.13 1.97.81 4.44-.79 6.04l-2.14 2.14c-1.75 1.75-1.98 4.53-.5 6.51 5.34 7.16 11.69 13.51 18.85 18.84 1.98 1.48 4.75 1.26 6.5-.49l2.15-2.15c1.6-1.6 4.07-1.91 6.03-.78 5.85 3.35 12.17 5.98 18.82 7.79 2.18.6 3.7 2.56 3.7 4.82v3.04c0 2.47 1.81 4.6 4.25 4.95 4.35.64 8.8.96 13.33.96 4.52 0 8.98-.32 13.33-.96 2.44-.35 4.25-2.48 4.25-4.95v-3.04c0-2.26 1.52-4.22 3.7-4.82 4.3-1.17 8.46-2.68 12.44-4.52 2.18-.99 4.31-2.09 6.38-3.27 1.96-1.13 4.43-.82 6.03.78l2.15 2.15c1.74 1.75 4.52 1.97 6.5.49 5.08-3.78 9.75-8.07 13.94-12.8 1.72-1.94 3.36-3.96 4.91-6.04 1.47-1.98 1.25-4.76-.5-6.51l-2.15-2.14c-1.6-1.6-1.91-4.07-.78-6.04 3.35-5.85 5.99-12.16 7.8-18.81.59-2.18 2.55-3.71 4.82-3.71h3.03c2.48 0 4.6-1.8 4.95-4.24.64-4.36.96-8.81.96-13.33 0-4.53-.32-8.98-.96-13.33zm-57.08 46.14c-8.55 8.78-20.49 14.24-33.72 14.24-25.99 0-47.05-21.07-47.05-47.05 0-25.99 21.06-47.05 47.05-47.05 13.23 0 25.17 5.45 33.72 14.24 8.25 8.47 13.33 20.05 13.33 32.81s-5.08 24.33-13.33 32.81z" fill="#766d78"/><path d="m146.4 363.04c0-2.26-1.52-4.22-3.7-4.82-6.65-1.81-12.97-4.44-18.82-7.79-1.96-1.13-4.43-.82-6.03.78l-2.15 2.15c-1.75 1.75-4.52 1.97-6.5.49-7.16-5.33-13.51-11.68-18.85-18.84-1.48-1.98-1.25-4.76.5-6.51l2.14-2.14c1.6-1.6 1.92-4.07.79-6.04-3.35-5.85-5.99-12.16-7.8-18.81-.59-2.18-2.56-3.71-4.82-3.71h-3.04c-2.47 0-4.59-1.8-4.95-4.24-.63-4.36-.96-8.81-.96-13.33 0-4.53.33-8.98.96-13.33.36-2.45 2.48-4.25 4.95-4.25h3.04c2.26 0 4.23-1.52 4.82-3.7 1.81-6.66 4.45-12.97 7.8-18.82 1.13-1.96.81-4.43-.79-6.03l-2.14-2.15c-1.75-1.75-1.98-4.52-.5-6.5 5.34-7.16 11.69-13.51 18.85-18.85 1.98-1.48 4.75-1.25 6.5.5l2.15 2.14c1.6 1.6 4.07 1.91 6.03.79 5.85-3.35 12.17-5.99 18.82-7.8 2.18-.59 3.7-2.56 3.7-4.82 0-2.856-.044-3.221.08-3.94-.38-2.07-2.04-3.73-4.17-4.05-4.35-.63-8.81-.96-13.33-.96-4.53 0-8.98.33-13.33.96-2.44.36-4.25 2.48-4.25 4.95v3.04c0 2.26-1.52 4.23-3.7 4.82-6.65 1.81-12.97 4.45-18.82 7.8-1.96 1.12-4.43.81-6.03-.79l-2.15-2.14c-1.75-1.75-4.52-1.98-6.5-.5-7.16 5.34-13.51 11.69-18.85 18.85-1.48 1.98-1.25 4.75.5 6.5l2.14 2.15c1.6 1.6 1.92 4.07.79 6.03-3.35 5.85-5.99 12.16-7.8 18.82-.59 2.18-2.56 3.7-4.82 3.7h-3.04c-2.47 0-4.59 1.8-4.95 4.25-.63 4.35-.96 8.8-.96 13.33 0 4.52.33 8.97.96 13.33.36 2.44 2.48 4.24 4.95 4.24h3.04c2.26 0 4.23 1.53 4.82 3.71 1.81 6.65 4.45 12.96 7.8 18.81 1.13 1.97.81 4.44-.79 6.04l-2.14 2.14c-1.75 1.75-1.98 4.53-.5 6.51 5.34 7.16 11.69 13.51 18.85 18.84 1.98 1.48 4.75 1.26 6.5-.49l2.15-2.15c1.6-1.6 4.07-1.91 6.03-.78 5.85 3.35 12.17 5.98 18.82 7.79 2.18.6 3.7 2.56 3.7 4.82v3.04c0 2.47 1.81 4.6 4.25 4.95 4.35.64 8.8.96 13.33.96 4.52 0 8.98-.32 13.33-.96 2.13-.31 3.79-1.98 4.17-4.04-.05-.3-.08-.6-.08-.91z" fill="#655e67"/><g><path d="m465.269 43.49c-70.977 0-85.299-.003-96.091-.003-3.639-24.57-24.871-43.487-50.437-43.487s-46.798 18.917-50.438 43.487c-3.063 0-21.002.003-96.085.003-9.385 0-17.02 7.63-17.02 17.01v135.368c-.382-.119-.763-.242-1.147-.356v-1.14c0-6.169-4.587-11.488-10.67-12.372-9.478-1.378-19.332-1.378-28.812 0-6.083.884-10.67 6.203-10.67 12.372v1.14c-5.926 1.751-11.659 4.127-17.094 7.084l-.804-.804c-4.361-4.362-11.367-4.878-16.292-1.206-7.746 5.775-14.602 12.63-20.376 20.375-3.672 4.927-3.153 11.931 1.206 16.291l.805.805c-2.957 5.434-5.333 11.168-7.084 17.094h-1.141c-6.17 0-11.488 4.587-12.372 10.671-.688 4.743-1.038 9.589-1.038 14.405 0 4.815.35 9.662 1.038 14.406.884 6.083 6.202 10.67 12.372 10.67h1.141c1.75 5.925 4.127 11.66 7.084 17.094l-.805.804c-4.36 4.36-4.879 11.365-1.205 16.292 5.773 7.745 12.629 14.6 20.374 20.374 4.927 3.675 11.932 3.157 16.293-1.205l.804-.804c5.434 2.957 11.168 5.333 17.094 7.084v1.14c0 6.17 4.588 11.489 10.67 12.372 4.739.689 9.586 1.038 14.405 1.038 4.82 0 9.667-.349 14.405-1.038 5.64-.819 10.671-5.366 10.671-13.512.384-.114.765-.237 1.147-.356v130.394c0 9.385 7.635 17.02 17.02 17.02h175.479c4.143 0 7.5-3.358 7.5-7.5s-3.357-7.5-7.5-7.5h-175.477c-1.113 0-2.02-.906-2.02-2.02 0-.516.004-136.103-.007-136.619.318-.168.638-.331.953-.503 5.603 5.607 12.367 5.535 17.096 2.01.567-.423 1.119-.863 1.676-1.297v54.759c0 4.142 3.357 7.5 7.5 7.5s7.5-3.358 7.5-7.5v-67.83c0-.421-.043-.831-.11-1.233 1.313-1.554 2.59-3.139 3.809-4.774 3.674-4.927 3.155-11.932-1.205-16.292l-.805-.805c2.957-5.434 5.334-11.168 7.084-17.094h1.141c6.169 0 11.488-4.587 12.372-10.671.688-4.743 1.038-9.589 1.038-14.405s-.35-9.663-1.038-14.406c-.884-6.083-6.203-10.67-12.372-10.67h-1.141c-1.751-5.926-4.127-11.661-7.084-17.094l.805-.804c4.359-4.36 4.878-11.364 1.205-16.292-1.184-1.589-2.426-3.13-3.699-4.642v-123.608c0-1.378 1.121-2.5 2.5-2.5h28.19v9.576c0 7.864 6.397 14.262 14.262 14.262h137.743c7.864 0 14.262-6.398 14.262-14.262v-9.576h28.192c1.379 0 2.5 1.122 2.5 2.5v370.07c0 1.378-1.121 2.5-2.5 2.5h-222.649c-1.379 0-2.5-1.122-2.5-2.5v-19.45c0-4.142-3.357-7.5-7.5-7.5s-7.5 3.358-7.5 7.5v19.45c0 9.649 7.851 17.5 17.5 17.5h222.649c9.649 0 17.5-7.851 17.5-17.5v-370.07c0-9.649-7.851-17.5-17.5-17.5h-28.192v-16.72h63.395c1.114 0 2.021.901 2.021 2.01v434.48c0 1.114-.906 2.02-2.021 2.02h-87.57c-4.143 0-7.5 3.358-7.5 7.5s3.357 7.5 7.5 7.5h87.57c9.385 0 17.021-7.635 17.021-17.02v-434.48c-.001-9.379-7.637-17.01-17.021-17.01zm-253.476 226.662h.853c.396 3.333.596 6.713.596 10.076s-.2 6.743-.596 10.076h-.853c-5.62 0-10.579 3.798-12.059 9.237-1.619 5.954-3.998 11.693-7.068 17.057-2.803 4.895-1.982 11.09 1.992 15.063l.603.603c-4.167 5.3-8.946 10.079-14.248 14.248l-.603-.603c-3.976-3.973-10.169-4.794-15.063-1.992-5.365 3.071-11.104 5.449-17.059 7.069-5.438 1.479-9.237 6.438-9.237 12.058v.853c-6.659.79-13.488.791-20.151 0v-.853c0-5.62-3.799-10.578-9.237-12.058-5.954-1.62-11.693-3.999-17.059-7.069-4.893-2.8-11.088-1.981-15.063 1.993l-.602.602c-5.301-4.168-10.081-8.948-14.248-14.248l.602-.602c3.976-3.975 4.796-10.17 1.993-15.064-3.07-5.364-5.449-11.104-7.068-17.058-1.479-5.439-6.438-9.237-12.059-9.237h-.853c-.396-3.333-.596-6.712-.596-10.076s.2-6.744.596-10.076h.853c5.62 0 10.579-3.798 12.059-9.237 1.619-5.955 3.998-11.693 7.068-17.057 2.803-4.896 1.982-11.09-1.992-15.063l-.603-.603c4.167-5.3 8.946-10.079 14.248-14.248l.603.603c3.975 3.973 10.168 4.792 15.063 1.992 5.365-3.071 11.104-5.449 17.059-7.069 5.438-1.479 9.237-6.438 9.237-12.058v-.853c6.661-.791 13.492-.791 20.151 0v.853c0 5.62 3.799 10.578 9.237 12.058 5.954 1.62 11.693 3.999 17.058 7.069 4.892 2.801 11.089 1.982 15.064-1.993l.602-.602c5.301 4.168 10.081 8.948 14.248 14.248l-.602.602c-3.976 3.975-4.796 10.169-1.993 15.065 3.07 5.364 5.449 11.103 7.068 17.057 1.48 5.439 6.439 9.237 12.059 9.237zm23.814-194.942h-28.19c-9.649 0-17.5 7.851-17.5 17.5v109.175c-.557-.434-1.108-.874-1.675-1.296-4.927-3.675-11.931-3.158-16.293 1.205l-.804.804c-.313-.17-.631-.332-.946-.499v-141.599c0-1.108.906-2.01 2.02-2.01h63.389v16.72zm151.267 23.838h-136.267v-40.558h24.651c4.143 0 7.5-3.358 7.5-7.5 0-.022-.003-.043-.003-.066.034-19.814 16.163-35.924 35.986-35.924 19.843 0 35.986 16.144 35.986 35.987 0 4.134 3.347 7.503 7.501 7.503h24.646z"/><path d="m405.741 169.244c4.143 0 7.5-3.358 7.5-7.5s-3.357-7.5-7.5-7.5h-34c-4.143 0-7.5 3.358-7.5 7.5s3.357 7.5 7.5 7.5z"/><path d="m341.741 154.244h-110c-4.143 0-7.5 3.358-7.5 7.5s3.357 7.5 7.5 7.5h110c4.143 0 7.5-3.358 7.5-7.5s-3.357-7.5-7.5-7.5z"/><path d="m261.241 219.744c0 4.142 3.357 7.5 7.5 7.5h137c4.143 0 7.5-3.358 7.5-7.5s-3.357-7.5-7.5-7.5h-137c-4.142 0-7.5 3.358-7.5 7.5z"/><path d="m405.741 270.244h-114c-4.143 0-7.5 3.358-7.5 7.5s3.357 7.5 7.5 7.5h114c4.143 0 7.5-3.358 7.5-7.5s-3.357-7.5-7.5-7.5z"/><path d="m405.741 328.244h-137c-4.143 0-7.5 3.358-7.5 7.5s3.357 7.5 7.5 7.5h137c4.143 0 7.5-3.358 7.5-7.5s-3.357-7.5-7.5-7.5z"/><path d="m224.241 393.744c0 4.142 3.357 7.5 7.5 7.5h174c4.143 0 7.5-3.358 7.5-7.5s-3.357-7.5-7.5-7.5h-174c-4.142 0-7.5 3.358-7.5 7.5z"/><path d="m128.976 225.676c-30.08 0-54.552 24.472-54.552 54.552s24.472 54.552 54.552 54.552 54.553-24.472 54.553-54.552-24.473-54.552-54.553-54.552zm0 94.104c-21.809 0-39.552-17.743-39.552-39.552s17.743-39.552 39.552-39.552c21.81 0 39.553 17.743 39.553 39.552s-17.744 39.552-39.553 39.552z"/></g></g></svg>