<svg id="Layer_1" enable-background="new 0 0 512 512" height="512" viewBox="0 0 512 512" width="512" xmlns="http://www.w3.org/2000/svg"><g><path d="m119.166 478h-68c-11.046 0-20-8.954-20-20v-63c0-11.046 8.954-20 20-20h68z" fill="#544f56"/><path d="m461.635 359h-31c-5.523 0-10-4.477-10-10v-70c0-5.523 4.477-10 10-10h31c5.523 0 10 4.477 10 10v70c0 5.523-4.477 10-10 10z" fill="#544f56"/><path d="m391.271 127.5v352c0 13.81-11.19 25-25 25h-244.211c-13.81 0-25-11.19-25-25v-352c0-13.81 11.19-25 25-25h244.21c13.81 0 25.001 11.19 25.001 25z" fill="#fed22b"/><path d="m157.06 504.5h-35c-13.81 0-25-11.19-25-25v-352c0-13.81 11.19-25 25-25h35c-13.81 0-25 11.19-25 25v352c0 13.81 11.19 25 25 25z" fill="#fdc202"/><path d="m86.17 478h-35c-11.05 0-20-8.95-20-20v-63c0-11.05 8.95-20 20-20h35c-11.05 0-20 8.95-20 20v63c0 11.05 8.95 20 20 20z" fill="#444145"/><path d="m457.62 358.8c-.64.13-1.31.2-1.99.2h-25c-5.52 0-10-4.48-10-10v-70c0-5.52 4.48-10 10-10h25c.68 0 1.35.07 1.99.2-4.56.94-7.99 4.97-7.99 9.8v70c0 4.83 3.43 8.86 7.99 9.8z" fill="#444145"/><path d="m480.83 497h-27.16v-130.5h7.965c9.649 0 17.5-7.851 17.5-17.5v-70c0-9.649-7.851-17.5-17.5-17.5h-7.965v-84c0-17.92-14.579-32.5-32.5-32.5h-22.396v-17.5c0-17.642-14.132-32.036-31.67-32.479v-37.579c0-6.893-5.607-12.5-12.5-12.5h-141.564v-17.442c0-15.164-12.337-27.5-27.5-27.5h-104.37c-15.164 0-27.5 12.336-27.5 27.5v340h-2.5c-15.163 0-27.5 12.336-27.5 27.5v18.679c0 4.142 3.357 7.5 7.5 7.5s7.5-3.358 7.5-7.5v-18.679c0-6.893 5.607-12.5 12.5-12.5h38.389v88h-38.389c-6.893 0-12.5-5.607-12.5-12.5v-14.321c0-4.142-3.357-7.5-7.5-7.5s-7.5 3.358-7.5 7.5v14.321c0 15.164 12.337 27.5 27.5 27.5h38.953c2.824 15.063 16.065 26.5 31.936 26.5h244.216c17.921 0 32.5-14.58 32.5-32.5v-319.5h22.396c9.649 0 17.5 7.851 17.5 17.5v84h-8.035c-9.649 0-17.5 7.851-17.5 17.5v70c0 9.649 7.851 17.5 17.5 17.5h8.035v130.5h-27.173c-4.143 0-7.5 3.358-7.5 7.5s3.357 7.5 7.5 7.5h69.333c4.143 0 7.5-3.358 7.5-7.5s-3.358-7.5-7.501-7.5zm-151.914-437.058h23.188v35.058h-23.188zm-38.625 0h23.625v35.058h-23.625zm-38.625 0h23.625v35.058h-23.625zm-38.626 0h23.626v35.058h-23.626zm-123.481 67.558v240h-20.889v-340c0-6.893 5.607-12.5 12.5-12.5h104.37c6.893 0 12.5 5.607 12.5 12.5v17.442h-64.313c-6.893 0-12.5 5.607-12.5 12.5v37.579c-17.537.444-31.668 14.837-31.668 32.479zm108.481-67.558v35.058h-23.624v-35.058zm-38.624 0v35.058h-23.188v-35.058zm224.358 338.053h-176.365c-4.143 0-7.5 3.358-7.5 7.5s3.357 7.5 7.5 7.5h176.365v66.505c0 9.649-7.851 17.5-17.5 17.5h-244.215c-9.649 0-17.5-7.851-17.5-17.5v-1.461c0-.013.002-.026.002-.039s-.002-.026-.002-.039v-64.966h72.851c4.143 0 7.5-3.358 7.5-7.5s-3.357-7.5-7.5-7.5h-72.851v-22.956c0-.013.002-.026.002-.039s-.002-.026-.002-.039v-63.961h279.216v86.995zm0-203.99h-72.852c-4.143 0-7.5 3.358-7.5 7.5s3.357 7.5 7.5 7.5h72.852v86.995h-279.215v-86.995h176.364c4.143 0 7.5-3.358 7.5-7.5s-3.357-7.5-7.5-7.5h-176.364v-66.505c0-9.649 7.851-17.5 17.5-17.5h244.216c9.649 0 17.5 7.851 17.5 17.5v66.505zm46.861 157.495c-1.379 0-2.5-1.122-2.5-2.5v-70c0-1.378 1.121-2.5 2.5-2.5h31c1.379 0 2.5 1.122 2.5 2.5v70c0 1.378-1.121 2.5-2.5 2.5z"/></g></svg>