<svg id="Layer_1" enable-background="new 0 0 512 512" height="512" viewBox="0 0 512 512" width="512" xmlns="http://www.w3.org/2000/svg"><g><path d="m296.72 499.25c.14 2.85-2.14 5.25-5 5.25h-57.56c-2.86 0-5.14-2.4-5-5.25l1.83-36.75.75-15 14.18-284.77h34.04l14.18 284.77.75 15z" fill="#8e8391"/><path d="m257.16 504.5h-23c-2.86 0-5.14-2.4-5-5.25l1.83-36.75.75-15 14.18-284.77h23l-14.18 284.77-.75 15-1.83 36.75c-.14 2.85 2.14 5.25 5 5.25z" fill="#766d78"/><g fill="#72d1fb"><path d="m263.748 7.5c10.448 0 19.347 7.594 20.99 17.912l15.25 95.785c2.149 21.893-15.052 40.865-37.05 40.865-22.036 0-39.249-19.035-37.04-40.96l16.918-96.036c1.79-10.159 10.617-17.566 20.932-17.566z"/><path d="m128.679 238.642c-5.224-9.048-3.097-20.552 5.018-27.134l75.327-61.1c17.885-12.808 42.916-7.397 53.915 11.653 11.018 19.084 3.14 43.508-16.952 52.558l-91.629 33.366c-9.693 3.531-20.521-.409-25.679-9.343z"/><path d="m396.389 240.044c-5.224 9.048-16.25 12.958-26.007 9.222l-90.577-34.685c-20.034-9.085-27.864-33.468-16.865-52.518 11.018-19.084 36.109-24.473 53.992-11.598l74.71 62.669c7.903 6.629 9.905 17.977 4.747 26.91z"/></g><path d="m280.44 157.7c-5.2 2.78-11.15 4.36-17.5 4.36-20.76 0-37.23-16.88-37.23-37.17 0-1.25.06-2.51.19-3.79l16.92-96.03c1.79-10.16 10.61-17.57 20.93-17.57 7.19 0 13.64 3.59 17.51 9.19-1.7 2.45-2.89 5.29-3.44 8.38l-16.92 96.03c-.13 1.28-.19 2.54-.19 3.79 0 14.08 7.93 26.52 19.73 32.81z" fill="#40c1fa"/><path d="m248.2 147.81c-1.43.76-2.82 1.63-4.18 2.6l-75.32 61.1c-8.12 6.58-10.24 18.08-5.02 27.13 1 1.74 2.22 3.29 3.61 4.64l-12.93 4.71c-9.69 3.53-20.52-.41-25.68-9.35-5.22-9.05-3.1-20.55 5.02-27.13l75.32-61.1c11.98-8.58 27.16-8.99 39.18-2.6z" fill="#40c1fa"/><path d="m392.94 244.51c-5.81 5.76-14.6 7.8-22.56 4.76l-90.58-34.69c-20.03-9.08-27.86-33.47-16.86-52.52 6.95-12.03 19.49-18.62 32.29-18.62 5.94 0 11.93 1.42 17.45 4.37-5.94 3.15-11.1 7.95-14.74 14.25-11 19.05-3.17 43.44 16.86 52.52z" fill="#40c1fa"/><circle cx="262.939" cy="161.728" fill="#fdc202" r="34.039"/><path d="m276.94 192.76c-4.27 1.94-9.01 3.01-14 3.01-18.8 0-34.04-15.24-34.04-34.04s15.24-34.04 34.04-34.04c4.99 0 9.73 1.07 14 3.01-11.82 5.33-20.04 17.22-20.04 31.03s8.22 25.7 20.04 31.03z" fill="#f0a70a"/><g><path d="m396.46 207.384-74.71-62.67c-.142-.118-.287-.232-.438-.34-4.7-3.385-9.912-5.786-15.409-7.14 3.68-12.751 2.396-11.546-13.756-113.002-2.232-14.041-14.174-24.232-28.397-24.232-13.98 0-25.89 9.996-28.315 23.769-2.459 13.955-4.565 25.888-6.371 36.102-.721 4.079 2.001 7.97 6.08 8.691 4.076.722 7.97-2.001 8.691-6.08 1.806-10.216 3.912-22.152 6.372-36.109 2.681-15.226 24.699-15.045 27.127.217 16.673 104.73 16.435 97.308 14.476 105.316-7.48-7.244-17.661-11.715-28.872-11.715-11.208 0-21.386 4.47-28.866 11.711-.561-2.29-.862-4.642-.862-7.011 0-.252-.003-.467-.006-.666l-.004-.292c0-1.156 1.026-7.085 5.419-31.939.721-4.078-2.002-7.97-6.081-8.69-4.074-.72-7.97 2.001-8.69 6.081-5.437 30.765-5.647 32.057-5.647 34.549l.01.958c0 4.187.614 8.341 1.77 12.345-5.458 1.346-10.641 3.725-15.325 7.076-.123.088-.243.18-.36.275l-75.316 61.097c-20.892 16.929-9.082 51.094 18.116 51.094 6.907 0 2.439.953 88.143-30.262l-3.444 69.128c-14.971-6.147-28.679-15.306-40.041-27.04-2.88-2.975-7.628-3.051-10.605-.17-2.976 2.881-3.052 7.63-.17 10.605 14.039 14.498 31.248 25.519 50.03 32.388l-3.255 65.333c-.206 4.137 2.981 7.657 7.118 7.863.127.007.253.01.379.01 3.971 0 7.285-3.117 7.484-7.127l3.07-61.62c11.346 2.729 22.819 3.955 34.46 3.673l6.37 127.942h-47.386l1.995-40.033c.206-4.137-2.981-7.657-7.118-7.864-4.119-.203-7.657 2.98-7.863 7.118l-4.593 92.181c-.009.201-.014.4-.014.599 0 6.893 5.61 12.5 12.506 12.5h57.56c6.896 0 12.507-5.607 12.507-12.5 0-.198-.006-.397-.017-.623l-8.988-180.519c24.864-3.405 48.139-13.777 68.136-30.51 3.177-2.658 3.598-7.388.939-10.564s-7.389-3.599-10.564-.939c-17.446 14.597-37.671 23.754-59.26 26.964l-1.054-21.168c10.019-1.728 19.771-5.012 28.789-9.758 3.665-1.929 5.073-6.464 3.144-10.13-1.929-3.664-6.463-5.075-10.13-3.144-7.089 3.73-14.713 6.392-22.555 7.923l-2.005-40.262c43.666 16.724 40.848 15.86 42.791 15.86 8.246 0 10.448-11.533 2.685-14.506l-50.583-19.373c-.153-.065-.306-.13-.463-.185-4.429-1.717-8.025-3.951-10.948-6.846 21.187-5.944 34.435-27.668 29.195-49.629 8.074 2.307 3.706-.135 83.481 66.784 11.744 9.855.804 28.969-13.756 23.391l-8.909-3.412c-3.871-1.481-8.205.453-9.687 4.321s.453 8.205 4.321 9.687l8.911 3.413c30.334 11.601 53.33-28.275 28.758-48.894zm-159.679 289.616 1.719-34.5h48.881l1.718 34.5zm-84.99-256.056c-14.707 5.358-25.221-14.001-13.366-23.61 81.18-65.853 76.331-63.013 84.115-65.241-5.218 21.873 7.924 43.665 29.206 49.63-2.976 2.966-6.602 5.211-10.946 6.799-.072.025-.141.053-.212.081zm116.524 42.233c3.771.336 6.918.413 10.155.363l1.047 21.034c-11.379.241-22.41-1.162-32.953-3.961l3.984-79.957c4.73-2.296 8.868-5.282 12.388-8.936 3.486 3.612 7.603 6.575 12.403 8.935l2.385 47.897c-.244.002-.488.011-.733.011-2.443 0-4.913-.11-7.342-.327-4.126-.36-7.77 2.678-8.138 6.804s2.678 7.768 6.804 8.137zm-5.377-94.909c-14.634 0-26.539-11.905-26.539-26.539s11.905-26.539 26.539-26.539 26.54 11.905 26.54 26.539-11.906 26.539-26.54 26.539z"/><path d="m316.513 26.29c47.868 17.498 78.798 61.399 78.798 111.843 0 10.938-1.519 21.81-4.513 32.309-1.362 4.778 2.226 9.559 7.217 9.559 3.265 0 6.269-2.149 7.209-5.445 3.375-11.837 5.087-24.092 5.087-36.422 0-26.976-8.009-53.01-23.16-75.286-15.813-23.252-38.459-40.765-65.487-50.645-3.89-1.421-8.197.58-9.619 4.469-1.423 3.89.577 8.196 4.468 9.618z"/><path d="m328.844 55.573c-3.503-2.21-8.135-1.163-10.345 2.343-2.21 3.503-1.161 8.135 2.343 10.345 13.399 8.452 24.013 20.521 30.691 34.905 1.746 3.757 6.205 5.388 9.962 3.644 3.757-1.745 5.388-6.205 3.644-9.962-7.898-17.006-20.449-31.279-36.295-41.275z"/><path d="m118.57 183.552c-1.248-7.137-1.881-14.358-1.881-21.463 0-54.452 36.835-101.72 89.575-114.946 4.018-1.007 6.458-5.081 5.45-9.099-1.007-4.019-5.087-6.462-9.099-5.45-59.424 14.901-100.927 68.152-100.927 129.495 0 7.969.708 16.06 2.105 24.047.712 4.077 4.595 6.809 8.68 6.096 4.082-.714 6.811-4.6 6.097-8.68z"/><path d="m155.361 106.162c-10.778 15.343-16.863 33.348-17.597 52.068-.162 4.14 3.062 7.626 7.2 7.788.101.004.2.006.299.006 4.007 0 7.331-3.168 7.489-7.206.62-15.831 5.767-31.058 14.882-44.033 2.381-3.39 1.564-8.067-1.825-10.448-3.39-2.383-8.067-1.564-10.448 1.825z"/></g></g></svg>