<svg id="Layer_1" enable-background="new 0 0 512 512" height="512" viewBox="0 0 512 512" width="512" xmlns="http://www.w3.org/2000/svg"><g><path d="m82.665 159.187h350.978v43.497h-350.978z" fill="#655e67" transform="matrix(.948 -.319 .319 .948 -44.206 91.718)"/><g fill="#544f56"><path d="m437.129 8.394-83.672 28.136c-9.022 3.034-13.764 12.908-10.483 21.844 13.097 35.67 47.454 120.744 91.9 165.463 4.561 4.589 11.309 6.23 17.442 4.167l21.73-7.307c6.133-2.062 10.519-7.447 11.38-13.859 8.396-62.488-15.63-151.035-26.747-187.372-2.783-9.103-12.528-14.106-21.55-11.072z"/><path d="m133.785 266.012-69.192 23.267c-10.469 3.521-21.811-2.113-25.331-12.582l-13.386-39.809c-3.521-10.469 2.113-21.811 12.582-25.331l69.192-23.267c2.617-.88 5.453.528 6.333 3.146l22.948 68.244c.88 2.617-.528 5.452-3.146 6.332z"/><path d="m104.835 504.5h-40c-4.418 0-8-3.582-8-8v-117.498c0-4.418 3.582-8 8-8h39.999c4.418 0 8 3.582 8 8v117.498c.001 4.419-3.581 8-7.999 8z"/><path d="m474.187 504.5h-18c-5.523 0-10-4.477-10-10v-63.499c0-5.523 4.477-10 10-10h18c5.523 0 10 4.477 10 10v63.499c0 5.523-4.477 10-10 10z"/></g><path d="m481.407 215.754c-1.93 2.23-4.44 3.96-7.36 4.94l-21.73 7.31c-6.13 2.06-12.88.42-17.44-4.17-44.449-44.719-78.809-129.788-91.899-165.458-3.29-8.94 1.46-18.81 10.48-21.85l13.76-4.63c-.31 2.64-.02 5.4.96 8.07 13.57 36.959 49.169 125.118 95.219 171.448 4.71 4.74 11.67 6.45 18.01 4.34z" fill="#444145"/><path d="m80.872 283.803-16.28 5.48c-10.47 3.52-21.81-2.12-25.33-12.59l-13.39-39.809c-3.52-10.46 2.12-21.81 12.59-25.33l12.48-4.2 21.86 64.989c1.58 4.7 4.45 8.61 8.07 11.46z" fill="#444145"/><path d="m99.832 504.5h-35c-4.42 0-8-3.58-8-8v-117.498c0-4.42 3.58-8 8-8h35c-4.42 0-8 3.58-8 8v117.498c0 4.42 3.58 8 8 8z" fill="#444145"/><path d="m471.187 504.5h-15c-5.52 0-10-4.48-10-10v-63.499c0-5.52 4.48-10 10-10h15c-5.52 0-10 4.48-10 10v63.499c0 5.52 4.48 10 10 10z" fill="#444145"/><path d="m476.436 227.805c8.876-2.984 15.168-10.637 16.423-19.969 1.518-11.293 1.977-23.193 1.763-34.68-.077-4.142-3.523-7.411-7.638-7.359-4.142.077-7.436 3.497-7.359 7.639.197 10.592-.203 21.77-1.632 32.403-.488 3.63-2.916 6.6-6.337 7.75l-21.732 7.308c-3.347 1.123-7.221.181-9.732-2.346-38.518-38.755-71.358-111.499-90.179-162.763-1.83-4.975.808-10.458 5.833-12.149 90.347-30.379 84.471-28.631 86.677-28.631 4.156 0 7.767 2.674 8.984 6.653 7.654 25.018 21.242 74.196 26.252 122.475.428 4.12 4.116 7.106 8.234 6.685 4.12-.428 7.114-4.114 6.686-8.234-5.141-49.537-19.015-99.777-26.828-125.315-4.1-13.401-18.26-20.313-31.114-15.985l-83.672 28.135c-13.052 4.388-19.867 18.656-15.133 31.538 4.765 12.979 12.526 32.964 22.702 55.326l-162.707 54.716c-3.926 1.32-6.038 5.573-4.718 9.499 1.32 3.927 5.574 6.038 9.499 4.718l164.321-55.259c4.058 8.44 8.422 17.073 13.066 25.676-10.999 3.699-223.586 75.188-240.99 81.041l-9.084-27.014 44.252-14.882c3.926-1.32 6.038-5.573 4.718-9.499-1.32-3.927-5.575-6.04-9.499-4.718l-44.251 14.881-2.152-6.4c-2.201-6.546-9.284-10.067-15.832-7.862l-69.192 23.266c-14.371 4.834-22.132 20.459-17.3 34.831l13.387 39.809c4.835 14.376 20.389 22.156 34.83 17.3l10.348-3.48v70.594h-12.496c-8.547 0-15.5 6.953-15.5 15.5v117.497c0 8.547 6.953 15.5 15.5 15.5h39.999c8.547 0 15.5-6.953 15.5-15.5v-42.713c0-4.143-3.358-7.5-7.5-7.5s-7.5 3.357-7.5 7.5v42.713c0 .275-.224.5-.5.5h-39.999c-.276 0-.5-.225-.5-.5v-117.498c0-.275.224-.5.5-.5h39.999c.276 0 .5.225.5.5v44.786c0 4.143 3.358 7.5 7.5 7.5s7.5-3.357 7.5-7.5v-44.786c0-8.547-6.953-15.5-15.5-15.5h-12.503v-75.638l43.844-14.743c6.549-2.201 10.066-9.283 7.864-15.831l-2.151-6.397 82.141-27.623c-1.539 7.633-52.869 262.177-56.411 279.739-.819 4.06 1.809 8.016 5.87 8.834.5.102.999.149 1.49.149 3.497 0 6.626-2.458 7.344-6.018l7.556-37.472h139.76l7.703 37.499c.729 3.549 3.853 5.993 7.339 5.993.5 0 1.008-.051 1.517-.155 4.057-.833 6.671-4.798 5.837-8.855-2.295-11.175-58.619-285.38-62.014-301.904l95.52-32.122c13.001 22.462 27.841 43.897 44.014 60.168 4.585 4.613 10.927 7.259 17.398 7.259 2.64 0 5.249-.428 7.754-1.27l2.981-1.002v179.391h-1.5c-9.649 0-17.5 7.85-17.5 17.5v63.496c0 9.649 7.85 17.5 17.5 17.5h18c9.649 0 17.5-7.85 17.5-17.5v-63.499c0-9.649-7.85-17.5-17.5-17.5h-1.5v-184.434zm-414.235 54.366c-6.549 2.199-13.63-1.315-15.831-7.864l-13.387-39.809c-2.197-6.532 1.331-13.636 7.864-15.833l66.822-22.469c3.336 9.921 18.123 53.897 21.354 63.505zm237.242 39.332h-79.923l10.284-50.999h59.163zm-82.944 14.982c.111.005.22.017.332.017h85.693l10.476 51h-106.788zm-23.596 117.016 10.284-50.999h112.894l10.476 50.999zm92.983-197.998h-53.056l7.613-37.754 35.253-11.855zm190.799 175.498v63.499c0 1.379-1.122 2.5-2.5 2.5h-18c-1.378 0-2.5-1.121-2.5-2.5v-63.499c0-1.379 1.122-2.5 2.5-2.5h18c1.379 0 2.5 1.121 2.5 2.5z"/></g></svg>