<svg id="Layer_1" enable-background="new 0 0 512 512" height="512" viewBox="0 0 512 512" width="512" xmlns="http://www.w3.org/2000/svg"><g><path d="m212.96 7.5c-12.476 0-23.149 7.694-27.55 18.593-7.444-6.488-17.168-10.427-27.818-10.427-17.347 0-32.25 10.43-38.804 25.357-5.394-7.482-14.179-12.357-24.107-12.357-16.407 0-29.708 13.301-29.708 29.708 0 4.345.941 8.468 2.617 12.188-10.959 7.378-18.17 19.898-18.17 34.104 0 22.689 18.393 41.083 41.083 41.083 8.824 0 16.991-2.791 23.687-7.526 5.078 3.068 11.031 4.835 17.396 4.835 18.609 0 33.695-15.086 33.695-33.695 0-3.276-.476-6.439-1.348-9.433 18.538-2.782 33.134-17.577 35.636-36.205 4.025 2.037 8.572 3.191 13.391 3.191 16.407 0 29.708-13.3 29.708-29.708 0-16.407-13.301-29.708-29.708-29.708z" fill="#a49ca7"/><path d="m171.948 327.388h-127.281l15.054-188.181h97.172z" fill="#544f56"/><path d="m99.973 58.37c0 4.35.94 8.47 2.62 12.19-10.96 7.38-18.17 19.9-18.17 34.11 0 16.42 9.64 30.6 23.57 37.17-5.31 2.51-11.24 3.91-17.49 3.91-22.69 0-41.08-18.4-41.08-41.08 0-14.21 7.21-26.73 18.17-34.11-1.68-3.72-2.62-7.84-2.62-12.19 0-16.4 13.3-29.7 29.71-29.7 6.55 0 12.6 2.12 17.5 5.7-7.4 5.4-12.21 14.14-12.21 24z" fill="#8e8391"/><path d="m94.723 139.21-15.06 188.18h-35l15.06-188.18z" fill="#444145"/><path d="m166.948 168.39h-117.281c-2.761 0-5-2.239-5-5v-35.284c0-2.761 2.239-5 5-5h117.281c2.761 0 5 2.239 5 5v35.284c0 2.762-2.239 5-5 5z" fill="#766d78"/><path d="m84.663 168.39h-35c-2.76 0-5-2.24-5-5v-35.28c0-2.76 2.24-5 5-5h35c-2.76 0-5 2.24-5 5v35.28c0 2.76 2.24 5 5 5z" fill="#655e67"/><path d="m380.963 290.76v208.74c0 2.761-2.239 5-5 5h-363.26c-2.761 0-5-2.239-5-5v-208.74l182.297-14.427z" fill="#a49ca7"/><g fill="#fff5f4"><path d="m105.036 360.955h-45.369c-2.761 0-5-2.239-5-5v-23.335c0-2.761 2.239-5 5-5h45.369c2.761 0 5 2.239 5 5v23.335c0 2.762-2.239 5-5 5z"/><path d="m217.018 360.955h-45.369c-2.761 0-5-2.239-5-5v-23.335c0-2.761 2.239-5 5-5h45.369c2.761 0 5 2.239 5 5v23.335c0 2.762-2.239 5-5 5z"/><path d="m329 360.955h-45.369c-2.761 0-5-2.239-5-5v-23.335c0-2.761 2.239-5 5-5h45.369c2.761 0 5 2.239 5 5v23.335c0 2.762-2.239 5-5 5z"/></g><path d="m74.663 360.96h-15c-2.76 0-5-2.24-5-5v-23.34c0-2.76 2.24-5 5-5h15c-2.76 0-5 2.24-5 5v23.34c0 2.76 2.24 5 5 5z" fill="#ebe0da"/><path d="m186.653 360.96h-15c-2.77 0-5-2.24-5-5v-23.34c0-2.76 2.23-5 5-5h15c-2.77 0-5 2.24-5 5v23.34c0 2.76 2.23 5 5 5z" fill="#ebe0da"/><path d="m298.633 360.96h-15c-2.76 0-5-2.24-5-5v-23.34c0-2.76 2.24-5 5-5h15c-2.76 0-5 2.24-5 5v23.34c0 2.76 2.24 5 5 5z" fill="#ebe0da"/><path d="m207.913 277.68-165.21 13.08v213.74h-30c-2.761 0-5-2.239-5-5v-208.74l182.3-14.43z" fill="#8e8391"/><path d="m380.963 209.81v80.95h-373.26v-38.39c0-2.761 2.239-5 5-5h181.63l78.23-46.18c6.67-3.93 15.09.87 15.09 8.61v37.56l78.23-46.17c6.67-3.93 15.08.88 15.08 8.62z" fill="#606060"/><path d="m42.703 247.37v43.39h-35v-38.39c0-2.761 2.239-5 5-5z" fill="#544f56"/><path d="m380.968 455.929v43.571c0 2.761-2.239 5-5 5h-363.269c-2.761 0-5-2.239-5-5v-43.571z" fill="#655e67"/><path d="m72.215 455.929h244.237v48.571h-244.237z" fill="#766d78"/><path d="m256.333 397.67h-62v106.83h65v-103.83-3z" fill="#655e67"/><path d="m42.703 455.93v48.57h-30c-2.766 0-5-2.244-5-5v-43.57z" fill="#544f56"/><path d="m132.333 397.67c-1.66 0-3 1.34-3 3v103.83h65v-106.83z" fill="#544f56"/><path d="m502.7 184.07c-.25-1.43-1.51-2.47-2.96-2.47h-10.15c-1.39 0-2.58-.96-2.92-2.31-2.65-10.85-6.94-21.06-12.58-30.36-.72-1.19-.55-2.71.43-3.7l7.17-7.17c1.03-1.03 1.19-2.65.35-3.83-8.19-11.62-18.33-21.76-29.94-29.95-1.19-.84-2.81-.68-3.84.35l-7.17 7.17c-.98.99-2.51 1.15-3.7.43-9.29-5.64-19.51-9.93-30.36-12.58-1.35-.33-2.31-1.53-2.31-2.92v-10.15c0-1.45-1.03-2.71-2.46-2.95-6.89-1.19-13.96-1.81-21.18-1.81s-14.29.62-21.18 1.81c-1.43.24-2.46 1.5-2.46 2.95v10.15c0 1.39-.96 2.59-2.31 2.92-10.85 2.65-21.06 6.94-30.36 12.58-1.19.72-2.72.56-3.7-.43l-7.17-7.17c-1.03-1.03-2.65-1.19-3.84-.35-11.61 8.19-21.75 18.33-29.94 29.95-.84 1.18-.68 2.8.35 3.83l7.17 7.17c.98.99 1.15 2.51.43 3.7-5.64 9.3-9.93 19.51-12.58 30.36-.34 1.35-1.53 2.31-2.92 2.31h-10.15c-1.45 0-2.71 1.04-2.96 2.47-1.18 6.88-1.8 13.95-1.8 21.17s.62 14.3 1.8 21.18c.25 1.43 1.51 2.46 2.96 2.46h10.15c1.39 0 2.58.96 2.92 2.32 2.65 10.85 6.94 21.06 12.58 30.35.72 1.19.55 2.72-.43 3.7l-7.17 7.18c-1.03 1.02-1.19 2.64-.35 3.83 8.19 11.61 18.33 21.76 29.94 29.94 1.19.84 2.81.68 3.84-.34l7.17-7.18c.98-.98 2.51-1.15 3.7-.42 9.3 5.64 19.51 9.92 30.36 12.58 1.35.33 2.31 1.52 2.31 2.91v10.15c0 1.45 1.03 2.71 2.46 2.96 6.89 1.19 13.96 1.81 21.18 1.81s14.29-.62 21.18-1.81c1.43-.25 2.46-1.51 2.46-2.96v-10.15c0-1.39.96-2.58 2.31-2.91 10.85-2.66 21.07-6.94 30.36-12.58 1.19-.73 2.72-.56 3.7.42l7.17 7.18c1.03 1.02 2.65 1.18 3.84.34 11.61-8.18 21.75-18.33 29.94-29.94.84-1.19.68-2.81-.35-3.83l-7.17-7.18c-.98-.98-1.15-2.51-.43-3.7 5.64-9.29 9.93-19.5 12.58-30.35.34-1.36 1.53-2.32 2.92-2.32h10.15c1.45 0 2.71-1.03 2.96-2.46 1.18-6.88 1.8-13.96 1.8-21.18s-.62-14.29-1.8-21.17zm-121.62 84.46c-34.95 0-63.29-28.34-63.29-63.29s28.34-63.28 63.29-63.28 63.29 28.33 63.29 63.28-28.34 63.29-63.29 63.29z" fill="#72d1fb"/><path d="m392.44 323.9v-10.15c0-1.39-.96-2.58-2.31-2.91-10.85-2.66-21.06-6.94-30.36-12.58-1.19-.73-2.72-.56-3.7.42l-7.17 7.18c-1.03 1.02-2.65 1.18-3.84.34-11.61-8.18-21.75-18.33-29.94-29.94-.84-1.19-.68-2.81.35-3.83l7.17-7.18c.98-.98 1.15-2.51.43-3.7-5.64-9.29-9.93-19.5-12.58-30.35-.34-1.36-1.53-2.32-2.92-2.32h-10.15c-1.45 0-2.71-1.03-2.96-2.46-1.18-6.88-1.8-13.96-1.8-21.18s.62-14.29 1.8-21.17c.25-1.43 1.51-2.47 2.96-2.47h10.15c1.39 0 2.58-.96 2.92-2.31 2.65-10.85 6.94-21.06 12.58-30.36.72-1.19.55-2.71-.43-3.7l-7.17-7.17c-1.03-1.03-1.19-2.65-.35-3.83 8.19-11.62 18.33-21.76 29.94-29.95 1.19-.84 2.81-.68 3.84.35l7.17 7.17c.98.99 2.51 1.15 3.7.43 9.3-5.64 19.51-9.93 30.36-12.58 1.35-.33 2.31-1.53 2.31-2.92v-10.15c0-1.45 1.03-2.71 2.46-2.95 1.22-.21 2.45-.4 3.68-.57-5.72-.82-11.56-1.24-17.5-1.24-7.22 0-14.29.62-21.18 1.81-1.43.24-2.46 1.5-2.46 2.95v10.15c0 1.39-.96 2.59-2.31 2.92-10.85 2.65-21.06 6.94-30.36 12.58-1.19.72-2.72.56-3.7-.43l-7.17-7.17c-1.03-1.03-2.65-1.19-3.84-.35-11.61 8.19-21.75 18.33-29.94 29.95-.84 1.18-.68 2.8.35 3.83l7.17 7.17c.98.99 1.15 2.51.43 3.7-5.64 9.3-9.93 19.51-12.58 30.36-.34 1.35-1.53 2.31-2.92 2.31h-10.15c-1.45 0-2.71 1.04-2.96 2.47-1.18 6.88-1.8 13.95-1.8 21.17s.62 14.3 1.8 21.18c.25 1.43 1.51 2.46 2.96 2.46h10.15c1.39 0 2.58.96 2.92 2.32 2.65 10.85 6.94 21.06 12.58 30.35.72 1.19.55 2.72-.43 3.7l-7.17 7.18c-1.03 1.02-1.19 2.64-.35 3.83 8.19 11.61 18.33 21.76 29.94 29.94 1.19.84 2.81.68 3.84-.34l7.17-7.18c.98-.98 2.51-1.15 3.7-.42 9.3 5.64 19.51 9.92 30.36 12.58 1.35.33 2.31 1.52 2.31 2.91v10.15c0 1.45 1.03 2.71 2.46 2.96 6.89 1.19 13.96 1.81 21.18 1.81 5.94 0 11.78-.42 17.5-1.24-1.23-.17-2.46-.36-3.68-.57-1.43-.25-2.46-1.51-2.46-2.96z" fill="#40c1fa"/><g><path d="m57.56 320.12c-5.79 0-10.5 4.71-10.5 10.5v27.34c0 5.79 4.71 10.5 10.5 10.5h49.37c5.79 0 10.5-4.71 10.5-10.5v-27.34c0-5.79-4.71-10.5-10.5-10.5zm44.87 33.34h-40.37v-18.34h40.37z"/><path d="m169.55 320.12c-5.79 0-10.5 4.71-10.5 10.5v27.34c0 5.79 4.71 10.5 10.5 10.5h49.37c5.79 0 10.5-4.71 10.5-10.5v-27.34c0-5.79-4.71-10.5-10.5-10.5zm44.87 33.34h-40.37v-18.34h40.37z"/><path d="m509.51 180.18c-.69-3.53-3.77-6.08-7.37-6.08h-9.17c-2.52-9.09-6.13-17.81-10.79-26.03l6.49-6.48c2.54-2.54 2.92-6.52.91-9.5-9.48-14.04-21.41-25.97-35.45-35.45-2.98-2.01-6.96-1.62-9.5.91l-6.48 6.49c-8.22-4.66-16.94-8.27-26.03-10.79v-9.17c0-3.6-2.55-6.68-6.08-7.37-16.42-3.17-33.7-3.17-50.13 0-3.52.69-6.07 3.77-6.07 7.37v9.17c-9.09 2.52-17.81 6.13-26.03 10.79l-6.48-6.49c-2.54-2.53-6.53-2.92-9.5-.91-14.05 9.48-25.97 21.41-35.45 35.45-2.01 2.98-1.63 6.96.91 9.5l6.48 6.48c-4.65 8.22-8.27 16.94-10.79 26.03h-9.17c-3.59 0-6.68 2.55-7.36 6.08-1.59 8.2-2.4 16.64-2.4 25.06 0 .16.01.31.01.47-12.05 7.11-49.36 29.14-57.86 34.15-3.28-.01-10.31-.03-19.84-.06-.78-9.82-4.35-54.38-5.11-63.91h1.59c5.799 0 10.5-4.701 10.5-10.5v-39.28c0-4.65-3.03-8.59-7.22-9.97.58-3.5.71-7.03.38-10.55 15.26-4.83 27.39-16.87 32.38-32.04 2.61.57 5.29.87 7.98.87 20.798 0 37.662-17.146 37.201-38.046-.428-19.404-16.08-35.458-35.469-36.334-12.744-.576-24.484 5.233-31.702 15.081-7.64-4.52-16.4-6.95-25.4-6.95-16.19 0-31.13 7.84-40.39 20.61-6.41-4.87-14.32-7.61-22.52-7.61-20.52 0-37.21 16.69-37.21 37.2 0 3.26.41 6.46 1.24 9.55-10.61 9.179-16.79 22.539-16.79 36.749 0 4.05.5 8.01 1.46 11.86-3.66 1.64-6.22 5.31-6.22 9.58v39.28c0 5.799 4.701 10.5 10.5 10.5h1.6l-5.1 63.7c-10.21.02-28.63.05-33.65.16-5.69.11-10.31 4.82-10.31 10.5v251.25c0 5.799 4.701 10.5 10.5 10.5h367.27c5.97 0 10.5-4.92 10.5-10.5 0-.298-.01-38.08-.01-99.5 0-4.14-3.356-7.5-7.496-7.5h-.008c-4.14 0-7.496 3.356-7.496 7.496v46.434h-106.63v-50.76c0-4.142-3.358-7.5-7.5-7.5h-127c-5.799 0-10.5 4.701-10.5 10.5v47.76h-106.63v-150.17h273.73c5.81 5.75 12.15 10.96 19 15.58 2.97 2.01 6.96 1.63 9.5-.91l6.48-6.48c8.22 4.65 16.94 8.27 26.03 10.79v9.17c0 3.616 2.588 6.689 6.139 7.373 5.718 1.102 11.534 1.818 17.381 2.157v33.064c0 4.14 3.356 7.496 7.496 7.496h.008c4.14 0 7.496-3.356 7.496-7.496v-33.054c5.95-.33 11.87-1.05 17.68-2.18 3.53-.68 6.08-3.77 6.08-7.36v-9.17c9.09-2.52 17.81-6.14 26.03-10.79l6.48 6.48c2.54 2.54 6.52 2.92 9.5.91 14.04-9.48 25.97-21.4 35.45-35.45 2.01-2.97 1.63-6.96-.91-9.5l-6.49-6.48c4.66-8.22 8.27-16.94 10.79-26.03h9.17c3.6 0 6.68-2.55 7.37-6.07 1.59-8.21 2.39-16.65 2.39-25.07s-.8-16.85-2.39-25.06zm-185.66 283.25h49.51v33.57h-49.51zm-57.12 0h42.12v33.57h-42.12zm-65-58.26h50v91.83h-50zm-65 0h50v91.83h-50zm-57.12 58.26h42.12v33.57h-42.12zm-15 0v33.57h-49.51v-33.57zm7.07-386.65c3.03-2.04 4.15-5.97 2.64-9.31-1.29-2.87-1.95-5.93-1.95-9.1 0-12.24 9.96-22.2 22.21-22.2 7.11 0 13.85 3.45 18.03 9.24 3.39 4.69 10.62 3.93 12.94-1.38 5.57-12.67 18.1-20.86 31.94-20.86 8.42 0 16.55 3.04 22.89 8.57 3.89 3.4 9.96 1.92 11.88-2.84 3.41-8.44 11.49-13.9 20.6-13.9 12.24 0 22.21 9.96 22.21 22.21s-9.97 22.21-22.21 22.21c-3.51 0-6.88-.8-10-2.39-2.17-1.1-4.73-1.08-6.88.05s-3.62 3.23-3.95 5.64c-2.04 15.26-14.1 27.51-29.32 29.79-4.48.67-7.35 5.15-6.08 9.52.69 2.39 1.05 4.86 1.05 7.33 0 2.14-.26 4.22-.76 6.25h-98.27c-1.21-3.5-1.83-7.16-1.83-10.94 0-11.2 5.55-21.62 14.86-27.89zm200.7 201.61c1.11 1.66 2.26 3.28 3.45 4.87h-260.73v-28.57c11.147-.1 33.012-.117 57.005-.097 4.143.003 7.505-3.354 7.505-7.496 0-4.136-3.353-7.491-7.489-7.496-4.411-.006-8.76-.01-13.011-.01l5.1-63.7h47.024c4.14 0 7.496-3.356 7.496-7.496v-.008c0-4.14-3.356-7.496-7.496-7.496h-59.174v-30.28h112.28v30.28h-20.114c-4.14 0-7.496 3.356-7.496 7.496v.008c0 4.14 3.356 7.496 7.496 7.496h7.974c2.17 27.12 4.33 54.1 5.11 63.87-15.071-.044-33.369-.088-52.19-.119-4.145-.007-7.51 3.352-7.51 7.496 0 4.135 3.35 7.488 7.485 7.496 25.243.048 48.578.109 60.205.136.05 0 .09.01.14.01.04 0 .07 0 .11-.01 17.06.06 28.35.1 28.65.1h.03c1.24 0 2.47-.31 3.57-.91.34-.18 35.45-20.9 53.39-31.5.338 2.612.754 5.213 1.25 7.796.68 3.546 3.76 6.125 7.371 6.125h9.17c2.52 9.09 6.14 17.81 10.79 26.03l-6.48 6.48c-2.541 2.539-2.921 6.529-.911 9.499zm223.41-57.01h-8.68c-3.51 0-6.56 2.45-7.32 5.88-2.54 11.48-7.05 22.34-13.38 32.28-1.89 2.97-1.46 6.85 1.02 9.34l6.14 6.13c-6.52 8.66-14.17 16.3-22.82 22.82l-6.14-6.13c-2.49-2.49-6.37-2.91-9.33-1.02-9.94 6.33-20.8 10.83-32.29 13.37-3.43.77-5.87 3.81-5.87 7.33v8.67c-10.66 1.48-21.62 1.48-32.28 0v-8.67c0-3.52-2.45-6.56-5.88-7.33-11.48-2.54-22.34-7.04-32.28-13.37-2.97-1.89-6.85-1.47-9.34 1.02l-6.13 6.13c-4.94-3.72-9.53-7.81-13.79-12.24-.06-.06-.12-.13-.18-.19-3.14-3.28-6.1-6.74-8.86-10.39l6.14-6.13c2.49-2.49 2.91-6.37 1.02-9.34-6.33-9.94-10.83-20.8-13.37-32.28-.77-3.43-3.81-5.88-7.33-5.88h-8.67c-1.47-10.59-1.5-21.51 0-32.28h8.67c3.52 0 6.56-2.44 7.33-5.87 2.54-11.49 7.04-22.35 13.37-32.29 1.89-2.96 1.47-6.84-1.02-9.33l-6.14-6.14c6.53-8.65 14.17-16.3 22.83-22.82l6.13 6.14c2.49 2.48 6.37 2.91 9.34 1.02 9.94-6.33 20.8-10.84 32.28-13.38 3.43-.76 5.88-3.81 5.88-7.32v-8.68c10.66-1.48 21.61-1.48 32.28 0v8.68c0 3.51 2.44 6.56 5.87 7.32 11.49 2.54 22.35 7.05 32.29 13.38 2.96 1.89 6.84 1.46 9.33-1.02l6.14-6.14c8.65 6.52 16.3 14.17 22.82 22.82l-6.14 6.14c-2.48 2.49-2.91 6.37-1.02 9.33 6.33 9.94 10.84 20.8 13.38 32.29.76 3.43 3.81 5.87 7.32 5.87h8.68c.74 5.33 1.11 10.74 1.11 16.14s-.37 10.81-1.11 16.14z"/><path d="m380.98 134.46c-39.03 0-70.79 31.75-70.79 70.78 0 38.94 31.72 70.79 70.79 70.79 39.03 0 70.78-31.76 70.78-70.79s-31.75-70.78-70.78-70.78zm-7.62 126.03c-18.47-2.53-34.08-14.14-42.19-30.16l38.41-22.68c1.69-.99 3.78.22 3.78 2.16zm15 .03v-50.71c0-6.36-3.3-12.04-8.82-15.2-5.52-3.15-12.09-3.11-17.58.12l-35.75 21.1c-.66-3.43-1.02-6.97-1.02-10.59 0-30.76 25.03-55.78 55.79-55.78s55.78 25.02 55.78 55.78c0 28.26-21.12 51.66-48.4 55.28z"/><path d="m281.648 320.121c-5.79 0-10.5 4.71-10.5 10.5v27.334c0 5.79 4.71 10.5 10.5 10.5h49.369c5.79 0 10.5-4.71 10.5-10.5v-27.334c0-5.79-4.71-10.5-10.5-10.5zm44.87 33.334h-40.369v-18.334h40.369z"/></g></g></svg>