<svg id="Layer_1" enable-background="new 0 0 512 512" height="512" viewBox="0 0 512 512" width="512" xmlns="http://www.w3.org/2000/svg"><g><path d="m494.5 52.896h-477c-5.523 0-10-4.477-10-10v-25.396c0-5.523 4.477-10 10-10h477c5.523 0 10 4.477 10 10v25.396c0 5.523-4.477 10-10 10z" fill="#655e67"/><path d="m494.376 504.5h-476.752c-5.592 0-10.124-4.533-10.124-10.124v-252.097c0-5.592 4.533-10.124 10.124-10.124h476.751c5.592 0 10.124 4.533 10.124 10.124v252.097c.001 5.591-4.532 10.124-10.123 10.124z" fill="#8e8391"/><path d="m52.62 504.5h-35c-5.59 0-10.12-4.53-10.12-10.12v-252.1c0-5.59 4.53-10.13 10.12-10.13h35c-5.59 0-10.12 4.54-10.12 10.13v252.1c0 5.59 4.53 10.12 10.12 10.12z" fill="#766d78"/><path d="m52.5 52.9h-35c-5.52 0-10-4.48-10-10v-25.4c0-5.52 4.48-10 10-10h35c-5.52 0-10 4.48-10 10v25.4c0 5.52 4.48 10 10 10z" fill="#544f56"/><g><path d="m64 456.827v-177c0-4.143-3.358-7.5-7.5-7.5s-7.5 3.357-7.5 7.5v177c0 4.143 3.358 7.5 7.5 7.5s7.5-3.357 7.5-7.5z"/><path d="m121 456.827v-177c0-4.143-3.358-7.5-7.5-7.5s-7.5 3.357-7.5 7.5v177c0 4.143 3.358 7.5 7.5 7.5s7.5-3.357 7.5-7.5z"/><path d="m178 456.827v-177c0-4.143-3.358-7.5-7.5-7.5s-7.5 3.357-7.5 7.5v177c0 4.143 3.358 7.5 7.5 7.5s7.5-3.357 7.5-7.5z"/><path d="m235 456.827v-177c0-4.143-3.358-7.5-7.5-7.5s-7.5 3.357-7.5 7.5v177c0 4.143 3.358 7.5 7.5 7.5s7.5-3.357 7.5-7.5z"/><path d="m292 456.827v-177c0-4.143-3.358-7.5-7.5-7.5s-7.5 3.357-7.5 7.5v177c0 4.143 3.358 7.5 7.5 7.5s7.5-3.357 7.5-7.5z"/><path d="m349 456.827v-177c0-4.143-3.358-7.5-7.5-7.5s-7.5 3.357-7.5 7.5v177c0 4.143 3.358 7.5 7.5 7.5s7.5-3.357 7.5-7.5z"/><path d="m406 456.827v-177c0-4.143-3.358-7.5-7.5-7.5s-7.5 3.357-7.5 7.5v177c0 4.143 3.358 7.5 7.5 7.5s7.5-3.357 7.5-7.5z"/><path d="m463 456.827v-177c0-4.143-3.358-7.5-7.5-7.5s-7.5 3.357-7.5 7.5v177c0 4.143 3.358 7.5 7.5 7.5s7.5-3.357 7.5-7.5z"/><path d="m289.708 60.396h204.792c9.649 0 17.5-7.851 17.5-17.5v-25.396c0-9.649-7.851-17.5-17.5-17.5h-390.825c-4.142 0-7.5 3.357-7.5 7.5s3.358 7.5 7.5 7.5h390.825c1.378 0 2.5 1.121 2.5 2.5v25.396c0 1.379-1.122 2.5-2.5 2.5h-477c-1.378 0-2.5-1.121-2.5-2.5v-25.396c0-1.379 1.122-2.5 2.5-2.5h56.175c4.142 0 7.5-3.357 7.5-7.5s-3.358-7.5-7.5-7.5h-56.175c-9.649 0-17.5 7.851-17.5 17.5v25.396c0 9.649 7.851 17.5 17.5 17.5h257.208v47.146c0 7.168-5.832 13-13 13s-13-5.832-13-13c0-4.143-3.358-7.5-7.5-7.5s-7.5 3.357-7.5 7.5c0 7.339 2.842 14.024 7.478 19.022l-159.338 49.094c-7.385 2.275-12.348 8.996-12.348 16.725v32.271h-51.875c-9.719 0-17.625 7.907-17.625 17.624v184.758c0 4.143 3.358 7.5 7.5 7.5s7.5-3.357 7.5-7.5v-184.758c0-1.447 1.177-2.624 2.625-2.624h329.332c4.142 0 7.5-3.357 7.5-7.5s-3.358-7.5-7.5-7.5h-262.457v-32.271c0-1.104.708-2.064 1.764-2.389l174.999-53.919c.483-.148.993-.148 1.473 0l175 53.919c1.055.324 1.764 1.284 1.764 2.389v32.271h-62.543c-4.142 0-7.5 3.357-7.5 7.5s3.358 7.5 7.5 7.5h117.419c1.447 0 2.625 1.177 2.625 2.624v252.098c0 1.447-1.177 2.624-2.625 2.624h-476.751c-1.447 0-2.625-1.177-2.625-2.624v-37.34c0-4.143-3.358-7.5-7.5-7.5s-7.5 3.357-7.5 7.5v37.34c0 9.718 7.906 17.624 17.625 17.624h476.751c9.718 0 17.625-7.906 17.625-17.624v-252.098c0-9.718-7.906-17.624-17.625-17.624h-39.876v-32.271c0-7.729-4.962-14.449-12.347-16.725l-159.791-49.233c4.56-4.983 7.346-11.613 7.346-18.884z"/></g></g></svg>