<svg id="Layer_1" enable-background="new 0 0 512 512" height="512" viewBox="0 0 512 512" width="512" xmlns="http://www.w3.org/2000/svg"><g><path d="m504.528 439.195v54.212c0 5.526-4.47 10.006-9.996 10.006h-477.064c-5.526 0-9.996-4.48-9.996-10.006v-54.212l248.528-42.299z" fill="#fdc202"/><path d="m52.315 503.413h-34.847c-5.526 0-9.996-4.48-9.996-10.006v-54.212h34.847v54.212c0 5.525 4.47 10.006 9.996 10.006z" fill="#f0a70a"/><path d="m504.528 18.593v420.602h-497.056v-420.602c0-5.526 4.47-10.006 9.996-10.006h477.064c5.525 0 9.996 4.481 9.996 10.006z" fill="#766d78"/><path d="m460.103 61.853v224.016c0 5.496-4.46 9.956-9.956 9.956h-388.294c-5.496 0-9.956-4.46-9.956-9.956v-224.016c0-5.496 4.46-9.956 9.956-9.956h388.294c5.496 0 9.956 4.46 9.956 9.956z" fill="#fff5f4"/><g fill="#fdc202"><circle cx="256" cy="367.029" r="29.867"/><circle cx="81.268" cy="367.029" r="29.867"/><circle cx="430.732" cy="367.029" r="29.867"/><path d="m313.32 295.825h-114.64v-4.409c0-31.657 25.663-57.319 57.319-57.319 31.657 0 57.319 25.663 57.319 57.319v4.409z"/></g><path d="m96.7 295.825h-34.847c-5.496 0-9.956-4.46-9.956-9.956v-224.016c0-5.496 4.46-9.956 9.956-9.956h34.847c-5.496 0-9.956 4.46-9.956 9.956v224.016c0 5.496 4.46 9.956 9.956 9.956z" fill="#ebe0da"/><path d="m52.315 8.587c-5.526 0-9.996 4.48-9.996 10.006v420.602h-34.847v-420.602c0-5.526 4.47-10.006 9.996-10.006z" fill="#655e67"/><path d="m271.104 392.779c-4.431 2.618-9.588 4.112-15.104 4.112-16.498 0-29.869-13.371-29.869-29.859 0-16.498 13.371-29.869 29.869-29.869 5.516 0 10.673 1.493 15.104 4.112-8.841 5.167-14.775 14.765-14.775 25.757 0 10.982 5.933 20.58 14.775 25.747z" fill="#f0a70a"/><path d="m96.371 392.779c-4.431 2.618-9.588 4.112-15.104 4.112-16.498 0-29.869-13.371-29.869-29.859 0-16.498 13.371-29.869 29.869-29.869 5.516 0 10.673 1.493 15.104 4.112-8.841 5.167-14.775 14.765-14.775 25.757 0 10.982 5.934 20.58 14.775 25.747z" fill="#f0a70a"/><path d="m445.836 392.779c-4.43 2.618-9.588 4.112-15.104 4.112-16.498 0-29.869-13.371-29.869-29.859 0-16.498 13.371-29.869 29.869-29.869 5.516 0 10.673 1.493 15.104 4.112-8.841 5.167-14.775 14.765-14.775 25.757 0 10.982 5.934 20.58 14.775 25.747z" fill="#f0a70a"/><path d="m273.423 236.794c-23.138 7.378-39.895 29.042-39.895 54.62v4.411h-34.847v-4.411c0-31.651 25.657-57.318 57.318-57.318 6.074 0 11.929.946 17.424 2.698z" fill="#f0a70a"/><g><path d="m494.532 1.12h-477.063c-9.633 0-17.469 7.836-17.469 17.468v474.824c0 9.632 7.836 17.468 17.469 17.468h477.063c9.632 0 17.468-7.836 17.468-17.468v-474.824c0-9.632-7.836-17.468-17.468-17.468zm0 494.826h-477.063c-1.398 0-2.534-1.137-2.534-2.534v-46.75h384.933c4.124 0 7.467-3.343 7.467-7.467s-3.343-7.467-7.467-7.467h-384.934v-413.14c0-1.397 1.137-2.534 2.534-2.534h477.063c1.397 0 2.534 1.137 2.534 2.534v413.14h-67.329c-4.124 0-7.467 3.343-7.467 7.467s3.343 7.467 7.467 7.467h67.329v46.75c.001 1.397-1.136 2.534-2.533 2.534z"/><path d="m61.853 303.292h40.535c4.124 0 7.467-3.343 7.467-7.467s-3.343-7.467-7.467-7.467h-40.535c-1.372 0-2.489-1.116-2.489-2.489v-224.016c0-1.373 1.117-2.489 2.489-2.489h261.711c4.124 0 7.467-3.343 7.467-7.467s-3.343-7.467-7.467-7.467h-261.711c-9.607 0-17.423 7.816-17.423 17.423v224.016c0 9.607 7.816 17.423 17.423 17.423z"/><path d="m467.57 285.869v-224.016c0-9.607-7.816-17.423-17.423-17.423h-96.714c-4.124 0-7.467 3.343-7.467 7.467s3.343 7.467 7.467 7.467h96.714c1.373 0 2.489 1.116 2.489 2.489v224.016c0 1.373-1.116 2.489-2.489 2.489h-129.438c-.986-21.114-12.123-39.617-28.633-50.728l49.918-82.805c21.083 9.736 40.575 23.108 57.659 39.799 2.95 2.884 7.679 2.825 10.559-.123 2.883-2.95 2.827-7.677-.122-10.559-17.917-17.504-38.303-31.603-60.34-41.983l23.16-38.418c2.129-3.531.993-8.121-2.54-10.25-3.529-2.128-8.121-.993-10.25 2.54l-24.224 40.184c-25.159-9.789-52.141-14.923-79.85-14.923-57.902 0-112.643 22.353-154.138 62.942-2.948 2.884-3 7.611-.116 10.559 2.885 2.949 7.612 3 10.56.117 38.687-37.842 89.719-58.684 143.695-58.684 24.942 0 49.255 4.461 72.015 12.985l-49.288 81.76c-7.089-2.671-14.761-4.143-22.773-4.143-34.698 0-63.106 27.42-64.709 61.729h-59.034c-4.124 0-7.467 3.343-7.467 7.467s3.343 7.467 7.467 7.467h66.424 114.639 136.827c9.606.001 17.422-7.815 17.422-17.422zm-261.329 2.489c1.585-26.07 23.298-46.794 49.759-46.794s48.174 20.724 49.76 46.794z"/><path d="m256 329.694c-20.586 0-37.334 16.749-37.334 37.335s16.748 37.334 37.334 37.334 37.334-16.748 37.334-37.334c0-20.587-16.748-37.335-37.334-37.335zm0 59.734c-12.351 0-22.4-10.049-22.4-22.4 0-12.352 10.049-22.401 22.4-22.401s22.4 10.049 22.4 22.401-10.049 22.4-22.4 22.4z"/><path d="m81.268 329.694c-20.586 0-37.334 16.749-37.334 37.335s16.748 37.334 37.334 37.334 37.334-16.748 37.334-37.334c0-20.587-16.748-37.335-37.334-37.335zm0 59.734c-12.351 0-22.4-10.049-22.4-22.4 0-12.352 10.049-22.401 22.4-22.401s22.4 10.049 22.4 22.401-10.049 22.4-22.4 22.4z"/><path d="m468.066 367.029c0-20.586-16.748-37.335-37.334-37.335s-37.334 16.749-37.334 37.335 16.748 37.334 37.334 37.334 37.334-16.748 37.334-37.334zm-59.733 0c0-12.352 10.049-22.401 22.4-22.401s22.4 10.049 22.4 22.401c0 12.351-10.049 22.4-22.4 22.4-12.352-.001-22.4-10.049-22.4-22.4z"/></g></g></svg>