<svg id="Layer_1" enable-background="new 0 0 512 512" height="512" viewBox="0 0 512 512" width="512" xmlns="http://www.w3.org/2000/svg"><g><path d="m226.29 7.519c-2.903-.22-5.376 2.095-5.376 5.006v421.985c0 36.947 28.553 67.225 64.797 69.97 2.903.22 5.376-2.095 5.376-5.006v-421.985c0-36.947-28.553-67.224-64.797-69.97z" fill="#a49ca7"/><path d="m291.089 495.345v4.13c0 2.91-2.48 5.23-5.38 5.01-36.239-2.75-64.799-33.029-64.799-69.979v-421.982c0-2.91 2.48-5.23 5.38-5.01 10.73.81 20.78 4.04 29.619 9.14v417.852c.001 26.01 14.161 48.719 35.18 60.839z" fill="#8e8391"/><path d="m106.164 56.164c-2.624 1.261-3.609 4.503-2.153 7.024l210.993 365.45c18.474 31.997 58.34 43.942 91.101 28.198 2.624-1.261 3.609-4.503 2.153-7.024l-210.993-365.45c-18.474-31.997-58.34-43.942-91.101-28.198z" fill="#a49ca7"/><path d="m406.195 446.234 2.065 3.577c1.455 2.52.467 5.769-2.154 7.029-32.759 15.738-72.632 3.795-91.107-28.204l-210.991-365.447c-1.455-2.52-.467-5.769 2.154-7.029 9.697-4.663 20.016-6.891 30.221-6.894l208.926 361.871c13.005 22.524 36.623 35.111 60.886 35.097z" fill="#8e8391"/><path d="m26.454 158.355c-1.642 2.404-.874 5.704 1.647 7.159l365.45 210.993c31.997 18.473 72.495 8.885 92.995-21.131 1.642-2.404.874-5.704-1.647-7.159l-365.45-210.993c-31.997-18.473-72.495-8.884-92.995 21.131z" fill="#a49ca7"/><path d="m481.324 346.15 3.577 2.065c2.52 1.455 3.289 4.763 1.649 7.164-20.501 30.009-61.004 39.603-93.003 21.128l-365.447-210.991c-2.52-1.455-3.289-4.763-1.649-7.164 6.066-8.887 13.889-15.976 22.725-21.081l361.871 208.926c22.524 13.005 49.271 12.097 70.277-.047z" fill="#8e8391"/><path d="m8.519 286.71c-.22 2.903 2.095 5.376 5.006 5.376h421.985c36.947 0 67.225-28.553 69.971-64.797.22-2.903-2.095-5.376-5.006-5.376h-421.985c-36.947 0-67.225 28.553-69.971 64.797z" fill="#a49ca7"/><path d="m496.346 221.91h4.13c2.91 0 5.23 2.48 5.01 5.38-2.75 36.239-33.029 64.799-69.979 64.799h-421.982c-2.91 0-5.23-2.48-5.01-5.38.81-10.73 4.04-20.78 9.14-29.619h417.852c26.009 0 48.719-14.16 60.839-35.18z" fill="#8e8391"/><path d="m57.164 406.836c1.261 2.624 4.503 3.609 7.024 2.153l365.45-210.993c31.997-18.474 43.942-58.34 28.198-91.101-1.261-2.624-4.503-3.609-7.024-2.153l-365.45 210.993c-31.997 18.473-43.941 58.34-28.198 91.101z" fill="#a49ca7"/><path d="m447.235 106.805 3.577-2.065c2.52-1.455 5.769-.467 7.029 2.154 15.738 32.759 3.795 72.632-28.204 91.107l-365.448 210.991c-2.52 1.455-5.769.467-7.029-2.154-4.663-9.697-6.891-20.016-6.894-30.221l361.87-208.927c22.525-13.004 35.112-36.622 35.099-60.885z" fill="#8e8391"/><path d="m159.355 486.546c2.404 1.642 5.704.874 7.159-1.647l210.993-365.45c18.473-31.997 8.885-72.495-21.131-92.995-2.404-1.642-5.704-.874-7.159 1.647l-210.993 365.45c-18.473 31.997-8.884 72.495 21.131 92.995z" fill="#a49ca7"/><path d="m347.151 31.676 2.065-3.577c1.455-2.52 4.763-3.289 7.164-1.649 30.009 20.501 39.603 61.004 21.128 93.003l-210.991 365.447c-1.455 2.52-4.763 3.289-7.164 1.649-8.887-6.066-15.976-13.889-21.081-22.725l208.926-361.871c13.004-22.524 12.096-49.271-.047-70.277z" fill="#8e8391"/><circle cx="256" cy="256" fill="#544f56" r="164.154"/><circle cx="256" cy="256" fill="#766d78" r="113.89"/><circle cx="256" cy="256" fill="#d1ced3" r="37.181"/><path d="m273.5 419.227c-5.75.62-11.59.93-17.5.93-90.658 0-164.157-73.499-164.157-164.157s73.499-164.157 164.157-164.157c5.91 0 11.75.31 17.5.93-82.428 8.73-146.657 78.479-146.657 163.227s64.228 154.497 146.657 163.227z" fill="#444145"/><path d="m273.5 368.548c-5.7.88-11.55 1.34-17.5 1.34-62.899 0-113.888-50.989-113.888-113.888s50.989-113.888 113.888-113.888c5.95 0 11.8.46 17.5 1.34-54.589 8.42-96.388 55.599-96.388 112.548s41.799 104.128 96.388 112.548z" fill="#655e67"/><path d="m269.17 290.779c-4.09 1.55-8.53 2.4-13.17 2.4-20.53 0-37.179-16.65-37.179-37.179s16.649-37.18 37.179-37.18c4.64 0 9.08.85 13.17 2.4-14.04 5.31-24.02 18.88-24.02 34.779s9.98 29.47 24.02 34.78z" fill="#b3adb6"/><g><path d="m487.431 275.763c14.343-13.353 23.055-31.435 24.533-50.915.549-7.238-5.215-13.436-12.488-13.436h-77.708c-.363-1.348-.741-2.688-1.136-4.023 11.751-6.783 36.102-18.195 46.042-50.625 5.742-18.736 4.244-38.752-4.219-56.36-3.14-6.529-11.212-9.032-17.53-5.395l-68.021 39.265c-.887-.881-1.781-1.755-2.687-2.617 7.203-12.475 22.603-34.444 14.98-67.569-4.394-19.096-15.699-35.681-31.829-46.695-6.003-4.103-14.252-2.205-17.885 4.093l-39.578 68.561c-.439-.116-.876-.238-1.317-.35v-12.202c.001-12.297-2.947-24.543-8.527-35.417-1.892-3.685-6.412-5.141-10.096-3.249-3.685 1.891-5.14 6.411-3.249 10.096 4.561 8.889 6.874 18.501 6.873 28.569v9.08c-18.29-2.968-36.857-2.973-55.179 0v-71.319c11.493 1.369 22.31 5.873 31.43 13.113 3.243 2.574 7.962 2.032 10.537-1.211 2.575-3.244 2.033-7.962-1.211-10.537-13.935-11.061-31.794-16.62-43.255-16.62-6.892 0-12.5 5.618-12.5 12.524v77.172c-1.018.261-2.028.538-3.039.817-7.021-12.157-18.397-36.506-50.869-46.458-18.735-5.74-38.751-4.244-56.36 4.219-6.535 3.142-9.028 11.216-5.395 17.529l38.741 67.108c-.717.697-1.433 1.395-2.138 2.103l-11.287-6.516c-17.066-9.859-37.039-12.855-56.236-8.437-19.097 4.394-35.681 15.699-46.684 31.812-4.114 5.983-2.25 14.243 4.071 17.904l66.859 38.596c-.292 1.008-.569 2.022-.843 3.038-14.068 0-40.814-2.32-65.663 20.817-14.342 13.353-23.055 31.435-24.532 50.915-.547 7.225 5.2 13.436 12.489 13.436h76.679c.27 1.11.548 2.218.84 3.32-11.685 6.749-36.05 18.165-45.988 50.592-5.743 18.738-4.245 38.751 4.219 56.356 3.178 6.606 11.301 9.002 17.529 5.394l65.852-38.024c.865.909 1.742 1.806 2.626 2.696-6.446 11.158-21.811 33.272-14.221 66.256 4.394 19.098 15.699 35.682 31.829 46.696 5.938 4.061 14.199 2.274 17.887-4.091l37.611-65.144c1.994.59 4 1.153 6.023 1.672 0 13.508-2.276 40.323 20.821 65.128 13.355 14.342 31.435 23.054 50.911 24.532 7.259.548 13.446-5.231 13.446-12.488v-77.172c1.445-.37 2.884-.756 4.314-1.163 6.506 11.268 17.94 35.606 50.328 45.534 18.31 5.612 38.357 4.434 56.355-4.219 6.564-3.158 9.028-11.26 5.395-17.53l-38.537-66.75c1.072-1.057 2.133-2.127 3.177-3.212l10.044 5.798c35.29 20.381 80.156 9.973 102.941-23.393 4.091-5.987 2.216-14.231-4.093-17.885l-66.832-38.58c.389-1.434.76-2.875 1.113-4.324 13.12.002 39.874 2.242 64.637-20.815zm9.313-49.352c-3.733 31.148-30.56 55.169-62.237 55.169h-8.76c2.74-18.259 2.534-36.903-.653-55.169zm-46.688-117.045c12.347 28.837 1.13 63.055-26.298 78.9l-8.102 4.677c-6.875-17.347-16.507-33.309-28.34-47.359zm-98.948-78.015c25.119 18.803 32.51 54.043 16.665 81.472l-5.084 8.806c-14.355-11.421-30.57-20.598-48.116-26.986zm61.546 224.649c0 86.379-70.275 156.654-156.654 156.654-86.38 0-156.655-70.275-156.655-156.654s70.275-156.654 156.655-156.654c86.379 0 156.654 70.275 156.654 156.654zm-300.547-195.325c28.838-12.346 63.054-1.13 78.9 26.299l4.783 8.281c-17.477 6.568-33.607 15.907-47.854 27.482zm-78.02 97.482c18.802-25.124 54.045-32.516 81.476-16.67l8.457 4.882c-11.743 14.113-21.268 30.131-28.04 47.516zm-18.83 123.423c3.733-31.148 30.56-55.169 62.237-55.169h9.412c-1.678 9.616-2.56 19.501-2.56 29.589 0 8.691.655 17.232 1.908 25.58zm45.417 116.304c-12.351-28.837-1.134-63.051 26.301-78.891l7.665-4.427c6.389 17.548 15.566 33.765 26.989 48.122zm97.479 78.026c-25.117-18.803-32.509-54.048-16.666-81.481l4.106-7.106c14.048 11.83 30.007 21.458 47.349 28.332zm125.436 20.835c-31.154-3.728-55.179-30.558-55.179-62.238v-9.08c18.29 2.968 36.857 2.973 55.179 0zm117.035-46.689c-28.835 12.348-63.051 1.135-78.89-26.299l-4.315-7.473c17.418-6.697 33.481-16.145 47.642-27.826zm78.025-98.948c-18.802 25.118-54.044 32.507-81.483 16.665l-7.434-4.291c11.509-14.291 20.782-30.453 27.274-47.958z"/><path d="m155.158 202.491c3.523 2.182 8.145 1.095 10.325-2.427 19.567-31.592 53.405-50.454 90.517-50.454 58.664 0 106.391 47.727 106.391 106.391 0 28.959-11.43 56.035-32.185 76.24-4.831 4.704-1.445 12.874 5.232 12.874 1.885 0 3.772-.707 5.23-2.126 23.68-23.052 36.722-53.945 36.722-86.988 0-66.935-54.455-121.39-121.39-121.39-42.342 0-80.948 21.516-103.269 57.557-2.181 3.52-1.095 8.143 2.427 10.323z"/><path d="m139.658 221.254c-3.35 11.23-5.048 22.92-5.048 34.746 0 66.935 54.455 121.39 121.39 121.39 20.708 0 41.154-5.307 59.127-15.349 3.616-2.02 4.909-6.59 2.89-10.206-2.021-3.616-6.593-4.91-10.206-2.89-15.742 8.796-33.658 13.445-51.811 13.445-58.664 0-106.39-47.727-106.39-106.391 0-10.373 1.488-20.621 4.422-30.459 1.184-3.97-1.074-8.146-5.043-9.331-3.971-1.178-8.147 1.076-9.331 5.045z"/><path d="m211.319 256c0 24.637 20.044 44.681 44.681 44.681s44.681-20.044 44.681-44.681-20.044-44.681-44.681-44.681-44.681 20.044-44.681 44.681zm74.362 0c0 16.366-13.315 29.681-29.681 29.681s-29.681-13.315-29.681-29.681 13.315-29.681 29.681-29.681 29.681 13.315 29.681 29.681z"/></g></g></svg>