<svg id="Layer_1" enable-background="new 0 0 512 512" height="512" viewBox="0 0 512 512" width="512" xmlns="http://www.w3.org/2000/svg"><g><path d="m394.545 207.716h-42.878c-2.761 0-5-2.239-5-5v-73.957c0-2.761 2.239-5 5-5h42.878c1.393 0 2.724.581 3.67 1.604l17.945 19.393c.855.924 1.33 2.137 1.33 3.396v35.173c0 1.259-.475 2.472-1.33 3.396l-17.945 19.392c-.946 1.022-2.277 1.603-3.67 1.603z" fill="#8e8391"/><path d="m386.672 207.719h-35c-2.77 0-5-2.24-5-5v-73.961c0-2.76 2.23-5 5-5h35c-2.77 0-5 2.24-5 5v73.961c0 2.76 2.23 5 5 5z" fill="#766d78"/><path d="m331.365 223.344h18.791c6.805 0 12.322-5.517 12.322-12.322v-90.567c0-6.805-5.517-12.322-12.322-12.322h-18.791c-6.805 0-12.322 5.517-12.322 12.322l-11.292 39.794 11.292 50.773c0 6.805 5.517 12.322 12.322 12.322z" fill="#544f56"/><path d="m354.261 222.64c-1.28.45-2.67.7-4.11.7h-18.79c-6.8 0-12.32-5.51-12.32-12.32l-11.29-50.771 11.29-39.791c0-6.81 5.52-12.33 12.32-12.33h18.79c1.44 0 2.83.25 4.11.7-4.79 1.69-8.22 6.26-8.22 11.63v90.561c0 5.371 3.43 9.931 8.22 11.621z" fill="#444145"/><path d="m150.799 223.344s-1.258 34.804 11.448 68.782c3.828 10.238-3.577 21.169-14.507 21.169h-48.402v-89.951z" fill="#da2f3c"/><path d="m319.043 118.828v95.121c0 4.58-1.82 8.98-5.05 12.21l-23.13 23.13c-5.63 5.62-13.26 8.78-21.21 8.78h-138.589c-5.98 0-11.09 4.3-12.13 10.18-15.974 90.534-15.02 84.8-15.02 85.801 0 3.82 3.11 7.08 7.09 7.08 11.78 0 21.94 8.95 22.71 20.7.44 6.7-2.12 12.82-6.44 17.16-4.02 4.01-9.57 6.5-15.69 6.5h-82.055c-11.5 0-20.2-10.38-18.19-21.7l5.6-31.79 18.25-103.5 13.18-74.781c1.97-11.17-6.63-21.41-17.97-21.41-12.92 0-23.35-10.71-22.89-23.74.45-12.41 11.02-22.06 23.44-22.06h275.763c6.821-.001 12.331 5.519 12.331 12.319z" fill="#fdc202"/><path d="m194.769 207.588h-83.001c-5.523 0-10-4.477-10-10v-48.344c0-5.523 4.477-10 10-10h83.001c5.523 0 10 4.477 10 10v48.344c0 5.522-4.478 10-10 10z" fill="#544f56"/><path d="m83.368 173.719-13.18 74.781-18.25 103.501-5.6 31.79c-2.01 11.32 6.69 21.7 18.19 21.7h-35c-11.5 0-20.2-10.38-18.19-21.7l5.6-31.79 18.249-103.501 13.18-74.781c1.97-11.17-6.63-21.41-17.97-21.41-12.92 0-23.35-10.71-22.89-23.74.45-12.41 11.02-22.06 23.44-22.06h35c-12.42 0-22.99 9.65-23.44 22.06-.46 13.03 9.97 23.74 22.89 23.74 11.341 0 19.941 10.24 17.971 21.41z" fill="#f0a70a"/><path d="m81.357 266.103-12.953 73.501c-1.263 7.169-7.492 12.397-14.772 12.397h-36.693l18.25-103.501h31.395c9.327 0 16.392 8.419 14.773 17.603z" fill="#544f56"/><path d="m70.118 248.92-18.18 103.081h-35l18.249-103.501h31.4c1.221 0 2.411.14 3.531.42z" fill="#444145"/><path d="m146.769 207.589h-35c-5.52 0-10-4.48-10-10v-48.34c0-5.53 4.48-10 10-10h35c-5.52 0-10 4.47-10 10v48.34c0 5.52 4.48 10 10 10z" fill="#444145"/><g><path d="m504.49 158.489c-7.898 0-8.813-5.78-18.95-5.78-7.394 0-14.194 4.025-17.74 10.493-1.546 2.808-5.096 3.527-7.599 1.751-13.351-9.477-25.377-5.928-35.201-6.714v-12.05c0-1.889-.713-3.708-1.996-5.095l-20.761-22.431c-1.419-1.533-3.415-2.405-5.504-2.405h-27.21c-1.932-8.92-9.876-15.626-19.366-15.626h-18.791c-4.207 0-8.104 1.327-11.316 3.571-3.526-3.215-8.198-5.195-13.336-5.195h-216.773c-4.142 0-7.5 3.357-7.5 7.5s3.358 7.5 7.5 7.5h216.772c2.663 0 4.83 2.162 4.83 4.82v95.121c0 2.575-1.04 5.093-2.854 6.906l-23.126 23.126c-4.256 4.248-9.906 6.588-15.911 6.588h-138.587c-9.63 0-17.838 6.886-19.516 16.376-15.646 89.165-15.134 84.624-15.134 87.105 0 8.039 6.545 14.58 14.59 14.58 13.514 0 20.262 15.718 10.974 25.051-2.787 2.779-6.478 4.31-10.394 4.31h-82.055c-6.69 0-12.027-6.001-10.804-12.9l4.511-25.591h30.395c10.941 0 20.26-7.821 22.158-18.596l2.54-14.41c.719-4.079-2.005-7.969-6.085-8.688-4.077-.718-7.969 2.005-8.688 6.084l-2.54 14.41c-.633 3.592-3.739 6.199-7.386 6.199h-27.75l10.231-58.042 5.371-30.457h25.102c4.599 0 8.212 4.129 7.386 8.801l-5.207 29.545c-.719 4.079 2.005 7.969 6.085 8.688 4.081.729 7.97-2.005 8.688-6.084 5.248-30.407 5.552-30.036 5.552-33.482 0-12.389-10.095-22.468-22.504-22.468h-22.459c12.672-71.887 12.026-67.32 12.026-70.484 0-14.175-11.552-25.707-25.752-25.707-8.495 0-15.405-6.913-15.405-15.41 0-.184.003-.367.01-.558.297-8.178 7.449-14.832 15.945-14.832h28.991c4.142 0 7.5-3.357 7.5-7.5s-3.358-7.5-7.5-7.5h-28.992c-16.751 0-30.34 12.865-30.935 29.284-.013.37-.02.739-.02 1.106 0 16.769 13.64 30.411 30.406 30.411 5.929 0 10.752 4.803 10.752 10.707 0 1.526 2.091-10.914-37.197 211.966-2.849 16.07 9.576 30.51 25.575 30.51h82.055c7.915 0 15.368-3.086 21.006-8.709 18.645-18.731 5.338-50.242-21.105-50.648l5.795-32.844h30.459c7.537 0 14.598-3.691 18.887-9.875 4.336-6.252 5.326-14.261 2.648-21.422-2.775-7.419-5.059-15.436-6.823-23.923h107.201c10.006 0 19.421-3.897 26.513-10.977l23.131-23.131c.945-.945 1.801-1.967 2.575-3.047 2.821 1.546 6.056 2.428 9.494 2.428h18.791c9.489 0 17.433-6.705 19.366-15.624h27.21c2.09 0 4.086-.872 5.505-2.406l20.761-22.44c1.282-1.387 1.995-3.205 1.995-5.094v-12.04c10.818.645 18.195-1.963 26.519 3.946 9.86 6.998 23.597 3.83 29.428-6.761 1.456-2.656 4.899-3.559 7.481-1.827 4.628 3.119 10.212 4.892 16.083 4.892 4.142 0 7.49-3.357 7.49-7.5s-3.369-7.502-7.511-7.502zm-349.26 136.259c.971 2.597.635 5.373-.923 7.618-1.51 2.177-3.901 3.425-6.562 3.425h-27.813l6.393-36.235c.409-2.31 2.404-3.985 4.745-3.985h16.103c1.989 10.36 4.684 20.155 8.057 29.177zm254.769-112.406-16.539 17.877h-23.474v-21.044c0-4.143-3.358-7.5-7.5-7.5s-7.5 3.357-7.5 7.5v31.847c0 2.658-2.163 4.821-4.822 4.821h-18.791c-2.659 0-4.822-2.163-4.822-4.821v-90.568c0-2.659 2.163-4.822 4.822-4.822h18.791c2.659 0 4.822 2.163 4.822 4.822v28.72c0 4.143 3.358 7.5 7.5 7.5s7.5-3.357 7.5-7.5v-17.916h23.475l16.538 17.869z"/><path d="m111.775 215.088h83.001c9.65 0 17.5-7.851 17.5-17.5v-48.343c0-9.65-7.851-17.5-17.5-17.5h-83.001c-9.65 0-17.5 7.851-17.5 17.5v48.343c0 9.65 7.85 17.5 17.5 17.5zm-2.5-65.843c0-1.379 1.122-2.5 2.5-2.5h83.001c1.378 0 2.5 1.121 2.5 2.5v48.343c0 1.379-1.122 2.5-2.5 2.5h-83.001c-1.378 0-2.5-1.121-2.5-2.5z"/><path d="m262.009 150.832h19.75c4.142 0 7.5-3.357 7.5-7.5s-3.358-7.5-7.5-7.5h-19.75c-4.142 0-7.5 3.357-7.5 7.5 0 4.142 3.357 7.5 7.5 7.5z"/><path d="m262.009 180.916h19.75c4.142 0 7.5-3.357 7.5-7.5s-3.358-7.5-7.5-7.5h-19.75c-4.142 0-7.5 3.357-7.5 7.5s3.357 7.5 7.5 7.5z"/><path d="m262.009 211h19.75c4.142 0 7.5-3.357 7.5-7.5s-3.358-7.5-7.5-7.5h-19.75c-4.142 0-7.5 3.357-7.5 7.5s3.357 7.5 7.5 7.5z"/><path d="m134.275 180.916h38c4.142 0 7.5-3.357 7.5-7.5s-3.358-7.5-7.5-7.5h-38c-4.142 0-7.5 3.357-7.5 7.5s3.358 7.5 7.5 7.5z"/></g></g></svg>