<svg id="Layer_1" enable-background="new 0 0 512 512" height="512" viewBox="0 0 512 512" width="512" xmlns="http://www.w3.org/2000/svg"><g><path d="m303.479 140.615h-92.111c-12.645-23.444-23.07-59.671 2.283-109.034.384-.747 1.526-.448 1.484.395-1.784 44.136 48.508 39.563 52.255-20.651.064-1.029 1.443-1.316 1.891-.387 4.331 8.987 14.989 34.21 9.889 55.664-.395 1.761 1.59 3.073 3.062 2.028 11.705-8.355 16.337-21.8 17.532-31.863.213-1.814 2.646-2.252 3.489-.63 24.246 46.6 13.202 81.547.226 104.478z" fill="#e04955"/><path d="m246.365 140.611h-34.992c-12.647-23.445-23.075-59.667 2.279-109.026.38-.75 1.53-.45 1.48.39-.84 20.826 9.918 30.813 21.905 29.214-9.228 34.532-.64 60.946 9.328 79.422z" fill="#da2f3c"/><path d="m357.833 410.961h-203.72c-5.522 0-9.998-4.476-9.998-9.998v-57.691c0-5.522 4.476-9.998 9.998-9.998h203.72c5.522 0 9.998 4.476 9.998 9.998v57.691c-.001 5.522-4.478 9.998-9.998 9.998z" fill="#544f56"/><path d="m199.336 123.694h113.272c2.761 0 4.999 2.238 4.999 4.999v25.215c0 2.761-2.238 4.999-4.999 4.999h-113.272c-2.761 0-4.999-2.238-4.999-4.999v-25.215c.001-2.761 2.239-4.999 4.999-4.999z" fill="#544f56"/><path d="m234.327 158.907h-34.992c-2.759 0-4.999-2.24-4.999-4.999v-25.215c0-2.759 2.24-4.999 4.999-4.999h34.992c-2.759 0-4.999 2.239-4.999 4.999v25.215c0 2.759 2.24 4.999 4.999 4.999z" fill="#444145"/><path d="m189.107 410.961h-34.992c-5.529 0-9.998-4.479-9.998-9.998v-57.687c0-5.529 4.469-9.998 9.998-9.998h34.992c-5.529 0-9.998 4.469-9.998 9.998v57.687c0 5.519 4.469 9.998 9.998 9.998z" fill="#444145"/><g><path d="m504.5 381.403v118.039c0 2.761-2.238 4.999-4.999 4.999h-487.056c-2.763 0-5.003-2.242-4.999-5.006l.16-118.036c.002-1.429.614-2.793 1.681-3.743 15.331-13.644 38.831-13.116 53.53 1.583 15.22 15.22 39.929 15.279 55.208 0 15.2-15.2 39.898-15.3 55.218 0 15.253 15.233 39.921 15.267 55.208 0 15.253-15.233 39.921-15.267 55.208 0 15.253 15.233 39.921 15.266 55.208 0 15.329-15.309 40.026-15.192 55.218 0 15.241 15.241 39.948 15.26 55.208 0 14.683-14.684 38.178-15.245 53.527-1.586 1.069.952 1.68 2.319 1.68 3.75z" fill="#93dcfc"/></g><g><path d="m504.505 438.966v60.476c0 2.761-2.238 4.999-4.999 4.999h-486.983c-2.761 0-4.999-2.238-4.999-4.999v-60.566c2.849 1.84 5.549 4.009 8.038 6.499 18.978 18.978 49.748 18.987 68.715 0 18.963-18.943 49.71-18.995 68.725 0 19.028 19.008 49.758 18.957 68.715 0 18.985-18.945 49.681-18.994 68.715 0 19.009 18.989 49.718 18.977 68.715 0 18.992-18.972 49.74-18.965 68.725 0 18.957 18.978 49.728 18.987 68.715 0 2.46-2.46 5.109-4.599 7.918-6.409z" fill="#72d1fb"/></g><g><path d="m504.498 381.402v25.83c-15.267-15.267-39.971-15.227-55.208 0-15.257 15.257-39.961 15.237-55.208 0-15.187-15.187-39.891-15.307-55.218 0-15.287 15.267-39.951 15.237-55.208 0-15.287-15.267-39.951-15.227-55.208 0-15.287 15.267-39.951 15.237-55.208 0-15.317-15.297-40.011-15.197-55.218 0-15.277 15.277-39.981 15.217-55.208 0-14.117-14.117-39.471-12.027-55.258.46l.046-26.295c.003-1.428.614-2.792 1.681-3.741 15.331-13.644 38.831-13.117 53.531 1.583 15.227 15.217 39.931 15.277 55.208 0 15.207-15.197 39.901-15.297 55.218 0 15.257 15.237 39.921 15.267 55.208 0 15.257-15.227 39.921-15.267 55.208 0 15.257 15.237 39.921 15.267 55.208 0 15.327-15.307 40.031-15.187 55.218 0 15.247 15.237 39.951 15.257 55.208 0 14.689-14.68 38.178-15.244 53.527-1.586 1.069.951 1.681 2.318 1.681 3.749z" fill="#72d1fb"/></g><g><path d="m504.508 438.965v30.663c-2.809 1.81-5.459 3.949-7.918 6.409-18.986 18.986-49.759 18.976-68.715 0-18.986-18.966-49.739-18.976-68.725 0-18.996 18.976-49.709 18.986-68.715 0-19.036-18.996-49.729-18.946-68.715 0-18.956 18.956-49.689 19.006-68.715 0-19.016-18.996-49.769-18.946-68.725 0-18.966 18.986-49.739 18.976-68.715 0-2.489-2.489-5.189-4.659-8.038-6.499v-30.663c2.849 1.84 5.549 4.009 8.038 6.499 18.976 18.976 49.749 18.986 68.715 0 18.956-18.946 49.709-18.996 68.725 0 19.026 19.006 49.759 18.956 68.715 0 18.986-18.946 49.679-18.996 68.715 0 19.006 18.986 49.719 18.976 68.715 0 18.986-18.976 49.739-18.966 68.725 0 18.956 18.976 49.729 18.986 68.715 0 2.459-2.46 5.109-4.599 7.918-6.409z" fill="#40c1fa"/></g><path d="m511.992 379.239c0-1.989-.79-3.896-2.196-5.303-8.791-8.79-20.474-13.631-32.899-13.631-7.617.001-15.181 1.886-21.876 5.451-3.655 1.947-5.04 6.488-3.094 10.143 1.946 3.654 6.485 5.04 10.143 3.094 4.533-2.414 9.661-3.691 14.828-3.692 7.421 0 14.454 2.55 20.097 7.236v52.566c-1.996 1.518-3.914 3.17-5.715 4.97-16.06 16.062-42.055 16.074-58.113-.002-21.931-21.911-57.387-21.912-79.324-.001-16.084 16.066-42.025 16.074-58.118-.002-10.609-10.588-24.69-16.418-39.649-16.418-14.965 0-29.05 5.831-39.665 16.424-16.034 16.033-41.99 16.101-58.114-.004-20.616-20.592-53.009-21.711-74.941-3.945-3.218 2.607-3.714 7.328-1.107 10.547s7.328 3.714 10.547 1.107c15.843-12.834 39.604-12.38 54.903 2.903 10.607 10.595 24.691 16.43 39.658 16.43 14.977 0 29.061-5.837 39.652-16.428 16.087-16.054 42.024-16.066 58.119-.003 10.606 10.595 24.689 16.43 39.655 16.43 14.967 0 29.051-5.835 39.657-16.429 16.065-16.047 42.046-16.069 58.121-.006 20.383 20.404 52.466 21.785 74.433 4.362v41.906c-9.295 0-472.364 0-481.977 0v-42.007c14.481 11.554 33.216 14.809 50.054 10.098 3.988-1.116 6.316-5.254 5.2-9.242s-5.253-6.315-9.242-5.2c-25.937 7.263-40.441-11.363-46.005-15.582l.071-52.468c12.346-10.255 30.753-9.658 42.413 2.001 18.189 18.178 47.614 18.196 65.807.002 12.269-12.251 32.203-12.404 44.62 0 18.209 18.185 47.589 18.193 65.803.002 12.351-12.327 32.255-12.342 44.613-.002 18.209 18.186 47.589 18.192 65.805 0 12.355-12.339 32.296-12.322 44.618-.002 12.893 12.884 31.255 16.549 47.258 11.372 3.941-1.273 6.101-5.501 4.828-9.441-1.275-3.941-5.502-6.096-9.442-4.828-10.76 3.48-23.234 1.094-32.041-7.708-6.632-6.631-14.991-11.031-24.058-12.78v-17.879c0-9.647-7.849-17.496-17.496-17.496h-40.775c-.548-18.922-4.146-143.19-4.614-159.375h5.167c4.142 0 7.498-3.357 7.498-7.498v-35.213c0-2.763-1.498-5.17-3.723-6.471 8.054-29.285 2.436-57.802-11.472-84.536-4.217-8.146-16.483-5.951-17.595 3.198-.367 3.106-1.418 8.881-4.394 14.734-1.206-23.661-13.262-45.722-13.801-46.697-3.679-6.648-13.84-4.195-14.057 3.414-.92 32.087-15.461 46.519-25.492 46.519-7.283 0-11.989-7.701-11.989-19.62 0-.972.048-2.295.048-2.313 0-8.667-11.764-11.434-15.65-3.762-7.475 14.557-12.449 29.042-14.783 43.052-.681 4.085 2.079 7.948 6.164 8.629 4.084.682 7.948-2.079 8.628-6.165 1.045-6.27 2.697-12.675 4.943-19.172 5.071 9.796 13.88 14.346 22.639 14.346 14.101 0 28.653-11.265 35.878-33.059 2.49 9.714 3.559 19.46 1.398 29.184-1.884 8.441 7.664 14.791 14.743 9.754 8.368-5.971 13.386-13.83 16.391-21.016 7.878 20.56 9.681 41.208 3.061 62.481h-96.718c-1.417-4.882-2.438-9.834-3.041-14.781-.501-4.11-4.238-7.031-8.351-6.536-4.111.502-7.037 4.24-6.536 8.352.53 4.344 1.344 8.686 2.415 12.991-3.896.27-6.974 3.508-6.974 7.472v35.213c0 4.142 3.357 7.498 7.498 7.498h5.166c-.073 2.512-4.547 156.74-4.624 159.375h-40.765c-9.647 0-17.496 7.849-17.496 17.496v17.916c-9 1.772-17.305 6.159-23.898 12.743-12.354 12.353-32.295 12.303-44.604 0-18.188-18.188-47.622-18.19-65.812 0-1.404 1.404-2.194 3.307-2.196 5.293-.169 124.47-.083 115.215-.083 125.213 0 4.142 3.357 7.498 7.498 7.498h496.973.008c4.142 0 7.498-3.357 7.498-7.498.006-116.281-.002-13.728-.002-125.204zm-308.142-248.044c.012 0 .023-.003.035-.003h106.22v20.216c-10.912 0-82.186 0-108.273 0v-20.216h1.98c.013 0 .025.003.038.003zm83.96 120.27-31.839 28.978-31.836-28.978zm-62.687-14.997 30.84-26.24 30.839 26.24zm75.034 24.038 1.789 61.786-34.836-31.709zm-32.623-60.124 30.14-25.645 1.523 52.587zm-11.571-9.845-28.361-24.131h56.722zm-11.571 9.845-31.658 26.937 1.527-52.575zm.439 90.2-34.851 31.719 1.792-61.81zm11.139 10.14 27.53 25.059h-55.063zm-101.859 40.055h203.715c1.379 0 2.499 1.121 2.499 2.499v17.439c-10.098 1.329-19.435 5.899-26.764 13.217-12.352 12.336-32.256 12.338-44.61 0-18.208-18.181-47.583-18.188-65.806 0-12.352 12.336-32.256 12.339-44.61 0-7.368-7.359-16.766-11.937-26.924-13.236v-17.421c0-1.377 1.122-2.498 2.5-2.498z"/></g></svg>