<svg id="Layer_1" enable-background="new 0 0 512 512" height="512" viewBox="0 0 512 512" width="512" xmlns="http://www.w3.org/2000/svg"><g><path d="m188.024 328.394h-43.32c-6.16 0-11.16-5-11.16-11.16l-23.918-54.46 23.918-58.59h42.99z" fill="#e6f7fe"/><path d="m171.04 328.394h-26.34c-6.16 0-11.16-5-11.16-11.16l-23.92-54.46 23.92-58.59h26.34v113.05c0 6.16 5 11.16 11.16 11.16z" fill="#d5f1fe"/><path d="m167.725 227.041h-94.424v-56.878c0-26.075 21.138-47.212 47.212-47.212 26.075 0 47.212 21.138 47.212 47.212z" fill="#8e8391"/><path d="m259.2 414.434h-223.909l13.65-210.249h84.6v113.05c0 6.16 5 11.16 11.16 11.16h88.01c11.76 0 21.49 9.12 22.26 20.86z" fill="#8e8391"/><path d="m83.941 204.184-13.65 210.25h-35l13.65-210.25z" fill="#766d78"/><circle cx="417.354" cy="94.699" fill="#8e8391" r="39.618"/><path d="m434.331 210.752v29.42h45v-29.42c0-2.761-2.239-5-5-5h-35c-2.761 0-5 2.238-5 5z" fill="#655e67"/><circle cx="456.832" cy="282.037" fill="#544f56" r="47.528"/><path d="m402.862 410.357h54.472v45.944h-54.472c-2.761 0-5-2.239-5-5v-35.944c0-2.761 2.238-5 5-5z" fill="#954c35"/><path d="m432.597 364.413h49.472c2.761 0 5 2.239 5 5v35.944c0 2.761-2.239 5-5 5h-49.472c-2.761 0-5-2.239-5-5v-35.944c0-2.761 2.238-5 5-5z" fill="#ae583e"/><path d="m457.332 410.357h42.528c2.761 0 5 2.239 5 5v35.944c0 2.761-2.239 5-5 5h-42.528z" fill="#7c3f2c"/><path d="m320.164 456.967h-282.329c-16.754 0-30.335-13.582-30.335-30.335 0-16.754 13.581-30.335 30.335-30.335h282.329c16.754 0 30.335 13.582 30.335 30.335.001 16.754-13.581 30.335-30.335 30.335z" fill="#655e67"/><path d="m138 126.305c-17.4 6.96-29.7 23.97-29.7 43.86v56.88h-35v-56.88c0-26.08 21.14-47.21 47.21-47.21 6.18 0 12.081 1.19 17.49 3.35z" fill="#766d78"/><path d="m434.859 130.245c-5.28 2.61-11.23 4.07-17.51 4.07-21.88 0-39.61-17.74-39.61-39.62 0-29.474 31.001-48.412 57.12-35.55-13.11 6.46-22.12 19.95-22.12 35.55s9.01 29.09 22.12 35.55z" fill="#766d78"/><path d="m474.333 326.234c-5.42 2.15-11.32 3.33-17.5 3.33-26.25 0-47.53-21.28-47.53-47.53s21.28-47.53 47.53-47.53c6.18 0 12.08 1.18 17.5 3.33-17.59 6.96-30.03 24.13-30.03 44.2s12.439 37.24 30.03 44.2z" fill="#444145"/><path d="m72.831 456.963h-35c-16.75 0-30.33-13.58-30.33-30.33 0-8.37 3.4-15.96 8.88-21.45 5.49-5.49 13.08-8.89 21.45-8.89h35c-8.37 0-15.96 3.4-21.45 8.89-5.48 5.49-8.88 13.08-8.88 21.45 0 16.75 13.58 30.33 30.33 30.33z" fill="#544f56"/><path d="m46.439 196.669h148.145c6.159 0 11.152 4.993 11.152 11.152v17.097c0 6.159-4.993 11.152-11.152 11.152h-148.145c-6.159 0-11.153-4.993-11.153-11.152v-17.098c.001-6.159 4.994-11.151 11.153-11.151z" fill="#655e67"/><path d="m81.441 236.064h-35c-6.16 0-11.15-4.99-11.15-11.15v-17.09c0-6.16 4.99-11.16 11.15-11.16h35c-6.16 0-11.15 5-11.15 11.16v17.09c0 6.16 4.99 11.15 11.15 11.15z" fill="#544f56"/><g><path d="m511.999 456.946v-45.925c0-4.14-3.36-7.5-7.5-7.5h-10.29v-38.44c0-4.15-3.36-7.5-7.5-7.5h-59.47c-4.15 0-7.5 3.35-7.5 7.5v38.44h-22.24c-4.14 0-7.5 3.36-7.5 7.5v38.444h-39.694c4.823-6.351 7.693-14.263 7.693-22.835 0-20.862-16.973-37.835-37.835-37.835h-55.113l-.55-8.476 111.847-167.503c.053-.079.104-.159.153-.239l47.576-71.245h.003c9.73-1.4 18.519-5.78 25.39-12.19v69.11h-10c-6.893 0-12.5 5.607-12.5 12.5v25.188c-15.052 9.83-25.026 26.814-25.026 46.094 0 30.343 24.685 55.028 55.028 55.028 7.572 0 14.911-1.513 21.813-4.495 3.803-1.644 5.553-6.058 3.91-9.859-1.643-3.803-6.056-5.554-9.859-3.91-5.014 2.166-10.351 3.265-15.864 3.265-22.071 0-40.028-17.957-40.028-40.028s17.957-40.027 40.028-40.027 40.028 17.956 40.028 40.027c0 7.163-1.912 14.188-5.53 20.316-2.105 3.566-.921 8.165 2.646 10.271 3.566 2.105 8.166.921 10.271-2.646 4.979-8.436 7.612-18.098 7.612-27.941 0-19.281-9.976-36.266-25.03-46.096v-25.186c0-6.893-5.607-12.5-12.5-12.5h-10v-103.551c0-.003 0-.006 0-.009 0-32.675-32.698-55.555-63.37-44.22-1 .228-298.59 67.946-300.109 68.58-20.56 7.87-35.19 27.81-35.19 51.11v18.999h-19.36c-10.284 0-18.65 8.371-18.65 18.66v17.09c0 7.627 4.607 14.191 11.18 17.078v.003l-2.82 43.48c-.27 4.13 2.86 7.7 7 7.97.16.01.33.02.49.02 3.92 0 7.22-3.05 7.48-7.02l2.78-42.88h72.14v73.67c0 10.289 8.371 18.66 18.66 18.66h88.009c7.776 0 14.267 6.084 14.775 13.846.834 12.862 1.575 24.293 2.532 39.058h-19.852c-4.143 0-7.5 3.357-7.5 7.5s3.357 7.5 7.5 7.5h89.998c12.591 0 22.835 10.244 22.835 22.835s-10.244 22.835-22.835 22.835c-12.665 0-269.705 0-282.328 0-12.589-.001-22.833-10.245-22.833-22.836s10.244-22.835 22.836-22.835h162.33c4.143 0 7.5-3.357 7.5-7.5s-3.357-7.5-7.5-7.5h-155.695v-.004l4.7-72.41c.27-4.14-2.86-7.7-7-7.97s-7.7 2.86-7.96 7l-4.82 74.33-.001.017c-16.809 3.848-29.39 18.913-29.39 36.872 0 20.862 16.973 37.835 37.836 37.835h466.664c4.143 0 7.5-3.357 7.5-7.5 0-.007-.001-.013-.001-.02zm-40.03-227.844c-9.568-2.715-19.885-2.87-30 .001v-15.851h30zm-88.276-101.466c6.573 6.721 14.965 11.173 22.86 12.927l-26.834 40.185zm-20.138 68.098-29.372-18.293 34.158-45.671zm-3.982 15.192-34.156 51.153 4.541-69.597zm-49.94 62.688-28.331-25.468 32.859-43.934zm-3.366 17.144-40.366 60.452 10.94-86.904zm143.202-196.069v.003.01c-.006 18.746-15.591 32.11-32.12 32.11-14.91 0-27.47-10.21-31.08-24.01-.67-2.59-1.03-5.31-1.03-8.11 0-13.79 8.73-25.57 20.96-30.12 21.084-7.754 43.268 7.915 43.27 30.117zm-73.109-23.196c-3.9 6.85-6.12 14.77-6.12 23.2 0 2.889.26 5.717.769 8.466-9.109 12.18-154.034 205.959-162.841 217.734h-13.31l-7.152-77.33h6.874c10.289 0 18.66-8.366 18.66-18.65v-17.09c0-10.289-8.371-18.66-18.66-18.66h-19.36v-18.999c0-14.62-5.69-28.35-16.02-38.69-3.15-3.14-6.61-5.85-10.31-8.1zm-295.559 98.67c0-16.88 10.58-31.33 25.46-37.07 13.827-5.331 30.615-2.72 42.34 8.99 7.49 7.5 11.62 17.47 11.62 28.08v19h-79.42zm-38.01 37.659c0-2.019 1.638-3.66 3.65-3.66h148.139c2.019 0 3.66 1.642 3.66 3.66v17.09c0 2.013-1.642 3.65-3.66 3.65-6.924 0-142.377 0-148.139 0-2.013 0-3.65-1.638-3.65-3.65zm101.91 113.07c-2.019 0-3.66-1.642-3.66-3.66v-73.67h31.602l7.151 77.33zm88.009 0h-5.811l33.306-44.53-6.679 53.053c-5.396-5.276-12.761-8.523-20.816-8.523zm264.289 128.569h-32.53v-30.94h22.24 10.29zm-62.26-76.879h44.47v30.94c-14.153 0-30.317 0-44.47 0zm-29.74 45.939h22.24 22.23v30.94h-44.47z"/><circle cx="417.354" cy="94.697" r="9.303"/><circle cx="120.512" cy="166.407" r="9.303"/><path d="m106.21 284.272c4.143 0 7.5-3.357 7.5-7.5s-3.357-7.5-7.5-7.5h-18.274c-4.143 0-7.5 3.357-7.5 7.5s3.357 7.5 7.5 7.5z"/><path d="m77.686 311.022c0 4.143 3.357 7.5 7.5 7.5h18.273c4.143 0 7.5-3.357 7.5-7.5s-3.357-7.5-7.5-7.5h-18.273c-4.142 0-7.5 3.357-7.5 7.5z"/><path d="m74.936 345.272c0 4.143 3.357 7.5 7.5 7.5h18.273c4.143 0 7.5-3.357 7.5-7.5s-3.357-7.5-7.5-7.5h-18.273c-4.142 0-7.5 3.357-7.5 7.5z"/><path d="m40.698 426.63c0 5.138 4.165 9.303 9.303 9.303s9.303-4.165 9.303-9.303-4.165-9.303-9.303-9.303-9.303 4.166-9.303 9.303z"/><path d="m105.198 426.63c0 5.138 4.165 9.303 9.303 9.303s9.303-4.165 9.303-9.303-4.165-9.303-9.303-9.303-9.303 4.166-9.303 9.303z"/><path d="m169.698 426.63c0 5.138 4.165 9.303 9.303 9.303s9.303-4.165 9.303-9.303-4.165-9.303-9.303-9.303-9.303 4.166-9.303 9.303z"/><path d="m252.803 426.63c0-5.138-4.165-9.303-9.303-9.303s-9.303 4.165-9.303 9.303 4.165 9.303 9.303 9.303c5.138.001 9.303-4.165 9.303-9.303z"/><path d="m317.303 426.63c0-5.138-4.165-9.303-9.303-9.303s-9.303 4.165-9.303 9.303 4.165 9.303 9.303 9.303c5.138.001 9.303-4.165 9.303-9.303z"/></g></g></svg>