<svg id="Layer_1" enable-background="new 0 0 512 512" height="512" viewBox="0 0 512 512" width="512" xmlns="http://www.w3.org/2000/svg"><g><path d="m176.382 339.966-33.691-33.69 139.425-136.684 30.95 30.949z" fill="#655e67"/><path d="m299.4 186.879-139.429 136.675-17.278-17.278 139.419-136.684z" fill="#544f56"/><path d="m421.09 240.827-18.971-31.494 15.796-28.274 28.275-15.797 31.495 18.971-20.963 35.633z" fill="#655e67"/><path d="m186 101.978c-3.612 4.831 2.396 10.961 7.318 7.474 24.689-17.485 60.314-36.082 80.292-16.103 25.52 25.52-1.008 64.967-13.876 81.046-3.377 4.219-3.052 10.294.77 14.115l34.274 34.274c4.119 4.119 10.777 4.128 14.929.043 16.305-16.045 59.867-46.312 92.549-13.631l43.934-43.934-98.67-98.669c-49.648-49.649-107.728-36.543-161.52 35.385z" fill="#8e8391"/><path d="m443.273 263.011-22.184-22.183 56.594-56.594 22.184 22.184c6.202 6.202 6.202 16.258 0 22.46l-34.134 34.134c-6.201 6.201-16.258 6.201-22.46-.001z" fill="#444145"/><path d="m301.935 39.006c-23.406 5.569-47.172 22.178-70.308 49.517-13.365 4.651-26.99 12.906-38.308 20.931-4.921 3.483-10.93-2.645-7.316-7.476 37.998-50.815 78.143-72.265 115.932-62.972z" fill="#766d78"/><path d="m295.438 188.506 25.063 25.063c-4.292 3.244-7.955 6.468-10.79 9.263-4.152 4.082-10.81 4.072-14.932-.05l-34.276-34.276c-3.823-3.813-4.142-9.891-.769-14.113 12.866-16.08 39.396-55.526 13.874-81.038-2.046-2.046-4.262-3.693-6.618-4.971 15.621-5.37 30.842-5.749 41.552 4.971 25.522 25.512-1.008 64.958-13.874 81.038-3.373 4.222-3.053 10.3.77 14.113z" fill="#766d78"/><path d="m75.202 462.943c-15.214 15.956-40.577 16.268-56.162.683-15.593-15.593-15.28-40.956.676-56.17l122.096-116.318 49.71 49.71z" fill="#c97e67"/><g fill="#a49ca7"><path d="m258.472 454.81-19.592 8.803c-1.289.34-2.543-.655-2.504-1.988l-2.106-20.789 49.293-85.378 24.204 13.974z"/><path d="m135.989 186.015-5.039 18.442c-.305 1.118-1.495 1.741-2.588 1.357l-16.577-5.826-49.293-85.378 24.203-13.974z"/><path d="m422.501 364.449-2.216 20.882c-.143 1.347-1.557 2.164-2.795 1.614l-19.193-8.522-49.293-85.378 24.203-13.974z"/></g><path d="m53.969 463.622c3.094 3.094 6.568 5.56 10.281 7.396-14.653 7.296-32.958 4.861-45.215-7.396-15.591-15.591-15.271-40.953.679-56.165l122.102-116.322 17.038 17.048-104.206 99.274c-15.95 15.211-16.27 40.574-.679 56.165z" fill="#c0694e"/><path d="m177.741 348.718-43.801-43.801c-5.696-5.696-5.696-14.933 0-20.629l5.95-5.95c5.696-5.696 14.933-5.696 20.629 0l43.801 43.801c5.696 5.696 5.696 14.933 0 20.629l-5.95 5.95c-5.696 5.696-14.933 5.696-20.629 0z" fill="#ae583e"/><path d="m168.415 286.233c-2.465 1.038-4.781 2.565-6.797 4.572l-8.724 8.723c-4.991 5.001-6.997 11.848-6.019 18.326l-12.936-12.936c-5.699-5.699-5.699-14.932 0-20.632l5.949-5.949c5.699-5.699 14.932-5.699 20.631 0z" fill="#954c35"/><g><path d="m505.167 201.123c-22.012-22.013-22.193-22.451-23.611-23.303l-30.715-18.5-98.021-98.021c-21.168-21.167-44.116-31.9-68.204-31.9-35.118 0-71.29 23.547-104.606 68.098-8.697 11.636 5.826 26.417 17.641 18.064 21.588-15.287 40.211-23.367 53.859-23.367 22.859 0 41.688 28.412 2.386 77.524-4.201 5.248-5.313 12.668-2.157 19.176l-85.88 84.19-.04-.04c-8.607-8.605-22.61-8.605-31.217 0l-5.95 5.95c-5.439 5.44-7.431 13.034-5.994 20.06l-108.105 102.984c-30.691 29.266-9.466 80.563 32.233 80.563 22.32 0 33.062-13.679 40.876-21.881 2.852-2.993 2.738-7.733-.255-10.584-2.993-2.852-7.732-2.738-10.584.255-7.69 8.071-14.601 17.237-30.037 17.237-28.333 0-42.764-34.86-21.903-54.753l105.721-100.715 39.902 39.902-73.027 76.649c-4.551 4.776-1.113 12.65 5.419 12.65 1.977 0 3.95-.778 5.421-2.322l75.285-79.019c7.114 1.451 14.64-.586 20.066-6.011l5.952-5.95c8.606-8.607 8.606-22.61 0-31.217l-.041-.041 83.984-85.67c2.636 1.454 5.606 2.236 8.7 2.236 9.952 0 11.662-5.576 23.478-14.376 3.315-2.469 4.001-7.159 1.531-10.476-2.469-3.315-7.158-4-10.476-1.531-4.46 3.322-8.726 6.956-12.333 10.506-1.225 1.205-3.175 1.209-4.385-.001-3.509-3.509-29.271-29.271-33.067-33.067-.003-.003-.005-.006-.008-.009-.004-.004-.009-.008-.013-.012l-1.186-1.186c-1.101-1.099-1.232-2.875-.218-4.143 49.529-61.889 19.045-101.851-14.075-101.851-14.288 0-31.42 6.205-51.043 18.466 27.818-33.632 56.731-51.317 84.149-51.317 19.974 0 39.359 9.257 57.617 27.516l93.376 93.375-33.646 33.647c-9.863-7.814-21.13-11.766-33.586-11.766-7.516.001-15.424 1.477-23.506 4.386-3.889 1.401-5.908 5.69-4.507 9.58 1.402 3.889 5.691 5.902 9.58 4.507 6.45-2.323 12.653-3.5 18.434-3.501 10.419 0 19.413 3.701 27.453 11.282.336.558 18.554 30.798 18.895 31.351.72 1.167-.841-.545 23.259 23.556v.001c9.131 9.131 23.913 9.132 33.048 0l34.134-34.134c9.108-9.112 9.108-23.936-.003-33.047zm-306.134 136.35-5.952 5.951c-2.806 2.806-7.304 2.74-10.042-.001l-43.801-43.801c-2.769-2.768-2.769-7.273 0-10.042l5.95-5.95c1.384-1.385 3.202-2.077 5.021-2.077s3.637.692 5.021 2.077l43.802 43.801c2.77 2.768 2.77 7.273.001 10.042zm83.44-116.414-83.481 85.156-22.546-22.546 85.157-83.481zm129.085-10.572 35.79-35.792 18.28 11.011-43.059 43.058zm83.021 13.095-34.134 34.135c-3.28 3.28-8.593 3.281-11.872-.001v.001l-16.89-16.891 46.008-46.008 16.889 16.891c3.273 3.274 3.273 8.6-.001 11.873z"/><path d="m374.406 149.008c2.923-2.923 2.923-7.662-.001-10.587l-31.781-31.78c-2.922-2.922-7.662-2.923-10.587.001-2.923 2.923-2.923 7.662.001 10.587l31.781 31.78c2.923 2.922 7.662 2.923 10.587-.001z"/><path d="m316.6 136.33c-2.923 2.924-2.923 7.663 0 10.588l17.528 17.528c2.925 2.923 7.663 2.922 10.588 0 2.923-2.924 2.923-7.663 0-10.588l-17.528-17.528c-2.925-2.922-7.664-2.922-10.588 0z"/><path d="m130.645 366.645c1.915 0 3.832-.731 5.294-2.193 2.923-2.923 2.923-7.663-.001-10.587l-7.142-7.141c-2.924-2.922-7.662-2.923-10.587.001-2.923 2.923-2.923 7.663.001 10.587l7.142 7.141c1.462 1.461 3.377 2.192 5.293 2.192z"/><path d="m103.469 396.922c2.923-2.924 2.923-7.663 0-10.588l-7.142-7.142c-2.924-2.922-7.663-2.922-10.588 0-2.923 2.924-2.923 7.663 0 10.588l7.142 7.142c1.462 1.461 3.378 2.192 5.294 2.192s3.832-.731 5.294-2.192z"/><path d="m53.273 411.661c-2.924 2.923-2.924 7.663-.001 10.587 7.477 7.478 8.531 9.335 12.435 9.335 6.608 0 10.023-8.049 5.294-12.779l-7.141-7.142c-2.924-2.923-7.664-2.924-10.587-.001z"/><path d="m327.938 372.43c-5.729-3.307-22.797-13.162-57.052-32.938-3.582-2.067-8.16-.841-10.226 2.74-2.067 3.58-.84 8.159 2.74 10.226l9.941 5.74-45.55 78.895c-.791 1.371-1.128 2.958-.961 4.533l2.504 23.61c.539 5.081 5.877 8.098 10.482 6.052l21.699-9.636c1.447-.642 2.653-1.727 3.445-3.099l45.551-78.895 9.94 5.739c1.179.68 2.466 1.004 3.736 1.004 2.587 0 5.104-1.342 6.49-3.744 2.068-3.582.841-8.16-2.739-10.227zm-74.725 76.525-10.074 4.474-1.163-10.962 44.331-76.785 11.237 6.488z"/><path d="m49.816 130.574 9.941-5.74 45.551 78.896c.791 1.371 1.997 2.456 3.445 3.099l21.698 9.635c4.622 2.053 9.946-.992 10.482-6.051l2.506-23.609c.168-1.575-.17-3.162-.961-4.534l-16.526-28.623c-2.068-3.581-6.648-4.806-10.226-2.74-3.58 2.067-4.807 6.646-2.74 10.226l15.307 26.513-1.164 10.962-10.074-4.474-44.332-76.785c4.066-2.348 7.171-4.14 11.237-6.488l14.053 24.34c2.067 3.58 6.648 4.806 10.226 2.74 3.58-2.067 4.807-6.646 2.74-10.226l-14.053-24.34 9.941-5.74c3.58-2.067 4.807-6.646 2.74-10.226-2.066-3.581-6.648-4.806-10.226-2.74-11.177 6.453-46.029 26.575-57.051 32.938-3.58 2.067-4.807 6.646-2.74 10.226 2.067 3.583 6.648 4.807 10.226 2.741z"/><path d="m383.438 281.81 9.941-5.74c3.58-2.067 4.807-6.646 2.74-10.226-2.068-3.581-6.648-4.805-10.226-2.74-6.018 3.475-50.144 28.951-57.051 32.938-3.58 2.067-4.807 6.646-2.74 10.226 1.387 2.402 3.903 3.744 6.49 3.744 1.27 0 2.558-.324 3.736-1.004l9.94-5.739 45.551 78.895c.791 1.371 1.998 2.456 3.445 3.099 23.666 10.509 22.577 10.279 24.736 10.279 3.827 0 7.041-2.891 7.444-6.695l2.506-23.608c.168-1.575-.17-3.162-.961-4.534zm30.204 95.232-10.074-4.473-44.332-76.785 11.237-6.488 44.333 76.785z"/></g></g></svg>