<svg xmlns="http://www.w3.org/2000/svg" viewBox="0 0 530.62 518.89"><defs><style>.cls-1{fill:#fff;}</style></defs><g id="OBJECTS"><path class="cls-1" d="M252.32,489.19a7.28,7.28,0,0,1-6.43-10.71l30.21-56.72L232.28,409a7.29,7.29,0,0,1-3.8-11.34L255,362c-24.22,1.28-54.49,2.84-85.67,4.44-4.81.25-9.58.37-14.18.38C91,366.77,54.46,343.34,49.39,299c-5.33-46.68-12.93-143.33-14.31-196.23C33.75,53.6,74.93,43.08,119.62,39c33.49-3,154.16-8.09,219-10.8,12.83-.54,23.31-1,30.28-1.29,2.83-.12,5.57-.19,8.23-.19,38.14,0,56.75,13.48,62.23,45.06l2.84,16.35c9.21,52.82,33.66,153,36.68,193.54,3.26,43.34-17.26,56.83-49.06,63.74-20.26,4.4-71,9.26-99.48,11.77L303,381.15l31.43,21.4a7.27,7.27,0,0,1,.89,11.33l-78,73.33A7.29,7.29,0,0,1,252.32,489.19Z"/><path class="cls-1" d="M488.07,281.09c1.87,35.52-11,62.17-46.21,72.74-33.27,10-70.59,10.71-105,13.82-5.76.52-8.28,8-1.05,7.31,39.17-3.54,81.75-4.32,119-18.11,33.51-12.39,45.65-42.81,43.86-76.68-.28-5.34-10.89-3.48-10.66.92Z"/><path class="cls-1" d="M257.9,427.32l-56.79-16.59,1.29,4.81,26.81-36c2.39-3.2-.62-5.22-3.85-5.06-53.18,2.77-122,14.41-163.76-27.76C36.26,321.1,38,280.63,35.11,247.41q-3.51-39.72-6.05-79.52c-1.7-26-5.22-53.48-2.52-79.48,4.79-46.16,53.12-56.76,91.24-60.23,5.75-.52,8.28-8,1-7.31C83,24.13,43.06,31.69,23.45,65.34,10.09,88.24,15.56,118.9,16.91,144c1.72,32.06,4.1,64.08,6.77,96.08,3.25,38.86,1,83.64,30.43,113.38,42.69,43.15,116.23,31.11,170.2,28.3l-3.85-5.06-26.82,36c-1.37,1.84-1.22,4.07,1.29,4.81l56.8,16.59c4.27,1.24,12.48-5,6.17-6.81Z"/></g></svg>