<svg id="Layer_1" enable-background="new 0 0 512 512" height="512" viewBox="0 0 512 512" width="512" xmlns="http://www.w3.org/2000/svg"><g><path d="m386.02 285.97v-60h-20.67c-2.52-9.21-6.18-17.96-10.81-26.09l14.61-14.61-42.42-42.43-14.62 14.62c-8.12-4.63-16.87-8.29-26.09-10.82v-20.66h-60v20.66c-9.22 2.53-17.97 6.19-26.09 10.82l-14.62-14.62-42.42 42.43 14.62 14.61c-4.64 8.13-8.29 16.88-10.82 26.09h-20.66v60h20.66c2.53 9.22 6.18 17.97 10.82 26.09l-14.62 14.62 42.42 42.42 14.62-14.62c8.12 4.64 16.87 8.3 26.09 10.82v20.66h60v-20.66c9.22-2.52 17.97-6.18 26.09-10.82l14.62 14.62 42.42-42.42-14.61-14.62c4.63-8.12 8.29-16.87 10.81-26.09zm-130 19.68c-27.43 0-49.67-22.24-49.67-49.68 0-27.43 22.24-49.67 49.67-49.67 27.44 0 49.68 22.24 49.68 49.67 0 27.44-22.24 49.68-49.68 49.68z" fill="#6b717d"/><path d="m365.35 285.97c-2.52 9.22-6.18 17.97-10.81 26.09l14.61 14.62-42.42 42.42-14.62-14.62c-8.12 4.64-16.87 8.3-26.09 10.82v20.66h-18.39v-17.54c0-8.04 5.15-15.21 12.8-17.68 40.02-12.91 69.06-50.51 69.06-94.77s-29.03-81.86-69.05-94.76c-7.66-2.47-12.81-9.64-12.81-17.68v-17.55h18.39v20.66c9.22 2.53 17.97 6.19 26.09 10.82l14.62-14.62 42.42 42.43-14.61 14.61c4.63 8.13 8.29 16.88 10.81 26.09h20.67v60z" fill="#47505e"/><path d="m256.02 186.46c-38.39 0-69.52 31.12-69.52 69.51 0 38.4 31.13 69.52 69.52 69.52 38.4 0 69.52-31.12 69.52-69.52 0-38.39-31.12-69.51-69.52-69.51zm0 106.16c-20.24 0-36.65-16.41-36.65-36.65s16.41-36.65 36.65-36.65 36.65 16.41 36.65 36.65-16.41 36.65-36.65 36.65z" fill="#e3eaee"/><g><path d="m383.875 7.5h120.625v120.623h-120.625z" fill="#f3d6ae"/><path d="m473.826 7.5h30.674v120.623h-30.674z" fill="#edba75"/><path d="m422.058 7.5v54.257l22.129-9.999 22.13 9.999v-54.257z" fill="#ff6c6c"/></g><g><path d="m383.875 383.877h120.625v120.623h-120.625z" fill="#f3d6ae"/><path d="m473.826 383.877h30.674v120.623h-30.674z" fill="#edba75"/><path d="m422.058 383.877v54.258l22.129-10 22.13 10v-54.258z" fill="#ff6c6c"/></g><g><path d="m7.5 383.877h120.625v120.623h-120.625z" fill="#f3d6ae"/><path d="m97.451 383.877h30.674v120.623h-30.674z" fill="#edba75"/><path d="m45.683 383.877v54.258l22.13-10 22.129 10v-54.258z" fill="#ff6c6c"/></g><g><path d="m7.5 7.5h120.625v120.623h-120.625z" fill="#f3d6ae"/><path d="m97.451 7.5h30.674v120.623h-30.674z" fill="#edba75"/><path d="m45.683 7.5v54.257l22.13-9.999 22.129 9.999v-54.257z" fill="#ff6c6c"/></g></g><g><path d="m374.458 321.375-10.672-10.671c2.825-5.553 5.215-11.318 7.145-17.233h15.085c4.142 0 7.5-3.358 7.5-7.5v-59.996c0-4.142-3.358-7.5-7.5-7.5h-15.085c-1.93-5.915-4.32-11.68-7.145-17.233l10.672-10.671c2.905-2.792 2.905-7.814 0-10.606l-42.425-42.424c-2.929-2.929-7.678-2.929-10.606 0l-10.672 10.671c-5.554-2.825-11.319-5.215-17.234-7.145v-15.085c0-4.142-3.358-7.5-7.5-7.5h-59.997c-4.142 0-7.5 3.358-7.5 7.5v15.085c-5.916 1.93-11.68 4.32-17.234 7.145l-10.672-10.671c-2.929-2.929-7.678-2.929-10.606 0l-42.425 42.424c-2.905 2.792-2.905 7.814 0 10.606l10.672 10.671c-2.825 5.553-5.215 11.318-7.145 17.233h-15.085c-4.142 0-7.5 3.358-7.5 7.5v59.996c0 4.142 3.358 7.5 7.5 7.5h15.085c1.93 5.915 4.32 11.68 7.145 17.233l-10.672 10.671c-2.905 2.792-2.905 7.814 0 10.606l42.425 42.424c2.929 2.929 7.678 2.929 10.606 0l10.672-10.671c5.553 2.825 11.318 5.215 17.234 7.145v15.085c0 4.142 3.358 7.5 7.5 7.5h59.997c4.142 0 7.5-3.358 7.5-7.5v-15.085c5.915-1.93 11.681-4.32 17.234-7.145l10.672 10.671c2.929 2.929 7.678 2.929 10.606 0l42.425-42.424c2.905-2.791 2.905-7.813 0-10.606zm-25.225-4.011 9.315 9.315-31.818 31.817-9.315-9.315c-2.39-2.391-6.084-2.886-9.02-1.211-7.667 4.374-15.86 7.771-24.354 10.096-3.259.893-5.52 3.854-5.52 7.234v13.164h-44.997v-13.164c0-3.379-2.26-6.341-5.52-7.234-8.494-2.325-16.688-5.722-24.354-10.096-2.936-1.675-6.629-1.18-9.02 1.211l-9.315 9.315-31.818-31.817 9.315-9.315c2.39-2.39 2.886-6.084 1.211-9.02-4.375-7.667-7.771-15.86-10.097-24.354-.893-3.259-3.854-5.52-7.234-5.52h-13.164v-44.996h13.164c3.379 0 6.341-2.26 7.234-5.52 2.325-8.493 5.722-16.687 10.097-24.354 1.675-2.936 1.179-6.63-1.211-9.02l-9.315-9.315 31.818-31.817 9.315 9.315c2.391 2.39 6.085 2.887 9.02 1.211 7.667-4.375 15.861-7.771 24.354-10.096 3.26-.892 5.52-3.854 5.52-7.234v-13.164h44.997v13.164c0 3.379 2.26 6.342 5.52 7.234 8.492 2.324 16.686 5.721 24.354 10.096 2.936 1.676 6.63 1.179 9.02-1.211l9.315-9.315 31.818 31.817-9.315 9.315c-2.39 2.39-2.886 6.084-1.211 9.02 4.375 7.667 7.771 15.86 10.097 24.354.893 3.259 3.854 5.52 7.234 5.52h13.164v44.996h-13.164c-3.379 0-6.341 2.26-7.234 5.52-2.325 8.493-5.722 16.687-10.097 24.354-1.675 2.936-1.179 6.63 1.211 9.02z"/><path d="m256.022 178.955c-9.548 0-18.871 1.729-27.709 5.137-3.865 1.49-5.79 5.832-4.299 9.696 1.491 3.865 5.833 5.789 9.696 4.299 39.679-15.928 84.944 15.061 84.33 57.886-3.117 82.155-120.928 82.144-124.037-.001 0-15.658 5.851-30.608 16.475-42.095 2.812-3.041 2.627-7.786-.414-10.599-3.042-2.812-7.786-2.627-10.599.414-45.473 48.395-9.91 129.759 56.557 129.297 102.032-3.868 102.011-150.177 0-154.034z"/><path d="m279.088 285.421c3.155 2.684 7.888 2.303 10.572-.852 24.322-28.144 3.608-73.021-33.639-72.746-24.344 0-44.15 19.805-44.15 44.15s19.806 44.15 44.15 44.15c4.142 0 7.5-3.358 7.5-7.5s-3.358-7.5-7.5-7.5c-16.074 0-29.15-13.077-29.15-29.15s13.077-29.15 29.15-29.15c24.589-.178 38.268 29.445 22.214 48.026-2.683 3.154-2.301 7.888.853 10.572z"/><path d="m7.5 135.623h120.625c4.142 0 7.5-3.358 7.5-7.5v-120.623c0-4.142-3.358-7.5-7.5-7.5h-120.625c-4.142 0-7.5 3.358-7.5 7.5v34.326c.307 9.916 14.696 9.909 15 0v-26.826h23.183v46.757c0 2.547 1.292 4.92 3.433 6.301 2.141 1.382 4.834 1.582 7.156.533l19.041-8.604 19.041 8.604c2.314 1.046 5.012.851 7.156-.533 2.14-1.381 3.433-3.754 3.433-6.301v-46.757h23.183v105.623h-105.626v-43.623c-.307-9.916-14.696-9.909-15 0v51.123c0 4.142 3.358 7.5 7.5 7.5zm74.942-85.485-11.541-5.214c-1.964-.888-4.213-.888-6.177 0l-11.541 5.214v-35.138h29.259z"/><path d="m89.942 101.342c9.916-.307 9.909-14.696 0-15h-44.259c-9.916.307-9.909 14.696 0 15z"/><path d="m504.5 0h-120.625c-4.142 0-7.5 3.358-7.5 7.5v120.623c0 4.142 3.358 7.5 7.5 7.5h120.625c4.142 0 7.5-3.358 7.5-7.5v-120.623c0-4.142-3.358-7.5-7.5-7.5zm-74.942 15h29.259v35.138l-11.541-5.214c-1.964-.888-4.213-.888-6.177 0l-11.541 5.214zm67.442 105.623h-105.625v-105.623h23.183v46.757c0 2.547 1.292 4.92 3.433 6.301 2.141 1.382 4.834 1.582 7.156.533l19.041-8.604 19.041 8.604c2.314 1.046 5.012.851 7.156-.533 2.14-1.381 3.433-3.754 3.433-6.301v-46.757h23.182z"/><path d="m466.317 86.342h-44.259c-9.916.307-9.909 14.696 0 15h44.259c9.916-.307 9.909-14.696 0-15z"/><path d="m128.125 376.377h-120.625c-4.142 0-7.5 3.358-7.5 7.5v120.623c0 4.142 3.358 7.5 7.5 7.5h120.625c4.142 0 7.5-3.358 7.5-7.5v-120.623c0-4.142-3.358-7.5-7.5-7.5zm-74.942 15h29.259v35.138l-11.541-5.215c-1.964-.888-4.213-.888-6.177 0l-11.541 5.215zm67.442 105.623h-105.625v-105.623h23.183v46.757c0 2.547 1.292 4.92 3.433 6.301 2.141 1.382 4.834 1.583 7.156.533l19.041-8.604 19.041 8.604c2.314 1.047 5.012.851 7.156-.533 2.14-1.381 3.433-3.754 3.433-6.301v-46.757h23.183v105.623z"/><path d="m89.942 462.72h-44.259c-9.916.307-9.909 14.696 0 15h44.259c9.916-.308 9.909-14.696 0-15z"/><path d="m504.5 376.377h-120.625c-4.142 0-7.5 3.358-7.5 7.5v120.623c0 4.142 3.358 7.5 7.5 7.5h27.734c9.916-.307 9.909-14.696 0-15h-20.234v-105.623h23.183v46.757c0 2.547 1.292 4.92 3.433 6.301 2.141 1.382 4.834 1.583 7.156.533l19.041-8.604 19.041 8.604c2.314 1.047 5.012.851 7.156-.533 2.14-1.381 3.433-3.754 3.433-6.301v-46.757h23.182v105.623h-50.783c-9.916.307-9.909 14.696 0 15h58.283c4.142 0 7.5-3.358 7.5-7.5v-120.623c0-4.142-3.358-7.5-7.5-7.5zm-45.683 50.139-11.541-5.215c-1.964-.888-4.213-.888-6.177 0l-11.541 5.215v-35.138h29.259z"/><path d="m473.817 470.22c0-4.142-3.358-7.5-7.5-7.5h-44.259c-9.916.307-9.909 14.696 0 15h44.259c4.142 0 7.5-3.358 7.5-7.5z"/><path d="m445.417 349.262c3.948.874 8.053-1.693 8.899-5.771 12.233-57.154 12.233-117.883 0-175.037-.863-4.051-4.846-6.638-8.899-5.771-4.051.864-6.635 4.848-5.771 8.899 11.794 55.099 11.794 113.682 0 168.781-.863 4.052 1.721 8.035 5.771 8.899z"/><path d="m66.583 162.683c-4.055-.868-8.036 1.721-8.899 5.771-12.233 57.154-12.233 117.883 0 175.037.846 4.079 4.951 6.645 8.899 5.771 4.051-.864 6.635-4.848 5.771-8.899-11.794-55.099-11.794-113.682 0-168.781.863-4.051-1.721-8.035-5.771-8.899z"/><path d="m171.608 72.33c55.118-11.75 113.666-11.75 168.784 0 3.948.874 8.053-1.692 8.899-5.771.864-4.051-1.72-8.036-5.771-8.899-57.172-12.188-117.868-12.188-175.04 0-4.051.863-6.635 4.848-5.771 8.899.863 4.049 4.841 6.632 8.899 5.771z"/><path d="m340.392 439.615c-55.117 11.751-113.667 11.751-168.784 0-4.052-.866-8.036 1.72-8.899 5.771-.864 4.051 1.72 8.035 5.771 8.899 57.151 12.233 117.889 12.233 175.04 0 4.051-.864 6.635-4.848 5.771-8.899-.863-4.05-4.849-6.635-8.899-5.771z"/></g></svg>