<svg id="Layer_1" enable-background="new 0 0 511.869 511.869" height="512" viewBox="0 0 511.869 511.869" width="512" xmlns="http://www.w3.org/2000/svg"><g><path d="m7.434 46.441h497v32.24h-497z" fill="#e3eaee"/><path d="m474.434 46.441h30v32.24h-30z" fill="#ced9e1"/><path d="m37.434 377.268h437v60h-437z" fill="#47505e"/><g fill="#e3eaee"><circle cx="37.434" cy="407.268" r="30"/><circle cx="144.905" cy="407.268" r="30"/><circle cx="255.934" cy="407.268" r="30"/><circle cx="366.964" cy="407.268" r="30"/><circle cx="474.434" cy="407.268" r="30"/></g><g><path d="m37.434 437.268h437v67.043h-437z" fill="#e3eaee"/><path d="m444.434 437.268h30v67.043h-30z" fill="#ced9e1"/></g><g><path d="m75.082 253.774h93.496v93.494h-93.496z" fill="#f3d6ae"/><path d="m138.982 253.774h29.596v93.494h-29.596z" fill="#edba75"/><path d="m104.677 253.774v46.054l17.152-7.75 17.153 7.75v-46.054z" fill="#ff6c6c"/></g><g><path d="m209.187 253.774h93.496v93.494h-93.496z" fill="#f3d6ae"/><path d="m273.087 253.774h29.596v93.494h-29.596z" fill="#edba75"/><path d="m238.782 253.774v46.054l17.152-7.75 17.153 7.75v-46.054z" fill="#ff6c6c"/></g><g><path d="m343.291 253.774h93.496v93.494h-93.496z" fill="#f3d6ae"/><path d="m407.192 253.774h29.596v93.494h-29.596z" fill="#edba75"/><path d="m372.887 253.774v46.054l17.152-7.75 17.153 7.75v-46.054z" fill="#ff6c6c"/></g><circle cx="255.934" cy="181.985" fill="#6b717d" r="24"/><path d="m311.544 62.561c0 30.51-24.73 55.25-55.25 55.25-5.2 0-10.23-.72-15-2.06-23.22-6.54-40.25-27.88-40.25-53.19s17.03-46.65 40.25-53.19c4.77-1.34 9.8-2.06 15-2.06 30.52 0 55.25 24.74 55.25 55.25z" fill="#6b717d"/><path d="m311.544 62.561c0 30.51-24.73 55.25-55.25 55.25-5.2 0-10.23-.72-15-2.06 23.23-6.54 40.25-27.88 40.25-53.19s-17.02-46.65-40.25-53.19c4.77-1.34 9.8-2.06 15-2.06 30.52 0 55.25 24.74 55.25 55.25z" fill="#47505e"/></g><g><path d="m474.434 369.768h-437c-45.237 1.158-51.172 64.335-7.5 74.246v60.297c0 4.142 3.358 7.5 7.5 7.5h40.021c9.916-.307 9.909-14.696 0-15h-32.521v-52.043h422v52.043h-354.304c-9.916.307-9.909 14.696 0 15h361.805c4.142 0 7.5-3.358 7.5-7.5v-60.297c43.702-9.93 37.703-73.102-7.501-74.246zm-437 60c-12.407 0-22.5-10.093-22.5-22.5 1.131-29.808 43.874-29.8 45 0 0 12.407-10.093 22.5-22.5 22.5zm77.488 0h-47.506c9.923-12.493 9.921-32.508 0-45h47.506c-9.922 12.493-9.921 32.508 0 45zm29.982 0c-12.407 0-22.5-10.093-22.5-22.5 1.131-29.808 43.874-29.8 45 0 0 12.407-10.093 22.5-22.5 22.5zm81.049 0h-51.067c9.923-12.493 9.921-32.508 0-45h51.067c-9.923 12.493-9.922 32.508 0 45zm29.981 0c-12.407 0-22.5-10.093-22.5-22.5 1.131-29.808 43.874-29.8 45 0 0 12.407-10.093 22.5-22.5 22.5zm81.048 0h-51.066c9.923-12.493 9.921-32.508 0-45h51.066c-9.922 12.493-9.921 32.508 0 45zm29.982 0c-12.407 0-22.5-10.093-22.5-22.5 1.131-29.808 43.874-29.8 45 0 0 12.407-10.093 22.5-22.5 22.5zm77.489 0h-47.507c9.923-12.493 9.921-32.508 0-45h47.507c-9.923 12.493-9.922 32.508 0 45zm29.981 0c-12.407 0-22.5-10.093-22.5-22.5 1.131-29.808 43.874-29.8 45 0 0 12.407-10.093 22.5-22.5 22.5z"/><path d="m504.434 71.181h-185.978c.785-5.614.785-11.625 0-17.239h185.979c9.916-.307 9.909-14.696 0-15h-190.003c-21.041-51.862-95.252-51.831-116.272 0h-190.726c-9.916.307-9.909 14.696 0 15h186.701c-.784 5.63-.787 11.588.002 17.239h-186.703c-9.916.307-9.909 14.696 0 15h190.717c2.714 6.682 6.586 12.899 11.504 18.36 6.865 7.163 17.552-2.471 11.146-10.038-27.583-30.149-5.415-79.984 35.495-79.692 26.329 0 47.749 21.42 47.749 47.75.407 30.536-29.712 54.013-59.209 46.368-4.019-.987-8.085 1.468-9.075 5.49s1.468 8.085 5.49 9.075c2.478.61 4.999 1.067 7.543 1.371v26.436c-11.595 2.697-20.753 11.815-23.508 23.388-25.827 1.586-49.886 12.402-68.341 30.857-2.929 2.929-2.929 7.678 0 10.606 2.929 2.929 7.678 2.929 10.606 0 15.646-15.646 35.984-24.896 57.841-26.437 8.306 31.503 52.787 31.482 61.08 0 21.857 1.541 42.195 10.791 57.841 26.437 2.929 2.929 7.678 2.929 10.606 0 2.929-2.929 2.929-7.678 0-10.606-18.455-18.455-42.515-29.271-68.341-30.857-2.697-11.331-11.533-20.31-22.785-23.211v-26.613c22.984-2.75 42.19-17.972 50.636-38.685h190.003c9.919-.306 9.912-14.695.002-14.999zm-232.065 109.333c-.192.946-.192 1.998 0 2.944-2.284 19.907-30.595 19.891-32.87-.002.192-.945.192-1.995 0-2.94 2.282-19.908 30.594-19.895 32.87-.002z"/><path d="m302.682 354.768c4.142 0 7.5-3.358 7.5-7.5v-93.494c0-4.142-3.358-7.5-7.5-7.5h-93.496c-4.142 0-7.5 3.358-7.5 7.5v93.494c0 4.142 3.358 7.5 7.5 7.5zm-56.4-93.494h19.305v26.936l-6.564-2.966c-1.964-.888-4.214-.888-6.177 0l-6.564 2.966zm-29.596 0h14.595v38.555c0 2.547 1.292 4.92 3.433 6.301 2.141 1.382 4.836 1.583 7.156.533l14.064-6.355 14.064 6.355c2.314 1.047 5.012.851 7.156-.533 2.14-1.381 3.433-3.754 3.433-6.301v-38.555h14.595v78.494h-78.496z"/><path d="m168.577 354.768c4.142 0 7.5-3.358 7.5-7.5v-93.494c0-4.142-3.358-7.5-7.5-7.5h-93.496c-4.142 0-7.5 3.358-7.5 7.5v93.494c0 4.142 3.358 7.5 7.5 7.5zm-56.4-93.494h19.305v26.936l-6.564-2.966c-1.964-.888-4.214-.888-6.177 0l-6.564 2.966zm-29.596 0h14.595v38.555c0 2.547 1.292 4.92 3.433 6.301 2.141 1.382 4.835 1.583 7.156.533l14.064-6.355 14.064 6.355c2.314 1.047 5.012.851 7.156-.533 2.14-1.381 3.433-3.754 3.433-6.301v-38.555h14.595v78.494h-78.496z"/><path d="m407.257 339.768c-9.916.307-9.909 14.696 0 15h29.53c4.142 0 7.5-3.358 7.5-7.5v-93.494c0-4.142-3.358-7.5-7.5-7.5h-93.496c-4.142 0-7.5 3.358-7.5 7.5v93.494c0 4.142 3.358 7.5 7.5 7.5h29.53c9.916-.307 9.909-14.696 0-15h-22.03v-78.494h14.595v38.555c0 2.547 1.292 4.92 3.433 6.301 2.144 1.384 4.841 1.58 7.156.533l14.064-6.355 14.064 6.355c2.321 1.049 5.017.849 7.156-.533 2.14-1.381 3.433-3.754 3.433-6.301v-38.555h14.595v78.494zm-7.565-51.558-6.564-2.966c-1.964-.888-4.213-.888-6.177 0l-6.564 2.966v-26.936h19.305z"/><path d="m37.434 399.767c-9.914.306-9.911 14.695 0 15 9.914-.306 9.912-14.696 0-15z"/><path d="m144.902 399.763c-9.914.306-9.911 14.695 0 15 9.914-.306 9.912-14.695 0-15z"/><path d="m255.933 399.763c-9.914.306-9.911 14.695 0 15 9.913-.306 9.911-14.695 0-15z"/><path d="m366.962 399.773c-9.914.306-9.911 14.695 0 15 9.914-.306 9.912-14.695 0-15z"/><path d="m474.433 399.773c-9.914.306-9.911 14.695 0 15 9.913-.306 9.911-14.695 0-15z"/></g></svg>