<svg id="Layer_1" enable-background="new 0 0 511.98 511.98" height="512" viewBox="0 0 511.98 511.98" width="512" xmlns="http://www.w3.org/2000/svg"><g><path d="m434.49 470.22v34.26h-357v-34.26c0-20.87 16.92-37.78 37.78-37.78h281.44c20.86 0 37.78 16.91 37.78 37.78z" fill="#72bbff"/><path d="m434.49 470.22v34.26h-30v-34.26c0-20.87-16.92-37.78-37.78-37.78h30c20.86 0 37.78 16.91 37.78 37.78z" fill="#009af6"/><path d="m115.99 398.153h280v34.283h-280z" fill="#6b717d"/><path d="m341.38 398.149h-170.78l16.5-58.4c2.07-7.32 8.75-12.38 16.37-12.38h105.04c7.62 0 14.3 5.06 16.37 12.38z" fill="#e3eaee"/><path d="m341.38 398.149h-30l-20-70.78h17.13c7.62 0 14.3 5.06 16.37 12.38z" fill="#ced9e1"/><g><g><circle cx="255.99" cy="327.371" fill="#6b717d" r="30"/></g><g><circle cx="145.99" cy="211.018" fill="#6b717d" r="30"/></g><g><circle cx="290.207" cy="37.48" fill="#6b717d" r="30"/></g></g><g fill="#e3eaee"><path d="m185.99 215.115h30v108.158h-30z" transform="matrix(.727 -.687 .687 .727 -129.997 211.657)"/><path d="m151.418 181.018 110.643-133.139 23.078 19.167-111.003 133.571z"/></g><path d="m347.827 22.48h-28.75v30h50v-8.75c0-11.737-9.514-21.25-21.25-21.25z" fill="#e3eaee"/><circle cx="369.077" cy="156.066" fill="#6b717d" r="24"/></g><g><path d="m464.49 496.98h-22.5v-26.761c0-22.664-16.737-41.492-38.5-44.775v-27.29c0-4.142-3.357-7.5-7.5-7.5h-48.935l-14.958-52.938c-2.968-10.506-12.666-17.844-23.584-17.844h-15.777c-3.613-18.522-21.663-32.108-41.008-29.759l-68.776-72.748c.855-4.887.679-10.262-.48-15.041l105.864-127.391c12.748.683 24.713-5.373 31.852-14.954h41.388v65.489c-11.424 2.8-20.42 11.849-23.146 23.301-25.827 1.586-49.886 12.402-68.342 30.857-2.929 2.929-2.929 7.678 0 10.606 2.93 2.929 7.677 2.929 10.607 0 15.646-15.646 35.984-24.896 57.841-26.437 8.306 31.503 52.787 31.482 61.08 0 21.857 1.541 42.194 10.791 57.84 26.437 2.93 2.929 7.677 2.929 10.607 0 2.929-2.929 2.929-7.678 0-10.606-18.456-18.456-42.515-29.271-68.341-30.857-2.726-11.452-11.723-20.501-23.146-23.301v-81.738c0-15.853-12.897-28.75-28.75-28.75h-27.638c-24.554-32.006-75.312-8.566-66.464 31.195l-20.294 24.42c-2.647 3.186-2.211 7.914.975 10.562 3.168 2.637 7.903 2.224 10.562-.975l15.997-19.249c3.15 3.92 7.07 7.195 11.529 9.594l-97.263 117.039c-3.15-3.92-7.071-7.195-11.53-9.595l60.432-72.718c2.647-3.186 2.211-7.914-.975-10.562-3.187-2.648-7.915-2.211-10.562.975l-64.736 77.898c-21.298-1.119-39.434 16.119-39.371 37.454-.148 22.192 19.747 39.907 41.762 37.259l67.685 71.594h-14.471c-10.918 0-20.616 7.338-23.584 17.843l-14.958 52.939h-48.932c-4.142 0-7.5 3.358-7.5 7.5v27.29c-21.763 3.283-38.5 22.111-38.5 44.775v26.761h-22.5c-9.916.307-9.909 14.696 0 15h63.109c9.916-.307 9.909-14.696 0-15h-25.609v-26.761c0-16.698 13.585-30.283 30.283-30.283h281.435c16.698 0 30.283 13.585 30.283 30.283v26.761h-281.654c-9.916.307-9.909 14.696 0 15h319.153c9.916-.306 9.909-14.696 0-14.999zm-78.913-340.914c0 9.098-7.402 16.5-16.5 16.5-21.859-.83-21.853-32.173 0-33 9.098 0 16.5 7.402 16.5 16.5zm-37.75-126.086c7.582 0 13.75 6.168 13.75 13.75v1.25h-34.624c1.001-4.819 1.001-10.181 0-15zm-57.62-15c12.406 0 22.5 10.093 22.5 22.5-1.131 29.808-43.873 29.8-45 0 0-12.407 10.094-22.5 22.5-22.5zm-11.717 312.391c0 12.407-10.094 22.5-22.5 22.5-29.808-1.131-29.8-43.873 0-45 12.406 0 22.5 10.093 22.5 22.5zm-155-116.353c0-12.407 10.093-22.5 22.5-22.5 29.809 1.131 29.801 43.873 0 45-12.407 0-22.5-10.094-22.5-22.5zm53.182 21.537 59.533 62.971c-4.286 2.673-7.995 6.186-10.897 10.307l-59.533-62.971c4.286-2.672 7.995-6.185 10.897-10.307zm-53.182 192.381v-19.283h152.63c9.916-.307 9.909-14.696 0-15h-95.608l13.806-48.86c1.151-4.076 4.913-6.922 9.148-6.922h15.778c8.69 39.756 64.818 39.729 73.493 0h15.777c4.235 0 7.997 2.846 9.148 6.922l13.806 48.86h-20.565c-9.916.307-9.909 14.696 0 15h77.588v19.283z"/><g><path d="m255.986 319.869c-9.914.306-9.911 14.695 0 15 9.914-.306 9.911-14.696 0-15z"/><path d="m145.986 203.519c-9.914.306-9.911 14.695 0 15 9.914-.307 9.911-14.696 0-15z"/><path d="m290.206 29.979c-9.914.306-9.911 14.695 0 15 9.913-.307 9.911-14.696 0-15z"/></g></g></svg>