<svg id="Layer_1" enable-background="new 0 0 512 512" height="512" viewBox="0 0 512 512" width="512" xmlns="http://www.w3.org/2000/svg"><g><path d="m504.5 152.89v76.85h-72.6c0-24.78-20.09-44.87-44.87-44.87s-44.87 20.09-44.87 44.87h-172.32c0-24.78-20.09-44.87-44.87-44.87s-44.87 20.09-44.87 44.87h-72.6v-76.85c0-11.87 8.42-22.08 20.09-24.34l83.41-16.12 34.51-90.54c3.31-8.66 11.62-14.39 20.9-14.39h179.18c9.28 0 17.59 5.73 20.9 14.39l34.51 90.54 4.5.87 51.91 10.03 27 5.22c11.67 2.26 20.09 12.47 20.09 24.34z" fill="#ff6c6c"/><path d="m405.5 113.3h-37l-34.51-90.54c-2.3-6.02-7.56-12.11-13.68-15.26h25.28c9.28 0 17.59 5.73 20.9 14.39l34.51 90.54z" fill="#ff4141"/><path d="m504.5 152.89v76.85h-30v-82.85c0-10.82-7-20.27-17.09-23.56l27 5.22c11.67 2.26 20.09 12.47 20.09 24.34z" fill="#ff4141"/><g><path d="m37.5 377.457h437v60h-437z" fill="#47505e"/><g fill="#e3eaee"><circle cx="37.5" cy="407.457" r="30"/><circle cx="144.97" cy="407.457" r="30"/><circle cx="256" cy="407.457" r="30"/><circle cx="367.03" cy="407.457" r="30"/><circle cx="474.5" cy="407.457" r="30"/></g><g><path d="m37.5 437.457h437v67.043h-437z" fill="#e3eaee"/><path d="m444.5 437.457h30v67.043h-30z" fill="#ced9e1"/></g></g><g fill="#fff"><g><circle cx="387.03" cy="307.391" r="38.348"/><circle cx="124.97" cy="307.391" r="38.348"/></g><g><path d="m241 113.304h127.5l-29-75.652h-98.5z"/><path d="m211 37.652h-38.5l-29 75.652h67.5z"/></g></g></g><g><path d="m94.122 307.391c-.297-9.91-14.7-9.912-15 0 2.301 60.735 89.4 60.727 91.696-.001.274-39.128-47.246-60.471-76.273-34.298-3.098 2.75-3.38 7.49-.631 10.588 2.75 3.098 7.489 3.38 10.588.631 19.53-17.606 51.505-3.244 51.316 23.08-1.549 40.867-60.151 40.858-61.696 0z"/><path d="m432.878 307.391c0-25.28-20.567-45.848-45.848-45.848-60.74 2.305-60.723 89.4.001 91.696 25.28 0 45.847-20.567 45.847-45.848zm-76.695 0c0-17.009 13.838-30.848 30.848-30.848 40.868 1.551 40.856 60.151 0 61.696-17.01 0-30.848-13.838-30.848-30.848z"/><path d="m485.836 121.189-79.314-15.327-33.026-86.64c-4.383-11.497-15.596-19.222-27.901-19.222h-42.769c-9.916.307-9.909 14.696 0 15h42.769c6.124 0 11.703 3.844 13.885 9.566l34.513 90.54c.924 2.425 3.037 4.2 5.585 4.692l83.413 16.119c8.118 1.568 14.01 8.708 14.01 16.977v2.998h-20.435c-9.916.307-9.909 14.696 0 15h20.434v51.348h-58.136c-9.779-59.45-93.913-59.407-103.669 0h-83.761c-9.916.307-9.909 14.696 0 15h90.726c4.143 0 7.5-3.358 7.5-7.5 0-20.605 16.765-37.37 37.37-37.37s37.369 16.764 37.369 37.37c0 4.142 3.357 7.5 7.5 7.5h72.601c4.143 0 7.5-3.358 7.5-7.5v-76.846c0-15.442-11.004-28.775-26.164-31.705z"/><path d="m7.5 237.239h72.601c4.143 0 7.5-3.358 7.5-7.5 0-20.605 16.765-37.37 37.37-37.37s37.369 16.764 37.369 37.37c0 4.142 3.357 7.5 7.5 7.5h46.421c9.916-.307 9.909-14.696 0-15h-39.456c-9.778-59.45-93.912-59.407-103.669 0h-58.136v-51.348h20.435c9.916-.307 9.909-14.696 0-15h-20.435v-2.998c0-8.269 5.892-15.408 14.01-16.977l83.413-16.119c2.548-.492 4.661-2.267 5.585-4.692l34.513-90.54c2.182-5.722 7.762-9.566 13.885-9.566h102.247c9.916-.307 9.909-14.696 0-15h-102.248c-12.305 0-23.517 7.725-27.9 19.223l-33.026 86.64-79.314 15.327c-15.161 2.93-26.165 16.263-26.165 31.705v76.846c0 4.141 3.357 7.499 7.5 7.499z"/><path d="m374.68 117.554c1.399-2.035 1.707-4.628.823-6.934l-29-75.652c-1.111-2.9-3.896-4.815-7.003-4.815h-98.5c-4.143 0-7.5 3.358-7.5 7.5v75.652c0 4.142 3.357 7.5 7.5 7.5h127.5c2.47-.001 4.78-1.217 6.18-3.251zm-126.18-11.75v-60.652h85.843l23.25 60.652z"/><path d="m172.5 30.152c-3.106 0-5.892 1.915-7.003 4.815l-29 75.652c-1.959 4.709 1.905 10.328 7.003 10.185h67.5c4.143 0 7.5-3.358 7.5-7.5v-75.652c0-4.142-3.357-7.5-7.5-7.5zm31 75.652h-49.093l23.25-60.652h25.843z"/><path d="m241 135.63c-9.916.307-9.909 14.696 0 15h27.652c9.916-.307 9.909-14.696 0-15z"/><path d="m474.5 369.957h-437c-45.237 1.158-51.172 64.335-7.5 74.246v60.297c0 4.142 3.358 7.5 7.5 7.5h40.021c9.916-.307 9.909-14.696 0-15h-32.521v-52.043h422v52.043h-354.305c-9.916.307-9.909 14.696 0 15h361.805c4.142 0 7.5-3.358 7.5-7.5v-60.297c43.703-9.931 37.704-73.102-7.5-74.246zm-437 60c-12.407 0-22.5-10.093-22.5-22.5 1.131-29.808 43.874-29.8 45 0 0 12.406-10.093 22.5-22.5 22.5zm77.488 0h-47.506c9.923-12.493 9.921-32.508 0-45h47.506c-9.923 12.493-9.922 32.508 0 45zm29.982 0c-12.407 0-22.5-10.093-22.5-22.5 1.131-29.808 43.874-29.8 45 0 0 12.406-10.094 22.5-22.5 22.5zm81.048 0h-51.067c9.923-12.493 9.921-32.508 0-45h51.067c-9.922 12.493-9.921 32.508 0 45zm29.982 0c-12.407 0-22.5-10.093-22.5-22.5 1.131-29.808 43.874-29.8 45 0 0 12.406-10.093 22.5-22.5 22.5zm81.048 0h-51.066c9.923-12.493 9.921-32.508 0-45h51.066c-9.923 12.493-9.922 32.508 0 45zm29.982 0c-12.407 0-22.5-10.093-22.5-22.5 1.131-29.808 43.874-29.8 45 0 0 12.406-10.093 22.5-22.5 22.5zm77.488 0h-47.507c9.923-12.493 9.921-32.508 0-45h47.507c-9.923 12.493-9.921 32.508 0 45zm29.982 0c-12.407 0-22.5-10.093-22.5-22.5 1.131-29.808 43.874-29.8 45 0 0 12.406-10.093 22.5-22.5 22.5z"/><path d="m37.5 399.956c-9.914.306-9.911 14.695 0 15 9.914-.307 9.911-14.696 0-15z"/><path d="m144.968 399.952c-9.914.306-9.911 14.695 0 15 9.913-.307 9.911-14.696 0-15z"/><path d="m255.998 399.952c-9.914.306-9.911 14.695 0 15 9.914-.307 9.911-14.696 0-15z"/><path d="m367.028 399.962c-9.914.306-9.911 14.695 0 15 9.913-.306 9.911-14.695 0-15z"/><path d="m474.498 399.962c-9.914.306-9.911 14.695 0 15 9.914-.306 9.911-14.695 0-15z"/><path d="m132.469 307.394c-.306-9.914-14.695-9.911-15 0 .306 9.913 14.695 9.911 15 0z"/><path d="m394.529 307.394c-.306-9.914-14.695-9.911-15 0 .307 9.913 14.696 9.911 15 0z"/></g></svg>