<svg id="Layer_1" enable-background="new 0 0 511.934 511.934" height="512" viewBox="0 0 511.934 511.934" width="512" xmlns="http://www.w3.org/2000/svg"><g><path d="m338.467 80.454h-165l-82.5 142.89 82.5 142.89h45.8v7.09c0 14.92 8.91 27.76 21.69 33.49 4.58 2.06 9.66 3.2 15.01 3.2 10.14 0 19.31-4.11 25.95-10.75s10.75-15.81 10.75-25.94v-7.09h45.8l82.5-142.89zm-110.5 142.89c0-15.47 12.54-28 28-28s28 12.53 28 28c0 15.46-12.54 28-28 28s-28-12.54-28-28z" fill="#6b717d"/><path d="m262.667 366.235h30v7.09c0 10.13-4.11 19.3-10.75 25.94s-15.81 10.75-25.95 10.75c-5.35 0-10.43-1.14-15.01-3.2 4.11-1.83 7.82-4.41 10.96-7.55 6.64-6.64 10.75-15.81 10.75-25.94z" fill="#47505e"/><path d="m420.967 223.344-82.5 142.891h-30l82.5-142.891-82.5-142.89h30z" fill="#47505e"/><g fill="#e3eaee"><path d="m255.967 160.515c-34.7 0-62.83 28.13-62.83 62.83s28.13 62.82 62.83 62.82 62.83-28.12 62.83-62.82c0-34.701-28.13-62.83-62.83-62.83zm0 90.829c-15.46 0-28-12.54-28-28 0-15.47 12.54-28 28-28s28 12.53 28 28c0 15.46-12.54 28-28 28z"/><g><path d="m215.467 48.668c-7.396 0-13.391 5.995-13.391 13.391v18.391h26.783v-18.391c0-7.395-5.996-13.391-13.392-13.391z"/><path d="m296.467 48.668c-7.396 0-13.391 5.995-13.391 13.391v18.391h26.783v-18.391c0-7.395-5.996-13.391-13.392-13.391z"/></g></g></g><g><path d="m123.494 167.011c1.181.682 2.471 1.006 3.743 1.006 2.592 0 5.113-1.345 6.502-3.751l44.061-76.314h156.336l9.498 16.45c5.224 8.435 17.682 1.233 12.99-7.5l-11.663-20.2c-1.34-2.32-3.816-3.75-6.495-3.75h-21.107v-10.893c0-8.877-5.566-16.479-13.391-19.499v-35.126c-.307-9.916-14.696-9.909-15 0v35.126c-7.825 3.02-13.392 10.622-13.392 19.499v10.892h-39.217v-10.892c0-8.877-5.566-16.479-13.391-19.499v-35.126c-.307-9.916-14.696-9.909-15 0v35.126c-7.825 3.02-13.392 10.622-13.392 19.499v10.892h-21.106c-2.68 0-5.155 1.43-6.495 3.75l-46.226 80.064c-2.072 3.588-.843 8.175 2.745 10.246zm167.082-104.952c.205-7.77 11.581-7.765 11.783 0v10.892h-11.783zm-81 0c.205-7.77 11.58-7.765 11.783 0v10.892h-11.783z"/><path d="m427.458 219.592-53.654-92.931c-2.071-3.588-6.659-4.817-10.245-2.745-3.587 2.071-4.816 6.658-2.745 10.245l51.489 89.181-78.168 135.391h-41.472c-4.142 0-7.5 3.358-7.5 7.5v7.088c-1.472 38.689-56.933 38.659-58.392 0v-7.088c0-4.142-3.358-7.5-7.5-7.5h-41.472l-78.168-135.391 19.067-33.026c2.071-3.587.842-8.174-2.745-10.245-3.588-2.072-8.174-.842-10.245 2.745l-21.232 36.776c-1.34 2.32-1.34 5.18 0 7.5l82.498 142.891c1.34 2.32 3.815 3.75 6.495 3.75h38.304c.197 21.631 16.014 39.597 36.694 43.146v26.573c0 4.142 3.358 7.5 7.5 7.5 30.458 1.155 30.453 44.832 0 45.983-12.677 0-22.992-10.314-22.992-22.992 0-4.142-3.358-7.5-7.5-7.5s-7.5 3.358-7.5 7.5c0 20.949 17.043 37.992 37.992 37.992 45.873-1.174 51.842-65.291 7.5-75.24v-19.816c20.68-3.549 36.496-21.515 36.694-43.146h38.304c2.68 0 5.155-1.43 6.495-3.75l82.498-142.891c1.34-2.321 1.34-5.18 0-7.5z"/><path d="m255.967 153.016c-93.177 3.542-93.137 137.132.001 140.652 4.141 0 7.499-3.358 7.499-7.5s-3.358-7.5-7.5-7.5c-73.298-2.78-73.275-107.884.001-110.652 56.736.377 76.287 75.663 26.998 103.63-3.614 2.025-4.902 6.595-2.877 10.209s6.596 4.902 10.209 2.877c62.655-35.562 37.76-131.252-34.331-131.716z"/><path d="m255.967 187.842c-19.575 0-35.5 15.925-35.5 35.5 1.785 47.031 69.222 47.018 71 0 0-19.575-15.925-35.5-35.5-35.5zm0 56c-11.304 0-20.5-9.196-20.5-20.5 1.031-27.159 39.973-27.151 41 0 0 11.303-9.196 20.5-20.5 20.5z"/><g><path d="m148.354 215.84c-9.914.306-9.911 14.695 0 15 9.914-.306 9.912-14.695 0-15z"/><path d="m363.574 215.84c-9.914.306-9.911 14.695 0 15 9.914-.306 9.912-14.695 0-15z"/><path d="m306.464 120.95c-9.914.306-9.911 14.695 0 15 9.914-.306 9.912-14.695 0-15z"/><path d="m205.464 120.95c-9.914.306-9.911 14.695 0 15 9.914-.306 9.912-14.695 0-15z"/><path d="m205.464 310.73c-9.914.306-9.911 14.695 0 15 9.914-.306 9.912-14.695 0-15z"/><path d="m306.464 310.73c-9.914.306-9.911 14.695 0 15 9.914-.306 9.912-14.695 0-15z"/></g></g></svg>