<svg id="Layer_1" enable-background="new 0 0 512.005 512.005" height="512" viewBox="0 0 512.005 512.005" width="512" xmlns="http://www.w3.org/2000/svg"><g><g><path d="m100.481 108.739h30v80.045h-30z" fill="#6b717d"/><g><path d="m135.481 63.739h-40c-8.284 0-15-6.716-15-15 0-8.284 6.716-15 15-15h40c8.284 0 15 6.716 15 15 0 8.284-6.716 15-15 15z" fill="#f3d6ae"/><path d="m135.481 93.739h-40c-8.284 0-15-6.716-15-15 0-8.284 6.716-15 15-15h40c8.284 0 15 6.716 15 15 0 8.284-6.716 15-15 15z" fill="#edba75"/><path d="m135.481 123.738h-40c-8.284 0-15-6.716-15-15 0-8.284 6.716-15 15-15h40c8.284 0 15 6.716 15 15 0 8.285-6.716 15-15 15z" fill="#f3d6ae"/></g></g><g><path d="m381.525 108.739h30v80.045h-30z" fill="#6b717d"/><g><path d="m416.525 63.739h-40c-8.284 0-15-6.716-15-15 0-8.284 6.716-15 15-15h40c8.284 0 15 6.716 15 15 0 8.284-6.716 15-15 15z" fill="#f3d6ae"/><path d="m416.525 93.739h-40c-8.284 0-15-6.716-15-15 0-8.284 6.716-15 15-15h40c8.284 0 15 6.716 15 15 0 8.284-6.716 15-15 15z" fill="#edba75"/><path d="m416.525 123.738h-40c-8.284 0-15-6.716-15-15 0-8.284 6.716-15 15-15h40c8.284 0 15 6.716 15 15 0 8.285-6.716 15-15 15z" fill="#f3d6ae"/></g></g><path d="m75.285 211.305h361.435v248.156h-361.435z" fill="#6b717d"/><path d="m401.612 211.305h35.109v248.156h-35.109z" fill="#47505e"/><g><path d="m474.503 504.501v-31.06c0-7.72-6.26-13.98-13.98-13.98h-409.04c-7.72 0-13.98 6.26-13.98 13.98v31.06z" fill="#e3eaee"/><path d="m474.503 504.501v-31.06c0-7.72-6.26-13.98-13.98-13.98h-30c7.72 0 13.98 6.26 13.98 13.98v31.06z" fill="#ced9e1"/></g><g><path d="m474.503 166.265v31.06c0 7.72-6.26 13.98-13.98 13.98h-409.04c-7.72 0-13.98-6.26-13.98-13.98v-31.06z" fill="#e3eaee"/><path d="m474.503 166.265v31.06c0 7.72-6.26 13.98-13.98 13.98h-30c7.72 0 13.98-6.26 13.98-13.98v-31.06z" fill="#ced9e1"/></g><path d="m256.003 255.999-88.98 154.819h177.96z" fill="#f3d6ae"/><g><path d="m311.253 62.755c0 30.51-24.74 55.25-55.25 55.25-5.2 0-10.23-.72-15-2.06-23.22-6.54-40.25-27.88-40.25-53.19s17.03-46.65 40.25-53.19c4.77-1.34 9.8-2.06 15-2.06 30.51 0 55.25 24.74 55.25 55.25z" fill="#fff"/><path d="m311.253 62.755c0 30.51-24.74 55.25-55.25 55.25-5.2 0-10.23-.72-15-2.06 23.22-6.54 40.25-27.88 40.25-53.19s-17.03-46.65-40.25-53.19c4.77-1.34 9.8-2.06 15-2.06 30.51 0 55.25 24.74 55.25 55.25z" fill="#e3eaee"/></g></g><g><path d="m504.502 497.005h-22.5v-23.568c0-11.842-9.634-21.476-21.476-21.476h-16.308v-120.353c-.307-9.916-14.696-9.909-15 0v120.353h-346.433v-233.155h67.695c9.916-.307 9.909-14.696 0-15h-99.002c-3.571 0-6.476-2.905-6.476-6.476v-23.568h422v23.568c0 3.571-2.905 6.476-6.476 6.476h-275.35c-9.916.307-9.909 14.696 0 15h244.043v77.194c.307 9.916 14.696 9.909 15 0v-77.194h16.308c11.842 0 21.476-9.634 21.476-21.476v-31.068c0-4.142-3.357-7.5-7.5-7.5h-55.479v-27.662c17.914-1.769 26.468-24.133 14.256-37.362 7.575-7.97 7.574-22.031 0-30 12.923-14.083 2.545-37.657-16.756-37.5h-12.5v-18.733c-.307-9.916-14.696-9.909-15 0v18.734h-12.5c-19.31-.154-29.675 23.422-16.756 37.5-7.575 7.97-7.574 22.031 0 30-12.216 13.234-3.65 35.596 14.256 37.362v27.662h-110.521v-33.705c12.784-1.532 24.816-6.959 34.479-15.662 3.078-2.772 3.326-7.514.555-10.592-2.774-3.08-7.518-3.325-10.592-.554-30.15 27.583-79.984 5.416-79.692-35.495 0-26.329 21.42-47.749 47.75-47.749 30.535-.407 54.013 29.711 46.368 59.208-.99 4.022 1.468 8.085 5.489 9.075 4.025.987 8.085-1.468 9.075-5.49 10.04-38.763-20.808-78.327-60.933-77.793-78.63 2.313-84.807 113.638-7.5 125.054v33.703h-110.522v-27.662c17.914-1.769 26.468-24.133 14.256-37.362 7.575-7.97 7.574-22.031 0-30 12.923-14.083 2.545-37.657-16.756-37.5h-12.5v-18.734c-.307-9.916-14.696-9.909-15 0v18.734h-12.499c-19.311-.154-29.675 23.422-16.756 37.5-7.575 7.97-7.574 22.031 0 30-12.216 13.234-3.65 35.596 14.256 37.362v27.662h-55.479c-4.142 0-7.5 3.358-7.5 7.5v31.068c0 11.842 9.634 21.476 21.476 21.476h16.307v233.156h-16.307c-11.842 0-21.476 9.634-21.476 21.476v23.568h-22.5c-9.916.307-9.909 14.696 0 15h497c9.917-.309 9.909-14.698 0-15.002zm-100.478-338.243h-15v-27.523h15zm-27.5-117.523h40c9.914.316 9.907 14.687 0 15h-40c-9.914-.316-9.907-14.688 0-15zm0 30h40c9.914.316 9.907 14.687 0 15h-40c-9.914-.316-9.907-14.688 0-15zm-7.5 37.5c0-4.136 3.364-7.5 7.5-7.5h40c9.914.316 9.907 14.687 0 15h-40c-4.136 0-7.5-3.365-7.5-7.5zm-246.044 50.023h-14.999v-27.523h14.999zm-27.499-117.523h39.999c9.914.316 9.907 14.687 0 15h-39.999c-9.915-.316-9.907-14.688 0-15zm0 30h39.999c9.914.316 9.907 14.687 0 15h-39.999c-9.915-.316-9.907-14.688 0-15zm-7.5 37.5c0-4.136 3.364-7.5 7.5-7.5h39.999c9.914.316 9.907 14.687 0 15h-39.999c-4.136 0-7.5-3.365-7.5-7.5zm379.021 388.266h-422v-23.568c0-3.571 2.905-6.476 6.476-6.476h409.049c3.57 0 6.476 2.905 6.476 6.476v23.568z"/><path d="m250.699 57.452-15.984 15.984c-2.929 2.929-2.929 7.677 0 10.606s7.677 2.929 10.607 0l15.984-15.984c2.929-2.929 2.929-7.677 0-10.606-2.928-2.929-7.676-2.93-10.607 0z"/><path d="m242.559 418.318h102.423c2.677 0 5.15-1.427 6.491-3.744s1.345-5.173.012-7.494l-88.979-154.819c-2.644-4.949-10.362-4.948-13.006 0l-88.98 154.819c-1.333 2.321-1.329 5.177.012 7.494s3.814 3.744 6.491 3.744h40.319c9.916-.307 9.909-14.696 0-15h-27.358l76.019-132.268 76.018 132.268h-89.462c-9.916.307-9.909 14.697 0 15z"/><path d="m261.035 318.028c-3.634-1.987-8.19-.653-10.18 2.981l-14.876 27.195c-2.797 4.762 1.06 11.268 6.58 11.099h14.234l-8.805 16.097c-1.987 3.634-.653 8.191 2.98 10.179 3.564 1.969 8.181.688 10.18-2.981l14.876-27.196c2.797-4.762-1.06-11.268-6.58-11.099h-14.234l8.805-16.096c1.988-3.633.654-8.191-2.98-10.179z"/><path d="m110.612 239.237c-9.914.306-9.911 14.695 0 15 9.914-.306 9.911-14.695 0-15z"/><path d="m110.612 417.237c-9.914.306-9.911 14.695 0 15 9.914-.306 9.911-14.695 0-15z"/><path d="m401.612 239.237c-9.914.306-9.911 14.695 0 15 9.914-.306 9.911-14.695 0-15z"/><path d="m401.612 417.237c-9.914.306-9.911 14.695 0 15 9.914-.306 9.911-14.695 0-15z"/></g></svg>