<svg id="Layer_1" enable-background="new 0 0 512.034 512.034" height="512" viewBox="0 0 512.034 512.034" width="512" xmlns="http://www.w3.org/2000/svg"><g><path d="m400.537 398.193h-289.04c0-73.03 54.17-133.41 124.52-143.15 6.54-.9 13.21-1.37 20-1.37 79.82 0 144.52 64.7 144.52 144.52z" fill="#6b717d"/><path d="m400.537 398.193h-40c0-73.03-54.17-133.41-124.52-143.15 6.54-.9 13.21-1.37 20-1.37 79.82 0 144.52 64.7 144.52 144.52z" fill="#47505e"/><path d="m256.017 331.626c-36.763 0-66.565 29.802-66.565 66.565h133.131c-.001-36.762-29.803-66.565-66.566-66.565z" fill="#47505e"/><path d="m256.017 363.404c-19.213 0-34.788 15.575-34.788 34.788h69.576c0-19.213-15.575-34.788-34.788-34.788z" fill="#ced9e1"/><path d="m366.327 132.193-51.83 133.85-14.7-4.77-13.88-4.5 52.24-134.93 13.68 5.03z" fill="#e3eaee"/><path d="m366.327 132.193-51.83 133.85-14.7-4.77 52.04-134.4z" fill="#ced9e1"/><g><path d="m474.517 435.973v68.54h-437v-68.54c0-20.87 16.92-37.78 37.78-37.78h361.44c20.86 0 37.78 16.91 37.78 37.78z" fill="#e3eaee"/><path d="m474.517 435.973v68.54h-30v-68.54c0-20.87-16.92-37.78-37.78-37.78h30c20.86 0 37.78 16.91 37.78 37.78z" fill="#ced9e1"/><g><circle cx="91.278" cy="451.355" fill="#6b717d" r="15"/><circle cx="154.669" cy="451.355" fill="#ff6c6c" r="15"/><circle cx="218.061" cy="451.355" fill="#72bbff" r="15"/></g></g><path d="m426.417 79.723c-3.2 9.13-8.6 16.85-15.41 22.78-11.2 9.77-19.74 22.22-24.66 36.24l-24.79-8.7-42.61-14.94c4.96-14.16 5.88-29.33 3.32-44.11-1.62-9.37-.79-19.3 2.96-28.87 8.27-21.12 28.82-34.25 50.49-34.22 5.62.01 11.31.9 16.88 2.77 28.62 9.59 43.78 40.68 33.82 69.05z" fill="#ff6c6c"/><path d="m426.417 79.723c-3.2 9.13-8.6 16.85-15.41 22.78-11.2 9.77-19.74 22.22-24.66 36.24l-24.79-8.7c5.02-13.14 13.26-24.82 23.88-34.09 6.8-5.93 12.21-13.65 15.41-22.77 8.89-25.34-2.25-52.86-25.13-65.28 5.62.01 11.31.9 16.88 2.77 28.62 9.59 43.78 40.68 33.82 69.05z" fill="#ff4141"/></g><g><path d="m504.517 497.023h-22.5v-61.098c0-24.987-20.313-45.315-45.282-45.315h-28.875c-.991-20.736-6.104-40.656-15.236-59.317-1.822-3.722-6.312-5.263-10.034-3.44-3.72 1.823-5.259 6.319-3.437 10.042 8.117 16.589 12.709 34.289 13.687 52.716h-63.134c-11.084-88.242-136.325-88.179-147.376 0h-63.13c6.567-124.41 165.729-176.12 243.739-78.252 2.594 3.233 7.312 3.752 10.544 1.156 3.23-2.594 3.747-7.318 1.155-10.551-13.986-17.439-31.265-31.295-50.598-40.975l46.816-120.989 13.006 4.566c3.805 1.366 8.195-.649 9.56-4.597 4.445-12.678 12.232-24.124 22.519-33.099 7.967-6.951 14.036-15.928 17.555-25.959 1.371-3.911-.686-8.194-4.594-9.567-3.904-1.374-8.188.685-9.561 4.597-2.66 7.585-7.245 14.369-13.258 19.616-10.326 9.01-18.54 20.126-24.041 32.464l-53.842-18.901c3.339-12.949 3.852-26.877 1.458-40.714-1.44-8.326-.559-16.927 2.551-24.873 16.233-41.395 76.188-38.108 88.067 4.595 1.11 3.993 5.246 6.328 9.236 5.218 3.99-1.112 6.325-5.25 5.215-9.243-9.273-35.952-51.835-55.682-85.241-39.228-14.409 6.729-25.506 18.515-31.245 33.186-4.107 10.499-5.271 21.876-3.363 32.906 2.409 13.922 1.367 27.883-3.013 40.372-.658 1.878-.545 3.942.317 5.736.861 1.794 2.4 3.173 4.277 3.832l11.911 4.181-47.197 121.972c-88.701-15.655-173.533 53.178-176.993 142.55h-28.88c-24.97 0-45.283 20.328-45.283 45.315v61.098h-22.5c-9.916.307-9.909 14.707 0 15.011h109.849c9.916-.307 9.909-14.707 0-15.011h-72.349v-61.098c0-16.71 13.585-30.304 30.283-30.304h361.435c16.697 0 30.282 13.594 30.282 30.304v61.098h-314.913c-9.916.307-9.909 14.707 0 15.011h352.413c9.916-.307 9.909-14.707 0-15.011zm-161.983-365.968 14.161 4.971-46.4 119.914c-4.673-1.783-9.44-3.335-14.286-4.65zm-112.756 259.555c7.707-26.246 44.782-26.228 52.479 0zm67.861 0c-9.069-46.131-74.192-46.1-83.243 0h-16.97c10.201-68.367 107.006-68.317 117.182 0z"/><path d="m101.306 178.762c1.458 0 2.932-.425 4.227-1.31 44.42-30.396 96.456-46.463 150.484-46.463 4.143 0 7.5-3.36 7.5-7.505s-3.357-7.505-7.5-7.505c-57.063 0-112.026 16.973-158.951 49.083-3.419 2.34-4.296 7.01-1.958 10.432 1.453 2.125 3.804 3.268 6.198 3.268z"/><path d="m76.572 259.268c3.171 2.633 7.907 2.213 10.56-.992 26.438-31.938 61.101-55.641 100.241-68.545 22.076-7.279 45.171-10.969 68.645-10.969 4.143 0 7.5-3.36 7.5-7.505s-3.357-7.505-7.5-7.505c-69.225-.31-136.466 31.406-180.437 84.949-2.643 3.191-2.2 7.923.991 10.567z"/><path d="m38.559 333.364c3.825 1.308 8.185-.774 9.489-4.743 5.048-15.135 11.787-29.758 20.03-43.46 2.136-3.551.991-8.164-2.558-10.301-3.55-2.137-8.157-.992-10.294 2.559-8.809 14.644-16.012 30.272-21.407 46.45-1.311 3.932.811 8.183 4.74 9.495z"/><path d="m68.779 451.316c0 12.416 10.094 22.516 22.5 22.516 29.808-1.132 29.8-43.905 0-45.032-12.407 0-22.5 10.101-22.5 22.516zm30 0c-.315 9.919-14.687 9.917-15 0 .315-9.919 14.686-9.916 15 0z"/><path d="m177.169 451.316c0-12.416-10.094-22.516-22.5-22.516-29.808 1.132-29.8 43.905 0 45.032 12.407 0 22.5-10.1 22.5-22.516zm-30 0c.315-9.919 14.687-9.917 15 0-.315 9.919-14.686 9.917-15 0z"/><path d="m240.561 451.316c0-12.416-10.094-22.516-22.5-22.516-29.808 1.132-29.8 43.905 0 45.032 12.406 0 22.5-10.1 22.5-22.516zm-30 0c.315-9.919 14.687-9.917 15 0-.315 9.919-14.687 9.917-15 0z"/><path d="m391.778 451.315c-.306-9.914-14.695-9.911-15 0 .306 9.914 14.695 9.912 15 0z"/><path d="m428.778 451.315c-.306-9.914-14.695-9.911-15 0 .306 9.914 14.695 9.912 15 0z"/></g></svg>