<svg id="Layer_1" enable-background="new 0 0 512 512" height="512" viewBox="0 0 512 512" width="512" xmlns="http://www.w3.org/2000/svg"><g><path d="m156 37.505h200v71.068h-200z" fill="#f3d6ae"/><path d="m327.435 37.505h28.565v71.068h-28.565z" fill="#edba75"/><path d="m369.22 287.271h-226.44c0-50.31 40.78-91.09 91.09-91.09h44.26c25.15 0 47.93 10.19 64.41 26.68 16.48 16.48 26.68 39.25 26.68 64.41z" fill="#ff6c6c"/><path d="m369.22 287.271h-30c0-25.16-10.2-47.93-26.68-64.41-16.48-16.49-39.26-26.68-64.41-26.68h30c25.15 0 47.93 10.19 64.41 26.68 16.48 16.48 26.68 39.25 26.68 64.41z" fill="#ff4141"/><path d="m464.5 127.801v25.82h-417v-25.82c0-10.62 8.61-19.23 19.23-19.23h378.54c10.62 0 19.23 8.61 19.23 19.23z" fill="#e3eaee"/><path d="m464.5 127.801v25.82h-31v-25.82c0-10.62-8.61-19.23-19.23-19.23h31c10.62 0 19.23 8.61 19.23 19.23z" fill="#ced9e1"/><path d="m120 7.505h272v30h-272z" fill="#6b717d"/><path d="m362.391 7.505h29.609v30h-29.609z" fill="#47505e"/><g fill="#ced9e1"><path d="m47.5 464.128h30v40h-30z"/><path d="m434.5 464.128h30v40h-30z"/></g><path d="m464.5 306.501v157.63h-63.5l-145-20-145 20h-63.5v-157.63c0-10.62 8.61-19.23 19.23-19.23h378.54c10.62 0 19.23 8.61 19.23 19.23z" fill="#6b717d"/><path d="m464.5 306.501v157.63h-30v-157.63c0-10.62-8.61-19.23-19.23-19.23h30c10.62 0 19.23 8.61 19.23 19.23z" fill="#47505e"/><path d="m464.5 306.501v26.2h-417v-26.2c0-10.62 8.61-19.23 19.23-19.23h378.54c10.62 0 19.23 8.61 19.23 19.23z" fill="#e3eaee"/><path d="m111 390.737h290v73.391h-290z" fill="#e3eaee"/><path d="m464.5 306.501v26.2h-30v-26.2c0-10.62-8.61-19.23-19.23-19.23h30c10.62 0 19.23 8.61 19.23 19.23z" fill="#ced9e1"/></g><g><path d="m445.271 101.142h-81.771v-56.109h28.5c4.143 0 7.5-3.36 7.5-7.506v-30.021c0-4.146-3.357-7.506-7.5-7.506h-72.435c-9.916.307-9.909 14.707 0 15.011h64.935v15.011h-257v-15.011h157.152c9.916-.307 9.909-14.707 0-15.011h-164.652c-4.143 0-7.5 3.36-7.5 7.506v30.022c0 4.145 3.357 7.506 7.5 7.506h28.5v56.109h-81.771c-14.739-.001-26.729 11.999-26.729 26.748v25.834c0 4.145 3.357 7.506 7.5 7.506h45.892c9.916-.307 9.909-14.707 0-15.011h-38.392v-18.328c0-6.472 5.262-11.737 11.729-11.737h378.543c6.467 0 11.729 5.265 11.729 11.737v18.328h-328.393c-9.916.307-9.909 14.707 0 15.011h335.892c4.143 0 7.5-3.36 7.5-7.506v-25.834c0-14.749-11.99-26.749-26.729-26.749zm-281.771-56.109h185v56.109h-185z"/><path d="m445.271 279.97h-68.836c-3.844-50.908-46.466-91.154-98.304-91.154h-44.262c-51.838 0-94.46 40.246-98.304 91.154h-68.836c-14.739 0-26.729 11.999-26.729 26.748v197.776c0 4.145 3.357 7.506 7.5 7.506h30c4.143 0 7.5-3.36 7.5-7.506v-32.524h237.218c9.916-.307 9.909-14.707 0-15.011h-203.718v-58.435h275v58.435h-36.5c-9.916.307-9.909 14.707 0 15.011h70v32.524c0 4.145 3.357 7.506 7.5 7.506h30c4.143 0 7.5-3.36 7.5-7.506v-197.776c0-14.749-11.99-26.748-26.729-26.748zm-211.402-76.143h44.262c43.562 0 79.448 33.522 83.253 76.143h-210.768c3.805-42.621 39.691-76.143 83.253-76.143zm-167.14 91.154h378.543c6.467 0 11.729 5.265 11.729 11.737v18.714h-402.001v-18.714c0-6.472 5.262-11.737 11.729-11.737zm3.271 202.008h-15v-25.019h15zm331-113.475h-290c-4.143 0-7.5 3.36-7.5 7.506v65.94h-48.5v-116.516h402v116.516h-48.5v-65.94c0-4.146-3.357-7.506-7.5-7.506zm56 113.475h-15v-25.019h15z"/><path d="m202.305 412.938c-9.916.307-9.909 14.707 0 15.011h107.391c9.916-.307 9.909-14.707 0-15.011z"/><g><path d="m82 359.859c-9.914.306-9.911 14.706 0 15.011 9.914-.306 9.911-14.706 0-15.011z"/><path d="m430 359.859c-9.914.306-9.911 14.706 0 15.011 9.914-.306 9.911-14.706 0-15.011z"/><path d="m192.5 65.582c-9.914.306-9.911 14.706 0 15.011 9.914-.306 9.911-14.706 0-15.011z"/><path d="m256 65.472c-9.914.306-9.911 14.706 0 15.011 9.914-.306 9.911-14.706 0-15.011z"/><path d="m319.5 65.582c-9.914.306-9.911 14.706 0 15.011 9.914-.306 9.911-14.706 0-15.011z"/></g></g></svg>