<svg id="Layer_1" enable-background="new 0 0 512 512" height="512" viewBox="0 0 512 512" width="512" xmlns="http://www.w3.org/2000/svg"><g><path d="m242.97 206.152v30.676c0 7.396 5.995 13.392 13.391 13.392 7.396 0 13.391-5.996 13.391-13.392v-30.676z" fill="#6b717d"/><path d="m223.861 147.904h65v70.382h-65z" fill="#72bbff"/><path d="m262.13 147.904h26.731v70.382h-26.731z" fill="#009af6"/><g><path d="m7.5 86.618h497v32.24h-497z" fill="#e3eaee"/><path d="m474.5 86.618h30v32.24h-30z" fill="#ced9e1"/><path d="m311.61 102.738c0 30.51-24.73 55.25-55.25 55.25-5.2 0-10.23-.72-15-2.06-23.22-6.54-40.25-27.88-40.25-53.19s17.03-46.65 40.25-53.19c4.77-1.34 9.8-2.06 15-2.06 30.52 0 55.25 24.74 55.25 55.25z" fill="#6b717d"/><path d="m311.61 102.738c0 30.51-24.73 55.25-55.25 55.25-5.2 0-10.23-.72-15-2.06 23.23-6.54 40.25-27.88 40.25-53.19s-17.02-46.65-40.25-53.19c4.77-1.34 9.8-2.06 15-2.06 30.52 0 55.25 24.74 55.25 55.25z" fill="#47505e"/></g><path d="m22.5 449.801h467v54.699h-467z" fill="#ff6c6c"/><path d="m459.054 449.801h30.446v54.699h-30.446z" fill="#ff4141"/><path d="m504.5 434.8c0 8.29-6.72 15-15 15h-467c-4.14 0-7.89-1.68-10.6-4.39-2.72-2.71-4.4-6.47-4.4-10.61 0-8.28 6.72-15 15-15h467c4.14 0 7.89 1.68 10.6 4.4 2.72 2.709 4.4 6.459 4.4 10.6z" fill="#6b717d"/><path d="m504.5 434.8c0 8.29-6.72 15-15 15h-20.09c3.12-3.66 5.09-9.02 5.09-15 0-5.52-1.68-10.52-4.4-14.14-.22-.3-.45-.58-.69-.86h20.09c4.14 0 7.89 1.68 10.6 4.4 2.72 2.709 4.4 6.459 4.4 10.6z" fill="#47505e"/></g><g><path d="m504.5 111.359h-185.979c.785-5.615.785-11.627 0-17.241h39.87c9.916-.307 9.909-14.696 0-15h-43.894c-8.445-20.713-27.652-35.937-50.636-38.686v-2.725c0-20.792-16.914-37.707-37.705-37.707h-117.212c-20.79 0-37.705 16.915-37.705 37.707v41.412h-63.739c-9.916.307-9.909 14.696 0 15h63.739v17.241h-63.739c-9.916.307-9.909 14.696 0 15h19.392v9.458c1.496 39.324 57.865 39.294 59.348 0v-9.458h111.986c3.94 9.663 10.221 18.131 18.136 24.695v67.231c0 4.142 3.358 7.5 7.5 7.5h11.609v11.042c0 8.878 5.566 16.48 13.391 19.5v15.127c.307 9.916 14.696 9.909 15 0v-15.127c7.825-3.02 13.392-10.622 13.392-19.5v-11.042h11.608c4.142 0 7.5-3.358 7.5-7.5v-67.231c7.914-6.564 14.196-15.032 18.136-24.695h190.002c9.916-.308 9.909-14.697 0-15.001zm-433.261 24.458c-.74 19.446-28.615 19.432-29.348 0v-9.458h29.348zm122.963-24.458h-107.963v-17.241h107.962c-.784 5.615-.784 11.627.001 17.241zm-107.963-32.241v-41.411c0-12.521 10.186-22.707 22.705-22.707h117.212c12.52 0 22.705 10.186 22.705 22.707v2.725c-22.984 2.75-42.19 17.973-50.636 38.686zm176.014 157.71c-.205 7.771-11.58 7.766-11.783 0v-11.042h11.783zm19.108-26.042h-50v-50.491c15.141 6.874 34.859 6.874 50 0zm-25-60.294c-26.33 0-47.75-21.422-47.75-47.753 2.4-63.264 93.109-63.247 95.5.001 0 26.33-21.42 47.752-47.75 47.752z"/><path d="m393.609 94.118h110.891c9.916-.307 9.909-14.696 0-15h-110.891c-9.916.308-9.909 14.696 0 15z"/><path d="m489.5 412.3h-358.196c-9.916.307-9.909 14.696 0 15h358.196c9.915.316 9.907 14.689 0 15.001h-467c-9.914-.316-9.907-14.689 0-15.001h74.5c9.916-.307 9.909-14.696 0-15h-74.5c-25.374.484-30.977 35.031-7.5 43.716v48.484c0 4.142 3.358 7.5 7.5 7.5h371.37c9.916-.307 9.909-14.696 0-15h-363.87v-39.699h452v39.699h-53.391c-9.916.307-9.909 14.696 0 15h60.891c4.142 0 7.5-3.358 7.5-7.5v-48.484c23.492-8.696 17.856-43.239-7.5-43.716z"/><path d="m93.674 344.154h134.514c19.67 0 35.674-16.004 35.674-35.675 0-4.142-3.358-7.5-7.5-7.5s-7.5 3.358-7.5 7.5c0 11.4-9.274 20.675-20.674 20.675h-134.514c-37.68 1.434-37.652 55.451 0 56.872h341.413c9.916-.307 9.909-14.696 0-15h-341.413c-17.803-.678-17.789-26.201 0-26.872z"/><path d="m256.359 75.15c-9.914.306-9.911 14.695 0 15 9.914-.306 9.912-14.695 0-15z"/><path d="m256.359 115.321c-9.914.306-9.911 14.695 0 15 9.914-.306 9.912-14.695 0-15z"/></g></svg>