<svg id="Layer_1" enable-background="new 0 0 512 512" height="512" viewBox="0 0 512 512" width="512" xmlns="http://www.w3.org/2000/svg"><g><g><path d="m209.391 32.583h93.218v46.33h-93.218z" fill="#e3eaee"/><path d="m273.435 32.583h29.174v46.33h-29.174z" fill="#ced9e1"/></g><g fill="#6b717d"><path d="m156 312.717h200v60h-200z"/><path d="m7.5 174.394h54.196v71.826h-54.196z"/><path d="m466.652 174.394h37.848v71.826h-37.848z"/></g><path d="m471 210.303c0 31.76-12.87 60.51-33.68 81.32-20.82 20.81-49.56 33.68-81.32 33.68h-200c-63.51 0-115-51.48-115-115 0-31.76 12.87-60.5 33.68-81.32 20.82-20.81 49.56-33.68 81.32-33.68h200c63.51 0 115 51.49 115 115z" fill="#ffa07a"/><path d="m471 210.303c0 31.76-12.87 60.51-33.68 81.32-20.82 20.81-49.56 33.68-81.32 33.68h-35c31.76 0 60.5-12.87 81.32-33.68 20.81-20.81 33.68-49.56 33.68-81.32 0-63.51-51.49-115-115-115h35c63.51 0 115 51.49 115 115z" fill="#ff7d43"/><path d="m504.5 360.123v55.37c0 14.22-11.52 25.74-25.74 25.74h-445.52c-14.22 0-25.74-11.52-25.74-25.74v-55.37z" fill="#e3eaee"/><path d="m504.5 360.123v55.37c0 14.22-11.52 25.74-25.74 25.74h-43.5c16.15 0 29.24-13.09 29.24-29.24v-51.87z" fill="#ced9e1"/><path d="m336 82.033v13.27h-160v-13.27c0-10.78 8.73-19.51 19.51-19.51h120.98c10.78 0 19.51 8.73 19.51 19.51z" fill="#6b717d"/><path d="m336 82.033v13.27h-30v-13.27c0-10.78-8.73-19.51-19.51-19.51h30c10.78 0 19.51 8.73 19.51 19.51z" fill="#47505e"/><circle cx="256" cy="210.307" fill="#fff" r="71"/><path d="m256 179.919s21.478 19.649 21.478 39.298c0 11.862-9.616 21.478-21.478 21.478s-21.478-9.616-21.478-21.478c0-19.649 21.478-39.298 21.478-39.298z" fill="#6b717d"/><g fill="#47505e"><g><circle cx="162.44" cy="441.235" r="38.348"/><circle cx="85.745" cy="441.235" r="38.348"/></g><g><circle cx="416.196" cy="441.235" r="38.348"/><circle cx="339.5" cy="441.235" r="38.348"/></g></g></g><g><path d="m346.425 438.363c-.189-.45-.42-.88-.689-1.29-.271-.41-.59-.8-.93-1.14-1.74-1.74-4.33-2.54-6.771-2.05-.479.1-.95.24-1.41.43-.901.372-1.736.929-2.43 1.62-.35.34-.66.73-.93 1.14-.271.41-.5.84-.69 1.29-.19.46-.33.93-.43 1.41-.202.967-.2 1.957 0 2.93.1.48.239.95.43 1.4.19.45.42.89.69 1.3s.58.79.93 1.14c.694.687 1.528 1.243 2.43 1.62.46.18.931.33 1.41.42 2.418.51 5.024-.298 6.771-2.04.34-.35.659-.73.93-1.14.27-.41.5-.85.689-1.3.19-.45.33-.92.431-1.4.198-.972.2-1.963 0-2.93-.101-.479-.241-.95-.431-1.41z"/><path d="m423.125 438.363c-.189-.45-.42-.88-.689-1.29-.28-.41-.59-.8-.94-1.14-.34-.35-.729-.66-1.14-.93-.4-.27-.84-.51-1.29-.69-.45-.19-.931-.33-1.4-.43-.97-.2-1.97-.2-2.939 0-.471.1-.95.24-1.4.43-.45.18-.89.42-1.29.69-.41.27-.8.58-1.14.93-.351.34-.66.73-.94 1.14-.27.41-.5.84-.68 1.29-.19.46-.34.93-.43 1.41-.621 2.911.698 6.072 3.189 7.7.804.541 1.743.925 2.69 1.12.979.185 1.96.185 2.939 0 .947-.195 1.887-.58 2.69-1.12 2.492-1.628 3.811-4.788 3.189-7.7-.089-.479-.238-.95-.419-1.41z"/><path d="m169.365 438.363c-.19-.45-.42-.89-.69-1.29-.27-.41-.59-.8-.93-1.14-1.74-1.74-4.34-2.54-6.77-2.05-.48.1-.95.24-1.4.43-.914.37-1.74.926-2.44 1.62-.35.34-.659.73-.93 1.14-.27.4-.5.84-.689 1.29-.19.46-.33.93-.431 1.41-.509 2.42.301 5.029 2.05 6.77.351.34.73.65 1.141.93.41.27.84.5 1.3.69.45.18.92.33 1.4.42 2.422.51 5.028-.302 6.77-2.04.34-.35.66-.73.93-1.14.271-.41.5-.85.69-1.3s.33-.92.43-1.4c.2-.972.202-1.963 0-2.93-.101-.479-.24-.95-.431-1.41z"/><path d="m92.665 438.363c-.18-.45-.41-.88-.68-1.29-.28-.41-.59-.8-.94-1.14-.34-.35-.729-.66-1.14-.93-.4-.27-.84-.51-1.29-.69-.45-.19-.93-.33-1.4-.43-.97-.19-1.97-.19-2.939 0-.48.1-.95.24-1.4.43-.45.18-.89.42-1.29.69-.42.27-.8.58-1.14.93-.35.34-.66.73-.94 1.14-.27.41-.5.84-.689 1.29-.181.46-.33.93-.42 1.41-.202.967-.2 1.957 0 2.93.09.48.239.95.42 1.4.189.45.42.89.689 1.3.28.41.591.79.94 1.13.34.35.72.66 1.14.94.809.541 1.733.925 2.69 1.12.98.185 1.96.185 2.939 0 .948-.195 1.886-.58 2.69-1.12.41-.28.8-.59 1.14-.94.351-.34.66-.72.94-1.13.27-.41.5-.85.68-1.3.19-.45.34-.92.431-1.4.198-.972.2-1.963 0-2.93-.091-.479-.241-.95-.431-1.41z"/><path d="m470.555 253.72h33.945c4.143 0 7.5-3.358 7.5-7.5v-71.826c0-4.142-3.357-7.5-7.5-7.5h-33.945c-17.56-46.183-62.287-79.087-114.555-79.087h-12.5v-5.776c0-14.892-12.115-27.007-27.007-27.007h-6.384v-22.441c0-4.142-3.357-7.5-7.5-7.5h-93.218c-4.143 0-7.5 3.358-7.5 7.5v22.441h-6.385c-14.892 0-27.007 12.115-27.007 27.007v5.776h-12.499c-26.931 0-52.483 8.572-73.896 24.791-3.302 2.501-3.951 7.205-1.45 10.507 2.5 3.301 7.204 3.952 10.507 1.45 18.784-14.228 41.205-21.748 64.839-21.748h200c142.454 5.422 142.345 209.63 0 215h-200c-87.81.738-139.36-102.99-85.719-172.383 2.502-3.301 1.855-8.005-1.445-10.508-3.302-2.502-8.005-1.855-10.508 1.445-7.164 9.45-12.839 19.706-16.944 30.533h-26.384v-21.587c-.307-9.916-14.696-9.909-15 0v130c.307 9.916 14.696 9.909 15 0v-21.587h26.445c16.714 43.957 58.04 75.885 107.055 78.859v20.047h-141c-4.142 0-7.5 3.358-7.5 7.5v55.37c0 18.328 14.911 33.239 33.239 33.239h7.271c6.646 40.916 61.138 52.292 83.583 17.604 22.46 34.706 76.946 23.288 83.582-17.604h86.591c6.647 40.916 61.137 52.292 83.582 17.604 22.46 34.705 76.947 23.289 83.583-17.604h17.33c18.328 0 33.239-14.911 33.239-33.239v-55.37c0-4.142-3.357-7.5-7.5-7.5h-141v-20.047c49.015-2.974 90.341-34.902 107.055-78.859zm-287.055-171.689c0-6.621 5.387-12.007 12.007-12.007h43.059c9.916-.307 9.909-14.696 0-15h-21.674v-14.941h78.218v14.941h-21.675c-9.916.307-9.909 14.696 0 15h43.059c6.62 0 12.007 5.386 12.007 12.007v5.776h-145v-5.776zm313.5 99.863v56.826h-21.826c4.415-18.115 4.415-38.711 0-56.826zm-482 56.826v-56.826h21.788c-4.384 18.264-4.37 38.651.038 56.826zm70.745 233.363c-17.01 0-30.849-13.838-30.849-30.848 1.551-40.868 60.152-40.857 61.696 0 .001 17.01-13.837 30.848-30.847 30.848zm76.695 0c-17.01 0-30.848-13.838-30.848-30.848 1.551-40.868 60.151-40.857 61.695 0 .001 17.01-13.837 30.848-30.847 30.848zm177.06 0c-17.01 0-30.848-13.838-30.848-30.848 1.551-40.868 60.151-40.857 61.695 0 .001 17.01-13.837 30.848-30.847 30.848zm76.696 0c-17.01 0-30.849-13.838-30.849-30.848 1.551-40.868 60.152-40.857 61.696 0 .001 17.01-13.837 30.848-30.847 30.848zm-181.674-119.456c-9.916.307-9.909 14.696 0 15h262.478v47.87c0 10.057-8.182 18.239-18.239 18.239h-17.33c-6.647-40.917-61.138-52.292-83.583-17.604-22.46-34.706-76.946-23.288-83.582 17.604h-86.591c-6.646-40.917-61.137-52.293-83.582-17.604-22.46-34.706-76.947-23.288-83.583 17.604h-7.271c-10.058 0-18.239-8.182-18.239-18.239v-47.87h184.604c9.916-.307 9.909-14.696 0-15h-36.104v-19.82h185v19.82z"/><path d="m311.343 255.413c3.464 2.268 8.113 1.297 10.383-2.168 34.268-50.901-4.283-122.239-65.727-121.438-43.284-.001-78.499 35.214-78.499 78.499-.763 60.189 67.955 98.956 119.021 67.245 3.546-2.141 4.686-6.751 2.545-10.297-2.141-3.545-6.752-4.685-10.297-2.544-41.3 25.634-96.895-5.719-96.269-54.405-.001-35.013 28.486-63.499 63.499-63.499 49.696-.642 80.886 57.051 53.174 98.224-2.267 3.466-1.296 8.115 2.17 10.383z"/><path d="m250.937 174.385c-.977.894-23.915 22.14-23.915 44.832 0 15.979 12.999 28.978 28.978 28.978s28.979-13 28.979-28.978c0-22.692-22.939-43.939-23.916-44.832-2.866-2.622-7.26-2.622-10.126 0zm19.042 44.832c-1.922 26.649-51.197 14.081-13.979-28.477 6.124 7.049 13.979 18.402 13.979 28.477z"/></g></svg>