<svg id="Layer_1" enable-background="new 0 0 512 512" height="512" viewBox="0 0 512 512" width="512" xmlns="http://www.w3.org/2000/svg"><g><g><path d="m144.97 338.207h329.53v60h-329.53z" fill="#47505e"/><g fill="#e3eaee"><circle cx="256" cy="368.207" r="30"/><circle cx="367.03" cy="368.207" r="30"/><circle cx="474.5" cy="368.207" r="30"/></g><g><path d="m144.97 398.207h329.53v67.043h-329.53z" fill="#e3eaee"/><path d="m444.5 398.207h30v67.043h-30z" fill="#ced9e1"/></g></g><g><g><path d="m209.252 214.713h93.496v93.494h-93.496z" fill="#f3d6ae"/><path d="m273.152 214.713h29.596v93.494h-29.596z" fill="#edba75"/><path d="m238.847 214.713v46.054l17.153-7.75 17.152 7.75v-46.054z" fill="#ff6c6c"/></g><g><path d="m343.357 214.713h93.496v93.494h-93.496z" fill="#f3d6ae"/><path d="m407.257 214.713h29.596v93.494h-29.596z" fill="#edba75"/><path d="m372.952 214.713v46.054l17.153-7.75 17.152 7.75v-46.054z" fill="#ff6c6c"/></g></g><path d="m144.97 65.471v27.91h-137.47v-27.91c0-10.34 8.38-18.72 18.72-18.72h100.03c10.34 0 18.72 8.38 18.72 18.72z" fill="#ffa07a"/><path d="m144.97 65.471v27.91h-25.84v-27.91c0-10.34-8.38-18.72-18.72-18.72h25.84c10.34 0 18.72 8.38 18.72 18.72z" fill="#ff7d43"/><path d="m109.35 172.311v165.9h35.62v127.04h-137.47v-336.87h137.47v26.64c0 9.55-7.74 17.29-17.29 17.29z" fill="#ffa07a"/><path d="m144.97 128.381v26.64c0 9.55-7.74 17.29-17.29 17.29h-18.33v165.9h-26v-165.9h18.33c9.55 0 17.29-7.74 17.29-17.29v-26.64z" fill="#ff7d43"/><path d="m22.5 93.386h107.47v35h-107.47z" fill="#6b717d"/><path d="m100.41 93.385h29.56v35h-29.56z" fill="#47505e"/></g><g><path d="m512 368.207c0-20.678-16.822-37.5-37.5-37.5h-357.652v-150.892h10.833c13.669 0 24.789-11.12 24.789-24.789v-26.64c0-4.142-3.357-7.5-7.5-7.5h-7.5v-20h7.5c4.143 0 7.5-3.358 7.5-7.5v-27.912c0-14.46-11.764-26.224-26.224-26.224h-18.464c-9.916.307-9.909 14.696 0 15h18.464c6.188 0 11.224 5.035 11.224 11.224v20.412h-122.47v-20.412c0-6.189 5.035-11.224 11.224-11.224h46.559c9.916-.307 9.909-14.696 0-15h-46.559c-14.46 0-26.224 11.764-26.224 26.224v27.912c0 4.142 3.357 7.5 7.5 7.5h7.5v20h-7.5c-4.143 0-7.5 3.358-7.5 7.5v143.599c.307 9.916 14.696 9.909 15 0v-136.099h122.47v19.14c0 5.397-4.392 9.789-9.789 9.789h-18.333c-4.143 0-7.5 3.358-7.5 7.5v165.892c0 4.142 3.357 7.5 7.5 7.5h28.122v112.043h-122.47v-150.2c-.307-9.916-14.696-9.909-15 0v157.7c0 4.142 3.357 7.5 7.5 7.5h177.761c9.916-.307 9.909-14.696 0-15h-32.791v-52.043h314.53v52.043h-247c-9.916.307-9.909 14.696 0 15h254.5c4.143 0 7.5-3.358 7.5-7.5v-60.297c17.096-3.484 30-18.636 30-36.746zm-482-267.321h92.47v20h-92.47zm203.5 267.321c0-12.407 10.094-22.5 22.5-22.5 29.808 1.131 29.8 43.873 0 45-12.406 0-22.5-10.094-22.5-22.5zm52.482-22.5h51.065c-9.922 12.493-9.921 32.508 0 45h-51.065c9.922-12.494 9.921-32.508 0-45zm58.547 22.5c0-12.407 10.094-22.5 22.5-22.5 29.808 1.131 29.8 43.873 0 45-12.406 0-22.5-10.094-22.5-22.5zm52.482-22.5h47.507c-9.922 12.493-9.921 32.508 0 45h-47.507c9.923-12.494 9.921-32.508 0-45zm-244.541 0h73.548c-9.923 12.493-9.921 32.508 0 45h-73.548zm322.03 45c-12.406 0-22.5-10.093-22.5-22.5 1.131-29.808 43.873-29.8 45 0 0 12.406-10.094 22.5-22.5 22.5z"/><path d="m209.252 315.707h93.496c4.143 0 7.5-3.358 7.5-7.5v-93.494c0-4.142-3.357-7.5-7.5-7.5h-93.496c-4.143 0-7.5 3.358-7.5 7.5v93.494c0 4.142 3.357 7.5 7.5 7.5zm37.096-93.495h19.305v26.936l-6.564-2.966c-1.963-.888-4.213-.888-6.176 0l-6.564 2.966v-26.936zm-29.596 0h14.596v38.555c0 2.547 1.293 4.92 3.433 6.301 2.141 1.382 4.835 1.583 7.155.533l14.064-6.354 14.064 6.355c2.314 1.047 5.012.851 7.155-.533 2.14-1.381 3.433-3.754 3.433-6.301v-38.555h14.596v78.494h-78.496z"/><path d="m343.356 315.707h29.53c9.916-.307 9.909-14.696 0-15h-22.03v-78.494h14.596v38.555c0 2.547 1.293 4.92 3.433 6.301 2.141 1.382 4.835 1.583 7.155.533l14.064-6.355 14.064 6.355c2.314 1.047 5.012.851 7.155-.533 2.14-1.381 3.433-3.754 3.433-6.301v-38.555h14.596v78.494h-22.029c-9.916.307-9.909 14.696 0 15h29.529c4.143 0 7.5-3.358 7.5-7.5v-93.494c0-4.142-3.357-7.5-7.5-7.5h-93.496c-4.143 0-7.5 3.358-7.5 7.5v93.494c0 4.142 3.358 7.5 7.5 7.5zm56.401-66.559-6.564-2.966c-1.963-.888-4.213-.888-6.176 0l-6.564 2.966v-26.936h19.305v26.936z"/><path d="m40.13 227.267h36c9.916-.307 9.909-14.696 0-15h-36c-9.916.307-9.909 14.696 0 15z"/><path d="m40.13 262.267h36c9.916-.307 9.909-14.696 0-15h-36c-9.916.307-9.909 14.696 0 15z"/><path d="m40.13 297.267h36c9.916-.307 9.909-14.696 0-15h-36c-9.916.307-9.909 14.696 0 15z"/><g><path d="m256.001 360.698c-9.914.306-9.911 14.706 0 15.011 9.914-.306 9.911-14.706 0-15.011z"/><path d="m367.031 360.698c-9.914.306-9.911 14.706 0 15.011 9.914-.306 9.912-14.706 0-15.011z"/><path d="m474.501 360.698c-9.914.306-9.911 14.706 0 15.011 9.914-.306 9.911-14.706 0-15.011z"/><path d="m42.562 424.218c-9.914.306-9.911 14.706 0 15.011 9.913-.306 9.911-14.706 0-15.011z"/><path d="m73.231 424.218c-9.914.306-9.911 14.706 0 15.011 9.914-.306 9.912-14.706 0-15.011z"/></g></g></svg>