<svg id="Layer_1" enable-background="new 0 0 512.001 512.001" height="512" viewBox="0 0 512.001 512.001" width="512" xmlns="http://www.w3.org/2000/svg"><g><path d="m198.739 7.5h114.522v114.526h-114.522z" fill="#6b717d"/><path d="m283 7.5h30.261v114.526h-30.261z" fill="#47505e"/><g><path d="m21 295.99h470v208.511h-470z" fill="#ff6c6c"/><path d="m457.359 295.99h33.641v208.511h-33.641z" fill="#ff4141"/></g></g><g><path d="m313.261 129.527c4.143 0 7.5-3.358 7.5-7.5v-10.762h183.739c9.916-.307 9.909-14.696 0-15h-23.565l29.1-31.827c2.795-3.057 2.583-7.801-.475-10.596-3.056-2.794-7.801-2.583-10.596.474l-35.05 38.334-52.71-57.649h93.296c9.916-.307 9.909-14.696 0-15h-183.739v-12.501c0-4.142-3.357-7.5-7.5-7.5h-49.609c-9.916.307-9.909 14.696 0 15h42.109v99.526h-99.522v-99.526h22.761c9.916-.307 9.909-14.696 0-15h-30.262c-4.142 0-7.5 3.358-7.5 7.5v12.501h-183.738c-9.916.307-9.909 14.696 0 15h93.294l-52.709 57.649-35.05-38.334c-2.795-3.057-7.539-3.269-10.596-.474s-3.269 7.539-.474 10.596l29.1 31.827h-23.565c-9.916.307-9.909 14.696 0 15h183.739v10.762c0 4.142 3.358 7.5 7.5 7.5h49.761v42.6c0 4.142 3.357 7.5 7.5 7.5 8.279 0 15.016 6.737 15.016 15.017-.757 19.897-29.28 19.888-30.032 0-.302-9.911-14.697-9.912-15 0 0 9.447 4.387 17.889 11.232 23.396-5.391 5.782-7.846 14.938-5.776 22.916l-78.088 47.535h-145.852c-9.916.307-9.909 14.696 0 15h6v42.499c.307 9.916 14.696 9.909 15 0v-42.499h455v193.509h-73.283c-9.916.307-9.909 14.696 0 15h94.283c9.916-.307 9.909-14.696 0-15h-6v-193.511h6c9.916-.307 9.909-14.696 0-15h-145.852l-78.087-47.535c2.069-7.98-.385-17.132-5.776-22.915 19.227-15.101 12.353-46.599-11.284-52.465v-36.048h49.76zm28.215-33.262 52.71-57.649 52.71 57.649zm35.69-61.264-56.015 61.264h-.39v-61.264zm-185.927 0v61.264h-.39l-56.015-61.264zm-73.425 3.615 52.71 57.649h-105.419zm64.385 249.873 56.98-34.686c9.021 8.483 24.624 8.482 33.643 0l56.98 34.686zm84.084-53.545c0 5.67-4.612 10.283-10.282 10.283-13.624-.517-13.619-20.052 0-20.567 5.669 0 10.282 4.614 10.282 10.284z"/><path d="m375.739 497h-347.239v-116.447c-.307-9.916-14.696-9.909-15 0v116.447h-6c-9.916.307-9.909 14.696 0 15h368.239c9.916-.307 9.909-14.696 0-15z"/><path d="m308.385 465.082v-129.84c-.307-9.916-14.696-9.909-15 0v129.84c.307 9.917 14.696 9.909 15 0z"/><path d="m263.5 465.082v-129.84c-.307-9.916-14.696-9.909-15 0v129.84c.307 9.917 14.697 9.909 15 0z"/><path d="m203.616 465.082c.307 9.916 14.696 9.909 15 0v-18.92c-.307-9.916-14.696-9.909-15 0z"/><path d="m211.116 418.488c4.143 0 7.5-3.358 7.5-7.5v-75.746c-.307-9.916-14.696-9.909-15 0v75.746c0 4.142 3.357 7.5 7.5 7.5z"/><path d="m173.73 465.247v-129.839c-.307-9.916-14.696-9.909-15 0v129.839c.308 9.917 14.696 9.909 15 0z"/><path d="m128.846 465.413v-129.84c-.307-9.916-14.696-9.909-15 0v129.839c.307 9.917 14.696 9.91 15 .001z"/><path d="m83.961 465.578v-129.84c-.307-9.916-14.696-9.909-15 0v129.84c.307 9.917 14.696 9.909 15 0z"/><path d="m353.27 465.247v-129.839c-.307-9.916-14.696-9.909-15 0v129.839c.307 9.917 14.696 9.909 15 0z"/><path d="m390.655 328.073c-4.143 0-7.5 3.358-7.5 7.5v129.839c.307 9.916 14.696 9.909 15 0v-129.839c0-4.142-3.358-7.5-7.5-7.5z"/><path d="m443.04 465.578v-129.84c-.307-9.916-14.696-9.909-15 0v129.84c.307 9.917 14.696 9.909 15 0z"/><path d="m235.922 87.916c-.18-.45-.42-.89-.689-1.29-.271-.42-.58-.8-.931-1.14-.34-.35-.729-.66-1.14-.94-.4-.27-.84-.5-1.29-.69-.46-.18-.93-.33-1.41-.42-.96-.2-1.96-.2-2.93 0-.48.09-.95.24-1.4.42-.45.19-.89.42-1.3.69-.41.28-.79.59-1.14.94-.341.34-.66.72-.931 1.14-.27.4-.5.84-.689 1.29-.19.45-.33.93-.431 1.4-.185.981-.185 1.96 0 2.94.101.47.24.95.431 1.4.189.45.42.89.689 1.29.271.41.59.8.931 1.14.694.695 1.535 1.251 2.439 1.62.45.19.92.34 1.4.43.961.199 1.968.201 2.93 0 .48-.09.95-.24 1.41-.43.45-.18.89-.42 1.29-.69.41-.27.8-.58 1.14-.93.351-.34.66-.73.931-1.14.27-.4.51-.84.689-1.29.19-.45.34-.93.43-1.4.201-.98.201-1.96 0-2.94-.089-.47-.238-.95-.429-1.4z"/><path d="m236.352 37.276c-.09-.48-.239-.95-.43-1.4-.18-.46-.42-.89-.689-1.3-.271-.41-.58-.79-.931-1.14-.34-.34-.729-.66-1.14-.93-.4-.27-.84-.5-1.29-.69-.46-.19-.93-.33-1.41-.43-.96-.19-1.96-.19-2.93 0-.48.1-.95.24-1.4.43-.905.376-1.744.93-2.439 1.62-.341.35-.66.73-.931 1.14-.27.41-.5.84-.689 1.3-.19.45-.33.92-.431 1.4-.184.965-.185 1.959 0 2.93.101.48.24.95.431 1.4.189.46.42.89.689 1.3.271.41.59.79.931 1.14 1.043 1.044 2.398 1.752 3.84 2.05.961.199 1.968.201 2.93 0 .48-.1.95-.24 1.41-.43.45-.19.89-.42 1.29-.69.41-.27.8-.58 1.14-.93.351-.35.66-.73.931-1.14.27-.41.51-.84.689-1.3.19-.45.34-.92.43-1.4.2-.97.199-1.965-.001-2.93z"/><path d="m275.653 92.246c.09.48.229.96.42 1.41.189.45.42.89.689 1.29.271.41.59.8.931 1.14 1.739 1.75 4.35 2.56 6.77 2.05.48-.09.95-.24 1.41-.43.45-.18.88-.41 1.29-.68.41-.28.8-.59 1.14-.94 2.906-2.786 2.906-7.814 0-10.6-.34-.35-.729-.66-1.14-.94-.41-.27-.84-.5-1.29-.69-.46-.18-.93-.33-1.41-.42-.96-.2-1.96-.2-2.93 0-.48.09-.95.24-1.4.42-.45.19-.89.42-1.3.69-.41.28-.79.59-1.14.94-.341.34-.66.73-.931 1.14-.27.4-.5.84-.689 1.29-.19.45-.33.93-.42 1.4-.2.972-.202 1.962 0 2.93z"/><path d="m276.073 41.606c.189.46.42.89.689 1.3.271.41.59.79.931 1.14 1.044 1.038 2.397 1.756 3.84 2.05.972.199 1.963.201 2.93 0 .48-.1.95-.24 1.41-.43.896-.377 1.746-.932 2.43-1.62 2.909-2.801 2.903-7.813 0-10.61-.684-.688-1.534-1.242-2.43-1.62-.46-.19-.93-.33-1.41-.43-2.43-.49-5.02.31-6.77 2.05-.341.35-.66.73-.931 1.14-.27.41-.5.84-.689 1.3-.19.45-.33.92-.42 1.4-.2.965-.201 1.96 0 2.93.09.48.229.95.42 1.4z"/></g><g><path d="m313.261 129.527c4.143 0 7.5-3.358 7.5-7.5v-10.762h183.739c9.916-.307 9.909-14.696 0-15h-23.565l29.1-31.827c2.795-3.057 2.583-7.801-.475-10.596-3.056-2.794-7.8-2.583-10.596.474l-35.05 38.334-52.709-57.649h93.295c9.916-.307 9.909-14.696 0-15h-183.739v-12.501c0-4.142-3.357-7.5-7.5-7.5h-49.608c-9.916.307-9.909 14.696 0 15h42.108v99.526h-99.522v-99.526h22.761c9.916-.307 9.909-14.696 0-15h-30.261c-4.142 0-7.5 3.358-7.5 7.5v12.501h-183.739c-9.916.307-9.909 14.696 0 15h93.294l-52.709 57.649-35.05-38.334c-2.795-3.057-7.539-3.269-10.596-.474s-3.269 7.539-.474 10.596l29.1 31.827h-23.565c-9.916.307-9.909 14.696 0 15h183.739v10.762c0 4.142 3.358 7.5 7.5 7.5h49.761v42.6c0 4.142 3.357 7.5 7.5 7.5 8.28 0 15.017 6.737 15.017 15.017-.757 19.897-29.281 19.888-30.033 0-.302-9.911-14.697-9.912-15 0 0 9.447 4.387 17.89 11.232 23.396-5.39 5.782-7.845 14.937-5.776 22.915l-78.088 47.535h-145.852c-9.916.307-9.909 14.696 0 15h6v42.499c.307 9.916 14.696 9.909 15 0v-42.499h455v193.51h-73.283c-9.916.307-9.909 14.696 0 15h94.283c9.916-.307 9.909-14.696 0-15h-6v-193.51h6c9.916-.307 9.909-14.696 0-15h-145.852l-78.087-47.535c2.069-7.979-.385-17.131-5.776-22.915 19.228-15.101 12.354-46.6-11.285-52.465v-36.048zm28.215-33.262 52.709-57.649 52.709 57.649zm35.69-61.264-56.015 61.264h-.39v-61.264zm-185.927 0v61.264h-.391l-56.014-61.264zm-73.425 3.615 52.709 57.649h-105.418zm64.385 249.874 56.98-34.686c9.021 8.484 24.623 8.482 33.642 0l56.98 34.686zm84.084-53.546c0 5.67-4.612 10.284-10.282 10.284-13.622-.517-13.619-20.052 0-20.567 5.669 0 10.282 4.612 10.282 10.283z"/><path d="m375.739 497h-347.239v-116.446c-.307-9.916-14.696-9.909-15 0v116.446h-6c-9.916.307-9.909 14.696 0 15h368.239c9.917-.307 9.91-14.696 0-15z"/><path d="m308.385 465.082v-129.84c-.307-9.916-14.696-9.909-15 0v129.84c.307 9.917 14.696 9.909 15 0z"/><path d="m263.5 465.082v-129.84c-.307-9.916-14.696-9.909-15 0v129.84c.307 9.917 14.697 9.909 15 0z"/><path d="m203.615 465.082c.307 9.916 14.696 9.909 15 0v-18.92c-.307-9.916-14.696-9.909-15 0z"/><path d="m211.115 418.488c4.142 0 7.5-3.358 7.5-7.5v-75.746c-.307-9.916-14.696-9.909-15 0v75.746c0 4.142 3.358 7.5 7.5 7.5z"/><path d="m173.73 465.247v-129.839c-.307-9.916-14.696-9.909-15 0v129.839c.308 9.917 14.696 9.909 15 0z"/><path d="m128.846 465.413v-129.839c-.307-9.916-14.696-9.909-15 0v129.839c.307 9.916 14.696 9.909 15 0z"/><path d="m83.961 465.578v-129.84c-.307-9.916-14.696-9.909-15 0v129.84c.307 9.917 14.696 9.909 15 0z"/><path d="m353.27 465.247v-129.839c-.307-9.916-14.696-9.909-15 0v129.839c.307 9.917 14.696 9.91 15 0z"/><path d="m390.654 328.074c-4.143 0-7.5 3.358-7.5 7.5v129.839c.307 9.916 14.696 9.909 15 0v-129.839c0-4.142-3.357-7.5-7.5-7.5z"/><path d="m443.039 465.578v-129.84c-.307-9.916-14.696-9.909-15 0v129.84c.307 9.917 14.696 9.91 15 0z"/><g><path d="m229.002 83.286c-9.914.306-9.911 14.695 0 15 9.913-.306 9.911-14.695 0-15z"/><path d="m229.002 31.246c-9.914.306-9.911 14.695 0 15 9.913-.306 9.911-14.695 0-15z"/><path d="m283.001 46.246c9.914-.306 9.911-14.695 0-15-9.913.307-9.911 14.696 0 15z"/><path d="m283.001 83.286c-9.914.306-9.911 14.695 0 15 9.914-.306 9.912-14.695 0-15z"/></g></g></svg>