<svg id="Layer_1" enable-background="new 0 0 512 512" height="512" viewBox="0 0 512 512" width="512" xmlns="http://www.w3.org/2000/svg"><g><g><path d="m221 122.026h70v35.917h-70z" fill="#47505e"/></g><path d="m271 295.379h-30v19c0 8.284 6.716 15 15 15 8.284 0 15-6.716 15-15z" fill="#ff6c6c"/><path d="m313.5 157.94v94l-42.5 43.44h-30l-42.5-43.44v-94z" fill="#e3eaee"/><path d="m313.5 157.94v94l-42.5 43.44h-30l42.5-43.44v-94z" fill="#ced9e1"/><circle cx="256" cy="231.661" fill="#6b717d" r="15"/><path d="m369.22 504.5h-226.44c0-22.28 8-42.69 21.29-58.52h183.86c6.65 7.92 11.97 16.98 15.63 26.84 3.66 9.87 5.66 20.54 5.66 31.68z" fill="#6b717d"/><path d="m369.22 504.5h-30c0-11.14-2-21.81-5.66-31.68-3.66-9.86-8.98-18.92-15.63-26.84h30c6.65 7.92 11.97 16.98 15.63 26.84 3.66 9.87 5.66 20.54 5.66 31.68z" fill="#47505e"/><path d="m398.83 385.47-83.48 88.47-6.38-1.94-52.97-16.06-59.35 18-83.48-88.47 57.66 13.74 24.65-52.87 60.52 42.95 57.5-40.81 3.02-2.14 24.65 52.87z" fill="#f3d6ae"/><path d="m398.83 385.47-83.48 88.47-6.38-1.94 32.83-52.66h-28.3v-70.86l3.02-2.14 24.65 52.87z" fill="#edba75"/><g><path d="m7.5 45.698h497v32.24h-497z" fill="#e3eaee"/><path d="m474.5 45.698h30v32.24h-30z" fill="#ced9e1"/></g><g><path d="m148.739 7.5h214.522v114.526h-214.522z" fill="#6b717d"/><path d="m333 7.5h30.261v114.526h-30.261z" fill="#47505e"/></g></g><g><path d="m504.5 70.437h-133.739v-17.239h133.739c9.916-.307 9.909-14.696 0-15h-133.739v-30.698c0-4.142-3.357-7.5-7.5-7.5h-132.174c-9.916.307-9.909 14.696 0 15h124.674v99.526h-199.522v-99.526h40.195c9.916-.307 9.909-14.696 0-15h-47.695c-4.143 0-7.5 3.358-7.5 7.5v30.698h-133.739c-9.916.307-9.909 14.696 0 15h133.739v17.239h-133.739c-9.916.307-9.909 14.696 0 15h133.739v36.589c0 4.142 3.357 7.5 7.5 7.5h64.761v20.917h-15c-4.143 0-7.5 3.358-7.5 7.5v94c0 1.961.768 3.844 2.14 5.245l40.36 41.249v15.942c1.135 29.816 43.876 29.793 45 0v-15.942l40.36-41.249c1.372-1.401 2.14-3.284 2.14-5.245v-37.651c-.307-9.916-14.696-9.909-15 0v34.592l-38.154 38.995h-23.691l-38.155-38.995v-83.441h100v14.631c.307 9.916 14.696 9.909 15 0v-22.131c0-4.142-3.357-7.5-7.5-7.5h-15v-20.917h64.761c4.143 0 7.5-3.358 7.5-7.5v-36.589h133.739c9.916-.307 9.909-14.696 0-15zm-241 232.442v11.5c-.316 9.914-14.687 9.907-15 0v-11.5zm20-152.436h-55v-20.917h55z"/><path d="m233.5 231.661c0 12.407 10.094 22.5 22.5 22.5 29.808-1.131 29.8-43.873 0-45-12.406 0-22.5 10.093-22.5 22.5zm30 0c-.315 9.912-14.687 9.909-15 0 .315-9.912 14.687-9.909 15 0z"/><path d="m263.5 419.335v-58.957c-.307-9.916-14.696-9.909-15 0v58.957c.307 9.917 14.696 9.91 15 0z"/><path d="m151.564 346.386-37.956-23.392c-8.604-4.942-16.145 7.313-7.869 12.77l37.956 23.392c3.47 2.154 8.133 1.107 10.319-2.45 2.174-3.527 1.077-8.147-2.45-10.32z"/><path d="m170.198 325.316c.938 0 1.891-.177 2.812-.551 3.84-1.555 5.691-5.928 4.136-9.767l-8.348-20.608c-1.555-3.84-5.93-5.692-9.767-4.136-3.84 1.555-5.691 5.928-4.136 9.767l8.348 20.609c1.183 2.916 3.99 4.686 6.955 4.686z"/><path d="m130.326 438.715-27.652-7.121c-4.009-1.034-8.101 1.382-9.133 5.393-1.033 4.011 1.381 8.1 5.393 9.133l27.652 7.121c3.903 1.038 8.115-1.35 9.133-5.393 1.033-4.011-1.381-8.1-5.393-9.133z"/><path d="m357.984 356.705c2.186 3.557 6.849 4.604 10.319 2.45l37.957-23.392c3.526-2.173 4.623-6.793 2.45-10.319-2.173-3.528-6.793-4.622-10.319-2.45l-37.957 23.392c-3.526 2.173-4.622 6.793-2.45 10.319z"/><path d="m352.969 290.254c-3.842-1.556-8.212.297-9.768 4.135l-8.349 20.609c-1.556 3.839.296 8.212 4.135 9.767 3.742 1.545 8.213-.258 9.768-4.135l8.349-20.609c1.555-3.839-.296-8.212-4.135-9.767z"/><path d="m409.325 431.594-27.652 7.121c-4.012 1.033-6.426 5.122-5.393 9.133 1.017 4.043 5.229 6.431 9.133 5.393l27.652-7.121c9.527-2.77 5.931-16.702-3.74-14.526z"/><path d="m404.281 390.613c2.275-2.412 2.697-6.031 1.038-8.901s-5.005-4.31-8.231-3.542l-51.702 12.321-22.067-47.325c-.939-2.017-2.728-3.512-4.879-4.081-2.149-.57-4.444-.153-6.259 1.134l-30.659 21.761c-7.909 5.989.425 17.72 8.682 12.232l23.323-16.554 20.851 44.716c1.504 3.228 5.073 4.952 8.535 4.126l33.228-7.918-63.06 66.836-54.903-16.652c-1.42-.431-2.934-.431-4.354 0l-54.904 16.652-63.059-66.837 33.228 7.919c3.46.825 7.031-.899 8.536-4.126l20.849-44.716 23.323 16.554c3.378 2.397 8.059 1.603 10.457-1.775 2.397-3.377 1.603-8.06-1.775-10.457l-30.659-21.761c-1.815-1.288-4.111-1.705-6.259-1.134-2.151.569-3.939 2.064-4.88 4.081l-22.065 47.325-51.702-12.321c-3.222-.765-6.572.671-8.231 3.542-1.659 2.87-1.237 6.489 1.038 8.901l49.246 52.197c-13.997 17.439-21.683 39.259-21.683 61.691 0 4.142 3.357 7.5 7.5 7.5h27.413c9.916-.307 9.909-14.696 0-15h-19.577c1.414-15.648 7.222-30.645 16.756-43.156l23.82 25.247c1.952 2.069 4.907 2.854 7.632 2.03l57.172-17.34 57.171 17.34c.717.217 1.449.323 2.176.323 2.034 0 4.018-.828 5.456-2.353l23.82-25.247c9.534 12.511 15.343 27.508 16.756 43.156h-156.64c-9.916.307-9.909 14.696 0 15h164.478c4.143 0 7.5-3.358 7.5-7.5 0-22.431-7.685-44.252-21.683-61.69z"/><g><path d="m178.998 83.284c-9.914.306-9.911 14.695 0 15 9.914-.307 9.911-14.696 0-15z"/><path d="m178.998 31.244c-9.914.306-9.911 14.695 0 15 9.914-.307 9.911-14.696 0-15z"/><path d="m332.998 83.284c-9.914.306-9.911 14.695 0 15 9.914-.307 9.911-14.696 0-15z"/><path d="m332.998 46.244c9.914-.306 9.911-14.695 0-15-9.914.306-9.911 14.695 0 15z"/></g></g></svg>