<svg id="Layer_1" enable-background="new 0 0 511.869 511.869" height="512" viewBox="0 0 511.869 511.869" width="512" xmlns="http://www.w3.org/2000/svg"><g><path d="m431.324 134.195c-3.45 3.45-5.59 8.22-5.59 13.49 0 10.55 8.55 19.09 19.09 19.09h9.59v178.17h-9.59c-10.54 0-19.09 8.55-19.09 19.09s8.55 19.09 19.09 19.09h9.59v71.22h-396.96v-71.22h9.59c5.27 0 10.04-2.14 13.5-5.59 3.45-3.46 5.59-8.23 5.59-13.5 0-10.54-8.55-19.09-19.09-19.09h-9.59v-178.17h9.59c5.27 0 10.04-2.14 13.5-5.59 3.45-3.45 5.59-8.23 5.59-13.5 0-10.54-8.55-19.08-19.09-19.08h-9.59v-71.22h396.96v71.22h-9.59c-5.27 0-10.04 2.13-13.5 5.59z" fill="#6b717d"/><path d="m431.324 134.195c-3.45 3.45-5.59 8.22-5.59 13.49 0 10.55 8.55 19.09 19.09 19.09h9.59v178.17h-9.59c-10.54 0-19.09 8.55-19.09 19.09s8.55 19.09 19.09 19.09h9.59v71.22h-30v-71.22h.41c-10.54 0-19.09-8.55-19.09-19.09s8.55-19.09 19.09-19.09h-.41v-178.17h.41c-10.54 0-19.09-8.54-19.09-19.09 0-5.27 2.14-10.04 5.59-13.49 3.46-3.46 8.23-5.59 13.5-5.59h-.41v-71.22h30v71.22h-9.59c-5.27 0-10.04 2.13-13.5 5.59z" fill="#47505e"/><path d="m128.673 128.601h254.522v254.522h-254.522z" fill="#ffa07a"/><path d="m353.456 128.601h29.739v254.522h-29.739z" fill="#ff7d43"/><path d="m290.717 290.927h47.37v47.37h-47.37z" fill="#fff"/></g><g><path d="m157.804 136.102c9.916-.307 9.909-14.696 0-15h-29.13c-4.143 0-7.5 3.358-7.5 7.5v254.521c0 4.142 3.357 7.5 7.5 7.5h254.521c4.143 0 7.5-3.358 7.5-7.5v-76.464c-.307-9.916-14.696-9.909-15 0v68.964h-239.521v-239.521z"/><path d="m383.195 278.71c4.143 0 7.5-3.358 7.5-7.5v-142.608c0-4.142-3.357-7.5-7.5-7.5h-190.739c-9.916.307-9.909 14.696 0 15h183.239v135.108c0 4.142 3.358 7.5 7.5 7.5z"/><path d="m504.435 213.159c9.916-.307 9.909-14.696 0-15h-42.521v-31.383c0-4.142-3.357-7.5-7.5-7.5h-9.588c-15.356-.584-15.344-22.596 0-23.175h9.588c4.143 0 7.5-3.358 7.5-7.5v-28.442h42.521c9.916-.307 9.909-14.696 0-15h-42.521v-27.775c0-4.142-3.357-7.5-7.5-7.5h-27.704v-42.449c-.307-9.916-14.696-9.909-15 0v42.45h-98v-42.45c-.307-9.916-14.696-9.909-15 0v42.45h-35.203v-42.45c-.307-9.916-14.696-9.909-15 0v42.45h-35.797v-42.45c-.307-9.916-14.696-9.909-15 0v42.45h-97.551v-42.45c-.307-9.916-14.696-9.909-15 0v42.45h-27.703c-4.143 0-7.5 3.358-7.5 7.5v27.775h-42.521c-9.916.307-9.909 14.696 0 15h42.521v28.442c0 4.142 3.357 7.5 7.5 7.5h9.588c15.356.584 15.344 22.596 0 23.175h-9.588c-4.143 0-7.5 3.358-7.5 7.5v31.383h-42.521c-9.916.307-9.909 14.696 0 15h42.521v35.203h-42.521c-9.916.307-9.909 14.696 0 15h42.521v35.797h-42.521c-9.916.307-9.909 14.696 0 15h42.521v30.789c0 4.142 3.357 7.5 7.5 7.5h9.588c15.355.584 15.344 22.596 0 23.175h-9.588c-4.143 0-7.5 3.358-7.5 7.5v28.587h-42.521c-9.916.307-9.909 14.696 0 15h42.521v27.63c0 4.142 3.357 7.5 7.5 7.5h27.703v42.594c.307 9.916 14.696 9.909 15 0v-42.595h97.551v42.594c.307 9.916 14.696 9.909 15 0v-42.594h35.797v42.594c.307 9.916 14.696 9.909 15 0v-42.594h35.203v42.594c.307 9.916 14.696 9.909 15 0v-42.594h26.181c9.916-.307 9.909-14.696 0-15h-274.935v-56.217h2.088c35.233-1.341 35.206-51.847 0-53.175h-2.088v-163.172h2.088c35.233-1.341 35.206-51.846 0-53.175h-2.088v-56.217h381.957v56.217h-2.088c-35.233 1.341-35.206 51.846 0 53.175h2.088v163.171h-2.088c-35.233 1.341-35.206 51.847 0 53.175h2.088v56.217h-72.37c-9.916.307-9.909 14.696 0 15h37.167v42.594c.307 9.916 14.696 9.909 15 0v-42.593h27.703c4.143 0 7.5-3.358 7.5-7.5v-27.63h42.521c9.916-.307 9.909-14.696 0-15h-42.521v-28.587c0-4.142-3.357-7.5-7.5-7.5h-9.588c-15.356-.584-15.344-22.596 0-23.175h9.588c4.143 0 7.5-3.358 7.5-7.5v-30.789h42.521c9.916-.307 9.909-14.696 0-15h-42.521v-35.797h42.521c9.916-.307 9.909-14.696 0-15h-42.521v-35.203z"/><path d="m338.087 283.427h-47.37c-4.143 0-7.5 3.358-7.5 7.5v47.37c0 4.142 3.357 7.5 7.5 7.5h47.37c4.143 0 7.5-3.358 7.5-7.5v-47.37c0-4.142-3.358-7.5-7.5-7.5zm-7.5 47.37h-32.37v-32.37h32.37z"/><path d="m166.282 173.427c0 4.142 3.357 7.5 7.5 7.5h164.305c9.916-.307 9.909-14.696 0-15h-164.305c-4.142 0-7.5 3.358-7.5 7.5z"/><path d="m173.782 215.927h164.305c9.916-.307 9.909-14.696 0-15h-164.305c-9.916.307-9.909 14.696 0 15z"/><path d="m173.782 250.927h164.305c9.916-.307 9.909-14.696 0-15h-164.305c-9.916.307-9.909 14.696 0 15z"/><path d="m166.282 338.297c.307 9.916 14.696 9.909 15 0v-47.37c-.307-9.916-14.696-9.909-15 0z"/><path d="m201.543 290.927v47.37c.307 9.916 14.696 9.909 15 0v-47.37c-.307-9.916-14.696-9.909-15 0z"/><path d="m236.543 290.927v47.37c.307 9.916 14.696 9.909 15 0v-47.37c-.307-9.916-14.696-9.909-15 0z"/><path d="m91.937 85.152c-9.914.306-9.911 14.706 0 15.011 9.914-.307 9.912-14.707 0-15.011z"/><path d="m418.937 100.163c9.914-.306 9.911-14.706 0-15.011-9.913.306-9.911 14.706 0 15.011z"/><path d="m418.937 427.163c9.914-.306 9.911-14.706 0-15.011-9.913.306-9.911 14.706 0 15.011z"/><path d="m91.937 412.152c-9.914.306-9.911 14.706 0 15.011 9.914-.307 9.912-14.707 0-15.011z"/></g></svg>