<svg id="Layer_1" enable-background="new 0 0 512 512" height="512" viewBox="0 0 512 512" width="512" xmlns="http://www.w3.org/2000/svg"><g><path d="m416 36.95v445.03h-320v-445.03c0-16.27 13.18-29.45 29.45-29.45h261.1c16.27 0 29.45 13.18 29.45 29.45z" fill="#6b717d"/><path d="m416 36.95v445.03h-35v-445.03c0-16.27-13.18-29.45-29.45-29.45h35c16.27 0 29.45 13.18 29.45 29.45z" fill="#47505e"/><path d="m131 43.087h250v242.87h-250z" fill="#fff"/><path d="m346.217 43.087h34.783v242.87h-34.783z" fill="#e3eaee"/><path d="m165.826 77.609h116.348v129.348h-116.348z" fill="#72bbff"/><path d="m165.826 171.783h116.348v35.174h-116.348z" fill="#e3eaee"/><path d="m316.217 77.609h30v30h-30z" fill="#ff6c6c"/><path d="m316.217 141.783h30v30h-30z" fill="#f3d6ae"/><g><path d="m444.5 504.5v-31.06c0-7.72-6.26-13.98-13.98-13.98h-349.04c-7.72 0-13.98 6.26-13.98 13.98v31.06z" fill="#e3eaee"/><path d="m444.5 504.5v-31.06c0-7.72-6.26-13.98-13.98-13.98h-30c7.72 0 13.98 6.26 13.98 13.98v31.06z" fill="#ced9e1"/></g></g><g><path d="m474.5 497h-22.5v-23.568c0-11.842-9.634-21.476-21.476-21.476h-7.024v-415.01c0-20.372-16.574-36.946-36.945-36.946h-205.381c-9.916.307-9.909 14.696 0 15h205.381c12.101 0 21.945 9.845 21.945 21.946v415.011h-207.587c-9.916.307-9.909 14.696 0 15h229.611c3.571 0 6.476 2.905 6.476 6.476v23.567h-362v-23.568c0-3.571 2.905-6.476 6.476-6.476h84.351c9.916-.307 9.909-14.696 0-15h-62.327v-415.01c0-12.101 9.845-21.946 21.946-21.946h20.598c9.916-.307 9.909-14.696 0-15h-20.598c-20.372 0-36.946 16.574-36.946 36.946v415.011h-7.024c-11.842 0-21.476 9.633-21.476 21.475v23.568h-22.5c-9.916.307-9.909 14.696 0 15h437c9.916-.307 9.909-14.696 0-15z"/><path d="m381 215.892c4.142 0 7.5-3.358 7.5-7.5v-165.305c0-4.142-3.358-7.5-7.5-7.5h-250c-4.142 0-7.5 3.358-7.5 7.5v242.869c0 4.142 3.358 7.5 7.5 7.5h250c4.142 0 7.5-3.358 7.5-7.5v-42.391c-.307-9.916-14.696-9.909-15 0v34.891h-235v-227.869h235v157.804c0 4.143 3.358 7.501 7.5 7.501z"/><path d="m289.674 206.957v-129.348c0-4.142-3.358-7.5-7.5-7.5h-116.348c-4.142 0-7.5 3.358-7.5 7.5v129.348c0 4.142 3.358 7.5 7.5 7.5h116.348c4.142 0 7.5-3.358 7.5-7.5zm-15-7.5h-101.348v-20.174h101.348zm0-35.174h-101.348v-79.174h101.348z"/><path d="m353.718 77.609c0-4.142-3.358-7.5-7.5-7.5h-30c-4.142 0-7.5 3.358-7.5 7.5v30c0 4.142 3.358 7.5 7.5 7.5h30c4.142 0 7.5-3.358 7.5-7.5zm-15 22.5h-15v-15h15z"/><path d="m353.718 141.783c0-4.142-3.358-7.5-7.5-7.5h-30c-4.142 0-7.5 3.358-7.5 7.5v30c0 4.142 3.358 7.5 7.5 7.5h30c4.142 0 7.5-3.358 7.5-7.5zm-15 22.5h-15v-15h15z"/><path d="m346.218 199.457h-30c-9.916.307-9.909 14.696 0 15h30c9.916-.308 9.909-14.696 0-15z"/><path d="m165.826 239.848c-9.916.307-9.909 14.696 0 15h67.739c9.916-.307 9.909-14.696 0-15z"/><path d="m211.109 420.631c4.142 0 7.5-3.358 7.5-7.5v-65c-1.134-29.816-43.876-29.793-45 0v65c.307 9.916 14.696 9.909 15 0v-12.5h15v12.5c0 4.142 3.358 7.5 7.5 7.5zm-22.5-35v-37.5c.316-9.914 14.687-9.907 15 0v37.5z"/><path d="m249.239 420.631c4.142 0 7.5-3.358 7.5-7.5v-72.5h7.5c9.916-.307 9.909-14.696 0-15h-30c-9.916.307-9.909 14.696 0 15h7.5v72.5c0 4.142 3.358 7.5 7.5 7.5z"/><path d="m331.239 420.631c4.142 0 7.5-3.358 7.5-7.5v-80c0-3.017-1.807-5.74-4.587-6.911-2.778-1.171-5.991-.563-8.15 1.543l-15.263 14.89-15.263-14.89c-2.159-2.107-5.371-2.715-8.15-1.543-2.78 1.171-4.587 3.895-4.587 6.911v80c.307 9.916 14.696 9.909 15 0v-62.205l7.763 7.573c2.913 2.843 7.562 2.843 10.475 0l7.763-7.573v62.205c-.001 4.142 3.357 7.5 7.499 7.5z"/><path d="m130.996 417.542c-9.914.306-9.911 14.695 0 15 9.913-.306 9.911-14.695 0-15z"/><path d="m130.996 313.762c-9.914.306-9.911 14.695 0 15 9.913-.306 9.911-14.696 0-15z"/><path d="m380.996 313.762c-9.914.306-9.911 14.695 0 15 9.913-.306 9.911-14.696 0-15z"/><path d="m380.996 417.542c-9.914.306-9.911 14.695 0 15 9.913-.306 9.911-14.695 0-15z"/></g></svg>