<svg id="Layer_1" enable-background="new 0 0 512.116 512.116" height="512" viewBox="0 0 512.116 512.116" width="512" xmlns="http://www.w3.org/2000/svg"><g><path d="m226.335 350.881h-111.71c0-25.67 17.29-47.3 40.85-53.86 4.77-1.33 9.8-2.04 15-2.04 30.85 0 55.86 25.03 55.86 55.9z" fill="#ff6c6c"/><path d="m226.335 350.881h-30c0-25.67-17.29-47.3-40.86-53.86 4.77-1.33 9.8-2.04 15-2.04 30.85 0 55.86 25.03 55.86 55.9z" fill="#ff4141"/><path d="m61.131 350.879h218.693v44.887h-218.693z" fill="#6b717d"/><g><ellipse cx="45.963" cy="213.804" fill="#6b717d" rx="38.348" ry="38.376"/></g><path d="m82.778 224.541-26.086 26.106 68.067 68.118 30.506-21.683z" fill="#e3eaee"/><g><path d="m124.759 159.311-42.394 42.426-27.036-25.155 40.058-40.088z" fill="#e3eaee"/></g><path d="m71.771 58.602h131.05v54.84h-131.05z" fill="#ff6c6c"/><path d="m175.202 58.602h27.619v54.84h-27.619z" fill="#ff4141"/><path d="m185.115 113.441c0 26.43-21.41 47.86-47.82 47.86-5.24 0-10.28-.84-15-2.41-19.07-6.29-32.82-24.27-32.82-45.45z" fill="#6b717d"/><path d="m185.115 113.441c0 26.43-21.41 47.86-47.82 47.86-5.24 0-10.28-.84-15-2.41 19.07-6.29 32.82-24.27 32.82-45.45z" fill="#47505e"/><g><path d="m380.764 143.534c-8.284 0-15 6.716-15 15v19h30v-19c0-8.284-6.716-15-15-15z" fill="#f3d6ae"/><g><path d="m7.615 395.847h303.152v70.457h-303.152z" fill="#e3eaee"/><path d="m279.824 207.672h30.943v188.174h-30.943z" fill="#ff4141"/><path d="m504.615 346.402v119.9h-193.85v-288.63h130.39c16.57 0 30 13.43 30 30h-23.25l55.04 130.5c1.1 2.6 1.67 5.4 1.67 8.23z" fill="#ff6c6c"/><path d="m504.615 346.402v119.9h-32.7v-119.76l-56.71-138.87h23.26c0-16.57-13.44-30-30-30h32.69c16.57 0 30 13.43 30 30h-23.25l55.04 130.5c1.1 2.6 1.67 5.4 1.67 8.23z" fill="#ff4141"/><g fill="#fff"><path d="m461.889 321.988-46.685-114.316h-74.436v114.316z"/><g><circle cx="99.479" cy="466.303" r="38.348"/><circle cx="412.751" cy="466.303" r="38.348"/></g></g></g></g></g><g><path d="m340.55 344.512c-9.916.307-9.909 14.696 0 15h17.087c9.916-.307 9.909-14.696 0-15z"/><path d="m468.114 326.035c1.393-2.073 1.663-4.704.719-7.017l-46.685-114.4c-1.151-2.822-3.896-4.667-6.944-4.667h-74.437c-4.142 0-7.5 3.358-7.5 7.5v114.4c0 4.142 3.358 7.5 7.5 7.5h121.121c2.499.001 4.833-1.243 6.226-3.316zm-119.846-111.083h14.635v99.4h-14.635zm29.635 99.4v-99.4h32.261l40.563 99.4z"/><path d="m509.861 335.134-50.659-120.182h11.956c4.142 0 7.5-3.358 7.5-7.5 0-20.689-16.822-37.522-37.5-37.522h-37.892v-11.664c-1.134-29.816-43.876-29.793-45 0v11.664h-47.5c-4.142 0-7.5 3.358-7.5 7.5v22.522h-23.443c-4.142 0-7.5 3.358-7.5 7.5v135.927h-38.932c-3.765-35.97-39.874-62.479-75.799-54.578l-66.552-66.602c1.117-5.894 1.009-12.411-.293-18.24l36.121-36.148c30.848 6.269 61.472-16.244 65.24-46.869h10.712c4.142 0 7.5-3.358 7.5-7.5v-78.276h6.975c9.916-.307 9.909-14.696 0-15h-6.975v-12.515c-.307-9.916-14.696-9.909-15 0v12.515h-50.525v-12.515c-.307-9.916-14.696-9.909-15 0v12.515h-50.524v-12.515c-.307-9.916-14.696-9.909-15 0v12.515h-6.975c-9.916.307-9.909 14.696 0 15h6.975v78.276c0 4.142 3.358 7.5 7.5 7.5h10.712c.666 4.902 1.976 9.602 3.842 14.012l-33.467 33.492c-9.604-1.482-19.773.236-28.335 4.799-8.616 4.918-1.871 17.623 7.027 13.252 19.939-11 45.657 4.491 45.261 27.308 0 17.025-13.838 30.876-30.847 30.876s-30.848-13.851-30.848-30.876c0-2.796.372-5.565 1.105-8.229 1.1-3.994-1.247-8.123-5.24-9.222-3.995-1.1-8.122 1.246-9.222 5.24-9.334 31.943 19.971 63.91 52.589 57.318l60.895 60.94c-4.004 7.11-6.677 15.066-7.679 23.527h-46.432c-4.142 0-7.5 3.358-7.5 7.5v37.387h-46.016c-4.142 0-7.5 3.358-7.5 7.5v70.509c0 4.142 3.358 7.5 7.5 7.5h46.629c9.326 50.851 81.164 50.815 90.47 0h27.531c9.916-.307 9.909-14.696 0-15h-27.531c-9.326-50.85-81.163-50.815-90.47 0h-39.129v-55.509h288.152v55.509h-96.196c-9.916.307-9.909 14.696 0 15h160.444c9.326 50.851 81.163 50.815 90.47 0h46.629c4.142 0 7.5-3.358 7.5-7.5v-28.771c-.307-9.916-14.696-9.909-15 0v21.271h-39.129c-9.326-50.85-81.163-50.814-90.47 0h-49.248v-176.083c-.307-9.916-14.696-9.909-15 0v105.573h-15.943v-173.313h15.943v32.889c.307 9.916 14.696 9.909 15 0v-62.912h122.892c9.781 0 18.124 6.279 21.217 15.022h-14.474c-2.513 0-4.859 1.259-6.249 3.353s-1.638 4.745-.662 7.061l55.048 130.595c.714 1.695 1.077 3.486 1.077 5.325v18.242h-16.868c-9.916.307-9.909 14.696 0 15h16.868v22.646c.307 9.916 14.696 9.909 15 0v-55.888c-.001-3.85-.76-7.602-2.256-11.151zm-136.593-176.868c.316-9.914 14.687-9.907 15 0v11.525h-15zm-273.789 277.132c17.01 0 30.848 13.851 30.848 30.876-1.551 40.905-60.151 40.895-61.696 0 .001-17.024 13.839-30.876 30.848-30.876zm313.272 0c17.009 0 30.848 13.851 30.848 30.876-1.551 40.906-60.151 40.894-61.696 0 0-17.024 13.839-30.876 30.848-30.876zm-217.43-400.232v15.936h-50.525v-15.936zm-65.525 0v15.936h-50.525v-15.936zm-50.525 30.936h116.05v39.84h-116.05zm97.646 54.84c-8.913 43.538-70.345 43.508-79.242 0zm-108.322 52.975 25.686-25.705c4.638 5.734 10.396 10.527 16.938 14.04l-26.713 26.733c-4.009-6.212-9.475-11.397-15.911-15.068zm1.097 79.129c6.321-3.841 11.646-9.169 15.486-15.493l56.716 56.758c-6.651 3.379-12.63 7.898-17.678 13.299zm100.786 49.437c24.115 0 44.163 17.759 47.775 40.896h-95.549c3.612-23.137 23.66-40.896 47.774-40.896zm-101.846 85.783v-29.887h203.692v29.887z"/><path d="m380.768 120.942c4.142 0 7.5-3.358 7.5-7.5v-17.622c-.307-9.916-14.696-9.909-15 0v17.622c0 4.142 3.357 7.5 7.5 7.5z"/><path d="m344.447 130.062c2.609 3.242 7.34 3.725 10.545 1.141 3.227-2.597 3.738-7.318 1.141-10.545l-11.044-13.725c-2.597-3.226-7.317-3.737-10.545-1.141-3.227 2.597-3.738 7.318-1.141 10.545z"/><path d="m406.543 131.203c3.205 2.585 7.936 2.101 10.545-1.141l11.044-13.725c2.597-3.227 2.086-7.948-1.141-10.545-3.227-2.595-7.949-2.085-10.545 1.141l-11.044 13.725c-2.596 3.227-2.086 7.948 1.141 10.545z"/><g><path d="m99.483 458.77c-9.914.306-9.911 14.695 0 15 9.914-.306 9.912-14.695 0-15z"/><path d="m412.753 458.77c-9.914.306-9.911 14.695 0 15 9.914-.306 9.912-14.695 0-15z"/><path d="m45.963 206.3c-9.914.306-9.911 14.695 0 15 9.914-.306 9.912-14.695 0-15z"/></g></g></svg>