<svg id="Layer_1" enable-background="new 0 0 511.935 511.935" height="512" viewBox="0 0 511.935 511.935" width="512" xmlns="http://www.w3.org/2000/svg"><g><g><path d="m104.383 401.527h146.424v42.961h-146.424z" fill="#d6eaec"/><path d="m222.696 401.527h28.11v42.961h-28.11z" fill="#b5d9dd"/></g><g><path d="m67.464 444.462h220.261v60h-220.261z" fill="#47505e"/><g fill="#d6eaec"><ellipse cx="67.464" cy="474.462" rx="29.997" ry="30"/><ellipse cx="287.725" cy="474.462" rx="29.997" ry="30"/><ellipse cx="176.705" cy="474.462" rx="29.997" ry="30"/></g></g><path d="m393.467 411.518h53.152v29.387h-53.152z" fill="#6b717d"/><path d="m109.347 54.838c-8.284 0-15 6.716-15 15v19.025h30v-19.025c0-8.284-6.715-15-15-15z" fill="#f3d6ae"/><path d="m317.722 372.705 47.897-29.973v-27.975h-47.897z" fill="#b5d9dd"/><path d="m317.727 286.655v114.87h-280.26v-312.69h141.91c16.57 0 30 13.43 30 29.99h-26.59l16.59 146.2h96.69c11.96 0 21.66 9.68 21.66 21.63z" fill="#72bbff"/><path d="m317.727 286.655v114.87h-34.78v-114.87c0-11.95-9.7-21.63-21.66-21.63h34.78c11.96 0 21.66 9.68 21.66 21.63z" fill="#009af6"/><path d="m209.377 118.825h-26.59l16.59 146.2h-34.78l-17-141.74h28.15c0-16.57-14.58-34.45-31.15-34.45h34.78c16.57 0 30 13.43 30 29.99z" fill="#009af6"/><path d="m317.727 299.605v101.92h-128.62v-75.6c0-14.54 11.79-26.32 26.34-26.32z" fill="#6b717d"/><path d="m282.947 299.605h34.78v101.92h-34.78z" fill="#47505e"/><path d="m147.601 123.28h-75.137v141.743h92.135z" fill="#fff"/><path d="m474.467 219.315v192.2h-108.85v-192.2c0-24.67 16.42-45.51 38.93-52.18 4.91-1.46 10.11-2.24 15.5-2.24 30.05 0 54.42 24.36 54.42 54.42z" fill="#72bbff"/><path d="m474.467 219.315v192.2h-31v-192.2c0-24.67-16.42-45.5-38.92-52.18 4.91-1.46 10.11-2.24 15.5-2.24 30.05 0 54.42 24.36 54.42 54.42z" fill="#009af6"/><path d="m474.467 219.315v19.68h-108.85v-19.68c0-24.67 16.42-45.51 38.93-52.18 4.91-1.46 10.11-2.24 15.5-2.24 30.05 0 54.42 24.36 54.42 54.42z" fill="#6b717d"/><path d="m474.467 219.315v19.68h-31v-19.68c0-24.67-16.42-45.5-38.92-52.18 4.91-1.46 10.11-2.24 15.5-2.24 30.05 0 54.42 24.36 54.42 54.42z" fill="#47505e"/><ellipse cx="420.043" cy="363.757" fill="#009af6" rx="15" ry="14.987"/></g><g><path d="m140.947 130.78 7.237 60.344c.494 4.112 4.224 7.058 8.34 6.554 4.113-.493 7.047-4.227 6.554-8.339l-8.029-66.951c-.452-3.771-3.65-6.607-7.447-6.607h-75.138c-4.142 0-7.5 3.357-7.5 7.5v141.743c0 4.143 3.358 7.5 7.5 7.5h92.136c4.367.099 8.065-4.07 7.447-8.394l-5.013-41.801c-.494-4.111-4.225-7.057-8.34-6.553-4.113.493-7.047 4.227-6.554 8.34l4.007 33.407h-76.183v-126.743z"/><path d="m109.348 32.541c4.142 0 7.5-3.357 7.5-7.5v-17.606c-.307-9.916-14.696-9.909-15 0v17.606c0 4.143 3.358 7.5 7.5 7.5z"/><path d="m73.029 41.653c2.611 3.24 7.341 3.721 10.545 1.136 3.226-2.599 3.735-7.319 1.136-10.546l-11.044-13.712c-2.599-3.225-7.32-3.734-10.545-1.136-3.226 2.599-3.735 7.319-1.136 10.546z"/><path d="m135.121 42.789c3.203 2.586 7.935 2.103 10.545-1.136l11.044-13.712c2.599-3.227 2.09-7.947-1.136-10.546-3.227-2.601-7.948-2.089-10.545 1.136l-11.044 13.712c-2.599 3.227-2.09 7.947 1.136 10.546z"/><path d="m474.467 336.44c4.142 0 7.5-3.357 7.5-7.5v-109.625c-3.123-82.058-120.754-81.996-123.848 0v87.941h-32.897v-20.601c0-16.063-13.078-29.133-29.152-29.133h-89.995l-14.891-131.195h18.195c4.142 0 7.5-3.357 7.5-7.5 0-20.675-16.822-37.495-37.5-37.495h-47.533v-11.493c-1.135-29.816-43.876-29.793-45 0v11.494h-49.38c-4.142 0-7.5 3.357-7.5 7.5v243.731c.307 9.916 14.696 9.909 15 0v-236.231h134.414c9.777 0 18.118 6.268 21.214 14.995h-17.809c-4.348-.098-8.039 4.036-7.452 8.346l16.593 146.195c.43 3.791 3.637 6.654 7.452 6.654h96.691c7.804 0 14.152 6.34 14.152 14.133v5.444h-30.908c-9.916.307-9.909 14.696 0 15h30.908v86.927h-113.617v-68.103c0-10.38 8.454-18.824 18.846-18.824h28.735c9.916-.307 9.909-14.696 0-15h-28.735c-18.663 0-33.846 15.174-33.846 33.824v68.103h-136.637v-26.782c-.307-9.916-14.696-9.909-15 0v34.282c0 4.143 3.358 7.5 7.5 7.5h59.416v27.961h-29.418c-49.69 1.89-49.653 73.074 0 74.946h220.26c49.691-1.89 49.652-73.074 0-74.946h-29.418v-27.961h59.416c4.142 0 7.5-3.357 7.5-7.5v-24.669l32.897-20.586v55.246c0 4.143 3.358 7.5 7.5 7.5h20.348v21.887c0 4.143 3.358 7.5 7.5 7.5h19.076v14.669h-12.5c-9.916.307-9.909 14.696 0 15h12.5v26.36c.307 9.916 14.696 9.909 15 0v-26.36h12.5c9.916-.307 9.909-14.696 0-15h-12.5v-14.669h19.076c4.142 0 7.5-3.357 7.5-7.5v-21.887h20.348c4.142 0 7.5-3.357 7.5-7.5v-47.762c-.307-9.916-14.696-9.909-15 0v40.262h-93.848v-157.52h93.848v82.441c-.001 4.144 3.357 7.501 7.499 7.501zm-372.619-255.107v-11.494c.316-9.914 14.687-9.907 15 0v11.494zm97.355 393.129c0 12.392-10.092 22.473-22.498 22.473-29.806-1.13-29.797-43.82 0-44.946 12.405-.001 22.498 10.081 22.498 22.473zm7.49-22.474h51.045c-9.911 12.481-9.911 32.467 0 44.946h-51.044c9.911-12.48 9.909-32.466-.001-44.946zm-59.976 44.947h-49.265c9.912-12.481 9.91-32.467 0-44.946h49.265c-9.911 12.48-9.91 32.466 0 44.946zm-101.75-22.473c0-12.392 10.092-22.474 22.498-22.474 29.804 1.131 29.797 43.821 0 44.946-12.405.001-22.498-10.081-22.498-22.472zm265.256 0c0 12.392-10.092 22.473-22.498 22.473-29.805-1.13-29.796-43.82 0-44.946 12.405-.001 22.498 10.081 22.498 22.473zm-66.916-37.474h-131.424v-27.961h131.424zm195.813-3.583h-38.152v-14.387h38.152zm-113.897-74.24v-36.908h32.897v16.322zm47.897-127.666v-12.184c2.366-62.181 91.504-62.134 93.848 0v12.184z"/><path d="m245.913 331.047v32.71c.307 9.916 14.696 9.909 15 0v-32.71c-.307-9.916-14.696-9.909-15 0z"/><path d="m290.411 363.757v-32.71c-.307-9.916-14.696-9.909-15 0v32.71c.307 9.916 14.696 9.909 15 0z"/><path d="m216.416 331.047v32.71c.307 9.916 14.696 9.909 15 0v-32.71c-.308-9.916-14.697-9.909-15 0z"/><path d="m397.543 363.757c0 12.399 10.093 22.486 22.5 22.486 29.808-1.13 29.8-43.847 0-44.973-12.406 0-22.5 10.087-22.5 22.487zm30 0c-.315 9.894-14.687 9.891-15 0 .315-9.894 14.687-9.891 15 0z"/><path d="m72.464 308.969h32.41c9.916-.307 9.909-14.696 0-15h-32.41c-9.916.307-9.909 14.696 0 15z"/><g><path d="m67.467 466.965c-9.914.306-9.911 14.695 0 15 9.914-.306 9.912-14.695 0-15z"/><path d="m176.707 466.965c-9.914.306-9.911 14.695 0 15 9.914-.306 9.911-14.695 0-15z"/><path d="m287.727 466.965c-9.914.306-9.911 14.695 0 15 9.914-.306 9.911-14.695 0-15z"/></g></g></svg>