<svg id="Layer_1" enable-background="new 0 0 512.058 512.058" height="512" viewBox="0 0 512.058 512.058" width="512" xmlns="http://www.w3.org/2000/svg"><g><path d="m118.83 54.9c-8.284 0-15 6.716-15 15v19.025h30v-19.025c0-8.284-6.716-15-15-15z" fill="#f3d6ae"/><path d="m86.737 388.023h231.017v70h-231.017z" fill="#d6eaec"/><path d="m287.902 388.023h29.851v70h-29.851z" fill="#b5d9dd"/><path d="m275.091 215.777c-16.568 0-30 13.419-30 29.973v19.334h59.999v-19.334c0-16.554-13.431-29.973-29.999-29.973z" fill="#6b717d"/><path d="m366.57 286.716v114.87h-359.07v-174.33c0-11.86 9.62-21.47 21.49-21.47h13.32v-95.26c0-11.95 9.69-21.63 21.65-21.63h105.57c11.01 0 20.27 8.26 21.51 19.19l17.82 157h136.06c11.96 0 21.65 9.68 21.65 21.63z" fill="#ff6c6c"/><path d="m136.12 325.986v75.6h-128.62v-101.92h102.27c14.55 0 26.35 11.78 26.35 26.32z" fill="#6b717d"/><path d="m37.491 444.523h329.501v60h-329.501z" fill="#47505e"/><g fill="#d6eaec"><ellipse cx="37.491" cy="474.523" rx="29.997" ry="30"/><ellipse cx="257.752" cy="474.523" rx="29.997" ry="30"/><ellipse cx="146.732" cy="474.523" rx="29.997" ry="30"/><ellipse cx="366.992" cy="474.523" rx="29.997" ry="30"/></g><g><path d="m305.091 69.417c0 16.57-13.43 30-30 30-4.08 0-7.96-.81-11.5-2.29-10.86-4.5-18.5-15.21-18.5-27.71 0-12.49 7.64-23.2 18.5-27.71 3.54-1.48 7.42-2.29 11.5-2.29 16.57 0 30 13.44 30 30z" fill="#6b717d"/><path d="m305.091 69.417c0 16.57-13.43 30-30 30-4.08 0-7.96-.81-11.5-2.29 10.86-4.5 18.5-15.21 18.5-27.71 0-12.49-7.64-23.2-18.5-27.71 3.54-1.48 7.42-2.29 11.5-2.29 16.57 0 30 13.44 30 30z" fill="#47505e"/></g><g><path d="m504.433 357.689c0 23.105-18.727 41.833-41.833 41.833-5.689 0-11.1-1.129-16.036-3.193-15.143-6.275-25.797-21.209-25.797-38.639 0-17.416 10.653-32.35 25.797-38.639 4.936-2.064 10.347-3.193 16.036-3.193 23.106-.002 41.833 18.739 41.833 41.831z" fill="#6b717d"/><path d="m504.433 357.689c0 23.105-18.727 41.833-41.833 41.833-5.689 0-11.1-1.129-16.036-3.193 15.143-6.275 25.797-21.209 25.797-38.639 0-17.416-10.653-32.35-25.797-38.639 4.936-2.064 10.347-3.193 16.036-3.193 23.106-.002 41.833 18.739 41.833 41.831z" fill="#47505e"/></g><path d="m166.168 205.786-9.086-82.444h-79.774v82.444z" fill="#fff"/><g fill="#ff4141"><path d="m191.04 108.086 17.82 157h-35.96l-17.82-157c-1.24-10.93-10.5-19.19-21.51-19.19h35.96c11.01 0 20.27 8.26 21.51 19.19z"/><path d="m366.57 286.716v114.87h-35.96v-114.87c0-11.95-9.69-21.63-21.65-21.63h35.96c11.96 0 21.65 9.68 21.65 21.63z"/></g></g><g><path d="m71.809 323.609c-4.142 0-7.5 3.357-7.5 7.5v32.71c.307 9.916 14.696 9.909 15 0v-32.71c0-4.143-3.358-7.5-7.5-7.5z"/><path d="m42.311 323.609c-4.142 0-7.5 3.357-7.5 7.5v32.71c.307 9.916 14.696 9.909 15 0v-32.71c0-4.143-3.357-7.5-7.5-7.5z"/><path d="m101.306 323.609c-4.142 0-7.5 3.357-7.5 7.5v32.71c.307 9.916 14.696 9.909 15 0v-32.71c0-4.143-3.358-7.5-7.5-7.5z"/><path d="m118.829 32.603c4.142 0 7.5-3.357 7.5-7.5v-17.607c-.307-9.916-14.696-9.909-15 0v17.606c0 4.143 3.358 7.501 7.5 7.501z"/><path d="m82.512 41.715c2.611 3.24 7.341 3.721 10.545 1.136 3.226-2.599 3.735-7.319 1.136-10.546l-11.044-13.712c-2.599-3.224-7.32-3.734-10.545-1.136-3.226 2.599-3.735 7.319-1.136 10.546z"/><path d="m144.602 42.851c3.203 2.586 7.935 2.103 10.545-1.136l11.044-13.712c2.599-3.227 2.09-7.947-1.136-10.546-3.227-2.6-7.948-2.088-10.545 1.136l-11.044 13.712c-2.598 3.226-2.09 7.947 1.136 10.546z"/><path d="m511.135 348.449c-.771-4.068-4.693-6.741-8.766-5.973-4.069.771-6.743 4.695-5.973 8.766 4.171 20.843-12.489 41.034-33.797 40.809-18.968 0-34.399-15.415-34.399-34.362-.236-27.922 32.659-44.44 54.898-27.599 8.144 5.665 16.718-5.89 8.943-12.043-6.536-4.854-14.013-7.961-21.942-9.16v-254.483c0-4.143-3.357-7.5-7.5-7.5h-157.529c-6.848-9.095-17.738-14.987-29.979-14.987-36.009.077-50.98 46.195-22.5 67.433v116.44c-9.103 6.844-15 17.726-15 29.96v11.835h-22.035l-17.064-150.343c-1.673-14.735-14.125-25.848-28.964-25.848h-28.199v-11.494c-1.135-29.816-43.875-29.793-44.999 0v11.495h-32.368c-16.073 0-29.15 13.068-29.15 29.131v30.085c.307 9.916 14.696 9.909 15 0v-30.085c0-7.792 6.348-14.131 14.15-14.131h105.567c7.204 0 13.248 5.391 14.06 12.539l17.819 156.997c.43 3.791 3.637 6.654 7.452 6.654h136.062c7.802 0 14.149 6.339 14.149 14.131v107.373h-147.643c-9.916.307-9.909 14.696 0 15h98.825v27.961h-216.016v-27.961h82.496c9.916-.307 9.909-14.696 0-15h-33.116v-68.103c0-18.65-15.183-33.824-33.845-33.824h-94.772v-64.906c0-7.703 6.275-13.97 13.989-13.97h13.323c4.142 0 7.5-3.357 7.5-7.5v-30.833c-.307-9.916-14.696-9.909-15 0v23.333h-5.823c-15.985 0-28.989 12.996-28.989 28.97v174.333c0 4.143 3.358 7.5 7.5 7.5h71.737v27.961h-41.74c-49.689 1.89-49.652 73.074 0 74.946h329.495c49.69-1.891 49.651-73.074 0-74.946h-41.739v-27.961h41.318c4.143 0 7.5-3.357 7.5-7.5v-114.873c0-16.062-13.076-29.131-29.149-29.131h-32.332v-11.835c0-12.234-5.897-23.117-15-29.96v-116.439c2.83-2.128 5.35-4.646 7.48-7.474h150.03v217.017c-59.569 10.669-53.455 96.467 7.501 98.158 30.583.321 54.521-28.668 48.534-58.603zm-399.805-267.054v-11.495c.316-9.915 14.687-9.907 14.999 0v11.495zm-96.33 225.767h94.772c10.391 0 18.845 8.444 18.845 18.824v68.103h-113.617zm109.239 167.362c0-12.392 10.092-22.474 22.497-22.474 29.804 1.131 29.797 43.821 0 44.946-12.405 0-22.497-10.081-22.497-22.472zm-7.491 22.472h-49.263c9.912-12.481 9.91-32.467 0-44.946h49.264c-9.912 12.481-9.911 32.467-.001 44.946zm59.975-44.946h51.044c-9.911 12.481-9.911 32.467 0 44.946h-51.043c9.911-12.481 9.909-32.467-.001-44.946zm58.534 22.474c0-12.392 10.092-22.474 22.497-22.474 29.804 1.13 29.797 43.821 0 44.946-12.405 0-22.497-10.081-22.497-22.472zm52.484-22.474h49.264c-9.911 12.481-9.91 32.467 0 44.946h-49.264c9.912-12.481 9.911-32.467 0-44.946zm-272.741 22.474c0-12.392 10.092-22.474 22.497-22.474 29.804 1.131 29.797 43.821 0 44.946-12.405 0-22.497-10.081-22.497-22.472zm374.489 0c0 12.392-10.092 22.473-22.497 22.473-29.804-1.13-29.795-43.82 0-44.946 12.406-.001 22.497 10.081 22.497 22.473zm5.459-412.62v14.973h-25.999v-14.973zm-119.857-14.987c12.406 0 22.499 10.082 22.499 22.474-1.13 29.772-43.873 29.763-44.999 0 0-12.392 10.093-22.474 22.5-22.474zm7.499 123.329h-14.999v-25.964h14.999zm-29.999 87.339v-11.835c1.134-29.779 43.876-29.757 44.999 0v11.835zm22.5-49.308c-2.568 0-5.076.26-7.5.753v-23.784h14.999v23.784c-2.424-.493-4.932-.753-7.499-.753zm7.499-78.995h-14.999v-23.172c4.819 1 10.18 1 14.999 0zm29.248-67.378h42.111v14.973h-42.111c.999-4.81.999-10.162 0-14.973zm98.11 14.973v-14.973h45.152v14.973z"/><path d="m77.308 213.286h88.86c2.132 0 4.164-.907 5.586-2.495 1.422-1.589 2.102-3.707 1.869-5.826l-9.085-82.444c-.419-3.802-3.631-6.679-7.455-6.679h-79.775c-4.142 0-7.5 3.357-7.5 7.5v82.444c0 4.143 3.358 7.5 7.5 7.5zm7.5-82.444h65.556l7.432 67.444h-72.988z"/><path d="m77.268 247.668h32.41c9.916-.307 9.909-14.696 0-15h-32.41c-9.916.307-9.909 14.696 0 15z"/><g><path d="m37.507 467.021c-9.894.306-9.892 14.696 0 15 9.894-.306 9.892-14.696 0-15z"/><path d="m146.747 467.021c-9.894.306-9.892 14.696 0 15 9.894-.306 9.892-14.696 0-15z"/><path d="m257.767 467.021c-9.894.306-9.892 14.696 0 15 9.894-.306 9.892-14.696 0-15z"/><path d="m367.007 467.021c-9.894.306-9.892 14.696 0 15 9.894-.306 9.892-14.696 0-15z"/></g><path d="m275.091 61.89c-9.894.306-9.892 14.696 0 15 9.894-.306 9.891-14.695 0-15z"/></g></svg>