<svg id="Layer_1" enable-background="new 0 0 512 512" height="512" viewBox="0 0 512 512" width="512" xmlns="http://www.w3.org/2000/svg"><g><path d="m139.786 67.729h71v104h-71z" fill="#f3d6ae"/><path d="m185.261 67.729h25.525v104h-25.525z" fill="#edba75"/><path d="m504.5 287.042v127.35h-497v-127.35c0-63.68 51.63-115.31 115.32-115.31h266.36c63.69 0 115.32 51.63 115.32 115.31z" fill="#ffa07a"/><path d="m504.5 287.042v127.35h-39.05v-127.35c0-63.68-51.63-115.31-115.32-115.31h39.05c63.69 0 115.32 51.63 115.32 115.31z" fill="#ff7d43"/><g><path d="m188.48 414.392c0 38.62-31.31 69.92-69.93 69.92-5.51 0-10.86-.64-16-1.84-30.91-7.23-53.92-34.97-53.92-68.08s23.01-60.85 53.92-68.09c5.14-1.2 10.49-1.84 16-1.84 38.62 0 69.93 31.31 69.93 69.93z" fill="#6b717d"/><path d="m188.48 414.392c0 38.62-31.31 69.92-69.93 69.92-5.51 0-10.86-.64-16-1.84 30.91-7.23 53.93-34.97 53.93-68.08s-23.02-60.85-53.93-68.09c5.14-1.2 10.49-1.84 16-1.84 38.62 0 69.93 31.31 69.93 69.93z" fill="#47505e"/><ellipse cx="118.555" cy="414.389" fill="#fff" rx="29.997" ry="29.973"/></g><path d="m435.446 414.389h30v69.927h-30z" fill="#6b717d"/><g><path d="m392.519 82.805c0 30.51-24.74 55.25-55.25 55.25-5.2 0-10.23-.72-15-2.06-23.22-6.54-40.25-27.88-40.25-53.19s17.03-46.65 40.25-53.19c4.77-1.34 9.8-2.06 15-2.06 30.51 0 55.25 24.74 55.25 55.25z" fill="#fff"/><path d="m392.519 82.805c0 30.51-24.74 55.25-55.25 55.25-5.2 0-10.23-.72-15-2.06 23.22-6.54 40.25-27.88 40.25-53.19s-17.03-46.65-40.25-53.19c4.77-1.34 9.8-2.06 15-2.06 30.51 0 55.25 24.74 55.25 55.25z" fill="#d6eaec"/></g></g><g><path d="m118.555 451.861c20.676 0 37.496-16.811 37.496-37.473-1.884-49.646-73.116-49.631-74.993 0 0 20.663 16.821 37.473 37.497 37.473zm0-59.946c12.404 0 22.496 10.082 22.496 22.474-1.131 29.772-43.867 29.763-44.993 0 0-12.392 10.091-22.474 22.497-22.474z"/><path d="m345.399 406.889h-149.778c-11.271-92.631-142.896-92.563-154.133 0h-26.488v-119.845c0-16.785 3.748-32.862 11.141-47.786 1.839-3.712.32-8.211-3.392-10.05-3.712-1.838-8.211-.319-10.05 3.392-8.427 17.011-12.699 35.329-12.699 54.444v127.345c0 4.143 3.357 7.5 7.5 7.5h33.982c1.379 14.519 6.769 28.165 15.795 39.835 2.533 3.275 7.243 3.879 10.521 1.344 3.276-2.534 3.878-7.245 1.344-10.521-31.715-40.212-1.844-101.021 49.414-100.585 34.421 0 62.426 28.004 62.426 62.427.568 45.871-50.064 76.946-90.655 55.697-3.691-1.876-8.207-.403-10.083 3.29-1.876 3.692-.403 8.207 3.29 10.083 47.642 25.058 107.764-8.547 112.088-61.57h149.779c9.915-.307 9.908-14.697-.002-15z"/><path d="m389.185 164.229h-44.415v-19.12c36.431-3.797 62.826-41.295 53.433-77.347-.99-4.022-5.052-6.48-9.075-5.49-4.021.99-6.479 5.053-5.489 9.075 7.639 29.497-15.829 59.616-46.368 59.208-26.329 0-47.75-21.42-47.75-47.749-.286-40.909 49.541-63.08 79.69-35.495 3.078 2.773 7.819 2.525 10.593-.554 2.771-3.078 2.523-7.82-.554-10.592-39.635-36.257-105.108-7.119-104.73 46.641 0 32.062 24.172 58.585 55.25 62.303v19.12h-111.485v-19.695h12.805c9.916-.307 9.909-14.697 0-15h-12.805v-20h12.805c9.916-.307 9.909-14.697 0-15h-12.805v-19.305h12.805c9.916-.307 9.909-14.696 0-15h-111.609c-9.916.307-9.909 14.696 0 15h12.804v19.304h-12.804c-9.916.307-9.909 14.697 0 15h12.804v20h-12.804c-9.916.307-9.909 14.697 0 15h12.804v19.695h-9.47c-34.831 0-68.157 14.878-91.435 40.819-2.767 3.083-2.51 7.824.573 10.591 3.086 2.769 7.825 2.509 10.591-.573 20.437-22.774 49.693-35.837 80.271-35.837h266.369c59.449 0 107.815 48.366 107.815 107.815v119.845h-116.513c-9.916.307-9.909 14.697 0 15h47.459v62.427c0 4.143 3.357 7.5 7.5 7.5h30c4.143 0 7.5-3.357 7.5-7.5v-62.427h31.555c4.143 0 7.5-3.357 7.5-7.5v-127.344c0-67.721-55.095-122.815-122.815-122.815zm-241.9-89h56v19.304h-56zm0 34.304h56v20h-56zm0 35h56v19.695h-56zm310.66 332.282h-15v-54.927h15z"/><path d="m392.82 337.786v-70.753c-1.507-39.593-58.262-39.562-59.755 0v70.753c1.507 39.592 58.263 39.563 59.755 0zm-15 0c-.75 19.716-29.012 19.7-29.755 0v-70.753c.75-19.715 29.012-19.701 29.755 0z"/><path d="m431.289 322.794c-12.473 0-22.62 10.147-22.62 22.62v14.75c0 4.143 3.357 7.5 7.5 7.5h29.869c9.916-.307 9.909-14.697 0-15h-22.369v-7.25c0-4.202 3.418-7.62 7.62-7.62h14.749c4.143 0 7.5-3.357 7.5-7.5v-14.749c0-12.473-10.147-22.62-22.62-22.62h-14.749c-9.916.307-9.909 14.697 0 15h14.749c4.202 0 7.62 3.418 7.62 7.62v7.249z"/><path d="m331.966 77.502-15.984 15.983c-2.929 2.93-2.929 7.678 0 10.607 2.93 2.928 7.677 2.928 10.607 0l15.984-15.984c2.929-2.929 2.929-7.677 0-10.606s-7.677-2.93-10.607 0z"/><path d="m90.739 261.838h113.479c9.916-.307 9.909-14.697 0-15h-113.479c-9.916.307-9.909 14.696 0 15z"/><path d="m90.739 296.838h63.479c9.916-.307 9.909-14.697 0-15h-63.479c-9.916.307-9.909 14.696 0 15z"/><path d="m118.553 406.88c-9.914.306-9.911 14.706 0 15.011 9.913-.306 9.911-14.706 0-15.011z"/></g></svg>