<svg id="Layer_1" enable-background="new 0 0 511.935 511.935" height="512" viewBox="0 0 511.935 511.935" width="512" xmlns="http://www.w3.org/2000/svg"><g><path d="m190.968 7.435h130v66.237h-130z" fill="#6b717d"/><path d="m293.577 7.435h27.391v66.237h-27.391z" fill="#47505e"/><path d="m455.488 124.601v360.41c0 10.67-8.65 19.32-19.32 19.32h-360.4c-10.67 0-19.32-8.65-19.32-19.32v-360.41c0-10.67 8.65-19.32 19.32-19.32h360.4c10.67 0 19.32 8.65 19.32 19.32z" fill="#d6eaec"/><path d="m455.488 124.601v360.41c0 10.67-8.65 19.32-19.32 19.32h-35.06c10.67 0 19.32-8.65 19.32-19.32v-360.41c0-10.67-8.65-19.32-19.32-19.32h35.06c10.67 0 19.32 8.65 19.32 19.32z" fill="#b5d9dd"/><path d="m117.974 166.81h275.987v275.987h-275.987z" fill="#6b717d"/><g fill="#47505e"><path d="m285.541 308.363-20.472 35.549 53.274 56.182-.013-.018c23.257-17.078 39.254-43.463 42.504-73.665l.021.002z"/><path d="m151.106 326.414-.025.003c3.253 30.213 19.262 56.606 42.534 73.682l.003-.005 53.274-56.182-20.472-35.549z"/><path d="m235.469 292.659 41.023.045 22.024-74.25.003-.007c-13.018-5.747-27.418-8.939-42.562-8.939-15.124 0-29.505 3.183-42.509 8.915l.003.007z"/></g><path d="m286.268 314.991c0 16.75-13.57 30.32-30.31 30.32-4.07 0-7.96-.8-11.5-2.26-11.04-4.53-18.81-15.38-18.81-28.06 0-12.67 7.77-23.52 18.81-28.05 3.54-1.46 7.43-2.26 11.5-2.26 16.74 0 30.31 13.57 30.31 30.31z" fill="#d6eaec"/><path d="m286.268 314.991c0 16.75-13.57 30.32-30.31 30.32-4.07 0-7.96-.8-11.5-2.26 11.04-4.53 18.81-15.38 18.81-28.06 0-12.67-7.77-23.52-18.81-28.05 3.54-1.46 7.43-2.26 11.5-2.26 16.74 0 30.31 13.57 30.31 30.31z" fill="#b5d9dd"/><path d="m165.968 73.672h180v31.609h-180z" fill="#72bbff"/><path d="m312.962 73.672h33.006v31.609h-33.006z" fill="#009af6"/></g><g><path d="m436.171 97.801h-82.703v-24.115c0-4.143-3.357-7.502-7.5-7.502h-17.5v-58.748c-.307-9.918-14.697-9.911-15 0v58.749h-39.853c-9.916.307-9.909 14.7 0 15.003h64.853v16.613h-165v-16.613h64.887c9.916-.307 9.909-14.7 0-15.003h-39.887v-58.749c-.307-9.918-14.696-9.911-15 0v58.749h-17.5c-4.142 0-7.5 3.358-7.5 7.502v24.114h-82.704c-14.789 0-26.82 12.034-26.82 26.826v22.684c.307 9.918 14.696 9.911 15 0v-22.684c0-6.519 5.303-11.823 11.82-11.823h360.407c6.518 0 11.82 5.304 11.82 11.823v131.229c.307 9.918 14.697 9.911 15 0v-131.229c0-14.792-12.031-26.826-26.82-26.826z"/><path d="m455.491 283.056c-4.143 0-7.5 3.358-7.5 7.502v194.551c0 6.519-5.303 11.823-11.82 11.823h-360.407c-6.518 0-11.82-5.304-11.82-11.823v-303.262c-.307-9.918-14.696-9.911-15 0v303.262c0 14.792 12.032 26.826 26.82 26.826h360.407c14.789 0 26.82-12.034 26.82-26.826v-194.551c0-4.143-3.357-7.502-7.5-7.502z"/><path d="m217.594 450.391h176.367c4.143 0 7.5-3.358 7.5-7.502v-276.044c0-4.143-3.357-7.502-7.5-7.502h-275.988c-4.142 0-7.5 3.358-7.5 7.502v276.045c0 4.143 3.358 7.502 7.5 7.502h64.75c9.916-.307 9.909-14.699 0-15.003h-57.25v-261.043h260.987v261.042h-168.866c-9.917.307-9.91 14.7 0 15.003z"/><path d="m149.572 319.136c-1.66.341-3.166 1.236-4.26 2.553-1.297 1.561-1.906 3.581-1.689 5.598 3.38 31.403 19.984 60.177 45.555 78.943 1.702 1.251 3.866 1.72 5.919 1.303 1.542-.311 2.935-1.096 3.994-2.226l50.251-53.005c4.288.773 8.985.77 13.271-.007l50.287 53.043c2.719 2.868 7.175 3.117 10.204.62 25.203-18.655 41.618-47.066 45.122-78.09v-.004c.737-3.93-1.736-7.747-5.623-8.678l-71.106-17.047c-1.526-4.187-3.773-8.031-6.588-11.381l20.758-69.996c1.15-3.609-.584-7.573-4.119-9.134-28.523-12.752-62.595-12.762-91.125-.024-3.522 1.553-5.257 5.496-4.135 9.095l20.761 70.006c-2.839 3.366-5.102 7.233-6.637 11.447zm43.302 70.924c-17.558-14.8-29.423-35.352-33.411-57.868l58.802-14.097c.927 11.627 7.134 21.789 16.215 28.079zm40.269-74.999c0-12.582 10.233-22.817 22.812-22.817 30.224 1.147 30.215 44.493 0 45.636-12.578-.001-22.812-10.237-22.812-22.819zm85.921 74.977-41.603-43.883c9.069-6.294 15.264-16.451 16.187-28.07l58.802 14.097c-3.982 22.509-15.839 43.055-33.386 57.856zm-63.108-172.985c11.537 0 22.754 1.964 33.432 5.848l-17.202 58.004c-9.694-4.834-22.702-4.845-32.405-.025l-17.2-57.998c10.661-3.87 21.859-5.829 33.375-5.829z"/><path d="m225.968 43.659h60c9.916-.307 9.909-14.7 0-15.003h-60c-9.917.306-9.91 14.699 0 15.003z"/><g><path d="m91.521 461.86c-9.894.306-9.892 14.696 0 15 9.894-.306 9.892-14.695 0-15z"/><path d="m420.441 461.86c-9.894.306-9.892 14.696 0 15 9.894-.306 9.892-14.695 0-15z"/><path d="m91.521 132.871c-9.894.306-9.892 14.696 0 15 9.894-.306 9.892-14.695 0-15z"/><path d="m420.441 147.871c9.894-.306 9.892-14.696 0-15-9.894.306-9.892 14.696 0 15z"/></g></g></svg>