<svg id="Layer_1" enable-background="new 0 0 512 512" height="512" viewBox="0 0 512 512" width="512" xmlns="http://www.w3.org/2000/svg"><g><path d="m103.852 204.52h-30.001v-18.995c0-8.284 6.716-15 15-15h.001c8.284 0 15 6.716 15 15z" fill="#f3d6ae"/><path d="m311.45 306.449v112.61h-303.95v-214.54h213.69c8.68 0 16.37 5.62 19 13.9l27.95 88.03z" fill="#ffa07a"/><path d="m240.19 218.419 27.95 88.03h-30l-27.95-88.03c-2.63-8.28-10.32-13.9-19-13.9h30c8.68 0 16.37 5.62 19 13.9z" fill="#ff7d43"/><path d="m281.45 306.449h30v112.61h-30z" fill="#ff7d43"/><circle cx="93.885" cy="419.062" fill="#fff" r="39.579"/><circle cx="225.063" cy="419.062" fill="#fff" r="39.579"/><path d="m136.12 204.519v75.6c0 14.54-11.79 26.33-26.34 26.33h-102.28v-101.93z" fill="#6b717d"/><path d="m345.928 53.618h30.001v335.443h-30.001z" fill="#6b717d"/><path d="m311.448 339.062h34.48v30h-34.48z" fill="#b5d9dd"/><g><path d="m411.004 112.699h93.496v93.494h-93.496z" fill="#f3d6ae"/><path d="m474.904 112.699h29.596v93.494h-29.596z" fill="#edba75"/><path d="m440.6 112.699v46.055l17.152-7.751 17.152 7.751v-46.055z" fill="#ff6c6c"/></g><g><path d="m411.004 240.699h93.496v93.494h-93.496z" fill="#f3d6ae"/><path d="m474.904 240.699h29.596v93.494h-29.596z" fill="#edba75"/><path d="m440.6 240.699v46.055l17.152-7.751 17.152 7.751v-46.055z" fill="#ff6c6c"/></g></g><g><path d="m71.812 231.79c-4.143 0-7.5 3.357-7.5 7.5v32.71c.307 9.916 14.697 9.909 15 0v-32.71c0-4.143-3.358-7.5-7.5-7.5z"/><path d="m42.313 231.79c-4.143 0-7.5 3.357-7.5 7.5v32.71c.307 9.916 14.697 9.909 15 0v-32.71c0-4.143-3.357-7.5-7.5-7.5z"/><path d="m93.81 239.29v32.71c.307 9.916 14.697 9.909 15 0v-32.71c-.307-9.917-14.697-9.909-15 0z"/><path d="m88.852 148.227c4.143 0 7.5-3.357 7.5-7.5v-17.605c-.307-9.916-14.697-9.909-15 0v17.605c0 4.143 3.357 7.5 7.5 7.5z"/><path d="m52.532 157.34c2.61 3.241 7.342 3.721 10.546 1.136 3.226-2.599 3.734-7.319 1.136-10.546l-11.045-13.712c-2.598-3.226-7.318-3.734-10.546-1.136-3.226 2.599-3.734 7.319-1.136 10.546z"/><path d="m114.625 158.475c3.204 2.585 7.935 2.104 10.546-1.136l11.045-13.712c2.599-3.227 2.09-7.947-1.136-10.546-3.228-2.599-7.948-2.089-10.546 1.136l-11.045 13.712c-2.598 3.227-2.09 7.948 1.136 10.546z"/><path d="m504.5 361.561h-121.071v-307.943c0-4.143-3.357-7.5-7.5-7.5h-30.001c-4.143 0-7.5 3.357-7.5 7.5v49.423c.307 9.916 14.697 9.909 15 0v-41.923h15.001v320.443h-15.001v-243.868c-.307-9.916-14.697-9.909-15 0v193.868h-19.479v-230.204c-.307-9.916-14.697-9.909-15 0v197.589h-30.319l-26.295-82.797c-3.635-11.442-14.143-19.13-26.148-19.13h-109.835v-11.495c-1.134-29.814-43.877-29.792-45.001 0v11.495h-58.851c-4.143 0-7.5 3.357-7.5 7.5v131.832c.307 9.916 14.697 9.909 15 0v-22.405h94.776c18.663 0 33.847-15.174 33.847-33.824v-68.103h77.562c5.441 0 10.205 3.484 11.852 8.671l27.956 88.026c.989 3.114 3.881 5.229 7.148 5.229h35.807v97.615h-32.404c-9.415-52.446-83.566-52.41-92.962 0h-38.217c-9.415-52.446-83.565-52.409-92.961 0h-32.404v-40.5c-.307-9.916-14.697-9.909-15 0v48c0 4.143 3.357 7.5 7.5 7.5h39.904c9.415 52.446 83.565 52.409 92.961 0h38.217c9.415 52.447 83.567 52.409 92.962 0h39.904c4.143 0 7.5-3.357 7.5-7.5v-42.5h19.479v12.5c0 4.143 3.357 7.5 7.5 7.5h30.001c4.143 0 7.5-3.357 7.5-7.5v-12.5h121.072c9.916-.305 9.909-14.695 0-14.999zm-423.149-176.037c.317-9.913 14.688-9.906 15.001 0v11.495h-15.001zm47.272 94.598c0 10.38-8.455 18.824-18.847 18.824h-94.776v-86.927h113.623zm-34.738 171.02c-17.688 0-32.078-14.392-32.078-32.081 1.613-42.501 62.55-42.49 64.156 0 0 17.69-14.391 32.081-32.078 32.081zm131.177 0c-17.688 0-32.078-14.392-32.078-32.081 1.613-42.502 62.551-42.489 64.157 0 .001 17.69-14.39 32.081-32.079 32.081zm93.886-89.581v-15h19.479v15z"/><path d="m504.5 233.199h-93.5c-4.143 0-7.5 3.357-7.5 7.5v93.494c0 4.143 3.357 7.5 7.5 7.5h93.5c4.143 0 7.5-3.357 7.5-7.5v-27.587c-.307-9.916-14.697-9.909-15 0v20.087h-78.5v-78.494h14.597v38.555c0 2.547 1.293 4.92 3.433 6.301 2.141 1.382 4.835 1.582 7.155.534l14.065-6.355 14.065 6.355c2.314 1.046 5.011.85 7.155-.534 2.14-1.381 3.433-3.754 3.433-6.301v-38.555h14.597v23.801c.307 9.916 14.697 9.909 15 0v-31.301c0-4.143-3.357-7.5-7.5-7.5zm-37.097 41.937-6.565-2.967c-1.963-.887-4.213-.887-6.176 0l-6.565 2.967v-26.937h19.307v26.937z"/><path d="m504.5 105.199h-93.5c-4.143 0-7.5 3.357-7.5 7.5v93.494c0 4.143 3.357 7.5 7.5 7.5h93.5c4.143 0 7.5-3.357 7.5-7.5v-93.494c0-4.143-3.357-7.5-7.5-7.5zm-56.403 15h19.307v26.937l-6.565-2.967c-1.963-.887-4.213-.887-6.176 0l-6.565 2.967v-26.937zm48.903 78.494h-78.5v-78.494h14.597v38.555c0 2.547 1.293 4.92 3.433 6.301 2.141 1.381 4.835 1.581 7.155.534l14.065-6.355 14.065 6.355c2.314 1.046 5.011.85 7.155-.534 2.14-1.381 3.433-3.754 3.433-6.301v-38.555h14.597z"/><g><path d="m93.878 411.556c-9.914.306-9.911 14.706 0 15.011 9.914-.307 9.911-14.706 0-15.011z"/><path d="m225.058 411.556c-9.914.306-9.911 14.706 0 15.011 9.913-.307 9.911-14.706 0-15.011z"/></g></g></svg>