<svg id="Layer_1" enable-background="new 0 0 512 512" height="512" viewBox="0 0 512 512" width="512" xmlns="http://www.w3.org/2000/svg"><g><path d="m403.075 29.38v420.65h-356.27v-420.65c0-12.09 9.79-21.88 21.88-21.88h312.51c12.081 0 21.88 9.79 21.88 21.88z" fill="#d6eaec"/><path d="m403.075 29.38v420.65h-30v-420.65c0-12.09-9.8-21.88-21.88-21.88h30c12.081 0 21.88 9.79 21.88 21.88z" fill="#b5d9dd"/><g fill="#6b717d"><path d="m89.94 450.033h30v54.467h-30z"/><path d="m329.94 450.033h30v54.467h-30z"/></g><path d="m224.94 193.769c-46.33 0-89.89 11.83-127.83 32.64v35h255.66v-35c-37.94-20.81-81.5-32.64-127.83-32.64z" fill="#b5d9dd"/><path d="m352.77 261.409v153.88h-255.66v-153.88c37.94-20.81 81.5-32.64 127.83-32.64s89.89 11.83 127.83 32.64z" fill="#6b717d"/><path d="m224.94 415.289c43.869 0 62.893-21.919 62.893-48.957 0-20.596-10.821-28.702-10.586-56.151 0 0-7.97 3.442-14.293 8.813-14.444-28.913-38.014-46.744-38.014-46.744s-23.57 17.832-38.014 46.744c-6.323-5.372-14.293-8.813-14.293-8.813.234 27.449-10.586 35.555-10.586 56.151 0 27.039 19.024 48.957 62.893 48.957z" fill="#ff6c6c"/><path d="m224.94 415.289c13.678 0 24.766-11.088 24.766-24.766 0-20.682-24.766-35.316-24.766-35.316s-24.766 14.634-24.766 35.316c0 13.678 11.088 24.766 24.766 24.766z" fill="#f3d6ae"/><path d="m114.936 7.5h220v51.88h-220z" fill="#b5d9dd"/><path d="m97.11 110.25h110.443v30h-110.443z" fill="#72bbff"/><circle cx="337.77" cy="125.25" fill="#b5d9dd" r="15"/><path d="m403.075 127.81h62.12v65.96h-62.12z" fill="#ffa07a"/><path d="m436.095 127.81h29.1v65.96h-29.1z" fill="#ff7d43"/><path d="m403.075 59.38h62.12v68.43h-62.12z" fill="#6b717d"/><path d="m436.095 59.38h29.1v68.43h-29.1z" fill="#47505e"/></g><g><path d="m152.332 442.533h-98.027v-236.538c-.307-9.916-14.697-9.909-15 0v244.038c0 4.143 3.357 7.5 7.5 7.5h35.635v46.967c0 4.143 3.357 7.5 7.5 7.5h30c4.143 0 7.5-3.357 7.5-7.5v-46.967h24.892c9.916-.306 9.909-14.696 0-15zm-39.892 54.467h-15v-39.467h15z"/><path d="m89.61 415.289c0 4.143 3.357 7.5 7.5 7.5h255.66c4.143 0 7.5-3.357 7.5-7.5v-188.88c0-2.738-1.492-5.259-3.894-6.576-79.916-44.565-182.956-44.565-262.873 0-2.401 1.317-3.894 3.838-3.894 6.576v188.88zm118.063-24.766c0-10.992 10.317-21.075 17.232-26.246 6.067 4.544 17.301 14.54 17.301 26.246 0 9.521-7.746 17.266-17.267 17.266s-17.266-7.745-17.266-17.266zm47.027 12.468c11.932-27.35-20.279-51.506-25.945-54.241-2.354-1.391-5.277-1.391-7.631 0-5.85 2.837-37.848 27.011-25.945 54.241-16.569-6.399-25.633-19.007-25.633-36.658.305-17.017 8.091-25.893 9.914-43.647.889.635 1.77 1.312 2.608 2.025 1.757 1.491 4.101 2.096 6.358 1.632 2.258-.461 4.178-1.935 5.207-3.996 9.74-19.498 24.083-33.83 31.312-40.298 7.221 6.444 21.516 20.719 31.297 40.298 1.029 2.062 2.949 3.535 5.207 3.996 2.259.465 4.603-.14 6.357-1.632.841-.714 1.722-1.392 2.609-2.026 1.117 9.213 3.434 16.104 5.55 22.396 9.275 22.98 4.282 48.602-21.265 57.91zm-29.76-201.721c41.955 0 83.462 10.232 120.33 29.624v18.177c-13.858-6.791-28.297-12.407-43.069-16.745-3.981-1.166-8.143 1.109-9.31 5.083-1.167 3.975 1.108 8.143 5.083 9.31 16.32 4.792 32.209 11.235 47.296 19.175v141.896h-68.923c.473-.382.94-.771 1.398-1.167 19.399-16.108 21.27-44.418 12.441-66.321-2.731-8.122-5.556-16.521-5.439-30.055.021-2.536-1.24-4.911-3.354-6.313-2.112-1.401-4.79-1.642-7.12-.637-.242.105-4.122 1.795-8.773 4.667-14.958-25.568-35.104-40.99-36.034-41.694-2.678-2.025-6.373-2.025-9.051 0-.93.704-21.076 16.125-36.034 41.694-4.651-2.872-8.531-4.562-8.774-4.667-2.329-1.004-5.007-.765-7.12.637-2.112 1.402-3.374 3.777-3.353 6.313.116 13.533-2.708 21.933-5.438 30.055-9.114 22.639-6.746 51.525 13.838 67.488h-68.924v-141.896c48.834-25.815 106.569-35.223 161.292-26.401 4.106.658 7.935-2.141 8.585-6.229.65-4.091-2.139-7.935-6.229-8.585-55.3-8.904-113.557-.24-163.647 24.397v-18.181c36.868-19.393 78.375-29.625 120.329-29.625z"/><path d="m97.11 147.75h110.443c4.143 0 7.5-3.357 7.5-7.5v-30c0-4.143-3.357-7.5-7.5-7.5h-110.443c-4.143 0-7.5 3.357-7.5 7.5v30c0 4.143 3.357 7.5 7.5 7.5zm7.5-30h95.443v15h-95.443z"/><path d="m360.27 125.25c0-12.406-10.094-22.5-22.5-22.5-29.808 1.132-29.8 43.873 0 45 12.406 0 22.5-10.094 22.5-22.5zm-30 0c.315-9.912 14.687-9.909 15 0-.315 9.912-14.687 9.909-15 0z"/><path d="m465.195 51.881h-54.62v-22.503c0-16.199-13.179-29.378-29.377-29.378h-80.862c-9.916.307-9.909 14.697 0 15h27.104v36.881h-205v-36.881h142.852c9.916-.307 9.909-14.697 0-15h-196.61c-16.198 0-29.377 13.179-29.377 29.378v141.43c.307 9.916 14.697 9.909 15 0v-141.43c0-7.928 6.449-14.378 14.377-14.378h38.758v44.381c0 4.143 3.357 7.5 7.5 7.5h220c4.143 0 7.5-3.357 7.5-7.5v-44.381h38.758c7.928 0 14.377 6.45 14.377 14.378v413.155h-208.249c-9.916.307-9.909 14.697 0 15h135.114v46.967c0 4.143 3.357 7.5 7.5 7.5h30c4.143 0 7.5-3.357 7.5-7.5v-46.967h35.635c4.143 0 7.5-3.357 7.5-7.5v-196.109h1.329c17.473 0 31.688-14.215 31.688-31.687v-20.967h21.604c4.143 0 7.5-3.357 7.5-7.5v-134.389c-.001-4.143-3.359-7.5-7.501-7.5zm-112.755 445.119h-15v-39.467h15zm105.255-430.119v53.426h-47.12v-53.426zm-29.104 155.356c0 9.201-7.486 16.687-16.688 16.687h-1.329v-37.654h18.017zm-18.016-35.967v-50.963h47.12v50.963z"/><g><path d="m248.007 117.744c-9.894.306-9.892 14.696 0 15 9.895-.306 9.892-14.695 0-15z"/><path d="m282.828 117.744c-9.894.306-9.892 14.696 0 15 9.894-.306 9.892-14.695 0-15z"/></g></g></svg>