<svg id="Layer_1" enable-background="new 0 0 512 512" height="512" viewBox="0 0 512 512" width="512" xmlns="http://www.w3.org/2000/svg"><g><path d="m274.627 7.478c-12.477 0-23.15 7.695-27.551 18.594-7.444-6.489-17.169-10.427-27.819-10.427-17.348 0-32.251 10.43-38.805 25.358-5.395-7.482-14.179-12.357-24.108-12.357-16.408 0-29.709 13.301-29.709 29.709 0 4.345.941 8.468 2.617 12.188-10.961 7.378-18.172 19.899-18.172 34.105 0 22.69 18.394 41.085 41.085 41.085 8.824 0 16.992-2.792 23.688-7.526 5.079 3.068 11.031 4.835 17.397 4.835 18.61 0 33.697-15.087 33.697-33.697 0-3.276-.476-6.439-1.348-9.434 18.539-2.783 33.136-17.577 35.638-36.207 4.025 2.037 8.572 3.192 13.392 3.192 16.408 0 29.709-13.301 29.709-29.709-.002-16.408-13.303-29.709-29.711-29.709z" fill="#a49ca7"/><path d="m233.613 327.38h-127.286l15.055-188.189h97.176z" fill="#544f56"/><path d="m161.636 58.35c0 4.35.94 8.47 2.62 12.19-10.961 7.38-18.171 19.901-18.171 34.111 0 16.421 9.64 30.601 23.571 37.172-5.31 2.51-11.24 3.91-17.491 3.91-22.691 0-41.082-18.401-41.082-41.082 0-14.211 7.21-26.731 18.171-34.111-1.68-3.72-2.62-7.84-2.62-12.19 0-16.401 13.301-29.701 29.711-29.701 6.55 0 12.601 2.12 17.501 5.7-7.4 5.4-12.21 14.141-12.21 24.001z" fill="#8e8391"/><path d="m156.386 139.194-15.061 188.188h-35.002l15.061-188.188z" fill="#444145"/><path d="m228.613 168.375h-117.286c-2.762 0-5-2.239-5-5v-35.285c0-2.762 2.239-5 5-5h117.286c2.762 0 5 2.239 5 5v35.286c0 2.761-2.238 4.999-5 4.999z" fill="#766d78"/><path d="m146.325 168.375h-35.002c-2.76 0-5-2.24-5-5v-35.282c0-2.76 2.24-5 5-5h35.002c-2.76 0-5 2.24-5 5v35.282c0 2.76 2.24 5 5 5z" fill="#655e67"/><path d="m442.638 290.75v208.749c0 2.762-2.239 5-5 5h-363.276c-2.762 0-5-2.239-5-5v-208.749l182.305-14.427z" fill="#a49ca7"/><g fill="#fff5f4"><path d="m166.698 360.949h-45.371c-2.762 0-5-2.239-5-5v-23.336c0-2.762 2.239-5 5-5h45.371c2.762 0 5 2.239 5 5v23.336c.001 2.761-2.238 5-5 5z"/><path d="m278.685 360.949h-45.371c-2.762 0-5-2.239-5-5v-23.336c0-2.762 2.239-5 5-5h45.371c2.762 0 5 2.239 5 5v23.336c.001 2.761-2.238 5-5 5z"/><path d="m390.673 360.949h-45.371c-2.762 0-5-2.239-5-5v-23.336c0-2.762 2.239-5 5-5h45.371c2.762 0 5 2.239 5 5v23.336c0 2.761-2.239 5-5 5z"/></g><path d="m136.325 360.953h-15.001c-2.76 0-5-2.24-5-5v-23.341c0-2.76 2.24-5 5-5h15.001c-2.76 0-5 2.24-5 5v23.341c0 2.76 2.24 5 5 5z" fill="#ebe0da"/><path d="m248.32 360.953h-15.001c-2.77 0-5-2.24-5-5v-23.341c0-2.76 2.23-5 5-5h15.001c-2.77 0-5 2.24-5 5v23.341c-.001 2.76 2.23 5 5 5z" fill="#ebe0da"/><path d="m360.305 360.953h-15.001c-2.76 0-5-2.24-5-5v-23.341c0-2.76 2.24-5 5-5h15.001c-2.76 0-5 2.24-5 5v23.341c-.001 2.76 2.239 5 5 5z" fill="#ebe0da"/><path d="m269.581 277.67-165.218 13.08v213.75h-30.001c-2.762 0-5-2.239-5-5v-208.75l182.308-14.43z" fill="#8e8391"/><path d="m442.638 209.797v80.954h-373.276v-38.392c0-2.762 2.239-5 5-5h181.638l78.233-46.182c6.67-3.93 15.091.87 15.091 8.61v37.562l78.233-46.172c6.671-3.931 15.081.88 15.081 8.62z" fill="#606060"/><path d="m104.363 247.358v43.392h-35.001v-38.392c0-2.762 2.239-5 5-5z" fill="#544f56"/><path d="m442.642 455.926v43.573c0 2.762-2.239 5-5 5h-363.284c-2.762 0-5-2.239-5-5v-43.573z" fill="#655e67"/><path d="m133.876 455.926h244.247v48.573h-244.247z" fill="#766d78"/><path d="m318.003 397.665h-62.003v106.835h65.003v-103.835-3z" fill="#655e67"/><path d="m104.363 455.927v48.573h-30.001c-2.766 0-5-2.245-5-5v-43.572h35.001z" fill="#544f56"/><path d="m193.997 397.665c-1.66 0-3 1.34-3 3v103.835h65.003v-106.835z" fill="#544f56"/><g><path d="m442.638 412.303c-4.142 0-7.5 3.358-7.5 7.5v28.624c-10.818 0-96.877 0-106.635 0v-45.766-5c0-4.142-3.358-7.5-7.5-7.5-4.548 0-121.081 0-125.005 0-6.893 0-12.501 5.608-12.501 12.501v45.766c-9.753 0-95.816 0-106.635 0v-88.553c0-4.142-3.358-7.5-7.5-7.5s-7.5 3.358-7.5 7.5v96.054 45.571c0 5.79 4.711 10.5 10.5 10.5h367.276c5.79 0 10.5-4.711 10.5-10.5v-45.572-36.125c0-4.142-3.358-7.5-7.5-7.5zm-316.264 84.696c-10.156 0-39.02 0-49.512 0v-33.571h49.512zm57.123 0h-42.122v-33.571h42.122zm65.003 0h-50.002v-91.837h50.002zm65.003 0h-50.003v-91.837h50.002v91.837zm57.122 0c-6.111 0-38.143 0-42.122 0v-33.571h42.122zm64.513 0h-49.512v-33.571h49.512z"/><path d="m168.698 368.449c5.79 0 10.5-4.711 10.5-10.5v-27.336c0-5.79-4.711-10.5-10.5-10.5h-49.371c-5.79 0-10.5 4.711-10.5 10.5v27.336c0 5.79 4.711 10.5 10.5 10.5zm-44.87-33.336h40.37v18.336h-40.37z"/><path d="m280.686 368.449c5.79 0 10.5-4.711 10.5-10.5v-27.336c0-5.79-4.711-10.5-10.5-10.5h-49.371c-5.79 0-10.5 4.711-10.5 10.5v27.336c0 5.79 4.711 10.5 10.5 10.5zm-44.871-33.336h40.371v18.336h-40.371z"/><path d="m392.672 368.449c5.79 0 10.5-4.711 10.5-10.5v-27.336c0-5.79-4.711-10.5-10.5-10.5h-49.371c-5.79 0-10.5 4.711-10.5 10.5v27.336c0 5.79 4.711 10.5 10.5 10.5zm-44.87-33.336h40.37v18.336h-40.37z"/><path d="m423.745 194.714-66.921 39.495c0-26.638.044-24.928-.11-26.339-1.326-12.483-15.242-19.67-26.294-13.156l-76.457 45.134c-3.289-.011-10.339-.034-19.838-.062l-5.113-63.91h1.6c5.79 0 10.5-4.711 10.5-10.5v-39.286c0-4.644-3.034-8.588-7.222-9.969.585-3.539.704-7.078.384-10.546 15.252-4.837 27.375-16.875 32.369-32.047 2.62.578 5.302.874 7.986.874 20.513 0 37.202-16.693 37.202-37.212 0-35.991-46.164-50.734-67.172-22.083-7.644-4.528-16.409-6.958-25.402-6.958-16.181 0-31.125 7.838-40.388 20.611-6.407-4.869-14.315-7.61-22.524-7.61-20.518 0-37.212 16.689-37.212 37.202 0 3.26.417 6.456 1.242 9.555-10.608 9.178-16.793 22.531-16.793 36.747 0 4.054.501 8.015 1.466 11.858-3.661 1.642-6.222 5.314-6.222 9.58v39.286c0 5.79 4.711 10.5 10.5 10.5h1.592l-5.099 63.701c-7.194.007-26.408.03-33.645.161-5.688.102-10.313 4.813-10.313 10.499v79.636c0 4.142 3.358 7.5 7.5 7.5s7.5-3.358 7.5-7.5v-31.625h358.275v91.551c0 4.142 3.358 7.5 7.5 7.5s7.5-3.358 7.5-7.5c0-5.842 0-174.155 0-180.008.002-13.564-14.744-21.94-26.391-15.079zm-309.918-64.124h55.509c4.142 0 7.5-3.358 7.5-7.5s-3.358-7.5-7.5-7.5h-48.924c-1.207-3.496-1.828-7.156-1.828-10.937 0-11.199 5.555-21.624 14.86-27.89 3.033-2.043 4.152-5.975 2.647-9.308-1.297-2.873-1.955-5.936-1.955-9.104 0-12.242 9.964-22.201 22.211-22.201 7.114 0 13.849 3.452 18.016 9.235 3.393 4.708 10.622 3.931 12.951-1.366 5.574-12.678 18.113-20.87 31.945-20.87 8.415 0 16.547 3.046 22.895 8.576 3.882 3.382 9.954 1.929 11.881-2.848 3.408-8.443 11.493-13.898 20.596-13.898 12.242 0 22.201 9.964 22.201 22.211s-9.96 22.21-22.201 22.21c-3.51 0-6.873-.803-9.997-2.388-4.602-2.334-10.138.576-10.827 5.687-2.057 15.263-14.114 27.515-29.321 29.796-2.14.321-4.038 1.551-5.205 3.374s-1.489 4.061-.884 6.139c1.293 4.443 1.395 9.1.297 13.581h-19.357c-4.142 0-7.5 3.358-7.5 7.5s3.358 7.5 7.5 7.5h26.776v30.286h-112.286zm105.246 109.153c-30.035-.083-68.208-.167-98.204-.171l5.099-63.696h87.997zm216.065 43.507h-358.276v-28.57c30.427-.284 147.326.069 178.286.173h.004c.514.002.809.003.847.003 1.341 0 2.658-.359 3.813-1.042l11.859-7.001 66.369-39.178c.001-.001.003-.001.004-.002 1.665-.977 3.778.197 3.778 2.15v32.308c0 3.851 3.263 16.464 19.519 6.87l70.023-41.326c.003-.002.006-.003.01-.005 1.671-.977 3.763.238 3.763 2.163v73.457z"/></g></g></svg>