<svg id="Layer_1" enable-background="new 0 0 512 512" height="512" viewBox="0 0 512 512" width="512" xmlns="http://www.w3.org/2000/svg"><g><path d="m414.724 381.906h-317.448c-22.027 0-39.883-17.856-39.883-39.883 0-22.027 17.856-39.883 39.883-39.883h317.447c22.027 0 39.883 17.856 39.883 39.883 0 22.027-17.856 39.883-39.882 39.883z" fill="#ffcdbe"/><path d="m256 494.884c-82.109 0-148.672-66.563-148.672-148.672v-152.49h297.344v152.49c0 82.11-66.563 148.672-148.672 148.672z" fill="#766d78"/><path d="m256 465.004c-65.816 0-119.171-53.354-119.171-119.171v-122.23h238.341v122.231c.001 65.816-53.354 119.17-119.17 119.17z" fill="#ffcdbe"/><path d="m273.498 463.724c-5.71.84-11.549 1.28-17.498 1.28-65.814 0-119.169-53.355-119.169-119.169v-122.228h34.997v122.229c0 59.864 44.156 109.429 101.67 117.888z" fill="#fcb19f"/><path d="m287.342 504.501h-62.684c-11.683 0-21.155-9.471-21.155-21.155v-13.491c0-11.683 9.471-21.155 21.155-21.155h62.684c11.683 0 21.155 9.471 21.155 21.155v13.491c0 11.683-9.472 21.155-21.155 21.155z" fill="#fdc202"/><path d="m259.66 504.501h-34.997c-11.689 0-21.158-9.469-21.158-21.158v-13.489c0-11.679 9.469-21.158 21.158-21.158h34.997c-11.689 0-21.158 9.479-21.158 21.158v13.489c0 11.689 9.469 21.158 21.158 21.158z" fill="#f0a70a"/><path d="m430.561 239.927h-349.122v-20.375c0-96.407 78.153-174.56 174.56-174.56 96.407 0 174.56 78.153 174.56 174.56v20.375z" fill="#fdc202"/><g fill="#f0a70a"><path d="m256 185.962c-19.102 0-34.826-15.023-35.696-34.106l-4.877-106.949c-.928-20.353 15.322-37.361 35.696-37.361h9.753c20.374 0 36.624 17.008 35.696 37.361l-4.877 106.949c-.869 19.082-16.593 34.106-35.695 34.106z"/><path d="m429.918 268.561h-347.836c-7.046 0-12.757-5.712-12.757-12.757v-26.248c0-7.046 5.712-12.757 12.757-12.757h347.836c7.046 0 12.757 5.712 12.757 12.757v26.248c0 7.046-5.711 12.757-12.757 12.757z"/><path d="m273.498 45.863c-88.192 8.769-157.066 83.192-157.066 173.694v20.368h-34.996v-20.368c0-96.411 78.153-174.564 174.564-174.564 5.909 0 11.739.29 17.498.87z"/></g><path d="m117.083 268.562h-34.997c-7.049 0-12.759-5.709-12.759-12.759v-26.248c0-7.049 5.709-12.759 12.759-12.759h34.997c-7.049 0-12.759 5.709-12.759 12.759v26.248c0 7.05 5.709 12.759 12.759 12.759z" fill="#e38803"/><path d="m273.498 181.39c-5.18 2.91-11.159 4.57-17.498 4.57-19.098 0-34.827-15.019-35.697-34.107l-4.88-106.95c-.92-20.348 15.329-37.356 35.697-37.356h9.759c4.45 0 8.699.81 12.619 2.29-14.029 5.3-23.798 19.158-23.078 35.067l4.88 106.95c.58 12.748 7.789 23.677 18.198 29.536z" fill="#e38803"/><circle cx="256" cy="177.371" fill="#ffe5a0" r="60.137"/><path d="m273.498 234.916c-5.539 1.69-11.409 2.59-17.498 2.59-33.217 0-60.134-26.917-60.134-60.134s26.918-60.135 60.134-60.135c6.089 0 11.959.9 17.498 2.59-24.678 7.489-42.636 30.417-42.636 57.545 0 27.126 17.959 50.054 42.636 57.544z" fill="#ffdd81"/><circle cx="256" cy="177.371" fill="#f0a70a" r="28.565"/><path d="m267.749 203.408c-3.58 1.63-7.559 2.53-11.749 2.53-15.779 0-28.567-12.789-28.567-28.567 0-15.779 12.789-28.567 28.567-28.567 4.19 0 8.169.9 11.749 2.53-9.919 4.47-16.818 14.449-16.818 26.038-.001 11.588 6.899 21.567 16.818 26.036z" fill="#e38803"/><g><path d="m414.726 294.64h-2.55v-18.578h17.739c11.17 0 20.258-9.088 20.258-20.258v-26.248c0-8.354-5.085-15.541-12.321-18.635-3.792-81.164-60.178-146.909-133.757-167.003.178-11.421-4.035-22.212-11.967-30.51-14.268-14.927-30.241-13.361-41.007-13.361-24.308 0-43.59 19.879-43.215 43.88-18.442 5.033-35.894 12.914-51.949 23.491-3.459 2.279-4.416 6.93-2.137 10.388 2.276 3.455 6.924 4.418 10.388 2.137 13.772-9.073 28.663-15.982 44.367-20.617l3.059 67.058c-24.01 20.92-30.075 55.329-15.241 82.913h-43.394c-4.142 0-7.499 3.358-7.499 7.499s3.358 7.499 7.499 7.499h54.361c26.659 27.624 70.638 27.607 97.281 0h125.274c2.9 0 5.259 2.359 5.259 5.259v26.248c0 2.9-2.359 5.26-5.259 5.26h-347.829c-2.9 0-5.259-2.36-5.259-5.26v-26.248c0-2.9 2.359-5.259 5.259-5.259h40.916c4.142 0 7.499-3.358 7.499-7.499s-3.358-7.499-7.499-7.499h-33.752c2.559-42.698 21.004-82.083 52.45-111.59 3.021-2.834 3.172-7.58.337-10.601-2.835-3.02-7.58-3.171-10.601-.337-34.89 32.74-55.093 76.641-57.29 124.152-7.235 3.094-12.318 10.28-12.318 18.634v26.248c0 11.17 9.088 20.258 20.258 20.258h17.739v18.578c-31.263 0-49.926 22.902-49.926 47.385 0 26.123 21.252 47.376 47.376 47.376h8.594c12.612 43.951 45.045 82.624 91.128 101.42 3.293 12.354 14.453 21.18 27.666 21.18h62.674c13.223 0 24.39-8.84 27.67-21.165 44.375-18.109 77.923-55.508 91.098-101.434h8.621c26.116 0 47.376-21.108 47.376-47.376-.001-26.128-21.253-47.385-47.376-47.385zm-184.012-270.868c9.517-9.957 19.64-8.726 30.165-8.726 16.114 0 28.933 13.426 28.205 29.512-.327 7.177-2.961 64.91-3.289 72.113-18.767-9.25-40.814-9.254-59.591 0-.333-7.298-2.936-64.36-3.289-72.107-.351-7.779 2.418-15.163 7.799-20.792zm25.286 206.236c-29.024 0-52.637-23.613-52.637-52.637s23.613-52.637 52.637-52.637 52.637 23.613 52.637 52.637-23.613 52.637-52.637 52.637zm59.607-20.71c14.772-27.467 8.871-61.904-15.241-82.913l3.058-67.042c65.601 19.379 114.978 78.133 119.326 149.955zm-218.333 165.105c-17.853 0-32.377-14.525-32.377-32.377 0-17.897 14.466-32.387 32.377-32.387h2.55c0 38.709-.629 47.356 2.538 64.764zm98.732 99.625c-48.979-23.063-81.182-73.096-81.182-127.812v-70.154h14.508v69.773c0 47.865 26.803 91.219 68.975 112.777-2.613 6.113-2.301 10.651-2.301 15.416zm104.99 9.314c0 7.566-6.059 13.659-13.659 13.659h-62.674c-7.075 0-12.918-5.303-13.599-12.396-.096-.924-.06-.86-.06-14.751 0-7.359 5.946-13.659 13.659-13.659h62.674c3.834 0 7.378 1.545 9.998 4.369 4.565 4.888 3.661 8.932 3.661 22.778zm92.079-103.234c-10.225 41.5-38.678 75.893-77.081 93.914 0-4.755.313-9.297-2.3-15.413 29.176-14.941 51.62-40.735 62.24-71.921 1.335-3.921-.761-8.181-4.681-9.517-3.922-1.336-8.181.761-9.517 4.681-9.695 28.47-30.57 51.843-57.641 64.774-4.841-3.491-10.714-5.43-16.759-5.43h-62.674c-6.05 0-11.928 1.942-16.764 5.431-38.767-18.497-63.569-57.559-63.569-100.792v-69.773h223.34c0 76.577.112 72.599-.323 78.337-.329 4.343 3.103 8.066 7.486 8.066 3.885 0 7.172-2.996 7.47-6.934.496-6.558.366-3.352.366-79.468h14.508c.001 75.029 1.1 83.041-4.101 104.045zm21.651-5.705h-5.093c3.175-17.384 2.543-26.124 2.543-64.764h2.55c17.853 0 32.377 14.528 32.377 32.387 0 17.921-14.498 32.377-32.377 32.377z"/><path d="m256 141.307c-19.886 0-36.065 16.179-36.065 36.065s16.179 36.065 36.065 36.065 36.065-16.179 36.065-36.065-16.179-36.065-36.065-36.065zm0 57.13c-11.616 0-21.066-9.45-21.066-21.066s9.45-21.066 21.066-21.066 21.066 9.45 21.066 21.066-9.45 21.066-21.066 21.066z"/><path d="m279.902 383.719c-4.142 0-7.499 3.358-7.499 7.499 0 9.044-7.358 16.402-16.402 16.402s-16.402-7.358-16.402-16.402c0-4.142-3.358-7.499-7.499-7.499s-7.499 3.358-7.499 7.499c0 17.314 14.087 31.401 31.401 31.401s31.401-14.087 31.401-31.401c-.002-4.141-3.36-7.499-7.501-7.499z"/><circle cx="312.304" cy="343.932" r="14.199"/><path d="m343.867 301.839c-18.967-11.925-50.876-5.455-52.226-5.174-4.051.845-6.649 4.811-5.809 8.864.84 4.052 4.816 6.659 8.862 5.821 7.566-1.561 29.711-4.03 41.189 3.186 3.509 2.206 8.138 1.147 10.34-2.357 2.206-3.506 1.15-8.135-2.356-10.34z"/><circle cx="199.696" cy="343.932" r="14.199"/><path d="m220.359 296.665c-1.349-.28-33.259-6.751-52.226 5.174-3.506 2.204-4.562 6.834-2.357 10.34 2.203 3.505 6.832 4.562 10.34 2.357 11.478-7.217 33.623-4.748 41.189-3.186 4.049.841 8.02-1.761 8.864-5.812.846-4.055-1.756-8.027-5.81-8.873z"/></g></g></svg>