<svg id="Layer_1" enable-background="new 0 0 512 512" height="512" viewBox="0 0 512 512" width="512" xmlns="http://www.w3.org/2000/svg"><g><circle cx="370.399" cy="209.586" fill="#766d78" r="30.871"/><path d="m391.343 232.262c-5.51 5.09-12.849 8.2-20.939 8.2-17.049 0-30.878-13.829-30.878-30.878s13.829-30.868 30.878-30.868c1.95 0 3.87.18 5.72.53-6.11 5.63-9.93 13.709-9.93 22.679 0 15.097 10.829 27.657 25.149 30.337z" fill="#655e67"/><path d="m378.248 159.139-85.04-134.968-69.564 47.884 95.7 127.63c7.063 9.41 20.279 11.572 29.962 4.906l22.84-15.721c9.682-6.664 12.381-19.782 6.102-29.731z" fill="#f0a70a"/><path d="m355.085 200.613-5.78 3.98c-9.68 6.66-22.899 4.5-29.958-4.91l-95.705-127.633 69.566-47.877 10.589 16.799-45.157 31.078 95.705 127.633c.24.32.48.63.74.93z" fill="#e38803"/><path d="m92.587 250.977c-23.658-23.439-23.057-61.856 1.322-84.544l161.984-150.749c11.936-11.108 30.512-10.818 42.095.658l27.317 27.064c11.583 11.476 12.046 30.048 1.049 42.087l-149.239 163.377c-22.461 24.589-60.87 25.546-84.528 2.107z" fill="#fdc202"/><circle cx="274.543" cy="66.524" fill="#655e67" r="15.274"/><path d="m116.918 262.31c1.6 1.58 3.26 3.06 4.99 4.41-10.719-2.2-20.939-7.44-29.318-15.739-23.659-23.439-23.059-61.857 1.32-84.545l161.98-150.753c11.939-11.109 30.518-10.819 42.098.66l2.56 2.54c-7.3.08-14.579 2.78-20.319 8.129l-161.991 150.753c-24.379 22.688-24.979 61.106-1.32 84.545z" fill="#f0a70a"/><path d="m504.486 427.791v27.858c0 16.559-13.429 29.998-29.998 29.998h-279.835v-87.855h279.835c16.569.001 29.998 13.43 29.998 29.999z" fill="#8e8391"/><circle cx="333.136" cy="443.055" fill="#d8cecc" r="16.436"/><circle cx="438.231" cy="443.055" fill="#d8cecc" r="16.436"/><g fill="#40c1fa"><path d="m341.254 397.79h-53.997v-58.018c0-2.761 2.238-5 5-5h43.998c2.761 0 5 2.238 5 5v58.018z"/><path d="m453.542 397.79h-53.997v-58.018c0-2.761 2.238-5 5-5h43.998c2.761 0 5 2.238 5 5v58.018z"/></g><path d="m319.257 334.776c-2.76 0-5 2.23-5 5v58.017h-26.999v-58.017c0-2.77 2.24-5 5-5z" fill="#07a9f0"/><path d="m431.54 334.776c-2.76 0-5 2.23-5 5v58.017h-26.999v-58.017c0-2.77 2.24-5 5-5z" fill="#07a9f0"/><path d="m292.958 423.111v62.537h-98.305v-87.855h89.745c5.37 7.019 8.56 15.799 8.56 25.318z" fill="#766d78"/><path d="m229.741 407.352h-192.008l9.391-231.472c1.268-31.253 26.973-55.936 58.251-55.936h56.723c31.278 0 56.983 24.683 58.251 55.936z" fill="#b3adb6"/><circle cx="133.737" cy="177.752" fill="#655e67" r="22.566"/><path d="m140.376 119.948c-31.278 0-56.987 24.679-58.257 55.937l-9.39 231.467h-34.997l9.39-231.467c1.27-31.258 26.979-55.937 58.257-55.937z" fill="#a49ca7"/><path d="m226.415 337.516h-183.761c-10.873 0-19.687-8.814-19.687-19.687v-56.252c0-10.873 8.814-19.687 19.687-19.687h183.761c10.873 0 19.687 8.814 19.687 19.687v56.252c0 10.872-8.814 19.687-19.687 19.687z" fill="#fdc202"/><path d="m17.513 504.501h232.448c5.523 0 9.999-4.477 9.999-9.999v-71.395c0-23.046-18.682-41.728-41.728-41.728h-168.991c-23.046 0-41.728 18.682-41.728 41.728v71.395c.001 5.522 4.477 9.999 10 9.999z" fill="#fdc202"/><circle cx="61.635" cy="451.363" fill="#655e67" r="16.436"/><path d="m77.65 337.516h-34.998c-10.869 0-19.689-8.82-19.689-19.689v-56.247c0-10.88 8.82-19.689 19.689-19.689h34.998c-10.869 0-19.689 8.809-19.689 19.689v56.247c0 10.869 8.819 19.689 19.689 19.689z" fill="#f0a70a"/><path d="m42.512 423.111v71.386c0 5.53 4.48 9.999 9.999 9.999h-34.998c-5.52 0-9.999-4.47-9.999-9.999v-71.386c0-23.049 18.679-41.728 41.728-41.728h34.998c-23.049 0-41.728 18.68-41.728 41.728z" fill="#f0a70a"/><path d="m106.171 310.545h-47.259c-2.761 0-5-2.238-5-5v-29.537c0-2.761 2.238-5 5-5h47.259c2.761 0 5 2.238 5 5v29.537c0 2.761-2.239 5-5 5z" fill="#fff5f4"/><path d="m93.909 310.547h-34.998c-2.76 0-5-2.24-5-5v-29.538c0-2.76 2.24-5 5-5h34.998c-2.76 0-5 2.24-5 5v29.538c0 2.761 2.24 5 5 5z" fill="#ebe0da"/><g><path d="m474.488 390.293h-13.447v-50.522c0-6.892-5.607-12.499-12.499-12.499h-43.998c-6.892 0-12.499 5.607-12.499 12.499v50.576c-.285-.033-.573-.054-.867-.054h-42.425v-50.522c0-6.892-5.607-12.499-12.499-12.499h-43.998c-6.892 0-12.499 5.607-12.499 12.499v50.522h-24.867c-5.13-5.725-11.58-10.238-18.865-13.073l-1.356-33.49c10.967-3.503 18.933-13.788 18.933-25.902v-56.252c0-13.691-10.174-25.045-23.358-26.912l-1.276-31.439 45.944-50.297 38.436 51.256c4.836 6.445 11.785 10.349 19.162 11.457 2.914 18.292 18.795 32.319 37.895 32.319 11.115 0 21.657-4.912 28.873-13.137l15.494 7.636c-2.119 7.57-2.064 15.83.649 23.82 3.47 10.219 10.711 18.475 20.391 23.247 5.643 2.782 11.718 4.185 17.83 4.185 4.373 0 8.765-.719 13.027-2.166 3.923-1.331 6.022-5.591 4.69-9.513-1.332-3.923-5.593-6.022-9.512-4.69-6.426 2.182-13.316 1.73-19.402-1.27s-10.639-8.191-12.821-14.616c-4.504-13.263 2.623-27.718 15.886-32.222 6.425-2.182 13.316-1.73 19.402 1.27s10.639 8.191 12.821 14.616c1.332 3.922 5.592 6.021 9.512 4.69 3.923-1.331 6.022-5.591 4.69-9.513-3.47-10.219-10.711-18.475-20.39-23.247-9.681-4.772-20.639-5.489-30.857-2.019-7.984 2.711-14.566 7.691-19.279 13.976l-14.637-7.214c1.313-3.915 2.002-8.037 2.002-12.211 0-14.36-7.816-27.14-20.051-33.738 1.196-6.922-.081-14.289-4.132-20.707l-46.496-73.787c6.859-14.322 4.028-31.837-7.512-43.276l-27.316-27.056c-14.489-14.365-37.547-14.728-52.487-.824l-109.873 102.254h-35.528c-35.431 0-64.312 27.731-65.75 63.132l-2.41 59.356c-12.395 2.525-21.751 13.51-21.751 26.64v56.252c0 11.528 7.216 21.396 17.365 25.343l-1.383 34.049c-18.373 7.149-31.436 25.016-31.436 45.886v76.394c0 6.892 5.607 12.499 12.499 12.499h242.448c6.892 0 12.499-5.607 12.499-12.499v-6.353h172.49c4.142 0 7.5-3.358 7.5-7.5s-3.357-7.5-7.5-7.5h-172.49v-55.042c0-6.282-1.195-12.286-3.35-17.814h210.378c12.406 0 22.499 10.093 22.499 22.499v27.859c0 12.406-10.093 22.499-22.499 22.499h-4.54c-4.142 0-7.5 3.358-7.5 7.5s3.357 7.5 7.5 7.5h4.54c20.677 0 37.498-16.821 37.498-37.498v-27.859c0-20.677-16.821-37.498-37.498-37.498zm-179.732-48.022h38.998v48.019h-38.998zm99.017-132.688c0 4.204-1.126 8.322-3.261 11.913-4.259 7.179-11.776 11.466-20.108 11.466-11.381 0-20.883-8.176-22.955-18.962 2.11-.818 4.16-1.889 6.107-3.228l22.841-15.719c2.317-1.595 4.33-3.464 6.036-5.527 6.948 4.139 11.34 11.653 11.34 20.057zm-21.027-32.6c-.031.067-.065.132-.094.201-1.055 2.144-2.649 4.059-4.76 5.513l-22.839 15.718c-1.992 1.371-4.205 2.176-6.449 2.447-.014.002-.028.003-.042.005-4.939.582-10.02-1.421-13.217-5.682l-40.139-53.526 43.295-47.397 43.399 68.878c2.735 4.329 2.885 9.534.846 13.843zm-267.368-49.536h56.717c8.265 0 16.149 1.922 23.431 5.714 3.674 1.912 8.202.485 10.115-3.188 1.913-3.674.485-8.203-3.188-10.116-9.07-4.723-19.268-7.269-29.543-7.397l98.089-91.287c9.028-8.399 22.958-8.182 31.711.498l27.316 27.057c8.613 8.538 9.137 22.544.794 31.703l-50.929 55.755c-.014.016-.028.031-.042.046l-41.745 45.7-.258-6.353c-.481-11.851-4.147-23.346-10.6-33.24-2.263-3.47-6.91-4.447-10.378-2.184-3.469 2.263-4.448 6.909-2.184 10.378 4.977 7.632 7.805 16.503 8.177 25.655l2.363 58.201h-162.972l2.363-58.2c1.11-27.332 23.408-48.742 50.763-48.742zm-74.912 134.13c0-6.72 5.467-12.188 12.188-12.188h183.76c6.72 0 12.188 5.467 12.188 12.188v56.252c0 6.72-5.467 12.187-12.188 12.187h-183.76c-6.72 0-12.188-5.467-12.188-12.187zm-15.453 235.424v-73.894c0-18.873 15.355-34.228 34.228-34.228h21.293c4.142 0 7.5-3.358 7.5-7.5s-3.358-7.5-7.5-7.5c-23.335 0-22.067-.027-23.941.073l1.175-28.937h171.942l1.171 28.937c-2.019-.107 6.507-.073-120.349-.073-4.142 0-7.5 3.358-7.5 7.5s3.358 7.5 7.5 7.5h117.7c18.873 0 34.228 15.355 34.228 34.228v62.522c0 .006-.001.013-.001.019s.001.013.001.019v11.334zm392.031-154.73h38.998v48.019h-38.998z"/><path d="m309.2 443.055c0 13.198 10.738 23.935 23.935 23.935 13.198 0 23.935-10.737 23.935-23.935s-10.738-23.935-23.935-23.935c-13.197-.001-23.935 10.737-23.935 23.935zm32.871 0c0 4.927-4.009 8.936-8.936 8.936s-8.936-4.009-8.936-8.936 4.009-8.936 8.936-8.936 8.936 4.008 8.936 8.936z"/><path d="m414.295 443.055c0 13.198 10.738 23.935 23.936 23.935s23.935-10.737 23.935-23.935c0-31.632-47.871-31.632-47.871 0zm23.936 8.936c-4.927 0-8.937-4.009-8.937-8.936s4.01-8.936 8.937-8.936 8.936 4.009 8.936 8.936-4.008 8.936-8.936 8.936z"/><path d="m133.737 207.818c16.578 0 30.066-13.488 30.066-30.066s-13.488-30.066-30.066-30.066-30.066 13.488-30.066 30.066c0 16.579 13.488 30.066 30.066 30.066zm0-45.132c8.308 0 15.067 6.759 15.067 15.067s-6.759 15.067-15.067 15.067-15.067-6.759-15.067-15.067c.001-8.308 6.759-15.067 15.067-15.067z"/><path d="m284.263 87.119c18.342-8.657 16.937-35.226-2.03-42.031-19.163-6.874-36.868 12.974-28.285 31.157 5.349 11.333 18.88 16.271 30.315 10.874zm-17.038-23.22c2.346-6.539 11.409-6.92 14.349-.693 1.829 3.877.164 8.52-3.713 10.35-6.201 2.925-12.985-3.109-10.636-9.657z"/><path d="m53.913 318.044h57.258c4.142 0 7.5-3.358 7.5-7.5v-39.536c0-4.142-3.358-7.5-7.5-7.5h-57.258c-4.142 0-7.5 3.358-7.5 7.5v39.536c0 4.143 3.358 7.5 7.5 7.5zm7.499-39.536h42.259v24.537h-42.259z"/><path d="m146.416 282.714h3.061c4.142 0 7.5-3.358 7.5-7.5s-3.358-7.5-7.5-7.5h-3.061c-4.142 0-7.5 3.358-7.5 7.5s3.358 7.5 7.5 7.5z"/><path d="m177.245 282.714h3.061c4.142 0 7.5-3.358 7.5-7.5s-3.358-7.5-7.5-7.5h-3.061c-4.142 0-7.5 3.358-7.5 7.5s3.358 7.5 7.5 7.5z"/><path d="m208.075 282.714h3.061c4.142 0 7.5-3.358 7.5-7.5s-3.358-7.5-7.5-7.5h-3.061c-4.142 0-7.5 3.358-7.5 7.5s3.358 7.5 7.5 7.5z"/><path d="m146.416 311.69h3.061c4.142 0 7.5-3.358 7.5-7.5s-3.358-7.5-7.5-7.5h-3.061c-4.142 0-7.5 3.358-7.5 7.5s3.358 7.5 7.5 7.5z"/><path d="m177.245 311.69h3.061c4.142 0 7.5-3.358 7.5-7.5s-3.358-7.5-7.5-7.5h-3.061c-4.142 0-7.5 3.358-7.5 7.5s3.358 7.5 7.5 7.5z"/><path d="m208.075 311.69h3.061c4.142 0 7.5-3.358 7.5-7.5s-3.358-7.5-7.5-7.5h-3.061c-4.142 0-7.5 3.358-7.5 7.5s3.358 7.5 7.5 7.5z"/><path d="m61.635 427.427c-13.198 0-23.936 10.737-23.936 23.935s10.738 23.936 23.936 23.936 23.935-10.738 23.935-23.936c0-13.197-10.737-23.935-23.935-23.935zm0 32.872c-4.927 0-8.937-4.009-8.937-8.937 0-4.927 4.009-8.936 8.937-8.936s8.936 4.009 8.936 8.936c0 4.928-4.009 8.937-8.936 8.937z"/><path d="m213.276 419.144h-1.81v-2.497c0-4.142-3.358-7.5-7.5-7.5s-7.5 3.358-7.5 7.5v2.497h-1.81c-4.142 0-7.5 3.358-7.5 7.5s3.358 7.5 7.5 7.5h1.81v35.09c0 4.142 3.358 7.5 7.5 7.5s7.5-3.358 7.5-7.5v-35.09h1.81c4.142 0 7.5-3.358 7.5-7.5 0-4.143-3.358-7.5-7.5-7.5z"/><path d="m172.832 446.279h-1.81v-29.633c0-4.142-3.358-7.5-7.5-7.5s-7.5 3.358-7.5 7.5v29.633h-1.81c-4.142 0-7.5 3.358-7.5 7.5s3.358 7.5 7.5 7.5h1.81v7.954c0 4.142 3.358 7.5 7.5 7.5s7.5-3.358 7.5-7.5v-7.954h1.81c4.142 0 7.5-3.358 7.5-7.5-.001-4.142-3.358-7.5-7.5-7.5z"/><path d="m132.387 427.427h-1.81v-10.781c0-4.142-3.358-7.5-7.5-7.5s-7.5 3.358-7.5 7.5v10.781h-1.81c-4.142 0-7.5 3.358-7.5 7.5s3.358 7.5 7.5 7.5h1.81v26.806c0 4.142 3.358 7.5 7.5 7.5s7.5-3.358 7.5-7.5v-26.806h1.81c4.142 0 7.5-3.358 7.5-7.5s-3.358-7.5-7.5-7.5z"/></g></g></svg>