<svg id="Layer_1" enable-background="new 0 0 512 512" height="512" viewBox="0 0 512 512" width="512" xmlns="http://www.w3.org/2000/svg"><g><path d="m215.32 302.4-10.38-96.81c-.82-7.62-7.25-13.4-14.92-13.4h-137.55c-8.1 0-14.74 6.43-15 14.52l-4.19 130.38c-15.92 8.91-25.78 25.73-25.78 43.97v19.58c0 6.61 5.36 11.97 11.97 11.97h299.53v-103.28zm-34.75 69.59-45.56-.06c-2.4-.01-4.46-1.71-4.91-4.07l-6.55-34.46c-.45-2.36-2.52-4.07-4.92-4.07h-45.99c-2.81 0-5.08-2.32-5-5.14l2.67-95.48c.07-2.71 2.29-4.86 4.99-4.86h90.46c2.56 0 4.7 1.92 4.97 4.46l14.82 138.15c.32 2.95-2 5.53-4.98 5.53z" fill="#655e67"/><g fill="#544f56"><path d="m52.47 192.19c-8.1 0-14.74 6.43-15 14.52l-4.19 130.38c-15.92 8.91-25.78 25.73-25.78 43.97v19.58c0 6.61 5.36 11.97 11.97 11.97h35c-6.61 0-11.97-5.36-11.97-11.97v-19.58c0-18.24 9.86-35.06 25.78-43.97l.32-9.83c-.64-.86-.99-1.92-.96-3.07l2.67-95.48c.04-1.38.63-2.62 1.57-3.5l.59-18.5c.26-8.09 6.9-14.52 15-14.52z"/><circle cx="74.22" cy="415.03" r="37.802"/><circle cx="242.465" cy="415.03" r="37.802"/></g><path d="m313.23 380.832v-33.77h188.791c1.369 0 2.479 1.11 2.479 2.479 0 17.281-14.009 31.291-31.291 31.291z" fill="#655e67"/><path d="m483.885 347.062h-136.885v-116.659h131.885c2.761 0 5 2.239 5 5z" fill="#72d1fb"/><path d="m459 230.403h-112v-88.334h107c2.761 0 5 2.239 5 5z" fill="#c97e67"/><path d="m438.527 142.069h-91.527v-77.9c0-2.761 2.239-5 5-5h81.527c2.761 0 5 2.239 5 5z" fill="#fdc202"/><path d="m336.751 452.832h-13.271c-5.66 0-10.249-4.589-10.249-10.249v-310.867c0-9.325 7.56-16.885 16.885-16.885 9.325 0 16.885 7.56 16.885 16.885v310.866c-.001 5.661-4.59 10.25-10.25 10.25z" fill="#8e8391"/><path d="m91.72 448.55c-5.23 2.73-11.18 4.28-17.5 4.28-20.88 0-37.8-16.92-37.8-37.8s16.92-37.8 37.8-37.8c6.32 0 12.27 1.55 17.5 4.28-12.07 6.32-20.3 18.96-20.3 33.52s8.23 27.2 20.3 33.52z" fill="#444145"/><path d="m259.97 448.55c-5.24 2.73-11.19 4.28-17.5 4.28-20.88 0-37.81-16.92-37.81-37.8s16.93-37.8 37.81-37.8c6.31 0 12.26 1.55 17.5 4.28-12.07 6.32-20.31 18.96-20.31 33.52s8.24 27.2 20.31 33.52z" fill="#444145"/><path d="m347 230.4h35v116.66h-35z" fill="#40c1fa"/><path d="m347 142.07h35v88.33h-35z" fill="#c0694e"/><path d="m387 59.17c-2.76 0-5 2.24-5 5v77.9h-35v-77.9c0-2.76 2.24-5 5-5z" fill="#f0a70a"/><path d="m427.167 280.498h-23.45c-2.761 0-5-2.239-5-5v-45.095h33.45v45.095c0 2.762-2.238 5-5 5z" fill="#e5646e"/><path d="m410.442 186.997h-20c-2.761 0-5-2.239-5-5v-39.929h30v39.929c0 2.762-2.238 5-5 5z" fill="#6dc54a"/><path d="m402.764 104.097h-20c-2.761 0-5-2.239-5-5v-39.929h30v39.929c0 2.762-2.239 5-5 5z" fill="#40c1fa"/><g><ellipse cx="74.22" cy="415.03" rx="13.576" ry="13.576" transform="matrix(.973 -.23 .23 .973 -93.369 28.155)"/><path d="m101.016 231.345c4.143 0 7.5-3.358 7.5-7.5s-3.357-7.5-7.5-7.5h-30.575c-4.061 0-7.384 3.232-7.497 7.291l-2.941 105.486c-.118 4.225 3.279 7.709 7.497 7.709h49.064l6.941 36.492c.673 3.535 3.76 6.094 7.358 6.099l55.271.074h.01c4.456 0 7.933-3.871 7.457-8.3l-15.89-148.151c-.408-3.811-3.624-6.7-7.457-6.7h-39.24c-4.143 0-7.5 3.358-7.5 7.5s3.357 7.5 7.5 7.5h32.502l5.666 52.828-19.546-7.504 1.767-5.174c1.339-3.92-.754-8.183-4.674-9.521-3.914-1.337-8.183.753-9.521 4.673l-8.205 24.021c-1.664 4.872 1.973 9.926 7.099 9.926 3.119 0 6.032-1.961 7.097-5.078l1.586-4.642 26.196 10.057 6.816 63.553-40.714-.054-6.942-36.5c-.673-3.539-3.767-6.099-7.368-6.099h-47.561l2.523-90.486z"/><circle cx="242.465" cy="415.03" r="13.576"/><path d="m233.25 344.832v-9c0-4.142-3.357-7.5-7.5-7.5s-7.5 3.358-7.5 7.5v9c0 4.142 3.357 7.5 7.5 7.5s7.5-3.358 7.5-7.5z"/><path d="m265.5 344.832v-9c0-4.142-3.357-7.5-7.5-7.5s-7.5 3.358-7.5 7.5v9c0 4.142 3.357 7.5 7.5 7.5s7.5-3.358 7.5-7.5z"/><path d="m504.5 339.56h-13.115v-106.157c0-5.79-4.71-10.5-10.5-10.5h-14.385v-77.834c0-5.79-4.71-10.5-10.5-10.5h-9.973v-72.4c0-5.79-4.71-10.5-10.5-10.5-10.384 0-76.013 0-85.527 0-5.79 0-10.5 4.71-10.5 10.5v47.044c-16.034-6.712-33.77 5.158-33.77 22.504v169.206l-83.624-5.586-3.518-32.805c-.441-4.118-4.134-7.101-8.257-6.658-4.118.441-7.099 4.138-6.657 8.256l4.188 39.069c.388 3.622 3.322 6.441 6.957 6.684l90.91 6.073v89.154h-19.07c-4.537-20.222-22.623-35.382-44.195-35.382-21.571 0-39.657 15.16-44.194 35.382h-79.856c-4.537-20.222-22.623-35.382-44.194-35.382s-39.657 15.16-44.194 35.382h-10.556c-2.465 0-4.47-2.005-4.47-4.47v-19.58c0-15.51 8.408-29.85 21.943-37.426 2.294-1.284 3.749-3.676 3.833-6.304l4.189-130.379c.131-4.072 3.428-7.262 7.504-7.262h137.55c3.844 0 7.053 2.881 7.464 6.7l2.993 27.912c.441 4.118 4.134 7.1 8.257 6.657 4.118-.441 7.099-4.138 6.657-8.257l-2.993-27.915c-1.233-11.457-10.854-20.097-22.378-20.097h-137.549c-12.221 0-22.103 9.566-22.496 21.779l-4.06 126.335c-16.087 10.662-25.914 28.776-25.914 48.257v19.58c0 10.736 8.734 19.47 19.47 19.47h9.74c2.534 22.596 21.748 40.222 45.01 40.222s42.475-17.626 45.01-40.222h78.226c2.534 22.596 21.748 40.222 45.01 40.222s42.476-17.626 45.01-40.222h18.255v22.473c0 9.787 7.962 17.749 17.749 17.749h13.271c9.787 0 17.749-7.962 17.749-17.749v-54.253h26.787c4.143 0 7.5-3.358 7.5-7.5s-3.357-7.5-7.5-7.5h-26.787v-18.768c8.565 0 135.903-.002 141.42-.002-1.227 4.142-3.474 7.937-6.612 11.076-4.962 4.961-11.56 7.694-18.577 7.694h-59.443c-4.143 0-7.5 3.358-7.5 7.5s3.357 7.5 7.5 7.5h59.443c11.024 0 21.389-4.292 29.184-12.087 7.793-7.794 12.085-18.159 12.085-29.183 0-4.142-3.357-7.5-7.5-7.5zm-430.28 105.772c-16.708 0-30.302-13.593-30.302-30.302s13.594-30.302 30.302-30.302 30.302 13.594 30.302 30.302-13.594 30.302-30.302 30.302zm168.245 0c-16.708 0-30.302-13.593-30.302-30.302s13.594-30.302 30.302-30.302c16.709 0 30.303 13.594 30.303 30.302s-13.594 30.302-30.303 30.302zm97.035-2.749c0 1.516-1.233 2.749-2.749 2.749h-13.271c-1.516 0-2.749-1.233-2.749-2.749 0-14.442 0-299.094 0-310.866 0-5.175 4.21-9.385 9.385-9.385s9.385 4.21 9.385 9.385c-.001 18.255-.001 292.827-.001 310.866zm45.764-375.915h15v29.929h-15zm-30.764 0h15.764v37.429c0 4.142 3.357 7.5 7.5 7.5h30c4.143 0 7.5-3.358 7.5-7.5v-37.429h15.764v67.9c-9.107 0-67.406 0-76.527 0-.001-6.982-.001-60.156-.001-67.9zm53.442 82.901v29.929h-15v-29.929zm-53.442 0h23.442v37.429c0 4.142 3.357 7.5 7.5 7.5h30c4.143 0 7.5-3.358 7.5-7.5v-37.429h15.585 12.973v73.334c-11.163 0-84.408 0-97 0zm70.167 88.334v35.095h-18.449v-35.095zm51.718 101.657h-121.885v-101.657h36.718v42.595c0 4.142 3.357 7.5 7.5 7.5h33.449c4.143 0 7.5-3.358 7.5-7.5v-42.595h36.718z"/></g></g></svg>