<svg id="Layer_1" enable-background="new 0 0 512 512" height="512" viewBox="0 0 512 512" width="512" xmlns="http://www.w3.org/2000/svg"><g><path d="m7.479 292.942h339.983v37.24h-339.983z" fill="#8e8391"/><path d="m290.438 330.182h-282.959v-227.098c0-8.264 6.699-14.963 14.963-14.963h253.034c8.264 0 14.963 6.699 14.963 14.963v227.098z" fill="#fed22b"/><path d="m490.561 258.588-38.025-2.554-8.714-58.656c-.726-4.889-4.924-8.509-9.867-8.509h-92.502c-5.509 0-9.975 4.466-9.975 9.975v131.338h173.043v-56.665c0-7.874-6.103-14.401-13.96-14.929z" fill="#fed22b"/><path d="m376.369 188.871c-5.516 0-9.975 4.469-9.975 9.975v131.342h-34.913v-131.342c0-5.506 4.459-9.975 9.975-9.975z" fill="#fdc202"/><path d="m57.357 88.123c-8.269 0-14.963 6.693-14.963 14.963v252.369h-29.925c-2.753 0-4.988-2.234-4.988-4.988v-247.382c0-8.269 6.693-14.963 14.963-14.963h34.913z" fill="#fdc202"/><path d="m414.054 252.377h-47.668c-2.755 0-4.988-2.233-4.988-4.988v-28.357c0-2.755 2.233-4.988 4.988-4.988h45.557c2.611 0 4.78 2.014 4.974 4.617l2.111 28.357c.215 2.894-2.074 5.359-4.974 5.359z" fill="#fff5f4"/><path d="m504.519 322.207v28.259c0 2.753-2.235 4.988-4.988 4.988h-487.062c-2.753 0-4.988-2.234-4.988-4.988v-28.259z" fill="#a49ca7"/><path d="m42.394 322.207v33.247h-29.925c-2.753 0-4.988-2.234-4.988-4.988v-28.259z" fill="#8e8391"/><path d="m42.394 322.207v33.247h-29.925c-2.753 0-4.988-2.234-4.988-4.988v-28.259z" fill="#8e8391"/><path d="m394.314 252.382h-27.93c-2.753 0-4.988-2.234-4.988-4.988v-28.359c0-2.753 2.234-4.988 4.988-4.988h27.93c-2.753 0-4.988 2.234-4.988 4.988v28.359c.001 2.753 2.235 4.988 4.988 4.988z" fill="#ebe0da"/><g fill="#544f56"><circle cx="88.585" cy="373.019" r="50.873"/><circle cx="234.387" cy="373.019" r="50.873"/><circle cx="428.402" cy="373.019" r="50.873"/></g><path d="m106.045 420.808c-5.446 1.995-11.322 3.082-17.456 3.082-28.1 0-50.873-22.773-50.873-50.873s22.773-50.873 50.873-50.873c6.135 0 12.01 1.087 17.456 3.082-19.501 7.112-33.416 25.825-33.416 47.79-.001 21.967 13.915 40.68 33.416 47.792z" fill="#444145"/><path d="m251.85 420.808c-5.446 1.995-11.332 3.082-17.466 3.082-28.09 0-50.873-22.773-50.873-50.873s22.783-50.873 50.873-50.873c6.135 0 12.02 1.087 17.466 3.082-19.501 7.112-33.426 25.825-33.426 47.79 0 21.967 13.925 40.68 33.426 47.792z" fill="#444145"/><path d="m445.865 420.808c-5.447 1.995-11.332 3.082-17.466 3.082-28.09 0-50.873-22.773-50.873-50.873s22.783-50.873 50.873-50.873c6.135 0 12.02 1.087 17.466 3.082-19.501 7.112-33.426 25.825-33.426 47.79 0 21.967 13.925 40.68 33.426 47.792z" fill="#444145"/><g><path d="m7.482 199.866c4.132 0 7.481-3.35 7.481-7.481v-89.3c0-4.125 3.356-7.481 7.481-7.481h176.462c4.132 0 7.481-3.35 7.481-7.481s-3.349-7.481-7.481-7.481h-176.462c-12.375-.001-22.444 10.067-22.444 22.443v89.3c0 4.132 3.349 7.481 7.482 7.481z"/><path d="m43.057 135.004v140.41c0 4.132 3.349 7.481 7.481 7.481s7.481-3.35 7.481-7.481v-140.41c0-4.132-3.349-7.481-7.481-7.481s-7.481 3.349-7.481 7.481z"/><path d="m92.267 135.004v140.41c0 4.132 3.349 7.481 7.481 7.481s7.481-3.35 7.481-7.481v-140.41c0-4.132-3.349-7.481-7.481-7.481s-7.481 3.349-7.481 7.481z"/><path d="m141.477 135.004v140.41c0 4.132 3.349 7.481 7.481 7.481s7.481-3.35 7.481-7.481v-140.41c0-4.132-3.349-7.481-7.481-7.481s-7.481 3.349-7.481 7.481z"/><path d="m198.169 127.523c-4.132 0-7.481 3.35-7.481 7.481v140.41c0 4.132 3.349 7.481 7.481 7.481s7.481-3.35 7.481-7.481v-140.41c0-4.132-3.349-7.481-7.481-7.481z"/><path d="m254.86 275.414v-140.41c0-4.132-3.349-7.481-7.481-7.481s-7.481 3.35-7.481 7.481v140.41c0 4.132 3.349 7.481 7.481 7.481s7.481-3.349 7.481-7.481z"/><path d="m361.399 259.858h58.028c2.081 0 4.067-.866 5.483-2.391 1.415-1.525 2.131-3.57 1.977-5.646l-2.854-38.332c-.291-3.905-3.545-6.926-7.461-6.926h-55.174c-4.132 0-7.481 3.35-7.481 7.481v38.332c0 4.133 3.349 7.482 7.482 7.482zm7.481-38.332h40.748l1.74 23.369h-42.488z"/><path d="m512 273.519c0-11.769-9.195-21.607-20.934-22.397l-32.013-2.15-7.833-52.696c-1.286-8.626-8.547-14.887-17.264-14.887h-92.499c-9.625 0-17.456 7.831-17.456 17.456v86.614h-26.085v-182.374c0-12.376-10.069-22.444-22.444-22.444h-46.639c-4.132 0-7.481 3.35-7.481 7.481s3.349 7.481 7.481 7.481h46.639c4.125 0 7.481 3.356 7.481 7.481v211.641c-12.213 0-257.596 0-267.989 0v-21.785-70.63c0-4.132-3.349-7.481-7.481-7.481s-7.483 3.349-7.483 7.481v133.144c0 4.13 3.342 7.481 7.481 7.481h23.631c-6.29 35.567 21.258 68.419 57.476 68.419 32.17 0 58.354-26.185 58.354-58.354 0-3.431-.299-6.793-.878-10.065h30.843c-.579 3.272-.878 6.633-.878 10.065 0 52.18 63.641 77.959 100.02 40.858 2.893-2.953 2.853-7.691-.1-10.584s-7.691-2.843-10.583.1c-27.047 27.604-74.374 8.424-74.374-30.374 0-42.506 54.584-59.263 78.823-25.027 6.91 9.753 9.36 21.703 7.212 33.127-.768 4.06 1.905 7.97 5.965 8.738 4.05.768 7.97-1.905 8.738-5.965 1.269-6.761 1.369-13.927.13-20.938h79.062c-6.292 35.58 21.279 68.419 57.476 68.419 32.18 0 58.354-26.185 58.354-58.354 0-3.431-.299-6.793-.878-10.065h18.644c4.14 0 7.481-3.352 7.481-7.481.001-6.626.001-71.532.001-81.935zm-173.038-74.673c0-1.375 1.118-2.494 2.494-2.494h92.499c1.245 0 2.281.896 2.465 2.127l8.718 58.654c.517 3.48 3.389 6.129 6.899 6.364l38.024 2.554c3.912.263 6.976 3.544 6.976 7.468v41.207c-6.771 0-151.312 0-158.074 0v-115.88zm-41.047 101.576h26.085v14.304h-26.085zm-282.952 47.551v-17.778c0-.002 0-.005 0-.007v-.499h34.553c-5.656 5.117-10.324 11.322-13.636 18.284zm117.017 25.027c0 23.92-19.471 43.392-43.392 43.392-35.136 0-55.691-39.826-35.431-68.419 24.258-34.262 78.823-17.437 78.823 25.027zm49.696-25.027h-40.379c-3.322-6.963-7.98-13.167-13.646-18.284h67.671c-5.666 5.117-10.324 11.321-13.646 18.284zm105.416 0c-3.312-6.963-7.98-13.167-13.636-18.284h115.88c-5.666 5.117-10.324 11.322-13.646 18.284zm184.698 25.027c0 23.92-19.461 43.392-43.392 43.392-35.078 0-55.691-39.735-35.431-68.419 24.64-34.755 78.823-16.674 78.823 25.027zm9.317-25.027c-3.312-6.963-7.98-13.167-13.636-18.284h29.566v18.284z"/><path d="m378.243 275.153h-13.159c-4.132 0-7.481 3.35-7.481 7.481 0 4.132 3.349 7.481 7.481 7.481h13.159c4.132 0 7.481-3.35 7.481-7.481s-3.349-7.481-7.481-7.481z"/><ellipse cx="88.585" cy="372.998" rx="16.814" ry="16.814" transform="matrix(.383 -.924 .924 .383 -289.92 312.1)"/><circle cx="234.387" cy="372.998" r="16.814"/><path d="m428.402 356.184c-9.286 0-16.814 7.528-16.814 16.814s7.528 16.814 16.814 16.814 16.814-7.528 16.814-16.814-7.528-16.814-16.814-16.814z"/></g></g></svg>