<svg id="Layer_1" enable-background="new 0 0 512 512" height="512" viewBox="0 0 512 512" width="512" xmlns="http://www.w3.org/2000/svg"><g><path d="m341.484 383.211c-1.09.02-2.18.04-3.27.04-1.1 0-2.19-.02-3.28-.04-.5-.01-1-.03-1.49-.04-98.09-3.29-156.381-111.921-106.081-196.621l17.7-29.79 86.38-145.411c3.05-5.13 10.48-5.13 13.53 0l104.08 175.201c50.562 85.13-8.578 194.431-107.569 196.661z" fill="#f0a70a"/><path d="m333.444 383.171c-98.09-3.29-156.381-111.921-106.081-196.621l17.7-29.79 74.58 125.551c19.321 32.529 22.621 68.59 13.801 100.86z" fill="#e38803"/><path d="m284.639 307.81c51.46 86.63-10.638 198.985-114.12 196.655-98.989-2.23-158.131-111.528-107.564-196.655l104.074-175.204c3.051-5.136 10.485-5.136 13.536 0z" fill="#fed22b"/><path d="m191.303 503.371c-7.208.948-14.571 1.261-20.78 1.09-98.99-2.23-158.131-111.521-107.571-196.651l104.081-175.201c3.05-5.14 10.48-5.14 13.53 0l10.74 18.07-93.35 157.131c-48.09 80.971 3.06 183.791 93.35 195.561z" fill="#fdc202"/><g><path d="m455.505 182.72-9.604-15.558c-1.352-2.274-3.802-3.668-6.448-3.668-5.816 0-9.419 6.333-6.448 11.333l9.6 15.554c22.61 38.06 23.25 83.97 1.72 122.801-27.15 48.99-81.47 71.42-133.701 59.54-.3-23.72-6.82-47.34-19.54-68.74l-12.747-20.813c-1.351-2.275-3.801-3.67-6.448-3.67-5.815 0-9.415 6.335-6.444 11.334 4.768 8.021 12.26 19.982 12.748 20.81 47.78 80.451-8.3 183.231-101.29 185.321-97.341 2.21-156.121-103.47-107.501-185.321 11.349-19.106 24.935-42.788 33.945-57.974 1.746-2.943 1.271-6.689-1.149-9.109l-.015-.015c-3.454-3.454-9.237-2.729-11.732 1.471l-33.948 57.964c-53.71 90.421 9.46 205.631 113.841 207.981 76.27 1.75 132.821-56.14 139.601-124.031 57.51 11.88 117.321-13.03 147.501-67.48 24.139-43.55 23.409-95.04-1.941-137.73zm-281.392-46.281c1.767 2.958 44.775 75.36 74.953 126.184 1.351 2.275 3.799 3.667 6.446 3.667h.007c5.814 0 9.416-6.329 6.447-11.328l-33.012-55.583c3.25-6.64-4.42 6.62 108.941-184.201.05-.08.1-.18.32-.18.21 0 .26.1.31.18l77.38 130.261c1.352 2.275 3.802 3.67 6.449 3.67h.001c5.816 0 9.419-6.332 6.449-11.332l-77.38-130.258c-5.97-10.03-20.47-10.02-26.43 0-1.07 1.81-103.46 174.131-104.991 176.791l-32.99-55.53c-5.95-10.03-20.47-10.04-26.43 0l-55.138 92.827c-1.748 2.943-1.278 6.697 1.143 9.118 3.455 3.455 9.241 2.727 11.734-1.475 57.066-96.179 55.393-93.492 55.791-92.811z"/><path d="m194.263 348.561c-5.15-1.82-9.82-3.55-14.07-5.2v-67.15c14.04 1.47 22.54 8.87 23.09 9.37 3.05 2.78 7.77 2.58 10.57-.46 2.81-3.04 2.62-7.79-.42-10.6-.69-.63-13.07-11.77-33.24-13.37v-16.151c0-4.14-3.36-7.5-7.5-7.5s-7.5 3.36-7.5 7.5v16.77c-44.03 7.12-51.34 57.58-27.28 76.46 6.68 5.23 15.19 10.02 27.28 15.21v81.901c-13.16-.31-20.79-2.26-34.29-11.09-3.46-2.26-8.11-1.29-10.38 2.17-2.27 3.47-1.29 8.12 2.17 10.39 16.54 10.82 26.88 13.18 42.5 13.53v17.91c0 4.15 3.36 7.5 7.5 7.5s7.5-3.35 7.5-7.5v-18.37c52.591-6.74 68.871-81.95 14.07-101.32zm-29.07-11.54c-7.7-3.6-13.45-7.01-18.02-10.6-14.14-11.09-8.6-41.59 13.36-48.21 1.59-.48 3.15-.87 4.66-1.18zm15 97.67v-75.28c2.87 1.07 5.88 2.16 9.07 3.29 38.821 13.72 26.781 65.58-9.07 71.99z"/></g></g></svg>