<svg id="Layer_1" enable-background="new 0 0 512 512" height="512" viewBox="0 0 512 512" width="512" xmlns="http://www.w3.org/2000/svg"><g><path d="m266.896 119.278-19.266 109.294-1.318 7.471c-.35 1.978-1.848 3.566-3.805 4.005-11.356 2.557-22.792 4.444-34.257 5.663-57.348 6.192-115.306-4.025-167.091-29.443-10.347-5.084-20.444-10.767-30.242-17.049-1.698-1.089-2.557-3.096-2.207-5.074l4.235-24.04 16.35-92.714c.35-1.978 1.848-3.565 3.805-4.015 11.356-2.547 22.802-4.435 34.257-5.663 10.876-1.178 21.773-1.758 32.639-1.758 46.472 0 92.484 10.607 134.452 31.211 10.347 5.074 20.444 10.757 30.242 17.049 1.697 1.078 2.556 3.086 2.206 5.063z" fill="#c0694e"/><path d="m247.63 228.572-1.318 7.471c-.35 1.978-1.848 3.566-3.805 4.005-11.356 2.557-22.792 4.444-34.257 5.663-57.348 6.192-115.306-4.025-167.091-29.443-10.347-5.084-20.444-10.767-30.242-17.049-1.698-1.089-2.557-3.096-2.207-5.074l4.235-24.04c11.266 6.272 24.659 14.013 25.658 14.652 9.798 6.282 22.172 10.447 32.519 15.531 51.785 25.418 109.743 35.636 167.091 29.443 3.145-.33 6.281-.72 9.417-1.159z" fill="#ae583e"/><path d="m234.442 97.161-26.189 148.552c-57.347 6.189-115.309-4.027-167.092-29.447l26.19-148.552c10.879-1.182 21.778-1.759 32.648-1.759 46.467 0 92.483 10.61 134.443 31.206z" fill="#954c35"/><path d="m227.522 136.41-12.356 70.072c-55.871-2.177-113.836-12.398-167.082-29.461l12.356-70.072c27.942 1.084 56.399 4.176 84.527 9.136s55.927 11.788 82.555 20.325z" fill="#7c3f2c"/><path d="m210.767 231.438-2.517 14.272c-57.348 6.192-115.306-4.025-167.091-29.443l4.824-27.346c8.2 4.155 17.258 7.491 25.139 11.366 43.525 21.363 91.415 31.99 139.645 31.151z" fill="#954c35"/><path d="m210.767 231.438-2.517 14.272c-57.348 6.192-115.306-4.025-167.091-29.443l4.824-27.346c8.2 4.155 17.258 7.491 25.139 11.366 43.525 21.363 91.415 31.99 139.645 31.151z" fill="#7c3f2c"/><path d="m489.528 379.164h-467.056c-8.274 0-14.981-6.707-14.981-14.981v-50.067h497.019v50.067c0 8.273-6.708 14.981-14.982 14.981z" fill="#f0a70a"/><path d="m489.74 276.791h-18.665l-7.879-69.784c-.843-7.468-7.16-13.112-14.676-13.112h-109.888v150.267h165.878v-52.602c0-8.156-6.613-14.769-14.77-14.769z" fill="#fed22b"/><path d="m338.637 193.895h40.949v150.272h-40.949z" fill="#fdc202"/><path d="m166.122 314.116h-69.666l8.11-127.266c.898-14.099 12.596-25.075 26.723-25.075 14.128 0 25.825 10.976 26.723 25.075z" fill="#d8cecc"/><path d="m243.513 197.514h36.575v112.916h-36.575z" fill="#766d78"/><circle cx="261.8" cy="196.69" fill="#a49ca7" r="22.816"/><g><path d="m131.289 197.514v3.273" fill="#fff"/></g><path d="m145.778 166.03c-6.931 4.455-11.685 12.035-12.245 20.824l-8.11 127.261h-28.964l8.11-127.261c.899-14.102 12.594-25.079 26.717-25.079 5.323 0 10.307 1.558 14.492 4.255z" fill="#c2bdc5"/><path d="m433.023 266.26h-35.38c-2.758 0-4.994-2.236-4.994-4.994v-28.392c0-2.758 2.236-4.994 4.994-4.994h33.266c2.614 0 4.786 2.016 4.98 4.623l2.114 28.392c.216 2.896-2.076 5.365-4.98 5.365z" fill="#fff5f4"/><path d="m352.875 189.946h-29.963v-66.01c0-2.758 2.236-4.994 4.994-4.994h19.975c2.758 0 4.994 2.236 4.994 4.994z" fill="#a49ca7"/><path d="m351.555 161.935h-27.323c-2.758 0-4.994 2.236-4.994 4.994v139.945h-133.211l-37.243-22.77-126.308-.036c-8.276-.002-14.986 6.706-14.986 14.982v22.298h125.803l37.293 22.82h185.962v-177.239c.001-2.758-2.235-4.994-4.993-4.994z" fill="#655e67"/><path d="m57.428 379.164h-34.956c-8.27 0-14.981-6.712-14.981-14.981v-50.068h34.956v50.068c0 8.269 6.711 14.981 14.981 14.981z" fill="#e38803"/><g fill="#544f56"><path d="m57.089 284.082c-8.11.16-14.642 6.811-14.642 14.971v22.292h-34.957v-22.292c0-8.28 6.712-14.991 14.981-14.981z"/><circle cx="421.571" cy="395.104" r="50.936"/><circle cx="92.098" cy="395.099" r="50.936"/><circle cx="253.059" cy="395.099" r="50.936"/></g><path d="m439.051 442.954c-5.453 1.998-11.336 3.086-17.478 3.086-28.135 0-50.936-22.802-50.936-50.936 0-28.135 22.801-50.936 50.936-50.936 6.142 0 12.025 1.089 17.478 3.086-19.526 7.121-33.458 25.858-33.458 47.85s13.933 40.729 33.458 47.85z" fill="#444145"/><path d="m109.583 442.954c-5.453 1.998-11.346 3.086-17.488 3.086-28.125 0-50.936-22.812-50.936-50.936 0-28.135 22.811-50.936 50.936-50.936 6.142 0 12.035 1.089 17.488 3.086-19.526 7.121-33.468 25.858-33.468 47.85 0 21.982 13.942 40.729 33.468 47.85z" fill="#444145"/><path d="m270.542 442.954c-5.453 1.998-11.336 3.086-17.478 3.086-28.135 0-50.936-22.812-50.936-50.936 0-28.135 22.802-50.936 50.936-50.936 6.142 0 12.025 1.089 17.478 3.086-19.526 7.121-33.458 25.858-33.458 47.85 0 21.982 13.932 40.729 33.458 47.85z" fill="#444145"/><circle cx="421.571" cy="395.104" fill="#8e8391" r="20.18"/><circle cx="92.098" cy="395.099" fill="#8e8391" r="20.18"/><circle cx="253.059" cy="395.099" fill="#8e8391" r="20.18"/><g><path d="m239.373 112.366c.002-.01.003-.02.005-.029-.002.009-.004.019-.005.029z"/><path d="m239.363 112.419c.002-.011.004-.022.006-.033-.002.01-.004.022-.006.033z"/><path d="m239.369 112.386c.001-.007.002-.013.004-.02-.001.007-.003.013-.004.02z"/><path d="m239.384 112.304c0-.003.001-.005.001-.007 0 .002-.001.004-.001.007z"/><path d="m239.378 112.338c.002-.013.004-.024.006-.034-.002.01-.004.021-.006.034z"/><path d="m239.388 112.277c.004-.021.005-.025 0 0z"/><path d="m489.738 269.301h-11.973l-7.121-63.138c-1.28-11.264-10.792-19.759-22.125-19.759h-22.4c-4.137 0-7.491 3.354-7.491 7.491s3.354 7.491 7.491 7.491h22.4c3.708 0 6.82 2.781 7.238 6.463l7.87 69.782c.427 3.788 3.631 6.651 7.443 6.651h18.667c4.015 0 7.281 3.266 7.281 7.281v45.114h-132.979v-135.291h32.118c4.137 0 7.491-3.354 7.491-7.491s-3.354-7.491-7.491-7.491h-32.118v-24.469c0-2.739-1.475-5.128-3.67-6.434v-36.562c0-4.137-3.354-7.491-7.491-7.491h-7.491v-16.759c0-1.987-.789-3.892-2.194-5.297l-23.311-23.311c-2.925-2.926-7.668-2.925-10.593 0-2.926 2.925-2.926 7.668 0 10.593l21.117 21.117v13.656h-7.491c-4.137 0-7.491 3.354-7.491 7.491v36.556c-2.2 1.305-3.678 3.697-3.678 6.44v137.448h-24.167v-86.785c11.463-18.508.079-42.798-21.44-45.899l8.135-46.119c.879-4.982-1.296-9.959-5.541-12.679-68.77-44.074-154.196-60.514-237.275-41.828-4.917 1.106-8.661 5.038-9.538 10.016l-20.592 116.758c-.878 4.981 1.298 9.957 5.541 12.676 9.955 6.382 20.379 12.259 30.988 17.47 18.408 8.766 35.323 15.448 55.57 20.962l-2.079 32.644-23.091-.006c-.001 0-.001 0-.002 0-4.136 0-7.49 3.353-7.491 7.489-.001 4.137 3.352 7.492 7.489 7.493l78.421.019c4.993 3.053 30.478 18.635 35.445 21.672 1.176.719 2.529 1.1 3.907 1.1h125.72v22.312c-4.708 0-138.294 0-139.05 0l-35.494-21.72c-1.177-.72-2.53-1.101-3.91-1.101h-118.311v-14.802c0-4.131 3.36-7.491 7.489-7.491l15.821.004h.002c4.136 0 7.49-3.353 7.491-7.489.001-4.137-3.352-7.492-7.489-7.493l-15.823-.004c-12.391.001-22.472 10.081-22.472 22.473v65.129c0 12.391 10.081 22.472 22.472 22.472h11.817c-.401 2.759-.618 5.576-.618 8.445 0 32.217 26.21 58.427 58.427 58.427 35.286 0 62.975-31.349 57.809-66.872h45.344c-5.167 35.527 22.527 66.872 57.809 66.872 35.286 0 62.975-31.349 57.809-66.872h52.895c-5.16 35.458 22.455 66.876 57.808 66.876 35.357 0 62.967-31.422 57.808-66.876h10.149c12.391 0 22.472-10.081 22.472-22.472 0-7.881 0-63.739 0-72.619-.001-12.276-9.988-22.263-22.263-22.263zm-454.191-64.347c-6.523-3.482-12.946-7.198-19.177-11.143l20.016-113.487c7.182-1.572 14.488-2.865 21.828-3.905zm58.859 23.623c-6.302-1.802-12.676-3.742-19.502-6.152-8.585-3.086-17.031-6.556-25.286-10.413-.032-.015-.063-.029-.095-.044l4.455-25.261c13.86 4.221 28.056 8.011 42.375 11.309zm54.38 48.035-42.426-.01c.705-11.071 4.983-78.257 5.685-89.271.646-10.129 9.097-18.064 19.241-18.064 10.105 0 18.598 7.825 19.251 18.064l5.905 92.674c-3.887-2.376-5.068-3.392-7.656-3.393zm16.702-90.234c-1.161-18.204-16.273-32.093-34.202-32.093-16.847 0-31.064 12.314-33.789 28.616-13.829-3.238-27.532-6.936-40.898-11.051l10.08-57.122c7.011.35 14.103.829 21.161 1.43 4.133.355 7.749-2.705 8.1-6.827.352-4.122-2.705-7.749-6.827-8.1-6.608-.564-13.242-1.015-19.821-1.364l4.45-25.235c52.069-4.639 104.732 4.599 152.339 26.839l-4.455 25.259c-24.373-7.429-49.675-13.492-75.358-18.025-8.948-1.576-18.039-2.983-27.019-4.179-4.106-.544-7.868 2.335-8.414 6.435-.547 4.101 2.334 7.868 6.435 8.414 8.774 1.169 17.656 2.543 26.396 4.083 25.699 4.535 51.01 10.625 75.34 18.123-1.098 6.225-8.979 50.917-10.073 57.12-14.202-.714-28.58-1.949-42.895-3.683zm1.519 23.834c13.12 1.531 26.279 2.653 39.307 3.348l-4.453 25.251c-11.41 1.013-21.606 1.3-32.964 1.06zm69.018 89.171h-47.889l-16.074-9.828-2.208-34.661c22.612.412 44.718-1.594 66.171-5.831zm0-86.777v21.163c-6.196 1.289-12.424 2.377-18.637 3.256 18.99-107.675 21.696-123.018 21.976-124.607-.002.011-.004.022-.006.033.059-.335.239-1.356.701-3.975 6.536 3.486 12.96 7.201 19.176 11.134l-8.63 48.924c-17.568 7.013-24.455 28.14-14.58 44.072zm3.31-100.026c.001-.005.002-.012.004-.021-.002.008-.003.015-.004.021zm.007-.039c.002-.012.005-.027.008-.044-.003.016-.006.03-.008.044zm33.257 186.513h-21.593v-74.052c3.355 1.284 6.992 1.994 10.794 1.994 3.804 0 7.442-.711 10.799-1.996zm-10.799-87.04c-8.45 0-15.325-6.875-15.325-15.325s6.875-15.325 15.325-15.325 15.325 6.875 15.325 15.325c0 8.451-6.875 15.325-15.325 15.325zm68.607-85.585h14.981v28.015h-14.981zm-3.678 180.503c0-.02.003-.039.003-.058s-.003-.038-.003-.058v-137.39h22.329v167.251c-10.484 0-11.845 0-22.329 0zm-234.631 131.612c-23.956 0-43.446-19.49-43.446-43.446s19.49-43.446 43.446-43.446 43.446 19.49 43.446 43.446c0 23.957-19.49 43.446-43.446 43.446zm53.509-66.871c-20.447-46.522-86.517-46.644-107.018 0h-16.117c-4.131 0-7.491-3.36-7.491-7.491v-35.345h116.202c38.343 23.463 36.494 22.821 39.403 22.821h43.451c-6.15 5.53-11.116 12.344-14.487 20.015zm107.452 66.871c-23.956 0-43.446-19.49-43.446-43.446 0-23.465 18.924-43.441 43.638-43.441 23.867.104 43.254 19.549 43.254 43.441 0 23.957-19.49 43.446-43.446 43.446zm53.509-66.871c-3.371-7.671-8.337-14.485-14.487-20.015h90.474c-6.151 5.529-11.118 12.344-14.491 20.015zm115.003 66.876c-23.956 0-43.446-19.49-43.446-43.446s19.49-43.446 43.446-43.446 43.446 19.49 43.446 43.446-19.49 43.446-43.446 43.446zm75.448-74.367c0 4.131-3.36 7.491-7.491 7.491h-14.45c-3.372-7.671-8.34-14.486-14.491-20.015h36.432z"/><path d="m239.385 112.296c.001-.008.002-.014.003-.019-.001.006-.002.012-.003.019z"/><path d="m443.893 271.356c1.418-1.527 2.135-3.575 1.98-5.653l-2.858-38.38c-.291-3.91-3.549-6.934-7.47-6.934h-42.896c-4.137 0-7.491 3.354-7.491 7.491v38.38c0 4.137 3.354 7.491 7.491 7.491h45.754c2.083-.001 4.073-.868 5.49-2.395zm-43.753-12.587v-23.398h28.452l1.742 23.398z"/><path d="m392.649 291.773c-4.137 0-7.491 3.354-7.491 7.491s3.354 7.491 7.491 7.491h13.175c4.137 0 7.491-3.354 7.491-7.491s-3.354-7.491-7.491-7.491z"/><path d="m131.289 190.023c-4.137 0-7.491 3.354-7.491 7.491v3.273c0 4.137 3.354 7.491 7.491 7.491s7.491-3.354 7.491-7.491v-3.273c0-4.137-3.354-7.491-7.491-7.491z"/><path d="m421.571 367.433c-15.257 0-27.67 12.413-27.67 27.671 0 15.257 12.413 27.67 27.67 27.67s27.67-12.413 27.67-27.67c0-15.258-12.413-27.671-27.67-27.671zm0 40.359c-6.997 0-12.689-5.692-12.689-12.689s5.692-12.689 12.689-12.689 12.689 5.693 12.689 12.689c0 6.997-5.692 12.689-12.689 12.689z"/><path d="m92.098 367.429c-15.257 0-27.67 12.413-27.67 27.67 0 15.258 12.413 27.671 27.67 27.671 15.258 0 27.671-12.413 27.671-27.671-.001-15.258-12.413-27.67-27.671-27.67zm0 40.359c-6.997 0-12.689-5.693-12.689-12.689 0-6.997 5.692-12.689 12.689-12.689s12.689 5.692 12.689 12.689c0 6.996-5.693 12.689-12.689 12.689z"/><path d="m253.059 367.429c-15.258 0-27.671 12.413-27.671 27.67 0 15.258 12.413 27.671 27.671 27.671 15.257 0 27.67-12.413 27.67-27.671s-12.412-27.67-27.67-27.67zm0 40.359c-6.997 0-12.689-5.693-12.689-12.689 0-6.997 5.693-12.689 12.689-12.689s12.689 5.692 12.689 12.689c0 6.996-5.692 12.689-12.689 12.689z"/></g></g></svg>