<svg id="Layer_1" enable-background="new 0 0 512 512" height="512" viewBox="0 0 512 512" width="512" xmlns="http://www.w3.org/2000/svg"><g><g><path d="m281.421 147.75h-100.082c-3.556 0-5.976-3.608-4.625-6.898l20.82-50.726c.77-1.876 2.597-3.101 4.625-3.101h58.442c2.028 0 3.855 1.225 4.625 3.101l20.82 50.726c1.351 3.289-1.068 6.898-4.625 6.898z" fill="#fdc202"/></g><g><path d="m396.417 147.75h-100.082c-3.556 0-5.976-3.608-4.625-6.898l20.82-50.726c.77-1.876 2.597-3.101 4.625-3.101h58.442c2.028 0 3.855 1.225 4.625 3.101l20.82 50.726c1.351 3.289-1.069 6.898-4.625 6.898z" fill="#fdc202"/></g><path d="m338.919 87.024h-100.082c-3.556 0-5.976-3.608-4.625-6.898l20.82-50.726c.77-1.876 2.597-3.101 4.626-3.101h58.442c2.028 0 3.855 1.225 4.625 3.101l20.82 50.726c1.35 3.289-1.07 6.898-4.626 6.898z" fill="#fdc202"/><g><path d="m231.38 208.475h-114.995l23.652-57.624c.77-1.876 2.597-3.101 4.625-3.101h58.442c2.028 0 3.855 1.225 4.625 3.101z" fill="#fdc202"/></g><g><path d="m346.376 208.475h-114.996l23.652-57.624c.77-1.876 2.597-3.101 4.626-3.101h58.442c2.028 0 3.855 1.225 4.625 3.101z" fill="#fdc202"/></g><g><path d="m461.371 208.475h-114.995l23.651-57.624c.77-1.876 2.597-3.101 4.625-3.101h58.442c2.028 0 3.855 1.225 4.625 3.101z" fill="#fdc202"/></g><g><path d="m237.163 87.022c-2.03 0-3.86 1.23-4.63 3.1l-20.82 50.729c-1.35 3.29 1.07 6.9 4.63 6.9h-35c-3.56 0-5.98-3.61-4.63-6.9l20.82-50.729c.77-1.87 2.6-3.1 4.63-3.1z" fill="#f0a70a"/></g><g><path d="m352.152 87.022c-2.03 0-3.85 1.23-4.62 3.1l-20.82 50.729c-1.35 3.29 1.07 6.9 4.62 6.9h-35c-3.55 0-5.97-3.61-4.62-6.9l20.82-50.729c.77-1.87 2.59-3.1 4.62-3.1z" fill="#f0a70a"/></g><path d="m294.652 26.303c-2.02 0-3.85 1.22-4.62 3.1l-20.82 50.719c-1.35 3.29 1.07 6.9 4.62 6.9h-35c-3.55 0-5.97-3.61-4.62-6.9l20.82-50.719c.77-1.88 2.6-3.1 4.62-3.1z" fill="#f0a70a"/><g><path d="m179.664 147.751c-2.03 0-3.86 1.22-4.63 3.1l-23.65 57.619h-35l23.65-57.619c.77-1.88 2.6-3.1 4.63-3.1z" fill="#f0a70a"/></g><g><path d="m294.652 147.751c-2.02 0-3.85 1.22-4.62 3.1l-23.65 57.619h-35l23.65-57.619c.77-1.88 2.6-3.1 4.62-3.1z" fill="#f0a70a"/></g><g><path d="m409.651 147.751c-2.03 0-3.85 1.22-4.62 3.1l-23.66 57.619h-35l23.66-57.619c.77-1.88 2.59-3.1 4.62-3.1z" fill="#f0a70a"/></g><path d="m468.73 225.42-25.799 187.628h-308.107l-25.799-187.628z" fill="#954c35"/><path d="m396.001 225.419-12.4 187.628h-189.437l-12.41-187.628z" fill="#7c3f2c"/><path d="m169.324 413.048h-34.5l-25.799-187.628h34.499z" fill="#7c3f2c"/><path d="m325.222 225.419-4.21 187.628h-64.269l-4.2-187.628z" fill="#ae583e"/><g fill="#c0694e"><path d="m60.271 210.184-47.579 47.579c-6.916 6.916-6.916 18.129 0 25.045 6.916 6.916 18.128 6.916 25.044.001l42.777-42.769h406.269c9.785 0 17.718-7.933 17.718-17.718 0-9.785-7.933-17.718-17.718-17.718h-413.041c-5.052.001-9.897 2.008-13.47 5.58z"/><path d="m481.095 306.703-5.96 29.839c-1.336 6.689-7.209 11.505-14.03 11.505h-344.455c-6.821 0-12.694-4.816-14.03-11.505l-5.96-29.839c-1.768-8.852 5.003-17.109 14.03-17.109h356.374c9.028 0 15.799 8.257 14.031 17.109z"/><path d="m464.613 404.287-2.961 21.535c-.7 5.088-5.047 8.879-10.183 8.879h-325.187c-5.136 0-9.484-3.791-10.183-8.879l-2.961-21.535c-.849-6.175 3.95-11.679 10.183-11.679h331.109c6.233 0 11.032 5.504 10.183 11.679z"/></g><path d="m151.654 348.049h-35c-6.83 0-12.7-4.82-14.03-11.51l-5.96-29.84c-1.77-8.85 5-17.11 14.03-17.11h35c-9.03 0-15.8 8.26-14.03 17.11l5.96 29.84c1.33 6.69 7.2 11.51 14.03 11.51z" fill="#ae583e"/><path d="m161.284 434.698h-35c-5.14 0-9.49-3.79-10.19-8.88l-2.96-21.53c-.85-6.18 3.95-11.68 10.19-11.68h35c-6.24 0-11.04 5.5-10.19 11.68l2.96 21.53c.7 5.09 5.05 8.88 10.19 8.88z" fill="#ae583e"/><circle cx="196.68" cy="434.701" fill="#544f56" r="51.001"/><circle cx="381.075" cy="434.701" fill="#544f56" r="51.001"/><path d="m214.183 482.607c-5.46 2-11.35 3.09-17.5 3.09-28.17 0-51.009-22.83-51.009-50.999 0-28.16 22.84-50.999 51.009-50.999 6.15 0 12.04 1.09 17.5 3.09-19.55 7.13-33.51 25.9-33.51 47.909.001 22.02 13.961 40.78 33.51 47.909z" fill="#444145"/><path d="m398.581 482.607c-5.46 2-11.36 3.09-17.51 3.09-28.16 0-50.999-22.83-50.999-50.999 0-28.16 22.84-50.999 50.999-50.999 6.15 0 12.05 1.09 17.51 3.09-19.55 7.13-33.51 25.9-33.51 47.909.001 22.02 13.961 40.78 33.51 47.909z" fill="#444145"/><path d="m123.904 204.601c-5.05 0-9.89 2.01-13.47 5.58l-29.86 29.86h-.06l-42.78 42.77c-6.95 6.93-18.158 6.882-25.04 0-6.92-6.92-6.92-18.13 0-25.05l47.579-47.58c3.57-3.57 8.41-5.58 13.47-5.58z" fill="#ae583e"/><g><path d="m486.781 247.54c13.906 0 25.219-11.313 25.219-25.22 0-13.938-11.28-25.219-25.219-25.219h-21.971l-21.42-52.197c-1.155-2.815-3.896-4.653-6.938-4.653h-27.548l-23.016-56.075c-1.155-2.814-3.896-4.652-6.938-4.652h-27.544l-6.227-15.173c-1.573-3.832-5.955-5.664-9.786-4.091-3.832 1.573-5.663 5.954-4.091 9.786l3.89 9.477c-15.692 0-81.995 0-92.625 0l18.768-45.726h55.088l3.487 8.496c1.572 3.831 5.953 5.663 9.786 4.091 3.832-1.573 5.663-5.954 4.091-9.786l-5.397-13.148c-1.155-2.814-3.896-4.652-6.938-4.652h-65.147c-3.042 0-5.783 1.838-6.938 4.652l-23.015 56.074h-27.544c-3.042 0-5.783 1.838-6.938 4.652l-23.016 56.075h-27.549c-3.042 0-5.783 1.838-6.938 4.653l-21.42 52.197h-39.2c-7.092 0-13.759 2.762-18.773 7.777l-47.58 47.579c-9.856 9.856-9.857 25.799 0 35.657 9.736 9.735 25.669 9.947 35.645 0l6.684-6.682c2.929-2.929 2.93-7.677.001-10.606-2.928-2.929-7.677-2.929-10.606-.001-6.705 6.704-8.619 9.666-13.901 9.666-8.996 0-13.688-10.955-7.217-17.427l47.58-47.58c2.181-2.182 5.081-3.383 8.166-3.383h413.035c5.648 0 10.22 4.571 10.22 10.22 0 5.635-4.585 10.22-10.22 10.22h-406.266c-1.989 0-3.896.79-5.303 2.196l-14.88 14.877c-2.929 2.929-2.93 7.677-.001 10.606 2.928 2.929 7.677 2.93 10.606.001l12.684-12.681h20.874l4.756 34.607c-11.358.743-20.372 10.2-20.372 21.724 0 2.936-.11 1.614 6.387 34.141 2.03 10.161 11.023 17.535 21.385 17.535h2.695l4.067 29.562h-.087c-5.143 0-10.031 2.222-13.409 6.097-3.376 3.873-4.911 9.014-4.211 14.105l2.96 21.53c1.205 8.756 8.779 15.358 17.62 15.358h12.391c3.694 28.727 28.288 51.004 58.004 51.004s54.31-22.276 58.004-51.004h68.387c3.694 28.727 28.289 51.004 58.004 51.004s54.31-22.276 58.004-51.004h12.39c8.835 0 16.406-6.602 17.61-15.359l2.96-21.53c.7-5.093-.835-10.235-4.212-14.108s-8.26-6.094-13.398-6.094h-.087l4.067-29.562h2.697c10.361 0 19.354-7.375 21.384-17.536l5.96-29.84c2.602-13.007-6.904-25.171-19.946-26.024l4.756-34.606zm-112.861-153.016 18.768 45.726h-92.624l18.767-45.726zm-71.303 0-13.738 33.473-13.739-33.473zm-98.781 0h55.089l18.768 45.726h-92.625zm-74.677 102.577 17.174-41.85h55.092l17.181 41.85zm88.481-41.851h27.479l-13.737 33.474zm26.518 41.851 17.174-41.85h55.091l17.174 41.85zm88.478-41.851h27.479l-13.742 33.473zm26.512 41.851 17.181-41.85h55.092l17.175 41.85zm42.905 50.439h56.067l-4.749 34.554h-53.599zm-69.827 0h54.795l-2.281 34.554h-53.288zm-15.004 0-.774 34.554h-55.131l-.774-34.554zm-141.518 0 2.287 34.554h-53.607l-4.749-34.554zm-37.028 179.658h-12.392c-1.385 0-2.571-1.033-2.76-2.402l-2.96-21.53c-.23-1.671 1.064-3.158 2.76-3.158h26.216c-5.732 7.79-9.571 17.045-10.864 27.09zm-4.19-71.651h48.356l1.454 21.984c-6.695 1.449-12.964 4.047-18.596 7.578h-27.148zm62.193 122.655c-23.987 0-43.501-19.514-43.501-43.501s19.514-43.501 43.501-43.501 43.501 19.514 43.501 43.501-19.514 43.501-43.501 43.501zm1.197-122.655h50.082l.657 29.562h-20.956c-8.31-5.21-18.01-8.392-28.412-8.844zm125.196 71.651h-68.389c-1.293-10.045-5.132-19.3-10.864-27.09h90.117c-5.732 7.79-9.572 17.045-10.864 27.09zm-60.111-71.651h51.841l-.663 29.562h-50.52zm66.181 29.561.663-29.562h50.076l-1.364 20.718c-10.405.45-20.108 3.633-28.421 8.844zm51.934 93.094c-23.987 0-43.501-19.514-43.501-43.501s19.514-43.501 43.501-43.501 43.501 19.514 43.501 43.501-19.514 43.501-43.501 43.501zm12.39-100.67 1.447-21.986h48.356l-4.067 29.562h-27.148c-5.629-3.529-11.896-6.126-18.588-7.576zm60.964 22.576c1.681 0 2.98 1.481 2.751 3.159l-2.96 21.529c-.188 1.37-1.371 2.402-2.751 2.402h-12.391c-1.292-10.045-5.132-19.3-10.864-27.09zm19.311-94.874-5.96 29.839c-.634 3.171-3.44 5.474-6.675 5.474h-344.456c-3.234 0-6.042-2.302-6.676-5.474-6.395-32.021-6.096-30.202-6.096-31.203 0-3.737 3.056-6.777 6.812-6.777h96.059c4.142 0 7.5-3.358 7.5-7.5s-3.358-7.5-7.5-7.5h-13.727l-2.287-34.554h54.803l.774 34.554h-9.563c-4.142 0-7.5 3.358-7.5 7.5s3.358 7.5 7.5 7.5h230.315c4.223.001 7.536 3.835 6.677 8.141z"/><ellipse cx="196.68" cy="434.701" rx="15.973" ry="15.973" transform="matrix(.987 -.16 .16 .987 -67.092 37.118)"/><ellipse cx="381.075" cy="434.701" rx="15.973" ry="15.973" transform="matrix(.383 -.924 .924 .383 -166.367 620.416)"/><path d="m426.055 309.454c-4.143 0-7.5 3.358-7.5 7.5v3.733c0 4.142 3.357 7.5 7.5 7.5s7.5-3.358 7.5-7.5v-3.733c0-4.142-3.358-7.5-7.5-7.5z"/><path d="m357.467 309.454c-4.143 0-7.5 3.358-7.5 7.5v3.733c0 4.142 3.357 7.5 7.5 7.5s7.5-3.358 7.5-7.5v-3.733c-.001-4.142-3.358-7.5-7.5-7.5z"/><path d="m288.878 309.454c-4.143 0-7.5 3.358-7.5 7.5v3.733c0 4.142 3.357 7.5 7.5 7.5s7.5-3.358 7.5-7.5v-3.733c-.001-4.142-3.358-7.5-7.5-7.5z"/><path d="m220.29 309.454c-4.142 0-7.5 3.358-7.5 7.5v3.733c0 4.142 3.358 7.5 7.5 7.5s7.5-3.358 7.5-7.5v-3.733c0-4.142-3.358-7.5-7.5-7.5z"/><path d="m151.701 309.454c-4.142 0-7.5 3.358-7.5 7.5v3.733c0 4.142 3.358 7.5 7.5 7.5s7.5-3.358 7.5-7.5v-3.733c0-4.142-3.358-7.5-7.5-7.5z"/></g></g></svg>