<svg id="Layer_1" enable-background="new 0 0 512 512" height="512" viewBox="0 0 512 512" width="512" xmlns="http://www.w3.org/2000/svg"><g><path d="m380.051 105.35-242.363 142.582c-7.354 4.326-9.808 13.795-5.482 21.149 4.326 7.354 13.795 9.808 21.149 5.482l259.253-152.518z" fill="#8e8391"/><path d="m374.45 274.6-87.92 51.72-30.46 17.92-87.42 51.43h-60.93l117.88-69.35 30.47-17.92 102.72-60.43c7.35-4.33 16.82-1.87 21.15 5.48 4.32 7.35 1.87 16.82-5.49 21.15z" fill="#8e8391"/><path d="m404.42 395.67h-60.93l-87.42-51.43-30.47-17.92-87.91-51.72c-7.359-4.325-9.811-13.802-5.48-21.15 4.32-7.35 13.79-9.81 21.14-5.48l102.72 60.43 30.46 17.92z" fill="#a49ca7"/><circle cx="147.117" cy="260.308" fill="#655e67" r="31.257"/><path d="m374.454 247.932-242.631-142.74-32.43 16.769 259.394 152.601c7.354 4.326 16.822 1.872 21.149-5.482 4.326-7.353 1.872-16.822-5.482-21.148z" fill="#a49ca7"/><circle cx="365.024" cy="260.308" fill="#655e67" r="31.257"/><path d="m84.69 19.179h342.62v104.321h-342.62z" fill="#8e8391"/><path d="m84.69 19.18h35v104.32h-35z" fill="#766d78"/><path d="m419.222 462.794h-326.444c-14.939 0-27.05-12.11-27.05-27.049v-49.475c0-2.761 2.239-5 5-5h370.543c2.761 0 5 2.239 5 5v49.475c.001 14.939-12.11 27.049-27.049 27.049z" fill="#655e67"/><circle cx="161.064" cy="465.428" fill="#444145" r="39.072"/><circle cx="350.936" cy="465.428" fill="#444145" r="39.072"/><path d="m428.787 44.492h-345.574c-9.417 0-17.051-7.634-17.051-17.051v-10.814c0-5.041 4.086-9.127 9.127-9.127h361.422c5.041 0 9.127 4.086 9.127 9.127v10.814c0 9.417-7.634 17.051-17.051 17.051z" fill="#a49ca7"/><path d="m443 124.764c0 8.965-7.267 16.232-16.232 16.232h-341.536c-8.965 0-16.232-7.267-16.232-16.232 0-8.965 7.267-16.232 16.232-16.232h341.536c8.965 0 16.232 7.267 16.232 16.232z" fill="#a49ca7"/><path d="m118.21 44.49h-35c-9.41 0-17.05-7.63-17.05-17.05v-10.81c0-5.04 4.09-9.13 9.13-9.13h35c-5.04 0-9.13 4.09-9.13 9.13v10.81c0 9.42 7.64 17.05 17.05 17.05z" fill="#8e8391"/><path d="m120.23 141h-35c-8.96 0-16.23-7.27-16.23-16.24 0-4.48 1.82-8.54 4.76-11.48 2.93-2.93 6.99-4.75 11.47-4.75h35c-4.48 0-8.54 1.82-11.47 4.75-2.94 2.94-4.76 7-4.76 11.48 0 8.97 7.27 16.24 16.23 16.24z" fill="#8e8391"/><path d="m127.78 462.79h-35c-14.94 0-27.05-12.11-27.05-27.05v-49.47c0-2.76 2.24-5 5-5h35c-2.76 0-5 2.24-5 5v49.47c0 14.94 12.11 27.05 27.05 27.05z" fill="#544f56"/><g><path d="m147.117 251.925c-4.63 0-8.383 3.753-8.383 8.383s3.753 8.383 8.383 8.383 8.383-3.753 8.383-8.383-3.753-8.383-8.383-8.383z"/><path d="m365.024 268.691c4.63 0 8.383-3.753 8.383-8.383s-3.753-8.383-8.383-8.383-8.383 3.753-8.383 8.383 3.754 8.383 8.383 8.383z"/><path d="m446.27 409.527c4.143 0 7.5-3.358 7.5-7.5v-10.757c0-9.649-7.851-17.5-17.5-17.5h-54.287l-80.661-47.45 50.358-29.623c4.162 1.531 8.657 2.368 13.344 2.368 21.37 0 38.757-17.386 38.757-38.757s-17.387-38.757-38.757-38.757c-5.423 0-10.587 1.124-15.278 3.144l-48.422-28.487 81.105-47.712h44.338c13.086 0 23.732-10.646 23.732-23.732 0-10.264-6.551-19.025-15.69-22.327v-51.195c10.635-2.692 18.528-12.341 18.528-23.802v-10.813c.001-9.168-7.458-16.627-16.626-16.627h-78.946c-4.143 0-7.5 3.358-7.5 7.5s3.357 7.5 7.5 7.5h78.946c.897 0 1.627.73 1.627 1.627v10.814c0 5.267-4.284 9.551-9.551 9.551h-1.439c-.013 0-.026-.002-.039-.002s-.026.002-.039.002h-342.541c-.013 0-.026-.002-.039-.002s-.026.002-.039.002h-1.439c-5.267 0-9.551-4.285-9.551-9.551v-10.814c0-.897.729-1.627 1.627-1.627h252.476c4.143 0 7.5-3.358 7.5-7.5s-3.357-7.5-7.5-7.5h-252.475c-9.168 0-16.627 7.459-16.627 16.627v10.814c0 11.46 7.894 21.109 18.528 23.802v51.195c-9.139 3.302-15.69 12.063-15.69 22.327 0 13.086 10.646 23.732 23.732 23.732h44.478l81.105 47.711-48.421 28.488c-4.691-2.02-9.854-3.143-15.277-3.143-21.37 0-38.757 17.386-38.757 38.757s17.387 38.757 38.757 38.757c4.686 0 9.181-.837 13.343-2.368l50.351 29.621-80.653 47.451h-54.428c-9.649 0-17.5 7.851-17.5 17.5v44.47c0 19.051 15.499 34.55 34.55 34.55h21.966c2.439 23.403 22.279 41.71 46.317 41.71s43.878-18.307 46.317-41.71h97.239c2.439 23.403 22.279 41.71 46.317 41.71s43.878-18.307 46.317-41.71h21.966c19.051 0 34.55-15.499 34.55-34.55v-3.713c0-4.142-3.357-7.5-7.5-7.5s-7.5 3.358-7.5 7.5v3.713c0 10.78-8.77 19.55-19.55 19.55h-22.837c-4.642-20.819-23.249-36.433-45.447-36.433s-40.805 15.615-45.447 36.433h-98.98c-4.642-20.819-23.249-36.433-45.447-36.433s-40.805 15.615-45.447 36.433h-22.834c-10.78 0-19.55-8.77-19.55-19.55v-44.47c0-1.378 1.121-2.5 2.5-2.5h360.539c1.379 0 2.5 1.122 2.5 2.5v10.757c.001 4.141 3.358 7.499 7.501 7.499zm-95.333 24.33c17.408 0 31.571 14.163 31.571 31.572s-14.163 31.571-31.571 31.571-31.571-14.163-31.571-31.571 14.162-31.572 31.571-31.572zm-189.874 0c17.408 0 31.571 14.163 31.571 31.572s-14.162 31.571-31.571 31.571-31.571-14.163-31.571-31.571 14.163-31.572 31.571-31.572zm159.989-60.087c-6.8-4.001-140.825-82.846-146.456-86.159 3.744-3.768 6.713-8.302 8.666-13.339l169.138 99.498zm-29.582 0h-70.802l35.4-20.827zm29.939-112.507-65.34 38.436-65.337-38.436 65.341-38.434zm-50.548 47.138 58.019-34.129c1.953 5.037 4.922 9.571 8.665 13.338l-51.014 30.009zm117.92-48.093c0 13.1-10.657 23.757-23.757 23.757-13.101 0-23.758-10.658-23.758-23.757 0-.038.003-.075.003-.113.003-.076.005-.152.006-.228.184-12.942 10.763-23.416 23.749-23.416 13.1 0 23.757 10.657 23.757 23.757zm-102.247-72.802-15.669-9.218 50.637-29.792h31.346zm-66.311-39.01h71.696l-35.846 21.091zm-143.723-23.732c0-4.815 3.917-8.732 8.732-8.732h34.941c4.143 0 7.5-3.358 7.5-7.5s-3.357-7.5-7.5-7.5h-27.983v-49.04h327.62v49.04h-269.636c-4.143 0-7.5 3.358-7.5 7.5s3.357 7.5 7.5 7.5h276.594c4.815 0 8.732 3.917 8.732 8.732s-3.917 8.732-8.732 8.732h-341.536c-4.815 0-8.732-3.917-8.732-8.732zm114.14 23.732c7.555 4.445 140.521 82.668 145.736 85.736-3.567 3.915-6.334 8.565-8.067 13.688l-169.015-99.424zm50.641 65.632-57.448 33.792c-1.734-5.123-4.501-9.774-8.068-13.689l49.842-29.323zm-117.921 46.18c0-13.1 10.657-23.757 23.757-23.757 12.978 0 23.552 10.461 23.749 23.392.001.09.002.179.007.27 0 .032.002.064.002.096 0 13.1-10.657 23.757-23.758 23.757-13.099-.001-23.757-10.658-23.757-23.758zm102.242 74.712 15.675 9.222-50.19 29.528h-31.349z"/><ellipse cx="161.064" cy="465.428" rx="12.211" ry="12.211" transform="matrix(.987 -.16 .16 .987 -72.474 31.81)"/><ellipse cx="350.936" cy="465.428" rx="12.211" ry="12.211" transform="matrix(.383 -.924 .924 .383 -213.361 611.54)"/></g></g></svg>