<svg id="Layer_1" enable-background="new 0 0 512 512" height="512" viewBox="0 0 512 512" width="512" xmlns="http://www.w3.org/2000/svg"><g><g><path d="m369.912 298.558c-9.565-2.11-16.136-10.832-15.662-20.615 2.69-55.56-41.676-102.978-98.25-102.978-56.591 0-100.939 47.437-98.25 102.978.474 9.784-6.097 18.506-15.662 20.615h-.001c-12.008 2.648-23.65-6.055-24.282-18.335-4.019-78.082 58.247-145.258 138.195-145.258 79.925 0 142.215 67.152 138.194 145.258-.632 12.28-12.274 20.984-24.282 18.335z" fill="#a49ca7"/></g><g><path d="m152.81 280.22c.16 3.11 1.02 6 2.43 8.52-2.7 4.86-7.38 8.55-13.15 9.82-1.46.32-2.92.48-4.35.48-10.33 0-19.38-8.03-19.93-18.82-4.02-78.08 58.24-145.26 138.19-145.26 5.94 0 11.78.37 17.5 1.09-71.33 8.95-124.41 71.89-120.69 144.17z" fill="#8e8391"/></g><path d="m319 274.295v141.42c0 2.761-2.239 5-5 5h-116c-2.761 0-5-2.239-5-5v-141.42c0-2.761 2.239-5 5-5h116c2.761 0 5 2.239 5 5z" fill="#fed22b"/><path d="m270.716 332.407-11.619-9.167c-1.816-1.433-4.378-1.433-6.194 0l-11.619 9.167c-3.279 2.587-8.097.252-8.097-3.925v-59.186h45.626v59.186c0 4.176-4.818 6.512-8.097 3.925z" fill="#f0a70a"/><path d="m233 420.72h-35c-2.76 0-5-2.24-5-5v-141.42c0-2.77 2.24-5 5-5h35c-2.76 0-5 2.23-5 5v141.42c0 2.76 2.24 5 5 5z" fill="#fdc202"/><path d="m284.406 171h-56.812l-9.627-163.5h76.066z" fill="#544f56"/><path d="m262.59 171h-35l-9.62-163.5h35z" fill="#444145"/><circle cx="256" cy="154.966" fill="#655e67" r="54.5"/><path d="m448.918 504.5h-385.836c-30.697 0-55.582-24.885-55.582-55.582 0-30.697 24.885-55.582 55.582-55.582h385.835c30.697 0 55.582 24.885 55.582 55.582.001 30.697-24.884 55.582-55.581 55.582z" fill="#a49ca7"/><path d="m71.814 428.927h368.372v39.982h-368.372z" fill="#655e67"/><g fill="#444145"><circle cx="71.814" cy="448.918" r="19.991"/><circle cx="440.186" cy="448.918" r="19.991"/></g><path d="m430.806 55.667h-349.612c-8.284 0-15-6.716-15-15v-28.167c0-2.761 2.239-5 5-5h369.612c2.761 0 5 2.239 5 5v28.167c0 8.284-6.716 15-15 15z" fill="#a49ca7"/><path d="m273.5 206.6c-5.49 1.86-11.38 2.87-17.5 2.87-30.1 0-54.5-24.4-54.5-54.5s24.4-54.5 54.5-54.5c6.12 0 12.01 1.01 17.5 2.87-21.52 7.29-37 27.65-37 51.63s15.48 44.34 37 51.63z" fill="#544f56"/><path d="m98.08 504.5h-35c-30.69 0-55.58-24.89-55.58-55.58 0-15.35 6.22-29.24 16.28-39.3s23.96-16.28 39.3-16.28h35c-15.34 0-29.24 6.22-39.3 16.28s-16.28 23.95-16.28 39.3c0 30.69 24.89 55.58 55.58 55.58z" fill="#8e8391"/><path d="m116.19 55.67h-35c-8.28 0-15-6.72-15-15v-28.17c0-2.76 2.24-5 5-5h35c-2.76 0-5 2.24-5 5v28.17c0 8.28 6.72 15 15 15z" fill="#8e8391"/><circle cx="256" cy="154.966" fill="#a49ca7" r="22"/><g><path d="m256 125.466c-16.266 0-29.5 13.234-29.5 29.5s13.234 29.5 29.5 29.5c16.267 0 29.5-13.234 29.5-29.5s-13.233-29.5-29.5-29.5zm0 44c-7.995 0-14.5-6.505-14.5-14.5s6.505-14.5 14.5-14.5 14.5 6.505 14.5 14.5-6.505 14.5-14.5 14.5z"/><path d="m448.918 385.835h-122.418v-116.535c0-4.142-3.357-7.5-7.5-7.5-3.88 0-120.413 0-126 0-4.142 0-7.5 3.358-7.5 7.5v116.535h-81.94c-4.142 0-7.5 3.358-7.5 7.5s3.358 7.5 7.5 7.5h89.344c.033 0 .064.005.097.005s.064-.004.097-.005h125.807c.033 0 .064.005.097.005s.064-.004.097-.005h129.821c26.513 0 48.082 21.57 48.082 48.083s-21.571 48.082-48.084 48.082h-385.835c-26.513 0-48.083-21.57-48.083-48.083s21.57-48.083 48.083-48.083h10.477c4.142 0 7.5-3.358 7.5-7.5s-3.358-7.5-7.5-7.5h-10.477c-34.784.001-63.083 28.3-63.083 63.083s28.299 63.083 63.083 63.083h385.835c34.783 0 63.082-28.299 63.082-63.083s-28.299-63.082-63.082-63.082zm-208.231-109.035h30.626v46.525l-10.668-8.417c-2.724-2.149-6.567-2.149-9.291 0l-10.667 8.417zm70.813 109.035h-111v-109.035h25.187v61.996c0 6.253 7.236 9.763 12.146 5.888l18.167-14.335 18.168 14.335c4.922 3.883 12.146.349 12.146-5.888v-61.996h25.186z"/><path d="m71.814 421.427c-15.159 0-27.491 12.333-27.491 27.491 0 15.136 12.297 27.453 27.425 27.49.021 0 .041.003.062.003h368.38c.021 0 .041-.003.062-.003 15.129-.036 27.425-12.353 27.425-27.49 0-15.158-12.332-27.491-27.491-27.491-.045 0-.09.003-.135.003h-368.102c-.045 0-.09-.003-.135-.003zm368.376 15.003c6.895 0 12.487 5.611 12.487 12.487 0 6.888-5.604 12.491-12.491 12.491s-12.491-5.604-12.491-12.491c0-6.878 5.595-12.487 12.495-12.487zm-343.898 0h319.415c-4.019 7.846-4.019 17.134.003 24.98h-319.42c4.02-7.845 4.022-17.133.002-24.98zm-11.987 12.487c0 6.888-5.604 12.491-12.491 12.491-6.888 0-12.491-5.604-12.491-12.491 0-6.875 5.584-12.469 12.455-12.489.011 0 .021.002.032.002h.071c6.856.037 12.424 5.623 12.424 12.487z"/><path d="m81.194 63.167h39.611c4.142 0 7.5-3.358 7.5-7.5s-3.358-7.5-7.5-7.5h-39.611c-4.136 0-7.5-3.364-7.5-7.5v-25.667h364.611v25.667c0 4.136-3.364 7.5-7.5 7.5h-280c-4.142 0-7.5 3.358-7.5 7.5s3.358 7.5 7.5 7.5h62.923l2.605 44.193c-10.063 8.399-17.422 19.923-20.594 33.065-54.305 24.654-88.496 80.477-85.419 140.178.741 14.544 12.786 25.938 27.42 25.938 1.971 0 3.975-.22 5.966-.656 13.127-2.897 22.184-14.8 21.535-28.307-1.619-33.368 15.445-64.947 43.873-82.112 24.802 28.674 68.975 28.661 93.767.005 9.385 5.684 17.812 13.119 24.603 21.766 1.479 1.884 3.681 2.868 5.903 2.868 1.621 0 3.254-.523 4.628-1.602 3.257-2.559 3.824-7.273 1.266-10.531-7.752-9.871-17.338-18.389-28.015-24.958 3.864-7.582 6.224-16.051 6.657-25.022 42.25 22.635 68.952 66.557 68.952 115.073 0 2.253-.059 4.531-.175 6.772-.337 6.562-5.802 11.701-12.44 11.701-.909 0-1.83-.101-2.733-.3-5.771-1.273-9.8-6.335-9.8-12.311 0-.209.005-.42.015-.622.084-1.721.126-3.459.126-5.166 0-12.756-2.281-25.26-6.779-37.164-1.464-3.874-5.791-5.828-9.667-4.364-3.874 1.464-5.828 5.792-4.364 9.667 3.855 10.204 5.811 20.924 5.811 31.862 0 1.465-.036 2.958-.108 4.447-.021.449-.032.896-.032 1.34 0 13.07 8.869 24.156 21.569 26.958 1.964.433 3.97.652 5.964.652 14.63 0 26.674-11.391 27.421-25.929.129-2.496.194-5.034.194-7.545 0-28.951-8.578-56.996-24.807-81.102-15.223-22.613-36.191-40.346-60.802-51.513-3.169-13.152-10.53-24.684-20.6-33.089l2.605-44.193h132.534c12.406 0 22.5-10.093 22.5-22.5v-33.166c0-4.142-3.357-7.5-7.5-7.5-4.828 0-376.319 0-379.613 0-4.142 0-7.5 3.358-7.5 7.5v33.167c0 12.406 10.094 22.5 22.5 22.5zm202.051 0-2.072 35.16c-16.025-7.15-34.316-7.152-50.346 0l-2.072-35.161h54.49zm-132.986 215.133c.296 6.179-3.819 11.62-9.774 12.934-7.825 1.712-14.805-3.951-15.185-11.4-2.608-50.611 24.654-98.099 68.777-121.838.434 8.966 2.793 17.43 6.653 25.008-32.737 20.08-52.346 56.66-50.471 95.296zm152.741-123.334c0 25.916-21.084 47-47 47s-47-21.084-47-47 21.084-47 47-47 47 21.084 47 47z"/></g></g></svg>