<svg id="Layer_1" enable-background="new 0 0 512 512" height="512" viewBox="0 0 512 512" width="512" xmlns="http://www.w3.org/2000/svg"><g><g fill="#8e8391"><path d="m267.295 275.973c1.033-6.506 1.565-13.178 1.565-19.979s-.533-13.473-1.565-19.979c-.386-2.432-2.486-4.222-4.948-4.222h-7.254c-2.274 0-4.261-1.535-4.829-3.737-2.618-10.133-6.624-19.707-11.812-28.504-1.156-1.961-.839-4.452.77-6.061l5.127-5.127c1.741-1.741 1.958-4.492.513-6.485-7.863-10.844-17.411-20.386-28.256-28.255-1.994-1.447-4.747-1.229-6.488.513l-5.118 5.122c-1.609 1.61-4.1 1.928-6.061.773-8.798-5.183-18.371-9.194-28.504-11.814-2.201-.569-3.736-2.556-3.736-4.829v-7.25c0-2.463-1.792-4.564-4.225-4.948-6.512-1.03-13.185-1.569-19.986-1.569-6.793 0-13.464.54-19.976 1.569-2.433.385-4.225 2.485-4.225 4.948v7.25c0 2.273-1.535 4.26-3.736 4.829-10.134 2.619-19.707 6.632-28.505 11.815-1.96 1.155-4.451.838-6.06-.771l-5.127-5.127c-1.742-1.742-4.494-1.958-6.488-.511-10.838 7.869-20.385 17.41-28.248 28.254-1.445 1.993-1.228 4.744.513 6.485l5.127 5.127c1.609 1.609 1.926 4.101.77 6.061-5.188 8.798-9.194 18.371-11.812 28.504-.569 2.201-2.556 3.737-4.829 3.737h-7.254c-2.462 0-4.562 1.79-4.948 4.222-1.033 6.506-1.565 13.178-1.565 19.979s.533 13.473 1.565 19.979c.386 2.432 2.486 4.222 4.948 4.222h7.254c2.274 0 4.261 1.535 4.829 3.737 2.618 10.133 6.624 19.707 11.812 28.504 1.156 1.961.839 4.452-.77 6.061l-5.127 5.127c-1.741 1.741-1.958 4.492-.513 6.485 7.863 10.844 17.41 20.385 28.248 28.254 1.993 1.447 4.746 1.231 6.488-.511l5.127-5.127c1.609-1.609 4.099-1.926 6.06-.771 8.798 5.183 18.372 9.195 28.505 11.815 2.201.569 3.736 2.556 3.736 4.829v7.25c0 2.463 1.792 4.564 4.225 4.948 6.511 1.03 13.183 1.569 19.976 1.569 6.801 0 13.474-.54 19.986-1.569 2.433-.385 4.225-2.485 4.225-4.948v-7.25c0-2.273 1.535-4.26 3.736-4.829 10.133-2.619 19.706-6.631 28.504-11.814 1.961-1.155 4.452-.837 6.061.773l5.118 5.122c1.741 1.743 4.494 1.96 6.488.513 10.845-7.869 20.393-17.411 28.256-28.255 1.445-1.993 1.228-4.744-.513-6.485l-5.127-5.127c-1.609-1.609-1.926-4.101-.77-6.061 5.188-8.798 9.194-18.371 11.812-28.504.569-2.201 2.556-3.737 4.829-3.737h7.254c2.462.002 4.562-1.788 4.948-4.22zm-180.879-53.849c0-16.835 19.155-29.168 36.875-16.408.42.303.798.678 1.104 1.096 12.947 17.715.568 36.992-16.298 36.992-11.98 0-21.681-9.71-21.681-21.68zm52.177 88.996c-.302.416-.676.789-1.092 1.092-22.816 16.578-48.185-8.729-31.611-31.603.304-.42.681-.796 1.1-1.1 22.875-16.574 48.182 8.796 31.603 31.611zm50.296-42.705c-16.826 0-29.186-19.166-16.39-36.89.303-.419.678-.796 1.096-1.101 17.71-12.927 36.975-.55 36.975 16.31-.001 11.981-9.711 21.681-21.681 21.681z"/><path d="m494.434 108.124c-.38-2.433-2.485-4.223-4.948-4.223h-6.382c-2.273 0-4.256-1.536-4.829-3.736-2.453-9.413-6.178-18.309-10.982-26.5-1.152-1.964-.837-4.453.773-6.062l4.512-4.508c1.742-1.741 1.964-4.497.514-6.488-7.349-10.088-16.245-18.978-26.328-26.325-1.989-1.45-4.743-1.23-6.484.51l-4.516 4.512c-1.609 1.608-4.097 1.92-6.059.769-8.186-4.804-17.087-8.527-26.5-10.975-2.202-.572-3.74-2.555-3.74-4.83v-6.39c0-2.463-1.79-4.567-4.223-4.948-6.066-.949-12.285-1.441-18.617-1.441-6.333 0-12.547.493-18.617 1.442-2.433.38-4.224 2.485-4.224 4.948v6.39c0 2.275-1.537 4.257-3.739 4.83-9.406 2.447-18.306 6.171-26.491 10.974-1.962 1.151-4.45.839-6.059-.769l-4.516-4.512c-1.741-1.74-4.495-1.96-6.484-.51-10.083 7.347-18.979 16.237-26.328 26.325-1.45 1.991-1.229 4.747.514 6.488l4.512 4.508c1.61 1.609 1.925 4.098.773 6.062-4.804 8.192-8.529 17.088-10.982 26.5-.573 2.2-2.556 3.736-4.829 3.736h-6.383c-2.462 0-4.566 1.789-4.948 4.221-.951 6.066-1.451 12.287-1.451 18.619s.5 12.553 1.451 18.619c.381 2.432 2.486 4.221 4.948 4.221h6.383c2.273 0 4.256 1.536 4.829 3.736 2.453 9.413 6.178 18.308 10.982 26.5 1.152 1.964.837 4.453-.773 6.062l-4.512 4.508c-1.742 1.741-1.964 4.497-.514 6.488 7.349 10.088 16.245 18.978 26.328 26.325 1.989 1.45 4.743 1.23 6.484-.51l4.516-4.512c1.609-1.608 4.097-1.92 6.059-.769 8.186 4.803 17.085 8.527 26.491 10.974 2.201.573 3.739 2.555 3.739 4.83v6.39c0 2.463 1.791 4.568 4.224 4.948 6.069.949 12.284 1.442 18.617 1.442 6.332 0 12.552-.493 18.617-1.441 2.433-.381 4.223-2.485 4.223-4.948v-6.39c0-2.275 1.538-4.258 3.74-4.83 9.414-2.447 18.314-6.171 26.5-10.975 1.962-1.151 4.45-.839 6.059.769l4.516 4.512c1.741 1.74 4.495 1.96 6.484.51 10.083-7.347 18.979-16.237 26.328-26.325 1.45-1.991 1.229-4.747-.514-6.488l-4.512-4.508c-1.61-1.609-1.925-4.098-.773-6.062 4.804-8.192 8.529-17.088 10.982-26.5.574-2.2 2.556-3.736 4.829-3.736h6.382c2.463 0 4.567-1.79 4.948-4.223.949-6.066 1.442-12.286 1.442-18.617-.001-6.331-.494-12.551-1.442-18.617zm-72.55 62.79c-.291.389-.642.74-1.03 1.031-65.083 48.901-138.315-24.306-89.443-89.427.292-.389.643-.74 1.032-1.032 65.084-48.783 138.214 24.344 89.441 89.428z"/><path d="m487.402 368.017h-5.811c-2.274 0-4.253-1.537-4.83-3.737-2.342-8.935-5.883-17.386-10.432-25.169-1.148-1.965-.838-4.452.771-6.061l4.108-4.108c1.741-1.741 1.964-4.497.512-6.485-7.005-9.589-15.464-18.043-25.048-25.046-1.988-1.453-4.744-1.229-6.486.512l-4.107 4.107c-1.609 1.609-4.097 1.92-6.061.771-7.79-4.555-16.243-8.091-25.178-10.432-2.2-.576-3.738-2.556-3.738-4.83v-5.814c0-2.461-1.788-4.569-4.221-4.947-5.773-.898-11.687-1.362-17.71-1.362-6.031 0-11.947.464-17.72 1.362-2.432.378-4.221 2.486-4.221 4.947v5.814c0 2.274-1.538 4.254-3.738 4.83-8.936 2.341-17.389 5.877-25.179 10.432-1.965 1.149-4.452.838-6.061-.771l-4.107-4.107c-1.741-1.741-4.498-1.964-6.486-.512-9.584 7.004-18.043 15.457-25.048 25.046-1.452 1.988-1.229 4.744.512 6.485l4.108 4.108c1.609 1.609 1.92 4.096.771 6.061-4.549 7.783-8.09 16.235-10.433 25.169-.577 2.199-2.556 3.737-4.83 3.737h-5.81c-2.463 0-4.572 1.791-4.948 4.225-.892 5.774-1.356 11.693-1.356 17.715s.464 11.941 1.356 17.715c.376 2.434 2.484 4.225 4.948 4.225h5.81c2.274 0 4.253 1.537 4.83 3.737 2.342 8.935 5.883 17.386 10.433 25.169 1.148 1.965.838 4.452-.771 6.061l-4.108 4.108c-1.741 1.741-1.964 4.497-.512 6.485 7.005 9.589 15.464 18.043 25.048 25.046 1.988 1.453 4.744 1.23 6.486-.512l4.107-4.107c1.609-1.609 4.096-1.92 6.061-.771 7.79 4.555 16.243 8.091 25.179 10.432 2.2.576 3.738 2.556 3.738 4.83v5.814c0 2.461 1.788 4.569 4.221 4.947 5.773.898 11.688 1.362 17.72 1.362 6.023 0 11.937-.464 17.71-1.362 2.432-.378 4.221-2.486 4.221-4.947v-5.814c0-2.274 1.538-4.254 3.738-4.83 8.935-2.341 17.389-5.877 25.178-10.432 1.965-1.149 4.452-.838 6.061.771l4.107 4.107c1.741 1.741 4.498 1.964 6.486.512 9.584-7.004 18.043-15.457 25.048-25.046 1.452-1.988 1.229-4.744-.512-6.485l-4.108-4.108c-1.609-1.609-1.92-4.096-.771-6.061 4.549-7.783 8.091-16.235 10.432-25.169.577-2.199 2.556-3.737 4.83-3.737h5.811c2.462 0 4.57-1.79 4.947-4.223.895-5.775 1.366-11.695 1.366-17.717s-.471-11.942-1.366-17.717c-.377-2.433-2.484-4.223-4.947-4.223zm-133.23 42.371c-8.85 8.86-23.2 8.86-32.051 0-8.85-8.85-8.85-23.201 0-32.051s23.2-8.85 32.051 0c8.86 8.85 8.86 23.201 0 32.051zm31.631-75.832c8.86-8.85 23.21-8.85 32.061 0 8.85 8.86 8.85 23.211 0 32.061s-23.2 8.85-32.061 0c-8.85-8.85-8.85-23.201 0-32.061zm35.39 110.803c-8.85 8.85-23.2 8.85-32.05 0-8.86-8.86-8.86-23.21 0-32.061 8.85-8.85 23.2-8.85 32.05 0 8.851 8.85 8.851 23.2 0 32.061z"/></g><g fill="#766d78"><path d="m153.288 375.847v-7.25c0-2.27-1.53-4.26-3.74-4.83-10.13-2.62-19.7-6.63-28.501-11.81-1.96-1.16-4.45-.84-6.06.77l-5.13 5.13c-1.74 1.74-4.49 1.95-6.48.51-10.84-7.87-20.39-17.41-28.251-28.261-1.45-1.99-1.23-4.74.51-6.48l5.13-5.13c1.61-1.61 1.92-4.1.77-6.06-5.19-8.8-9.2-18.37-11.81-28.501-.57-2.2-2.56-3.74-4.83-3.74h-7.26c-2.46 0-4.56-1.79-4.94-4.22-1.04-6.51-1.57-13.18-1.57-19.98s.53-13.47 1.57-19.98c.38-2.43 2.48-4.22 4.94-4.22h7.26c2.27 0 4.26-1.54 4.83-3.74 2.61-10.13 6.62-19.7 11.81-28.501 1.15-1.96.84-4.45-.77-6.06l-5.13-5.13c-1.74-1.74-1.96-4.49-.51-6.48 7.86-10.85 17.41-20.39 28.251-28.261 1.99-1.44 4.74-1.23 6.48.51l5.13 5.13c1.61 1.61 4.1 1.93 6.06.77 8.8-5.18 18.37-9.19 28.501-11.81 2.21-.57 3.74-2.56 3.74-4.83v-7.25c0-2.47 1.79-4.57 4.22-4.95.83-.13 1.66-.25 2.49-.36-5.73-.8-11.57-1.21-17.51-1.21-6.79 0-13.46.54-19.98 1.57-2.43.38-4.22 2.48-4.22 4.95v7.25c0 2.27-1.53 4.26-3.74 4.83-10.13 2.62-19.7 6.63-28.501 11.81-1.96 1.16-4.45.84-6.06-.77l-5.13-5.13c-1.74-1.74-4.49-1.95-6.48-.51-10.84 7.87-20.39 17.41-28.251 28.261-1.45 1.99-1.23 4.74.51 6.48l5.13 5.13c1.61 1.61 1.92 4.1.77 6.06-5.19 8.8-9.2 18.37-11.81 28.501-.57 2.2-2.56 3.74-4.83 3.74h-7.26c-2.46 0-4.56 1.79-4.94 4.22-1.04 6.51-1.57 13.18-1.57 19.98s.53 13.47 1.57 19.98c.38 2.43 2.48 4.22 4.94 4.22h7.26c2.27 0 4.26 1.54 4.83 3.74 2.61 10.13 6.62 19.7 11.81 28.501 1.15 1.96.84 4.45-.77 6.06l-5.13 5.13c-1.74 1.74-1.96 4.49-.51 6.48 7.86 10.85 17.41 20.39 28.251 28.261 1.99 1.44 4.74 1.23 6.48-.51l5.13-5.13c1.61-1.61 4.1-1.93 6.06-.77 8.8 5.18 18.37 9.19 28.501 11.81 2.21.57 3.74 2.56 3.74 4.83v7.25c0 2.47 1.79 4.57 4.22 4.95 6.52 1.03 13.19 1.57 19.98 1.57 5.94 0 11.78-.41 17.51-1.21-.83-.11-1.66-.23-2.49-.36-2.43-.38-4.22-2.48-4.22-4.95z"/><path d="m388.783 239.604v-6.39c0-2.27-1.54-4.26-3.74-4.83-9.4-2.45-18.3-6.17-26.491-10.97-1.96-1.15-4.45-.84-6.06.77l-4.51 4.51c-1.75 1.74-4.5 1.96-6.49.51-10.08-7.35-18.98-16.24-26.331-26.331-1.45-1.99-1.23-4.74.52-6.48l4.51-4.51c1.61-1.61 1.92-4.1.77-6.06-4.8-8.2-8.53-17.09-10.98-26.501-.57-2.2-2.55-3.74-4.83-3.74h-6.38c-2.46 0-4.57-1.79-4.95-4.22-.95-6.07-1.45-12.29-1.45-18.62s.5-12.55 1.45-18.62c.38-2.43 2.49-4.22 4.95-4.22h6.38c2.28 0 4.26-1.54 4.83-3.74 2.45-9.41 6.18-18.3 10.98-26.501 1.15-1.96.84-4.45-.77-6.06l-4.51-4.51c-1.75-1.74-1.97-4.49-.52-6.48 7.35-10.09 16.25-18.98 26.331-26.331 1.99-1.45 4.74-1.23 6.49.51l4.51 4.51c1.61 1.61 4.1 1.92 6.06.77 8.19-4.8 17.09-8.52 26.491-10.97 2.2-.57 3.74-2.56 3.74-4.83v-6.39c0-2.46 1.79-4.57 4.22-4.95.37-.06.75-.11 1.12-.16-5.71-.85-11.56-1.28-17.5-1.28-6.33 0-12.55.49-18.621 1.44-2.43.38-4.22 2.49-4.22 4.95v6.39c0 2.27-1.54 4.26-3.74 4.83-9.4 2.45-18.3 6.17-26.491 10.97-1.96 1.15-4.45.84-6.06-.77l-4.51-4.51c-1.75-1.74-4.5-1.96-6.49-.51-10.08 7.35-18.98 16.24-26.331 26.331-1.45 1.99-1.23 4.74.52 6.48l4.51 4.51c1.61 1.61 1.92 4.1.77 6.06-4.8 8.2-8.53 17.09-10.98 26.501-.57 2.2-2.55 3.74-4.83 3.74h-6.38c-2.46 0-4.57 1.79-4.95 4.22-.95 6.07-1.45 12.29-1.45 18.62s.5 12.55 1.45 18.62c.38 2.43 2.49 4.22 4.95 4.22h6.38c2.28 0 4.26 1.54 4.83 3.74 2.45 9.41 6.18 18.3 10.98 26.501 1.15 1.96.84 4.45-.77 6.06l-4.51 4.51c-1.75 1.74-1.97 4.49-.52 6.48 7.35 10.09 16.25 18.98 26.331 26.331 1.99 1.45 4.74 1.23 6.49-.51l4.51-4.51c1.61-1.61 4.1-1.92 6.06-.77 8.19 4.8 17.09 8.52 26.491 10.97 2.2.57 3.74 2.56 3.74 4.83v6.39c0 2.46 1.79 4.57 4.22 4.95 6.07.95 12.29 1.44 18.621 1.44 5.94 0 11.79-.43 17.5-1.28-.37-.05-.75-.1-1.12-.16-2.43-.38-4.22-2.49-4.22-4.95z"/><path d="m392.233 498.19v-5.81c0-2.28-1.54-4.26-3.74-4.83-8.93-2.34-17.39-5.88-25.18-10.43-1.96-1.15-4.45-.84-6.06.77l-4.1 4.1c-1.74 1.74-4.5 1.97-6.49.51-9.58-7-18.04-15.45-25.051-25.04-1.45-1.99-1.22-4.75.52-6.49l4.1-4.1c1.61-1.61 1.92-4.1.78-6.06-4.55-7.79-8.09-16.24-10.44-25.171-.57-2.2-2.55-3.74-4.83-3.74h-5.81c-2.46 0-4.57-1.79-4.94-4.23-.9-5.77-1.36-11.69-1.36-17.71s.46-11.94 1.36-17.71c.37-2.44 2.48-4.23 4.94-4.23h5.81c2.28 0 4.26-1.54 4.83-3.74 2.35-8.93 5.89-17.38 10.44-25.171 1.14-1.96.83-4.45-.78-6.06l-4.1-4.1c-1.74-1.74-1.97-4.5-.52-6.49 7.01-9.59 15.471-18.04 25.051-25.041 1.99-1.46 4.75-1.23 6.49.51l4.1 4.1c1.61 1.61 4.1 1.92 6.06.77 7.79-4.55 16.25-8.09 25.18-10.43 2.2-.57 3.74-2.55 3.74-4.83v-5.81c0-2.46 1.79-4.57 4.22-4.95.07-.01.15-.02.22-.03-5.7-.88-11.55-1.33-17.5-1.33-6.03 0-11.95.46-17.72 1.36-2.43.38-4.22 2.49-4.22 4.95v5.81c0 2.28-1.54 4.26-3.74 4.83-8.93 2.34-17.39 5.88-25.18 10.43-1.96 1.15-4.45.84-6.06-.77l-4.1-4.1c-1.74-1.74-4.5-1.97-6.49-.51-9.58 7-18.04 15.45-25.051 25.041-1.45 1.99-1.22 4.75.52 6.49l4.1 4.1c1.61 1.61 1.92 4.1.78 6.06-4.55 7.79-8.09 16.24-10.44 25.171-.57 2.2-2.55 3.74-4.83 3.74h-5.81c-2.46 0-4.57 1.79-4.94 4.23-.9 5.77-1.36 11.69-1.36 17.71s.46 11.94 1.36 17.71c.37 2.44 2.48 4.23 4.94 4.23h5.81c2.28 0 4.26 1.54 4.83 3.74 2.35 8.93 5.89 17.38 10.44 25.171 1.14 1.96.83 4.45-.78 6.06l-4.1 4.1c-1.74 1.74-1.97 4.5-.52 6.49 7.01 9.59 15.471 18.04 25.051 25.04 1.99 1.46 4.75 1.23 6.49-.51l4.1-4.1c1.61-1.61 4.1-1.92 6.06-.77 7.79 4.55 16.25 8.09 25.18 10.43 2.2.57 3.74 2.55 3.74 4.83v5.81c0 2.46 1.79 4.57 4.22 4.95 5.77.9 11.69 1.36 17.72 1.36 5.95 0 11.8-.45 17.5-1.33-.07-.01-.15-.02-.22-.03-2.43-.38-4.22-2.49-4.22-4.95z"/></g><g><path d="m266.55 287.699c3.593 0 6.681-2.548 7.363-6.075 1.625-8.396 2.449-17.019 2.449-25.629s-.824-17.233-2.449-25.629c-.683-3.527-3.771-6.075-7.363-6.075h-9.529c-2.589-9.387-6.317-18.382-11.131-26.86l6.734-6.734c2.539-2.54 2.922-6.523.913-9.5-9.693-14.359-21.888-26.554-36.248-36.248-2.976-2.009-6.959-1.628-9.499.913l-6.735 6.733c-8.478-4.815-17.472-8.542-26.86-11.131v-9.529c0-3.593-2.548-6.681-6.074-7.363-16.793-3.25-34.467-3.25-51.26 0-3.526.683-6.074 3.771-6.074 7.363v9.273c-9.175 2.576-18.173 6.386-26.871 11.377l-6.722-6.723c-2.541-2.541-6.524-2.92-9.5-.913-14.359 9.693-26.554 21.889-36.248 36.248-2.01 2.977-1.627 6.96.913 9.5l6.734 6.734c-4.815 8.477-8.543 17.473-11.132 26.86h-9.529c-3.593 0-6.681 2.548-7.363 6.075-1.625 8.396-2.449 17.019-2.449 25.629s.824 17.233 2.449 25.629c.683 3.527 3.771 6.075 7.363 6.075h9.529c2.589 9.387 6.318 18.383 11.132 26.86l-6.734 6.734c-2.54 2.54-2.923 6.523-.913 9.5 9.694 14.359 21.889 26.555 36.248 36.248 2.977 2.009 6.959 1.627 9.5-.913l6.733-6.733c8.478 4.814 17.473 8.542 26.86 11.131v9.529c0 3.593 2.548 6.681 6.074 7.363 8.397 1.625 17.02 2.449 25.63 2.449s17.233-.824 25.629-2.449c3.526-.683 6.074-3.771 6.074-7.363v-9.529c9.388-2.589 18.382-6.317 26.86-11.131l6.735 6.733c2.538 2.541 6.524 2.922 9.499.913 14.36-9.694 26.555-21.889 36.248-36.248 2.009-2.977 1.626-6.96-.913-9.5l-6.734-6.734c4.815-8.478 8.542-17.473 11.131-26.86zm-22.712-9.124c-2.611 11.778-7.228 22.918-13.721 33.112-1.89 2.966-1.465 6.846 1.021 9.333l6.393 6.393c-6.741 8.966-14.654 16.88-23.621 23.621l-6.394-6.393c-2.485-2.487-6.365-2.912-9.333-1.022-10.193 6.494-21.333 11.11-33.111 13.721-3.434.761-5.877 3.806-5.877 7.322v9.039c-11.033 1.546-22.375 1.546-33.408 0v-9.039c0-3.517-2.443-6.561-5.877-7.322-11.777-2.611-22.917-7.227-33.112-13.721-2.964-1.889-6.845-1.463-9.333 1.022l-6.392 6.392c-8.966-6.741-16.88-14.655-23.622-23.621l6.393-6.393c2.487-2.486 2.912-6.367 1.022-9.333-6.494-10.194-11.111-21.334-13.721-33.112-.761-3.433-3.806-5.877-7.322-5.877h-9.04c-.772-5.517-1.163-11.113-1.163-16.704s.391-11.187 1.163-16.704h9.04c3.517 0 6.562-2.444 7.322-5.877 2.61-11.778 7.227-22.918 13.721-33.112 1.89-2.966 1.465-6.847-1.022-9.333l-6.393-6.393c6.741-8.966 14.656-16.88 23.622-23.621l6.392 6.392c2.486 2.486 6.367 2.912 9.333 1.022 10.628-6.771 21.769-11.478 33.112-13.993 3.434-.761 5.877-3.806 5.877-7.322v-8.768c11.032-1.545 22.374-1.546 33.408 0v9.039c0 3.517 2.443 6.561 5.877 7.322 11.778 2.611 22.918 7.227 33.111 13.721 2.968 1.891 6.848 1.464 9.333-1.022l6.394-6.393c8.967 6.741 16.879 14.655 23.621 23.621l-6.393 6.393c-2.486 2.487-2.911 6.367-1.021 9.333 6.493 10.194 11.11 21.334 13.721 33.112.762 3.433 3.806 5.877 7.322 5.877h9.039c.772 5.517 1.163 11.113 1.163 16.704s-.391 11.187-1.163 16.704h-9.039c-3.517.003-6.561 2.447-7.322 5.88z"/><path d="m134.68 210.997c-1.545-3.844-5.918-5.706-9.755-4.163-3.844 1.544-5.708 5.912-4.163 9.756 3.729 9.28-3.144 19.461-13.168 19.461-7.819 0-14.18-6.361-14.18-14.181 0-6.77 4.811-12.623 11.439-13.917 4.066-.794 6.718-4.733 5.924-8.799-.794-4.065-4.731-6.717-8.799-5.923-13.654 2.666-23.564 14.711-23.564 28.639 0 16.091 13.09 29.181 29.18 29.181 20.614.001 34.777-20.917 27.086-40.054z"/><path d="m121.75 266.437c-16.09 0-29.181 13.091-29.181 29.181s13.091 29.181 29.181 29.181 29.181-13.091 29.181-29.181-13.091-29.181-29.181-29.181zm0 43.362c-7.82 0-14.181-6.361-14.181-14.18 0-7.82 6.361-14.181 14.181-14.181s14.181 6.361 14.181 14.181c0 7.818-6.362 14.18-14.181 14.18z"/><path d="m188.389 217.306c-16.09 0-29.181 13.091-29.181 29.181 0 16.091 13.091 29.181 29.181 29.181s29.181-13.091 29.181-29.181-13.091-29.181-29.181-29.181zm0 43.362c-7.82 0-14.181-6.361-14.181-14.181 0-7.819 6.361-14.18 14.181-14.18s14.181 6.361 14.181 14.18-6.361 14.181-14.181 14.181z"/><path d="m259.557 157.083h8.671c2.419 8.677 5.867 16.998 10.299 24.853l-6.127 6.127c-2.539 2.54-2.922 6.523-.913 9.5 9.177 13.595 20.724 25.142 34.32 34.32 2.977 2.01 6.96 1.626 9.5-.913l6.126-6.127c7.855 4.431 16.176 7.88 24.853 10.299v8.671c0 3.593 2.548 6.681 6.075 7.363 7.948 1.539 16.113 2.319 24.266 2.319s16.317-.78 24.266-2.319c3.526-.683 6.074-3.771 6.074-7.363v-8.671c8.677-2.419 16.998-5.868 24.853-10.299l6.126 6.127c2.541 2.541 6.525 2.92 9.5.913 13.596-9.178 25.143-20.726 34.32-34.32 2.009-2.977 1.626-6.96-.913-9.5l-6.127-6.127c4.432-7.855 7.88-16.176 10.299-24.853h8.671c3.593 0 6.681-2.548 7.363-6.075 1.539-7.953 2.319-16.117 2.319-24.266s-.78-16.312-2.319-24.266c-.683-3.527-3.771-6.075-7.363-6.075h-8.671c-2.419-8.677-5.867-16.998-10.299-24.853l6.127-6.127c2.539-2.54 2.922-6.523.913-9.5-9.177-13.595-20.724-25.142-34.32-34.32-2.976-2.009-6.959-1.628-9.5.913l-6.126 6.127c-7.855-4.431-16.176-7.88-24.853-10.299v-8.671c0-3.593-2.548-6.681-6.074-7.363-15.9-3.078-32.636-3.077-48.532 0-3.527.683-6.075 3.771-6.075 7.363v8.671c-8.677 2.419-16.998 5.868-24.853 10.299l-6.126-6.127c-2.539-2.539-6.523-2.921-9.5-.913-13.596 9.178-25.143 20.726-34.32 34.32-2.009 2.977-1.626 6.96.913 9.5l6.127 6.127c-4.432 7.855-7.88 16.176-10.299 24.853h-8.671c-3.593 0-6.681 2.548-7.363 6.075-1.538 7.95-2.318 16.114-2.318 24.266s.78 16.316 2.318 24.266c.682 3.527 3.77 6.075 7.363 6.075zm6.361-45.682h8.162c3.517 0 6.562-2.444 7.322-5.878 2.452-11.066 6.79-21.533 12.892-31.11 1.89-2.966 1.465-6.847-1.022-9.334l-5.774-5.773c6.215-8.211 13.482-15.477 21.693-21.693l5.773 5.773c2.487 2.487 6.368 2.913 9.334 1.022 9.577-6.102 20.044-10.439 31.11-12.892 3.434-.761 5.877-3.806 5.877-7.322v-8.162c10.136-1.387 20.543-1.387 30.681 0v8.162c0 3.517 2.443 6.561 5.877 7.322 11.066 2.453 21.533 6.79 31.11 12.892 2.968 1.891 6.848 1.464 9.334-1.022l5.773-5.773c8.211 6.216 15.478 13.482 21.693 21.693l-5.774 5.773c-2.486 2.487-2.911 6.367-1.021 9.334 6.102 9.577 10.44 20.044 12.892 31.11.761 3.434 3.806 5.878 7.322 5.878h8.162c.693 5.071 1.044 10.208 1.044 15.341s-.351 10.27-1.044 15.341h-8.162c-3.517 0-6.562 2.444-7.322 5.878-2.452 11.066-6.79 21.533-12.892 31.11-1.89 2.966-1.465 6.847 1.021 9.334l5.774 5.773c-6.215 8.211-13.482 15.477-21.693 21.693l-5.773-5.773c-2.487-2.486-6.366-2.913-9.334-1.022-9.577 6.102-20.044 10.439-31.11 12.892-3.434.761-5.877 3.806-5.877 7.322v8.162c-10.138 1.387-20.545 1.387-30.681 0v-8.162c0-3.517-2.443-6.561-5.877-7.322-11.066-2.453-21.533-6.79-31.11-12.892-2.966-1.89-6.847-1.464-9.334 1.022l-5.773 5.773c-8.211-6.216-15.478-13.482-21.693-21.693l5.774-5.773c2.486-2.487 2.911-6.367 1.022-9.334-6.102-9.577-10.44-20.044-12.892-31.11-.761-3.434-3.806-5.878-7.322-5.878h-8.162c-.693-5.069-1.043-10.207-1.043-15.341s.35-10.272 1.043-15.341z"/><path d="m376.628 195.388c37.851 0 68.646-30.795 68.646-68.646 0-61.325-74.5-91.522-117.355-48.372-2.919 2.939-2.902 7.688.036 10.607 2.939 2.919 7.688 2.903 10.607-.036 33.426-33.655 91.712-10.18 91.712 37.801 0 29.581-24.065 53.646-53.646 53.646-35.718 0-61.744-34.56-51.399-69.068 1.189-3.968-1.064-8.148-5.031-9.338-3.972-1.187-8.15 1.063-9.338 5.032-1.91 6.375-2.879 13.012-2.879 19.728 0 37.852 30.794 68.646 68.647 68.646z"/><path d="m491.614 360.519h-8.104c-2.308-8.208-5.571-16.084-9.749-23.524l5.727-5.726c2.539-2.54 2.922-6.523.912-9.5-8.837-13.091-19.955-24.209-33.044-33.044-2.975-2.009-6.958-1.627-9.5.913l-5.725 5.726c-7.443-4.178-15.318-7.442-23.525-9.749v-8.103c0-3.593-2.548-6.681-6.075-7.363-15.305-2.963-31.42-2.963-46.727 0-3.527.683-6.075 3.771-6.075 7.363v8.103c-8.208 2.308-16.082 5.571-23.525 9.749l-5.727-5.726c-2.537-2.54-6.523-2.921-9.499-.913-13.091 8.837-24.209 19.955-33.044 33.044-2.009 2.977-1.626 6.96.913 9.499l5.726 5.726c-4.178 7.443-7.442 15.318-9.749 23.524h-8.103c-3.593 0-6.681 2.547-7.363 6.074-1.482 7.654-2.233 15.515-2.233 23.364s.751 15.71 2.233 23.364c.683 3.527 3.771 6.074 7.363 6.074h8.103c2.308 8.207 5.57 16.082 9.749 23.525l-5.726 5.726c-2.539 2.54-2.922 6.523-.913 9.499 8.835 13.089 19.953 24.207 33.044 33.045 2.977 2.009 6.96 1.626 9.5-.913l5.726-5.726c7.443 4.179 15.318 7.442 23.525 9.749v8.104c0 3.593 2.548 6.681 6.075 7.363 7.654 1.481 15.513 2.232 23.363 2.232s15.711-.751 23.364-2.232c3.527-.683 6.075-3.771 6.075-7.363v-8.103c8.206-2.307 16.081-5.57 23.525-9.749l5.725 5.726c2.541 2.54 6.524 2.922 9.5.913 13.089-8.836 24.208-19.954 33.044-33.044 2.01-2.977 1.627-6.96-.913-9.5l-5.726-5.726c4.178-7.441 7.442-15.317 9.749-23.525h8.104c3.593 0 6.681-2.548 7.363-6.075 1.481-7.655 2.232-15.516 2.232-23.363s-.751-15.707-2.232-23.363c-.682-3.527-3.77-6.075-7.363-6.075zm-6.369 43.877h-7.58c-3.517 0-6.561 2.443-7.322 5.877-2.35 10.597-6.503 20.62-12.344 29.787-1.89 2.966-1.465 6.847 1.022 9.334l5.361 5.362c-5.867 7.713-12.704 14.55-20.416 20.417l-5.361-5.362c-2.486-2.485-6.367-2.912-9.333-1.022-9.172 5.843-19.194 9.996-29.788 12.344-3.434.761-5.877 3.806-5.877 7.322v7.581c-9.544 1.282-19.332 1.282-28.877 0v-7.581c0-3.517-2.443-6.562-5.877-7.322-10.595-2.348-20.617-6.501-29.787-12.344-2.967-1.89-6.847-1.463-9.334 1.022l-5.361 5.362c-7.714-5.868-14.55-12.704-20.416-20.417l5.361-5.362c2.486-2.487 2.911-6.367 1.022-9.333-5.842-9.171-9.995-19.193-12.343-29.787-.761-3.433-3.806-5.877-7.322-5.877h-7.581c-.641-4.772-.965-9.607-.965-14.438s.324-9.666.965-14.438h7.581c3.517 0 6.562-2.444 7.322-5.877 2.348-10.594 6.501-20.616 12.343-29.787 1.89-2.966 1.465-6.846-1.022-9.333l-5.362-5.362c5.867-7.713 12.704-14.55 20.417-20.417l5.362 5.362c2.486 2.487 6.366 2.913 9.333 1.022 9.169-5.841 19.191-9.995 29.787-12.344 3.434-.761 5.877-3.806 5.877-7.322v-7.581c9.544-1.281 19.332-1.281 28.877 0v7.581c0 3.517 2.443 6.561 5.877 7.322 10.595 2.349 20.617 6.502 29.788 12.344 2.965 1.89 6.847 1.464 9.333-1.022l5.361-5.361c7.712 5.866 14.549 12.703 20.416 20.416l-5.362 5.362c-2.486 2.487-2.911 6.367-1.022 9.334 5.841 9.168 9.994 19.189 12.344 29.787.762 3.433 3.806 5.877 7.322 5.877h7.58c.642 4.774.965 9.608.965 14.438.001 4.828-.322 9.663-.964 14.436z"/><path d="m401.835 380.756c8.058 0 15.633-3.138 21.331-8.836s8.837-13.274 8.837-21.332-3.139-15.634-8.836-21.332c-5.698-5.698-13.274-8.836-21.332-8.836s-15.633 3.138-21.331 8.836-8.837 13.274-8.837 21.332 3.139 15.634 8.836 21.332c5.699 5.698 13.274 8.836 21.332 8.836zm-10.724-40.893c2.864-2.864 6.673-4.442 10.724-4.442s7.86 1.578 10.725 4.442c2.864 2.865 4.442 6.673 4.442 10.725 0 4.051-1.578 7.86-4.442 10.725-.001 0-.001 0-.001 0-2.864 2.865-6.673 4.442-10.724 4.442s-7.86-1.578-10.725-4.442c-2.864-2.865-4.442-6.673-4.442-10.725 0-4.051 1.578-7.86 4.443-10.725z"/><path d="m405.166 399.159c-8.058 0-15.634 3.138-21.332 8.836-5.697 5.697-8.835 13.273-8.835 21.332 0 8.058 3.138 15.634 8.836 21.331 5.697 5.698 13.274 8.836 21.332 8.836s15.633-3.138 21.331-8.836 8.837-13.274 8.837-21.332-3.139-15.634-8.836-21.332c-5.7-5.697-13.275-8.835-21.333-8.835zm10.725 40.892c-2.865 2.865-6.674 4.443-10.725 4.443-4.052 0-7.861-1.578-10.725-4.443-5.914-5.914-5.914-15.535-.001-21.449 2.865-2.865 6.674-4.442 10.726-4.442 4.051 0 7.86 1.578 10.725 4.443 2.864 2.864 4.443 6.673 4.443 10.724s-1.579 7.859-4.443 10.724z"/><path d="m361.668 390.291c-4.1-.609-7.912 2.221-8.52 6.319-.479 3.229-1.958 6.161-4.276 8.48-2.864 2.864-6.673 4.442-10.725 4.442-4.051 0-7.86-1.578-10.724-4.442-2.865-2.865-4.442-6.673-4.442-10.724s1.578-7.861 4.442-10.725 6.673-4.442 10.725-4.442c2.025 0 3.993.393 5.849 1.167 3.824 1.597 8.214-.21 9.811-4.033 1.595-3.823-.211-8.215-4.033-9.81-3.695-1.543-7.608-2.324-11.626-2.324-8.059 0-15.635 3.138-21.332 8.836s-8.835 13.274-8.835 21.332c0 8.057 3.138 15.633 8.835 21.331 5.698 5.698 13.274 8.836 21.332 8.836 8.059 0 15.634-3.138 21.332-8.836 4.61-4.611 7.552-10.45 8.507-16.885.606-4.099-2.222-7.914-6.32-8.522z"/></g></g></svg>