<svg id="Layer_1" enable-background="new 0 0 512 512" height="512" viewBox="0 0 512 512" width="512" xmlns="http://www.w3.org/2000/svg"><g><path d="m228.999 110.334h54.002v263.01h-54.002z" fill="#766d78"/><path d="m229 110.337h35v263.002h-35z" fill="#655e67"/><path d="m388.335 403.682c0 11.39-1.44 22.451-4.15 33.001h-256.37c-2.71-10.55-4.15-21.611-4.15-33.001 0-73.093 59.242-132.345 132.335-132.345s132.335 59.252 132.335 132.345z" fill="#a49ca7"/><path d="m283.193 139.658h-54.281l-14.692-82.257c-4.647-26.015 15.354-49.904 41.78-49.904 26.404 0 46.4 23.853 41.789 49.852z" fill="#544f56"/><path d="m249.22 57.397 14.69 82.261h-35l-14.69-82.261c-4.65-26.01 15.35-49.9 41.78-49.9 6.28 0 12.19 1.35 17.5 3.76-17.04 7.71-27.83 26.31-24.28 46.14z" fill="#444145"/><path d="m158.669 403.679c0 11.39 1.44 22.45 4.15 33h-35c-2.71-10.55-4.15-21.61-4.15-33 0-73.091 59.24-132.341 132.331-132.341 5.93 0 11.77.39 17.5 1.15-64.82 8.56-114.831 64.031-114.831 131.191z" fill="#8e8391"/><path d="m159.712 419.012v-18.331c1.593-51.739 44.174-93.343 96.288-93.343s94.695 41.604 96.288 93.343v18.331z" fill="#655e67"/><path d="m273.5 308.939c-43.83 8.07-77.371 45.93-78.791 91.741v18.33h-35v-18.33c1.6-51.74 44.18-93.341 96.291-93.341 5.97 0 11.82.55 17.5 1.6z" fill="#544f56"/><path d="m472.519 504.5h-433.038c-11.317 0-20.49-9.174-20.49-20.49 0-11.316 9.174-20.49 20.49-20.49h433.037c11.317 0 20.49 9.174 20.49 20.49.001 11.316-9.173 20.49-20.489 20.49z" fill="#544f56"/><path d="m74.479 504.5h-35c-11.31 0-20.49-9.17-20.49-20.49 0-11.321 9.17-20.49 20.49-20.49h35c-5.66 0-10.78 2.29-14.49 6s-6 8.83-6 14.49c0 11.32 9.18 20.49 20.49 20.49z" fill="#444145"/><path d="m437.507 463.514h-363.014c-6.628 0-12-5.373-12-12 0-25.682 20.82-46.502 46.502-46.502h294.011c25.682 0 46.502 20.82 46.502 46.502-.001 6.627-5.373 12-12.001 12z" fill="#766d78"/><path d="m111.109 418.629c-8.41 8.41-13.62 20.04-13.62 32.88 0 6.63 5.38 12 12 12h-35c-6.62 0-12-5.37-12-12 0-12.84 5.21-24.47 13.62-32.88 8.42-8.41 20.05-13.62 32.89-13.62h35c-12.84 0-24.47 5.21-32.89 13.62z" fill="#655e67"/><path d="m472.519 456.019h-16.058c.345-1.449.547-2.953.547-4.506 0-29.777-24.225-54.001-54.001-54.001h-7.318c-2.725-62.479-46.631-114.447-105.187-129.362v-126.836c.026-.116.057-.229.078-.347l14.596-82.309c2.586-14.581-1.388-29.453-10.901-40.803-19.972-23.826-56.624-23.796-76.565.023-9.515 11.364-13.477 26.25-10.871 40.84l14.663 82.093v43.285c0 4.143 3.358 7.5 7.5 7.5s7.5-3.357 7.5-7.5v-36.94h39v118.047c-12.994-1.821-26.002-1.822-39 0v-51.107c0-4.143-3.358-7.5-7.5-7.5s-7.5 3.357-7.5 7.5v54.052c-58.556 14.915-102.462 66.884-105.187 129.362h-7.318c-29.777 0-54.001 24.225-54.001 54.001 0 1.553.202 3.057.547 4.506h-16.062c-15.434 0-27.99 12.557-27.99 27.99 0 15.434 12.557 27.99 27.99 27.99h83.035c4.142 0 7.5-3.357 7.5-7.5s-3.358-7.5-7.5-7.5h-83.035c-7.163 0-12.99-5.827-12.99-12.99s5.828-12.99 12.99-12.99h433.037c7.163 0 12.99 5.827 12.99 12.99s-5.828 12.99-12.99 12.99h-320.002c-4.142 0-7.5 3.357-7.5 7.5s3.358 7.5 7.5 7.5h320.002c15.434 0 27.99-12.557 27.99-27.99.001-15.431-12.556-27.988-27.989-27.988zm-243.311-428.512c13.966-16.679 39.608-16.671 53.569-.017 6.656 7.94 9.436 18.346 7.627 28.548l-13.499 76.119h-41.714l-13.588-76.076c-1.823-10.207.949-20.622 7.605-28.574zm26.792 251.331c66.764 0 121.452 52.69 124.678 118.674h-21.024c-.813-13.86-4.333-27.181-10.482-39.642-1.834-3.715-6.33-5.24-10.045-3.406-3.714 1.833-5.239 6.33-3.406 10.045 5.124 10.383 8.106 21.471 8.897 33.003h-177.22c5.269-75.24 98.477-111.385 152.454-55.529 2.877 2.978 7.625 3.06 10.605.182 2.979-2.879 3.06-7.627.181-10.606-63.377-65.581-173.053-22.932-178.29 65.953h-21.026c3.226-65.984 57.914-118.674 124.678-118.674zm-147.006 133.674h294.012c21.506 0 39.001 17.496 39.001 39.001 0 2.481-2.019 4.501-4.5 4.501h-363.014c-2.481 0-4.5-2.02-4.5-4.501 0-21.505 17.496-39.001 39.001-39.001z"/></g></svg>