<svg id="Layer_1" enable-background="new 0 0 512 512" height="512" viewBox="0 0 512 512" width="512" xmlns="http://www.w3.org/2000/svg"><g><path d="m212.897 7.5c-12.476 0-23.149 7.694-27.55 18.593-7.444-6.488-17.168-10.427-27.818-10.427-17.347 0-32.25 10.43-38.804 25.357-5.394-7.482-14.179-12.357-24.107-12.357-16.407 0-29.708 13.301-29.708 29.708 0 4.345.941 8.468 2.617 12.188-10.96 7.378-18.171 19.898-18.171 34.104 0 22.689 18.393 41.083 41.083 41.083 8.824 0 16.991-2.791 23.687-7.526 5.078 3.068 11.031 4.835 17.396 4.835 18.609 0 33.695-15.086 33.695-33.695 0-3.276-.476-6.439-1.348-9.433 18.538-2.782 33.134-17.577 35.636-36.205 4.025 2.037 8.572 3.191 13.391 3.191 16.407 0 29.708-13.3 29.708-29.708 0-16.407-13.3-29.708-29.707-29.708z" fill="#a49ca7"/><path d="m171.884 327.388h-127.281l15.055-188.181h97.172z" fill="#544f56"/><path d="m99.91 58.37c0 4.35.94 8.47 2.62 12.19-10.96 7.38-18.17 19.9-18.17 34.11 0 16.42 9.64 30.6 23.57 37.17-5.31 2.51-11.24 3.91-17.49 3.91-22.69 0-41.08-18.4-41.08-41.08 0-14.21 7.21-26.73 18.17-34.11-1.68-3.72-2.62-7.84-2.62-12.19 0-16.4 13.3-29.7 29.71-29.7 6.55 0 12.6 2.12 17.5 5.7-7.4 5.4-12.21 14.14-12.21 24z" fill="#8e8391"/><path d="m94.66 139.21-15.06 188.18h-35l15.06-188.18z" fill="#444145"/><path d="m166.884 168.39h-117.281c-2.761 0-5-2.239-5-5v-35.284c0-2.761 2.239-5 5-5h117.281c2.761 0 5 2.239 5 5v35.284c0 2.762-2.238 5-5 5z" fill="#766d78"/><path d="m84.6 168.39h-35c-2.76 0-5-2.24-5-5v-35.28c0-2.76 2.24-5 5-5h35c-2.76 0-5 2.24-5 5v35.28c0 2.76 2.24 5 5 5z" fill="#655e67"/><path d="m380.9 290.76v208.74c0 2.761-2.239 5-5 5h-363.26c-2.761 0-5-2.239-5-5v-208.74l182.297-14.427z" fill="#a49ca7"/><path d="m104.972 360.955h-45.369c-2.761 0-5-2.239-5-5v-23.335c0-2.761 2.239-5 5-5h45.369c2.761 0 5 2.239 5 5v23.335c0 2.762-2.238 5-5 5z" fill="#fff5f4"/><path d="m216.955 360.955h-45.369c-2.761 0-5-2.239-5-5v-23.335c0-2.761 2.239-5 5-5h45.369c2.761 0 5 2.239 5 5v23.335c0 2.762-2.239 5-5 5z" fill="#fff5f4"/><path d="m74.6 360.96h-15c-2.76 0-5-2.24-5-5v-23.34c0-2.76 2.24-5 5-5h15c-2.76 0-5 2.24-5 5v23.34c0 2.76 2.24 5 5 5z" fill="#ebe0da"/><path d="m186.59 360.96h-15c-2.77 0-5-2.24-5-5v-23.34c0-2.76 2.23-5 5-5h15c-2.77 0-5 2.24-5 5v23.34c0 2.76 2.23 5 5 5z" fill="#ebe0da"/><path d="m207.85 277.68-165.21 13.08v213.74h-30c-2.761 0-5-2.239-5-5v-208.74l182.3-14.43z" fill="#8e8391"/><path d="m380.9 209.81v80.95h-373.26v-38.39c0-2.761 2.239-5 5-5h181.63l78.23-46.18c6.67-3.93 15.09.87 15.09 8.61v37.56l78.23-46.17c6.67-3.93 15.08.88 15.08 8.62z" fill="#606060"/><path d="m42.64 247.37v43.39h-35v-38.39c0-2.761 2.239-5 5-5z" fill="#544f56"/><path d="m380.904 455.929v43.571c0 2.761-2.239 5-5 5h-363.268c-2.761 0-5-2.239-5-5v-43.571z" fill="#655e67"/><path d="m72.152 455.929h244.237v48.571h-244.237z" fill="#766d78"/><path d="m256.27 397.67h-62v106.83h65v-103.83-3z" fill="#655e67"/><path d="m42.64 455.93v48.57h-30c-2.784 0-5-2.265-5-5v-43.57z" fill="#544f56"/><path d="m132.27 397.67c-1.66 0-3 1.34-3 3v103.83h65v-106.83z" fill="#544f56"/><circle cx="397.478" cy="348.914" fill="#93dcfc" r="106.961"/><path d="m414.977 454.45c-5.69.94-11.54 1.43-17.5 1.43-59.07 0-106.96-47.89-106.96-106.97 0-59.07 47.89-106.96 106.96-106.96 5.96 0 11.81.49 17.5 1.43-50.75 8.35-89.46 52.42-89.46 105.53 0 53.12 38.71 97.19 89.46 105.54z" fill="#72d1fb"/><path d="m442.637 343.76c-1.76 16.43-12.07 33.91-37.66 50.53-7.359 4.749-8.523 4.23-15-.01-25.16-16.33-35.54-33.49-37.55-49.68-.671-5.292-.483-11.058.8-17.12 1.22-5.8 3.32-11.35 5.95-16.58 2.28-4.55 4.96-8.85 7.81-12.82 8.06-11.23 17.45-19.92 22.99-24.59.99-.83 1.86-1.54 2.57-2.11 2.867-2.293 6.994-2.293 9.86 0 .71.57 1.58 1.28 2.57 2.11 5.51 4.65 14.85 13.28 22.88 24.43 2.85 3.97 5.54 8.26 7.84 12.8 2.54 5.03 4.6 10.37 5.86 15.94 1.37 6.064 1.654 11.779 1.08 17.1z" fill="#5ca33b"/><g><path d="m106.871 320.121h-49.369c-5.79 0-10.5 4.71-10.5 10.5v27.334c0 5.79 4.71 10.5 10.5 10.5h49.369c5.79 0 10.5-4.71 10.5-10.5v-27.334c0-5.79-4.71-10.5-10.5-10.5zm-4.5 33.334h-40.369v-18.334h40.369z"/><path d="m169.484 368.455h49.369c5.79 0 10.5-4.71 10.5-10.5v-27.334c0-5.79-4.71-10.5-10.5-10.5h-49.369c-5.79 0-10.5 4.71-10.5 10.5v27.334c0 5.79 4.711 10.5 10.5 10.5zm4.5-33.334h40.369v18.334h-40.369z"/><path d="m503.023 304.796c-1.598-3.822-5.989-5.621-9.813-4.027-3.821 1.598-5.625 5.991-4.027 9.813 27.348 65.419-21.021 137.794-91.807 137.794-54.844 0-99.462-44.618-99.462-99.461s44.618-99.461 99.462-99.461c30.313 0 58.597 13.573 77.6 37.238 2.594 3.231 7.316 3.747 10.543 1.152 3.23-2.593 3.746-7.313 1.152-10.543-24.375-30.357-61.203-45.419-98.376-42.488v-25.003c0-13.543-14.704-21.965-26.393-15.078l-66.918 39.497v-24.429c0-13.537-14.706-21.959-26.402-15.068l-76.444 45.125c-1.38-.014-3.335.002-5.944-.017l-13.893-.044-5.112-63.905h1.594c5.79 0 10.5-4.71 10.5-10.5v-39.284c0-4.646-3.036-8.59-7.225-9.97.577-3.493.708-7.032.384-10.544 15.257-4.836 27.382-16.875 32.371-32.046 23.243 5.123 45.192-12.684 45.192-36.337 0-20.518-16.692-37.21-37.21-37.21-12.071 0-23.073 5.725-29.967 15.125-7.638-4.525-16.404-6.955-25.402-6.955-16.185 0-31.126 7.837-40.383 20.611-6.412-4.87-14.319-7.611-22.527-7.611-20.518 0-37.21 16.688-37.21 37.2 0 3.261.417 6.456 1.242 9.555-14.071 12.174-19.739 31.038-15.326 48.604-3.66 1.642-6.219 5.314-6.219 9.578v39.284c0 5.79 4.71 10.5 10.5 10.5h1.599l-1.586 19.812c-.331 4.129 2.749 7.744 6.877 8.075.204.016.406.023.607.023 3.871 0 7.153-2.977 7.468-6.901l1.682-21.009h87.992l5.109 63.864c-23.705-.059-75.435-.165-98.2-.167l1.023-12.784c.331-4.129-2.749-7.744-6.877-8.075-4.13-.317-7.744 2.75-8.075 6.878l-1.12 13.989c-7.854.01-25.865.027-33.655.155-5.686.105-10.311 4.815-10.311 10.499v251.25c0 5.79 4.71 10.5 10.5 10.5h367.27c2.849 0 5.596-1.214 7.439-3.101 1.835-1.819 3.061-4.57 3.061-7.399v-38.484c85.576 6.742 147.555-79.662 114.717-158.22zm-451.021-143.905v-30.284h112.281v30.284zm19.613-84.111c3.033-2.043 4.151-5.976 2.646-9.308-1.297-2.873-1.955-5.935-1.955-9.103 0-12.241 9.963-22.2 22.21-22.2 7.112 0 13.852 3.454 18.029 9.24 3.39 4.693 10.618 3.932 12.948-1.376 5.565-12.675 18.099-20.864 31.933-20.864 8.424 0 16.553 3.044 22.89 8.571 3.89 3.396 9.961 1.923 11.885-2.844 3.407-8.441 11.491-13.896 20.594-13.896 12.247 0 22.21 9.963 22.21 22.21 0 16.527-17.518 27.275-32.206 19.821-4.615-2.339-10.143.588-10.827 5.691-2.048 15.259-14.104 27.509-29.319 29.79-4.49.672-7.357 5.157-6.089 9.513 1.293 4.443 1.395 9.099.297 13.581h-98.278c-4.877-14.127.169-30.163 13.032-38.826zm120.727 178.08c2.018.017 3.62.16 5.642-1.035l78.219-46.173c1.672-.985 3.782.198 3.782 2.147v37.561c0 5.799 6.326 9.411 11.318 6.455 0 0 65.111-38.426 78.22-46.163 1.676-.989 3.772.212 3.772 2.157v27.201c-28.633 6.156-53.321 23.05-69.625 46.25h-165.074c-4.142 0-7.5 3.357-7.5 7.5s3.358 7.5 7.5 7.5h156.159c-7.573 15.28-11.839 32.477-11.839 50.654 0 42.581 23.375 79.802 57.964 99.516-14.668 0-59.755 0-74.21 0 0-10.937 0-40.634 0-50.763 0-4.143-3.357-7.5-7.5-7.5-5.81 0-121.201 0-127 0-5.79 0-10.5 4.71-10.5 10.5v47.763c-11.16 0-96.178 0-106.633 0v-150.17h93.56c4.142 0 7.5-3.357 7.5-7.5s-3.358-7.5-7.5-7.5h-93.56v-28.56c14.241-.29 173.541.099 177.305.16zm-177.306 208.57h49.51v33.57h-49.51zm64.509 0h42.124v33.57h-42.124zm57.124-58.263h50v91.833h-50zm65 91.833v-91.833h50v50.705c0 .02-.003.038-.003.058s.003.038.003.058v41.012zm65 0v-33.57h42.116v33.57zm57.116 0v-33.57h49.511v33.57z"/><path d="m376.183 408.664h-18.567c-4.143 0-7.5 3.357-7.5 7.5s3.357 7.5 7.5 7.5h18.567c12.729 0 23.544-8.335 27.287-19.833 2.97-1.291 46.842-25.157 46.842-65.316 0-35.674-33.167-64.893-43.333-72.999-5.593-4.457-13.591-4.473-19.205.001-10.165 8.105-43.332 37.324-43.332 72.998 0 23.982 14.643 45.313 43.506 63.426-2.389 4.017-6.762 6.723-11.765 6.723zm-10.375-94.394 24.068 13.949v21.746l-29.766-18.989c.991-5.807 3.034-11.425 5.698-16.706zm68.835 16.706-29.767 18.99v-21.746l24.069-13.949c2.664 5.28 4.707 10.898 5.698 16.705zm-29.767 54.261v-17.481c.011-.007.024-.012.035-.019l28.972-18.483c-3.449 12.823-13.161 24.873-29.007 35.983zm16.153-83.716-16.153 9.361v-27.346c4.708 4.388 10.716 10.59 16.153 17.985zm-31.153-17.985v27.345l-16.152-9.361c5.437-7.394 11.444-13.595 16.152-17.984zm-29.006 65.719 28.972 18.482c.011.007.023.011.034.018v17.477c-15.846-11.108-25.556-23.156-29.006-35.977z"/></g></g></svg>