<svg id="Layer_1" enable-background="new 0 0 512 512" height="512" viewBox="0 0 512 512" width="512" xmlns="http://www.w3.org/2000/svg"><g><path d="m292.465 504.392h-72.931l11.073-224.394h51z" fill="#72d1fb"/><path d="m265.61 280-11.08 224.39h-35l11.08-224.39z" fill="#40c1fa"/><path d="m457.827 313.487h-403.655c-3.143 0-5.506-2.865-4.909-5.95l57.278-295.987c.455-2.352 2.514-4.05 4.909-4.05h288.742c2.393 0 4.45 1.696 4.908 4.044l57.635 295.987c.601 3.087-1.763 5.956-4.908 5.956z" fill="#72d1fb"/><path d="m146.45 7.5c-2.4 0-4.45 1.7-4.91 4.05l-57.28 295.99c-.59 3.08 1.77 5.95 4.91 5.95h-35c-3.14 0-5.5-2.87-4.91-5.95l57.28-295.99c.46-2.35 2.51-4.05 4.91-4.05h35z" fill="#40c1fa"/><path d="m362.917 504.5h-213.835c-5.569 0-10.083-4.514-10.083-10.083 0-15.51 12.573-28.083 28.084-28.083h177.835c15.51 0 28.084 12.573 28.084 28.083-.001 5.569-4.516 10.083-10.085 10.083z" fill="#07a9f0"/><path d="m184.08 504.5h-35c-5.57 0-10.08-4.51-10.08-10.08 0-15.55 12.604-28.09 28.08-28.09h35c-15.478 0-28.08 12.542-28.08 28.09 0 5.57 4.51 10.08 10.08 10.08z" fill="#0691ce"/><path d="m470.096 306.098-57.634-295.987c-1.141-5.859-6.301-10.111-12.27-10.111h-92.59c-4.143 0-7.5 3.357-7.5 7.5s3.357 7.5 7.5 7.5h14.619l6.553 56.659h-65.274v-56.659h14.103c4.143 0 7.5-3.357 7.5-7.5s-3.357-7.5-7.5-7.5h-166.153c-5.976 0-11.137 4.258-12.272 10.125l-57.278 295.988c-1.503 7.758 4.477 14.874 12.272 14.874h166.908l-3.559 72.035c-.204 4.137 2.984 7.656 7.121 7.861.126.006.251.009.376.009 3.973 0 7.287-3.119 7.485-7.13l3.595-72.775h39.986l6.674 137.846h-53.468l1.734-35.106c.204-4.137-2.984-7.656-7.121-7.861-4.146-.192-7.657 2.983-7.861 7.121l-1.771 35.847h-47.188c-19.621 0-35.584 15.963-35.584 35.584 0 9.695 7.888 17.583 17.583 17.583h213.836c9.695 0 17.583-7.888 17.583-17.583-.001-19.381-15.765-35.342-35.139-35.581-.032-.001-.063-.001-.095-.001-4.099 0-7.446 3.297-7.497 7.407-.052 4.142 3.265 7.541 7.406 7.592 11.206.139 20.323 9.372 20.324 20.583 0 1.424-1.159 2.583-2.583 2.583h-213.835c-1.424 0-2.583-1.159-2.583-2.583 0-11.35 9.234-20.584 20.584-20.584h148.187c4.143 0 7.5-3.357 7.5-7.5s-3.357-7.5-7.5-7.5h-17.495l-6.674-137.846h166.725c7.831-.001 13.784-7.16 12.27-14.89zm-114.191-.111h-92.556c.218-1.076.151 3.042.151-56.66h85.822c.063.551 6.473 56.119 6.583 56.66zm-199.81 0c.11-.545 6.519-56.108 6.583-56.66h85.822c0 59.724-.068 55.584.151 56.66zm-72.189-137.994h73.078l-7.672 66.334h-78.242zm15.743-81.352c.119.006.237.018.358.018h66.385l-7.672 66.334h-71.91zm81.842.018h67.009v66.334h-74.681zm-9.407 81.334h76.416v66.334h-84.087zm91.416 66.334v-66.334h76.416l7.671 66.334zm91.515-66.334h72.908l12.917 66.334h-78.154zm57.069-81.338 12.918 66.339h-71.722l-7.672-66.334h66.385c.031-.001.06-.005.091-.005zm-74.763-71.655h60.811l11.033 56.659h-65.291zm-6.812 71.659 7.672 66.334h-74.681v-66.334zm-82.009-15h-65.274l6.552-56.659h58.722zm-134.988-56.659h61.166l-6.553 56.659h-65.578zm-45.345 234.327h79.411c-6.797 58.773-6.519 54.972-6.175 56.66h-84.2zm302.429 56.66c.344-1.688.646 2.325-6.175-56.66h79.339l11.033 56.66z"/></g></svg>