<svg id="Layer_1" enable-background="new 0 0 512 512" height="512" viewBox="0 0 512 512" width="512" xmlns="http://www.w3.org/2000/svg"><g><path d="m177.512 56.255-41.793 12.762-34.992-12.762v-31.005c0-4.945 4.009-8.955 8.955-8.955h58.876c4.945 0 8.955 4.009 8.955 8.955v31.005z" fill="#fed22b"/><path d="m411.227 56.255-37.76 11.762-39.026-11.762v-31.005c0-4.945 4.009-8.955 8.955-8.955h58.876c4.945 0 8.955 4.009 8.955 8.955z" fill="#fed22b"/><path d="m144.678 16.292c-4.95 0-8.959 4.01-8.959 8.959v31.007h-34.997v-31.007c0-4.949 4.01-8.959 8.959-8.959z" fill="#fdc202"/><path d="m378.396 16.292c-4.95 0-8.959 4.01-8.959 8.959v31.007h-34.997v-31.007c0-4.949 4.01-8.959 8.959-8.959z" fill="#fdc202"/><path d="m478.497 319.404v41.966c0 9.889-8.019 17.908-17.908 17.908h-409.223c-9.889 0-17.908-8.019-17.908-17.908v-41.966l197.522-36.407z" fill="#fed22b"/><path d="m86.363 379.279h-34.997c-9.889 0-17.908-8.019-17.908-17.908v-41.966h34.997v41.966c0 9.888 8.019 17.908 17.908 17.908z" fill="#fdc202"/><path d="m478.497 74.177v245.228h-445.039v-245.228c0-9.889 8.019-17.908 17.908-17.908h409.223c9.889-.001 17.908 8.019 17.908 17.908z" fill="#8e8391"/><path d="m86.363 56.268c-9.889 0-17.908 8.019-17.908 17.908v245.228h-34.997v-245.227c0-9.889 8.019-17.908 17.908-17.908h34.997z" fill="#766d78"/><path d="m495.499 122.122h-479.045c-4.945 0-8.955-4.009-8.955-8.955v-47.903c0-4.945 4.009-8.955 8.955-8.955h479.045c4.945 0 8.955 4.009 8.955 8.955v47.904c0 4.945-4.009 8.954-8.955 8.954z" fill="#544f56"/><circle cx="397.505" cy="388.753" fill="#544f56" r="106.951"/><path d="m51.446 122.122h-34.997c-4.94 0-8.949-4.01-8.949-8.959v-47.896c0-4.95 4.01-8.959 8.949-8.959h34.997c-4.94 0-8.949 4.01-8.949 8.959v47.896c0 4.95 4.01 8.959 8.949 8.959z" fill="#444145"/><path d="m86.363 379.279h-34.997c-9.889 0-17.908-8.019-17.908-17.908v-41.966h34.997v41.966c0 9.888 8.019 17.908 17.908 17.908z" fill="#fdc202"/><path d="m415.003 494.278c-5.689.94-11.539 1.43-17.498 1.43-59.065 0-106.95-47.886-106.95-106.95 0-59.075 47.886-106.96 106.95-106.96 5.959 0 11.809.49 17.498 1.43-50.745 8.349-89.452 52.415-89.452 105.53 0 53.105 38.707 97.171 89.452 105.52z" fill="#444145"/><g><path d="m180.648 211.323h-28.496v-28.495c0-4.142-3.358-7.499-7.499-7.499s-7.499 3.357-7.499 7.499v28.495h-28.495c-4.142 0-7.499 3.357-7.499 7.499s3.358 7.499 7.499 7.499h28.495v28.495c0 4.142 3.358 7.499 7.499 7.499s7.499-3.357 7.499-7.499v-28.495h28.496c4.142 0 7.499-3.357 7.499-7.499s-3.357-7.499-7.499-7.499z"/><path d="m410.794 218.823c0-4.142-3.358-7.499-7.499-7.499h-71.99c-4.142 0-7.499 3.357-7.499 7.499s3.358 7.499 7.499 7.499h71.99c4.141 0 7.499-3.357 7.499-7.499z"/><path d="m485.997 316.254v-186.632h9.503c9.073 0 16.454-7.381 16.454-16.455v-47.902c0-9.073-7.381-16.455-16.454-16.455-18.998 0-34.272-.041-76.773-.041v-23.519c0-9.072-7.381-16.454-16.454-16.454h-58.876c-9.073 0-16.454 7.381-16.454 16.454v23.519h-141.93v-23.519c0-9.072-7.381-16.454-16.454-16.454h-58.876c-9.072 0-16.454 7.381-16.454 16.454v23.519c-49.129 0-35.685.041-76.773.041-9.075 0-16.456 7.381-16.456 16.455v47.903c0 9.073 7.381 16.455 16.454 16.455h9.505v231.747c0 14.009 11.398 25.408 25.408 25.408h142.573c4.142 0 7.499-3.357 7.499-7.499s-3.358-7.499-7.499-7.499h-142.574c-5.74 0-10.409-4.669-10.409-10.409v-34.467h260.277c-8.663 13.489-14.478 28.764-16.898 44.876h-60.399c-4.142 0-7.499 3.357-7.499 7.499s3.358 7.499 7.499 7.499h59.15c-1.106 64.173 50.805 116.426 114.417 116.426 96.611 0 149.377-112.772 88.493-186.95zm-144.057-291.004c0-.803.653-1.455 1.455-1.455h58.876c.802 0 1.455.652 1.455 1.455v23.507h-61.786zm-233.714 0c0-.803.653-1.455 1.455-1.455h58.876c.803 0 1.455.652 1.455 1.455v23.507h-61.787v-23.507zm289.279 462.955c-54.838 0-99.452-44.614-99.452-99.452 0-36.08 19.606-69.403 51.167-86.966 3.619-2.014 4.92-6.58 2.906-10.199s-6.579-4.92-10.2-2.907c-11.112 6.183-20.928 14.072-29.212 23.223h-271.757v-182.282h34.58c4.142 0 7.499-3.357 7.499-7.499s-3.358-7.499-7.499-7.499h-59.083c-.803 0-1.455-.653-1.455-1.456v-47.903c0-.803.653-1.456 1.455-1.456h479.045c.803 0 1.455.653 1.455 1.456v47.903c0 .803-.653 1.456-1.455 1.456h-389.964c-4.142 0-7.499 3.357-7.499 7.499s3.358 7.499 7.499 7.499h365.463v171.47c-27.651-23.22-64.274-31.909-99.202-23.887-4.037.927-6.558 4.95-5.631 8.986.927 4.037 4.951 6.558 8.987 5.631 62.203-14.281 121.804 33.027 121.804 96.932 0 54.837-44.614 99.451-99.451 99.451z"/><path d="m420.003 383.254h-31.441l29.795-47.511c2.2-3.508 1.14-8.137-2.369-10.337-3.51-2.203-8.137-1.141-10.338 2.369l-36.997 58.995c-3.126 4.985.464 11.483 6.353 11.483h31.957l-25.44 43.725c-2.911 5.003.724 11.271 6.475 11.271 2.583 0 5.096-1.336 6.489-3.729l31.997-54.995c1.35-2.319 1.357-5.183.019-7.51-1.337-2.327-3.817-3.761-6.5-3.761z"/></g></g></svg>