<svg id="Layer_1" enable-background="new 0 0 512 512" height="512" viewBox="0 0 512 512" width="512" xmlns="http://www.w3.org/2000/svg"><g><path d="m477.465 299.548h-184.109l-37.023-124.548 37.023-128h184.109c11.046 0 20 8.954 20 20v212.548c0 11.046-8.954 20-20 20z" fill="#766d78"/><path d="m293.37 27.5v457c0 11.05-8.96 20-20 20h-238.84c-11.04 0-20-8.95-20-20v-457c0-11.05 8.96-20 20-20h238.84c11.04 0 20 8.95 20 20z" fill="#544f56"/><path d="m69.53 504.5h-35c-11.04 0-20-8.95-20-20v-457c0-11.05 8.96-20 20-20h35c-11.04 0-20 8.95-20 20v457c0 11.05 8.96 20 20 20z" fill="#444145"/><path d="m328.356 254.549v-162.549c0-5.523 4.477-10 10-10h114.109c5.523 0 10 4.477 10 10v162.549c0 5.523-4.477 10-10 10h-114.109c-5.523 0-10-4.477-10-10z" fill="#e5646e"/><path d="m123.66 306.34c-1.38 1.99-2.95 3.88-4.72 5.65-1.85 1.86-3.84 3.5-5.93 4.92-15.96 10.88-37.89 9.24-52.05-4.92-16.01-16.01-16.01-41.97 0-57.98s41.97-16.01 57.98 0c14.24 14.24 15.81 36.35 4.72 52.33z" fill="#93dcfc"/><path d="m246.94 311.99c-16.01 16.01-41.97 16.01-57.98 0s-16.01-41.97 0-57.98c14.16-14.16 36.11-15.8 52.07-4.91 2.08 1.43 4.06 3.06 5.91 4.91 1.77 1.77 3.35 3.67 4.73 5.66 11.08 15.97 9.51 38.08-4.73 52.32z" fill="#93dcfc"/><path d="m293.37 368.54v115.96c0 11.05-8.96 20-20 20h-238.84c-11.04 0-20-8.95-20-20v-115.96z" fill="#8e8391"/><path d="m235.95 455h-164c-9.113 0-16.5-7.387-16.5-16.5 0-9.113 7.387-16.5 16.5-16.5h164c9.113 0 16.5 7.387 16.5 16.5 0 9.113-7.387 16.5-16.5 16.5z" fill="#f0a70a"/><path d="m373.36 264.55h-35c-5.53 0-10-4.48-10-10v-162.55c0-5.52 4.47-10 10-10h35c-5.53 0-10 4.48-10 10v162.55c0 5.52 4.47 10 10 10z" fill="#e04955"/><path d="m248.95 140h-190c-5.523 0-10-4.477-10-10v-71c0-5.523 4.477-10 10-10h190c5.523 0 10 4.477 10 10v71c0 5.523-4.477 10-10 10z" fill="#93dcfc"/><path d="m69.53 504.5h-35c-11.04 0-20-8.95-20-20v-115.96h35v115.96c0 11.05 8.96 20 20 20z" fill="#766d78"/><g fill="#72d1fb"><path d="m95.96 311.99c3.44 3.44 7.33 6.14 11.49 8.1-15.21 7.18-33.91 4.48-46.49-8.1-16.01-16.01-16.01-41.97 0-57.98 12.57-12.57 31.28-15.27 46.49-8.1-4.16 1.96-8.06 4.66-11.49 8.1-16.01 16.01-16.01 41.97 0 57.98z"/><path d="m223.96 311.99c3.43 3.44 7.33 6.14 11.49 8.1-15.21 7.17-33.92 4.47-46.49-8.1-16.01-16.01-16.01-41.97 0-57.98 12.57-12.57 31.28-15.27 46.49-8.09-4.16 1.95-8.05 4.65-11.49 8.09-16.01 16.01-16.01 41.97 0 57.98z"/><path d="m93.95 140h-35c-5.52 0-10-4.48-10-10v-71c0-5.52 4.48-10 10-10h35c-5.52 0-10 4.48-10 10v71c0 5.52 4.48 10 10 10z"/></g><g><path d="m266.45 59c0-9.649-7.851-17.5-17.5-17.5h-190c-9.649 0-17.5 7.851-17.5 17.5v71c0 9.649 7.851 17.5 17.5 17.5h190c9.649 0 17.5-7.851 17.5-17.5zm-15 71c0 1.379-1.122 2.5-2.5 2.5h-190c-1.378 0-2.5-1.121-2.5-2.5v-71c0-1.379 1.122-2.5 2.5-2.5h190c1.378 0 2.5 1.121 2.5 2.5z"/><path d="m90.283 72.5c-4.142 0-7.5 3.357-7.5 7.5v29c0 4.143 3.358 7.5 7.5 7.5s7.5-3.357 7.5-7.5v-29c0-4.143-3.358-7.5-7.5-7.5z"/><path d="m132.727 72.5c-4.142 0-7.5 3.357-7.5 7.5v29c0 4.143 3.358 7.5 7.5 7.5s7.5-3.357 7.5-7.5v-29c0-4.143-3.358-7.5-7.5-7.5z"/><path d="m175.172 72.5c-4.142 0-7.5 3.357-7.5 7.5v29c0 4.143 3.358 7.5 7.5 7.5s7.5-3.357 7.5-7.5v-29c0-4.143-3.358-7.5-7.5-7.5z"/><path d="m217.616 72.5c-4.142 0-7.5 3.357-7.5 7.5v29c0 4.143 3.358 7.5 7.5 7.5s7.5-3.357 7.5-7.5v-29c0-4.143-3.357-7.5-7.5-7.5z"/><path d="m477.466 39.5h-176.601v-12c0-15.164-12.337-27.5-27.5-27.5h-238.831c-15.164 0-27.5 12.336-27.5 27.5v97.259c0 4.143 3.358 7.5 7.5 7.5s7.5-3.357 7.5-7.5v-97.259c0-6.893 5.607-12.5 12.5-12.5h238.831c6.893 0 12.5 5.607 12.5 12.5v333.593c-.272-.03-.547-.048-.826-.048h-263.005v-206.286c0-4.143-3.358-7.5-7.5-7.5s-7.5 3.357-7.5 7.5v329.741c0 15.164 12.336 27.5 27.5 27.5h238.831c15.163 0 27.5-12.336 27.5-27.5v-38.5h85.168c9.649 0 17.5-7.851 17.5-17.5v-121.451h73.933c15.163 0 27.5-12.337 27.5-27.5v-212.549c0-15.163-12.337-27.5-27.5-27.5zm-204.101 457.5h-238.831c-6.893 0-12.5-5.607-12.5-12.5v-108.455h263.004c.28 0 .555-.018.826-.048v108.503c.001 6.893-5.606 12.5-12.499 12.5zm115.168-68.5c0 1.379-1.121 2.5-2.5 2.5h-85.168v-123.951h87.668zm101.433-148.951c0 6.893-5.607 12.5-12.5 12.5h-176.601c0-37.706 0-209.239 0-237.549h176.601c6.893 0 12.5 5.607 12.5 12.5z"/><path d="m452.466 74.5h-114.11c-9.649 0-17.5 7.851-17.5 17.5v162.549c0 9.649 7.851 17.5 17.5 17.5h70.459c4.143 0 7.5-3.357 7.5-7.5s-3.357-7.5-7.5-7.5h-70.459c-1.379 0-2.5-1.121-2.5-2.5v-162.549c0-1.379 1.121-2.5 2.5-2.5h114.109c1.379 0 2.5 1.121 2.5 2.5v162.549c0 1.379-1.121 2.5-2.5 2.5h-13.65c-4.143 0-7.5 3.357-7.5 7.5s3.357 7.5 7.5 7.5h13.65c9.649 0 17.5-7.851 17.5-17.5v-162.549c.001-9.649-7.85-17.5-17.499-17.5z"/><path d="m355.411 195c0 4.143 3.357 7.5 7.5 7.5h65c4.143 0 7.5-3.357 7.5-7.5s-3.357-7.5-7.5-7.5h-65c-4.143 0-7.5 3.357-7.5 7.5z"/><path d="m362.911 237.5h65c4.143 0 7.5-3.357 7.5-7.5s-3.357-7.5-7.5-7.5h-65c-4.143 0-7.5 3.357-7.5 7.5s3.357 7.5 7.5 7.5z"/><path d="m395.411 146.5c4.143 0 7.5-3.357 7.5-7.5v-29c0-4.143-3.357-7.5-7.5-7.5s-7.5 3.357-7.5 7.5v29c0 4.143 3.357 7.5 7.5 7.5z"/><path d="m387.911 169.5c0 4.143 3.357 7.5 7.5 7.5s7.5-3.357 7.5-7.5v-.5c0-4.143-3.357-7.5-7.5-7.5s-7.5 3.357-7.5 7.5z"/><path d="m55.655 248.705c-30.494 30.495-8.707 82.772 34.295 82.772 42.995 0 64.806-52.26 34.294-82.772-18.91-18.91-49.679-18.909-68.589 0zm57.983 10.607c11.238 11.239 12.797 28.536 4.697 41.467l-23.082-23.082c-2.928-2.927-7.677-2.929-10.606 0-2.929 2.93-2.929 7.678 0 10.607l23.088 23.088c-5.28 3.322-11.394 5.108-17.785 5.108-29.621 0-44.804-36.071-23.688-57.188 13.09-13.091 34.281-13.095 47.376 0z"/><path d="m217.95 331.478c42.995 0 64.806-52.26 34.294-82.772-18.91-18.91-49.679-18.909-68.589 0-18.91 18.91-18.91 49.68 0 68.59 9.455 9.454 21.875 14.182 34.295 14.182zm0-81.978c6.391 0 12.504 1.786 17.785 5.108l-23.088 23.088c-2.929 2.93-2.929 7.678 0 10.607 2.93 2.929 7.678 2.928 10.606 0l23.088-23.089c14.02 22.286-2.174 51.285-28.392 51.285-8.948 0-17.361-3.484-23.688-9.812-21.095-21.096-5.954-57.187 23.689-57.187z"/><path d="m209.448 194.554c0-4.143-3.358-7.5-7.5-7.5h-95.995c-4.142 0-7.5 3.357-7.5 7.5s3.358 7.5 7.5 7.5h95.995c4.142 0 7.5-3.358 7.5-7.5z"/><path d="m235.95 414.5h-29.857c-4.142 0-7.5 3.357-7.5 7.5s3.358 7.5 7.5 7.5h29.857c4.962 0 9 4.037 9 9s-4.038 9-9 9h-164c-4.962 0-9-4.037-9-9s4.038-9 9-9h104.143c4.142 0 7.5-3.357 7.5-7.5s-3.358-7.5-7.5-7.5h-104.143c-13.233 0-24 10.767-24 24s10.767 24 24 24h164c13.233 0 24-10.767 24-24s-10.767-24-24-24z"/></g></g></svg>