<svg id="Layer_1" enable-background="new 0 0 512 512" height="512" viewBox="0 0 512 512" width="512" xmlns="http://www.w3.org/2000/svg"><g><g><path d="m33.768 452.074c-.956-.2-1.906-.493-2.84-.885-7.851-3.301-11.541-12.342-8.24-20.193l145.772-342.804c6.651-15.821 21.399-26.606 38.491-28.148l156.611-14.136c8.483-.766 15.98 5.49 16.745 13.972.766 8.482-5.489 15.98-13.972 16.745l-156.613 14.137c-5.697.515-10.613 4.11-12.829 9.382l-145.771 342.804c-2.908 6.918-10.273 10.605-17.354 9.126z" fill="#8e8391"/></g><g><path d="m380.371 61.165c-1.83-.56-3.79-.77-5.81-.59l-156.606 14.14c-17.1 1.54-31.849 12.32-38.499 28.139l-145.766 342.811c-.84 1.99-1.22 4.05-1.21 6.08-.52-.15-1.04-.34-1.55-.56-7.85-3.3-11.54-12.34-8.24-20.189l145.766-342.802c6.65-15.82 21.399-26.609 38.499-28.149l156.606-14.14c8.48-.76 15.98 5.49 16.75 13.98.04.43.06.85.06 1.28z" fill="#766d78"/></g><path d="m185.164 215.838-26.418-5.836-48.999 100.747 63.327-20.289c1.803-.564 3.151-2.071 3.511-3.925l12.574-64.684c.537-2.76-1.243-5.439-3.995-6.013z" fill="#fdc202"/><path d="m185.536 215.931-40.639 83.558-35.149 11.26 48.999-100.747 26.419 5.84c.13.029.25.059.37.089z" fill="#f0a70a"/><path d="m291.176 95.373-4.913-54.429c-.279-3.086 2.216-5.715 5.312-5.599l95.572 3.577c2.585.097 4.695 2.099 4.927 4.675l2.762 30.595c.233 2.584-1.495 4.936-4.03 5.486l-93.421 20.256c-3.02.656-5.932-1.483-6.209-4.561z" fill="#655e67"/><path d="m182.662 173.785-90.506 215.301c-1.907 4.537-6.762 7.086-11.579 6.08l-41.015-8.566c-6.329-1.322-9.882-8.088-7.376-14.048l90.515-215.299c1.907-4.537 6.762-7.085 11.579-6.079l41.006 8.564c6.329 1.321 9.881 8.087 7.376 14.047z" fill="#655e67"/><path d="m437.993 97.769c-22.039-4.603-36.164-26.196-31.563-48.227s26.189-36.166 48.227-31.563c3.393.709 10.392 3.508 16.511 6.703 3.035 1.584 2.509 6.087-.798 6.975-12.378 3.323-18.001 8.72-18.001 8.72 25.509 3.688 41.892 14.368 50.83 22.195 2.802 2.454.686 7.043-3.007 6.556-23.636-3.118-46.421 3.925-46.421 3.925s3.522 7.122 11.094 14.987c1.926 2 1.07 5.331-1.569 6.194-9.627 3.144-18.765 4.901-25.303 3.535z" fill="#e04955"/><path d="m458.549 95.674c-7.85 2.2-15.11 3.23-20.56 2.1-22.039-4.61-36.159-26.199-31.559-48.229 4.6-22.029 26.189-36.169 48.229-31.569 1.28.27 3.09.84 5.18 1.62-12.78 4.67-22.929 15.65-25.909 29.949-4.101 19.62 6.649 38.879 24.619 46.129z" fill="#da2f3c"/><path d="m326.022 93.724-28.639 6.21c-3.02.66-5.93-1.48-6.21-4.56l-4.91-54.429c-.28-3.09 2.22-5.72 5.31-5.6l31.529 1.18c-1.25 1.03-2 2.65-1.84 4.42z" fill="#544f56"/><path d="m155.837 155.673c-.99.98-1.8 2.17-2.37 3.52l-97.088 230.913-16.819-3.51c-6.33-1.32-9.88-8.08-7.37-14.05l90.508-215.294c1.91-4.54 6.77-7.09 11.58-6.08z" fill="#544f56"/><path d="m508.141 56.928c-7.114-6.23-18.056-13.722-33.477-18.946 7.921-4.154 8.099-15.713-.025-19.951-6.661-3.478-14.248-6.519-18.448-7.396-25.117-5.241-49.824 10.159-56.435 34.619l-.211-2.333c-.57-6.316-5.779-11.258-12.117-11.496l-95.526-3.575c-.179-.008-.352-.01-.524-.01-7.428 0-13.259 6.405-12.584 13.775l.395 4.373-72.906 6.585c-19.867 1.789-37.01 14.324-44.728 32.685l-24.971 58.733c-1-.209-2.388-.538-4.409-.538-7.174 0-13.606 4.275-16.387 10.891l-19.892 47.313c-1.605 3.819.188 8.216 4.008 9.821 3.814 1.601 8.215-.189 9.82-4.007l19.892-47.315c.509-1.209 1.796-1.923 3.133-1.644 15.831 3.306 26.188 5.469 41.006 8.563 1.69.353 2.68 2.168 1.995 3.801l-90.506 215.303c-.51 1.21-1.843 1.912-3.133 1.643-17.756-3.708-34.554-7.216-41.016-8.566-1.455-.304-2.217-1.6-2.217-2.724 0-.847-3.194 7.052 59.22-141.407 1.605-3.818-.189-8.215-4.008-9.82-3.816-1.606-8.215.188-9.82 4.008l-58.996 140.328c-3.289 7.815-.591 16.672 6.236 21.459l-15.733 36.987c-1.191 2.834-1.796 5.82-1.796 8.874 0 6.434 2.669 12.4 7.144 16.64l-20.234 37.743c-1.957 3.651-.584 8.197 3.066 10.154 3.644 1.953 8.194.589 10.154-3.066l20.713-38.636c.69.063 1.383.1 2.076.1 9.252 0 17.547-5.514 21.122-14.018l18.652-43.867c2.454.512 3.808.872 6.01.872 7.175 0 13.607-4.275 16.387-10.891l34.135-81.202 42.107-13.173c4.44-1.388 7.749-5.086 8.636-9.652l12.573-64.681c1.337-6.868-3.184-13.402-9.823-14.789l-9.645-2.014 12.523-29.79c.926-2.202 1.395-4.519 1.395-6.888 0-6.483-3.575-12.322-8.991-15.429l21.833-51.33c1.135-2.705 3.657-4.549 6.589-4.81l72.909-6.585.397 4.399v.004c.694 7.638 7.838 12.826 15.267 11.214l93.42-20.256c4.956-1.075 8.736-5.057 9.709-9.897 8.089 18.525 26.238 28.627 40.888 28.627 6.2 0 13.676-1.45 22.634-4.376 7.904-2.581 10.401-12.546 4.642-18.525-1.645-1.708-3.077-3.38-4.301-4.926 8.299-1.538 20.732-3 33.243-1.349 11.044 1.448 17.288-12.318 8.93-19.636zm-463.934 383.109c-3.358 7.988-15.225 5.492-15.225-3.076 0-2.241-.75.167 16.921-41.377l15.801 3.3zm137.148-217.337-11.862 61.018-28.68 8.972 30.319-72.125zm27.704-139.408c-8.477.758-15.788 6.102-19.063 13.914l-22.633 53.212-15.808-3.301 23.816-56.018c5.573-13.258 17.934-22.296 32.26-23.586l72.906-6.585 1.424 15.78zm89.347 8.745-3.601-39.902c-.001-.009 0-.018-.001-.027s-.003-.018-.004-.027l-.825-9.144 90.818 3.399 2.388 26.451zm153.151-26.151c-4.407 1.361-6.554 6.353-4.508 10.49.136.273 2.841 5.681 8.4 12.375-8.511 2.279-13.305 2.224-15.922 1.675-17.95-3.749-29.504-21.403-25.755-39.352 3.75-17.949 21.401-29.503 39.353-25.755 1.274.266 3.58 1.054 6.322 2.178-7.807 3.339-11.732 6.95-12.272 7.469-4.498 4.317-2.047 11.941 4.121 12.833 16.067 2.323 28.194 7.565 36.97 13.033-19.655-.149-35.889 4.8-36.709 5.054z"/></g></svg>