<svg id="Layer_1" enable-background="new 0 0 512 512" height="512" viewBox="0 0 512 512" width="512" xmlns="http://www.w3.org/2000/svg"><g><path d="m372.285 504.5h-232.258c-9.598 0-17.843-6.819-19.645-16.246l-87.329-457c-2.354-12.328 7.095-23.754 19.646-23.754h406.54c12.545 0 21.992 11.415 19.648 23.738l-86.954 457c-1.795 9.435-10.044 16.262-19.648 16.262z" fill="#655e67"/><g fill="#07a9f0"><path d="m218.329 331.06 17.44-16.7h-109.66c.57 5.2 2.58 10.24 5.99 14.49l22.56 26.61c5.13 6.03 12.6 9.49 20.46 9.49h61.26l-18.05-17.28c-4.73-4.53-4.73-12.09 0-16.61z"/><path d="m381.789 295.29-36.69-63.37c-5.696 21.227-5.498 23.668-10.11 26.73-2.79 1.87-6.39 2.52-9.87 1.42l-23.04-7.27 35.56 61.56h48.15c.73-6.47-.57-13.16-4-19.07z"/><path d="m223.399 135.39-36.57 63.17 19.06-5.17c6.32-1.71 12.79 2.19 14.23 8.58l5.54 24.67 7.2-12.46 23.45-41.7-25.22-44.84c-3.13 1.84-5.81 4.49-7.69 7.75z"/></g><g fill="#72d1fb"><path d="m256.308 172.48-25.217-44.835c3.23-1.9 6.962-2.948 10.841-2.948h24.213c5.288 0 10.379 1.426 14.787 4.008 4.313 2.514 7.983 6.139 10.57 10.615l32.352 55.883 8.081-4.43 4.768-2.615c6.611-3.622 14.05-.027 16.336 6.083.785 2.096.967 4.486.297 6.984-14.803 55.155-13.542 54.219-18.345 57.421-2.797 1.877-6.393 2.519-9.872 1.423-41.687-13.155-31.304-9.88-50.216-15.847-9.656-3.047-10.946-16.184-2.067-21.051l9.206-5.047-2.276-3.944z"/><path d="m218.328 347.67c22.676 21.713 13.703 13.12 38.03 36.418 7.317 7.002 19.455 1.815 19.455-8.31v-10.824h61.364c7.836 0 15.283-3.439 20.408-9.426l20.915-24.427c4.149-4.843 6.601-10.694 7.284-16.738h-109.97v-11.416c0-10.125-12.138-15.311-19.455-8.304-25.001 23.94-16.658 15.952-38.03 36.413-4.73 4.527-4.73 12.087-.001 16.614z"/><path d="m129.69 297.254c.011-.017.017-.034.028-.051l35.448-61.234-13.034-7.859c-8.671-5.226-6.838-18.299 2.931-20.943 37.871-10.259 26.674-7.225 50.828-13.772 6.32-1.714 12.791 2.187 14.223 8.58 6.973 31.003 4.281 19.03 11.551 51.374 2.221 9.877-8.484 17.595-17.161 12.369l-8.468-5.108-31.051 53.753h-48.883c-.634-5.811.533-11.81 3.588-17.109z"/></g><path d="m175.029 504.5h-35c-9.6 0-17.84-6.82-19.65-16.25l-87.32-457c-2.36-12.32 7.09-23.75 19.64-23.75h35c-12.55 0-22 11.43-19.64 23.75l87.32 457c1.81 9.43 10.05 16.25 19.65 16.25z" fill="#544f56"/><g><path d="m118.649 315.181c.015.139.042.274.064.41.8 6.587 3.393 12.788 7.535 17.952.042.053.085.105.129.156l22.568 26.62c6.558 7.709 16.098 12.131 26.172 12.131h58.243l17.812 17.057c12.095 11.574 32.14 2.999 32.14-13.729v-3.323h53.864c10.051 0 19.567-4.409 26.109-12.048 22.375-26.143 28.311-30.645 29.955-45.206.935-8.281-.783-16.469-4.962-23.669l-35.128-60.673c7.835-29.187 9.647-31.979 6.914-39.241-1.935-5.185-6.044-9.275-11.276-11.222-9.27-3.452-15.475 1.071-22.112 4.705l-28.679-49.523c-3.178-5.521-7.774-10.139-13.275-13.348-5.612-3.291-12.035-5.03-18.574-5.03-25.587 0-30.366-1.018-38.852 3.969-.003.002-.007.003-.01.005-4.304 2.531-7.896 6.151-10.378 10.457l-35.023 60.498-28.78 7.798c-7.47 2.021-12.777 8.04-13.849 15.705-1.073 7.664 2.378 14.907 9.004 18.9l6.725 4.055-20.876 36.062c-10.514 18.161-17.046 26.047-15.46 40.532zm56.47 42.269c-5.669 0-11.044-2.497-14.739-6.84-22.414-26.611-22.448-26.112-24.025-28.746h38.633c.02 0 .039-.004.059-.004h42.043l-3.946 3.778c-7.827 7.49-7.822 19.962-.001 27.448l4.557 4.363h-42.581zm63.865-105.745-5.363-23.854 5.775-9.996 16.914-30.077 15.436 27.436-2.513 1.379c-14.671 8.047-12.543 29.753 3.409 34.778l24.403 7.706 27.601 47.782h-41.332v-3.912c0-7.74-4.421-14.436-11.539-17.475-7.116-3.039-15.012-1.602-20.603 3.753l-18.417 17.634h-44.771l17.086-29.579 3.64-6.301 1.926 1.162c6.631 3.994 14.651 3.663 20.928-.865 6.274-4.524 9.117-12.024 7.42-19.571zm112.904 98.947c-3.635 4.247-8.961 6.798-14.709 6.798h-61.37c-4.142 0-7.5 3.357-7.5 7.5 0 .033.004.064.005.097v10.731c0 3.547-4.226 5.323-6.767 2.893l-19.846-19.004c-.023-.024-.048-.046-.072-.069l-18.113-17.345s-.001-.001-.001-.001c-1.642-1.573-1.646-4.202.001-5.777l38.031-36.414c2.582-2.472 6.768-.597 6.768 2.888v11.315c0 .032-.005.064-.005.097 0 2.332 1.064 4.415 2.733 5.79 1.297 1.071 2.959 1.714 4.772 1.714h99.952c-1.634 3.096-1.056 2.13-23.879 28.787zm-4.228-99.339c30.184 52.133 29.539 50.048 30.488 55.548h-36.18l-23.742-41.101 4.633 1.462c10.353 3.275 21.271-2.791 24.074-13.198zm-30.291-52.354c2.041 3.526 6.524 4.776 10.096 2.817l12.847-7.038c3.089-1.697 6.704 1.12 5.784 4.547-2.822 10.512-10.801 40.236-13.648 50.844-.586 2.178-2.884 3.479-5.072 2.789-44.636-14.085-5.603-1.762-50.223-15.852-3.36-1.059-3.807-5.62-.705-7.322 9.734-5.343 10.799-5.534 12.159-8.02 2.802-5.102-1.451-9.094-2.302-11.222l-21.392-38.023 18.129-32.238c1.584 1.948-1.051-2.372 34.327 58.718zm-87.473-59.822c1.196-2.073 2.923-3.813 4.995-5.032 4.126-2.425 11.191-1.904 31.258-1.904 1.274 0 2.804.155 3.995.376l-41.395 73.61-1.315-5.851c-2.149-9.598-11.595-17.406-24.992-13.777zm-58.236 100.591c2.084-3.6.808-8.112-2.62-10.182l-13.035-7.859c-3.003-1.809-2.403-6.354 1.021-7.28l50.83-13.773c2.185-.59 4.441.745 4.942 2.987l11.551 51.375c.775 3.447-2.945 6.122-5.969 4.301l-8.467-5.107c-3.615-2.178-8.285-.938-10.368 2.67l-28.885 50h-36.748c.991-4.515 2.368-6.021 15.203-28.192z"/><path d="m63.588 191.037c4.068-.778 6.736-4.706 5.959-8.775-31.176-163.145-29.354-153.032-29.354-154.804 0-6.869 5.61-12.458 12.506-12.458h349.616c4.142 0 7.5-3.357 7.5-7.5s-3.358-7.5-7.5-7.5h-349.616c-17.103 0-30.282 15.565-27.011 32.661l29.125 152.417c.687 3.593 3.831 6.093 7.358 6.093.467 0 .941-.043 1.417-.134z"/><path d="m486.745 27.458c0-15.141-12.339-27.458-27.506-27.458h-26.61c-4.107 0-7.688 3.165-7.811 7.27-.127 4.248 3.278 7.73 7.497 7.73h26.924c6.896 0 12.506 5.589 12.506 12.458 0 1.846 4.912-24.631-87.18 459.378-1.184 6.22-6.613 10.164-12.644 10.164h-231.894c-5.99 0-11.154-4.271-12.278-10.154l-52.572-275.117c-.777-4.068-4.705-6.733-8.774-5.959-4.068.778-6.736 4.706-5.959 8.774l52.572 275.117c2.473 12.944 13.833 22.339 27.011 22.339h234.571c7.053 0 10.788-3.134 17.367-7.326 4.681-2.983 7.925-7.772 8.962-13.225 91.454-480.756 85.818-460.142 85.818-463.991z"/></g></g></svg>