<svg id="Layer_1" enable-background="new 0 0 512 512" height="512" viewBox="0 0 512 512" width="512" xmlns="http://www.w3.org/2000/svg"><g><path d="m191 57.862h130v140h-130z" fill="#0691ce"/><path d="m191 57.862h35v140h-35z" fill="#057aad"/><path d="m494.5 420.495h-477c-5.523 0-10-4.477-10-10v-64.633c0-5.523 4.477-10 10-10h477c5.523 0 10 4.477 10 10v64.633c0 5.523-4.477 10-10 10z" fill="#766d78"/><path d="m504.5 223.362c0 31.06-12.59 59.19-32.95 79.55s-48.49 32.95-79.55 32.95h-272c-1.45 0-2.9-.03-4.34-.09-5.1-.19-10.1-.72-15-1.58-52.92-9.16-93.16-55.3-93.16-110.83 0-31.06 12.59-59.19 32.95-79.55 16.04-16.04 36.89-27.25 60.21-31.28 4.9-.86 9.9-1.39 15-1.58 1.44-.06 2.89-.09 4.34-.09h272c62.13 0 112.5 50.37 112.5 112.5z" fill="#40c1fa"/><path d="m336.5 73.862h-161c-5.523 0-10-4.477-10-10v-13c0-5.523 4.477-10 10-10h161c5.523 0 10 4.477 10 10v13c0 5.523-4.477 10-10 10z" fill="#40c1fa"/><path d="m155 335.862h-35c-62.13 0-112.5-50.37-112.5-112.5 0-31.06 12.59-59.19 32.95-79.55s48.49-32.95 79.55-32.95h35c-31.06 0-59.19 12.59-79.55 32.95s-32.95 48.49-32.95 79.55c0 62.13 50.37 112.5 112.5 112.5z" fill="#07a9f0"/><path d="m210.5 73.862h-35c-5.52 0-10-4.48-10-10v-13c0-5.52 4.48-10 10-10h35c-5.52 0-10 4.48-10 10v13c0 5.52 4.48 10 10 10z" fill="#07a9f0"/><path d="m52.5 420.492h-35c-5.52 0-10-4.47-10-10v-64.63c0-5.52 4.48-10 10-10h35c-5.52 0-10 4.48-10 10v64.63c0 5.53 4.48 10 10 10z" fill="#655e67"/><g fill="#544f56"><circle cx="85.5" cy="420.137" r="51"/><circle cx="187.5" cy="420.137" r="51"/><circle cx="324.5" cy="420.137" r="51"/><circle cx="426.5" cy="420.137" r="51"/></g><path d="m103 468.052c-5.46 2-11.35 3.09-17.5 3.09-28.17 0-51-22.84-51-51 0-28.17 22.83-51 51-51 6.15 0 12.04 1.09 17.5 3.09-19.55 7.13-33.5 25.89-33.5 47.91 0 22.01 13.95 40.78 33.5 47.91z" fill="#444145"/><path d="m205 468.052c-5.46 2-11.35 3.09-17.5 3.09-28.17 0-51-22.84-51-51 0-28.17 22.83-51 51-51 6.15 0 12.04 1.09 17.5 3.09-19.55 7.13-33.5 25.89-33.5 47.91 0 22.01 13.95 40.78 33.5 47.91z" fill="#444145"/><path d="m342 468.052c-5.46 2-11.35 3.09-17.5 3.09-28.17 0-51-22.84-51-51 0-28.17 22.83-51 51-51 6.15 0 12.04 1.09 17.5 3.09-19.55 7.13-33.5 25.89-33.5 47.91 0 22.01 13.95 40.78 33.5 47.91z" fill="#444145"/><path d="m444 468.052c-5.46 2-11.35 3.09-17.5 3.09-28.17 0-51-22.84-51-51 0-28.17 22.83-51 51-51 6.15 0 12.04 1.09 17.5 3.09-19.55 7.13-33.5 25.89-33.5 47.91 0 22.01 13.95 40.78 33.5 47.91z" fill="#444145"/><circle cx="85.5" cy="420.137" fill="#8e8391" r="20.205"/><circle cx="187.5" cy="420.137" fill="#8e8391" r="20.205"/><circle cx="324.5" cy="420.137" fill="#8e8391" r="20.205"/><circle cx="426.5" cy="420.137" fill="#8e8391" r="20.205"/><g><path d="m494.5 328.362h-44.369c22.822-12.629 41.401-32.619 52.157-57.637 1.637-3.806-.122-8.217-3.927-9.853-3.806-1.639-8.217.123-9.853 3.927-16.603 38.613-54.484 63.563-96.509 63.563h-192.829v-210h192.83c57.897 0 105 47.103 105 105 0 4.871-.337 9.769-1 14.559-.569 4.103 2.296 7.89 6.399 8.458 4.08.571 7.888-2.28 8.458-6.399.758-5.469 1.143-11.06 1.143-16.617 0-66.168-53.832-120-120-120h-63.5v-22h8c9.649 0 17.5-7.851 17.5-17.5v-13c0-9.649-7.851-17.5-17.5-17.5h-161c-9.649 0-17.5 7.851-17.5 17.5v13c0 9.649 7.851 17.5 17.5 17.5h8v22h-63.5c-23.593 0-46.428 6.843-66.036 19.789-3.456 2.282-4.408 6.935-2.126 10.391 2.281 3.456 6.934 4.409 10.391 2.127 14.034-9.266 29.963-14.951 46.602-16.712v208.811c-52.666-5.596-93.831-50.282-93.831-104.407 0-25.565 9.294-50.198 26.17-69.361 2.737-3.109 2.437-7.849-.672-10.586-3.109-2.736-7.849-2.436-10.586.672-19.289 21.904-29.912 50.059-29.912 79.275 0 45.129 25.046 84.513 61.963 105h-44.463c-9.649 0-17.5 7.851-17.5 17.5v64.63c0 9.649 7.851 17.5 17.5 17.5h10.042c3.851 28.554 28.365 50.646 57.958 50.646 21.87 0 40.963-12.071 51-29.893 10.037 17.822 29.13 29.893 51 29.893 29.592 0 54.107-22.092 57.958-50.646h21.085c3.851 28.554 28.365 50.646 57.958 50.646 21.87 0 40.963-12.071 51-29.893 10.037 17.822 29.13 29.893 51 29.893 29.592 0 54.106-22.092 57.958-50.646h10.041c9.649 0 17.5-7.851 17.5-17.5v-64.63c0-9.649-7.851-17.5-17.5-17.5zm-370.67 0v-24.5h60.34v24.5zm60.34-88.167h-60.34v-33.666h60.34zm0-48.666h-60.34v-33.667h60.34zm-60.34 63.666h60.34v33.667h-60.34zm60.34-112.333h-60.34v-24.5h60.34zm-11.17-79v-13c0-1.379 1.121-2.5 2.5-2.5h161c1.379 0 2.5 1.121 2.5 2.5v13c0 1.379-1.121 2.5-2.5 2.5h-161c-1.379 0-2.5-1.121-2.5-2.5zm140.5 17.5v22h-115v-22zm-228 382.276c-23.864 0-43.293-19.317-43.491-43.135 0-.003 0-.007 0-.01 0-.01-.001-.021-.001-.031-.001-.108-.008-.215-.008-.324 0-23.986 19.514-43.5 43.5-43.5s43.5 19.514 43.5 43.5c0 .109-.007.215-.008.324 0 .01-.001.02-.001.031v.01c-.198 23.818-19.627 43.135-43.491 43.135zm102 0c-23.986 0-43.5-19.514-43.5-43.5s19.514-43.5 43.5-43.5c24.012 0 43.692 19.605 43.491 43.865-.198 23.818-19.627 43.135-43.491 43.135zm239 0c-23.986 0-43.5-19.514-43.5-43.5s19.514-43.5 43.5-43.5c23.936 0 43.693 19.526 43.491 43.865-.198 23.818-19.627 43.135-43.491 43.135zm70.5-53.146c0 1.379-1.121 2.5-2.5 2.5h-9.952c-3.537-28.896-28.211-51.354-58.048-51.354-21.87 0-40.963 12.071-51 29.893-10.037-17.822-29.13-29.893-51-29.893-11.786 0-23.15 3.491-32.862 10.096-3.425 2.33-4.313 6.994-1.984 10.42 2.329 3.424 6.993 4.313 10.42 1.984 7.214-4.906 15.661-7.5 24.427-7.5 23.936 0 43.693 19.526 43.491 43.865-.198 23.818-19.627 43.135-43.491 43.135-31.314 0-51.696-31.937-40.306-59.897 1.563-3.836-.281-8.213-4.117-9.775-3.837-1.56-8.212.282-9.775 4.117-1.954 4.798-3.232 9.792-3.854 14.91h-20.9c-3.537-28.896-28.211-51.354-58.048-51.354-21.87 0-40.963 12.071-51 29.893-10.037-17.822-29.13-29.893-51-29.893-29.836 0-54.51 22.458-58.048 51.354h-9.953c-1.379 0-2.5-1.121-2.5-2.5v-64.63c0-1.379 1.121-2.5 2.5-2.5h477c1.379 0 2.5 1.121 2.5 2.5z"/><path d="m85.5 392.433c-15.276 0-27.705 12.429-27.705 27.705s12.429 27.704 27.705 27.704 27.705-12.428 27.705-27.704-12.429-27.705-27.705-27.705zm0 40.409c-7.006 0-12.705-5.699-12.705-12.704 0-7.006 5.699-12.705 12.705-12.705s12.705 5.699 12.705 12.705c0 7.005-5.699 12.704-12.705 12.704z"/><path d="m187.5 392.433c-15.276 0-27.705 12.429-27.705 27.705s12.429 27.704 27.705 27.704 27.705-12.428 27.705-27.704-12.429-27.705-27.705-27.705zm0 40.409c-7.006 0-12.705-5.699-12.705-12.704 0-7.006 5.699-12.705 12.705-12.705s12.705 5.699 12.705 12.705c0 7.005-5.699 12.704-12.705 12.704z"/><path d="m324.5 447.842c15.276 0 27.705-12.428 27.705-27.704s-12.429-27.705-27.705-27.705-27.705 12.429-27.705 27.705 12.429 27.704 27.705 27.704zm0-40.409c7.006 0 12.705 5.699 12.705 12.705 0 7.005-5.699 12.704-12.705 12.704s-12.705-5.699-12.705-12.704c0-7.006 5.699-12.705 12.705-12.705z"/><path d="m426.5 392.433c-15.276 0-27.705 12.429-27.705 27.705s12.429 27.704 27.705 27.704 27.705-12.428 27.705-27.704-12.429-27.705-27.705-27.705zm0 40.409c-7.006 0-12.705-5.699-12.705-12.704 0-7.006 5.699-12.705 12.705-12.705s12.705 5.699 12.705 12.705c0 7.005-5.699 12.704-12.705 12.704z"/></g></g></svg>