<svg id="Layer_1" enable-background="new 0 0 512 512" height="512" viewBox="0 0 512 512" width="512" xmlns="http://www.w3.org/2000/svg"><g><path d="m512 140.77v52.34c0 2.76-2.24 5-5 5h-214.53v-57.34z" fill="#766d78"/><path d="m302.51 134v131.81c0 16.15-2.59 31.69-7.39 46.23-1.6 4.86-3.45 9.6-5.52 14.22-3.3 7.33-7.17 14.33-11.57 20.96-2.78 4.18-5.76 8.22-8.94 12.09-4.6 5.62-9.61 10.88-14.99 15.75-3.89 3.54-7.98 6.87-12.23 9.97-24.36 17.78-54.39 28.28-86.86 28.28-81.47 0-147.51-66.04-147.51-147.5 0-40.73 16.51-77.61 43.2-104.31 26.7-26.69 63.58-43.2 104.31-43.2h131.8c8.68 0 15.7 7.03 15.7 15.7z" fill="#fdc202"/><path d="m172.48 412.28c-5.73.68-11.56 1.03-17.47 1.03-81.47 0-147.51-66.04-147.51-147.5 0-40.73 16.51-77.61 43.2-104.31 26.7-26.69 63.58-43.2 104.31-43.2h35c-40.73 0-77.61 16.51-104.31 43.2-26.69 26.7-43.2 63.58-43.2 104.31 0 75.53 56.77 137.8 129.98 146.47z" fill="#f0a70a"/><circle cx="155.007" cy="265.806" fill="#8e8391" r="76.408"/><path d="m262.62 114.39v31.38c0 5.523-4.477 10-10 10h-76.85v-41.38c0-8.671 7.029-15.7 15.7-15.7h55.45c8.671 0 15.7 7.029 15.7 15.7z" fill="#766d78"/><path d="m172.51 340.19c-5.62 1.32-11.48 2.02-17.5 2.02-42.2 0-76.41-34.21-76.41-76.4 0-42.2 34.21-76.41 76.41-76.41 6.02 0 11.88.7 17.5 2.02-33.76 7.9-58.91 38.21-58.91 74.39 0 36.17 25.15 66.48 58.91 74.38z" fill="#766d78"/><path d="m226.47 98.69c-8.67 0-15.7 7.03-15.7 15.7v41.38h-35v-41.38c0-8.67 7.03-15.7 15.7-15.7z" fill="#655e67"/><g><path d="m504.5 115.978c-4.142 0-7.5 3.357-7.5 7.5v9.794h-187.009c-.388-12.456-10.634-22.47-23.181-22.47h-16.966c-1.729-11.096-11.349-19.614-22.922-19.614h-55.456c-11.573 0-21.193 8.518-22.922 19.614h-13.534c-41.4 0-80.328 16.122-109.614 45.397-29.274 29.286-45.396 68.214-45.396 109.613 0 52.943 26.606 101.688 71.172 130.395 1.256.81 2.664 1.196 4.055 1.196 2.464 0 4.878-1.214 6.312-3.439 2.243-3.482 1.238-8.124-2.244-10.366-40.259-25.933-64.295-69.966-64.295-117.786 0-37.394 14.563-72.556 41.002-99.005 26.452-26.442 61.613-41.005 99.007-41.005h13.256v14.966h-19.464c-4.142 0-7.5 3.357-7.5 7.5s3.358 7.5 7.5 7.5h113.821c4.142 0 7.5-3.357 7.5-7.5 0-.007-.001-.013-.001-.019v-22.447h16.688c4.521 0 8.2 3.679 8.2 8.2v131.81c0 14.526-2.202 28.757-6.542 42.426l-18.508-11.592c-3.512-2.197-8.138-1.135-10.337 2.375-2.198 3.511-1.135 8.139 2.375 10.338l21.036 13.175c-3.18 7.159-6.959 14.033-11.285 20.551l-18.812-11.958c-3.496-2.223-8.131-1.189-10.353 2.306-2.222 3.496-1.189 8.131 2.306 10.354l17.897 11.375c-4.569 5.503-9.57 10.66-14.949 15.427l-20.157-12.499c-3.52-2.185-8.144-1.099-10.326 2.422-2.183 3.521-1.099 8.144 2.422 10.326l15.544 9.638c-23.411 16.398-51.543 25.335-80.31 25.335-17.375 0-34.328-3.142-50.386-9.337-3.864-1.492-8.206.432-9.697 4.297s.433 8.206 4.297 9.697c17.787 6.863 36.556 10.343 55.785 10.343 85.113 0 155-68.95 155-155v-60.199h122.5c4.142 0 7.5-3.357 7.5-7.5s-3.358-7.5-7.5-7.5h-122.5v-42.341h31.702v12.118c0 4.143 3.358 7.5 7.5 7.5s7.5-3.357 7.5-7.5v-12.118h34.273v12.118c0 4.143 3.358 7.5 7.5 7.5s7.5-3.357 7.5-7.5v-12.118h34.273v12.118c0 4.143 3.358 7.5 7.5 7.5s7.5-3.357 7.5-7.5v-12.118h41.743v38.122 4.219h-34.49c-4.142 0-7.5 3.357-7.5 7.5s3.358 7.5 7.5 7.5h41.99c4.142 0 7.5-3.357 7.5-7.5 0-15.285 0-58.219 0-74.635 0-4.142-3.358-7.499-7.5-7.499zm-321.234 24.79c0-6.651 0-19.63 0-26.38 0-4.521 3.678-8.2 8.2-8.2h55.456c4.521 0 8.2 3.679 8.2 8.2 0 6.566.001 19.735.001 26.38z"/><path d="m92.446 221.296c-3.59-2.063-8.175-.825-10.239 2.767-7.267 12.646-11.107 27.082-11.107 41.745 0 46.268 37.641 83.908 83.908 83.908s83.908-37.641 83.908-83.908-37.641-83.907-83.909-83.907c-18.757.001-36.496 6.054-51.297 17.503-3.276 2.534-3.878 7.245-1.343 10.521 2.534 3.277 7.244 3.876 10.521 1.344 12.15-9.399 26.715-14.367 42.12-14.368 37.996 0 68.908 30.912 68.908 68.907 0 37.996-30.912 68.908-68.908 68.908s-68.908-30.912-68.908-68.908c0-12.045 3.151-23.896 9.113-34.272 2.063-3.591.825-8.176-2.767-10.24z"/><path d="m155.007 236.169c-4.142 0-7.5 3.357-7.5 7.5v14.639h-14.64c-4.142 0-7.5 3.357-7.5 7.5s3.358 7.5 7.5 7.5h14.64v14.641c0 4.143 3.358 7.5 7.5 7.5s7.5-3.357 7.5-7.5v-14.641h14.64c4.142 0 7.5-3.357 7.5-7.5s-3.358-7.5-7.5-7.5h-14.64v-14.639c0-4.142-3.358-7.5-7.5-7.5z"/></g></g></svg>