<svg id="Layer_1" enable-background="new 0 0 512 512" height="512" viewBox="0 0 512 512" width="512" xmlns="http://www.w3.org/2000/svg"><g><path d="m290.366 504.5h-262.859c-11.046 0-20-8.954-20-20v-457c0-11.046 8.954-20 20-20h262.859c11.046 0 20 8.954 20 20v457c0 11.046-8.954 20-20 20z" fill="#766d78"/><path d="m280.37 42.5v427c0 2.76-2.24 5-5 5h-232.86c-2.76 0-5-2.24-5-5v-427c0-2.76 2.24-5 5-5h232.86c2.76 0 5 2.24 5 5z" fill="#544f56"/><path d="m77.51 474.5h-35c-2.76 0-5-2.24-5-5v-427c0-2.76 2.24-5 5-5h35c-2.76 0-5 2.24-5 5v427c0 2.76 2.24 5 5 5z" fill="#444145"/><path d="m310.366 340v154.5c0 5.523-4.477 10-10 10h-125.205c-5.523 0-10-4.477-10-10v-154.5c0-5.523 4.477-10 10-10h125.205c5.523 0 10 4.477 10 10z" fill="#fdc202"/><path d="m259.195 406.26-19.574-15.444c-1.09-.86-2.627-.86-3.717 0l-19.574 15.444c-1.967 1.552-4.858.151-4.858-2.355v-73.905h52.581v73.905c.001 2.506-2.89 3.908-4.858 2.355z" fill="#e38803"/><path d="m504.493 271.5v223c0 5.523-4.477 10-10 10h-174.124c-5.523 0-10-4.477-10-10v-223c0-5.523 4.477-10 10-10h174.124c5.523 0 10 4.477 10 10z" fill="#40c1fa"/><path d="m428.863 336.355-19.574-15.444c-1.09-.86-2.627-.86-3.717 0l-19.574 15.444c-1.967 1.552-4.858.151-4.858-2.355v-72.5h52.581v72.5c0 2.506-2.89 3.908-4.858 2.355z" fill="#0691ce"/><path d="m210.16 504.5h-35c-5.52 0-10-4.48-10-10v-154.5c0-5.52 4.48-10 10-10h35c-5.52 0-10 4.48-10 10v154.5c0 5.52 4.48 10 10 10z" fill="#f0a70a"/><path d="m355.37 504.5h-35c-5.52 0-10-4.48-10-10v-223c0-5.52 4.48-10 10-10h35c-5.52 0-10 4.48-10 10v223c0 5.52 4.48 10 10 10z" fill="#07a9f0"/><path d="m494.493 254h-9.391c-4.143 0-7.5 3.357-7.5 7.5s3.357 7.5 7.5 7.5h9.391c1.379 0 2.5 1.121 2.5 2.5v223c0 1.379-1.121 2.5-2.5 2.5h-174.124c-1.379 0-2.5-1.121-2.5-2.5v-223c0-1.379 1.121-2.5 2.5-2.5h53.271v65c0 8.765 10.117 13.675 17.004 8.243l16.787-13.244 16.786 13.244c0 .001.001.001.001.001 6.875 5.424 17.003.536 17.003-8.244v-65h13.881c4.143 0 7.5-3.357 7.5-7.5s-3.357-7.5-7.5-7.5c-145.213 0-135.096-.108-137.236.2v-226.7c0-15.164-12.337-27.5-27.5-27.5h-262.859c-15.163 0-27.5 12.336-27.5 27.5v457c0 15.164 12.337 27.5 27.5 27.5h466.986c9.649 0 17.5-7.851 17.5-17.5v-223c0-9.649-7.85-17.5-17.5-17.5zm-105.852 15h37.581v55.718l-12.286-9.694c-3.829-3.021-9.179-3.021-13.008 0l-12.287 9.694zm-343.631 152.17v-34.34h112.651v34.34zm112.651 15v30.83h-112.651v-30.83zm-112.651-64.34v-34.33h112.851c-.118.819-.2 1.649-.2 2.5v31.83zm59.927-98.663h-59.927v-34.334h227.86v34.334h-137.933c-4.143 0-7.5 3.357-7.5 7.5s3.357 7.5 7.5 7.5h137.933v34.333h-8.816c-11.109 0-211.13 0-219.044 0v-34.333h59.927c4.143 0 7.5-3.357 7.5-7.5s-3.358-7.5-7.5-7.5zm78-197.334h-137.927v-30.833h227.86v30.833h-59.934c-4.143 0-7.5 3.357-7.5 7.5s3.357 7.5 7.5 7.5h59.934v34.334h-227.86v-34.334h137.927c4.143 0 7.5-3.357 7.5-7.5s-3.358-7.5-7.5-7.5zm89.933 64.334v34.333h-227.86v-34.333zm0 49.333v34.333h-227.86v-34.333zm-16.316 148v57.122l-12.284-9.692c-3.828-3.021-9.18-3.026-13.01-.001l-12.286 9.693v-57.122zm46.312 147c0 6.893-5.607 12.5-12.5 12.5h-115.205c-1.379 0-2.5-1.121-2.5-2.5v-154.5c0-1.379 1.121-2.5 2.5-2.5h28.813v66.405c0 8.776 10.13 13.67 17.003 8.242l16.787-13.244 16.786 13.244c6.883 5.435 17.004.523 17.004-8.242v-66.405h28.813c1.379 0 2.5 1.121 2.5 2.5v144.5zm0-161.8c-.819-.118-1.649-.2-2.5-.2h-12.496v-280c0-6.893-5.607-12.5-12.5-12.5h-232.86c-6.893 0-12.5 5.607-12.5 12.5v427c0 6.893 5.607 12.5 12.5 12.5h115.151v12.5c0 .851.082 1.681.2 2.5h-130.354c-6.893 0-12.5-5.607-12.5-12.5v-457c0-6.893 5.607-12.5 12.5-12.5h262.859c6.893 0 12.5 5.607 12.5 12.5z"/></g></svg>