<svg id="Layer_1" enable-background="new 0 0 512 512" height="512" viewBox="0 0 512 512" width="512" xmlns="http://www.w3.org/2000/svg"><g><path d="m456 320.5v80l-198.333 38.167-201.667-38.167v-80c0-53.51 21.01-102.12 55.25-138.01 4.75-4.98 9.75-9.72 15-14.19 11.57-9.88 24.29-18.46 37.92-25.52 4.88-2.53 9.89-4.86 15-6.99 23.65-9.85 49.61-15.29 76.83-15.29s53.18 5.44 76.83 15.29c5.11 2.13 10.12 4.46 15 6.99 13.63 7.06 26.35 15.64 37.92 25.52 4.03 3.44 7.93 7.04 11.67 10.78 1.12 1.12 2.24 2.26 3.33 3.41 34.24 35.89 55.25 84.5 55.25 138.01z" fill="#fed22b"/><path d="m273.5 121.26c-20.86 1.8-40.8 6.81-59.33 14.53-5.11 2.13-10.12 4.46-15 6.99-13.63 7.06-26.35 15.64-37.92 25.52-5.25 4.47-10.25 9.21-15 14.19-34.24 35.89-55.25 84.5-55.25 138.01v80h-35v-80c0-53.51 21.01-102.12 55.25-138.01 4.75-4.98 9.75-9.72 15-14.19 11.57-9.88 24.29-18.46 37.92-25.52 4.88-2.53 9.89-4.86 15-6.99 23.65-9.85 49.61-15.29 76.83-15.29 5.9 0 11.73.26 17.5.76z" fill="#fdc202"/><path d="m479.5 462.5h-447c-13.807 0-25-11.193-25-25v-12c0-13.807 11.193-25 25-25h447c13.807 0 25 11.193 25 25v12c0 13.807-11.193 25-25 25z" fill="#f0a70a"/><path d="m290 400.5h-68v-317c0-18.778 15.222-34 34-34 18.778 0 34 15.222 34 34z" fill="#f0a70a"/><path d="m67.5 462.5h-35c-13.81 0-25-11.19-25-25v-12c0-13.81 11.19-25 25-25h35c-13.81 0-25 11.19-25 25v12c0 13.81 11.19 25 25 25z" fill="#e38803"/><path d="m479.5 393h-16v-72.5c0-55.435-21.585-107.543-60.776-146.724-29.052-29.051-65.322-48.535-105.224-56.615v-33.661c0-22.883-18.617-41.5-41.5-41.5s-41.5 18.617-41.5 41.5v33.667c-45.222 9.196-86.417 33.486-116.558 68.887-31.883 37.447-49.442 85.195-49.442 134.446v.056c0 4.143 3.357 7.473 7.5 7.473s7.5-3.386 7.5-7.528c0-48.452 17.821-93.112 47.75-127.202v38.701c0 4.143 3.357 7.5 7.5 7.5s7.5-3.357 7.5-7.5v-53.973c11.418-10.399 24.133-19.448 37.917-26.892v109.029c0 4.143 3.357 7.5 7.5 7.5s7.5-3.357 7.5-7.5v-116.305c11.221-4.85 23.03-8.688 35.333-11.378v260.519c-18.492 0-133.361 0-151 0v-42.444c0-4.143-3.357-7.5-7.5-7.5s-7.5 3.357-7.5 7.5v42.444h-16c-17.921 0-32.5 14.579-32.5 32.5v12c0 17.921 14.579 32.5 32.5 32.5h77c4.143 0 7.5-3.357 7.5-7.5s-3.357-7.5-7.5-7.5h-77c-9.649 0-17.5-7.851-17.5-17.5v-12c0-9.649 7.851-17.5 17.5-17.5h447c9.649 0 17.5 7.851 17.5 17.5v12c0 9.649-7.851 17.5-17.5 17.5h-340c-4.143 0-7.5 3.357-7.5 7.5s3.357 7.5 7.5 7.5h340c17.921 0 32.5-14.579 32.5-32.5v-12c0-17.921-14.579-32.5-32.5-32.5zm-182 0v-81.356c0-4.143-3.357-7.5-7.5-7.5s-7.5 3.357-7.5 7.5v81.356c-10.383 0-42.611 0-53 0v-309.5c0-14.612 11.888-26.5 26.5-26.5s26.5 11.888 26.5 26.5v198.144c0 4.143 3.357 7.5 7.5 7.5s7.5-3.357 7.5-7.5v-149.154c12.197 2.671 24.015 6.499 35.333 11.421v116.252c0 4.143 3.357 7.5 7.5 7.5s7.5-3.357 7.5-7.5v-108.938c13.59 7.391 26.306 16.463 37.917 27.081v53.694c0 4.143 3.357 7.5 7.5 7.5s7.5-3.357 7.5-7.5v-38.394c30.876 35.113 47.75 79.699 47.75 126.894v72.5c-18.987 0-126.043 0-151 0z"/></g></svg>