<svg id="Layer_1" enable-background="new 0 0 512 512" height="512" viewBox="0 0 512 512" width="512" xmlns="http://www.w3.org/2000/svg"><g><circle cx="117.641" cy="447.35" fill="#544f56" r="51.249"/><circle cx="417.961" cy="447.35" fill="#544f56" r="51.249"/><path d="m135.724 495.313c-5.621 2.128-11.717 3.286-18.081 3.286-28.31 0-51.247-22.948-51.247-51.247 0-28.31 22.937-51.247 51.247-51.247 6.365 0 12.461 1.157 18.081 3.286-19.383 7.305-33.166 26.016-33.166 47.962 0 21.933 13.783 40.655 33.166 47.96z" fill="#444145"/><path d="m436.048 495.313c-5.621 2.128-11.727 3.286-18.092 3.286-28.3 0-51.247-22.948-51.247-51.247 0-28.31 22.948-51.247 51.247-51.247 6.365 0 12.471 1.157 18.092 3.286-19.383 7.305-33.176 26.016-33.176 47.962-.001 21.933 13.793 40.655 33.176 47.96z" fill="#444145"/><path d="m117.641 458.473c-9.843 0-17.823-7.979-17.823-17.823v-95.107h35.646v95.107c0 9.844-7.98 17.823-17.823 17.823z" fill="#8e8391"/><path d="m417.961 458.473c-9.843 0-17.823-7.979-17.823-17.823v-95.107h35.646v95.107c0 9.844-7.98 17.823-17.823 17.823z" fill="#8e8391"/><g><path d="m504.252 335.466c0 13.278-10.742 24.036-24.036 24.036h-424.83c-13.28 0-24.036-10.756-24.036-24.036 0-13.226 10.71-24.022 24.036-24.022h424.83c13.28 0 24.036 10.756 24.036 24.022z" fill="#655e67"/></g><path d="m309.26 304.517-11.171 63.696c-.433 2.471-2.58 4.273-5.089 4.273h-50.399c-2.509 0-4.655-1.803-5.089-4.273l-11.171-63.696c-.555-3.162 1.878-6.059 5.089-6.059h72.741c3.21.002 5.643 2.898 5.089 6.059z" fill="#544f56"/><g><path d="m91.543 359.507h-36.162c-13.277 0-24.033-10.756-24.033-24.043 0-13.225 10.714-24.022 24.033-24.022h36.162c-13.318 0-24.033 10.797-24.033 24.022.001 13.287 10.757 24.043 24.033 24.043z" fill="#544f56"/></g><path d="m278.762 372.484h-36.162c-2.511 0-4.649-1.798-5.083-4.267l-11.179-63.697c-.548-3.162 1.88-6.065 5.094-6.065h36.162c-3.213 0-5.641 2.903-5.094 6.065l11.179 63.697c.433 2.469 2.572 4.267 5.083 4.267z" fill="#444145"/><g><path d="m54.963 23.499 4.718 51.979c.365 4.025 3.745 7.05 7.708 7.05.235 0 .472-.011.71-.032 4.262-.387 7.404-4.156 7.017-8.418l-4.718-51.981c-.853-9.375-8.594-16.445-18.008-16.445h-44.641c-4.28 0-7.749 3.469-7.749 7.749s3.469 7.749 7.749 7.749h44.641c1.345 0 2.451 1.01 2.573 2.349z"/><path d="m480.218 303.693h-25.011c1.461-16.092 14.227-156.709 15.733-173.3.387-4.262-2.755-8.031-7.017-8.418-4.267-.377-8.031 2.755-8.418 7.018l-2.751 30.3c-2.211 0-366.27 0-369.905 0l-4.933-54.346c-.387-4.263-4.164-7.401-8.418-7.018-4.263.387-7.404 4.156-7.017 8.418.796 8.769 17.129 188.706 17.913 197.346h-25.012c-17.525 0-31.782 14.252-31.782 31.771 0 17.53 14.257 31.791 31.782 31.791h36.689v26.925c-20.193 9.735-33.424 30.452-33.424 53.17 0 32.53 26.465 58.996 58.996 58.996s58.997-26.466 58.997-58.996c0-22.713-13.231-43.424-33.425-53.159v-26.936h16.784c4.28 0 7.749-3.469 7.749-7.749s-3.469-7.749-7.749-7.749h-104.617c-8.979 0-16.284-7.309-16.284-16.293 0-8.973 7.305-16.273 16.284-16.273h33.447c.014 0 .028.002.043.002s.031-.002.046-.002h132.131l5.712 32.566h-35.764c-4.28 0-7.749 3.469-7.749 7.749s3.469 7.749 7.749 7.749h38.483l.403 2.298c1.087 6.189 6.437 10.681 12.721 10.681h50.399c6.287 0 11.637-4.494 12.721-10.683l.403-2.296h86.26v26.936c-20.193 9.734-33.425 30.446-33.425 53.159 0 18.549 8.893 36.247 23.79 47.341 1.39 1.035 3.013 1.535 4.623 1.535 7.435 0 10.609-9.515 4.635-13.964-11.152-8.306-17.549-21.032-17.549-34.912 0-14.076 6.89-27.112 17.926-35.174v28.468c0 14.101 11.472 25.572 25.572 25.572s25.572-11.471 25.572-25.572v-28.482c11.043 8.063 17.936 21.104 17.936 35.188 0 24.589-20.496 44.356-45.025 43.472-4.274-.151-7.863 3.204-8.009 7.481s3.203 7.863 7.48 8.009c33.393 1.141 61.051-25.69 61.051-58.962 0-22.721-13.235-43.438-33.435-53.171v-26.924h36.689c17.525 0 31.782-14.261 31.782-31.791 0-17.519-14.257-31.771-31.782-31.771zm-319.077 143.658c0 23.985-19.514 43.498-43.498 43.498s-43.498-19.513-43.498-43.498c0-14.081 6.89-27.12 17.926-35.184v28.478c0 14.101 11.472 25.572 25.572 25.572s25.572-11.471 25.572-25.572v-28.468c11.036 8.063 17.926 21.098 17.926 35.174zm-33.424-6.705c0 5.555-4.519 10.074-10.074 10.074s-10.074-4.519-10.074-10.074v-73.389h20.148zm319.092-215.853h-114.141l25.377-50.002h93.303zm-171.26 65.917v-50.419h31.874l-25.588 50.419zm-21.784 0-25.588-50.419h31.874v50.419zm-33.453-65.917-25.376-50.002h65.115v50.002zm55.237 0v-50.002h65.116l-25.376 50.002zm-97.994-50.002 25.377 50.002h-114.136l-4.539-50.002zm-87.353 65.5h120.595l25.588 50.419h-4.955c-3.826 0-7.431 1.68-9.891 4.61-1.989 2.368-3.025 5.334-3.007 8.374h-122.575zm154.569 124.447-10.265-58.53h66.591l-10.265 58.53zm183.26 75.908c0 5.555-4.519 10.074-10.074 10.074s-10.074-4.519-10.074-10.074v-73.389h20.148zm52.187-88.888h-171.376l5.712-32.566h38.471c4.28 0 7.749-3.469 7.749-7.749s-3.469-7.749-7.749-7.749h-35.956c.018-3.039-1.017-6.004-3.005-8.372-2.459-2.93-6.064-4.611-9.892-4.612h-4.957l25.588-50.419h120.599l-5.756 63.402h-55.624c-4.28 0-7.749 3.469-7.749 7.749s3.469 7.749 7.749 7.749h62.644c.022 0 .045.003.067.003.021 0 .042-.003.064-.003h33.422c8.979 0 16.284 7.3 16.284 16.273-.001 8.985-7.306 16.294-16.285 16.294z"/><path d="m274.856 326.383h-14.111c-4.28 0-7.749 3.469-7.749 7.749s3.469 7.749 7.749 7.749h14.111c4.28 0 7.749-3.469 7.749-7.749s-3.469-7.749-7.749-7.749z"/></g></g></svg>