<svg xmlns="http://www.w3.org/2000/svg" viewBox="0 0 571.66 433.88"><defs><style>.cls-1{fill:#1f1d1e;}.cls-2{fill:#fff;stroke:#1f1d1e;stroke-linecap:round;stroke-linejoin:round;stroke-width:12px;}</style></defs><g id="OBJECTS"><path class="cls-1" d="M154.64,413.5c-84.81-15.11-138.73-95.81-139-179.41C15.26,115,132.14,44.37,234.61,21.37c6.3-1.41,5.17-5.27-1-3.88C128.35,41.1,17.66,106.72,5.72,224.45c-9.1,89.66,53.51,178,142.19,193.8,2.58.46,12.28-3.76,6.73-4.75Z"/><path class="cls-1" d="M486.91,54.76c40.54,31.36,62.31,75.58,60.24,126.89-1.65,41-21,77.37-54,101.53-28.63,21-64.43,30.65-98.77,37.32a590.76,590.76,0,0,1-133.18,11c-2.51-.08-12.16,4.58-6.73,4.75,77.68,2.45,169.22-5.1,237.67-46.26,35.41-21.29,57.75-55.59,64.1-96.26C565,137.54,541.14,85.28,496.81,51c-2.49-1.93-11.91,2.2-9.9,3.76Z"/><path class="cls-2" d="M156.16,394.43a7.29,7.29,0,0,1-1.23-.1C122.43,388.79,64.14,367,39,283.05c-13.63-45.44-6.41-91.77,20.89-134C96.78,92,166.37,56.5,238.72,40.79,418.55,1.73,530.84,72.5,530.84,170.07c0,120.82-130.07,128.7-193.06,139.78S171,294.63,139.45,334.06C128.91,347.22,149,370,161.24,381.93a7.28,7.28,0,0,1-5.08,12.5Z"/></g></svg>